G04 (created by PCBNEW (2013-jul-07)-stable) date Fri 08 Aug 2014 03:37:50 PM CDT*
%MOIN*%
G04 Gerber Fmt 3.4, Leading zero omitted, Abs format*
%FSLAX34Y34*%
G01*
G70*
G90*
G04 APERTURE LIST*
%ADD10C,0.00590551*%
%ADD11C,0.04*%
%ADD12R,0.02X0.045*%
%ADD13R,0.0354331X0.011811*%
%ADD14R,0.0866142X0.0531496*%
%ADD15R,0.045X0.025*%
%ADD16R,0.025X0.045*%
%ADD17R,0.0236X0.0157*%
%ADD18R,0.0157X0.0236*%
%ADD19C,0.0590551*%
%ADD20C,0.11811*%
%ADD21R,0.06X0.06*%
%ADD22C,0.06*%
%ADD23R,0.0314X0.0314*%
%ADD24C,0.0787402*%
%ADD25C,0.0866142*%
%ADD26C,0.035*%
%ADD27C,0.011811*%
%ADD28C,0.0082*%
%ADD29C,0.027*%
%ADD30C,0.01*%
G04 APERTURE END LIST*
G54D10*
G54D11*
X27350Y-25250D03*
X32000Y-35425D03*
X32000Y-37650D03*
X32000Y-38200D03*
X24480Y-35590D03*
X53040Y-35900D03*
X24320Y-27770D03*
X39527Y-34212D03*
X35511Y-36771D03*
X32000Y-24950D03*
X32000Y-25500D03*
X32000Y-26725D03*
X32000Y-27275D03*
X32000Y-33325D03*
X32000Y-35975D03*
X32000Y-33875D03*
G54D12*
X54400Y-34650D03*
X54900Y-34650D03*
X55400Y-34650D03*
X55900Y-34650D03*
X55900Y-37150D03*
X55400Y-37150D03*
X54900Y-37150D03*
X54400Y-37150D03*
G54D13*
X26712Y-33366D03*
X24468Y-33366D03*
X26712Y-33169D03*
X24468Y-33169D03*
X26712Y-32972D03*
X24468Y-32972D03*
X26712Y-32775D03*
X24468Y-32775D03*
X26712Y-32578D03*
X24468Y-32578D03*
X26712Y-32381D03*
X24468Y-32381D03*
X26712Y-32185D03*
X24468Y-32185D03*
X26712Y-31988D03*
X24468Y-31988D03*
X26712Y-31594D03*
X24468Y-31594D03*
X26712Y-31397D03*
X24468Y-31397D03*
X26712Y-31003D03*
X24468Y-31003D03*
X26712Y-30807D03*
X24468Y-30807D03*
X26712Y-30610D03*
X24468Y-30610D03*
X26712Y-30413D03*
X24468Y-30413D03*
X26712Y-30216D03*
X24468Y-30216D03*
X26712Y-30019D03*
X24468Y-30019D03*
X26712Y-29822D03*
X24468Y-29822D03*
X26712Y-29625D03*
X24468Y-29625D03*
G54D14*
X25354Y-34224D03*
X25354Y-28769D03*
G54D15*
X38000Y-35450D03*
X38000Y-34850D03*
G54D16*
X38370Y-34173D03*
X37770Y-34173D03*
X53660Y-33690D03*
X53060Y-33690D03*
X53660Y-34490D03*
X53060Y-34490D03*
X36511Y-34173D03*
X37111Y-34173D03*
G54D15*
X39540Y-35450D03*
X39540Y-34850D03*
X36870Y-36080D03*
X36870Y-36680D03*
X39530Y-36080D03*
X39530Y-36680D03*
X36870Y-35460D03*
X36870Y-34860D03*
G54D16*
X24100Y-37290D03*
X24700Y-37290D03*
G54D17*
X33700Y-37748D03*
X33700Y-38102D03*
X33700Y-25048D03*
X33700Y-25402D03*
X33650Y-26823D03*
X33650Y-27177D03*
X33650Y-33423D03*
X33650Y-33777D03*
X33700Y-35523D03*
X33700Y-35877D03*
G54D18*
X33277Y-24975D03*
X32923Y-24975D03*
G54D17*
X32500Y-33423D03*
X32500Y-33777D03*
G54D18*
X33277Y-25475D03*
X32923Y-25475D03*
G54D17*
X32500Y-25048D03*
X32500Y-25402D03*
G54D18*
X33252Y-26750D03*
X32898Y-26750D03*
G54D17*
X32500Y-26823D03*
X32500Y-27177D03*
G54D18*
X33252Y-27250D03*
X32898Y-27250D03*
X33252Y-33350D03*
X32898Y-33350D03*
X33252Y-33850D03*
X32898Y-33850D03*
X33277Y-35450D03*
X32923Y-35450D03*
G54D17*
X32500Y-35523D03*
X32500Y-35877D03*
G54D18*
X33277Y-35950D03*
X32923Y-35950D03*
X33277Y-37675D03*
X32923Y-37675D03*
G54D17*
X32500Y-38102D03*
X32500Y-37748D03*
G54D18*
X33277Y-38175D03*
X32923Y-38175D03*
G54D19*
X51525Y-29750D03*
X51525Y-31250D03*
X51025Y-29000D03*
X51025Y-30500D03*
X50525Y-29750D03*
X50525Y-31250D03*
X50025Y-29000D03*
X50025Y-30500D03*
X49525Y-29750D03*
X49525Y-31250D03*
X49025Y-29000D03*
X49025Y-30500D03*
X48525Y-29750D03*
X48525Y-31250D03*
X48025Y-29000D03*
X48025Y-30500D03*
X47525Y-29750D03*
X47525Y-31250D03*
X47025Y-29000D03*
X47025Y-30500D03*
X46525Y-29750D03*
X46525Y-31250D03*
X46025Y-29000D03*
X46025Y-30500D03*
X45525Y-29750D03*
X45525Y-31250D03*
X45025Y-29000D03*
X45025Y-30500D03*
X44525Y-29750D03*
X44525Y-31250D03*
X44025Y-29000D03*
X44025Y-30500D03*
X43525Y-29750D03*
X43525Y-31250D03*
X43025Y-29000D03*
X43025Y-30500D03*
X42525Y-29750D03*
X42525Y-31250D03*
X42025Y-29000D03*
X42025Y-30500D03*
X41525Y-29750D03*
X41525Y-31250D03*
X41025Y-29000D03*
X41025Y-30500D03*
X40525Y-29750D03*
X40525Y-31250D03*
X40025Y-29000D03*
X40025Y-30500D03*
X39525Y-29750D03*
X39525Y-31250D03*
X39025Y-29000D03*
X39025Y-30500D03*
X38525Y-29750D03*
X38525Y-31250D03*
X38025Y-29000D03*
X38025Y-30500D03*
X37525Y-29750D03*
X37525Y-31250D03*
X37025Y-29000D03*
X37025Y-30500D03*
X36525Y-29750D03*
X36525Y-31250D03*
X36025Y-29000D03*
X36025Y-30500D03*
X35525Y-29750D03*
X35525Y-31250D03*
X35025Y-29000D03*
X35025Y-30500D03*
G54D20*
X31875Y-30125D03*
X54675Y-30125D03*
G54D21*
X50145Y-34660D03*
G54D22*
X50145Y-35660D03*
G54D23*
X25845Y-37290D03*
X26435Y-37290D03*
G54D24*
X23425Y-25196D03*
G54D25*
X25393Y-25196D03*
X57480Y-25196D03*
X57480Y-37795D03*
X21259Y-37795D03*
X21259Y-25196D03*
G54D16*
X38597Y-26141D03*
X39197Y-26141D03*
G54D26*
X37834Y-26141D03*
X40280Y-34650D03*
X55220Y-32690D03*
X26110Y-34890D03*
X37362Y-26141D03*
X36889Y-26141D03*
X36060Y-34650D03*
X38640Y-34680D03*
X34260Y-36110D03*
X34200Y-35300D03*
X25629Y-27716D03*
X22677Y-29173D03*
X23110Y-29173D03*
X23543Y-29173D03*
X23976Y-29173D03*
X22125Y-31259D03*
X22637Y-31259D03*
X22125Y-31771D03*
X22677Y-31771D03*
X22677Y-33779D03*
X23110Y-33779D03*
X23503Y-33779D03*
X23897Y-33779D03*
X24921Y-35000D03*
X26850Y-38031D03*
X54370Y-37992D03*
X54921Y-37992D03*
X55393Y-37992D03*
X55905Y-37992D03*
X52440Y-33700D03*
X52440Y-34488D03*
X54881Y-33661D03*
X37874Y-36181D03*
X27360Y-31510D03*
X23900Y-31510D03*
X57230Y-31680D03*
X57230Y-33500D03*
X24900Y-38500D03*
X40000Y-26141D03*
X26710Y-34890D03*
X36020Y-36770D03*
X22160Y-30160D03*
X22650Y-30150D03*
X25580Y-30220D03*
X25590Y-29720D03*
X23425Y-27795D03*
X22690Y-32970D03*
X22230Y-32980D03*
X25600Y-32770D03*
X25590Y-33310D03*
X23740Y-35590D03*
G54D27*
X54400Y-33790D02*
X54400Y-34650D01*
X54300Y-33690D02*
X54400Y-33790D01*
X53660Y-33690D02*
X54300Y-33690D01*
X54240Y-34490D02*
X54400Y-34650D01*
X53660Y-34490D02*
X54240Y-34490D01*
X40080Y-34850D02*
X40280Y-34650D01*
X39540Y-34850D02*
X40080Y-34850D01*
X53273Y-35900D02*
X53660Y-35513D01*
X53660Y-35513D02*
X53660Y-34490D01*
X53040Y-35900D02*
X53273Y-35900D01*
X37834Y-26141D02*
X38597Y-26141D01*
X54400Y-33790D02*
X54400Y-33510D01*
X55220Y-32690D02*
X54400Y-33510D01*
X26330Y-33169D02*
X26712Y-33169D01*
X26330Y-33169D02*
X26110Y-33390D01*
X26110Y-33390D02*
X26110Y-34890D01*
X36889Y-26141D02*
X37362Y-26141D01*
X39527Y-34837D02*
X39540Y-34850D01*
X39527Y-34212D02*
X39527Y-34837D01*
G54D28*
X36270Y-34860D02*
X36060Y-34650D01*
X36870Y-34860D02*
X36270Y-34860D01*
X36060Y-34624D02*
X36511Y-34173D01*
X36060Y-34650D02*
X36060Y-34624D01*
X38470Y-34850D02*
X38640Y-34680D01*
X38000Y-34850D02*
X38470Y-34850D01*
X38370Y-34410D02*
X38640Y-34680D01*
X38370Y-34173D02*
X38370Y-34410D01*
X33980Y-38102D02*
X34062Y-38020D01*
X35000Y-38020D02*
X35010Y-38020D01*
X34062Y-38020D02*
X35000Y-38020D01*
X33700Y-38102D02*
X33980Y-38102D01*
X43994Y-38020D02*
X46677Y-35337D01*
X46677Y-35337D02*
X46677Y-31892D01*
X46677Y-31892D02*
X46980Y-31590D01*
X46980Y-31590D02*
X46980Y-31110D01*
X46980Y-31110D02*
X46500Y-30630D01*
X46500Y-30630D02*
X46500Y-30330D01*
X46500Y-30330D02*
X46025Y-29855D01*
X46025Y-29855D02*
X46025Y-29000D01*
X35000Y-38020D02*
X43994Y-38020D01*
X33627Y-38175D02*
X33700Y-38102D01*
X33277Y-38175D02*
X33627Y-38175D01*
X33948Y-37748D02*
X34060Y-37860D01*
X34910Y-37860D02*
X35000Y-37860D01*
X34060Y-37860D02*
X34910Y-37860D01*
X33700Y-37748D02*
X33948Y-37748D01*
X43940Y-37860D02*
X46525Y-35275D01*
X46525Y-35275D02*
X46525Y-31250D01*
X34910Y-37860D02*
X43940Y-37860D01*
X33627Y-37675D02*
X33700Y-37748D01*
X33277Y-37675D02*
X33627Y-37675D01*
X34027Y-35877D02*
X34260Y-36110D01*
X33700Y-35877D02*
X34027Y-35877D01*
X33627Y-35950D02*
X33700Y-35877D01*
X33277Y-35950D02*
X33627Y-35950D01*
X33977Y-35523D02*
X34200Y-35300D01*
X33700Y-35523D02*
X33977Y-35523D01*
X33627Y-35450D02*
X33700Y-35523D01*
X33277Y-35450D02*
X33627Y-35450D01*
G54D27*
X25446Y-25250D02*
X25393Y-25196D01*
X27350Y-25250D02*
X25446Y-25250D01*
X25354Y-27992D02*
X25629Y-27716D01*
X25354Y-28769D02*
X25354Y-27992D01*
X23720Y-30216D02*
X22677Y-29173D01*
X24468Y-30216D02*
X23720Y-30216D01*
X23956Y-30019D02*
X23110Y-29173D01*
X24468Y-30019D02*
X23956Y-30019D01*
X24192Y-29822D02*
X23543Y-29173D01*
X24468Y-29822D02*
X24192Y-29822D01*
X24429Y-29625D02*
X23976Y-29173D01*
X24468Y-29625D02*
X24429Y-29625D01*
X22578Y-30807D02*
X22125Y-31259D01*
X24468Y-30807D02*
X22578Y-30807D01*
X22893Y-31003D02*
X22637Y-31259D01*
X24468Y-31003D02*
X22893Y-31003D01*
X22539Y-32185D02*
X22125Y-31771D01*
X24468Y-32185D02*
X22539Y-32185D01*
X22893Y-31988D02*
X22677Y-31771D01*
X24468Y-31988D02*
X22893Y-31988D01*
X23681Y-32775D02*
X22677Y-33779D01*
X24468Y-32775D02*
X23681Y-32775D01*
X23917Y-32972D02*
X23110Y-33779D01*
X24468Y-32972D02*
X23917Y-32972D01*
X24114Y-33169D02*
X23503Y-33779D01*
X24468Y-33169D02*
X24114Y-33169D01*
X24311Y-33366D02*
X23897Y-33779D01*
X24468Y-33366D02*
X24311Y-33366D01*
X25354Y-34566D02*
X24921Y-35000D01*
X25354Y-34224D02*
X25354Y-34566D01*
X26435Y-37616D02*
X26850Y-38031D01*
X26435Y-37290D02*
X26435Y-37616D01*
X54400Y-37962D02*
X54370Y-37992D01*
X54400Y-37150D02*
X54400Y-37962D01*
X54900Y-37970D02*
X54921Y-37992D01*
X54900Y-37150D02*
X54900Y-37970D01*
X55400Y-37985D02*
X55393Y-37992D01*
X55400Y-37150D02*
X55400Y-37985D01*
G54D28*
X55900Y-37986D02*
X55905Y-37992D01*
X55900Y-37150D02*
X55900Y-37986D01*
G54D27*
X52451Y-33690D02*
X52440Y-33700D01*
X53060Y-33690D02*
X52451Y-33690D01*
X52442Y-34490D02*
X52440Y-34488D01*
X53060Y-34490D02*
X52442Y-34490D01*
X54900Y-33679D02*
X54881Y-33661D01*
X54900Y-34650D02*
X54900Y-33679D01*
X37257Y-36680D02*
X36870Y-36680D01*
X37440Y-36496D02*
X37257Y-36680D01*
X37440Y-36456D02*
X37440Y-36496D01*
X37440Y-36181D02*
X37440Y-36456D01*
X37440Y-34503D02*
X37440Y-36181D01*
X37770Y-34173D02*
X37440Y-34503D01*
X37111Y-34173D02*
X37770Y-34173D01*
X37664Y-36680D02*
X37440Y-36456D01*
X39530Y-36680D02*
X37664Y-36680D01*
X37440Y-36181D02*
X37874Y-36181D01*
X27275Y-31594D02*
X27360Y-31510D01*
X26712Y-31594D02*
X27275Y-31594D01*
X27247Y-31397D02*
X27360Y-31510D01*
X26712Y-31397D02*
X27247Y-31397D01*
X23984Y-31594D02*
X23900Y-31510D01*
X24468Y-31594D02*
X23984Y-31594D01*
X24012Y-31397D02*
X23900Y-31510D01*
X24468Y-31397D02*
X24012Y-31397D01*
G54D28*
X55400Y-33510D02*
X57230Y-31680D01*
X55400Y-34650D02*
X55400Y-33510D01*
X57230Y-33500D02*
X56420Y-33500D01*
X56420Y-33500D02*
X55900Y-34020D01*
X55900Y-34020D02*
X55900Y-34650D01*
X24700Y-37290D02*
X25845Y-37290D01*
X24900Y-38500D02*
X24100Y-37700D01*
X24100Y-37700D02*
X24100Y-37290D01*
X39530Y-35460D02*
X39520Y-35450D01*
X39520Y-35450D02*
X38000Y-35450D01*
X39530Y-36080D02*
X39530Y-35460D01*
G54D27*
X40000Y-26141D02*
X39197Y-26141D01*
G54D28*
X26712Y-34887D02*
X26710Y-34890D01*
X26712Y-33366D02*
X26712Y-34887D01*
X36020Y-36770D02*
X36710Y-36080D01*
X36710Y-36080D02*
X36710Y-35620D01*
X36710Y-35620D02*
X36870Y-35460D01*
X35513Y-36770D02*
X35511Y-36771D01*
X36020Y-36770D02*
X35513Y-36770D01*
X48627Y-25327D02*
X49872Y-26572D01*
X49872Y-26572D02*
X49872Y-28502D01*
X49872Y-28502D02*
X49550Y-28825D01*
X49550Y-28825D02*
X49550Y-29150D01*
X49550Y-29150D02*
X50025Y-29625D01*
X50025Y-29625D02*
X50025Y-30500D01*
X33700Y-25402D02*
X34055Y-25402D01*
X34130Y-25327D02*
X34600Y-25327D01*
X34055Y-25402D02*
X34130Y-25327D01*
X34600Y-25327D02*
X48627Y-25327D01*
X33627Y-25475D02*
X33700Y-25402D01*
X33277Y-25475D02*
X33627Y-25475D01*
X48700Y-25175D02*
X50025Y-26500D01*
X50025Y-26500D02*
X50025Y-29000D01*
X33700Y-25048D02*
X33973Y-25048D01*
X34100Y-25175D02*
X34650Y-25175D01*
X33973Y-25048D02*
X34100Y-25175D01*
X34650Y-25175D02*
X48700Y-25175D01*
X33627Y-24975D02*
X33700Y-25048D01*
X33277Y-24975D02*
X33627Y-24975D01*
X42197Y-33677D02*
X44025Y-31850D01*
X44025Y-31850D02*
X44025Y-31125D01*
X44025Y-31125D02*
X43500Y-30600D01*
X43500Y-30600D02*
X43500Y-30375D01*
X43500Y-30375D02*
X42875Y-29750D01*
X42875Y-29750D02*
X42525Y-29750D01*
X33650Y-33777D02*
X34023Y-33777D01*
X34122Y-33677D02*
X34650Y-33677D01*
X34023Y-33777D02*
X34122Y-33677D01*
X34650Y-33677D02*
X42197Y-33677D01*
X33577Y-33850D02*
X33650Y-33777D01*
X33252Y-33850D02*
X33577Y-33850D01*
X33998Y-33423D02*
X34100Y-33525D01*
X34650Y-33525D02*
X34675Y-33525D01*
X34100Y-33525D02*
X34650Y-33525D01*
X33650Y-33423D02*
X33998Y-33423D01*
X42125Y-33525D02*
X43025Y-32625D01*
X43025Y-32625D02*
X43025Y-30500D01*
X34650Y-33525D02*
X42125Y-33525D01*
X33577Y-33350D02*
X33650Y-33423D01*
X33252Y-33350D02*
X33577Y-33350D01*
G54D29*
X31859Y-37650D02*
X31730Y-37779D01*
X31730Y-37779D02*
X29040Y-37779D01*
X29040Y-37779D02*
X27726Y-36465D01*
X27726Y-36465D02*
X27726Y-32855D01*
X27340Y-32469D02*
X27320Y-32449D01*
X27726Y-32855D02*
X27340Y-32469D01*
X32000Y-37650D02*
X31859Y-37650D01*
G54D27*
X27331Y-32381D02*
X27340Y-32390D01*
X27340Y-32390D02*
X27340Y-32469D01*
X26712Y-32381D02*
X27331Y-32381D01*
G54D29*
X32402Y-37650D02*
X32427Y-37675D01*
X32427Y-37675D02*
X32923Y-37675D01*
X32000Y-37650D02*
X32402Y-37650D01*
G54D27*
X26961Y-32578D02*
X27386Y-33003D01*
G54D29*
X31840Y-38200D02*
X32000Y-38200D01*
X27386Y-36606D02*
X27386Y-33003D01*
X28900Y-38120D02*
X27386Y-36606D01*
X31760Y-38120D02*
X28900Y-38120D01*
X31840Y-38200D02*
X31760Y-38120D01*
G54D27*
X26712Y-32578D02*
X26961Y-32578D01*
G54D29*
X32402Y-38200D02*
X32427Y-38175D01*
X32427Y-38175D02*
X32923Y-38175D01*
X32000Y-38200D02*
X32402Y-38200D01*
X31860Y-24950D02*
X31787Y-25023D01*
X31787Y-25023D02*
X29747Y-25023D01*
X29747Y-25023D02*
X27750Y-27020D01*
X27750Y-27020D02*
X27750Y-29262D01*
X27750Y-29262D02*
X27480Y-29532D01*
X32000Y-24950D02*
X31860Y-24950D01*
G54D27*
X26712Y-29625D02*
X27444Y-29625D01*
G54D29*
X32402Y-24950D02*
X32427Y-24975D01*
X32427Y-24975D02*
X32923Y-24975D01*
X32000Y-24950D02*
X32402Y-24950D01*
X32402Y-25500D02*
X32427Y-25475D01*
X32427Y-25475D02*
X32923Y-25475D01*
X32000Y-25500D02*
X32402Y-25500D01*
G54D27*
X27737Y-29822D02*
X27780Y-29780D01*
G54D29*
X31876Y-25500D02*
X32000Y-25500D01*
X28090Y-29469D02*
X27780Y-29780D01*
X28090Y-27160D02*
X28090Y-29469D01*
X29887Y-25363D02*
X28090Y-27160D01*
X31740Y-25363D02*
X29887Y-25363D01*
X31876Y-25500D02*
X31740Y-25363D01*
G54D27*
X26712Y-29822D02*
X27737Y-29822D01*
G54D29*
X31835Y-26725D02*
X31630Y-26930D01*
X31630Y-26930D02*
X30250Y-26930D01*
X30250Y-26930D02*
X29410Y-27770D01*
X29410Y-27770D02*
X29410Y-29110D01*
X28200Y-30320D02*
X28190Y-30330D01*
X29410Y-29110D02*
X28200Y-30320D01*
X32000Y-26725D02*
X31835Y-26725D01*
G54D27*
X28186Y-30413D02*
X28200Y-30400D01*
X28200Y-30400D02*
X28200Y-30320D01*
X26712Y-30413D02*
X28186Y-30413D01*
G54D29*
X32402Y-26725D02*
X32427Y-26750D01*
X32427Y-26750D02*
X32898Y-26750D01*
X32000Y-26725D02*
X32402Y-26725D01*
X30395Y-27275D02*
X29760Y-27910D01*
X29760Y-27910D02*
X29760Y-29270D01*
X28530Y-30500D02*
X28510Y-30520D01*
X29760Y-29270D02*
X28530Y-30500D01*
X32000Y-27275D02*
X30395Y-27275D01*
G54D27*
X28509Y-30610D02*
X28530Y-30590D01*
X28530Y-30590D02*
X28530Y-30500D01*
X26712Y-30610D02*
X28509Y-30610D01*
G54D29*
X32402Y-27275D02*
X32427Y-27250D01*
X32427Y-27250D02*
X32898Y-27250D01*
X32000Y-27275D02*
X32402Y-27275D01*
G54D27*
X28412Y-30807D02*
X28480Y-30874D01*
G54D29*
X31875Y-33325D02*
X32000Y-33325D01*
X29680Y-32074D02*
X28480Y-30874D01*
X29680Y-32440D02*
X29680Y-32074D01*
X30590Y-33350D02*
X29680Y-32440D01*
X31850Y-33350D02*
X30590Y-33350D01*
X31875Y-33325D02*
X31850Y-33350D01*
G54D27*
X26712Y-30807D02*
X28412Y-30807D01*
G54D29*
X32402Y-33325D02*
X32427Y-33350D01*
X32427Y-33350D02*
X32898Y-33350D01*
X32000Y-33325D02*
X32402Y-33325D01*
G54D27*
X28128Y-31003D02*
X28239Y-31114D01*
G54D29*
X31944Y-33875D02*
X32000Y-33875D01*
X29339Y-32215D02*
X28239Y-31114D01*
X29339Y-32580D02*
X29339Y-32215D01*
X30449Y-33690D02*
X29339Y-32580D01*
X31760Y-33690D02*
X30449Y-33690D01*
X31944Y-33875D02*
X31760Y-33690D01*
G54D27*
X26712Y-31003D02*
X28128Y-31003D01*
G54D29*
X32402Y-33875D02*
X32427Y-33850D01*
X32427Y-33850D02*
X32898Y-33850D01*
X32000Y-33875D02*
X32402Y-33875D01*
G54D27*
X28069Y-31988D02*
X28100Y-32019D01*
G54D29*
X31864Y-35425D02*
X32000Y-35425D01*
X28770Y-32689D02*
X28100Y-32019D01*
X28770Y-34869D02*
X28770Y-32689D01*
X29490Y-35589D02*
X28770Y-34869D01*
X31700Y-35589D02*
X29490Y-35589D01*
X31864Y-35425D02*
X31700Y-35589D01*
G54D27*
X26712Y-31988D02*
X28069Y-31988D01*
G54D29*
X32402Y-35425D02*
X32427Y-35450D01*
X32427Y-35450D02*
X32923Y-35450D01*
X32000Y-35425D02*
X32402Y-35425D01*
G54D27*
X27785Y-32185D02*
X27860Y-32260D01*
G54D29*
X31865Y-35975D02*
X32000Y-35975D01*
X28430Y-32830D02*
X27860Y-32260D01*
X28430Y-35010D02*
X28430Y-32830D01*
X29350Y-35930D02*
X28430Y-35010D01*
X31820Y-35930D02*
X29350Y-35930D01*
X31865Y-35975D02*
X31820Y-35930D01*
G54D27*
X26712Y-32185D02*
X27785Y-32185D01*
G54D29*
X32402Y-35975D02*
X32427Y-35950D01*
X32427Y-35950D02*
X32923Y-35950D01*
X32000Y-35975D02*
X32402Y-35975D01*
G54D28*
X33975Y-27177D02*
X34050Y-27102D01*
X34850Y-27102D02*
X34875Y-27102D01*
X34050Y-27102D02*
X34850Y-27102D01*
X33650Y-27177D02*
X33975Y-27177D01*
X41312Y-27102D02*
X41575Y-27364D01*
X41575Y-27364D02*
X41575Y-29175D01*
X41575Y-29175D02*
X42025Y-29625D01*
X42025Y-29625D02*
X42025Y-30500D01*
X34850Y-27102D02*
X41312Y-27102D01*
X33577Y-27250D02*
X33650Y-27177D01*
X33252Y-27250D02*
X33577Y-27250D01*
X41375Y-26950D02*
X42025Y-27600D01*
X42025Y-27600D02*
X42025Y-29000D01*
X33650Y-26823D02*
X33923Y-26823D01*
X34050Y-26950D02*
X34875Y-26950D01*
X33923Y-26823D02*
X34050Y-26950D01*
X34875Y-26950D02*
X41375Y-26950D01*
X33577Y-26750D02*
X33650Y-26823D01*
X33252Y-26750D02*
X33577Y-26750D01*
G54D27*
X22610Y-30610D02*
X22160Y-30160D01*
X24468Y-30610D02*
X22610Y-30610D01*
X22913Y-30413D02*
X22650Y-30150D01*
X24468Y-30413D02*
X22913Y-30413D01*
X25583Y-30216D02*
X25580Y-30220D01*
X26712Y-30216D02*
X25583Y-30216D01*
X25889Y-30019D02*
X25590Y-29720D01*
X26712Y-30019D02*
X25889Y-30019D01*
X23450Y-27770D02*
X23425Y-27795D01*
X24320Y-27770D02*
X23450Y-27770D01*
X23081Y-32578D02*
X22690Y-32970D01*
X24468Y-32578D02*
X23081Y-32578D01*
X22828Y-32381D02*
X22230Y-32980D01*
X24468Y-32381D02*
X22828Y-32381D01*
X25605Y-32775D02*
X25600Y-32770D01*
X26712Y-32775D02*
X25605Y-32775D01*
X25927Y-32972D02*
X25590Y-33310D01*
X26712Y-32972D02*
X25927Y-32972D01*
X23740Y-35590D02*
X23740Y-35590D01*
X24480Y-35590D02*
X23740Y-35590D01*
G54D10*
G36*
X37981Y-26367D02*
X36742Y-26367D01*
X36742Y-25916D01*
X37981Y-25916D01*
X37981Y-26367D01*
X37981Y-26367D01*
G37*
G54D30*
X37981Y-26367D02*
X36742Y-26367D01*
X36742Y-25916D01*
X37981Y-25916D01*
X37981Y-26367D01*
M02*
