M48
;DRILL file {Pcbnew (2013-jul-07)-stable} date Fri 02 May 2014 10:31:31 AM CDT
;FORMAT={-:-/ absolute / inch / decimal}
FMAT,2
INCH,TZ
T1C0.025
T2C0.087
%
G90
G05
M72
T1
X2.7126Y-4.315
X2.7126Y-4.3661
X2.7126Y-4.4173
X2.7126Y-4.4646
X2.7126Y-4.6575
X2.7126Y-4.7323
X2.7559Y-4.315
X2.7598Y-4.4646
X2.8307Y-4.5748
X2.8819Y-4.5039
X3.0512Y-4.0551
X3.0512Y-4.9016
X3.0591Y-4.5394
X3.0787Y-4.6063
X3.1142Y-4.5394
X3.2756Y-4.2677
X3.2756Y-4.5394
X3.315Y-4.3031
X3.4803Y-4.3543
X3.5236Y-4.437
X3.6496Y-4.3898
X3.6575Y-4.4409
X3.6693Y-4.5433
X3.6693Y-4.6102
X3.7205Y-4.0551
X3.7205Y-4.6929
X3.7205Y-4.9016
X3.752Y-4.6535
X3.9724Y-4.2756
X3.9764Y-4.3819
X3.9803Y-4.5945
X3.9803Y-4.7008
X4.0079Y-4.3071
X4.0079Y-4.3504
X4.0157Y-4.626
X4.0157Y-4.6732
X4.0315Y-4.3937
X4.0315Y-4.4646
X4.0315Y-4.5118
X4.0315Y-4.5787
T2
X3.3858Y-4.0945
T0
M30
