M48
INCH,TZ
T1C0.025
T2C0.087
%
G90
G05
T1
X27126Y-43150
X27126Y-43661
X27126Y-44173
X27126Y-44646
X27126Y-46575
X27126Y-47323
X27559Y-43150
X27598Y-44646
X28307Y-45748
X28819Y-45039
X30512Y-40551
X30512Y-49016
X30591Y-45394
X30787Y-46063
X31142Y-45394
X32756Y-42677
X32756Y-45394
X33150Y-43031
X34803Y-43543
X35236Y-44370
X36496Y-43898
X36575Y-44409
X36693Y-45433
X36693Y-46102
X37205Y-40551
X37205Y-46929
X37205Y-49016
X37520Y-46535
X39724Y-42756
X39764Y-43819
X39803Y-45945
X39803Y-47008
X40079Y-43071
X40079Y-43504
X40157Y-46260
X40157Y-46732
X40315Y-43937
X40315Y-44646
X40315Y-45118
X40315Y-45787
T2
X33858Y-40945
T0
M30
