G04 (created by PCBNEW (2013-jul-07)-stable) date Fri 02 May 2014 10:31:21 AM CDT*
%MOIN*%
G04 Gerber Fmt 3.4, Leading zero omitted, Abs format*
%FSLAX34Y34*%
G01*
G70*
G90*
G04 APERTURE LIST*
%ADD10C,0.00590551*%
%ADD11C,0.0866142*%
%ADD12C,0.035*%
%ADD13C,0.011811*%
%ADD14C,0.01*%
G04 APERTURE END LIST*
G54D10*
G54D11*
X33858Y-40944D03*
G54D12*
X37204Y-49015D03*
X30511Y-49015D03*
X37204Y-40551D03*
X30511Y-40551D03*
X39803Y-47007D03*
X40157Y-46732D03*
X40157Y-46259D03*
X39803Y-45944D03*
X40314Y-45787D03*
X40314Y-45118D03*
X39724Y-42755D03*
X40078Y-43070D03*
X40078Y-43503D03*
X39763Y-43818D03*
X40314Y-43937D03*
X40314Y-44645D03*
X27125Y-46574D03*
X27125Y-47322D03*
X27559Y-43149D03*
X27598Y-44645D03*
X27125Y-44645D03*
X27125Y-43149D03*
X27125Y-44173D03*
X27125Y-43661D03*
X32755Y-42677D03*
X37519Y-46535D03*
X33149Y-43031D03*
X37204Y-46929D03*
X31141Y-45393D03*
X35236Y-44370D03*
X36574Y-44409D03*
X32755Y-45393D03*
X28307Y-45748D03*
X36496Y-43897D03*
X34803Y-43543D03*
X28818Y-45039D03*
X36692Y-46102D03*
X30787Y-46062D03*
X36692Y-45433D03*
X30590Y-45393D03*
G54D13*
X32755Y-42677D02*
X36614Y-42677D01*
X36614Y-42677D02*
X37519Y-43582D01*
X37519Y-43582D02*
X37519Y-46535D01*
X33149Y-43031D02*
X36259Y-43031D01*
X36259Y-43031D02*
X37204Y-43976D01*
X37204Y-43976D02*
X37204Y-46929D01*
X31141Y-44763D02*
X31141Y-45393D01*
X31535Y-44370D02*
X31141Y-44763D01*
X35236Y-44370D02*
X31535Y-44370D01*
X36574Y-44881D02*
X36574Y-44409D01*
X36062Y-45393D02*
X36574Y-44881D01*
X32755Y-45393D02*
X36062Y-45393D01*
X28307Y-45748D02*
X28818Y-45748D01*
X28818Y-45748D02*
X30669Y-43897D01*
X30669Y-43897D02*
X36496Y-43897D01*
X30314Y-43543D02*
X34803Y-43543D01*
X28818Y-45039D02*
X30314Y-43543D01*
X30826Y-46102D02*
X36692Y-46102D01*
X30787Y-46062D02*
X30826Y-46102D01*
X36338Y-45787D02*
X36692Y-45433D01*
X30826Y-45787D02*
X36338Y-45787D01*
X30590Y-45393D02*
X30826Y-45787D01*
G54D10*
G36*
X40894Y-51918D02*
X37944Y-51918D01*
X37944Y-46451D01*
X37880Y-46295D01*
X37828Y-46243D01*
X37828Y-43582D01*
X37805Y-43464D01*
X37805Y-43464D01*
X37738Y-43364D01*
X36832Y-42458D01*
X36732Y-42391D01*
X36614Y-42368D01*
X34541Y-42368D01*
X34541Y-40809D01*
X34437Y-40558D01*
X34245Y-40366D01*
X33994Y-40261D01*
X33722Y-40261D01*
X33471Y-40365D01*
X33279Y-40557D01*
X33175Y-40808D01*
X33175Y-41080D01*
X33278Y-41331D01*
X33470Y-41523D01*
X33721Y-41627D01*
X33993Y-41628D01*
X34244Y-41524D01*
X34437Y-41332D01*
X34541Y-41081D01*
X34541Y-40809D01*
X34541Y-42368D01*
X33047Y-42368D01*
X32996Y-42317D01*
X32840Y-42252D01*
X32671Y-42252D01*
X32515Y-42316D01*
X32395Y-42436D01*
X32330Y-42592D01*
X32330Y-42761D01*
X32395Y-42917D01*
X32514Y-43037D01*
X32670Y-43102D01*
X32724Y-43102D01*
X32724Y-43115D01*
X32773Y-43234D01*
X30314Y-43234D01*
X30196Y-43257D01*
X30096Y-43324D01*
X30096Y-43324D01*
X28806Y-44614D01*
X28734Y-44614D01*
X28578Y-44678D01*
X28458Y-44798D01*
X28393Y-44954D01*
X28393Y-45123D01*
X28458Y-45279D01*
X28577Y-45399D01*
X28673Y-45438D01*
X28599Y-45438D01*
X28548Y-45387D01*
X28391Y-45323D01*
X28222Y-45322D01*
X28066Y-45387D01*
X27946Y-45506D01*
X27882Y-45663D01*
X27882Y-45832D01*
X27946Y-45988D01*
X28066Y-46108D01*
X28222Y-46172D01*
X28391Y-46173D01*
X28547Y-46108D01*
X28599Y-46057D01*
X28818Y-46057D01*
X28937Y-46033D01*
X28937Y-46033D01*
X29037Y-45966D01*
X30797Y-44206D01*
X31261Y-44206D01*
X30923Y-44545D01*
X30856Y-44645D01*
X30832Y-44763D01*
X30832Y-45034D01*
X30831Y-45033D01*
X30675Y-44968D01*
X30506Y-44968D01*
X30350Y-45033D01*
X30230Y-45152D01*
X30165Y-45308D01*
X30165Y-45477D01*
X30230Y-45634D01*
X30349Y-45753D01*
X30452Y-45796D01*
X30427Y-45821D01*
X30362Y-45978D01*
X30362Y-46147D01*
X30426Y-46303D01*
X30546Y-46423D01*
X30702Y-46487D01*
X30871Y-46488D01*
X31027Y-46423D01*
X31039Y-46411D01*
X36400Y-46411D01*
X36451Y-46462D01*
X36608Y-46527D01*
X36777Y-46527D01*
X36895Y-46478D01*
X36895Y-46637D01*
X36844Y-46688D01*
X36779Y-46844D01*
X36779Y-47013D01*
X36844Y-47169D01*
X36963Y-47289D01*
X37119Y-47354D01*
X37288Y-47354D01*
X37445Y-47289D01*
X37564Y-47170D01*
X37629Y-47014D01*
X37629Y-46949D01*
X37760Y-46895D01*
X37879Y-46776D01*
X37944Y-46620D01*
X37944Y-46451D01*
X37944Y-51918D01*
X26821Y-51918D01*
X26821Y-37845D01*
X40894Y-37845D01*
X40894Y-51918D01*
X40894Y-51918D01*
G37*
G54D14*
X40894Y-51918D02*
X37944Y-51918D01*
X37944Y-46451D01*
X37880Y-46295D01*
X37828Y-46243D01*
X37828Y-43582D01*
X37805Y-43464D01*
X37805Y-43464D01*
X37738Y-43364D01*
X36832Y-42458D01*
X36732Y-42391D01*
X36614Y-42368D01*
X34541Y-42368D01*
X34541Y-40809D01*
X34437Y-40558D01*
X34245Y-40366D01*
X33994Y-40261D01*
X33722Y-40261D01*
X33471Y-40365D01*
X33279Y-40557D01*
X33175Y-40808D01*
X33175Y-41080D01*
X33278Y-41331D01*
X33470Y-41523D01*
X33721Y-41627D01*
X33993Y-41628D01*
X34244Y-41524D01*
X34437Y-41332D01*
X34541Y-41081D01*
X34541Y-40809D01*
X34541Y-42368D01*
X33047Y-42368D01*
X32996Y-42317D01*
X32840Y-42252D01*
X32671Y-42252D01*
X32515Y-42316D01*
X32395Y-42436D01*
X32330Y-42592D01*
X32330Y-42761D01*
X32395Y-42917D01*
X32514Y-43037D01*
X32670Y-43102D01*
X32724Y-43102D01*
X32724Y-43115D01*
X32773Y-43234D01*
X30314Y-43234D01*
X30196Y-43257D01*
X30096Y-43324D01*
X30096Y-43324D01*
X28806Y-44614D01*
X28734Y-44614D01*
X28578Y-44678D01*
X28458Y-44798D01*
X28393Y-44954D01*
X28393Y-45123D01*
X28458Y-45279D01*
X28577Y-45399D01*
X28673Y-45438D01*
X28599Y-45438D01*
X28548Y-45387D01*
X28391Y-45323D01*
X28222Y-45322D01*
X28066Y-45387D01*
X27946Y-45506D01*
X27882Y-45663D01*
X27882Y-45832D01*
X27946Y-45988D01*
X28066Y-46108D01*
X28222Y-46172D01*
X28391Y-46173D01*
X28547Y-46108D01*
X28599Y-46057D01*
X28818Y-46057D01*
X28937Y-46033D01*
X28937Y-46033D01*
X29037Y-45966D01*
X30797Y-44206D01*
X31261Y-44206D01*
X30923Y-44545D01*
X30856Y-44645D01*
X30832Y-44763D01*
X30832Y-45034D01*
X30831Y-45033D01*
X30675Y-44968D01*
X30506Y-44968D01*
X30350Y-45033D01*
X30230Y-45152D01*
X30165Y-45308D01*
X30165Y-45477D01*
X30230Y-45634D01*
X30349Y-45753D01*
X30452Y-45796D01*
X30427Y-45821D01*
X30362Y-45978D01*
X30362Y-46147D01*
X30426Y-46303D01*
X30546Y-46423D01*
X30702Y-46487D01*
X30871Y-46488D01*
X31027Y-46423D01*
X31039Y-46411D01*
X36400Y-46411D01*
X36451Y-46462D01*
X36608Y-46527D01*
X36777Y-46527D01*
X36895Y-46478D01*
X36895Y-46637D01*
X36844Y-46688D01*
X36779Y-46844D01*
X36779Y-47013D01*
X36844Y-47169D01*
X36963Y-47289D01*
X37119Y-47354D01*
X37288Y-47354D01*
X37445Y-47289D01*
X37564Y-47170D01*
X37629Y-47014D01*
X37629Y-46949D01*
X37760Y-46895D01*
X37879Y-46776D01*
X37944Y-46620D01*
X37944Y-46451D01*
X37944Y-51918D01*
X26821Y-51918D01*
X26821Y-37845D01*
X40894Y-37845D01*
X40894Y-51918D01*
M02*
