M48
;DRILL file {Pcbnew (2013-jul-07)-stable} date Wed 28 May 2014 09:22:06 PM CDT
;FORMAT={-:-/ absolute / inch / decimal}
FMAT,2
INCH,TZ
T1C0.025
T2C0.034
T3C0.040
T4C0.049
T5C0.051
T6C0.087
T7C0.109
%
G90
G05
M72
T1
X2.2126Y-3.126
X2.2126Y-3.1772
X2.216Y-3.016
X2.223Y-3.298
X2.2638Y-3.126
X2.265Y-3.015
X2.2677Y-2.9173
X2.2677Y-3.1772
X2.2677Y-3.378
X2.269Y-3.297
X2.311Y-2.9173
X2.311Y-3.378
X2.3425Y-2.7795
X2.3504Y-3.378
X2.3543Y-2.9173
X2.374Y-3.5591
X2.3898Y-3.378
X2.39Y-3.151
X2.3976Y-2.9173
X2.49Y-3.85
X2.4921Y-3.5
X2.558Y-3.022
X2.559Y-2.972
X2.559Y-3.331
X2.56Y-3.277
X2.563Y-2.7717
X2.611Y-3.489
X2.671Y-3.489
X2.685Y-3.8031
X2.736Y-3.151
X3.42Y-3.53
X3.426Y-3.611
X3.602Y-3.677
X3.606Y-3.465
X3.689Y-2.6142
X3.7362Y-2.6142
X3.7835Y-2.6142
X3.7874Y-3.6181
X3.864Y-3.468
X4.Y-2.6142
X4.028Y-3.465
X5.2441Y-3.3701
X5.2441Y-3.4488
X5.437Y-3.7992
X5.4882Y-3.3661
X5.4921Y-3.7992
X5.522Y-3.269
X5.5394Y-3.7992
X5.5906Y-3.7992
X5.723Y-3.168
X5.723Y-3.35
T2
X3.5025Y-2.9
X3.5025Y-3.05
X3.5525Y-2.975
X3.5525Y-3.125
X3.6025Y-2.9
X3.6025Y-3.05
X3.6525Y-2.975
X3.6525Y-3.125
X3.7025Y-2.9
X3.7025Y-3.05
X3.7525Y-2.975
X3.7525Y-3.125
X3.8025Y-2.9
X3.8025Y-3.05
X3.8525Y-2.975
X3.8525Y-3.125
X3.9025Y-2.9
X3.9025Y-3.05
X3.9525Y-2.975
X3.9525Y-3.125
X4.0025Y-2.9
X4.0025Y-3.05
X4.0525Y-2.975
X4.0525Y-3.125
X4.1025Y-2.9
X4.1025Y-3.05
X4.1525Y-2.975
X4.1525Y-3.125
X4.2025Y-2.9
X4.2025Y-3.05
X4.2525Y-2.975
X4.2525Y-3.125
X4.3025Y-2.9
X4.3025Y-3.05
X4.3525Y-2.975
X4.3525Y-3.125
X4.4025Y-2.9
X4.4025Y-3.05
X4.4525Y-2.975
X4.4525Y-3.125
X4.5025Y-2.9
X4.5025Y-3.05
X4.5525Y-2.975
X4.5525Y-3.125
X4.6025Y-2.9
X4.6025Y-3.05
X4.6525Y-2.975
X4.6525Y-3.125
X4.7025Y-2.9
X4.7025Y-3.05
X4.7525Y-2.975
X4.7525Y-3.125
X4.8025Y-2.9
X4.8025Y-3.05
X4.8525Y-2.975
X4.8525Y-3.125
X4.9025Y-2.9
X4.9025Y-3.05
X4.9525Y-2.975
X4.9525Y-3.125
X5.0025Y-2.9
X5.0025Y-3.05
X5.0525Y-2.975
X5.0525Y-3.125
X5.1025Y-2.9
X5.1025Y-3.05
X5.1525Y-2.975
X5.1525Y-3.125
T3
X5.0145Y-3.466
X5.0145Y-3.566
T4
X2.3425Y-2.5197
T5
X2.5394Y-2.5197
T6
X2.126Y-2.5197
X2.126Y-3.7795
X5.748Y-2.5197
X5.748Y-3.7795
T7
X3.1875Y-3.0125
X5.4675Y-3.0125
T0
M30
