M48
INCH,TZ
T1C0.025
T2C0.034
T3C0.039
T4C0.087
T5C0.109
%
G90
G05
T1
X40010Y-53260
X40100Y-54400
X40600Y-54400
X40600Y-54800
X40600Y-55300
X40600Y-55800
X41090Y-50970
X41100Y-51510
X41100Y-52070
X41100Y-52640
X42300Y-55200
X42400Y-55600
X42500Y-51300
X42500Y-51760
X42900Y-50600
X43300Y-56600
X44100Y-51600
X47900Y-57600
X53000Y-58300
X56000Y-58300
X57800Y-58300
X61190Y-55260
X61200Y-58300
X61220Y-55970
X63100Y-58300
X63560Y-54240
X64430Y-54270
X64840Y-51490
X65000Y-58200
X65090Y-51860
X71730Y-56090
X71870Y-57590
X72380Y-57060
X73500Y-54000
X74100Y-56600
X75200Y-53300
X78200Y-55800
X78200Y-56500
X78200Y-57200
X78200Y-57800
T2
X56559Y-49348
X56559Y-50848
X57059Y-48598
X57059Y-50098
X57559Y-49348
X57559Y-50848
X58059Y-48598
X58059Y-50098
X58559Y-49348
X58559Y-50848
X59059Y-48598
X59059Y-50098
X59559Y-49348
X59559Y-50848
X60059Y-48598
X60059Y-50098
X60559Y-49348
X60559Y-50848
X61059Y-48598
X61059Y-50098
X61559Y-49348
X61559Y-50848
X62059Y-48598
X62059Y-50098
X62559Y-49348
X62559Y-50848
X63059Y-48598
X63059Y-50098
X63559Y-49348
X63559Y-50848
X64059Y-48598
X64059Y-50098
X64559Y-49348
X64559Y-50848
X65059Y-48598
X65059Y-50098
X65559Y-49348
X65559Y-50848
X66059Y-48598
X66059Y-50098
X66559Y-49348
X66559Y-50848
X67059Y-48598
X67059Y-50098
X67559Y-49348
X67559Y-50848
X68059Y-48598
X68059Y-50098
X68559Y-49348
X68559Y-50848
X69059Y-48598
X69059Y-50098
X69559Y-49348
X69559Y-50848
X70059Y-48598
X70059Y-50098
X70559Y-49348
X70559Y-50848
X71059Y-48598
X71059Y-50098
X71559Y-49348
X71559Y-50848
X72059Y-48598
X72059Y-50098
X72559Y-49348
X72559Y-50848
X73059Y-48598
X73059Y-50098
T3
X77460Y-52166
X77460Y-54134
T4
X45276Y-48819
X45276Y-57480
X72835Y-52756
T5
X53409Y-49348
X76209Y-49348
T0
M30
