G04 (created by PCBNEW (2013-mar-13)-testing) date Mon 11 Nov 2013 11:29:48 PM CET*
%MOIN*%
G04 Gerber Fmt 3.4, Leading zero omitted, Abs format*
%FSLAX34Y34*%
G01*
G70*
G90*
G04 APERTURE LIST*
%ADD10C,0.005906*%
%ADD11R,0.045000X0.025000*%
%ADD12R,0.025000X0.045000*%
%ADD13C,0.078740*%
%ADD14C,0.040000*%
%ADD15R,0.045000X0.020000*%
%ADD16R,0.015700X0.023600*%
%ADD17R,0.023600X0.015700*%
%ADD18C,0.086614*%
%ADD19C,0.059055*%
%ADD20C,0.118110*%
%ADD21R,0.035433X0.011811*%
%ADD22R,0.086614X0.053150*%
G04 APERTURE END LIST*
G54D10*
G54D11*
X73100Y-54700D03*
X73100Y-55300D03*
X73900Y-54700D03*
X73900Y-55300D03*
G54D12*
X56600Y-58300D03*
X57200Y-58300D03*
X63600Y-58300D03*
X64200Y-58300D03*
G54D13*
X77460Y-54134D03*
X77460Y-52165D03*
G54D14*
X41180Y-56390D03*
X72000Y-55300D03*
X41090Y-50370D03*
X50600Y-58100D03*
X50600Y-57500D03*
X54600Y-57000D03*
X54600Y-56400D03*
X58600Y-55900D03*
X58600Y-55300D03*
X52300Y-54800D03*
X52300Y-54200D03*
X56400Y-53700D03*
X56400Y-53100D03*
X52200Y-51700D03*
X52200Y-51100D03*
X49100Y-49300D03*
X49100Y-48700D03*
X47100Y-56800D03*
X47500Y-56400D03*
X75900Y-54100D03*
G54D12*
X60000Y-58300D03*
X60600Y-58300D03*
X54800Y-58300D03*
X55400Y-58300D03*
X61900Y-58300D03*
X62500Y-58300D03*
X54200Y-58300D03*
X53600Y-58300D03*
X59100Y-58300D03*
X58500Y-58300D03*
G54D15*
X75000Y-57580D03*
X75000Y-57080D03*
X75000Y-56580D03*
X75000Y-56080D03*
X77500Y-56080D03*
X77500Y-56580D03*
X77500Y-57080D03*
X77500Y-57580D03*
G54D16*
X54077Y-51600D03*
X53723Y-51600D03*
X54077Y-51200D03*
X53723Y-51200D03*
X50977Y-48800D03*
X50623Y-48800D03*
X50977Y-49200D03*
X50623Y-49200D03*
X58277Y-53200D03*
X57923Y-53200D03*
X58277Y-53600D03*
X57923Y-53600D03*
X54177Y-54300D03*
X53823Y-54300D03*
X54177Y-54700D03*
X53823Y-54700D03*
X60477Y-55400D03*
X60123Y-55400D03*
X60477Y-55800D03*
X60123Y-55800D03*
X56477Y-56500D03*
X56123Y-56500D03*
X56477Y-56900D03*
X56123Y-56900D03*
X52477Y-57600D03*
X52123Y-57600D03*
X52477Y-58000D03*
X52123Y-58000D03*
G54D17*
X51600Y-57977D03*
X51600Y-57623D03*
X55600Y-56877D03*
X55600Y-56523D03*
X59600Y-55777D03*
X59600Y-55423D03*
X53300Y-54677D03*
X53300Y-54323D03*
X57400Y-53577D03*
X57400Y-53223D03*
X50100Y-49177D03*
X50100Y-48823D03*
X53200Y-51223D03*
X53200Y-51577D03*
G54D18*
X45275Y-48818D03*
X45275Y-57480D03*
X72834Y-52755D03*
G54D19*
X73059Y-50098D03*
X73059Y-48598D03*
X72559Y-50848D03*
X72559Y-49348D03*
X72059Y-50098D03*
X72059Y-48598D03*
X71559Y-50848D03*
X71559Y-49348D03*
X71059Y-50098D03*
X71059Y-48598D03*
X70559Y-50848D03*
X70559Y-49348D03*
X70059Y-50098D03*
X70059Y-48598D03*
X69559Y-50848D03*
X69559Y-49348D03*
X69059Y-50098D03*
X69059Y-48598D03*
X68559Y-50848D03*
X68559Y-49348D03*
X68059Y-50098D03*
X68059Y-48598D03*
X67559Y-50848D03*
X67559Y-49348D03*
X67059Y-50098D03*
X67059Y-48598D03*
X66559Y-50848D03*
X66559Y-49348D03*
X66059Y-50098D03*
X66059Y-48598D03*
X65559Y-50848D03*
X65559Y-49348D03*
X65059Y-50098D03*
X65059Y-48598D03*
X64559Y-50848D03*
X64559Y-49348D03*
X64059Y-50098D03*
X64059Y-48598D03*
X63559Y-50848D03*
X63559Y-49348D03*
X63059Y-50098D03*
X63059Y-48598D03*
X62559Y-50848D03*
X62559Y-49348D03*
X62059Y-50098D03*
X62059Y-48598D03*
X61559Y-50848D03*
X61559Y-49348D03*
X61059Y-50098D03*
X61059Y-48598D03*
X60559Y-50848D03*
X60559Y-49348D03*
X60059Y-50098D03*
X60059Y-48598D03*
X59559Y-50848D03*
X59559Y-49348D03*
X59059Y-50098D03*
X59059Y-48598D03*
X58559Y-50848D03*
X58559Y-49348D03*
X58059Y-50098D03*
X58059Y-48598D03*
X57559Y-50848D03*
X57559Y-49348D03*
X57059Y-50098D03*
X57059Y-48598D03*
X56559Y-50848D03*
X56559Y-49348D03*
G54D20*
X53409Y-49348D03*
X76208Y-49348D03*
G54D21*
X45456Y-55138D03*
X43211Y-55138D03*
X45456Y-54941D03*
X43211Y-54941D03*
X45456Y-54744D03*
X43211Y-54744D03*
X45456Y-54547D03*
X43211Y-54547D03*
X45456Y-54350D03*
X43211Y-54350D03*
X45456Y-54153D03*
X43211Y-54153D03*
X45456Y-53956D03*
X43211Y-53956D03*
X45456Y-53760D03*
X43211Y-53760D03*
X45456Y-53563D03*
X43211Y-53563D03*
X45456Y-53366D03*
X43211Y-53366D03*
X45456Y-53169D03*
X43211Y-53169D03*
X45456Y-52972D03*
X43211Y-52972D03*
X45456Y-52775D03*
X43211Y-52775D03*
X45456Y-52579D03*
X43211Y-52579D03*
X45456Y-52382D03*
X43211Y-52382D03*
X45456Y-52185D03*
X43211Y-52185D03*
X45456Y-51988D03*
X43211Y-51988D03*
X45456Y-51791D03*
X43211Y-51791D03*
X45456Y-51594D03*
X43211Y-51594D03*
X45456Y-51397D03*
X43211Y-51397D03*
G54D22*
X44097Y-55996D03*
X44097Y-50541D03*
M02*
