G04 (created by PCBNEW (2013-mar-13)-testing) date Sun 10 Nov 2013 04:24:01 PM CET*
%MOIN*%
G04 Gerber Fmt 3.4, Leading zero omitted, Abs format*
%FSLAX34Y34*%
G01*
G70*
G90*
G04 APERTURE LIST*
%ADD10C,0.005906*%
%ADD11C,0.006000*%
%ADD12C,0.011811*%
%ADD13C,0.005000*%
%ADD14C,0.002800*%
%ADD15C,0.000100*%
%ADD16C,0.004500*%
G04 APERTURE END LIST*
G54D10*
G54D11*
X77057Y-54850D02*
X77009Y-54835D01*
X76938Y-54835D01*
X76866Y-54850D01*
X76819Y-54878D01*
X76795Y-54907D01*
X76771Y-54964D01*
X76771Y-55007D01*
X76795Y-55064D01*
X76819Y-55092D01*
X76866Y-55121D01*
X76938Y-55135D01*
X76985Y-55135D01*
X77057Y-55121D01*
X77080Y-55107D01*
X77080Y-55007D01*
X76985Y-55007D01*
X77295Y-55135D02*
X77295Y-54835D01*
X77580Y-55135D01*
X77580Y-54835D01*
X77819Y-55135D02*
X77819Y-54835D01*
X77938Y-54835D01*
X78009Y-54850D01*
X78057Y-54878D01*
X78080Y-54907D01*
X78104Y-54964D01*
X78104Y-55007D01*
X78080Y-55064D01*
X78057Y-55092D01*
X78009Y-55121D01*
X77938Y-55135D01*
X77819Y-55135D01*
X74357Y-53950D02*
X74309Y-53935D01*
X74238Y-53935D01*
X74166Y-53950D01*
X74119Y-53978D01*
X74095Y-54007D01*
X74071Y-54064D01*
X74071Y-54107D01*
X74095Y-54164D01*
X74119Y-54192D01*
X74166Y-54221D01*
X74238Y-54235D01*
X74285Y-54235D01*
X74357Y-54221D01*
X74380Y-54207D01*
X74380Y-54107D01*
X74285Y-54107D01*
X74595Y-54235D02*
X74595Y-53935D01*
X74880Y-54235D01*
X74880Y-53935D01*
X75119Y-54235D02*
X75119Y-53935D01*
X75238Y-53935D01*
X75309Y-53950D01*
X75357Y-53978D01*
X75380Y-54007D01*
X75404Y-54064D01*
X75404Y-54107D01*
X75380Y-54164D01*
X75357Y-54192D01*
X75309Y-54221D01*
X75238Y-54235D01*
X75119Y-54235D01*
X71452Y-55635D02*
X71761Y-55635D01*
X71595Y-55750D01*
X71666Y-55750D01*
X71714Y-55764D01*
X71738Y-55778D01*
X71761Y-55807D01*
X71761Y-55878D01*
X71738Y-55907D01*
X71714Y-55921D01*
X71666Y-55935D01*
X71523Y-55935D01*
X71476Y-55921D01*
X71452Y-55907D01*
X71976Y-55907D02*
X72000Y-55921D01*
X71976Y-55935D01*
X71952Y-55921D01*
X71976Y-55907D01*
X71976Y-55935D01*
X72166Y-55635D02*
X72476Y-55635D01*
X72309Y-55750D01*
X72380Y-55750D01*
X72428Y-55764D01*
X72452Y-55778D01*
X72476Y-55807D01*
X72476Y-55878D01*
X72452Y-55907D01*
X72428Y-55921D01*
X72380Y-55935D01*
X72238Y-55935D01*
X72190Y-55921D01*
X72166Y-55907D01*
X72619Y-55635D02*
X72785Y-55935D01*
X72952Y-55635D01*
X40619Y-49535D02*
X40785Y-49835D01*
X40952Y-49535D01*
X41119Y-49835D02*
X41119Y-49535D01*
X41238Y-49535D01*
X41309Y-49550D01*
X41357Y-49578D01*
X41380Y-49607D01*
X41404Y-49664D01*
X41404Y-49707D01*
X41380Y-49764D01*
X41357Y-49792D01*
X41309Y-49821D01*
X41238Y-49835D01*
X41119Y-49835D01*
X40790Y-56835D02*
X40957Y-57135D01*
X41123Y-56835D01*
X41266Y-57050D02*
X41504Y-57050D01*
X41219Y-57135D02*
X41385Y-56835D01*
X41552Y-57135D01*
X46600Y-55500D02*
X46600Y-57700D01*
X48400Y-55500D02*
X46600Y-55500D01*
X48400Y-57700D02*
X48400Y-55500D01*
X46600Y-57700D02*
X48400Y-57700D01*
X46752Y-57235D02*
X47061Y-57235D01*
X46895Y-57350D01*
X46966Y-57350D01*
X47014Y-57364D01*
X47038Y-57378D01*
X47061Y-57407D01*
X47061Y-57478D01*
X47038Y-57507D01*
X47014Y-57521D01*
X46966Y-57535D01*
X46823Y-57535D01*
X46776Y-57521D01*
X46752Y-57507D01*
X47276Y-57507D02*
X47300Y-57521D01*
X47276Y-57535D01*
X47252Y-57521D01*
X47276Y-57507D01*
X47276Y-57535D01*
X47466Y-57235D02*
X47776Y-57235D01*
X47609Y-57350D01*
X47680Y-57350D01*
X47728Y-57364D01*
X47752Y-57378D01*
X47776Y-57407D01*
X47776Y-57478D01*
X47752Y-57507D01*
X47728Y-57521D01*
X47680Y-57535D01*
X47538Y-57535D01*
X47490Y-57521D01*
X47466Y-57507D01*
X47919Y-57235D02*
X48085Y-57535D01*
X48252Y-57235D01*
X47223Y-55935D02*
X47057Y-55792D01*
X46938Y-55935D02*
X46938Y-55635D01*
X47128Y-55635D01*
X47176Y-55650D01*
X47200Y-55664D01*
X47223Y-55692D01*
X47223Y-55735D01*
X47200Y-55764D01*
X47176Y-55778D01*
X47128Y-55792D01*
X46938Y-55792D01*
X47366Y-55635D02*
X47652Y-55635D01*
X47509Y-55935D02*
X47509Y-55635D01*
X47819Y-55935D02*
X47819Y-55635D01*
X47938Y-55635D01*
X48009Y-55650D01*
X48057Y-55678D01*
X48080Y-55707D01*
X48104Y-55764D01*
X48104Y-55807D01*
X48080Y-55864D01*
X48057Y-55892D01*
X48009Y-55921D01*
X47938Y-55935D01*
X47819Y-55935D01*
X57600Y-54800D02*
X57600Y-56600D01*
X60800Y-54800D02*
X57600Y-54800D01*
X60800Y-56600D02*
X60800Y-54800D01*
X57600Y-56600D02*
X60800Y-56600D01*
X53600Y-57700D02*
X53800Y-57700D01*
X53600Y-55900D02*
X53600Y-57700D01*
X53700Y-55900D02*
X53600Y-55900D01*
X56800Y-55900D02*
X53700Y-55900D01*
X56800Y-57700D02*
X56800Y-55900D01*
X56700Y-57700D02*
X56800Y-57700D01*
X53700Y-57700D02*
X56700Y-57700D01*
X53809Y-57235D02*
X54190Y-57235D01*
X54000Y-57426D02*
X54000Y-57045D01*
X49600Y-56900D02*
X49600Y-58800D01*
X52800Y-56900D02*
X49600Y-56900D01*
X52800Y-58800D02*
X52800Y-56900D01*
X52700Y-58800D02*
X52800Y-58800D01*
X49600Y-58800D02*
X52700Y-58800D01*
X51200Y-55500D02*
X51400Y-55500D01*
X51200Y-53600D02*
X51200Y-55500D01*
X54500Y-53600D02*
X51200Y-53600D01*
X54500Y-55500D02*
X54500Y-53600D01*
X51300Y-55500D02*
X54500Y-55500D01*
X48100Y-48100D02*
X48100Y-50100D01*
X51300Y-48100D02*
X48100Y-48100D01*
X51300Y-50100D02*
X51300Y-48100D01*
X48100Y-50100D02*
X51300Y-50100D01*
X51200Y-52500D02*
X51400Y-52500D01*
X51200Y-50500D02*
X51200Y-52500D01*
X51300Y-50500D02*
X51200Y-50500D01*
X54500Y-50500D02*
X51300Y-50500D01*
X54500Y-52500D02*
X54500Y-50500D01*
X51300Y-52500D02*
X54500Y-52500D01*
X48309Y-48435D02*
X48690Y-48435D01*
X48309Y-49535D02*
X48690Y-49535D01*
X48500Y-49726D02*
X48500Y-49345D01*
X48985Y-49835D02*
X48700Y-49835D01*
X48842Y-49835D02*
X48842Y-49535D01*
X48795Y-49578D01*
X48747Y-49607D01*
X48700Y-49621D01*
X49414Y-49535D02*
X49319Y-49535D01*
X49271Y-49550D01*
X49247Y-49564D01*
X49200Y-49607D01*
X49176Y-49664D01*
X49176Y-49778D01*
X49200Y-49807D01*
X49223Y-49821D01*
X49271Y-49835D01*
X49366Y-49835D01*
X49414Y-49821D01*
X49438Y-49807D01*
X49461Y-49778D01*
X49461Y-49707D01*
X49438Y-49678D01*
X49414Y-49664D01*
X49366Y-49650D01*
X49271Y-49650D01*
X49223Y-49664D01*
X49200Y-49678D01*
X49176Y-49707D01*
X49771Y-49535D02*
X49819Y-49535D01*
X49866Y-49550D01*
X49890Y-49564D01*
X49914Y-49592D01*
X49938Y-49650D01*
X49938Y-49721D01*
X49914Y-49778D01*
X49890Y-49807D01*
X49866Y-49821D01*
X49819Y-49835D01*
X49771Y-49835D01*
X49723Y-49821D01*
X49700Y-49807D01*
X49676Y-49778D01*
X49652Y-49721D01*
X49652Y-49650D01*
X49676Y-49592D01*
X49700Y-49564D01*
X49723Y-49550D01*
X49771Y-49535D01*
X50438Y-49807D02*
X50414Y-49821D01*
X50342Y-49835D01*
X50295Y-49835D01*
X50223Y-49821D01*
X50176Y-49792D01*
X50152Y-49764D01*
X50128Y-49707D01*
X50128Y-49664D01*
X50152Y-49607D01*
X50176Y-49578D01*
X50223Y-49550D01*
X50295Y-49535D01*
X50342Y-49535D01*
X50414Y-49550D01*
X50438Y-49564D01*
X50723Y-49835D02*
X50676Y-49821D01*
X50652Y-49792D01*
X50652Y-49535D01*
X50914Y-49835D02*
X50914Y-49535D01*
X50961Y-49721D02*
X51104Y-49835D01*
X51104Y-49635D02*
X50914Y-49750D01*
X59652Y-56435D02*
X59485Y-56292D01*
X59366Y-56435D02*
X59366Y-56135D01*
X59557Y-56135D01*
X59604Y-56150D01*
X59628Y-56164D01*
X59652Y-56192D01*
X59652Y-56235D01*
X59628Y-56264D01*
X59604Y-56278D01*
X59557Y-56292D01*
X59366Y-56292D01*
X59866Y-56435D02*
X59866Y-56135D01*
X59985Y-56135D01*
X60057Y-56150D01*
X60104Y-56178D01*
X60128Y-56207D01*
X60152Y-56264D01*
X60152Y-56307D01*
X60128Y-56364D01*
X60104Y-56392D01*
X60057Y-56421D01*
X59985Y-56435D01*
X59866Y-56435D01*
X60580Y-56435D02*
X60580Y-56278D01*
X60557Y-56250D01*
X60509Y-56235D01*
X60414Y-56235D01*
X60366Y-56250D01*
X60580Y-56421D02*
X60533Y-56435D01*
X60414Y-56435D01*
X60366Y-56421D01*
X60342Y-56392D01*
X60342Y-56364D01*
X60366Y-56335D01*
X60414Y-56321D01*
X60533Y-56321D01*
X60580Y-56307D01*
X49809Y-58335D02*
X50190Y-58335D01*
X50000Y-58526D02*
X50000Y-58145D01*
X51409Y-55035D02*
X51790Y-55035D01*
X51600Y-55226D02*
X51600Y-54845D01*
X57809Y-56135D02*
X58190Y-56135D01*
X58000Y-56326D02*
X58000Y-55945D01*
X57809Y-55035D02*
X58190Y-55035D01*
X53809Y-56135D02*
X54190Y-56135D01*
X49809Y-57235D02*
X50190Y-57235D01*
X51409Y-53935D02*
X51790Y-53935D01*
X55438Y-57535D02*
X55271Y-57392D01*
X55152Y-57535D02*
X55152Y-57235D01*
X55342Y-57235D01*
X55390Y-57250D01*
X55414Y-57264D01*
X55438Y-57292D01*
X55438Y-57335D01*
X55414Y-57364D01*
X55390Y-57378D01*
X55342Y-57392D01*
X55152Y-57392D01*
X55938Y-57507D02*
X55914Y-57521D01*
X55842Y-57535D01*
X55795Y-57535D01*
X55723Y-57521D01*
X55676Y-57492D01*
X55652Y-57464D01*
X55628Y-57407D01*
X55628Y-57364D01*
X55652Y-57307D01*
X55676Y-57278D01*
X55723Y-57250D01*
X55795Y-57235D01*
X55842Y-57235D01*
X55914Y-57250D01*
X55938Y-57264D01*
X56223Y-57535D02*
X56176Y-57521D01*
X56152Y-57492D01*
X56152Y-57235D01*
X56414Y-57535D02*
X56414Y-57235D01*
X56461Y-57421D02*
X56604Y-57535D01*
X56604Y-57335D02*
X56414Y-57450D01*
X51123Y-58335D02*
X51219Y-58335D01*
X51266Y-58350D01*
X51314Y-58378D01*
X51338Y-58435D01*
X51338Y-58535D01*
X51314Y-58592D01*
X51266Y-58621D01*
X51219Y-58635D01*
X51123Y-58635D01*
X51076Y-58621D01*
X51028Y-58592D01*
X51004Y-58535D01*
X51004Y-58435D01*
X51028Y-58378D01*
X51076Y-58350D01*
X51123Y-58335D01*
X51766Y-58435D02*
X51766Y-58635D01*
X51552Y-58435D02*
X51552Y-58592D01*
X51576Y-58621D01*
X51623Y-58635D01*
X51695Y-58635D01*
X51742Y-58621D01*
X51766Y-58607D01*
X51933Y-58435D02*
X52123Y-58435D01*
X52004Y-58335D02*
X52004Y-58592D01*
X52028Y-58621D01*
X52076Y-58635D01*
X52123Y-58635D01*
X52266Y-58550D02*
X52504Y-58550D01*
X52219Y-58635D02*
X52385Y-58335D01*
X52552Y-58635D01*
X53090Y-55321D02*
X53161Y-55335D01*
X53280Y-55335D01*
X53328Y-55321D01*
X53352Y-55307D01*
X53376Y-55278D01*
X53376Y-55250D01*
X53352Y-55221D01*
X53328Y-55207D01*
X53280Y-55192D01*
X53185Y-55178D01*
X53138Y-55164D01*
X53114Y-55150D01*
X53090Y-55121D01*
X53090Y-55092D01*
X53114Y-55064D01*
X53138Y-55050D01*
X53185Y-55035D01*
X53304Y-55035D01*
X53376Y-55050D01*
X53590Y-55335D02*
X53590Y-55035D01*
X53709Y-55035D01*
X53780Y-55050D01*
X53828Y-55078D01*
X53852Y-55107D01*
X53876Y-55164D01*
X53876Y-55207D01*
X53852Y-55264D01*
X53828Y-55292D01*
X53780Y-55321D01*
X53709Y-55335D01*
X53590Y-55335D01*
X54066Y-55250D02*
X54304Y-55250D01*
X54019Y-55335D02*
X54185Y-55035D01*
X54352Y-55335D01*
X53300Y-52207D02*
X53276Y-52221D01*
X53204Y-52235D01*
X53157Y-52235D01*
X53085Y-52221D01*
X53038Y-52192D01*
X53014Y-52164D01*
X52990Y-52107D01*
X52990Y-52064D01*
X53014Y-52007D01*
X53038Y-51978D01*
X53085Y-51950D01*
X53157Y-51935D01*
X53204Y-51935D01*
X53276Y-51950D01*
X53300Y-51964D01*
X53752Y-52235D02*
X53514Y-52235D01*
X53514Y-51935D01*
X53919Y-52235D02*
X53919Y-51935D01*
X54204Y-52235D02*
X53990Y-52064D01*
X54204Y-51935D02*
X53919Y-52107D01*
X51409Y-51935D02*
X51790Y-51935D01*
X51600Y-52126D02*
X51600Y-51745D01*
X51409Y-50835D02*
X51790Y-50835D01*
X55400Y-52500D02*
X55400Y-54500D01*
X58600Y-52500D02*
X55400Y-52500D01*
X58600Y-54500D02*
X58600Y-52500D01*
X55400Y-54500D02*
X58600Y-54500D01*
X55609Y-52835D02*
X55990Y-52835D01*
X55609Y-54035D02*
X55990Y-54035D01*
X55800Y-54226D02*
X55800Y-53845D01*
X57314Y-54207D02*
X57290Y-54221D01*
X57219Y-54235D01*
X57171Y-54235D01*
X57100Y-54221D01*
X57052Y-54192D01*
X57028Y-54164D01*
X57004Y-54107D01*
X57004Y-54064D01*
X57028Y-54007D01*
X57052Y-53978D01*
X57100Y-53950D01*
X57171Y-53935D01*
X57219Y-53935D01*
X57290Y-53950D01*
X57314Y-53964D01*
X57457Y-53935D02*
X57742Y-53935D01*
X57600Y-54235D02*
X57600Y-53935D01*
X58195Y-54235D02*
X58028Y-54092D01*
X57909Y-54235D02*
X57909Y-53935D01*
X58100Y-53935D01*
X58147Y-53950D01*
X58171Y-53964D01*
X58195Y-53992D01*
X58195Y-54035D01*
X58171Y-54064D01*
X58147Y-54078D01*
X58100Y-54092D01*
X57909Y-54092D01*
X62271Y-54335D02*
X62390Y-54535D01*
X62509Y-54335D01*
X63342Y-54535D02*
X63057Y-54535D01*
X63200Y-54535D02*
X63200Y-54235D01*
X63152Y-54278D01*
X63104Y-54307D01*
X63057Y-54321D01*
X63557Y-54507D02*
X63580Y-54521D01*
X63557Y-54535D01*
X63533Y-54521D01*
X63557Y-54507D01*
X63557Y-54535D01*
X64057Y-54535D02*
X63771Y-54535D01*
X63914Y-54535D02*
X63914Y-54235D01*
X63866Y-54278D01*
X63819Y-54307D01*
X63771Y-54321D01*
X64652Y-54421D02*
X65033Y-54421D01*
X65819Y-54378D02*
X65652Y-54378D01*
X65652Y-54535D02*
X65652Y-54235D01*
X65890Y-54235D01*
X66080Y-54507D02*
X66104Y-54521D01*
X66080Y-54535D01*
X66057Y-54521D01*
X66080Y-54507D01*
X66080Y-54535D01*
X66700Y-54535D02*
X66700Y-54235D01*
X66866Y-54450D01*
X67033Y-54235D01*
X67033Y-54535D01*
X67461Y-54521D02*
X67414Y-54535D01*
X67319Y-54535D01*
X67271Y-54521D01*
X67247Y-54492D01*
X67247Y-54378D01*
X67271Y-54350D01*
X67319Y-54335D01*
X67414Y-54335D01*
X67461Y-54350D01*
X67485Y-54378D01*
X67485Y-54407D01*
X67247Y-54435D01*
X67700Y-54535D02*
X67700Y-54335D01*
X67700Y-54235D02*
X67676Y-54250D01*
X67700Y-54264D01*
X67723Y-54250D01*
X67700Y-54235D01*
X67700Y-54264D01*
X68128Y-54521D02*
X68080Y-54535D01*
X67985Y-54535D01*
X67938Y-54521D01*
X67914Y-54492D01*
X67914Y-54378D01*
X67938Y-54350D01*
X67985Y-54335D01*
X68080Y-54335D01*
X68128Y-54350D01*
X68152Y-54378D01*
X68152Y-54407D01*
X67914Y-54435D01*
X68366Y-54535D02*
X68366Y-54335D01*
X68366Y-54392D02*
X68390Y-54364D01*
X68414Y-54350D01*
X68461Y-54335D01*
X68509Y-54335D01*
X68699Y-54521D02*
X68699Y-54535D01*
X68676Y-54564D01*
X68652Y-54578D01*
X69295Y-54535D02*
X69295Y-54235D01*
X69580Y-54535D01*
X69580Y-54235D01*
X69890Y-54535D02*
X69842Y-54521D01*
X69819Y-54507D01*
X69795Y-54478D01*
X69795Y-54392D01*
X69819Y-54364D01*
X69842Y-54350D01*
X69890Y-54335D01*
X69961Y-54335D01*
X70009Y-54350D01*
X70033Y-54364D01*
X70057Y-54392D01*
X70057Y-54478D01*
X70033Y-54507D01*
X70009Y-54521D01*
X69961Y-54535D01*
X69890Y-54535D01*
X70223Y-54335D02*
X70342Y-54535D01*
X70461Y-54335D01*
X71009Y-54264D02*
X71033Y-54250D01*
X71080Y-54235D01*
X71199Y-54235D01*
X71247Y-54250D01*
X71271Y-54264D01*
X71295Y-54292D01*
X71295Y-54321D01*
X71271Y-54364D01*
X70985Y-54535D01*
X71295Y-54535D01*
X71604Y-54235D02*
X71652Y-54235D01*
X71699Y-54250D01*
X71723Y-54264D01*
X71747Y-54292D01*
X71771Y-54350D01*
X71771Y-54421D01*
X71747Y-54478D01*
X71723Y-54507D01*
X71699Y-54521D01*
X71652Y-54535D01*
X71604Y-54535D01*
X71557Y-54521D01*
X71533Y-54507D01*
X71509Y-54478D01*
X71485Y-54421D01*
X71485Y-54350D01*
X71509Y-54292D01*
X71533Y-54264D01*
X71557Y-54250D01*
X71604Y-54235D01*
X72247Y-54535D02*
X71961Y-54535D01*
X72104Y-54535D02*
X72104Y-54235D01*
X72057Y-54278D01*
X72009Y-54307D01*
X71961Y-54321D01*
X72414Y-54235D02*
X72723Y-54235D01*
X72557Y-54350D01*
X72628Y-54350D01*
X72676Y-54364D01*
X72700Y-54378D01*
X72723Y-54407D01*
X72723Y-54478D01*
X72700Y-54507D01*
X72676Y-54521D01*
X72628Y-54535D01*
X72485Y-54535D01*
X72438Y-54521D01*
X72414Y-54507D01*
G54D12*
X62409Y-51957D02*
X62213Y-51957D01*
X62213Y-52267D02*
X62213Y-51676D01*
X62494Y-51676D01*
X62719Y-52267D02*
X62719Y-51676D01*
X62944Y-51676D01*
X63000Y-51704D01*
X63028Y-51732D01*
X63056Y-51789D01*
X63056Y-51873D01*
X63028Y-51929D01*
X63000Y-51957D01*
X62944Y-51985D01*
X62719Y-51985D01*
X63309Y-52267D02*
X63309Y-51873D01*
X63309Y-51676D02*
X63281Y-51704D01*
X63309Y-51732D01*
X63337Y-51704D01*
X63309Y-51676D01*
X63309Y-51732D01*
X63534Y-52267D02*
X63844Y-51873D01*
X63534Y-51873D02*
X63844Y-52267D01*
X64434Y-51873D02*
X64659Y-51873D01*
X64519Y-51676D02*
X64519Y-52182D01*
X64547Y-52239D01*
X64603Y-52267D01*
X64659Y-52267D01*
X64940Y-52267D02*
X64884Y-52239D01*
X64856Y-52210D01*
X64828Y-52154D01*
X64828Y-51985D01*
X64856Y-51929D01*
X64884Y-51901D01*
X64940Y-51873D01*
X65025Y-51873D01*
X65081Y-51901D01*
X65109Y-51929D01*
X65137Y-51985D01*
X65137Y-52154D01*
X65109Y-52210D01*
X65081Y-52239D01*
X65025Y-52267D01*
X64940Y-52267D01*
X65840Y-52267D02*
X65840Y-51676D01*
X65981Y-51676D01*
X66065Y-51704D01*
X66121Y-51760D01*
X66150Y-51817D01*
X66178Y-51929D01*
X66178Y-52014D01*
X66150Y-52126D01*
X66121Y-52182D01*
X66065Y-52239D01*
X65981Y-52267D01*
X65840Y-52267D01*
X66346Y-51676D02*
X66684Y-51676D01*
X66515Y-52267D02*
X66515Y-51676D01*
X67078Y-51957D02*
X67162Y-51985D01*
X67190Y-52014D01*
X67218Y-52070D01*
X67218Y-52154D01*
X67190Y-52210D01*
X67162Y-52239D01*
X67106Y-52267D01*
X66881Y-52267D01*
X66881Y-51676D01*
X67078Y-51676D01*
X67134Y-51704D01*
X67162Y-51732D01*
X67190Y-51789D01*
X67190Y-51845D01*
X67162Y-51901D01*
X67134Y-51929D01*
X67078Y-51957D01*
X66881Y-51957D01*
X68174Y-52267D02*
X68174Y-51957D01*
X68146Y-51901D01*
X68090Y-51873D01*
X67977Y-51873D01*
X67921Y-51901D01*
X68174Y-52239D02*
X68118Y-52267D01*
X67977Y-52267D01*
X67921Y-52239D01*
X67893Y-52182D01*
X67893Y-52126D01*
X67921Y-52070D01*
X67977Y-52042D01*
X68118Y-52042D01*
X68174Y-52014D01*
X68709Y-52267D02*
X68709Y-51676D01*
X68709Y-52239D02*
X68652Y-52267D01*
X68540Y-52267D01*
X68484Y-52239D01*
X68456Y-52210D01*
X68427Y-52154D01*
X68427Y-51985D01*
X68456Y-51929D01*
X68484Y-51901D01*
X68540Y-51873D01*
X68652Y-51873D01*
X68709Y-51901D01*
X69243Y-52267D02*
X69243Y-51957D01*
X69215Y-51901D01*
X69159Y-51873D01*
X69046Y-51873D01*
X68990Y-51901D01*
X69243Y-52239D02*
X69187Y-52267D01*
X69046Y-52267D01*
X68990Y-52239D01*
X68962Y-52182D01*
X68962Y-52126D01*
X68990Y-52070D01*
X69046Y-52042D01*
X69187Y-52042D01*
X69243Y-52014D01*
X69524Y-51873D02*
X69524Y-52464D01*
X69524Y-51901D02*
X69580Y-51873D01*
X69693Y-51873D01*
X69749Y-51901D01*
X69777Y-51929D01*
X69805Y-51985D01*
X69805Y-52154D01*
X69777Y-52210D01*
X69749Y-52239D01*
X69693Y-52267D01*
X69580Y-52267D01*
X69524Y-52239D01*
X69974Y-51873D02*
X70199Y-51873D01*
X70058Y-51676D02*
X70058Y-52182D01*
X70087Y-52239D01*
X70143Y-52267D01*
X70199Y-52267D01*
X70621Y-52239D02*
X70565Y-52267D01*
X70452Y-52267D01*
X70396Y-52239D01*
X70368Y-52182D01*
X70368Y-51957D01*
X70396Y-51901D01*
X70452Y-51873D01*
X70565Y-51873D01*
X70621Y-51901D01*
X70649Y-51957D01*
X70649Y-52014D01*
X70368Y-52070D01*
X70902Y-52267D02*
X70902Y-51873D01*
X70902Y-51985D02*
X70930Y-51929D01*
X70958Y-51901D01*
X71015Y-51873D01*
X71071Y-51873D01*
G54D11*
X62219Y-53635D02*
X62219Y-53878D01*
X62242Y-53907D01*
X62266Y-53921D01*
X62314Y-53935D01*
X62409Y-53935D01*
X62457Y-53921D01*
X62480Y-53907D01*
X62504Y-53878D01*
X62504Y-53635D01*
X62742Y-53735D02*
X62742Y-53935D01*
X62742Y-53764D02*
X62766Y-53750D01*
X62814Y-53735D01*
X62885Y-53735D01*
X62933Y-53750D01*
X62957Y-53778D01*
X62957Y-53935D01*
X63195Y-53935D02*
X63195Y-53735D01*
X63195Y-53635D02*
X63171Y-53650D01*
X63195Y-53664D01*
X63219Y-53650D01*
X63195Y-53635D01*
X63195Y-53664D01*
X63385Y-53735D02*
X63504Y-53935D01*
X63623Y-53735D01*
X63814Y-53907D02*
X63838Y-53921D01*
X63814Y-53935D01*
X63790Y-53921D01*
X63814Y-53907D01*
X63814Y-53935D01*
X64504Y-53935D02*
X64457Y-53921D01*
X64433Y-53907D01*
X64409Y-53878D01*
X64409Y-53792D01*
X64433Y-53764D01*
X64457Y-53750D01*
X64504Y-53735D01*
X64576Y-53735D01*
X64623Y-53750D01*
X64647Y-53764D01*
X64671Y-53792D01*
X64671Y-53878D01*
X64647Y-53907D01*
X64623Y-53921D01*
X64576Y-53935D01*
X64504Y-53935D01*
X64814Y-53735D02*
X65004Y-53735D01*
X64885Y-53935D02*
X64885Y-53678D01*
X64909Y-53650D01*
X64957Y-53635D01*
X65004Y-53635D01*
X65552Y-53935D02*
X65552Y-53635D01*
X65838Y-53935D01*
X65838Y-53635D01*
X66266Y-53921D02*
X66219Y-53935D01*
X66123Y-53935D01*
X66076Y-53921D01*
X66052Y-53892D01*
X66052Y-53778D01*
X66076Y-53750D01*
X66123Y-53735D01*
X66219Y-53735D01*
X66266Y-53750D01*
X66290Y-53778D01*
X66290Y-53807D01*
X66052Y-53835D01*
X66504Y-53935D02*
X66504Y-53635D01*
X66504Y-53750D02*
X66552Y-53735D01*
X66647Y-53735D01*
X66695Y-53750D01*
X66719Y-53764D01*
X66742Y-53792D01*
X66742Y-53878D01*
X66719Y-53907D01*
X66695Y-53921D01*
X66647Y-53935D01*
X66552Y-53935D01*
X66504Y-53921D01*
X66957Y-53935D02*
X66957Y-53735D01*
X66957Y-53792D02*
X66980Y-53764D01*
X67004Y-53750D01*
X67052Y-53735D01*
X67100Y-53735D01*
X67480Y-53935D02*
X67480Y-53778D01*
X67457Y-53750D01*
X67409Y-53735D01*
X67314Y-53735D01*
X67266Y-53750D01*
X67480Y-53921D02*
X67433Y-53935D01*
X67314Y-53935D01*
X67266Y-53921D01*
X67242Y-53892D01*
X67242Y-53864D01*
X67266Y-53835D01*
X67314Y-53821D01*
X67433Y-53821D01*
X67480Y-53807D01*
X67695Y-53921D02*
X67742Y-53935D01*
X67838Y-53935D01*
X67885Y-53921D01*
X67909Y-53892D01*
X67909Y-53878D01*
X67885Y-53850D01*
X67838Y-53835D01*
X67766Y-53835D01*
X67719Y-53821D01*
X67695Y-53792D01*
X67695Y-53778D01*
X67719Y-53750D01*
X67766Y-53735D01*
X67838Y-53735D01*
X67885Y-53750D01*
X68123Y-53935D02*
X68123Y-53635D01*
X68171Y-53821D02*
X68314Y-53935D01*
X68314Y-53735D02*
X68123Y-53850D01*
X68742Y-53935D02*
X68742Y-53778D01*
X68719Y-53750D01*
X68671Y-53735D01*
X68576Y-53735D01*
X68528Y-53750D01*
X68742Y-53921D02*
X68695Y-53935D01*
X68576Y-53935D01*
X68528Y-53921D01*
X68504Y-53892D01*
X68504Y-53864D01*
X68528Y-53835D01*
X68576Y-53821D01*
X68695Y-53821D01*
X68742Y-53807D01*
X68980Y-53821D02*
X69361Y-53821D01*
X69838Y-53935D02*
X69600Y-53935D01*
X69600Y-53635D01*
X70004Y-53935D02*
X70004Y-53735D01*
X70004Y-53635D02*
X69980Y-53650D01*
X70004Y-53664D01*
X70028Y-53650D01*
X70004Y-53635D01*
X70004Y-53664D01*
X70242Y-53735D02*
X70242Y-53935D01*
X70242Y-53764D02*
X70266Y-53750D01*
X70314Y-53735D01*
X70385Y-53735D01*
X70433Y-53750D01*
X70457Y-53778D01*
X70457Y-53935D01*
X70909Y-53921D02*
X70861Y-53935D01*
X70766Y-53935D01*
X70719Y-53921D01*
X70695Y-53907D01*
X70671Y-53878D01*
X70671Y-53792D01*
X70695Y-53764D01*
X70719Y-53750D01*
X70766Y-53735D01*
X70861Y-53735D01*
X70909Y-53750D01*
X71195Y-53935D02*
X71147Y-53921D01*
X71123Y-53907D01*
X71100Y-53878D01*
X71100Y-53792D01*
X71123Y-53764D01*
X71147Y-53750D01*
X71195Y-53735D01*
X71266Y-53735D01*
X71314Y-53750D01*
X71338Y-53764D01*
X71361Y-53792D01*
X71361Y-53878D01*
X71338Y-53907D01*
X71314Y-53921D01*
X71266Y-53935D01*
X71195Y-53935D01*
X71647Y-53935D02*
X71600Y-53921D01*
X71576Y-53892D01*
X71576Y-53635D01*
X71838Y-53735D02*
X71838Y-53935D01*
X71838Y-53764D02*
X71861Y-53750D01*
X71909Y-53735D01*
X71980Y-53735D01*
X72028Y-53750D01*
X72052Y-53778D01*
X72052Y-53935D01*
G54D13*
X73350Y-54550D02*
X73350Y-55450D01*
X73350Y-55450D02*
X72850Y-55450D01*
X72850Y-55450D02*
X72850Y-54550D01*
X72850Y-54550D02*
X73350Y-54550D01*
X74150Y-54550D02*
X74150Y-55450D01*
X74150Y-55450D02*
X73650Y-55450D01*
X73650Y-55450D02*
X73650Y-54550D01*
X73650Y-54550D02*
X74150Y-54550D01*
X56450Y-58050D02*
X57350Y-58050D01*
X57350Y-58050D02*
X57350Y-58550D01*
X57350Y-58550D02*
X56450Y-58550D01*
X56450Y-58550D02*
X56450Y-58050D01*
X63450Y-58050D02*
X64350Y-58050D01*
X64350Y-58050D02*
X64350Y-58550D01*
X64350Y-58550D02*
X63450Y-58550D01*
X63450Y-58550D02*
X63450Y-58050D01*
G54D10*
X78050Y-54724D02*
X78050Y-51575D01*
X78050Y-51575D02*
X76869Y-51575D01*
X76869Y-51575D02*
X76869Y-54724D01*
X76869Y-54724D02*
X78050Y-54724D01*
G54D13*
X59850Y-58050D02*
X60750Y-58050D01*
X60750Y-58050D02*
X60750Y-58550D01*
X60750Y-58550D02*
X59850Y-58550D01*
X59850Y-58550D02*
X59850Y-58050D01*
X54650Y-58050D02*
X55550Y-58050D01*
X55550Y-58050D02*
X55550Y-58550D01*
X55550Y-58550D02*
X54650Y-58550D01*
X54650Y-58550D02*
X54650Y-58050D01*
X61750Y-58050D02*
X62650Y-58050D01*
X62650Y-58050D02*
X62650Y-58550D01*
X62650Y-58550D02*
X61750Y-58550D01*
X61750Y-58550D02*
X61750Y-58050D01*
X54350Y-58550D02*
X53450Y-58550D01*
X53450Y-58550D02*
X53450Y-58050D01*
X53450Y-58050D02*
X54350Y-58050D01*
X54350Y-58050D02*
X54350Y-58550D01*
X59250Y-58550D02*
X58350Y-58550D01*
X58350Y-58550D02*
X58350Y-58050D01*
X58350Y-58050D02*
X59250Y-58050D01*
X59250Y-58050D02*
X59250Y-58550D01*
X75350Y-57830D02*
X75350Y-55830D01*
X75350Y-55830D02*
X77150Y-55830D01*
X77150Y-55830D02*
X77150Y-57830D01*
X77150Y-57830D02*
X75350Y-57830D01*
X75950Y-57830D02*
X75950Y-57630D01*
X75950Y-57630D02*
X76450Y-57630D01*
X76450Y-57630D02*
X76450Y-57830D01*
G54D14*
X54000Y-51750D02*
X54200Y-51750D01*
X54200Y-51750D02*
X54200Y-51450D01*
X54200Y-51450D02*
X54000Y-51450D01*
X53800Y-51750D02*
X53600Y-51750D01*
X53600Y-51750D02*
X53600Y-51450D01*
X53600Y-51450D02*
X53800Y-51450D01*
X54000Y-51350D02*
X54200Y-51350D01*
X54200Y-51350D02*
X54200Y-51050D01*
X54200Y-51050D02*
X54000Y-51050D01*
X53800Y-51350D02*
X53600Y-51350D01*
X53600Y-51350D02*
X53600Y-51050D01*
X53600Y-51050D02*
X53800Y-51050D01*
X50900Y-48950D02*
X51100Y-48950D01*
X51100Y-48950D02*
X51100Y-48650D01*
X51100Y-48650D02*
X50900Y-48650D01*
X50700Y-48950D02*
X50500Y-48950D01*
X50500Y-48950D02*
X50500Y-48650D01*
X50500Y-48650D02*
X50700Y-48650D01*
X50900Y-49350D02*
X51100Y-49350D01*
X51100Y-49350D02*
X51100Y-49050D01*
X51100Y-49050D02*
X50900Y-49050D01*
X50700Y-49350D02*
X50500Y-49350D01*
X50500Y-49350D02*
X50500Y-49050D01*
X50500Y-49050D02*
X50700Y-49050D01*
X58200Y-53350D02*
X58400Y-53350D01*
X58400Y-53350D02*
X58400Y-53050D01*
X58400Y-53050D02*
X58200Y-53050D01*
X58000Y-53350D02*
X57800Y-53350D01*
X57800Y-53350D02*
X57800Y-53050D01*
X57800Y-53050D02*
X58000Y-53050D01*
X58200Y-53750D02*
X58400Y-53750D01*
X58400Y-53750D02*
X58400Y-53450D01*
X58400Y-53450D02*
X58200Y-53450D01*
X58000Y-53750D02*
X57800Y-53750D01*
X57800Y-53750D02*
X57800Y-53450D01*
X57800Y-53450D02*
X58000Y-53450D01*
X54100Y-54450D02*
X54300Y-54450D01*
X54300Y-54450D02*
X54300Y-54150D01*
X54300Y-54150D02*
X54100Y-54150D01*
X53900Y-54450D02*
X53700Y-54450D01*
X53700Y-54450D02*
X53700Y-54150D01*
X53700Y-54150D02*
X53900Y-54150D01*
X54100Y-54850D02*
X54300Y-54850D01*
X54300Y-54850D02*
X54300Y-54550D01*
X54300Y-54550D02*
X54100Y-54550D01*
X53900Y-54850D02*
X53700Y-54850D01*
X53700Y-54850D02*
X53700Y-54550D01*
X53700Y-54550D02*
X53900Y-54550D01*
X60400Y-55550D02*
X60600Y-55550D01*
X60600Y-55550D02*
X60600Y-55250D01*
X60600Y-55250D02*
X60400Y-55250D01*
X60200Y-55550D02*
X60000Y-55550D01*
X60000Y-55550D02*
X60000Y-55250D01*
X60000Y-55250D02*
X60200Y-55250D01*
X60400Y-55950D02*
X60600Y-55950D01*
X60600Y-55950D02*
X60600Y-55650D01*
X60600Y-55650D02*
X60400Y-55650D01*
X60200Y-55950D02*
X60000Y-55950D01*
X60000Y-55950D02*
X60000Y-55650D01*
X60000Y-55650D02*
X60200Y-55650D01*
X56400Y-56650D02*
X56600Y-56650D01*
X56600Y-56650D02*
X56600Y-56350D01*
X56600Y-56350D02*
X56400Y-56350D01*
X56200Y-56650D02*
X56000Y-56650D01*
X56000Y-56650D02*
X56000Y-56350D01*
X56000Y-56350D02*
X56200Y-56350D01*
X56400Y-57050D02*
X56600Y-57050D01*
X56600Y-57050D02*
X56600Y-56750D01*
X56600Y-56750D02*
X56400Y-56750D01*
X56200Y-57050D02*
X56000Y-57050D01*
X56000Y-57050D02*
X56000Y-56750D01*
X56000Y-56750D02*
X56200Y-56750D01*
X52400Y-57750D02*
X52600Y-57750D01*
X52600Y-57750D02*
X52600Y-57450D01*
X52600Y-57450D02*
X52400Y-57450D01*
X52200Y-57750D02*
X52000Y-57750D01*
X52000Y-57750D02*
X52000Y-57450D01*
X52000Y-57450D02*
X52200Y-57450D01*
X52400Y-58150D02*
X52600Y-58150D01*
X52600Y-58150D02*
X52600Y-57850D01*
X52600Y-57850D02*
X52400Y-57850D01*
X52200Y-58150D02*
X52000Y-58150D01*
X52000Y-58150D02*
X52000Y-57850D01*
X52000Y-57850D02*
X52200Y-57850D01*
X51450Y-57900D02*
X51450Y-58100D01*
X51450Y-58100D02*
X51750Y-58100D01*
X51750Y-58100D02*
X51750Y-57900D01*
X51450Y-57700D02*
X51450Y-57500D01*
X51450Y-57500D02*
X51750Y-57500D01*
X51750Y-57500D02*
X51750Y-57700D01*
X55450Y-56800D02*
X55450Y-57000D01*
X55450Y-57000D02*
X55750Y-57000D01*
X55750Y-57000D02*
X55750Y-56800D01*
X55450Y-56600D02*
X55450Y-56400D01*
X55450Y-56400D02*
X55750Y-56400D01*
X55750Y-56400D02*
X55750Y-56600D01*
X59450Y-55700D02*
X59450Y-55900D01*
X59450Y-55900D02*
X59750Y-55900D01*
X59750Y-55900D02*
X59750Y-55700D01*
X59450Y-55500D02*
X59450Y-55300D01*
X59450Y-55300D02*
X59750Y-55300D01*
X59750Y-55300D02*
X59750Y-55500D01*
X53150Y-54600D02*
X53150Y-54800D01*
X53150Y-54800D02*
X53450Y-54800D01*
X53450Y-54800D02*
X53450Y-54600D01*
X53150Y-54400D02*
X53150Y-54200D01*
X53150Y-54200D02*
X53450Y-54200D01*
X53450Y-54200D02*
X53450Y-54400D01*
X57250Y-53500D02*
X57250Y-53700D01*
X57250Y-53700D02*
X57550Y-53700D01*
X57550Y-53700D02*
X57550Y-53500D01*
X57250Y-53300D02*
X57250Y-53100D01*
X57250Y-53100D02*
X57550Y-53100D01*
X57550Y-53100D02*
X57550Y-53300D01*
X49950Y-49100D02*
X49950Y-49300D01*
X49950Y-49300D02*
X50250Y-49300D01*
X50250Y-49300D02*
X50250Y-49100D01*
X49950Y-48900D02*
X49950Y-48700D01*
X49950Y-48700D02*
X50250Y-48700D01*
X50250Y-48700D02*
X50250Y-48900D01*
X53350Y-51300D02*
X53350Y-51100D01*
X53350Y-51100D02*
X53050Y-51100D01*
X53050Y-51100D02*
X53050Y-51300D01*
X53350Y-51500D02*
X53350Y-51700D01*
X53350Y-51700D02*
X53050Y-51700D01*
X53050Y-51700D02*
X53050Y-51500D01*
G54D10*
X62200Y-57599D02*
X62200Y-55000D01*
X62200Y-55000D02*
X64799Y-55000D01*
X64799Y-55000D02*
X64799Y-57599D01*
G54D15*
G36*
X64834Y-57633D02*
X64793Y-57633D01*
X64793Y-55786D01*
X64793Y-55558D01*
X64791Y-55359D01*
X64787Y-55200D01*
X64782Y-55088D01*
X64775Y-55031D01*
X64773Y-55027D01*
X64734Y-55020D01*
X64637Y-55014D01*
X64490Y-55010D01*
X64302Y-55007D01*
X64081Y-55006D01*
X63837Y-55007D01*
X63764Y-55008D01*
X62783Y-55017D01*
X63017Y-55096D01*
X63153Y-55146D01*
X63283Y-55197D01*
X63375Y-55238D01*
X63451Y-55272D01*
X63495Y-55282D01*
X63500Y-55278D01*
X63520Y-55282D01*
X63571Y-55321D01*
X63576Y-55327D01*
X63631Y-55374D01*
X63665Y-55377D01*
X63706Y-55336D01*
X63709Y-55333D01*
X63773Y-55289D01*
X63855Y-55267D01*
X63935Y-55267D01*
X63989Y-55292D01*
X64000Y-55319D01*
X63984Y-55354D01*
X63928Y-55356D01*
X63904Y-55351D01*
X63819Y-55347D01*
X63784Y-55376D01*
X63800Y-55429D01*
X63867Y-55494D01*
X63901Y-55517D01*
X63979Y-55576D01*
X64027Y-55628D01*
X64033Y-55646D01*
X64057Y-55704D01*
X64085Y-55735D01*
X64118Y-55750D01*
X64160Y-55738D01*
X64223Y-55689D01*
X64315Y-55601D01*
X64427Y-55499D01*
X64501Y-55448D01*
X64535Y-55444D01*
X64523Y-55485D01*
X64463Y-55570D01*
X64389Y-55655D01*
X64202Y-55856D01*
X64304Y-55995D01*
X64367Y-56080D01*
X64407Y-56120D01*
X64441Y-56125D01*
X64484Y-56102D01*
X64499Y-56093D01*
X64564Y-56068D01*
X64589Y-56089D01*
X64569Y-56142D01*
X64542Y-56173D01*
X64471Y-56244D01*
X64547Y-56397D01*
X64599Y-56510D01*
X64656Y-56654D01*
X64704Y-56783D01*
X64783Y-57017D01*
X64792Y-56035D01*
X64793Y-55786D01*
X64793Y-57633D01*
X64767Y-57633D01*
X64767Y-57567D01*
X64767Y-57465D01*
X64756Y-57346D01*
X64728Y-57191D01*
X64687Y-57014D01*
X64637Y-56830D01*
X64583Y-56653D01*
X64527Y-56500D01*
X64476Y-56384D01*
X64437Y-56324D01*
X64398Y-56327D01*
X64346Y-56348D01*
X64346Y-56228D01*
X64341Y-56195D01*
X64309Y-56128D01*
X64260Y-56046D01*
X64208Y-55968D01*
X64164Y-55913D01*
X64144Y-55900D01*
X64114Y-55919D01*
X64045Y-55971D01*
X63947Y-56047D01*
X63881Y-56099D01*
X63751Y-56201D01*
X63620Y-56301D01*
X63510Y-56381D01*
X63480Y-56402D01*
X63395Y-56463D01*
X63357Y-56502D01*
X63358Y-56534D01*
X63386Y-56570D01*
X63434Y-56612D01*
X63490Y-56628D01*
X63568Y-56618D01*
X63682Y-56580D01*
X63789Y-56538D01*
X64143Y-56361D01*
X64346Y-56228D01*
X64346Y-56348D01*
X64320Y-56359D01*
X64222Y-56412D01*
X64086Y-56487D01*
X63926Y-56566D01*
X63808Y-56619D01*
X63694Y-56667D01*
X63605Y-56708D01*
X63558Y-56733D01*
X63556Y-56734D01*
X63552Y-56775D01*
X63575Y-56851D01*
X63587Y-56877D01*
X63631Y-56955D01*
X63674Y-56984D01*
X63731Y-56979D01*
X63918Y-56915D01*
X64108Y-56815D01*
X64271Y-56696D01*
X64321Y-56647D01*
X64407Y-56564D01*
X64462Y-56529D01*
X64482Y-56542D01*
X64461Y-56602D01*
X64429Y-56658D01*
X64329Y-56771D01*
X64182Y-56879D01*
X64009Y-56970D01*
X63867Y-57022D01*
X63767Y-57051D01*
X63697Y-57073D01*
X63676Y-57081D01*
X63679Y-57113D01*
X63696Y-57187D01*
X63702Y-57210D01*
X63730Y-57290D01*
X63770Y-57325D01*
X63847Y-57333D01*
X63868Y-57333D01*
X63968Y-57321D01*
X64057Y-57275D01*
X64129Y-57217D01*
X64219Y-57139D01*
X64271Y-57106D01*
X64295Y-57113D01*
X64300Y-57146D01*
X64271Y-57212D01*
X64197Y-57285D01*
X64094Y-57353D01*
X63982Y-57402D01*
X63918Y-57418D01*
X63821Y-57439D01*
X63775Y-57469D01*
X63767Y-57504D01*
X63771Y-57528D01*
X63790Y-57545D01*
X63833Y-57556D01*
X63911Y-57563D01*
X64034Y-57566D01*
X64210Y-57566D01*
X64267Y-57567D01*
X64767Y-57567D01*
X64767Y-57633D01*
X63694Y-57633D01*
X63694Y-57512D01*
X63672Y-57464D01*
X63646Y-57446D01*
X63646Y-57288D01*
X63633Y-57232D01*
X63631Y-57225D01*
X63610Y-57150D01*
X63600Y-57110D01*
X63600Y-57108D01*
X63569Y-57104D01*
X63565Y-57103D01*
X63565Y-57000D01*
X63508Y-56880D01*
X63465Y-56803D01*
X63420Y-56773D01*
X63351Y-56777D01*
X63349Y-56777D01*
X63344Y-56778D01*
X63344Y-56634D01*
X63311Y-56593D01*
X63307Y-56590D01*
X63270Y-56563D01*
X63231Y-56560D01*
X63173Y-56587D01*
X63079Y-56648D01*
X63073Y-56652D01*
X62981Y-56720D01*
X62920Y-56778D01*
X62896Y-56817D01*
X62915Y-56829D01*
X62958Y-56817D01*
X63024Y-56792D01*
X63123Y-56757D01*
X63167Y-56742D01*
X63280Y-56700D01*
X63337Y-56667D01*
X63344Y-56634D01*
X63344Y-56778D01*
X63248Y-56801D01*
X63135Y-56840D01*
X63119Y-56847D01*
X63041Y-56884D01*
X63016Y-56915D01*
X63033Y-56950D01*
X63082Y-56979D01*
X63175Y-56995D01*
X63320Y-57000D01*
X63565Y-57000D01*
X63565Y-57103D01*
X63489Y-57101D01*
X63376Y-57100D01*
X63367Y-57100D01*
X63251Y-57103D01*
X63168Y-57113D01*
X63133Y-57126D01*
X63133Y-57127D01*
X63165Y-57197D01*
X63252Y-57255D01*
X63383Y-57295D01*
X63519Y-57319D01*
X63601Y-57328D01*
X63639Y-57319D01*
X63646Y-57288D01*
X63646Y-57446D01*
X63618Y-57428D01*
X63521Y-57398D01*
X63408Y-57376D01*
X63233Y-57345D01*
X63233Y-57456D01*
X63233Y-57567D01*
X63469Y-57567D01*
X63593Y-57564D01*
X63663Y-57556D01*
X63692Y-57538D01*
X63694Y-57512D01*
X63694Y-57633D01*
X63521Y-57633D01*
X63166Y-57633D01*
X63166Y-57492D01*
X63150Y-57396D01*
X63096Y-57348D01*
X63080Y-57346D01*
X63080Y-57195D01*
X63066Y-57165D01*
X63013Y-57115D01*
X62973Y-57112D01*
X62967Y-57113D01*
X62967Y-56998D01*
X62945Y-56958D01*
X62881Y-56966D01*
X62833Y-56991D01*
X62833Y-56864D01*
X62833Y-56863D01*
X62827Y-56837D01*
X62801Y-56849D01*
X62745Y-56905D01*
X62731Y-56921D01*
X62650Y-57009D01*
X62742Y-56951D01*
X62805Y-56902D01*
X62833Y-56864D01*
X62833Y-56991D01*
X62807Y-57005D01*
X62732Y-57058D01*
X62701Y-57091D01*
X62720Y-57097D01*
X62753Y-57087D01*
X62828Y-57062D01*
X62886Y-57046D01*
X62947Y-57021D01*
X62967Y-56998D01*
X62967Y-57113D01*
X62860Y-57145D01*
X62797Y-57168D01*
X62771Y-57187D01*
X62767Y-57202D01*
X62796Y-57220D01*
X62873Y-57231D01*
X62934Y-57233D01*
X63032Y-57231D01*
X63076Y-57221D01*
X63080Y-57195D01*
X63080Y-57346D01*
X62994Y-57338D01*
X62978Y-57339D01*
X62893Y-57349D01*
X62861Y-57371D01*
X62864Y-57422D01*
X62873Y-57458D01*
X62898Y-57528D01*
X62940Y-57559D01*
X63020Y-57566D01*
X63034Y-57567D01*
X63120Y-57561D01*
X63158Y-57539D01*
X63166Y-57492D01*
X63166Y-57633D01*
X62788Y-57633D01*
X62788Y-57521D01*
X62779Y-57473D01*
X62749Y-57382D01*
X62703Y-57349D01*
X62667Y-57355D01*
X62667Y-57250D01*
X62650Y-57233D01*
X62633Y-57250D01*
X62650Y-57267D01*
X62667Y-57250D01*
X62667Y-57355D01*
X62625Y-57364D01*
X62590Y-57378D01*
X62511Y-57420D01*
X62485Y-57464D01*
X62489Y-57495D01*
X62525Y-57547D01*
X62606Y-57571D01*
X62628Y-57574D01*
X62730Y-57578D01*
X62779Y-57564D01*
X62788Y-57521D01*
X62788Y-57633D01*
X62433Y-57633D01*
X62433Y-57535D01*
X62409Y-57490D01*
X62400Y-57483D01*
X62371Y-57491D01*
X62367Y-57515D01*
X62384Y-57560D01*
X62400Y-57567D01*
X62432Y-57543D01*
X62433Y-57535D01*
X62433Y-57633D01*
X62207Y-57633D01*
X62192Y-57508D01*
X62186Y-57390D01*
X62198Y-57311D01*
X62226Y-57283D01*
X62241Y-57288D01*
X62279Y-57278D01*
X62335Y-57230D01*
X62390Y-57164D01*
X62426Y-57100D01*
X62432Y-57075D01*
X62402Y-57040D01*
X62313Y-57024D01*
X62242Y-57024D01*
X62208Y-56998D01*
X62200Y-56959D01*
X62211Y-56913D01*
X62257Y-56908D01*
X62287Y-56914D01*
X62417Y-56945D01*
X62501Y-56955D01*
X62560Y-56943D01*
X62611Y-56906D01*
X62647Y-56870D01*
X62744Y-56768D01*
X62614Y-56713D01*
X62489Y-56671D01*
X62357Y-56643D01*
X62342Y-56641D01*
X62252Y-56622D01*
X62203Y-56593D01*
X62200Y-56583D01*
X62228Y-56563D01*
X62303Y-56563D01*
X62406Y-56580D01*
X62523Y-56610D01*
X62635Y-56652D01*
X62673Y-56670D01*
X62799Y-56734D01*
X62983Y-56612D01*
X63076Y-56546D01*
X63142Y-56492D01*
X63167Y-56462D01*
X63138Y-56428D01*
X63064Y-56376D01*
X62960Y-56317D01*
X62841Y-56258D01*
X62723Y-56209D01*
X62650Y-56183D01*
X62519Y-56152D01*
X62386Y-56130D01*
X62342Y-56126D01*
X62243Y-56110D01*
X62201Y-56079D01*
X62200Y-56073D01*
X62217Y-56047D01*
X62278Y-56042D01*
X62358Y-56051D01*
X62650Y-56109D01*
X62898Y-56198D01*
X63118Y-56326D01*
X63158Y-56355D01*
X63266Y-56436D01*
X63475Y-56296D01*
X63613Y-56199D01*
X63761Y-56088D01*
X63867Y-56005D01*
X63959Y-55929D01*
X64029Y-55871D01*
X64064Y-55843D01*
X64058Y-55814D01*
X64045Y-55798D01*
X64000Y-55787D01*
X63968Y-55815D01*
X63906Y-55852D01*
X63819Y-55866D01*
X63736Y-55856D01*
X63682Y-55823D01*
X63678Y-55815D01*
X63673Y-55756D01*
X63703Y-55738D01*
X63740Y-55760D01*
X63811Y-55797D01*
X63880Y-55784D01*
X63915Y-55741D01*
X63911Y-55677D01*
X63880Y-55650D01*
X63819Y-55608D01*
X63737Y-55543D01*
X63710Y-55520D01*
X63640Y-55465D01*
X63593Y-55438D01*
X63584Y-55438D01*
X63581Y-55476D01*
X63586Y-55559D01*
X63596Y-55642D01*
X63607Y-55748D01*
X63610Y-55824D01*
X63605Y-55850D01*
X63554Y-55869D01*
X63512Y-55835D01*
X63497Y-55775D01*
X63485Y-55672D01*
X63471Y-55603D01*
X63455Y-55561D01*
X63437Y-55559D01*
X63405Y-55605D01*
X63366Y-55678D01*
X63315Y-55765D01*
X63274Y-55821D01*
X63259Y-55833D01*
X63230Y-55806D01*
X63187Y-55738D01*
X63167Y-55700D01*
X63109Y-55604D01*
X63067Y-55573D01*
X63041Y-55605D01*
X63033Y-55698D01*
X63022Y-55793D01*
X62994Y-55853D01*
X62957Y-55865D01*
X62944Y-55855D01*
X62938Y-55815D01*
X62944Y-55729D01*
X62957Y-55617D01*
X62976Y-55497D01*
X62997Y-55386D01*
X63017Y-55304D01*
X63034Y-55267D01*
X63036Y-55266D01*
X63065Y-55294D01*
X63112Y-55366D01*
X63167Y-55468D01*
X63169Y-55471D01*
X63272Y-55676D01*
X63353Y-55535D01*
X63400Y-55447D01*
X63429Y-55384D01*
X63433Y-55368D01*
X63402Y-55331D01*
X63318Y-55284D01*
X63193Y-55233D01*
X63038Y-55180D01*
X62865Y-55130D01*
X62687Y-55086D01*
X62515Y-55052D01*
X62400Y-55036D01*
X62325Y-55027D01*
X62290Y-55020D01*
X62300Y-55013D01*
X62360Y-55006D01*
X62475Y-54999D01*
X62651Y-54990D01*
X62700Y-54987D01*
X62892Y-54980D01*
X63132Y-54975D01*
X63400Y-54972D01*
X63679Y-54971D01*
X63948Y-54972D01*
X64017Y-54973D01*
X64817Y-54983D01*
X64825Y-56308D01*
X64834Y-57633D01*
X64834Y-57633D01*
X64834Y-57633D01*
G37*
G36*
X62893Y-55328D02*
X62889Y-55355D01*
X62843Y-55360D01*
X62768Y-55350D01*
X62637Y-55349D01*
X62549Y-55397D01*
X62506Y-55496D01*
X62500Y-55567D01*
X62523Y-55692D01*
X62591Y-55769D01*
X62700Y-55794D01*
X62751Y-55789D01*
X62833Y-55783D01*
X62859Y-55801D01*
X62858Y-55810D01*
X62816Y-55841D01*
X62734Y-55857D01*
X62632Y-55858D01*
X62536Y-55843D01*
X62476Y-55817D01*
X62406Y-55730D01*
X62377Y-55614D01*
X62386Y-55489D01*
X62432Y-55377D01*
X62512Y-55302D01*
X62592Y-55278D01*
X62694Y-55272D01*
X62794Y-55281D01*
X62868Y-55304D01*
X62893Y-55328D01*
X62893Y-55328D01*
X62893Y-55328D01*
G37*
G36*
X68900Y-57900D02*
X68535Y-57899D01*
X68535Y-57833D01*
X68526Y-57541D01*
X68516Y-57250D01*
X68358Y-57239D01*
X68200Y-57229D01*
X68200Y-56381D01*
X68200Y-55533D01*
X68366Y-55533D01*
X68533Y-55533D01*
X68533Y-55250D01*
X68533Y-54966D01*
X67900Y-54966D01*
X67266Y-54966D01*
X67266Y-55250D01*
X67266Y-55533D01*
X67433Y-55533D01*
X67600Y-55533D01*
X67600Y-56004D01*
X67600Y-56475D01*
X67000Y-55721D01*
X66401Y-54966D01*
X65983Y-54966D01*
X65566Y-54966D01*
X65566Y-55250D01*
X65566Y-55533D01*
X65733Y-55533D01*
X65900Y-55533D01*
X65900Y-56400D01*
X65900Y-57266D01*
X65733Y-57266D01*
X65566Y-57266D01*
X65566Y-57550D01*
X65566Y-57833D01*
X66200Y-57833D01*
X66833Y-57833D01*
X66833Y-57550D01*
X66833Y-57266D01*
X66682Y-57266D01*
X66576Y-57257D01*
X66519Y-57230D01*
X66514Y-57223D01*
X66508Y-57174D01*
X66505Y-57074D01*
X66504Y-56934D01*
X66506Y-56771D01*
X66507Y-56750D01*
X66516Y-56321D01*
X67114Y-57077D01*
X67712Y-57833D01*
X68124Y-57833D01*
X68535Y-57833D01*
X68535Y-57899D01*
X68241Y-57899D01*
X67583Y-57898D01*
X67366Y-57613D01*
X67254Y-57466D01*
X67134Y-57310D01*
X67012Y-57154D01*
X66897Y-57007D01*
X66796Y-56880D01*
X66718Y-56783D01*
X66671Y-56726D01*
X66664Y-56718D01*
X66647Y-56730D01*
X66637Y-56802D01*
X66633Y-56926D01*
X66633Y-57166D01*
X66800Y-57166D01*
X66966Y-57166D01*
X66966Y-57533D01*
X66966Y-57900D01*
X66233Y-57900D01*
X65500Y-57900D01*
X65500Y-57533D01*
X65500Y-57166D01*
X65650Y-57166D01*
X65800Y-57166D01*
X65800Y-56400D01*
X65800Y-55633D01*
X65650Y-55633D01*
X65500Y-55633D01*
X65500Y-55266D01*
X65500Y-54900D01*
X66010Y-54900D01*
X66521Y-54900D01*
X66902Y-55382D01*
X67030Y-55545D01*
X67151Y-55699D01*
X67255Y-55832D01*
X67334Y-55934D01*
X67374Y-55987D01*
X67466Y-56110D01*
X67466Y-55872D01*
X67466Y-55633D01*
X67300Y-55633D01*
X67133Y-55633D01*
X67133Y-55266D01*
X67133Y-54900D01*
X67900Y-54900D01*
X68666Y-54900D01*
X68666Y-55266D01*
X68666Y-55633D01*
X68500Y-55633D01*
X68333Y-55633D01*
X68333Y-56400D01*
X68333Y-57166D01*
X68500Y-57166D01*
X68666Y-57166D01*
X68666Y-57426D01*
X68666Y-57686D01*
X68783Y-57672D01*
X68860Y-57668D01*
X68892Y-57689D01*
X68899Y-57756D01*
X68900Y-57779D01*
X68900Y-57900D01*
X68900Y-57900D01*
X68900Y-57900D01*
G37*
G36*
X68300Y-55250D02*
X68270Y-55289D01*
X68202Y-55300D01*
X68146Y-55301D01*
X68102Y-55310D01*
X68067Y-55333D01*
X68041Y-55376D01*
X68023Y-55448D01*
X68011Y-55554D01*
X68004Y-55702D01*
X68001Y-55898D01*
X68000Y-56148D01*
X68000Y-56366D01*
X68000Y-57328D01*
X68086Y-57396D01*
X68166Y-57450D01*
X68236Y-57484D01*
X68296Y-57512D01*
X68294Y-57536D01*
X68234Y-57554D01*
X68121Y-57564D01*
X68022Y-57566D01*
X67745Y-57566D01*
X67031Y-56663D01*
X66316Y-55759D01*
X66307Y-56568D01*
X66305Y-56841D01*
X66305Y-57055D01*
X66310Y-57217D01*
X66321Y-57334D01*
X66340Y-57413D01*
X66368Y-57462D01*
X66406Y-57488D01*
X66456Y-57498D01*
X66505Y-57500D01*
X66573Y-57510D01*
X66600Y-57533D01*
X66567Y-57547D01*
X66476Y-57558D01*
X66334Y-57565D01*
X66200Y-57566D01*
X66024Y-57563D01*
X65894Y-57556D01*
X65817Y-57544D01*
X65800Y-57533D01*
X65828Y-57508D01*
X65891Y-57499D01*
X65957Y-57495D01*
X66009Y-57479D01*
X66050Y-57446D01*
X66081Y-57387D01*
X66103Y-57297D01*
X66118Y-57169D01*
X66127Y-56996D01*
X66131Y-56773D01*
X66133Y-56491D01*
X66133Y-56379D01*
X66133Y-55496D01*
X66052Y-55416D01*
X65970Y-55352D01*
X65886Y-55314D01*
X65822Y-55283D01*
X65800Y-55246D01*
X65815Y-55222D01*
X65868Y-55208D01*
X65970Y-55201D01*
X66075Y-55200D01*
X66350Y-55200D01*
X67048Y-56085D01*
X67215Y-56296D01*
X67371Y-56492D01*
X67509Y-56665D01*
X67626Y-56809D01*
X67715Y-56918D01*
X67772Y-56986D01*
X67790Y-57005D01*
X67804Y-57006D01*
X67814Y-56977D01*
X67822Y-56913D01*
X67828Y-56807D01*
X67831Y-56651D01*
X67832Y-56440D01*
X67832Y-56262D01*
X67831Y-55987D01*
X67828Y-55771D01*
X67821Y-55608D01*
X67808Y-55489D01*
X67788Y-55407D01*
X67759Y-55355D01*
X67720Y-55325D01*
X67668Y-55311D01*
X67624Y-55306D01*
X67531Y-55286D01*
X67500Y-55248D01*
X67500Y-55247D01*
X67511Y-55227D01*
X67552Y-55213D01*
X67632Y-55204D01*
X67762Y-55200D01*
X67900Y-55200D01*
X68072Y-55201D01*
X68188Y-55205D01*
X68258Y-55215D01*
X68292Y-55230D01*
X68300Y-55250D01*
X68300Y-55250D01*
X68300Y-55250D01*
G37*
G54D16*
X73171Y-55030D02*
X73180Y-55038D01*
X73190Y-55064D01*
X73190Y-55081D01*
X73180Y-55107D01*
X73161Y-55124D01*
X73142Y-55132D01*
X73104Y-55141D01*
X73076Y-55141D01*
X73038Y-55132D01*
X73019Y-55124D01*
X73000Y-55107D01*
X72990Y-55081D01*
X72990Y-55064D01*
X73000Y-55038D01*
X73009Y-55030D01*
X73190Y-54858D02*
X73190Y-54961D01*
X73190Y-54910D02*
X72990Y-54910D01*
X73019Y-54927D01*
X73038Y-54944D01*
X73047Y-54961D01*
X73971Y-55030D02*
X73980Y-55038D01*
X73990Y-55064D01*
X73990Y-55081D01*
X73980Y-55107D01*
X73961Y-55124D01*
X73942Y-55132D01*
X73904Y-55141D01*
X73876Y-55141D01*
X73838Y-55132D01*
X73819Y-55124D01*
X73800Y-55107D01*
X73790Y-55081D01*
X73790Y-55064D01*
X73800Y-55038D01*
X73809Y-55030D01*
X73809Y-54961D02*
X73800Y-54952D01*
X73790Y-54935D01*
X73790Y-54892D01*
X73800Y-54875D01*
X73809Y-54867D01*
X73828Y-54858D01*
X73847Y-54858D01*
X73876Y-54867D01*
X73990Y-54970D01*
X73990Y-54858D01*
X56870Y-58371D02*
X56861Y-58380D01*
X56835Y-58390D01*
X56818Y-58390D01*
X56792Y-58380D01*
X56775Y-58361D01*
X56767Y-58342D01*
X56758Y-58304D01*
X56758Y-58276D01*
X56767Y-58238D01*
X56775Y-58219D01*
X56792Y-58200D01*
X56818Y-58190D01*
X56835Y-58190D01*
X56861Y-58200D01*
X56870Y-58209D01*
X56930Y-58190D02*
X57041Y-58190D01*
X56981Y-58266D01*
X57007Y-58266D01*
X57024Y-58276D01*
X57032Y-58285D01*
X57041Y-58304D01*
X57041Y-58352D01*
X57032Y-58371D01*
X57024Y-58380D01*
X57007Y-58390D01*
X56955Y-58390D01*
X56938Y-58380D01*
X56930Y-58371D01*
X63870Y-58371D02*
X63861Y-58380D01*
X63835Y-58390D01*
X63818Y-58390D01*
X63792Y-58380D01*
X63775Y-58361D01*
X63767Y-58342D01*
X63758Y-58304D01*
X63758Y-58276D01*
X63767Y-58238D01*
X63775Y-58219D01*
X63792Y-58200D01*
X63818Y-58190D01*
X63835Y-58190D01*
X63861Y-58200D01*
X63870Y-58209D01*
X64024Y-58257D02*
X64024Y-58390D01*
X63981Y-58180D02*
X63938Y-58323D01*
X64050Y-58323D01*
G54D10*
X43716Y-53378D02*
X43997Y-53378D01*
X44053Y-53397D01*
X44091Y-53434D01*
X44109Y-53490D01*
X44109Y-53528D01*
X43753Y-53209D02*
X43734Y-53191D01*
X43716Y-53153D01*
X43716Y-53059D01*
X43734Y-53022D01*
X43753Y-53003D01*
X43791Y-52984D01*
X43828Y-52984D01*
X43884Y-53003D01*
X44109Y-53228D01*
X44109Y-52984D01*
X76260Y-53478D02*
X76541Y-53478D01*
X76597Y-53496D01*
X76635Y-53534D01*
X76653Y-53590D01*
X76653Y-53628D01*
X76653Y-53290D02*
X76260Y-53290D01*
X76260Y-53140D01*
X76278Y-53103D01*
X76297Y-53084D01*
X76335Y-53065D01*
X76391Y-53065D01*
X76428Y-53084D01*
X76447Y-53103D01*
X76466Y-53140D01*
X76466Y-53290D01*
X76653Y-52690D02*
X76653Y-52915D01*
X76653Y-52803D02*
X76260Y-52803D01*
X76316Y-52840D01*
X76353Y-52878D01*
X76372Y-52915D01*
G54D16*
X60184Y-58390D02*
X60124Y-58295D01*
X60081Y-58390D02*
X60081Y-58190D01*
X60150Y-58190D01*
X60167Y-58200D01*
X60175Y-58209D01*
X60184Y-58228D01*
X60184Y-58257D01*
X60175Y-58276D01*
X60167Y-58285D01*
X60150Y-58295D01*
X60081Y-58295D01*
X60252Y-58209D02*
X60261Y-58200D01*
X60278Y-58190D01*
X60321Y-58190D01*
X60338Y-58200D01*
X60347Y-58209D01*
X60355Y-58228D01*
X60355Y-58247D01*
X60347Y-58276D01*
X60244Y-58390D01*
X60355Y-58390D01*
X60424Y-58209D02*
X60432Y-58200D01*
X60450Y-58190D01*
X60492Y-58190D01*
X60510Y-58200D01*
X60518Y-58209D01*
X60527Y-58228D01*
X60527Y-58247D01*
X60518Y-58276D01*
X60415Y-58390D01*
X60527Y-58390D01*
X54984Y-58390D02*
X54924Y-58295D01*
X54881Y-58390D02*
X54881Y-58190D01*
X54950Y-58190D01*
X54967Y-58200D01*
X54975Y-58209D01*
X54984Y-58228D01*
X54984Y-58257D01*
X54975Y-58276D01*
X54967Y-58285D01*
X54950Y-58295D01*
X54881Y-58295D01*
X55052Y-58209D02*
X55061Y-58200D01*
X55078Y-58190D01*
X55121Y-58190D01*
X55138Y-58200D01*
X55147Y-58209D01*
X55155Y-58228D01*
X55155Y-58247D01*
X55147Y-58276D01*
X55044Y-58390D01*
X55155Y-58390D01*
X55215Y-58190D02*
X55327Y-58190D01*
X55267Y-58266D01*
X55292Y-58266D01*
X55310Y-58276D01*
X55318Y-58285D01*
X55327Y-58304D01*
X55327Y-58352D01*
X55318Y-58371D01*
X55310Y-58380D01*
X55292Y-58390D01*
X55241Y-58390D01*
X55224Y-58380D01*
X55215Y-58371D01*
X62084Y-58390D02*
X62024Y-58295D01*
X61981Y-58390D02*
X61981Y-58190D01*
X62050Y-58190D01*
X62067Y-58200D01*
X62075Y-58209D01*
X62084Y-58228D01*
X62084Y-58257D01*
X62075Y-58276D01*
X62067Y-58285D01*
X62050Y-58295D01*
X61981Y-58295D01*
X62152Y-58209D02*
X62161Y-58200D01*
X62178Y-58190D01*
X62221Y-58190D01*
X62238Y-58200D01*
X62247Y-58209D01*
X62255Y-58228D01*
X62255Y-58247D01*
X62247Y-58276D01*
X62144Y-58390D01*
X62255Y-58390D01*
X62410Y-58257D02*
X62410Y-58390D01*
X62367Y-58180D02*
X62324Y-58323D01*
X62435Y-58323D01*
X53784Y-58390D02*
X53724Y-58295D01*
X53681Y-58390D02*
X53681Y-58190D01*
X53750Y-58190D01*
X53767Y-58200D01*
X53775Y-58209D01*
X53784Y-58228D01*
X53784Y-58257D01*
X53775Y-58276D01*
X53767Y-58285D01*
X53750Y-58295D01*
X53681Y-58295D01*
X53852Y-58209D02*
X53861Y-58200D01*
X53878Y-58190D01*
X53921Y-58190D01*
X53938Y-58200D01*
X53947Y-58209D01*
X53955Y-58228D01*
X53955Y-58247D01*
X53947Y-58276D01*
X53844Y-58390D01*
X53955Y-58390D01*
X54118Y-58190D02*
X54032Y-58190D01*
X54024Y-58285D01*
X54032Y-58276D01*
X54050Y-58266D01*
X54092Y-58266D01*
X54110Y-58276D01*
X54118Y-58285D01*
X54127Y-58304D01*
X54127Y-58352D01*
X54118Y-58371D01*
X54110Y-58380D01*
X54092Y-58390D01*
X54050Y-58390D01*
X54032Y-58380D01*
X54024Y-58371D01*
X58684Y-58390D02*
X58624Y-58295D01*
X58581Y-58390D02*
X58581Y-58190D01*
X58650Y-58190D01*
X58667Y-58200D01*
X58675Y-58209D01*
X58684Y-58228D01*
X58684Y-58257D01*
X58675Y-58276D01*
X58667Y-58285D01*
X58650Y-58295D01*
X58581Y-58295D01*
X58752Y-58209D02*
X58761Y-58200D01*
X58778Y-58190D01*
X58821Y-58190D01*
X58838Y-58200D01*
X58847Y-58209D01*
X58855Y-58228D01*
X58855Y-58247D01*
X58847Y-58276D01*
X58744Y-58390D01*
X58855Y-58390D01*
X59010Y-58190D02*
X58975Y-58190D01*
X58958Y-58200D01*
X58950Y-58209D01*
X58932Y-58238D01*
X58924Y-58276D01*
X58924Y-58352D01*
X58932Y-58371D01*
X58941Y-58380D01*
X58958Y-58390D01*
X58992Y-58390D01*
X59010Y-58380D01*
X59018Y-58371D01*
X59027Y-58352D01*
X59027Y-58304D01*
X59018Y-58285D01*
X59010Y-58276D01*
X58992Y-58266D01*
X58958Y-58266D01*
X58941Y-58276D01*
X58932Y-58285D01*
X58924Y-58304D01*
G54D13*
X75503Y-57134D02*
X75867Y-57134D01*
X75910Y-57115D01*
X75932Y-57096D01*
X75953Y-57058D01*
X75953Y-56982D01*
X75932Y-56944D01*
X75910Y-56925D01*
X75867Y-56906D01*
X75503Y-56906D01*
X75953Y-56506D02*
X75953Y-56734D01*
X75953Y-56620D02*
X75503Y-56620D01*
X75567Y-56658D01*
X75610Y-56696D01*
X75632Y-56734D01*
X76569Y-57715D02*
X76550Y-57696D01*
X76530Y-57658D01*
X76530Y-57563D01*
X76550Y-57525D01*
X76569Y-57506D01*
X76607Y-57487D01*
X76645Y-57487D01*
X76702Y-57506D01*
X76930Y-57734D01*
X76930Y-57487D01*
X76664Y-57144D02*
X76930Y-57144D01*
X76511Y-57239D02*
X76797Y-57334D01*
X76797Y-57087D01*
X76892Y-56706D02*
X76911Y-56725D01*
X76930Y-56782D01*
X76930Y-56820D01*
X76911Y-56877D01*
X76873Y-56915D01*
X76835Y-56934D01*
X76759Y-56953D01*
X76702Y-56953D01*
X76626Y-56934D01*
X76588Y-56915D01*
X76550Y-56877D01*
X76530Y-56820D01*
X76530Y-56782D01*
X76550Y-56725D01*
X76569Y-56706D01*
X76530Y-56458D02*
X76530Y-56420D01*
X76550Y-56382D01*
X76569Y-56363D01*
X76607Y-56344D01*
X76683Y-56325D01*
X76778Y-56325D01*
X76854Y-56344D01*
X76892Y-56363D01*
X76911Y-56382D01*
X76930Y-56420D01*
X76930Y-56458D01*
X76911Y-56496D01*
X76892Y-56515D01*
X76854Y-56534D01*
X76778Y-56553D01*
X76683Y-56553D01*
X76607Y-56534D01*
X76569Y-56515D01*
X76550Y-56496D01*
X76530Y-56458D01*
X76569Y-56172D02*
X76550Y-56153D01*
X76530Y-56115D01*
X76530Y-56020D01*
X76550Y-55982D01*
X76569Y-55963D01*
X76607Y-55944D01*
X76645Y-55944D01*
X76702Y-55963D01*
X76930Y-56191D01*
X76930Y-55944D01*
G54D14*
X53822Y-51662D02*
X53782Y-51596D01*
X53754Y-51662D02*
X53754Y-51524D01*
X53800Y-51524D01*
X53811Y-51531D01*
X53817Y-51537D01*
X53822Y-51550D01*
X53822Y-51570D01*
X53817Y-51583D01*
X53811Y-51590D01*
X53800Y-51596D01*
X53754Y-51596D01*
X53937Y-51662D02*
X53868Y-51662D01*
X53902Y-51662D02*
X53902Y-51524D01*
X53891Y-51544D01*
X53880Y-51557D01*
X53868Y-51563D01*
X54040Y-51524D02*
X54017Y-51524D01*
X54005Y-51531D01*
X54000Y-51537D01*
X53988Y-51557D01*
X53982Y-51583D01*
X53982Y-51636D01*
X53988Y-51649D01*
X53994Y-51655D01*
X54005Y-51662D01*
X54028Y-51662D01*
X54040Y-51655D01*
X54045Y-51649D01*
X54051Y-51636D01*
X54051Y-51603D01*
X54045Y-51590D01*
X54040Y-51583D01*
X54028Y-51577D01*
X54005Y-51577D01*
X53994Y-51583D01*
X53988Y-51590D01*
X53982Y-51603D01*
X53822Y-51262D02*
X53782Y-51196D01*
X53754Y-51262D02*
X53754Y-51124D01*
X53800Y-51124D01*
X53811Y-51131D01*
X53817Y-51137D01*
X53822Y-51150D01*
X53822Y-51170D01*
X53817Y-51183D01*
X53811Y-51190D01*
X53800Y-51196D01*
X53754Y-51196D01*
X53937Y-51262D02*
X53868Y-51262D01*
X53902Y-51262D02*
X53902Y-51124D01*
X53891Y-51144D01*
X53880Y-51157D01*
X53868Y-51163D01*
X54005Y-51183D02*
X53994Y-51177D01*
X53988Y-51170D01*
X53982Y-51157D01*
X53982Y-51150D01*
X53988Y-51137D01*
X53994Y-51131D01*
X54005Y-51124D01*
X54028Y-51124D01*
X54040Y-51131D01*
X54045Y-51137D01*
X54051Y-51150D01*
X54051Y-51157D01*
X54045Y-51170D01*
X54040Y-51177D01*
X54028Y-51183D01*
X54005Y-51183D01*
X53994Y-51190D01*
X53988Y-51196D01*
X53982Y-51209D01*
X53982Y-51236D01*
X53988Y-51249D01*
X53994Y-51255D01*
X54005Y-51262D01*
X54028Y-51262D01*
X54040Y-51255D01*
X54045Y-51249D01*
X54051Y-51236D01*
X54051Y-51209D01*
X54045Y-51196D01*
X54040Y-51190D01*
X54028Y-51183D01*
X50722Y-48862D02*
X50682Y-48796D01*
X50654Y-48862D02*
X50654Y-48724D01*
X50700Y-48724D01*
X50711Y-48731D01*
X50717Y-48737D01*
X50722Y-48750D01*
X50722Y-48770D01*
X50717Y-48783D01*
X50711Y-48790D01*
X50700Y-48796D01*
X50654Y-48796D01*
X50768Y-48737D02*
X50774Y-48731D01*
X50785Y-48724D01*
X50814Y-48724D01*
X50825Y-48731D01*
X50831Y-48737D01*
X50837Y-48750D01*
X50837Y-48763D01*
X50831Y-48783D01*
X50762Y-48862D01*
X50837Y-48862D01*
X50951Y-48862D02*
X50882Y-48862D01*
X50917Y-48862D02*
X50917Y-48724D01*
X50905Y-48744D01*
X50894Y-48757D01*
X50882Y-48763D01*
X50722Y-49262D02*
X50682Y-49196D01*
X50654Y-49262D02*
X50654Y-49124D01*
X50700Y-49124D01*
X50711Y-49131D01*
X50717Y-49137D01*
X50722Y-49150D01*
X50722Y-49170D01*
X50717Y-49183D01*
X50711Y-49190D01*
X50700Y-49196D01*
X50654Y-49196D01*
X50837Y-49262D02*
X50768Y-49262D01*
X50802Y-49262D02*
X50802Y-49124D01*
X50791Y-49144D01*
X50780Y-49157D01*
X50768Y-49163D01*
X50894Y-49262D02*
X50917Y-49262D01*
X50928Y-49255D01*
X50934Y-49249D01*
X50945Y-49229D01*
X50951Y-49203D01*
X50951Y-49150D01*
X50945Y-49137D01*
X50940Y-49131D01*
X50928Y-49124D01*
X50905Y-49124D01*
X50894Y-49131D01*
X50888Y-49137D01*
X50882Y-49150D01*
X50882Y-49183D01*
X50888Y-49196D01*
X50894Y-49203D01*
X50905Y-49209D01*
X50928Y-49209D01*
X50940Y-49203D01*
X50945Y-49196D01*
X50951Y-49183D01*
X58022Y-53262D02*
X57982Y-53196D01*
X57954Y-53262D02*
X57954Y-53124D01*
X58000Y-53124D01*
X58011Y-53131D01*
X58017Y-53137D01*
X58022Y-53150D01*
X58022Y-53170D01*
X58017Y-53183D01*
X58011Y-53190D01*
X58000Y-53196D01*
X57954Y-53196D01*
X58137Y-53262D02*
X58068Y-53262D01*
X58102Y-53262D02*
X58102Y-53124D01*
X58091Y-53144D01*
X58080Y-53157D01*
X58068Y-53163D01*
X58245Y-53124D02*
X58188Y-53124D01*
X58182Y-53190D01*
X58188Y-53183D01*
X58200Y-53177D01*
X58228Y-53177D01*
X58240Y-53183D01*
X58245Y-53190D01*
X58251Y-53203D01*
X58251Y-53236D01*
X58245Y-53249D01*
X58240Y-53255D01*
X58228Y-53262D01*
X58200Y-53262D01*
X58188Y-53255D01*
X58182Y-53249D01*
X58022Y-53662D02*
X57982Y-53596D01*
X57954Y-53662D02*
X57954Y-53524D01*
X58000Y-53524D01*
X58011Y-53531D01*
X58017Y-53537D01*
X58022Y-53550D01*
X58022Y-53570D01*
X58017Y-53583D01*
X58011Y-53590D01*
X58000Y-53596D01*
X57954Y-53596D01*
X58137Y-53662D02*
X58068Y-53662D01*
X58102Y-53662D02*
X58102Y-53524D01*
X58091Y-53544D01*
X58080Y-53557D01*
X58068Y-53563D01*
X58177Y-53524D02*
X58251Y-53524D01*
X58211Y-53577D01*
X58228Y-53577D01*
X58240Y-53583D01*
X58245Y-53590D01*
X58251Y-53603D01*
X58251Y-53636D01*
X58245Y-53649D01*
X58240Y-53655D01*
X58228Y-53662D01*
X58194Y-53662D01*
X58182Y-53655D01*
X58177Y-53649D01*
X53922Y-54362D02*
X53882Y-54296D01*
X53854Y-54362D02*
X53854Y-54224D01*
X53900Y-54224D01*
X53911Y-54231D01*
X53917Y-54237D01*
X53922Y-54250D01*
X53922Y-54270D01*
X53917Y-54283D01*
X53911Y-54290D01*
X53900Y-54296D01*
X53854Y-54296D01*
X54037Y-54362D02*
X53968Y-54362D01*
X54002Y-54362D02*
X54002Y-54224D01*
X53991Y-54244D01*
X53980Y-54257D01*
X53968Y-54263D01*
X54082Y-54237D02*
X54088Y-54231D01*
X54100Y-54224D01*
X54128Y-54224D01*
X54140Y-54231D01*
X54145Y-54237D01*
X54151Y-54250D01*
X54151Y-54263D01*
X54145Y-54283D01*
X54077Y-54362D01*
X54151Y-54362D01*
X53922Y-54762D02*
X53882Y-54696D01*
X53854Y-54762D02*
X53854Y-54624D01*
X53900Y-54624D01*
X53911Y-54631D01*
X53917Y-54637D01*
X53922Y-54650D01*
X53922Y-54670D01*
X53917Y-54683D01*
X53911Y-54690D01*
X53900Y-54696D01*
X53854Y-54696D01*
X54037Y-54762D02*
X53968Y-54762D01*
X54002Y-54762D02*
X54002Y-54624D01*
X53991Y-54644D01*
X53980Y-54657D01*
X53968Y-54663D01*
X54111Y-54624D02*
X54122Y-54624D01*
X54134Y-54631D01*
X54140Y-54637D01*
X54145Y-54650D01*
X54151Y-54677D01*
X54151Y-54709D01*
X54145Y-54736D01*
X54140Y-54749D01*
X54134Y-54755D01*
X54122Y-54762D01*
X54111Y-54762D01*
X54100Y-54755D01*
X54094Y-54749D01*
X54088Y-54736D01*
X54082Y-54709D01*
X54082Y-54677D01*
X54088Y-54650D01*
X54094Y-54637D01*
X54100Y-54631D01*
X54111Y-54624D01*
X60280Y-55462D02*
X60240Y-55396D01*
X60211Y-55462D02*
X60211Y-55324D01*
X60257Y-55324D01*
X60268Y-55331D01*
X60274Y-55337D01*
X60280Y-55350D01*
X60280Y-55370D01*
X60274Y-55383D01*
X60268Y-55390D01*
X60257Y-55396D01*
X60211Y-55396D01*
X60337Y-55462D02*
X60360Y-55462D01*
X60371Y-55455D01*
X60377Y-55449D01*
X60388Y-55429D01*
X60394Y-55403D01*
X60394Y-55350D01*
X60388Y-55337D01*
X60382Y-55331D01*
X60371Y-55324D01*
X60348Y-55324D01*
X60337Y-55331D01*
X60331Y-55337D01*
X60325Y-55350D01*
X60325Y-55383D01*
X60331Y-55396D01*
X60337Y-55403D01*
X60348Y-55409D01*
X60371Y-55409D01*
X60382Y-55403D01*
X60388Y-55396D01*
X60394Y-55383D01*
X60280Y-55862D02*
X60240Y-55796D01*
X60211Y-55862D02*
X60211Y-55724D01*
X60257Y-55724D01*
X60268Y-55731D01*
X60274Y-55737D01*
X60280Y-55750D01*
X60280Y-55770D01*
X60274Y-55783D01*
X60268Y-55790D01*
X60257Y-55796D01*
X60211Y-55796D01*
X60320Y-55724D02*
X60400Y-55724D01*
X60348Y-55862D01*
X56280Y-56562D02*
X56240Y-56496D01*
X56211Y-56562D02*
X56211Y-56424D01*
X56257Y-56424D01*
X56268Y-56431D01*
X56274Y-56437D01*
X56280Y-56450D01*
X56280Y-56470D01*
X56274Y-56483D01*
X56268Y-56490D01*
X56257Y-56496D01*
X56211Y-56496D01*
X56382Y-56424D02*
X56360Y-56424D01*
X56348Y-56431D01*
X56342Y-56437D01*
X56331Y-56457D01*
X56325Y-56483D01*
X56325Y-56536D01*
X56331Y-56549D01*
X56337Y-56555D01*
X56348Y-56562D01*
X56371Y-56562D01*
X56382Y-56555D01*
X56388Y-56549D01*
X56394Y-56536D01*
X56394Y-56503D01*
X56388Y-56490D01*
X56382Y-56483D01*
X56371Y-56477D01*
X56348Y-56477D01*
X56337Y-56483D01*
X56331Y-56490D01*
X56325Y-56503D01*
X56280Y-56962D02*
X56240Y-56896D01*
X56211Y-56962D02*
X56211Y-56824D01*
X56257Y-56824D01*
X56268Y-56831D01*
X56274Y-56837D01*
X56280Y-56850D01*
X56280Y-56870D01*
X56274Y-56883D01*
X56268Y-56890D01*
X56257Y-56896D01*
X56211Y-56896D01*
X56382Y-56870D02*
X56382Y-56962D01*
X56354Y-56817D02*
X56325Y-56916D01*
X56400Y-56916D01*
X52280Y-57662D02*
X52240Y-57596D01*
X52211Y-57662D02*
X52211Y-57524D01*
X52257Y-57524D01*
X52268Y-57531D01*
X52274Y-57537D01*
X52280Y-57550D01*
X52280Y-57570D01*
X52274Y-57583D01*
X52268Y-57590D01*
X52257Y-57596D01*
X52211Y-57596D01*
X52320Y-57524D02*
X52394Y-57524D01*
X52354Y-57577D01*
X52371Y-57577D01*
X52382Y-57583D01*
X52388Y-57590D01*
X52394Y-57603D01*
X52394Y-57636D01*
X52388Y-57649D01*
X52382Y-57655D01*
X52371Y-57662D01*
X52337Y-57662D01*
X52325Y-57655D01*
X52320Y-57649D01*
X52280Y-58062D02*
X52240Y-57996D01*
X52211Y-58062D02*
X52211Y-57924D01*
X52257Y-57924D01*
X52268Y-57931D01*
X52274Y-57937D01*
X52280Y-57950D01*
X52280Y-57970D01*
X52274Y-57983D01*
X52268Y-57990D01*
X52257Y-57996D01*
X52211Y-57996D01*
X52394Y-58062D02*
X52325Y-58062D01*
X52360Y-58062D02*
X52360Y-57924D01*
X52348Y-57944D01*
X52337Y-57957D01*
X52325Y-57963D01*
X51662Y-57820D02*
X51596Y-57860D01*
X51662Y-57888D02*
X51524Y-57888D01*
X51524Y-57842D01*
X51531Y-57831D01*
X51537Y-57825D01*
X51550Y-57820D01*
X51570Y-57820D01*
X51583Y-57825D01*
X51590Y-57831D01*
X51596Y-57842D01*
X51596Y-57888D01*
X51537Y-57774D02*
X51531Y-57768D01*
X51524Y-57757D01*
X51524Y-57728D01*
X51531Y-57717D01*
X51537Y-57711D01*
X51550Y-57705D01*
X51563Y-57705D01*
X51583Y-57711D01*
X51662Y-57780D01*
X51662Y-57705D01*
X55662Y-56720D02*
X55596Y-56760D01*
X55662Y-56788D02*
X55524Y-56788D01*
X55524Y-56742D01*
X55531Y-56731D01*
X55537Y-56725D01*
X55550Y-56720D01*
X55570Y-56720D01*
X55583Y-56725D01*
X55590Y-56731D01*
X55596Y-56742D01*
X55596Y-56788D01*
X55524Y-56611D02*
X55524Y-56668D01*
X55590Y-56674D01*
X55583Y-56668D01*
X55577Y-56657D01*
X55577Y-56628D01*
X55583Y-56617D01*
X55590Y-56611D01*
X55603Y-56605D01*
X55636Y-56605D01*
X55649Y-56611D01*
X55655Y-56617D01*
X55662Y-56628D01*
X55662Y-56657D01*
X55655Y-56668D01*
X55649Y-56674D01*
X59662Y-55620D02*
X59596Y-55660D01*
X59662Y-55688D02*
X59524Y-55688D01*
X59524Y-55642D01*
X59531Y-55631D01*
X59537Y-55625D01*
X59550Y-55620D01*
X59570Y-55620D01*
X59583Y-55625D01*
X59590Y-55631D01*
X59596Y-55642D01*
X59596Y-55688D01*
X59583Y-55551D02*
X59577Y-55562D01*
X59570Y-55568D01*
X59557Y-55574D01*
X59550Y-55574D01*
X59537Y-55568D01*
X59531Y-55562D01*
X59524Y-55551D01*
X59524Y-55528D01*
X59531Y-55517D01*
X59537Y-55511D01*
X59550Y-55505D01*
X59557Y-55505D01*
X59570Y-55511D01*
X59577Y-55517D01*
X59583Y-55528D01*
X59583Y-55551D01*
X59590Y-55562D01*
X59596Y-55568D01*
X59609Y-55574D01*
X59636Y-55574D01*
X59649Y-55568D01*
X59655Y-55562D01*
X59662Y-55551D01*
X59662Y-55528D01*
X59655Y-55517D01*
X59649Y-55511D01*
X59636Y-55505D01*
X59609Y-55505D01*
X59596Y-55511D01*
X59590Y-55517D01*
X59583Y-55528D01*
X53362Y-54577D02*
X53296Y-54617D01*
X53362Y-54645D02*
X53224Y-54645D01*
X53224Y-54600D01*
X53231Y-54588D01*
X53237Y-54582D01*
X53250Y-54577D01*
X53270Y-54577D01*
X53283Y-54582D01*
X53290Y-54588D01*
X53296Y-54600D01*
X53296Y-54645D01*
X53362Y-54462D02*
X53362Y-54531D01*
X53362Y-54497D02*
X53224Y-54497D01*
X53244Y-54508D01*
X53257Y-54520D01*
X53263Y-54531D01*
X53362Y-54348D02*
X53362Y-54417D01*
X53362Y-54382D02*
X53224Y-54382D01*
X53244Y-54394D01*
X53257Y-54405D01*
X53263Y-54417D01*
X57462Y-53477D02*
X57396Y-53517D01*
X57462Y-53545D02*
X57324Y-53545D01*
X57324Y-53500D01*
X57331Y-53488D01*
X57337Y-53482D01*
X57350Y-53477D01*
X57370Y-53477D01*
X57383Y-53482D01*
X57390Y-53488D01*
X57396Y-53500D01*
X57396Y-53545D01*
X57462Y-53362D02*
X57462Y-53431D01*
X57462Y-53397D02*
X57324Y-53397D01*
X57344Y-53408D01*
X57357Y-53420D01*
X57363Y-53431D01*
X57370Y-53260D02*
X57462Y-53260D01*
X57317Y-53288D02*
X57416Y-53317D01*
X57416Y-53242D01*
X50162Y-49077D02*
X50096Y-49117D01*
X50162Y-49145D02*
X50024Y-49145D01*
X50024Y-49100D01*
X50031Y-49088D01*
X50037Y-49082D01*
X50050Y-49077D01*
X50070Y-49077D01*
X50083Y-49082D01*
X50090Y-49088D01*
X50096Y-49100D01*
X50096Y-49145D01*
X50037Y-49031D02*
X50031Y-49025D01*
X50024Y-49014D01*
X50024Y-48985D01*
X50031Y-48974D01*
X50037Y-48968D01*
X50050Y-48962D01*
X50063Y-48962D01*
X50083Y-48968D01*
X50162Y-49037D01*
X50162Y-48962D01*
X50024Y-48888D02*
X50024Y-48877D01*
X50031Y-48865D01*
X50037Y-48860D01*
X50050Y-48854D01*
X50077Y-48848D01*
X50109Y-48848D01*
X50136Y-48854D01*
X50149Y-48860D01*
X50155Y-48865D01*
X50162Y-48877D01*
X50162Y-48888D01*
X50155Y-48900D01*
X50149Y-48905D01*
X50136Y-48911D01*
X50109Y-48917D01*
X50077Y-48917D01*
X50050Y-48911D01*
X50037Y-48905D01*
X50031Y-48900D01*
X50024Y-48888D01*
X53262Y-51477D02*
X53196Y-51517D01*
X53262Y-51545D02*
X53124Y-51545D01*
X53124Y-51500D01*
X53131Y-51488D01*
X53137Y-51482D01*
X53150Y-51477D01*
X53170Y-51477D01*
X53183Y-51482D01*
X53190Y-51488D01*
X53196Y-51500D01*
X53196Y-51545D01*
X53262Y-51362D02*
X53262Y-51431D01*
X53262Y-51397D02*
X53124Y-51397D01*
X53144Y-51408D01*
X53157Y-51420D01*
X53163Y-51431D01*
X53124Y-51322D02*
X53124Y-51242D01*
X53262Y-51294D01*
M02*
