G04 (created by PCBNEW (2013-jul-07)-stable) date Fri 08 Aug 2014 03:37:50 PM CDT*
%MOIN*%
G04 Gerber Fmt 3.4, Leading zero omitted, Abs format*
%FSLAX34Y34*%
G01*
G70*
G90*
G04 APERTURE LIST*
%ADD10C,0.00590551*%
%ADD11C,0.0590551*%
%ADD12C,0.11811*%
%ADD13R,0.06X0.06*%
%ADD14C,0.06*%
%ADD15C,0.0787402*%
%ADD16C,0.0866142*%
%ADD17C,0.035*%
%ADD18C,0.011811*%
%ADD19C,0.0082*%
%ADD20C,0.01*%
G04 APERTURE END LIST*
G54D10*
G54D11*
X51525Y-29750D03*
X51525Y-31250D03*
X51025Y-29000D03*
X51025Y-30500D03*
X50525Y-29750D03*
X50525Y-31250D03*
X50025Y-29000D03*
X50025Y-30500D03*
X49525Y-29750D03*
X49525Y-31250D03*
X49025Y-29000D03*
X49025Y-30500D03*
X48525Y-29750D03*
X48525Y-31250D03*
X48025Y-29000D03*
X48025Y-30500D03*
X47525Y-29750D03*
X47525Y-31250D03*
X47025Y-29000D03*
X47025Y-30500D03*
X46525Y-29750D03*
X46525Y-31250D03*
X46025Y-29000D03*
X46025Y-30500D03*
X45525Y-29750D03*
X45525Y-31250D03*
X45025Y-29000D03*
X45025Y-30500D03*
X44525Y-29750D03*
X44525Y-31250D03*
X44025Y-29000D03*
X44025Y-30500D03*
X43525Y-29750D03*
X43525Y-31250D03*
X43025Y-29000D03*
X43025Y-30500D03*
X42525Y-29750D03*
X42525Y-31250D03*
X42025Y-29000D03*
X42025Y-30500D03*
X41525Y-29750D03*
X41525Y-31250D03*
X41025Y-29000D03*
X41025Y-30500D03*
X40525Y-29750D03*
X40525Y-31250D03*
X40025Y-29000D03*
X40025Y-30500D03*
X39525Y-29750D03*
X39525Y-31250D03*
X39025Y-29000D03*
X39025Y-30500D03*
X38525Y-29750D03*
X38525Y-31250D03*
X38025Y-29000D03*
X38025Y-30500D03*
X37525Y-29750D03*
X37525Y-31250D03*
X37025Y-29000D03*
X37025Y-30500D03*
X36525Y-29750D03*
X36525Y-31250D03*
X36025Y-29000D03*
X36025Y-30500D03*
X35525Y-29750D03*
X35525Y-31250D03*
X35025Y-29000D03*
X35025Y-30500D03*
G54D12*
X31875Y-30125D03*
X54675Y-30125D03*
G54D13*
X50145Y-34660D03*
G54D14*
X50145Y-35660D03*
G54D15*
X23425Y-25196D03*
G54D16*
X25393Y-25196D03*
X57480Y-25196D03*
X57480Y-37795D03*
X21259Y-37795D03*
X21259Y-25196D03*
G54D17*
X37834Y-26141D03*
X40280Y-34650D03*
X55220Y-32690D03*
X26110Y-34890D03*
X37362Y-26141D03*
X36889Y-26141D03*
X36060Y-34650D03*
X38640Y-34680D03*
X34260Y-36110D03*
X34200Y-35300D03*
X25629Y-27716D03*
X22677Y-29173D03*
X23110Y-29173D03*
X23543Y-29173D03*
X23976Y-29173D03*
X22125Y-31259D03*
X22637Y-31259D03*
X22125Y-31771D03*
X22677Y-31771D03*
X22677Y-33779D03*
X23110Y-33779D03*
X23503Y-33779D03*
X23897Y-33779D03*
X24921Y-35000D03*
X26850Y-38031D03*
X54370Y-37992D03*
X54921Y-37992D03*
X55393Y-37992D03*
X55905Y-37992D03*
X52440Y-33700D03*
X52440Y-34488D03*
X54881Y-33661D03*
X37874Y-36181D03*
X27360Y-31510D03*
X23900Y-31510D03*
X57230Y-31680D03*
X57230Y-33500D03*
X24900Y-38500D03*
X40000Y-26141D03*
X26710Y-34890D03*
X36020Y-36770D03*
X22160Y-30160D03*
X22650Y-30150D03*
X25580Y-30220D03*
X25590Y-29720D03*
X23425Y-27795D03*
X22690Y-32970D03*
X22230Y-32980D03*
X25600Y-32770D03*
X25590Y-33310D03*
X23740Y-35590D03*
G54D18*
X40280Y-34650D02*
X39010Y-33380D01*
X39010Y-33380D02*
X39010Y-31120D01*
X39010Y-31120D02*
X38530Y-30640D01*
X38530Y-30640D02*
X38530Y-30370D01*
X38530Y-30370D02*
X38990Y-29910D01*
X38990Y-29910D02*
X38990Y-29580D01*
X38990Y-29580D02*
X38540Y-29130D01*
X38540Y-29130D02*
X38540Y-28790D01*
X38540Y-26847D02*
X37834Y-26141D01*
X38540Y-28790D02*
X38540Y-26847D01*
X39686Y-24290D02*
X37834Y-26141D01*
X57450Y-32690D02*
X55220Y-32690D01*
X57960Y-32180D02*
X57450Y-32690D01*
X57960Y-31890D02*
X57960Y-32180D01*
X57960Y-28260D02*
X57960Y-31890D01*
X41930Y-24290D02*
X53990Y-24290D01*
X53990Y-24290D02*
X57960Y-28260D01*
X41930Y-24290D02*
X39686Y-24290D01*
X32278Y-26141D02*
X30940Y-27480D01*
X29260Y-29160D02*
X30940Y-27480D01*
X29260Y-31740D02*
X29260Y-29160D01*
X26110Y-34890D02*
X29260Y-31740D01*
X36889Y-26141D02*
X32278Y-26141D01*
X37834Y-26141D02*
X37362Y-26141D01*
G54D19*
X36060Y-34650D02*
X37010Y-33700D01*
X37010Y-33700D02*
X37010Y-31120D01*
X37010Y-31120D02*
X37525Y-30605D01*
X37525Y-30605D02*
X37525Y-29750D01*
X38640Y-34680D02*
X37525Y-33565D01*
X37525Y-33565D02*
X37525Y-31250D01*
X34260Y-36110D02*
X34607Y-35762D01*
X35000Y-35762D02*
X35050Y-35762D01*
X34607Y-35762D02*
X35000Y-35762D01*
X44227Y-35762D02*
X47100Y-32890D01*
X47100Y-32890D02*
X47100Y-30575D01*
X47100Y-30575D02*
X47025Y-30500D01*
X35000Y-35762D02*
X44227Y-35762D01*
X34200Y-35300D02*
X34510Y-35610D01*
X35090Y-35610D02*
X35110Y-35610D01*
X34510Y-35610D02*
X35090Y-35610D01*
X44165Y-35610D02*
X46947Y-32827D01*
X46947Y-32827D02*
X46947Y-31037D01*
X46947Y-31037D02*
X46590Y-30680D01*
X46590Y-30680D02*
X46590Y-30310D01*
X46590Y-30310D02*
X47025Y-29875D01*
X47025Y-29875D02*
X47025Y-29000D01*
X35090Y-35610D02*
X44165Y-35610D01*
X39390Y-29000D02*
X39840Y-29450D01*
X39840Y-29450D02*
X40210Y-29450D01*
X40210Y-29450D02*
X40540Y-29120D01*
X40540Y-29120D02*
X40540Y-26710D01*
X40540Y-26710D02*
X42080Y-25170D01*
X42080Y-25170D02*
X53856Y-25170D01*
X53856Y-25170D02*
X57260Y-28574D01*
X57260Y-28574D02*
X57260Y-31650D01*
X39025Y-29000D02*
X39390Y-29000D01*
X39400Y-30500D02*
X39880Y-30020D01*
X39880Y-30020D02*
X40140Y-30020D01*
X40140Y-30020D02*
X40350Y-30230D01*
X40350Y-30230D02*
X40660Y-30230D01*
X40660Y-30230D02*
X40970Y-29920D01*
X40970Y-29920D02*
X40970Y-29670D01*
X40970Y-29670D02*
X41490Y-29150D01*
X41490Y-29150D02*
X41490Y-28420D01*
X41490Y-28420D02*
X42960Y-26950D01*
X42960Y-26950D02*
X51480Y-26950D01*
X51480Y-26950D02*
X53410Y-28880D01*
X53410Y-28880D02*
X53410Y-35280D01*
X53410Y-35280D02*
X53970Y-35840D01*
X53970Y-35840D02*
X56880Y-35840D01*
X56880Y-35840D02*
X57790Y-34930D01*
X57790Y-34930D02*
X57790Y-34060D01*
X57790Y-34060D02*
X57230Y-33500D01*
X39025Y-30500D02*
X39400Y-30500D01*
G54D18*
X40025Y-26166D02*
X40000Y-26141D01*
X40025Y-29000D02*
X40025Y-26166D01*
X39560Y-31250D02*
X40200Y-31890D01*
X40200Y-31890D02*
X41535Y-31890D01*
X41535Y-31890D02*
X41985Y-31440D01*
X41985Y-31440D02*
X41985Y-31155D01*
X41985Y-31155D02*
X42540Y-30600D01*
X42540Y-30600D02*
X42540Y-30360D01*
X42540Y-30360D02*
X43005Y-29895D01*
X43005Y-29895D02*
X43005Y-29640D01*
X43005Y-29640D02*
X43545Y-29100D01*
X43545Y-29100D02*
X43545Y-28590D01*
X43545Y-28590D02*
X44175Y-27960D01*
X44175Y-27960D02*
X51280Y-27960D01*
X51280Y-27960D02*
X52755Y-29435D01*
X52755Y-29435D02*
X52755Y-32050D01*
X52755Y-32050D02*
X50145Y-34660D01*
X39525Y-31250D02*
X39560Y-31250D01*
G54D19*
X28590Y-36770D02*
X28600Y-36780D01*
X26710Y-34890D02*
X28590Y-36770D01*
X28590Y-36770D02*
X36020Y-36770D01*
G54D10*
G36*
X37981Y-26367D02*
X36742Y-26367D01*
X36742Y-25916D01*
X37981Y-25916D01*
X37981Y-26367D01*
X37981Y-26367D01*
G37*
G54D20*
X37981Y-26367D02*
X36742Y-26367D01*
X36742Y-25916D01*
X37981Y-25916D01*
X37981Y-26367D01*
M02*
