G04 (created by PCBNEW (2013-jul-07)-stable) date Fri 02 May 2014 03:08:32 PM CDT*
%MOIN*%
G04 Gerber Fmt 3.4, Leading zero omitted, Abs format*
%FSLAX34Y34*%
G01*
G70*
G90*
G04 APERTURE LIST*
%ADD10C,0.00590551*%
%ADD11C,0.006*%
%ADD12C,0.0075*%
%ADD13C,0.011811*%
%ADD14C,0.005*%
%ADD15C,0.0028*%
%ADD16C,0.0026*%
%ADD17C,0.004*%
%ADD18C,0.0001*%
%ADD19C,0.0019685*%
%ADD20C,0.0045*%
G04 APERTURE END LIST*
G54D10*
G54D11*
X31473Y-38437D02*
X31777Y-38437D01*
X31473Y-37413D02*
X31777Y-37413D01*
X31625Y-37603D02*
X31625Y-37223D01*
X31473Y-36232D02*
X31777Y-36232D01*
X31473Y-35208D02*
X31777Y-35208D01*
X31625Y-35399D02*
X31625Y-35018D01*
X31473Y-34145D02*
X31777Y-34145D01*
X31473Y-32964D02*
X31777Y-32964D01*
X31625Y-33155D02*
X31625Y-32774D01*
X31473Y-27570D02*
X31777Y-27570D01*
X31473Y-26507D02*
X31777Y-26507D01*
X31625Y-26698D02*
X31625Y-26317D01*
X31473Y-25759D02*
X31777Y-25759D01*
X31473Y-24657D02*
X31777Y-24657D01*
X31625Y-24848D02*
X31625Y-24467D01*
X23622Y-31653D02*
X23503Y-31653D01*
X23622Y-31653D02*
X23622Y-31535D01*
X23346Y-31377D02*
X23622Y-31653D01*
X23346Y-31653D02*
X23346Y-31377D01*
X23070Y-31377D02*
X23346Y-31653D01*
X27992Y-31614D02*
X27913Y-31614D01*
X27992Y-31614D02*
X27992Y-31535D01*
X27755Y-31377D02*
X27992Y-31614D01*
X27755Y-31614D02*
X27755Y-31377D01*
X27519Y-31377D02*
X27755Y-31614D01*
X23035Y-31755D02*
X22635Y-31755D01*
X22826Y-31755D02*
X22826Y-31526D01*
X23035Y-31526D02*
X22635Y-31526D01*
X22635Y-31393D02*
X23035Y-31259D01*
X22635Y-31126D01*
X28468Y-31794D02*
X28068Y-31794D01*
X28259Y-31794D02*
X28259Y-31565D01*
X28468Y-31565D02*
X28068Y-31565D01*
X28068Y-31432D02*
X28468Y-31299D01*
X28068Y-31165D01*
X52891Y-36316D02*
X53139Y-36316D01*
X53006Y-36507D01*
X53063Y-36507D01*
X53101Y-36530D01*
X53120Y-36554D01*
X53139Y-36602D01*
X53139Y-36721D01*
X53120Y-36768D01*
X53101Y-36792D01*
X53063Y-36816D01*
X52948Y-36816D01*
X52910Y-36792D01*
X52891Y-36768D01*
X53310Y-36768D02*
X53329Y-36792D01*
X53310Y-36816D01*
X53291Y-36792D01*
X53310Y-36768D01*
X53310Y-36816D01*
X53463Y-36316D02*
X53710Y-36316D01*
X53577Y-36507D01*
X53634Y-36507D01*
X53672Y-36530D01*
X53691Y-36554D01*
X53710Y-36602D01*
X53710Y-36721D01*
X53691Y-36768D01*
X53672Y-36792D01*
X53634Y-36816D01*
X53520Y-36816D01*
X53482Y-36792D01*
X53463Y-36768D01*
X53825Y-36316D02*
X53958Y-36816D01*
X54091Y-36316D01*
X40529Y-33993D02*
X40777Y-33993D01*
X40643Y-34184D01*
X40701Y-34184D01*
X40739Y-34208D01*
X40758Y-34231D01*
X40777Y-34279D01*
X40777Y-34398D01*
X40758Y-34446D01*
X40739Y-34469D01*
X40701Y-34493D01*
X40586Y-34493D01*
X40548Y-34469D01*
X40529Y-34446D01*
X40948Y-34446D02*
X40967Y-34469D01*
X40948Y-34493D01*
X40929Y-34469D01*
X40948Y-34446D01*
X40948Y-34493D01*
X41101Y-33993D02*
X41348Y-33993D01*
X41215Y-34184D01*
X41272Y-34184D01*
X41310Y-34208D01*
X41329Y-34231D01*
X41348Y-34279D01*
X41348Y-34398D01*
X41329Y-34446D01*
X41310Y-34469D01*
X41272Y-34493D01*
X41158Y-34493D01*
X41120Y-34469D01*
X41101Y-34446D01*
X41462Y-33993D02*
X41596Y-34493D01*
X41729Y-33993D01*
X35756Y-35792D02*
X35623Y-35554D01*
X35528Y-35792D02*
X35528Y-35292D01*
X35680Y-35292D01*
X35718Y-35316D01*
X35737Y-35340D01*
X35756Y-35388D01*
X35756Y-35459D01*
X35737Y-35507D01*
X35718Y-35531D01*
X35680Y-35554D01*
X35528Y-35554D01*
X35871Y-35292D02*
X36099Y-35292D01*
X35985Y-35792D02*
X35985Y-35292D01*
X36233Y-35792D02*
X36233Y-35292D01*
X36328Y-35292D01*
X36385Y-35316D01*
X36423Y-35364D01*
X36442Y-35411D01*
X36461Y-35507D01*
X36461Y-35578D01*
X36442Y-35673D01*
X36423Y-35721D01*
X36385Y-35769D01*
X36328Y-35792D01*
X36233Y-35792D01*
X23738Y-35922D02*
X23872Y-36422D01*
X24005Y-35922D01*
X24138Y-36422D02*
X24138Y-35922D01*
X24234Y-35922D01*
X24291Y-35946D01*
X24329Y-35994D01*
X24348Y-36041D01*
X24367Y-36137D01*
X24367Y-36208D01*
X24348Y-36303D01*
X24329Y-36351D01*
X24291Y-36399D01*
X24234Y-36422D01*
X24138Y-36422D01*
X23423Y-26867D02*
X23557Y-27367D01*
X23690Y-26867D01*
X23804Y-27224D02*
X23995Y-27224D01*
X23766Y-27367D02*
X23900Y-26867D01*
X24033Y-27367D01*
X26092Y-25867D02*
X26054Y-25844D01*
X25996Y-25844D01*
X25939Y-25867D01*
X25901Y-25915D01*
X25882Y-25963D01*
X25863Y-26058D01*
X25863Y-26129D01*
X25882Y-26225D01*
X25901Y-26272D01*
X25939Y-26320D01*
X25996Y-26344D01*
X26035Y-26344D01*
X26092Y-26320D01*
X26111Y-26296D01*
X26111Y-26129D01*
X26035Y-26129D01*
X26282Y-26344D02*
X26282Y-25844D01*
X26511Y-26344D01*
X26511Y-25844D01*
X26701Y-26344D02*
X26701Y-25844D01*
X26796Y-25844D01*
X26854Y-25867D01*
X26892Y-25915D01*
X26911Y-25963D01*
X26930Y-26058D01*
X26930Y-26129D01*
X26911Y-26225D01*
X26892Y-26272D01*
X26854Y-26320D01*
X26796Y-26344D01*
X26701Y-26344D01*
X30245Y-38146D02*
X30226Y-38170D01*
X30168Y-38194D01*
X30130Y-38194D01*
X30073Y-38170D01*
X30035Y-38123D01*
X30016Y-38075D01*
X29997Y-37980D01*
X29997Y-37908D01*
X30016Y-37813D01*
X30035Y-37765D01*
X30073Y-37718D01*
X30130Y-37694D01*
X30168Y-37694D01*
X30226Y-37718D01*
X30245Y-37742D01*
X30473Y-38194D02*
X30435Y-38170D01*
X30416Y-38123D01*
X30416Y-37694D01*
X30626Y-38194D02*
X30626Y-37694D01*
X30664Y-38004D02*
X30778Y-38194D01*
X30778Y-37861D02*
X30626Y-38051D01*
X30245Y-35942D02*
X30226Y-35965D01*
X30168Y-35989D01*
X30130Y-35989D01*
X30073Y-35965D01*
X30035Y-35918D01*
X30016Y-35870D01*
X29997Y-35775D01*
X29997Y-35704D01*
X30016Y-35608D01*
X30035Y-35561D01*
X30073Y-35513D01*
X30130Y-35489D01*
X30168Y-35489D01*
X30226Y-35513D01*
X30245Y-35537D01*
X30359Y-35489D02*
X30587Y-35489D01*
X30473Y-35989D02*
X30473Y-35489D01*
X30949Y-35989D02*
X30816Y-35751D01*
X30721Y-35989D02*
X30721Y-35489D01*
X30873Y-35489D01*
X30911Y-35513D01*
X30930Y-35537D01*
X30949Y-35585D01*
X30949Y-35656D01*
X30930Y-35704D01*
X30911Y-35727D01*
X30873Y-35751D01*
X30721Y-35751D01*
X29997Y-33761D02*
X30054Y-33785D01*
X30149Y-33785D01*
X30187Y-33761D01*
X30206Y-33737D01*
X30226Y-33689D01*
X30226Y-33642D01*
X30206Y-33594D01*
X30187Y-33570D01*
X30149Y-33546D01*
X30073Y-33523D01*
X30035Y-33499D01*
X30016Y-33475D01*
X29997Y-33427D01*
X29997Y-33380D01*
X30016Y-33332D01*
X30035Y-33308D01*
X30073Y-33285D01*
X30168Y-33285D01*
X30226Y-33308D01*
X30397Y-33785D02*
X30397Y-33285D01*
X30492Y-33285D01*
X30549Y-33308D01*
X30587Y-33356D01*
X30606Y-33404D01*
X30626Y-33499D01*
X30626Y-33570D01*
X30606Y-33666D01*
X30587Y-33713D01*
X30549Y-33761D01*
X30492Y-33785D01*
X30397Y-33785D01*
X30778Y-33642D02*
X30968Y-33642D01*
X30740Y-33785D02*
X30873Y-33285D01*
X31006Y-33785D01*
X30245Y-27367D02*
X30111Y-27129D01*
X30016Y-27367D02*
X30016Y-26867D01*
X30168Y-26867D01*
X30206Y-26891D01*
X30226Y-26915D01*
X30245Y-26962D01*
X30245Y-27034D01*
X30226Y-27082D01*
X30206Y-27105D01*
X30168Y-27129D01*
X30016Y-27129D01*
X30416Y-27367D02*
X30416Y-26867D01*
X30511Y-26867D01*
X30568Y-26891D01*
X30606Y-26939D01*
X30626Y-26986D01*
X30645Y-27082D01*
X30645Y-27153D01*
X30626Y-27248D01*
X30606Y-27296D01*
X30568Y-27343D01*
X30511Y-27367D01*
X30416Y-27367D01*
X30987Y-27367D02*
X30987Y-27105D01*
X30968Y-27058D01*
X30930Y-27034D01*
X30854Y-27034D01*
X30816Y-27058D01*
X30987Y-27343D02*
X30949Y-27367D01*
X30854Y-27367D01*
X30816Y-27343D01*
X30797Y-27296D01*
X30797Y-27248D01*
X30816Y-27201D01*
X30854Y-27177D01*
X30949Y-27177D01*
X30987Y-27153D01*
X30092Y-24938D02*
X30168Y-24938D01*
X30206Y-24962D01*
X30245Y-25010D01*
X30264Y-25105D01*
X30264Y-25271D01*
X30245Y-25367D01*
X30206Y-25414D01*
X30168Y-25438D01*
X30092Y-25438D01*
X30054Y-25414D01*
X30016Y-25367D01*
X29997Y-25271D01*
X29997Y-25105D01*
X30016Y-25010D01*
X30054Y-24962D01*
X30092Y-24938D01*
X30606Y-25105D02*
X30606Y-25438D01*
X30435Y-25105D02*
X30435Y-25367D01*
X30454Y-25414D01*
X30492Y-25438D01*
X30549Y-25438D01*
X30587Y-25414D01*
X30606Y-25390D01*
X30740Y-25105D02*
X30892Y-25105D01*
X30797Y-24938D02*
X30797Y-25367D01*
X30816Y-25414D01*
X30854Y-25438D01*
X30892Y-25438D01*
X31006Y-25295D02*
X31197Y-25295D01*
X30968Y-25438D02*
X31102Y-24938D01*
X31235Y-25438D01*
X24915Y-38115D02*
X24915Y-37615D01*
X25068Y-37615D01*
X25106Y-37639D01*
X25125Y-37663D01*
X25144Y-37711D01*
X25144Y-37782D01*
X25125Y-37830D01*
X25106Y-37853D01*
X25068Y-37877D01*
X24915Y-37877D01*
X25372Y-38115D02*
X25334Y-38091D01*
X25315Y-38068D01*
X25296Y-38020D01*
X25296Y-37877D01*
X25315Y-37830D01*
X25334Y-37806D01*
X25372Y-37782D01*
X25429Y-37782D01*
X25468Y-37806D01*
X25487Y-37830D01*
X25506Y-37877D01*
X25506Y-38020D01*
X25487Y-38068D01*
X25468Y-38091D01*
X25429Y-38115D01*
X25372Y-38115D01*
X25639Y-37782D02*
X25715Y-38115D01*
X25791Y-37877D01*
X25868Y-38115D01*
X25944Y-37782D01*
X26249Y-38091D02*
X26210Y-38115D01*
X26134Y-38115D01*
X26096Y-38091D01*
X26077Y-38044D01*
X26077Y-37853D01*
X26096Y-37806D01*
X26134Y-37782D01*
X26210Y-37782D01*
X26249Y-37806D01*
X26268Y-37853D01*
X26268Y-37901D01*
X26077Y-37949D01*
X26439Y-38115D02*
X26439Y-37782D01*
X26439Y-37877D02*
X26458Y-37830D01*
X26477Y-37806D01*
X26515Y-37782D01*
X26553Y-37782D01*
X27049Y-38115D02*
X27010Y-38091D01*
X26991Y-38068D01*
X26972Y-38020D01*
X26972Y-37877D01*
X26991Y-37830D01*
X27010Y-37806D01*
X27049Y-37782D01*
X27106Y-37782D01*
X27144Y-37806D01*
X27163Y-37830D01*
X27182Y-37877D01*
X27182Y-38020D01*
X27163Y-38068D01*
X27144Y-38091D01*
X27106Y-38115D01*
X27049Y-38115D01*
X27353Y-37782D02*
X27353Y-38115D01*
X27353Y-37830D02*
X27372Y-37806D01*
X27410Y-37782D01*
X27468Y-37782D01*
X27506Y-37806D01*
X27525Y-37853D01*
X27525Y-38115D01*
G54D12*
X43822Y-33785D02*
X43822Y-34024D01*
X43522Y-34024D01*
X43665Y-33619D02*
X43665Y-33452D01*
X43822Y-33381D02*
X43822Y-33619D01*
X43522Y-33619D01*
X43522Y-33381D01*
X43822Y-33166D02*
X43522Y-33166D01*
X43522Y-33047D01*
X43536Y-32976D01*
X43565Y-32928D01*
X43593Y-32905D01*
X43650Y-32881D01*
X43693Y-32881D01*
X43750Y-32905D01*
X43779Y-32928D01*
X43807Y-32976D01*
X43822Y-33047D01*
X43822Y-33166D01*
X40228Y-37716D02*
X40347Y-37916D01*
X40467Y-37716D01*
X40633Y-37645D02*
X40657Y-37630D01*
X40705Y-37616D01*
X40824Y-37616D01*
X40871Y-37630D01*
X40895Y-37645D01*
X40919Y-37673D01*
X40919Y-37702D01*
X40895Y-37745D01*
X40609Y-37916D01*
X40919Y-37916D01*
X41133Y-37888D02*
X41157Y-37902D01*
X41133Y-37916D01*
X41109Y-37902D01*
X41133Y-37888D01*
X41133Y-37916D01*
X41467Y-37616D02*
X41514Y-37616D01*
X41562Y-37630D01*
X41586Y-37645D01*
X41609Y-37673D01*
X41633Y-37730D01*
X41633Y-37802D01*
X41609Y-37859D01*
X41586Y-37888D01*
X41562Y-37902D01*
X41514Y-37916D01*
X41467Y-37916D01*
X41419Y-37902D01*
X41395Y-37888D01*
X41371Y-37859D01*
X41347Y-37802D01*
X41347Y-37730D01*
X41371Y-37673D01*
X41395Y-37645D01*
X41419Y-37630D01*
X41467Y-37616D01*
X42228Y-37802D02*
X42609Y-37802D01*
X43395Y-37759D02*
X43228Y-37759D01*
X43228Y-37916D02*
X43228Y-37616D01*
X43467Y-37616D01*
X43657Y-37888D02*
X43681Y-37902D01*
X43657Y-37916D01*
X43633Y-37902D01*
X43657Y-37888D01*
X43657Y-37916D01*
X44276Y-37916D02*
X44276Y-37616D01*
X44443Y-37830D01*
X44609Y-37616D01*
X44609Y-37916D01*
X45038Y-37902D02*
X44990Y-37916D01*
X44895Y-37916D01*
X44847Y-37902D01*
X44824Y-37873D01*
X44824Y-37759D01*
X44847Y-37730D01*
X44895Y-37716D01*
X44990Y-37716D01*
X45038Y-37730D01*
X45062Y-37759D01*
X45062Y-37788D01*
X44824Y-37816D01*
X45276Y-37916D02*
X45276Y-37716D01*
X45276Y-37616D02*
X45252Y-37630D01*
X45276Y-37645D01*
X45300Y-37630D01*
X45276Y-37616D01*
X45276Y-37645D01*
X45705Y-37902D02*
X45657Y-37916D01*
X45562Y-37916D01*
X45514Y-37902D01*
X45490Y-37873D01*
X45490Y-37759D01*
X45514Y-37730D01*
X45562Y-37716D01*
X45657Y-37716D01*
X45705Y-37730D01*
X45728Y-37759D01*
X45728Y-37788D01*
X45490Y-37816D01*
X45943Y-37916D02*
X45943Y-37716D01*
X45943Y-37773D02*
X45967Y-37745D01*
X45990Y-37730D01*
X46038Y-37716D01*
X46086Y-37716D01*
X46276Y-37902D02*
X46276Y-37916D01*
X46252Y-37945D01*
X46228Y-37959D01*
X46871Y-37916D02*
X46871Y-37616D01*
X47038Y-37830D01*
X47205Y-37616D01*
X47205Y-37916D01*
X47657Y-37916D02*
X47657Y-37759D01*
X47633Y-37730D01*
X47586Y-37716D01*
X47490Y-37716D01*
X47443Y-37730D01*
X47657Y-37902D02*
X47609Y-37916D01*
X47490Y-37916D01*
X47443Y-37902D01*
X47419Y-37873D01*
X47419Y-37845D01*
X47443Y-37816D01*
X47490Y-37802D01*
X47609Y-37802D01*
X47657Y-37788D01*
X47895Y-37916D02*
X47895Y-37716D01*
X47895Y-37616D02*
X47871Y-37630D01*
X47895Y-37645D01*
X47919Y-37630D01*
X47895Y-37616D01*
X47895Y-37645D01*
X48490Y-37645D02*
X48514Y-37630D01*
X48562Y-37616D01*
X48681Y-37616D01*
X48728Y-37630D01*
X48752Y-37645D01*
X48776Y-37673D01*
X48776Y-37702D01*
X48752Y-37745D01*
X48467Y-37916D01*
X48776Y-37916D01*
X49086Y-37616D02*
X49133Y-37616D01*
X49181Y-37630D01*
X49205Y-37645D01*
X49228Y-37673D01*
X49252Y-37730D01*
X49252Y-37802D01*
X49228Y-37859D01*
X49205Y-37888D01*
X49181Y-37902D01*
X49133Y-37916D01*
X49086Y-37916D01*
X49038Y-37902D01*
X49014Y-37888D01*
X48990Y-37859D01*
X48967Y-37802D01*
X48967Y-37730D01*
X48990Y-37673D01*
X49014Y-37645D01*
X49038Y-37630D01*
X49086Y-37616D01*
X49728Y-37916D02*
X49443Y-37916D01*
X49586Y-37916D02*
X49586Y-37616D01*
X49538Y-37659D01*
X49490Y-37688D01*
X49443Y-37702D01*
X50157Y-37716D02*
X50157Y-37916D01*
X50038Y-37602D02*
X49919Y-37816D01*
X50228Y-37816D01*
X40276Y-37026D02*
X40276Y-37269D01*
X40300Y-37297D01*
X40324Y-37311D01*
X40371Y-37326D01*
X40467Y-37326D01*
X40514Y-37311D01*
X40538Y-37297D01*
X40562Y-37269D01*
X40562Y-37026D01*
X40800Y-37126D02*
X40800Y-37326D01*
X40800Y-37154D02*
X40824Y-37140D01*
X40871Y-37126D01*
X40943Y-37126D01*
X40990Y-37140D01*
X41014Y-37169D01*
X41014Y-37326D01*
X41252Y-37326D02*
X41252Y-37126D01*
X41252Y-37026D02*
X41228Y-37040D01*
X41252Y-37054D01*
X41276Y-37040D01*
X41252Y-37026D01*
X41252Y-37054D01*
X41443Y-37126D02*
X41562Y-37326D01*
X41681Y-37126D01*
X42062Y-37311D02*
X42014Y-37326D01*
X41919Y-37326D01*
X41871Y-37311D01*
X41847Y-37283D01*
X41847Y-37169D01*
X41871Y-37140D01*
X41919Y-37126D01*
X42014Y-37126D01*
X42062Y-37140D01*
X42086Y-37169D01*
X42086Y-37197D01*
X41847Y-37226D01*
X42300Y-37326D02*
X42300Y-37126D01*
X42300Y-37183D02*
X42324Y-37154D01*
X42347Y-37140D01*
X42395Y-37126D01*
X42443Y-37126D01*
X42586Y-37311D02*
X42633Y-37326D01*
X42728Y-37326D01*
X42776Y-37311D01*
X42800Y-37283D01*
X42800Y-37269D01*
X42776Y-37240D01*
X42728Y-37226D01*
X42657Y-37226D01*
X42609Y-37211D01*
X42586Y-37183D01*
X42586Y-37169D01*
X42609Y-37140D01*
X42657Y-37126D01*
X42728Y-37126D01*
X42776Y-37140D01*
X43014Y-37326D02*
X43014Y-37126D01*
X43014Y-37026D02*
X42990Y-37040D01*
X43014Y-37054D01*
X43038Y-37040D01*
X43014Y-37026D01*
X43014Y-37054D01*
X43181Y-37126D02*
X43371Y-37126D01*
X43252Y-37026D02*
X43252Y-37283D01*
X43276Y-37311D01*
X43324Y-37326D01*
X43371Y-37326D01*
X43490Y-37126D02*
X43609Y-37326D01*
X43728Y-37126D02*
X43609Y-37326D01*
X43562Y-37397D01*
X43538Y-37411D01*
X43490Y-37426D01*
X44371Y-37326D02*
X44324Y-37311D01*
X44300Y-37297D01*
X44276Y-37269D01*
X44276Y-37183D01*
X44300Y-37154D01*
X44324Y-37140D01*
X44371Y-37126D01*
X44443Y-37126D01*
X44490Y-37140D01*
X44514Y-37154D01*
X44538Y-37183D01*
X44538Y-37269D01*
X44514Y-37297D01*
X44490Y-37311D01*
X44443Y-37326D01*
X44371Y-37326D01*
X44681Y-37126D02*
X44871Y-37126D01*
X44752Y-37326D02*
X44752Y-37069D01*
X44776Y-37040D01*
X44824Y-37026D01*
X44871Y-37026D01*
X45419Y-37326D02*
X45419Y-37026D01*
X45705Y-37326D01*
X45705Y-37026D01*
X46133Y-37311D02*
X46086Y-37326D01*
X45990Y-37326D01*
X45943Y-37311D01*
X45919Y-37283D01*
X45919Y-37169D01*
X45943Y-37140D01*
X45990Y-37126D01*
X46086Y-37126D01*
X46133Y-37140D01*
X46157Y-37169D01*
X46157Y-37197D01*
X45919Y-37226D01*
X46371Y-37326D02*
X46371Y-37026D01*
X46371Y-37140D02*
X46419Y-37126D01*
X46514Y-37126D01*
X46562Y-37140D01*
X46586Y-37154D01*
X46609Y-37183D01*
X46609Y-37269D01*
X46586Y-37297D01*
X46562Y-37311D01*
X46514Y-37326D01*
X46419Y-37326D01*
X46371Y-37311D01*
X46824Y-37326D02*
X46824Y-37126D01*
X46824Y-37183D02*
X46847Y-37154D01*
X46871Y-37140D01*
X46919Y-37126D01*
X46967Y-37126D01*
X47347Y-37326D02*
X47347Y-37169D01*
X47324Y-37140D01*
X47276Y-37126D01*
X47181Y-37126D01*
X47133Y-37140D01*
X47347Y-37311D02*
X47300Y-37326D01*
X47181Y-37326D01*
X47133Y-37311D01*
X47109Y-37283D01*
X47109Y-37254D01*
X47133Y-37226D01*
X47181Y-37211D01*
X47300Y-37211D01*
X47347Y-37197D01*
X47562Y-37311D02*
X47609Y-37326D01*
X47705Y-37326D01*
X47752Y-37311D01*
X47776Y-37283D01*
X47776Y-37269D01*
X47752Y-37240D01*
X47705Y-37226D01*
X47633Y-37226D01*
X47586Y-37211D01*
X47562Y-37183D01*
X47562Y-37169D01*
X47586Y-37140D01*
X47633Y-37126D01*
X47705Y-37126D01*
X47752Y-37140D01*
X47990Y-37326D02*
X47990Y-37026D01*
X48038Y-37211D02*
X48181Y-37326D01*
X48181Y-37126D02*
X47990Y-37240D01*
X48609Y-37326D02*
X48609Y-37169D01*
X48586Y-37140D01*
X48538Y-37126D01*
X48443Y-37126D01*
X48395Y-37140D01*
X48609Y-37311D02*
X48562Y-37326D01*
X48443Y-37326D01*
X48395Y-37311D01*
X48371Y-37283D01*
X48371Y-37254D01*
X48395Y-37226D01*
X48443Y-37211D01*
X48562Y-37211D01*
X48609Y-37197D01*
X48847Y-37211D02*
X49228Y-37211D01*
X49705Y-37326D02*
X49467Y-37326D01*
X49467Y-37026D01*
X49871Y-37326D02*
X49871Y-37126D01*
X49871Y-37026D02*
X49847Y-37040D01*
X49871Y-37054D01*
X49895Y-37040D01*
X49871Y-37026D01*
X49871Y-37054D01*
X50109Y-37126D02*
X50109Y-37326D01*
X50109Y-37154D02*
X50133Y-37140D01*
X50181Y-37126D01*
X50252Y-37126D01*
X50300Y-37140D01*
X50324Y-37169D01*
X50324Y-37326D01*
X50776Y-37311D02*
X50728Y-37326D01*
X50633Y-37326D01*
X50586Y-37311D01*
X50562Y-37297D01*
X50538Y-37269D01*
X50538Y-37183D01*
X50562Y-37154D01*
X50586Y-37140D01*
X50633Y-37126D01*
X50728Y-37126D01*
X50776Y-37140D01*
X51062Y-37326D02*
X51014Y-37311D01*
X50990Y-37297D01*
X50967Y-37269D01*
X50967Y-37183D01*
X50990Y-37154D01*
X51014Y-37140D01*
X51062Y-37126D01*
X51133Y-37126D01*
X51181Y-37140D01*
X51205Y-37154D01*
X51228Y-37183D01*
X51228Y-37269D01*
X51205Y-37297D01*
X51181Y-37311D01*
X51133Y-37326D01*
X51062Y-37326D01*
X51514Y-37326D02*
X51467Y-37311D01*
X51443Y-37283D01*
X51443Y-37026D01*
X51705Y-37126D02*
X51705Y-37326D01*
X51705Y-37154D02*
X51728Y-37140D01*
X51776Y-37126D01*
X51847Y-37126D01*
X51895Y-37140D01*
X51919Y-37169D01*
X51919Y-37326D01*
G54D13*
X40607Y-36347D02*
X40344Y-36347D01*
X40344Y-36656D02*
X40344Y-36065D01*
X40719Y-36065D01*
X41019Y-36656D02*
X41019Y-36065D01*
X41319Y-36065D01*
X41394Y-36093D01*
X41432Y-36122D01*
X41469Y-36178D01*
X41469Y-36262D01*
X41432Y-36318D01*
X41394Y-36347D01*
X41319Y-36375D01*
X41019Y-36375D01*
X41807Y-36656D02*
X41807Y-36262D01*
X41807Y-36065D02*
X41769Y-36093D01*
X41807Y-36122D01*
X41844Y-36093D01*
X41807Y-36065D01*
X41807Y-36122D01*
X42107Y-36656D02*
X42519Y-36262D01*
X42107Y-36262D02*
X42519Y-36656D01*
X43307Y-36262D02*
X43607Y-36262D01*
X43419Y-36065D02*
X43419Y-36571D01*
X43457Y-36628D01*
X43532Y-36656D01*
X43607Y-36656D01*
X43982Y-36656D02*
X43907Y-36628D01*
X43869Y-36600D01*
X43832Y-36543D01*
X43832Y-36375D01*
X43869Y-36318D01*
X43907Y-36290D01*
X43982Y-36262D01*
X44094Y-36262D01*
X44169Y-36290D01*
X44206Y-36318D01*
X44244Y-36375D01*
X44244Y-36543D01*
X44206Y-36600D01*
X44169Y-36628D01*
X44094Y-36656D01*
X43982Y-36656D01*
X45181Y-36656D02*
X45181Y-36065D01*
X45369Y-36065D01*
X45481Y-36093D01*
X45556Y-36150D01*
X45594Y-36206D01*
X45631Y-36318D01*
X45631Y-36403D01*
X45594Y-36515D01*
X45556Y-36571D01*
X45481Y-36628D01*
X45369Y-36656D01*
X45181Y-36656D01*
X45856Y-36065D02*
X46306Y-36065D01*
X46081Y-36656D02*
X46081Y-36065D01*
X46831Y-36347D02*
X46944Y-36375D01*
X46981Y-36403D01*
X47019Y-36459D01*
X47019Y-36543D01*
X46981Y-36600D01*
X46944Y-36628D01*
X46869Y-36656D01*
X46569Y-36656D01*
X46569Y-36065D01*
X46831Y-36065D01*
X46906Y-36093D01*
X46944Y-36122D01*
X46981Y-36178D01*
X46981Y-36234D01*
X46944Y-36290D01*
X46906Y-36318D01*
X46831Y-36347D01*
X46569Y-36347D01*
X48293Y-36656D02*
X48293Y-36347D01*
X48256Y-36290D01*
X48181Y-36262D01*
X48031Y-36262D01*
X47956Y-36290D01*
X48293Y-36628D02*
X48218Y-36656D01*
X48031Y-36656D01*
X47956Y-36628D01*
X47919Y-36571D01*
X47919Y-36515D01*
X47956Y-36459D01*
X48031Y-36431D01*
X48218Y-36431D01*
X48293Y-36403D01*
X49006Y-36656D02*
X49006Y-36065D01*
X49006Y-36628D02*
X48931Y-36656D01*
X48781Y-36656D01*
X48706Y-36628D01*
X48668Y-36600D01*
X48631Y-36543D01*
X48631Y-36375D01*
X48668Y-36318D01*
X48706Y-36290D01*
X48781Y-36262D01*
X48931Y-36262D01*
X49006Y-36290D01*
X49718Y-36656D02*
X49718Y-36347D01*
X49681Y-36290D01*
X49606Y-36262D01*
X49456Y-36262D01*
X49381Y-36290D01*
X49718Y-36628D02*
X49643Y-36656D01*
X49456Y-36656D01*
X49381Y-36628D01*
X49343Y-36571D01*
X49343Y-36515D01*
X49381Y-36459D01*
X49456Y-36431D01*
X49643Y-36431D01*
X49718Y-36403D01*
X50093Y-36262D02*
X50093Y-36853D01*
X50093Y-36290D02*
X50168Y-36262D01*
X50318Y-36262D01*
X50393Y-36290D01*
X50431Y-36318D01*
X50468Y-36375D01*
X50468Y-36543D01*
X50431Y-36600D01*
X50393Y-36628D01*
X50318Y-36656D01*
X50168Y-36656D01*
X50093Y-36628D01*
X50693Y-36262D02*
X50993Y-36262D01*
X50806Y-36065D02*
X50806Y-36571D01*
X50843Y-36628D01*
X50918Y-36656D01*
X50993Y-36656D01*
X51556Y-36628D02*
X51481Y-36656D01*
X51331Y-36656D01*
X51256Y-36628D01*
X51218Y-36571D01*
X51218Y-36347D01*
X51256Y-36290D01*
X51331Y-36262D01*
X51481Y-36262D01*
X51556Y-36290D01*
X51593Y-36347D01*
X51593Y-36403D01*
X51218Y-36459D01*
X51931Y-36656D02*
X51931Y-36262D01*
X51931Y-36375D02*
X51968Y-36318D01*
X52006Y-36290D01*
X52080Y-36262D01*
X52155Y-36262D01*
G54D14*
X54150Y-35000D02*
X56150Y-35000D01*
X56150Y-35000D02*
X56150Y-36800D01*
X56150Y-36800D02*
X54150Y-36800D01*
X54150Y-36800D02*
X54150Y-35000D01*
X54150Y-35600D02*
X54350Y-35600D01*
X54350Y-35600D02*
X54350Y-36100D01*
X54350Y-36100D02*
X54150Y-36100D01*
G54D10*
X27322Y-32047D02*
X27322Y-31889D01*
X27322Y-32519D02*
X27322Y-32362D01*
X27322Y-32992D02*
X27322Y-32834D01*
X27322Y-33464D02*
X27322Y-33307D01*
X27322Y-33937D02*
X27322Y-33779D01*
X27322Y-34527D02*
X27322Y-34251D01*
X27322Y-28740D02*
X27322Y-28464D01*
X27322Y-29212D02*
X27322Y-29055D01*
X27322Y-29685D02*
X27322Y-29527D01*
X27322Y-34527D02*
X27125Y-34527D01*
X27322Y-28464D02*
X27125Y-28464D01*
X27322Y-30157D02*
X27322Y-30000D01*
X27322Y-30629D02*
X27322Y-30472D01*
X27322Y-31102D02*
X27322Y-30944D01*
X27322Y-31574D02*
X27322Y-31417D01*
X23306Y-29646D02*
G75*
G03X23268Y-31339I827J-865D01*
G74*
G01*
X23307Y-33385D02*
G75*
G03X23307Y-31338I-1023J1023D01*
G74*
G01*
X25925Y-29118D02*
X24940Y-29118D01*
X24940Y-29122D02*
X24940Y-29413D01*
X24673Y-29413D02*
X24944Y-29413D01*
X24645Y-29425D02*
X24070Y-29618D01*
X24066Y-29618D02*
X23342Y-29618D01*
X24645Y-33566D02*
X24070Y-33374D01*
X24070Y-33374D02*
X23346Y-33374D01*
X24944Y-33870D02*
X24944Y-33578D01*
X24673Y-33578D02*
X24944Y-33578D01*
X24940Y-33874D02*
X25925Y-33874D01*
X25933Y-33874D02*
X25933Y-29122D01*
X26791Y-34507D02*
X26791Y-28464D01*
X26791Y-28464D02*
X24389Y-28464D01*
X24389Y-28464D02*
X24389Y-34507D01*
X24389Y-34507D02*
X26791Y-34507D01*
G54D14*
X37750Y-35600D02*
X37750Y-34700D01*
X37750Y-34700D02*
X38250Y-34700D01*
X38250Y-34700D02*
X38250Y-35600D01*
X38250Y-35600D02*
X37750Y-35600D01*
X38520Y-34423D02*
X37620Y-34423D01*
X37620Y-34423D02*
X37620Y-33923D01*
X37620Y-33923D02*
X38520Y-33923D01*
X38520Y-33923D02*
X38520Y-34423D01*
X53810Y-33940D02*
X52910Y-33940D01*
X52910Y-33940D02*
X52910Y-33440D01*
X52910Y-33440D02*
X53810Y-33440D01*
X53810Y-33440D02*
X53810Y-33940D01*
X53810Y-34740D02*
X52910Y-34740D01*
X52910Y-34740D02*
X52910Y-34240D01*
X52910Y-34240D02*
X53810Y-34240D01*
X53810Y-34240D02*
X53810Y-34740D01*
X36361Y-33923D02*
X37261Y-33923D01*
X37261Y-33923D02*
X37261Y-34423D01*
X37261Y-34423D02*
X36361Y-34423D01*
X36361Y-34423D02*
X36361Y-33923D01*
X39290Y-35600D02*
X39290Y-34700D01*
X39290Y-34700D02*
X39790Y-34700D01*
X39790Y-34700D02*
X39790Y-35600D01*
X39790Y-35600D02*
X39290Y-35600D01*
X37120Y-35930D02*
X37120Y-36830D01*
X37120Y-36830D02*
X36620Y-36830D01*
X36620Y-36830D02*
X36620Y-35930D01*
X36620Y-35930D02*
X37120Y-35930D01*
X39780Y-35930D02*
X39780Y-36830D01*
X39780Y-36830D02*
X39280Y-36830D01*
X39280Y-36830D02*
X39280Y-35930D01*
X39280Y-35930D02*
X39780Y-35930D01*
X36620Y-35610D02*
X36620Y-34710D01*
X36620Y-34710D02*
X37120Y-34710D01*
X37120Y-34710D02*
X37120Y-35610D01*
X37120Y-35610D02*
X36620Y-35610D01*
X23950Y-37040D02*
X24850Y-37040D01*
X24850Y-37040D02*
X24850Y-37540D01*
X24850Y-37540D02*
X23950Y-37540D01*
X23950Y-37540D02*
X23950Y-37040D01*
G54D15*
X33850Y-37825D02*
X33850Y-37625D01*
X33850Y-37625D02*
X33550Y-37625D01*
X33550Y-37625D02*
X33550Y-37825D01*
X33850Y-38025D02*
X33850Y-38225D01*
X33850Y-38225D02*
X33550Y-38225D01*
X33550Y-38225D02*
X33550Y-38025D01*
X33850Y-25125D02*
X33850Y-24925D01*
X33850Y-24925D02*
X33550Y-24925D01*
X33550Y-24925D02*
X33550Y-25125D01*
X33850Y-25325D02*
X33850Y-25525D01*
X33850Y-25525D02*
X33550Y-25525D01*
X33550Y-25525D02*
X33550Y-25325D01*
X33800Y-26900D02*
X33800Y-26700D01*
X33800Y-26700D02*
X33500Y-26700D01*
X33500Y-26700D02*
X33500Y-26900D01*
X33800Y-27100D02*
X33800Y-27300D01*
X33800Y-27300D02*
X33500Y-27300D01*
X33500Y-27300D02*
X33500Y-27100D01*
X33800Y-33500D02*
X33800Y-33300D01*
X33800Y-33300D02*
X33500Y-33300D01*
X33500Y-33300D02*
X33500Y-33500D01*
X33800Y-33700D02*
X33800Y-33900D01*
X33800Y-33900D02*
X33500Y-33900D01*
X33500Y-33900D02*
X33500Y-33700D01*
X33850Y-35600D02*
X33850Y-35400D01*
X33850Y-35400D02*
X33550Y-35400D01*
X33550Y-35400D02*
X33550Y-35600D01*
X33850Y-35800D02*
X33850Y-36000D01*
X33850Y-36000D02*
X33550Y-36000D01*
X33550Y-36000D02*
X33550Y-35800D01*
X33200Y-25125D02*
X33400Y-25125D01*
X33400Y-25125D02*
X33400Y-24825D01*
X33400Y-24825D02*
X33200Y-24825D01*
X33000Y-25125D02*
X32800Y-25125D01*
X32800Y-25125D02*
X32800Y-24825D01*
X32800Y-24825D02*
X33000Y-24825D01*
X32650Y-33500D02*
X32650Y-33300D01*
X32650Y-33300D02*
X32350Y-33300D01*
X32350Y-33300D02*
X32350Y-33500D01*
X32650Y-33700D02*
X32650Y-33900D01*
X32650Y-33900D02*
X32350Y-33900D01*
X32350Y-33900D02*
X32350Y-33700D01*
X33200Y-25625D02*
X33400Y-25625D01*
X33400Y-25625D02*
X33400Y-25325D01*
X33400Y-25325D02*
X33200Y-25325D01*
X33000Y-25625D02*
X32800Y-25625D01*
X32800Y-25625D02*
X32800Y-25325D01*
X32800Y-25325D02*
X33000Y-25325D01*
X32650Y-25125D02*
X32650Y-24925D01*
X32650Y-24925D02*
X32350Y-24925D01*
X32350Y-24925D02*
X32350Y-25125D01*
X32650Y-25325D02*
X32650Y-25525D01*
X32650Y-25525D02*
X32350Y-25525D01*
X32350Y-25525D02*
X32350Y-25325D01*
X33175Y-26900D02*
X33375Y-26900D01*
X33375Y-26900D02*
X33375Y-26600D01*
X33375Y-26600D02*
X33175Y-26600D01*
X32975Y-26900D02*
X32775Y-26900D01*
X32775Y-26900D02*
X32775Y-26600D01*
X32775Y-26600D02*
X32975Y-26600D01*
X32650Y-26900D02*
X32650Y-26700D01*
X32650Y-26700D02*
X32350Y-26700D01*
X32350Y-26700D02*
X32350Y-26900D01*
X32650Y-27100D02*
X32650Y-27300D01*
X32650Y-27300D02*
X32350Y-27300D01*
X32350Y-27300D02*
X32350Y-27100D01*
X33175Y-27400D02*
X33375Y-27400D01*
X33375Y-27400D02*
X33375Y-27100D01*
X33375Y-27100D02*
X33175Y-27100D01*
X32975Y-27400D02*
X32775Y-27400D01*
X32775Y-27400D02*
X32775Y-27100D01*
X32775Y-27100D02*
X32975Y-27100D01*
X33175Y-33500D02*
X33375Y-33500D01*
X33375Y-33500D02*
X33375Y-33200D01*
X33375Y-33200D02*
X33175Y-33200D01*
X32975Y-33500D02*
X32775Y-33500D01*
X32775Y-33500D02*
X32775Y-33200D01*
X32775Y-33200D02*
X32975Y-33200D01*
X33175Y-34000D02*
X33375Y-34000D01*
X33375Y-34000D02*
X33375Y-33700D01*
X33375Y-33700D02*
X33175Y-33700D01*
X32975Y-34000D02*
X32775Y-34000D01*
X32775Y-34000D02*
X32775Y-33700D01*
X32775Y-33700D02*
X32975Y-33700D01*
X33200Y-35600D02*
X33400Y-35600D01*
X33400Y-35600D02*
X33400Y-35300D01*
X33400Y-35300D02*
X33200Y-35300D01*
X33000Y-35600D02*
X32800Y-35600D01*
X32800Y-35600D02*
X32800Y-35300D01*
X32800Y-35300D02*
X33000Y-35300D01*
X32650Y-35600D02*
X32650Y-35400D01*
X32650Y-35400D02*
X32350Y-35400D01*
X32350Y-35400D02*
X32350Y-35600D01*
X32650Y-35800D02*
X32650Y-36000D01*
X32650Y-36000D02*
X32350Y-36000D01*
X32350Y-36000D02*
X32350Y-35800D01*
X33200Y-36100D02*
X33400Y-36100D01*
X33400Y-36100D02*
X33400Y-35800D01*
X33400Y-35800D02*
X33200Y-35800D01*
X33000Y-36100D02*
X32800Y-36100D01*
X32800Y-36100D02*
X32800Y-35800D01*
X32800Y-35800D02*
X33000Y-35800D01*
X33200Y-37825D02*
X33400Y-37825D01*
X33400Y-37825D02*
X33400Y-37525D01*
X33400Y-37525D02*
X33200Y-37525D01*
X33000Y-37825D02*
X32800Y-37825D01*
X32800Y-37825D02*
X32800Y-37525D01*
X32800Y-37525D02*
X33000Y-37525D01*
X32350Y-38025D02*
X32350Y-38225D01*
X32350Y-38225D02*
X32650Y-38225D01*
X32650Y-38225D02*
X32650Y-38025D01*
X32350Y-37825D02*
X32350Y-37625D01*
X32350Y-37625D02*
X32650Y-37625D01*
X32650Y-37625D02*
X32650Y-37825D01*
X33200Y-38325D02*
X33400Y-38325D01*
X33400Y-38325D02*
X33400Y-38025D01*
X33400Y-38025D02*
X33200Y-38025D01*
X33000Y-38325D02*
X32800Y-38325D01*
X32800Y-38325D02*
X32800Y-38025D01*
X32800Y-38025D02*
X33000Y-38025D01*
G54D10*
X55105Y-30125D02*
G75*
G03X55105Y-30125I-430J0D01*
G74*
G01*
X32305Y-30125D02*
G75*
G03X32305Y-30125I-430J0D01*
G74*
G01*
X34185Y-29040D02*
X34525Y-31210D01*
X52355Y-29030D02*
X52015Y-31210D01*
X34525Y-31215D02*
X52025Y-31215D01*
X34195Y-29035D02*
X52355Y-29035D01*
X33650Y-28750D02*
X32700Y-28750D01*
X32700Y-28750D02*
X32700Y-29450D01*
X32700Y-29450D02*
X33100Y-29450D01*
X33100Y-31500D02*
X33100Y-28750D01*
X33650Y-28750D02*
X33650Y-31500D01*
X33650Y-31500D02*
X32700Y-31500D01*
X32700Y-31500D02*
X32700Y-30800D01*
X33100Y-30800D02*
X32700Y-30800D01*
X52900Y-28750D02*
X53850Y-28750D01*
X52900Y-31500D02*
X53850Y-31500D01*
X52905Y-28740D02*
X52905Y-31490D01*
X53450Y-28750D02*
X53450Y-31490D01*
X53850Y-28750D02*
X53850Y-29450D01*
X53850Y-31500D02*
X53850Y-30800D01*
X53845Y-29440D02*
X53455Y-29450D01*
X53845Y-30800D02*
X53465Y-30800D01*
X53845Y-30800D02*
X53465Y-30800D01*
X53845Y-29440D02*
X53455Y-29450D01*
X53850Y-31500D02*
X53850Y-30800D01*
X53850Y-28750D02*
X53850Y-29450D01*
X53450Y-28750D02*
X53450Y-31490D01*
X52905Y-28740D02*
X52905Y-31490D01*
X52900Y-31500D02*
X53850Y-31500D01*
X52900Y-28750D02*
X53850Y-28750D01*
X55850Y-28095D02*
X55850Y-32155D01*
X30700Y-32155D02*
X30700Y-28095D01*
X30700Y-28095D02*
X55850Y-28095D01*
X30700Y-32155D02*
X55850Y-32155D01*
G54D11*
X43950Y-32530D02*
X44950Y-32530D01*
X44950Y-32530D02*
X44950Y-34530D01*
X44950Y-34530D02*
X43950Y-34530D01*
X43950Y-34530D02*
X43950Y-32530D01*
G54D16*
X26317Y-37113D02*
X26317Y-37467D01*
X26317Y-37467D02*
X26474Y-37467D01*
X26474Y-37113D02*
X26474Y-37467D01*
X26317Y-37113D02*
X26474Y-37113D01*
X25806Y-37113D02*
X25806Y-37467D01*
X25806Y-37467D02*
X25963Y-37467D01*
X25963Y-37113D02*
X25963Y-37467D01*
X25806Y-37113D02*
X25963Y-37113D01*
X26140Y-37113D02*
X26140Y-37172D01*
X26140Y-37172D02*
X26258Y-37172D01*
X26258Y-37113D02*
X26258Y-37172D01*
X26140Y-37113D02*
X26258Y-37113D01*
X26140Y-37408D02*
X26140Y-37467D01*
X26140Y-37467D02*
X26258Y-37467D01*
X26258Y-37408D02*
X26258Y-37467D01*
X26140Y-37408D02*
X26258Y-37408D01*
X26140Y-37231D02*
X26140Y-37349D01*
X26140Y-37349D02*
X26258Y-37349D01*
X26258Y-37231D02*
X26258Y-37349D01*
X26140Y-37231D02*
X26258Y-37231D01*
G54D17*
X26317Y-37133D02*
X25963Y-37133D01*
X26317Y-37447D02*
X25963Y-37447D01*
G54D10*
X58330Y-25196D02*
G75*
G03X58330Y-25196I-850J0D01*
G74*
G01*
X58330Y-37795D02*
G75*
G03X58330Y-37795I-850J0D01*
G74*
G01*
X22109Y-37795D02*
G75*
G03X22109Y-37795I-850J0D01*
G74*
G01*
X22109Y-25196D02*
G75*
G03X22109Y-25196I-850J0D01*
G74*
G01*
G54D18*
G36*
X48547Y-35555D02*
X48489Y-35555D01*
X48489Y-33754D01*
X48489Y-33499D01*
X48487Y-33296D01*
X48477Y-32621D01*
X47370Y-32623D01*
X46263Y-32624D01*
X46497Y-32702D01*
X46641Y-32752D01*
X46785Y-32807D01*
X46888Y-32849D01*
X46977Y-32884D01*
X47034Y-32900D01*
X47047Y-32897D01*
X47066Y-32902D01*
X47112Y-32946D01*
X47114Y-32948D01*
X47178Y-33007D01*
X47225Y-33013D01*
X47279Y-32966D01*
X47289Y-32955D01*
X47357Y-32909D01*
X47448Y-32888D01*
X47535Y-32893D01*
X47594Y-32925D01*
X47602Y-32939D01*
X47607Y-33000D01*
X47568Y-33017D01*
X47510Y-32994D01*
X47435Y-32968D01*
X47390Y-33000D01*
X47380Y-33056D01*
X47412Y-33119D01*
X47497Y-33169D01*
X47579Y-33216D01*
X47629Y-33269D01*
X47633Y-33278D01*
X47681Y-33392D01*
X47734Y-33445D01*
X47736Y-33446D01*
X47774Y-33429D01*
X47844Y-33373D01*
X47935Y-33290D01*
X47976Y-33250D01*
X48089Y-33143D01*
X48165Y-33085D01*
X48209Y-33073D01*
X48217Y-33078D01*
X48218Y-33115D01*
X48175Y-33182D01*
X48084Y-33285D01*
X48049Y-33321D01*
X47958Y-33416D01*
X47888Y-33492D01*
X47850Y-33538D01*
X47847Y-33545D01*
X47865Y-33579D01*
X47912Y-33650D01*
X47967Y-33727D01*
X48035Y-33816D01*
X48079Y-33858D01*
X48112Y-33862D01*
X48145Y-33839D01*
X48207Y-33799D01*
X48260Y-33789D01*
X48280Y-33811D01*
X48259Y-33849D01*
X48214Y-33904D01*
X48148Y-33974D01*
X48263Y-34239D01*
X48323Y-34386D01*
X48377Y-34533D01*
X48416Y-34654D01*
X48420Y-34671D01*
X48438Y-34737D01*
X48450Y-34770D01*
X48459Y-34764D01*
X48466Y-34713D01*
X48472Y-34610D01*
X48478Y-34447D01*
X48480Y-34405D01*
X48485Y-34227D01*
X48488Y-34003D01*
X48489Y-33754D01*
X48489Y-35555D01*
X48488Y-35555D01*
X48488Y-35488D01*
X48464Y-35270D01*
X48439Y-35105D01*
X48400Y-34919D01*
X48349Y-34725D01*
X48292Y-34535D01*
X48231Y-34361D01*
X48173Y-34218D01*
X48119Y-34116D01*
X48080Y-34071D01*
X48038Y-34078D01*
X47999Y-34097D01*
X47999Y-33964D01*
X47991Y-33920D01*
X47947Y-33844D01*
X47912Y-33790D01*
X47846Y-33701D01*
X47793Y-33640D01*
X47767Y-33621D01*
X47729Y-33641D01*
X47670Y-33681D01*
X47670Y-33509D01*
X47667Y-33493D01*
X47633Y-33477D01*
X47572Y-33508D01*
X47556Y-33521D01*
X47460Y-33573D01*
X47365Y-33586D01*
X47289Y-33563D01*
X47249Y-33506D01*
X47247Y-33484D01*
X47254Y-33432D01*
X47285Y-33428D01*
X47343Y-33460D01*
X47422Y-33483D01*
X47486Y-33457D01*
X47513Y-33391D01*
X47513Y-33390D01*
X47480Y-33322D01*
X47380Y-33255D01*
X47300Y-33208D01*
X47252Y-33169D01*
X47247Y-33157D01*
X47220Y-33122D01*
X47192Y-33107D01*
X47164Y-33103D01*
X47150Y-33126D01*
X47148Y-33189D01*
X47157Y-33305D01*
X47159Y-33320D01*
X47168Y-33443D01*
X47168Y-33513D01*
X47154Y-33546D01*
X47126Y-33554D01*
X47119Y-33555D01*
X47081Y-33541D01*
X47053Y-33491D01*
X47030Y-33390D01*
X47026Y-33363D01*
X46994Y-33171D01*
X46897Y-33363D01*
X46843Y-33461D01*
X46798Y-33530D01*
X46773Y-33555D01*
X46745Y-33527D01*
X46700Y-33455D01*
X46655Y-33369D01*
X46604Y-33270D01*
X46574Y-33225D01*
X46555Y-33226D01*
X46542Y-33260D01*
X46525Y-33351D01*
X46516Y-33446D01*
X46499Y-33519D01*
X46465Y-33556D01*
X46431Y-33550D01*
X46413Y-33494D01*
X46413Y-33486D01*
X46419Y-33399D01*
X46433Y-33283D01*
X46454Y-33156D01*
X46476Y-33038D01*
X46498Y-32949D01*
X46514Y-32909D01*
X46542Y-32919D01*
X46587Y-32977D01*
X46625Y-33042D01*
X46681Y-33147D01*
X46733Y-33234D01*
X46755Y-33267D01*
X46785Y-33299D01*
X46811Y-33296D01*
X46847Y-33248D01*
X46891Y-33172D01*
X46940Y-33081D01*
X46972Y-33017D01*
X46980Y-32998D01*
X46952Y-32978D01*
X46878Y-32940D01*
X46775Y-32891D01*
X46767Y-32887D01*
X46521Y-32792D01*
X46241Y-32711D01*
X45963Y-32652D01*
X45825Y-32634D01*
X45613Y-32612D01*
X45613Y-33182D01*
X45613Y-33751D01*
X45738Y-33772D01*
X45998Y-33821D01*
X46209Y-33879D01*
X46390Y-33952D01*
X46558Y-34047D01*
X46613Y-34084D01*
X46703Y-34141D01*
X46772Y-34178D01*
X46797Y-34187D01*
X46836Y-34168D01*
X46916Y-34118D01*
X47024Y-34045D01*
X47118Y-33979D01*
X47324Y-33827D01*
X47479Y-33708D01*
X47585Y-33618D01*
X47647Y-33553D01*
X47670Y-33509D01*
X47670Y-33681D01*
X47654Y-33693D01*
X47555Y-33768D01*
X47517Y-33798D01*
X47384Y-33903D01*
X47242Y-34010D01*
X47120Y-34099D01*
X47113Y-34104D01*
X47016Y-34173D01*
X46939Y-34228D01*
X46902Y-34257D01*
X46901Y-34294D01*
X46926Y-34358D01*
X46962Y-34420D01*
X46995Y-34454D01*
X46999Y-34455D01*
X47034Y-34444D01*
X47116Y-34415D01*
X47230Y-34375D01*
X47279Y-34357D01*
X47518Y-34257D01*
X47763Y-34125D01*
X47978Y-33991D01*
X47999Y-33964D01*
X47999Y-34097D01*
X47964Y-34115D01*
X47924Y-34140D01*
X47743Y-34250D01*
X47529Y-34359D01*
X47312Y-34452D01*
X47255Y-34473D01*
X47159Y-34511D01*
X47095Y-34544D01*
X47080Y-34560D01*
X47093Y-34604D01*
X47126Y-34682D01*
X47137Y-34706D01*
X47181Y-34784D01*
X47225Y-34814D01*
X47294Y-34811D01*
X47303Y-34810D01*
X47496Y-34755D01*
X47695Y-34658D01*
X47873Y-34534D01*
X47962Y-34449D01*
X48051Y-34352D01*
X48107Y-34303D01*
X48136Y-34296D01*
X48146Y-34329D01*
X48147Y-34349D01*
X48117Y-34434D01*
X48035Y-34532D01*
X47913Y-34634D01*
X47761Y-34732D01*
X47592Y-34817D01*
X47438Y-34874D01*
X47246Y-34934D01*
X47267Y-35052D01*
X47288Y-35151D01*
X47316Y-35201D01*
X47366Y-35219D01*
X47433Y-35221D01*
X47603Y-35189D01*
X47758Y-35092D01*
X47811Y-35041D01*
X47872Y-34983D01*
X47915Y-34955D01*
X47919Y-34955D01*
X47947Y-34975D01*
X47932Y-35029D01*
X47878Y-35104D01*
X47838Y-35146D01*
X47678Y-35264D01*
X47508Y-35317D01*
X47444Y-35321D01*
X47374Y-35331D01*
X47349Y-35370D01*
X47347Y-35405D01*
X47347Y-35488D01*
X47917Y-35488D01*
X48488Y-35488D01*
X48488Y-35555D01*
X47247Y-35555D01*
X47247Y-35408D01*
X47223Y-35337D01*
X47210Y-35330D01*
X47210Y-35186D01*
X47205Y-35140D01*
X47201Y-35117D01*
X47186Y-35035D01*
X47180Y-34984D01*
X47149Y-34970D01*
X47113Y-34965D01*
X47113Y-34837D01*
X47100Y-34800D01*
X47067Y-34730D01*
X47028Y-34651D01*
X46992Y-34585D01*
X46971Y-34555D01*
X46931Y-34565D01*
X46879Y-34581D01*
X46879Y-34458D01*
X46860Y-34419D01*
X46830Y-34375D01*
X46803Y-34345D01*
X46772Y-34338D01*
X46722Y-34356D01*
X46678Y-34382D01*
X46678Y-34246D01*
X46678Y-34245D01*
X46652Y-34210D01*
X46579Y-34157D01*
X46476Y-34094D01*
X46357Y-34030D01*
X46237Y-33974D01*
X46186Y-33953D01*
X46043Y-33910D01*
X45883Y-33876D01*
X45810Y-33866D01*
X45613Y-33845D01*
X45613Y-34095D01*
X45613Y-34345D01*
X45772Y-34364D01*
X45905Y-34391D01*
X46045Y-34435D01*
X46080Y-34450D01*
X46172Y-34489D01*
X46237Y-34514D01*
X46253Y-34519D01*
X46291Y-34504D01*
X46369Y-34461D01*
X46470Y-34400D01*
X46477Y-34396D01*
X46576Y-34331D01*
X46648Y-34278D01*
X46678Y-34246D01*
X46678Y-34382D01*
X46640Y-34405D01*
X46565Y-34453D01*
X46465Y-34524D01*
X46394Y-34584D01*
X46366Y-34622D01*
X46367Y-34627D01*
X46409Y-34643D01*
X46442Y-34636D01*
X46502Y-34613D01*
X46601Y-34577D01*
X46688Y-34546D01*
X46789Y-34507D01*
X46858Y-34475D01*
X46879Y-34458D01*
X46879Y-34581D01*
X46850Y-34590D01*
X46750Y-34622D01*
X46652Y-34655D01*
X46578Y-34681D01*
X46570Y-34684D01*
X46508Y-34716D01*
X46498Y-34755D01*
X46513Y-34788D01*
X46538Y-34821D01*
X46580Y-34841D01*
X46654Y-34851D01*
X46774Y-34854D01*
X46831Y-34855D01*
X46959Y-34853D01*
X47056Y-34847D01*
X47108Y-34840D01*
X47113Y-34837D01*
X47113Y-34965D01*
X47068Y-34960D01*
X46951Y-34955D01*
X46913Y-34955D01*
X46768Y-34958D01*
X46682Y-34969D01*
X46648Y-34990D01*
X46647Y-34996D01*
X46664Y-35060D01*
X46719Y-35108D01*
X46823Y-35147D01*
X46916Y-35169D01*
X47059Y-35200D01*
X47148Y-35214D01*
X47195Y-35210D01*
X47210Y-35186D01*
X47210Y-35330D01*
X47172Y-35311D01*
X47089Y-35294D01*
X46983Y-35277D01*
X46876Y-35262D01*
X46790Y-35252D01*
X46747Y-35251D01*
X46739Y-35284D01*
X46742Y-35352D01*
X46754Y-35423D01*
X46768Y-35463D01*
X46807Y-35475D01*
X46894Y-35484D01*
X47010Y-35488D01*
X47015Y-35488D01*
X47136Y-35486D01*
X47206Y-35479D01*
X47237Y-35461D01*
X47246Y-35426D01*
X47247Y-35408D01*
X47247Y-35555D01*
X47063Y-35555D01*
X46689Y-35555D01*
X46689Y-35488D01*
X46669Y-35367D01*
X46652Y-35283D01*
X46635Y-35233D01*
X46633Y-35230D01*
X46593Y-35217D01*
X46579Y-35214D01*
X46579Y-35076D01*
X46554Y-34997D01*
X46486Y-34967D01*
X46447Y-34971D01*
X46447Y-34834D01*
X46428Y-34794D01*
X46369Y-34800D01*
X46313Y-34828D01*
X46313Y-34680D01*
X46295Y-34655D01*
X46243Y-34681D01*
X46192Y-34728D01*
X46192Y-34589D01*
X46043Y-34523D01*
X45918Y-34477D01*
X45788Y-34442D01*
X45753Y-34435D01*
X45613Y-34413D01*
X45613Y-34584D01*
X45615Y-34684D01*
X45628Y-34735D01*
X45661Y-34753D01*
X45705Y-34755D01*
X45792Y-34767D01*
X45847Y-34788D01*
X45906Y-34815D01*
X45961Y-34806D01*
X46030Y-34754D01*
X46079Y-34705D01*
X46192Y-34589D01*
X46192Y-34728D01*
X46162Y-34757D01*
X46161Y-34759D01*
X46063Y-34863D01*
X46188Y-34784D01*
X46263Y-34731D01*
X46308Y-34689D01*
X46313Y-34680D01*
X46313Y-34828D01*
X46266Y-34853D01*
X46259Y-34857D01*
X46181Y-34910D01*
X46149Y-34944D01*
X46165Y-34951D01*
X46205Y-34939D01*
X46282Y-34915D01*
X46355Y-34898D01*
X46421Y-34870D01*
X46447Y-34834D01*
X46447Y-34971D01*
X46427Y-34974D01*
X46312Y-35009D01*
X46242Y-35048D01*
X46228Y-35084D01*
X46228Y-35086D01*
X46270Y-35104D01*
X46348Y-35113D01*
X46441Y-35112D01*
X46524Y-35103D01*
X46574Y-35085D01*
X46579Y-35076D01*
X46579Y-35214D01*
X46510Y-35202D01*
X46460Y-35196D01*
X46303Y-35178D01*
X46325Y-35287D01*
X46340Y-35377D01*
X46346Y-35441D01*
X46347Y-35442D01*
X46369Y-35471D01*
X46443Y-35486D01*
X46518Y-35488D01*
X46689Y-35488D01*
X46689Y-35555D01*
X46255Y-35555D01*
X46255Y-35488D01*
X46233Y-35381D01*
X46206Y-35284D01*
X46164Y-35242D01*
X46107Y-35243D01*
X46107Y-35142D01*
X46102Y-35132D01*
X46062Y-35128D01*
X46058Y-35132D01*
X46062Y-35152D01*
X46080Y-35155D01*
X46107Y-35142D01*
X46107Y-35243D01*
X46088Y-35244D01*
X46038Y-35256D01*
X45943Y-35288D01*
X45902Y-35323D01*
X45904Y-35377D01*
X45916Y-35413D01*
X45945Y-35460D01*
X45998Y-35482D01*
X46096Y-35488D01*
X46100Y-35488D01*
X46255Y-35488D01*
X46255Y-35555D01*
X45847Y-35555D01*
X45847Y-35438D01*
X45846Y-35436D01*
X45846Y-34933D01*
X45817Y-34898D01*
X45747Y-34868D01*
X45658Y-34855D01*
X45655Y-34855D01*
X45631Y-34884D01*
X45617Y-34954D01*
X45612Y-35041D01*
X45619Y-35121D01*
X45637Y-35168D01*
X45669Y-35159D01*
X45722Y-35113D01*
X45780Y-35048D01*
X45827Y-34982D01*
X45846Y-34933D01*
X45846Y-35436D01*
X45820Y-35394D01*
X45797Y-35388D01*
X45751Y-35408D01*
X45759Y-35454D01*
X45769Y-35466D01*
X45818Y-35487D01*
X45845Y-35452D01*
X45847Y-35438D01*
X45847Y-35555D01*
X45647Y-35555D01*
X45647Y-35271D01*
X45630Y-35255D01*
X45613Y-35271D01*
X45630Y-35288D01*
X45647Y-35271D01*
X45647Y-35555D01*
X45580Y-35555D01*
X45580Y-34071D01*
X45580Y-32588D01*
X47063Y-32588D01*
X48547Y-32588D01*
X48547Y-34071D01*
X48547Y-35555D01*
X48547Y-35555D01*
X48547Y-35555D01*
G37*
G36*
X46344Y-33488D02*
X46330Y-33521D01*
X46282Y-33553D01*
X46162Y-33584D01*
X46025Y-33570D01*
X45939Y-33536D01*
X45844Y-33462D01*
X45794Y-33361D01*
X45780Y-33221D01*
X45794Y-33109D01*
X45845Y-33020D01*
X45879Y-32983D01*
X45946Y-32924D01*
X46011Y-32897D01*
X46102Y-32892D01*
X46154Y-32894D01*
X46261Y-32905D01*
X46318Y-32927D01*
X46341Y-32964D01*
X46341Y-32968D01*
X46339Y-33012D01*
X46297Y-33007D01*
X46292Y-33005D01*
X46174Y-32967D01*
X46088Y-32971D01*
X46012Y-33019D01*
X45998Y-33033D01*
X45930Y-33141D01*
X45913Y-33264D01*
X45948Y-33379D01*
X45984Y-33425D01*
X46043Y-33470D01*
X46115Y-33483D01*
X46200Y-33476D01*
X46299Y-33471D01*
X46344Y-33488D01*
X46344Y-33488D01*
X46344Y-33488D01*
G37*
G36*
X52290Y-35555D02*
X51925Y-35554D01*
X51925Y-35488D01*
X51916Y-35196D01*
X51906Y-34905D01*
X51748Y-34894D01*
X51590Y-34884D01*
X51590Y-34036D01*
X51590Y-33188D01*
X51756Y-33188D01*
X51923Y-33188D01*
X51923Y-32905D01*
X51923Y-32621D01*
X51290Y-32621D01*
X50656Y-32621D01*
X50656Y-32905D01*
X50656Y-33188D01*
X50823Y-33188D01*
X50990Y-33188D01*
X50990Y-33659D01*
X50990Y-34130D01*
X50390Y-33376D01*
X49791Y-32621D01*
X49373Y-32621D01*
X48956Y-32621D01*
X48956Y-32905D01*
X48956Y-33188D01*
X49123Y-33188D01*
X49290Y-33188D01*
X49290Y-34055D01*
X49290Y-34921D01*
X49123Y-34921D01*
X48956Y-34921D01*
X48956Y-35205D01*
X48956Y-35488D01*
X49590Y-35488D01*
X50223Y-35488D01*
X50223Y-35205D01*
X50223Y-34921D01*
X50072Y-34921D01*
X49966Y-34912D01*
X49909Y-34885D01*
X49904Y-34878D01*
X49898Y-34829D01*
X49895Y-34729D01*
X49894Y-34589D01*
X49896Y-34426D01*
X49897Y-34405D01*
X49906Y-33976D01*
X50504Y-34732D01*
X51102Y-35488D01*
X51514Y-35488D01*
X51925Y-35488D01*
X51925Y-35554D01*
X51631Y-35554D01*
X50973Y-35553D01*
X50756Y-35268D01*
X50644Y-35121D01*
X50524Y-34965D01*
X50402Y-34809D01*
X50287Y-34662D01*
X50186Y-34535D01*
X50108Y-34438D01*
X50061Y-34381D01*
X50054Y-34373D01*
X50037Y-34385D01*
X50027Y-34457D01*
X50023Y-34581D01*
X50023Y-34821D01*
X50190Y-34821D01*
X50356Y-34821D01*
X50356Y-35188D01*
X50356Y-35555D01*
X49623Y-35555D01*
X48890Y-35555D01*
X48890Y-35188D01*
X48890Y-34821D01*
X49040Y-34821D01*
X49190Y-34821D01*
X49190Y-34055D01*
X49190Y-33288D01*
X49040Y-33288D01*
X48890Y-33288D01*
X48890Y-32921D01*
X48890Y-32555D01*
X49400Y-32555D01*
X49911Y-32555D01*
X50292Y-33037D01*
X50420Y-33200D01*
X50541Y-33354D01*
X50645Y-33487D01*
X50724Y-33589D01*
X50764Y-33642D01*
X50856Y-33765D01*
X50856Y-33527D01*
X50856Y-33288D01*
X50690Y-33288D01*
X50523Y-33288D01*
X50523Y-32921D01*
X50523Y-32555D01*
X51290Y-32555D01*
X52056Y-32555D01*
X52056Y-32921D01*
X52056Y-33288D01*
X51890Y-33288D01*
X51723Y-33288D01*
X51723Y-34055D01*
X51723Y-34821D01*
X51890Y-34821D01*
X52056Y-34821D01*
X52056Y-35081D01*
X52056Y-35341D01*
X52173Y-35327D01*
X52250Y-35323D01*
X52282Y-35344D01*
X52289Y-35411D01*
X52290Y-35434D01*
X52290Y-35555D01*
X52290Y-35555D01*
X52290Y-35555D01*
G37*
G36*
X51690Y-32905D02*
X51660Y-32944D01*
X51592Y-32955D01*
X51536Y-32956D01*
X51492Y-32965D01*
X51457Y-32988D01*
X51431Y-33031D01*
X51413Y-33103D01*
X51401Y-33209D01*
X51394Y-33357D01*
X51391Y-33553D01*
X51390Y-33803D01*
X51390Y-34021D01*
X51390Y-34983D01*
X51476Y-35051D01*
X51556Y-35105D01*
X51626Y-35139D01*
X51686Y-35167D01*
X51684Y-35191D01*
X51624Y-35209D01*
X51511Y-35219D01*
X51412Y-35221D01*
X51135Y-35221D01*
X50421Y-34318D01*
X49706Y-33414D01*
X49697Y-34223D01*
X49695Y-34496D01*
X49695Y-34710D01*
X49700Y-34872D01*
X49711Y-34989D01*
X49730Y-35068D01*
X49758Y-35117D01*
X49796Y-35143D01*
X49846Y-35153D01*
X49895Y-35155D01*
X49963Y-35165D01*
X49990Y-35188D01*
X49957Y-35202D01*
X49866Y-35213D01*
X49724Y-35220D01*
X49590Y-35221D01*
X49414Y-35218D01*
X49284Y-35211D01*
X49207Y-35199D01*
X49190Y-35188D01*
X49218Y-35163D01*
X49281Y-35154D01*
X49347Y-35150D01*
X49399Y-35134D01*
X49440Y-35101D01*
X49471Y-35042D01*
X49493Y-34952D01*
X49508Y-34824D01*
X49517Y-34651D01*
X49521Y-34428D01*
X49523Y-34146D01*
X49523Y-34034D01*
X49523Y-33151D01*
X49442Y-33071D01*
X49360Y-33007D01*
X49276Y-32969D01*
X49212Y-32938D01*
X49190Y-32901D01*
X49205Y-32877D01*
X49258Y-32863D01*
X49360Y-32856D01*
X49465Y-32855D01*
X49740Y-32855D01*
X50438Y-33740D01*
X50605Y-33951D01*
X50761Y-34147D01*
X50899Y-34320D01*
X51016Y-34464D01*
X51105Y-34573D01*
X51162Y-34641D01*
X51180Y-34660D01*
X51194Y-34661D01*
X51204Y-34632D01*
X51212Y-34568D01*
X51218Y-34462D01*
X51221Y-34306D01*
X51222Y-34095D01*
X51222Y-33917D01*
X51221Y-33642D01*
X51218Y-33426D01*
X51211Y-33263D01*
X51198Y-33144D01*
X51178Y-33062D01*
X51149Y-33010D01*
X51110Y-32980D01*
X51058Y-32966D01*
X51014Y-32961D01*
X50921Y-32941D01*
X50890Y-32903D01*
X50890Y-32902D01*
X50901Y-32882D01*
X50942Y-32868D01*
X51022Y-32859D01*
X51152Y-32855D01*
X51290Y-32855D01*
X51462Y-32856D01*
X51578Y-32860D01*
X51648Y-32870D01*
X51682Y-32885D01*
X51690Y-32905D01*
X51690Y-32905D01*
X51690Y-32905D01*
G37*
G54D14*
X38447Y-25891D02*
X39347Y-25891D01*
X39347Y-25891D02*
X39347Y-26391D01*
X39347Y-26391D02*
X38447Y-26391D01*
X38447Y-26391D02*
X38447Y-25891D01*
G54D19*
X27406Y-25624D02*
X27406Y-25428D01*
X27481Y-25428D01*
X27499Y-25437D01*
X27509Y-25446D01*
X27518Y-25465D01*
X27518Y-25493D01*
X27509Y-25512D01*
X27499Y-25521D01*
X27481Y-25531D01*
X27406Y-25531D01*
X27706Y-25624D02*
X27593Y-25624D01*
X27649Y-25624D02*
X27649Y-25428D01*
X27631Y-25456D01*
X27612Y-25474D01*
X27593Y-25484D01*
X27874Y-25493D02*
X27874Y-25624D01*
X27828Y-25418D02*
X27781Y-25559D01*
X27903Y-25559D01*
X32149Y-35799D02*
X32149Y-35603D01*
X32224Y-35603D01*
X32243Y-35612D01*
X32253Y-35621D01*
X32262Y-35640D01*
X32262Y-35668D01*
X32253Y-35687D01*
X32243Y-35696D01*
X32224Y-35706D01*
X32149Y-35706D01*
X32374Y-35687D02*
X32356Y-35678D01*
X32346Y-35668D01*
X32337Y-35649D01*
X32337Y-35640D01*
X32346Y-35621D01*
X32356Y-35612D01*
X32374Y-35603D01*
X32412Y-35603D01*
X32431Y-35612D01*
X32440Y-35621D01*
X32449Y-35640D01*
X32449Y-35649D01*
X32440Y-35668D01*
X32431Y-35678D01*
X32412Y-35687D01*
X32374Y-35687D01*
X32356Y-35696D01*
X32346Y-35706D01*
X32337Y-35724D01*
X32337Y-35762D01*
X32346Y-35781D01*
X32356Y-35790D01*
X32374Y-35799D01*
X32412Y-35799D01*
X32431Y-35790D01*
X32440Y-35781D01*
X32449Y-35762D01*
X32449Y-35724D01*
X32440Y-35706D01*
X32431Y-35696D01*
X32412Y-35687D01*
X32056Y-38024D02*
X32056Y-37828D01*
X32131Y-37828D01*
X32149Y-37837D01*
X32159Y-37846D01*
X32168Y-37865D01*
X32168Y-37893D01*
X32159Y-37912D01*
X32149Y-37921D01*
X32131Y-37931D01*
X32056Y-37931D01*
X32356Y-38024D02*
X32243Y-38024D01*
X32299Y-38024D02*
X32299Y-37828D01*
X32281Y-37856D01*
X32262Y-37874D01*
X32243Y-37884D01*
X32431Y-37846D02*
X32440Y-37837D01*
X32459Y-37828D01*
X32506Y-37828D01*
X32524Y-37837D01*
X32534Y-37846D01*
X32543Y-37865D01*
X32543Y-37884D01*
X32534Y-37912D01*
X32421Y-38024D01*
X32543Y-38024D01*
X32056Y-38574D02*
X32056Y-38378D01*
X32131Y-38378D01*
X32149Y-38387D01*
X32159Y-38396D01*
X32168Y-38415D01*
X32168Y-38443D01*
X32159Y-38462D01*
X32149Y-38471D01*
X32131Y-38481D01*
X32056Y-38481D01*
X32356Y-38574D02*
X32243Y-38574D01*
X32299Y-38574D02*
X32299Y-38378D01*
X32281Y-38406D01*
X32262Y-38424D01*
X32243Y-38434D01*
X32421Y-38378D02*
X32543Y-38378D01*
X32478Y-38453D01*
X32506Y-38453D01*
X32524Y-38462D01*
X32534Y-38471D01*
X32543Y-38490D01*
X32543Y-38537D01*
X32534Y-38556D01*
X32524Y-38565D01*
X32506Y-38574D01*
X32449Y-38574D01*
X32431Y-38565D01*
X32421Y-38556D01*
X24536Y-35964D02*
X24536Y-35768D01*
X24611Y-35768D01*
X24629Y-35777D01*
X24639Y-35786D01*
X24648Y-35805D01*
X24648Y-35833D01*
X24639Y-35852D01*
X24629Y-35861D01*
X24611Y-35871D01*
X24536Y-35871D01*
X24836Y-35964D02*
X24723Y-35964D01*
X24779Y-35964D02*
X24779Y-35768D01*
X24761Y-35796D01*
X24742Y-35814D01*
X24723Y-35824D01*
X24958Y-35768D02*
X24976Y-35768D01*
X24995Y-35777D01*
X25004Y-35786D01*
X25014Y-35805D01*
X25023Y-35843D01*
X25023Y-35889D01*
X25014Y-35927D01*
X25004Y-35946D01*
X24995Y-35955D01*
X24976Y-35964D01*
X24958Y-35964D01*
X24939Y-35955D01*
X24929Y-35946D01*
X24920Y-35927D01*
X24911Y-35889D01*
X24911Y-35843D01*
X24920Y-35805D01*
X24929Y-35786D01*
X24939Y-35777D01*
X24958Y-35768D01*
X53189Y-36274D02*
X53189Y-36078D01*
X53264Y-36078D01*
X53283Y-36087D01*
X53293Y-36096D01*
X53302Y-36115D01*
X53302Y-36143D01*
X53293Y-36162D01*
X53283Y-36171D01*
X53264Y-36181D01*
X53189Y-36181D01*
X53396Y-36274D02*
X53433Y-36274D01*
X53452Y-36265D01*
X53461Y-36256D01*
X53480Y-36228D01*
X53489Y-36190D01*
X53489Y-36115D01*
X53480Y-36096D01*
X53471Y-36087D01*
X53452Y-36078D01*
X53414Y-36078D01*
X53396Y-36087D01*
X53386Y-36096D01*
X53377Y-36115D01*
X53377Y-36162D01*
X53386Y-36181D01*
X53396Y-36190D01*
X53414Y-36199D01*
X53452Y-36199D01*
X53471Y-36190D01*
X53480Y-36181D01*
X53489Y-36162D01*
X24469Y-28144D02*
X24469Y-27948D01*
X24544Y-27948D01*
X24563Y-27957D01*
X24573Y-27966D01*
X24582Y-27985D01*
X24582Y-28013D01*
X24573Y-28032D01*
X24563Y-28041D01*
X24544Y-28051D01*
X24469Y-28051D01*
X24751Y-28013D02*
X24751Y-28144D01*
X24704Y-27938D02*
X24657Y-28079D01*
X24779Y-28079D01*
X41006Y-35224D02*
X41006Y-35028D01*
X41081Y-35028D01*
X41099Y-35037D01*
X41109Y-35046D01*
X41118Y-35065D01*
X41118Y-35093D01*
X41109Y-35112D01*
X41099Y-35121D01*
X41081Y-35131D01*
X41006Y-35131D01*
X41306Y-35224D02*
X41193Y-35224D01*
X41249Y-35224D02*
X41249Y-35028D01*
X41231Y-35056D01*
X41212Y-35074D01*
X41193Y-35084D01*
X41484Y-35028D02*
X41390Y-35028D01*
X41381Y-35121D01*
X41390Y-35112D01*
X41409Y-35103D01*
X41456Y-35103D01*
X41474Y-35112D01*
X41484Y-35121D01*
X41493Y-35140D01*
X41493Y-35187D01*
X41484Y-35206D01*
X41474Y-35215D01*
X41456Y-35224D01*
X41409Y-35224D01*
X41390Y-35215D01*
X41381Y-35206D01*
X36026Y-36504D02*
X36026Y-36308D01*
X36101Y-36308D01*
X36119Y-36317D01*
X36129Y-36326D01*
X36138Y-36345D01*
X36138Y-36373D01*
X36129Y-36392D01*
X36119Y-36401D01*
X36101Y-36411D01*
X36026Y-36411D01*
X36326Y-36504D02*
X36213Y-36504D01*
X36269Y-36504D02*
X36269Y-36308D01*
X36251Y-36336D01*
X36232Y-36354D01*
X36213Y-36364D01*
X36494Y-36308D02*
X36457Y-36308D01*
X36438Y-36317D01*
X36429Y-36326D01*
X36410Y-36354D01*
X36401Y-36392D01*
X36401Y-36467D01*
X36410Y-36486D01*
X36419Y-36495D01*
X36438Y-36504D01*
X36476Y-36504D01*
X36494Y-36495D01*
X36504Y-36486D01*
X36513Y-36467D01*
X36513Y-36420D01*
X36504Y-36401D01*
X36494Y-36392D01*
X36476Y-36383D01*
X36438Y-36383D01*
X36419Y-36392D01*
X36410Y-36401D01*
X36401Y-36420D01*
X32149Y-25324D02*
X32149Y-25128D01*
X32224Y-25128D01*
X32243Y-25137D01*
X32253Y-25146D01*
X32262Y-25165D01*
X32262Y-25193D01*
X32253Y-25212D01*
X32243Y-25221D01*
X32224Y-25231D01*
X32149Y-25231D01*
X32449Y-25324D02*
X32337Y-25324D01*
X32393Y-25324D02*
X32393Y-25128D01*
X32374Y-25156D01*
X32356Y-25174D01*
X32337Y-25184D01*
X32149Y-25874D02*
X32149Y-25678D01*
X32224Y-25678D01*
X32243Y-25687D01*
X32253Y-25696D01*
X32262Y-25715D01*
X32262Y-25743D01*
X32253Y-25762D01*
X32243Y-25771D01*
X32224Y-25781D01*
X32149Y-25781D01*
X32337Y-25696D02*
X32346Y-25687D01*
X32365Y-25678D01*
X32412Y-25678D01*
X32431Y-25687D01*
X32440Y-25696D01*
X32449Y-25715D01*
X32449Y-25734D01*
X32440Y-25762D01*
X32328Y-25874D01*
X32449Y-25874D01*
X32149Y-27099D02*
X32149Y-26903D01*
X32224Y-26903D01*
X32243Y-26912D01*
X32253Y-26921D01*
X32262Y-26940D01*
X32262Y-26968D01*
X32253Y-26987D01*
X32243Y-26996D01*
X32224Y-27006D01*
X32149Y-27006D01*
X32328Y-26903D02*
X32449Y-26903D01*
X32384Y-26978D01*
X32412Y-26978D01*
X32431Y-26987D01*
X32440Y-26996D01*
X32449Y-27015D01*
X32449Y-27062D01*
X32440Y-27081D01*
X32431Y-27090D01*
X32412Y-27099D01*
X32356Y-27099D01*
X32337Y-27090D01*
X32328Y-27081D01*
X32149Y-27649D02*
X32149Y-27453D01*
X32224Y-27453D01*
X32243Y-27462D01*
X32253Y-27471D01*
X32262Y-27490D01*
X32262Y-27518D01*
X32253Y-27537D01*
X32243Y-27546D01*
X32224Y-27556D01*
X32149Y-27556D01*
X32440Y-27453D02*
X32346Y-27453D01*
X32337Y-27546D01*
X32346Y-27537D01*
X32365Y-27528D01*
X32412Y-27528D01*
X32431Y-27537D01*
X32440Y-27546D01*
X32449Y-27565D01*
X32449Y-27612D01*
X32440Y-27631D01*
X32431Y-27640D01*
X32412Y-27649D01*
X32365Y-27649D01*
X32346Y-27640D01*
X32337Y-27631D01*
X32149Y-33699D02*
X32149Y-33503D01*
X32224Y-33503D01*
X32243Y-33512D01*
X32253Y-33521D01*
X32262Y-33540D01*
X32262Y-33568D01*
X32253Y-33587D01*
X32243Y-33596D01*
X32224Y-33606D01*
X32149Y-33606D01*
X32431Y-33503D02*
X32393Y-33503D01*
X32374Y-33512D01*
X32365Y-33521D01*
X32346Y-33549D01*
X32337Y-33587D01*
X32337Y-33662D01*
X32346Y-33681D01*
X32356Y-33690D01*
X32374Y-33699D01*
X32412Y-33699D01*
X32431Y-33690D01*
X32440Y-33681D01*
X32449Y-33662D01*
X32449Y-33615D01*
X32440Y-33596D01*
X32431Y-33587D01*
X32412Y-33578D01*
X32374Y-33578D01*
X32356Y-33587D01*
X32346Y-33596D01*
X32337Y-33615D01*
X32056Y-36349D02*
X32056Y-36153D01*
X32131Y-36153D01*
X32149Y-36162D01*
X32159Y-36171D01*
X32168Y-36190D01*
X32168Y-36218D01*
X32159Y-36237D01*
X32149Y-36246D01*
X32131Y-36256D01*
X32056Y-36256D01*
X32356Y-36349D02*
X32243Y-36349D01*
X32299Y-36349D02*
X32299Y-36153D01*
X32281Y-36181D01*
X32262Y-36199D01*
X32243Y-36209D01*
X32543Y-36349D02*
X32431Y-36349D01*
X32487Y-36349D02*
X32487Y-36153D01*
X32468Y-36181D01*
X32449Y-36199D01*
X32431Y-36209D01*
X32149Y-34249D02*
X32149Y-34053D01*
X32224Y-34053D01*
X32243Y-34062D01*
X32253Y-34071D01*
X32262Y-34090D01*
X32262Y-34118D01*
X32253Y-34137D01*
X32243Y-34146D01*
X32224Y-34156D01*
X32149Y-34156D01*
X32328Y-34053D02*
X32459Y-34053D01*
X32374Y-34249D01*
G54D14*
X54845Y-35132D02*
X54845Y-35496D01*
X54864Y-35539D01*
X54883Y-35560D01*
X54921Y-35582D01*
X54997Y-35582D01*
X55035Y-35560D01*
X55054Y-35539D01*
X55073Y-35496D01*
X55073Y-35132D01*
X55473Y-35582D02*
X55245Y-35582D01*
X55359Y-35582D02*
X55359Y-35132D01*
X55321Y-35196D01*
X55283Y-35239D01*
X55245Y-35260D01*
X54264Y-36200D02*
X54283Y-36180D01*
X54321Y-36161D01*
X54416Y-36161D01*
X54454Y-36180D01*
X54473Y-36200D01*
X54492Y-36238D01*
X54492Y-36276D01*
X54473Y-36333D01*
X54245Y-36561D01*
X54492Y-36561D01*
X54835Y-36295D02*
X54835Y-36561D01*
X54740Y-36142D02*
X54645Y-36428D01*
X54892Y-36428D01*
X55273Y-36523D02*
X55254Y-36542D01*
X55197Y-36561D01*
X55159Y-36561D01*
X55102Y-36542D01*
X55064Y-36504D01*
X55045Y-36466D01*
X55026Y-36390D01*
X55026Y-36333D01*
X55045Y-36257D01*
X55064Y-36219D01*
X55102Y-36180D01*
X55159Y-36161D01*
X55197Y-36161D01*
X55254Y-36180D01*
X55273Y-36200D01*
X55521Y-36161D02*
X55559Y-36161D01*
X55597Y-36180D01*
X55616Y-36200D01*
X55635Y-36238D01*
X55654Y-36314D01*
X55654Y-36409D01*
X55635Y-36485D01*
X55616Y-36523D01*
X55597Y-36542D01*
X55559Y-36561D01*
X55521Y-36561D01*
X55483Y-36542D01*
X55464Y-36523D01*
X55445Y-36485D01*
X55426Y-36409D01*
X55426Y-36314D01*
X55445Y-36238D01*
X55464Y-36200D01*
X55483Y-36180D01*
X55521Y-36161D01*
X55807Y-36200D02*
X55826Y-36180D01*
X55864Y-36161D01*
X55959Y-36161D01*
X55997Y-36180D01*
X56016Y-36200D01*
X56035Y-36238D01*
X56035Y-36276D01*
X56016Y-36333D01*
X55788Y-36561D01*
X56035Y-36561D01*
G54D10*
X24923Y-31603D02*
X25204Y-31603D01*
X25260Y-31622D01*
X25298Y-31659D01*
X25316Y-31716D01*
X25316Y-31753D01*
X24960Y-31434D02*
X24941Y-31416D01*
X24923Y-31378D01*
X24923Y-31284D01*
X24941Y-31247D01*
X24960Y-31228D01*
X24998Y-31209D01*
X25035Y-31209D01*
X25091Y-31228D01*
X25316Y-31453D01*
X25316Y-31209D01*
G54D20*
X38080Y-35265D02*
X37985Y-35325D01*
X38080Y-35368D02*
X37880Y-35368D01*
X37880Y-35300D01*
X37890Y-35282D01*
X37900Y-35274D01*
X37919Y-35265D01*
X37947Y-35265D01*
X37966Y-35274D01*
X37976Y-35282D01*
X37985Y-35300D01*
X37985Y-35368D01*
X37900Y-35197D02*
X37890Y-35188D01*
X37880Y-35171D01*
X37880Y-35128D01*
X37890Y-35111D01*
X37900Y-35102D01*
X37919Y-35094D01*
X37938Y-35094D01*
X37966Y-35102D01*
X38080Y-35205D01*
X38080Y-35094D01*
X37947Y-34940D02*
X38080Y-34940D01*
X37871Y-34982D02*
X38014Y-35025D01*
X38014Y-34914D01*
X38040Y-34235D02*
X38032Y-34244D01*
X38006Y-34254D01*
X37989Y-34254D01*
X37963Y-34244D01*
X37946Y-34225D01*
X37938Y-34206D01*
X37929Y-34168D01*
X37929Y-34139D01*
X37938Y-34101D01*
X37946Y-34082D01*
X37963Y-34063D01*
X37989Y-34054D01*
X38006Y-34054D01*
X38032Y-34063D01*
X38040Y-34073D01*
X38195Y-34120D02*
X38195Y-34254D01*
X38152Y-34044D02*
X38109Y-34187D01*
X38220Y-34187D01*
X53330Y-33751D02*
X53321Y-33761D01*
X53295Y-33770D01*
X53278Y-33770D01*
X53252Y-33761D01*
X53235Y-33742D01*
X53227Y-33723D01*
X53218Y-33685D01*
X53218Y-33656D01*
X53227Y-33618D01*
X53235Y-33599D01*
X53252Y-33580D01*
X53278Y-33570D01*
X53295Y-33570D01*
X53321Y-33580D01*
X53330Y-33590D01*
X53501Y-33770D02*
X53398Y-33770D01*
X53450Y-33770D02*
X53450Y-33570D01*
X53432Y-33599D01*
X53415Y-33618D01*
X53398Y-33628D01*
X53330Y-34551D02*
X53321Y-34561D01*
X53295Y-34570D01*
X53278Y-34570D01*
X53252Y-34561D01*
X53235Y-34542D01*
X53227Y-34523D01*
X53218Y-34485D01*
X53218Y-34456D01*
X53227Y-34418D01*
X53235Y-34399D01*
X53252Y-34380D01*
X53278Y-34370D01*
X53295Y-34370D01*
X53321Y-34380D01*
X53330Y-34390D01*
X53398Y-34390D02*
X53407Y-34380D01*
X53424Y-34370D01*
X53467Y-34370D01*
X53484Y-34380D01*
X53492Y-34390D01*
X53501Y-34409D01*
X53501Y-34428D01*
X53492Y-34456D01*
X53390Y-34570D01*
X53501Y-34570D01*
X36781Y-34235D02*
X36772Y-34244D01*
X36746Y-34254D01*
X36729Y-34254D01*
X36703Y-34244D01*
X36686Y-34225D01*
X36678Y-34206D01*
X36669Y-34168D01*
X36669Y-34139D01*
X36678Y-34101D01*
X36686Y-34082D01*
X36703Y-34063D01*
X36729Y-34054D01*
X36746Y-34054D01*
X36772Y-34063D01*
X36781Y-34073D01*
X36841Y-34054D02*
X36952Y-34054D01*
X36892Y-34130D01*
X36918Y-34130D01*
X36935Y-34139D01*
X36943Y-34149D01*
X36952Y-34168D01*
X36952Y-34216D01*
X36943Y-34235D01*
X36935Y-34244D01*
X36918Y-34254D01*
X36866Y-34254D01*
X36849Y-34244D01*
X36841Y-34235D01*
X39620Y-35265D02*
X39525Y-35325D01*
X39620Y-35368D02*
X39420Y-35368D01*
X39420Y-35300D01*
X39430Y-35282D01*
X39440Y-35274D01*
X39459Y-35265D01*
X39487Y-35265D01*
X39506Y-35274D01*
X39516Y-35282D01*
X39525Y-35300D01*
X39525Y-35368D01*
X39440Y-35197D02*
X39430Y-35188D01*
X39420Y-35171D01*
X39420Y-35128D01*
X39430Y-35111D01*
X39440Y-35102D01*
X39459Y-35094D01*
X39478Y-35094D01*
X39506Y-35102D01*
X39620Y-35205D01*
X39620Y-35094D01*
X39440Y-35025D02*
X39430Y-35017D01*
X39420Y-35000D01*
X39420Y-34957D01*
X39430Y-34940D01*
X39440Y-34931D01*
X39459Y-34922D01*
X39478Y-34922D01*
X39506Y-34931D01*
X39620Y-35034D01*
X39620Y-34922D01*
X36950Y-36495D02*
X36855Y-36555D01*
X36950Y-36598D02*
X36750Y-36598D01*
X36750Y-36530D01*
X36760Y-36512D01*
X36770Y-36504D01*
X36789Y-36495D01*
X36817Y-36495D01*
X36836Y-36504D01*
X36846Y-36512D01*
X36855Y-36530D01*
X36855Y-36598D01*
X36770Y-36427D02*
X36760Y-36418D01*
X36750Y-36401D01*
X36750Y-36358D01*
X36760Y-36341D01*
X36770Y-36332D01*
X36789Y-36324D01*
X36808Y-36324D01*
X36836Y-36332D01*
X36950Y-36435D01*
X36950Y-36324D01*
X36750Y-36161D02*
X36750Y-36247D01*
X36846Y-36255D01*
X36836Y-36247D01*
X36827Y-36230D01*
X36827Y-36187D01*
X36836Y-36170D01*
X36846Y-36161D01*
X36865Y-36152D01*
X36912Y-36152D01*
X36931Y-36161D01*
X36941Y-36170D01*
X36950Y-36187D01*
X36950Y-36230D01*
X36941Y-36247D01*
X36931Y-36255D01*
X39610Y-36495D02*
X39515Y-36555D01*
X39610Y-36598D02*
X39410Y-36598D01*
X39410Y-36530D01*
X39420Y-36512D01*
X39430Y-36504D01*
X39449Y-36495D01*
X39477Y-36495D01*
X39496Y-36504D01*
X39506Y-36512D01*
X39515Y-36530D01*
X39515Y-36598D01*
X39430Y-36427D02*
X39420Y-36418D01*
X39410Y-36401D01*
X39410Y-36358D01*
X39420Y-36341D01*
X39430Y-36332D01*
X39449Y-36324D01*
X39468Y-36324D01*
X39496Y-36332D01*
X39610Y-36435D01*
X39610Y-36324D01*
X39410Y-36170D02*
X39410Y-36204D01*
X39420Y-36221D01*
X39430Y-36230D01*
X39458Y-36247D01*
X39496Y-36255D01*
X39572Y-36255D01*
X39591Y-36247D01*
X39601Y-36238D01*
X39610Y-36221D01*
X39610Y-36187D01*
X39601Y-36170D01*
X39591Y-36161D01*
X39572Y-36152D01*
X39525Y-36152D01*
X39506Y-36161D01*
X39496Y-36170D01*
X39487Y-36187D01*
X39487Y-36221D01*
X39496Y-36238D01*
X39506Y-36247D01*
X39525Y-36255D01*
X36950Y-35275D02*
X36855Y-35335D01*
X36950Y-35378D02*
X36750Y-35378D01*
X36750Y-35310D01*
X36760Y-35292D01*
X36770Y-35284D01*
X36789Y-35275D01*
X36817Y-35275D01*
X36836Y-35284D01*
X36846Y-35292D01*
X36855Y-35310D01*
X36855Y-35378D01*
X36770Y-35207D02*
X36760Y-35198D01*
X36750Y-35181D01*
X36750Y-35138D01*
X36760Y-35121D01*
X36770Y-35112D01*
X36789Y-35104D01*
X36808Y-35104D01*
X36836Y-35112D01*
X36950Y-35215D01*
X36950Y-35104D01*
X36750Y-35044D02*
X36750Y-34932D01*
X36827Y-34992D01*
X36827Y-34967D01*
X36836Y-34950D01*
X36846Y-34941D01*
X36865Y-34932D01*
X36912Y-34932D01*
X36931Y-34941D01*
X36941Y-34950D01*
X36950Y-34967D01*
X36950Y-35018D01*
X36941Y-35035D01*
X36931Y-35044D01*
X24284Y-37370D02*
X24224Y-37275D01*
X24181Y-37370D02*
X24181Y-37170D01*
X24250Y-37170D01*
X24267Y-37180D01*
X24275Y-37190D01*
X24284Y-37209D01*
X24284Y-37237D01*
X24275Y-37256D01*
X24267Y-37266D01*
X24250Y-37275D01*
X24181Y-37275D01*
X24352Y-37190D02*
X24361Y-37180D01*
X24378Y-37170D01*
X24421Y-37170D01*
X24438Y-37180D01*
X24447Y-37190D01*
X24455Y-37209D01*
X24455Y-37228D01*
X24447Y-37256D01*
X24344Y-37370D01*
X24455Y-37370D01*
X24627Y-37370D02*
X24524Y-37370D01*
X24575Y-37370D02*
X24575Y-37170D01*
X24558Y-37199D01*
X24541Y-37218D01*
X24524Y-37228D01*
G54D15*
X33755Y-38002D02*
X33690Y-38042D01*
X33755Y-38070D02*
X33617Y-38070D01*
X33617Y-38025D01*
X33624Y-38013D01*
X33631Y-38007D01*
X33644Y-38002D01*
X33663Y-38002D01*
X33677Y-38007D01*
X33683Y-38013D01*
X33690Y-38025D01*
X33690Y-38070D01*
X33755Y-37887D02*
X33755Y-37956D01*
X33755Y-37922D02*
X33617Y-37922D01*
X33637Y-37933D01*
X33650Y-37945D01*
X33657Y-37956D01*
X33677Y-37819D02*
X33670Y-37830D01*
X33663Y-37836D01*
X33650Y-37842D01*
X33644Y-37842D01*
X33631Y-37836D01*
X33624Y-37830D01*
X33617Y-37819D01*
X33617Y-37796D01*
X33624Y-37785D01*
X33631Y-37779D01*
X33644Y-37773D01*
X33650Y-37773D01*
X33663Y-37779D01*
X33670Y-37785D01*
X33677Y-37796D01*
X33677Y-37819D01*
X33683Y-37830D01*
X33690Y-37836D01*
X33703Y-37842D01*
X33729Y-37842D01*
X33742Y-37836D01*
X33749Y-37830D01*
X33755Y-37819D01*
X33755Y-37796D01*
X33749Y-37785D01*
X33742Y-37779D01*
X33729Y-37773D01*
X33703Y-37773D01*
X33690Y-37779D01*
X33683Y-37785D01*
X33677Y-37796D01*
X33755Y-25245D02*
X33690Y-25285D01*
X33755Y-25313D02*
X33617Y-25313D01*
X33617Y-25267D01*
X33624Y-25256D01*
X33631Y-25250D01*
X33644Y-25245D01*
X33663Y-25245D01*
X33677Y-25250D01*
X33683Y-25256D01*
X33690Y-25267D01*
X33690Y-25313D01*
X33631Y-25199D02*
X33624Y-25193D01*
X33617Y-25182D01*
X33617Y-25153D01*
X33624Y-25142D01*
X33631Y-25136D01*
X33644Y-25130D01*
X33657Y-25130D01*
X33677Y-25136D01*
X33755Y-25205D01*
X33755Y-25130D01*
X33705Y-27020D02*
X33640Y-27060D01*
X33705Y-27088D02*
X33567Y-27088D01*
X33567Y-27042D01*
X33574Y-27031D01*
X33581Y-27025D01*
X33594Y-27020D01*
X33613Y-27020D01*
X33627Y-27025D01*
X33633Y-27031D01*
X33640Y-27042D01*
X33640Y-27088D01*
X33567Y-26917D02*
X33567Y-26940D01*
X33574Y-26951D01*
X33581Y-26957D01*
X33600Y-26968D01*
X33627Y-26974D01*
X33679Y-26974D01*
X33692Y-26968D01*
X33699Y-26962D01*
X33705Y-26951D01*
X33705Y-26928D01*
X33699Y-26917D01*
X33692Y-26911D01*
X33679Y-26905D01*
X33646Y-26905D01*
X33633Y-26911D01*
X33627Y-26917D01*
X33620Y-26928D01*
X33620Y-26951D01*
X33627Y-26962D01*
X33633Y-26968D01*
X33646Y-26974D01*
X33705Y-33677D02*
X33640Y-33717D01*
X33705Y-33745D02*
X33567Y-33745D01*
X33567Y-33700D01*
X33574Y-33688D01*
X33581Y-33682D01*
X33594Y-33677D01*
X33613Y-33677D01*
X33627Y-33682D01*
X33633Y-33688D01*
X33640Y-33700D01*
X33640Y-33745D01*
X33705Y-33562D02*
X33705Y-33631D01*
X33705Y-33597D02*
X33567Y-33597D01*
X33587Y-33608D01*
X33600Y-33620D01*
X33607Y-33631D01*
X33567Y-33488D02*
X33567Y-33477D01*
X33574Y-33465D01*
X33581Y-33460D01*
X33594Y-33454D01*
X33620Y-33448D01*
X33653Y-33448D01*
X33679Y-33454D01*
X33692Y-33460D01*
X33699Y-33465D01*
X33705Y-33477D01*
X33705Y-33488D01*
X33699Y-33500D01*
X33692Y-33505D01*
X33679Y-33511D01*
X33653Y-33517D01*
X33620Y-33517D01*
X33594Y-33511D01*
X33581Y-33505D01*
X33574Y-33500D01*
X33567Y-33488D01*
X33755Y-35777D02*
X33690Y-35817D01*
X33755Y-35845D02*
X33617Y-35845D01*
X33617Y-35800D01*
X33624Y-35788D01*
X33631Y-35782D01*
X33644Y-35777D01*
X33663Y-35777D01*
X33677Y-35782D01*
X33683Y-35788D01*
X33690Y-35800D01*
X33690Y-35845D01*
X33755Y-35662D02*
X33755Y-35731D01*
X33755Y-35697D02*
X33617Y-35697D01*
X33637Y-35708D01*
X33650Y-35720D01*
X33657Y-35731D01*
X33663Y-35560D02*
X33755Y-35560D01*
X33611Y-35588D02*
X33709Y-35617D01*
X33709Y-35542D01*
X33080Y-25030D02*
X33040Y-24965D01*
X33011Y-25030D02*
X33011Y-24892D01*
X33057Y-24892D01*
X33068Y-24899D01*
X33074Y-24906D01*
X33080Y-24919D01*
X33080Y-24938D01*
X33074Y-24952D01*
X33068Y-24958D01*
X33057Y-24965D01*
X33011Y-24965D01*
X33194Y-25030D02*
X33125Y-25030D01*
X33160Y-25030D02*
X33160Y-24892D01*
X33148Y-24912D01*
X33137Y-24925D01*
X33125Y-24932D01*
X32555Y-33677D02*
X32490Y-33717D01*
X32555Y-33745D02*
X32417Y-33745D01*
X32417Y-33700D01*
X32424Y-33688D01*
X32431Y-33682D01*
X32444Y-33677D01*
X32463Y-33677D01*
X32477Y-33682D01*
X32483Y-33688D01*
X32490Y-33700D01*
X32490Y-33745D01*
X32555Y-33562D02*
X32555Y-33631D01*
X32555Y-33597D02*
X32417Y-33597D01*
X32437Y-33608D01*
X32450Y-33620D01*
X32457Y-33631D01*
X32555Y-33448D02*
X32555Y-33517D01*
X32555Y-33482D02*
X32417Y-33482D01*
X32437Y-33494D01*
X32450Y-33505D01*
X32457Y-33517D01*
X33080Y-25530D02*
X33040Y-25465D01*
X33011Y-25530D02*
X33011Y-25392D01*
X33057Y-25392D01*
X33068Y-25399D01*
X33074Y-25406D01*
X33080Y-25419D01*
X33080Y-25438D01*
X33074Y-25452D01*
X33068Y-25458D01*
X33057Y-25465D01*
X33011Y-25465D01*
X33182Y-25438D02*
X33182Y-25530D01*
X33154Y-25386D02*
X33125Y-25484D01*
X33200Y-25484D01*
X32555Y-25245D02*
X32490Y-25285D01*
X32555Y-25313D02*
X32417Y-25313D01*
X32417Y-25267D01*
X32424Y-25256D01*
X32431Y-25250D01*
X32444Y-25245D01*
X32463Y-25245D01*
X32477Y-25250D01*
X32483Y-25256D01*
X32490Y-25267D01*
X32490Y-25313D01*
X32417Y-25205D02*
X32417Y-25130D01*
X32470Y-25170D01*
X32470Y-25153D01*
X32477Y-25142D01*
X32483Y-25136D01*
X32496Y-25130D01*
X32529Y-25130D01*
X32542Y-25136D01*
X32549Y-25142D01*
X32555Y-25153D01*
X32555Y-25187D01*
X32549Y-25199D01*
X32542Y-25205D01*
X33055Y-26805D02*
X33015Y-26740D01*
X32986Y-26805D02*
X32986Y-26667D01*
X33032Y-26667D01*
X33043Y-26674D01*
X33049Y-26681D01*
X33055Y-26694D01*
X33055Y-26713D01*
X33049Y-26727D01*
X33043Y-26733D01*
X33032Y-26740D01*
X32986Y-26740D01*
X33163Y-26667D02*
X33106Y-26667D01*
X33100Y-26733D01*
X33106Y-26727D01*
X33117Y-26720D01*
X33146Y-26720D01*
X33157Y-26727D01*
X33163Y-26733D01*
X33169Y-26746D01*
X33169Y-26779D01*
X33163Y-26792D01*
X33157Y-26799D01*
X33146Y-26805D01*
X33117Y-26805D01*
X33106Y-26799D01*
X33100Y-26792D01*
X32555Y-27020D02*
X32490Y-27060D01*
X32555Y-27088D02*
X32417Y-27088D01*
X32417Y-27042D01*
X32424Y-27031D01*
X32431Y-27025D01*
X32444Y-27020D01*
X32463Y-27020D01*
X32477Y-27025D01*
X32483Y-27031D01*
X32490Y-27042D01*
X32490Y-27088D01*
X32417Y-26980D02*
X32417Y-26900D01*
X32555Y-26951D01*
X33055Y-27305D02*
X33015Y-27240D01*
X32986Y-27305D02*
X32986Y-27167D01*
X33032Y-27167D01*
X33043Y-27174D01*
X33049Y-27181D01*
X33055Y-27194D01*
X33055Y-27213D01*
X33049Y-27227D01*
X33043Y-27233D01*
X33032Y-27240D01*
X32986Y-27240D01*
X33123Y-27227D02*
X33112Y-27220D01*
X33106Y-27213D01*
X33100Y-27200D01*
X33100Y-27194D01*
X33106Y-27181D01*
X33112Y-27174D01*
X33123Y-27167D01*
X33146Y-27167D01*
X33157Y-27174D01*
X33163Y-27181D01*
X33169Y-27194D01*
X33169Y-27200D01*
X33163Y-27213D01*
X33157Y-27220D01*
X33146Y-27227D01*
X33123Y-27227D01*
X33112Y-27233D01*
X33106Y-27240D01*
X33100Y-27253D01*
X33100Y-27279D01*
X33106Y-27292D01*
X33112Y-27299D01*
X33123Y-27305D01*
X33146Y-27305D01*
X33157Y-27299D01*
X33163Y-27292D01*
X33169Y-27279D01*
X33169Y-27253D01*
X33163Y-27240D01*
X33157Y-27233D01*
X33146Y-27227D01*
X33055Y-33405D02*
X33015Y-33340D01*
X32986Y-33405D02*
X32986Y-33267D01*
X33032Y-33267D01*
X33043Y-33274D01*
X33049Y-33281D01*
X33055Y-33294D01*
X33055Y-33313D01*
X33049Y-33327D01*
X33043Y-33333D01*
X33032Y-33340D01*
X32986Y-33340D01*
X33112Y-33405D02*
X33135Y-33405D01*
X33146Y-33399D01*
X33152Y-33392D01*
X33163Y-33373D01*
X33169Y-33346D01*
X33169Y-33294D01*
X33163Y-33281D01*
X33157Y-33274D01*
X33146Y-33267D01*
X33123Y-33267D01*
X33112Y-33274D01*
X33106Y-33281D01*
X33100Y-33294D01*
X33100Y-33327D01*
X33106Y-33340D01*
X33112Y-33346D01*
X33123Y-33353D01*
X33146Y-33353D01*
X33157Y-33346D01*
X33163Y-33340D01*
X33169Y-33327D01*
X32997Y-33905D02*
X32957Y-33840D01*
X32929Y-33905D02*
X32929Y-33767D01*
X32975Y-33767D01*
X32986Y-33774D01*
X32992Y-33781D01*
X32997Y-33794D01*
X32997Y-33813D01*
X32992Y-33827D01*
X32986Y-33833D01*
X32975Y-33840D01*
X32929Y-33840D01*
X33112Y-33905D02*
X33043Y-33905D01*
X33077Y-33905D02*
X33077Y-33767D01*
X33066Y-33787D01*
X33055Y-33800D01*
X33043Y-33807D01*
X33157Y-33781D02*
X33163Y-33774D01*
X33175Y-33767D01*
X33203Y-33767D01*
X33215Y-33774D01*
X33220Y-33781D01*
X33226Y-33794D01*
X33226Y-33807D01*
X33220Y-33827D01*
X33152Y-33905D01*
X33226Y-33905D01*
X33022Y-35505D02*
X32982Y-35440D01*
X32954Y-35505D02*
X32954Y-35367D01*
X33000Y-35367D01*
X33011Y-35374D01*
X33017Y-35381D01*
X33022Y-35394D01*
X33022Y-35413D01*
X33017Y-35427D01*
X33011Y-35433D01*
X33000Y-35440D01*
X32954Y-35440D01*
X33137Y-35505D02*
X33068Y-35505D01*
X33102Y-35505D02*
X33102Y-35367D01*
X33091Y-35387D01*
X33080Y-35400D01*
X33068Y-35407D01*
X33177Y-35367D02*
X33251Y-35367D01*
X33211Y-35420D01*
X33228Y-35420D01*
X33240Y-35427D01*
X33245Y-35433D01*
X33251Y-35446D01*
X33251Y-35479D01*
X33245Y-35492D01*
X33240Y-35499D01*
X33228Y-35505D01*
X33194Y-35505D01*
X33182Y-35499D01*
X33177Y-35492D01*
X32555Y-35777D02*
X32490Y-35817D01*
X32555Y-35845D02*
X32417Y-35845D01*
X32417Y-35800D01*
X32424Y-35788D01*
X32431Y-35782D01*
X32444Y-35777D01*
X32463Y-35777D01*
X32477Y-35782D01*
X32483Y-35788D01*
X32490Y-35800D01*
X32490Y-35845D01*
X32555Y-35662D02*
X32555Y-35731D01*
X32555Y-35697D02*
X32417Y-35697D01*
X32437Y-35708D01*
X32450Y-35720D01*
X32457Y-35731D01*
X32417Y-35554D02*
X32417Y-35611D01*
X32483Y-35617D01*
X32477Y-35611D01*
X32470Y-35600D01*
X32470Y-35571D01*
X32477Y-35560D01*
X32483Y-35554D01*
X32496Y-35548D01*
X32529Y-35548D01*
X32542Y-35554D01*
X32549Y-35560D01*
X32555Y-35571D01*
X32555Y-35600D01*
X32549Y-35611D01*
X32542Y-35617D01*
X33022Y-36005D02*
X32982Y-35940D01*
X32954Y-36005D02*
X32954Y-35867D01*
X33000Y-35867D01*
X33011Y-35874D01*
X33017Y-35881D01*
X33022Y-35894D01*
X33022Y-35913D01*
X33017Y-35927D01*
X33011Y-35933D01*
X33000Y-35940D01*
X32954Y-35940D01*
X33137Y-36005D02*
X33068Y-36005D01*
X33102Y-36005D02*
X33102Y-35867D01*
X33091Y-35887D01*
X33080Y-35900D01*
X33068Y-35907D01*
X33240Y-35867D02*
X33217Y-35867D01*
X33205Y-35874D01*
X33200Y-35881D01*
X33188Y-35900D01*
X33182Y-35927D01*
X33182Y-35979D01*
X33188Y-35992D01*
X33194Y-35999D01*
X33205Y-36005D01*
X33228Y-36005D01*
X33240Y-35999D01*
X33245Y-35992D01*
X33251Y-35979D01*
X33251Y-35946D01*
X33245Y-35933D01*
X33240Y-35927D01*
X33228Y-35920D01*
X33205Y-35920D01*
X33194Y-35927D01*
X33188Y-35933D01*
X33182Y-35946D01*
X33022Y-37730D02*
X32982Y-37665D01*
X32954Y-37730D02*
X32954Y-37592D01*
X33000Y-37592D01*
X33011Y-37599D01*
X33017Y-37606D01*
X33022Y-37619D01*
X33022Y-37638D01*
X33017Y-37652D01*
X33011Y-37658D01*
X33000Y-37665D01*
X32954Y-37665D01*
X33137Y-37730D02*
X33068Y-37730D01*
X33102Y-37730D02*
X33102Y-37592D01*
X33091Y-37612D01*
X33080Y-37625D01*
X33068Y-37632D01*
X33177Y-37592D02*
X33257Y-37592D01*
X33205Y-37730D01*
X32555Y-38002D02*
X32490Y-38042D01*
X32555Y-38070D02*
X32417Y-38070D01*
X32417Y-38025D01*
X32424Y-38013D01*
X32431Y-38007D01*
X32444Y-38002D01*
X32463Y-38002D01*
X32477Y-38007D01*
X32483Y-38013D01*
X32490Y-38025D01*
X32490Y-38070D01*
X32555Y-37887D02*
X32555Y-37956D01*
X32555Y-37922D02*
X32417Y-37922D01*
X32437Y-37933D01*
X32450Y-37945D01*
X32457Y-37956D01*
X32555Y-37830D02*
X32555Y-37807D01*
X32549Y-37796D01*
X32542Y-37790D01*
X32523Y-37779D01*
X32496Y-37773D01*
X32444Y-37773D01*
X32431Y-37779D01*
X32424Y-37785D01*
X32417Y-37796D01*
X32417Y-37819D01*
X32424Y-37830D01*
X32431Y-37836D01*
X32444Y-37842D01*
X32477Y-37842D01*
X32490Y-37836D01*
X32496Y-37830D01*
X32503Y-37819D01*
X32503Y-37796D01*
X32496Y-37785D01*
X32490Y-37779D01*
X32477Y-37773D01*
X33022Y-38230D02*
X32982Y-38165D01*
X32954Y-38230D02*
X32954Y-38092D01*
X33000Y-38092D01*
X33011Y-38099D01*
X33017Y-38106D01*
X33022Y-38119D01*
X33022Y-38138D01*
X33017Y-38152D01*
X33011Y-38158D01*
X33000Y-38165D01*
X32954Y-38165D01*
X33068Y-38106D02*
X33074Y-38099D01*
X33085Y-38092D01*
X33114Y-38092D01*
X33125Y-38099D01*
X33131Y-38106D01*
X33137Y-38119D01*
X33137Y-38132D01*
X33131Y-38152D01*
X33062Y-38230D01*
X33137Y-38230D01*
X33211Y-38092D02*
X33222Y-38092D01*
X33234Y-38099D01*
X33240Y-38106D01*
X33245Y-38119D01*
X33251Y-38145D01*
X33251Y-38178D01*
X33245Y-38204D01*
X33240Y-38217D01*
X33234Y-38224D01*
X33222Y-38230D01*
X33211Y-38230D01*
X33200Y-38224D01*
X33194Y-38217D01*
X33188Y-38204D01*
X33182Y-38178D01*
X33182Y-38145D01*
X33188Y-38119D01*
X33194Y-38106D01*
X33200Y-38099D01*
X33211Y-38092D01*
G54D10*
X43393Y-27265D02*
X43393Y-27546D01*
X43375Y-27603D01*
X43337Y-27640D01*
X43281Y-27659D01*
X43243Y-27659D01*
X43787Y-27659D02*
X43562Y-27659D01*
X43674Y-27659D02*
X43674Y-27265D01*
X43637Y-27321D01*
X43599Y-27359D01*
X43562Y-27378D01*
G54D11*
X45021Y-33779D02*
X45235Y-33779D01*
X45278Y-33794D01*
X45307Y-33822D01*
X45321Y-33865D01*
X45321Y-33894D01*
X45321Y-33637D02*
X45021Y-33637D01*
X45021Y-33522D01*
X45035Y-33494D01*
X45050Y-33480D01*
X45078Y-33465D01*
X45121Y-33465D01*
X45150Y-33480D01*
X45164Y-33494D01*
X45178Y-33522D01*
X45178Y-33637D01*
X45050Y-33351D02*
X45035Y-33337D01*
X45021Y-33308D01*
X45021Y-33237D01*
X45035Y-33208D01*
X45050Y-33194D01*
X45078Y-33180D01*
X45107Y-33180D01*
X45150Y-33194D01*
X45321Y-33365D01*
X45321Y-33180D01*
G54D14*
X25992Y-36970D02*
X25992Y-36770D01*
X26040Y-36770D01*
X26068Y-36780D01*
X26087Y-36799D01*
X26097Y-36818D01*
X26106Y-36856D01*
X26106Y-36885D01*
X26097Y-36923D01*
X26087Y-36942D01*
X26068Y-36961D01*
X26040Y-36970D01*
X25992Y-36970D01*
X26297Y-36970D02*
X26182Y-36970D01*
X26240Y-36970D02*
X26240Y-36770D01*
X26220Y-36799D01*
X26201Y-36818D01*
X26182Y-36828D01*
X26011Y-37770D02*
X25916Y-37770D01*
X25916Y-37570D01*
X26078Y-37666D02*
X26144Y-37666D01*
X26173Y-37770D02*
X26078Y-37770D01*
X26078Y-37570D01*
X26173Y-37570D01*
X26259Y-37770D02*
X26259Y-37570D01*
X26306Y-37570D01*
X26335Y-37580D01*
X26354Y-37599D01*
X26363Y-37618D01*
X26373Y-37656D01*
X26373Y-37685D01*
X26363Y-37723D01*
X26354Y-37742D01*
X26335Y-37761D01*
X26306Y-37770D01*
X26259Y-37770D01*
G54D10*
X24120Y-25671D02*
X24120Y-25952D01*
X24101Y-26008D01*
X24064Y-26046D01*
X24008Y-26064D01*
X23970Y-26064D01*
X24308Y-26064D02*
X24308Y-25671D01*
X24458Y-25671D01*
X24495Y-25689D01*
X24514Y-25708D01*
X24533Y-25746D01*
X24533Y-25802D01*
X24514Y-25839D01*
X24495Y-25858D01*
X24458Y-25877D01*
X24308Y-25877D01*
X24908Y-26064D02*
X24683Y-26064D01*
X24795Y-26064D02*
X24795Y-25671D01*
X24758Y-25727D01*
X24720Y-25764D01*
X24683Y-25783D01*
G54D20*
X38837Y-26117D02*
X38777Y-26117D01*
X38777Y-26222D02*
X38777Y-26022D01*
X38863Y-26022D01*
X39026Y-26222D02*
X38923Y-26222D01*
X38974Y-26222D02*
X38974Y-26022D01*
X38957Y-26051D01*
X38940Y-26070D01*
X38923Y-26079D01*
M02*
