G04 (created by PCBNEW (2013-mar-13)-testing) date Sat 16 Nov 2013 03:56:29 AM CET*
%MOIN*%
G04 Gerber Fmt 3.4, Leading zero omitted, Abs format*
%FSLAX34Y34*%
G01*
G70*
G90*
G04 APERTURE LIST*
%ADD10C,0.005906*%
%ADD11R,0.045000X0.025000*%
%ADD12C,0.040000*%
%ADD13R,0.025000X0.045000*%
%ADD14R,0.015700X0.023600*%
%ADD15R,0.023600X0.015700*%
%ADD16C,0.078740*%
%ADD17R,0.045000X0.020000*%
%ADD18C,0.086614*%
%ADD19R,0.035433X0.011811*%
%ADD20R,0.086614X0.053150*%
%ADD21C,0.059055*%
%ADD22C,0.118110*%
%ADD23C,0.035000*%
%ADD24C,0.008200*%
%ADD25C,0.011811*%
%ADD26C,0.027000*%
%ADD27C,0.010000*%
G04 APERTURE END LIST*
G54D10*
G54D11*
X89900Y-58500D03*
X89900Y-57900D03*
X55000Y-45300D03*
X55000Y-44700D03*
X59000Y-45300D03*
X59000Y-44700D03*
G54D12*
X88470Y-58240D03*
X54300Y-47098D03*
X54300Y-47698D03*
X58700Y-48698D03*
X58700Y-49298D03*
X54300Y-50098D03*
X54300Y-50698D03*
X58700Y-51698D03*
X58700Y-52298D03*
X54300Y-53198D03*
X54300Y-53798D03*
X58700Y-54698D03*
X58700Y-55298D03*
X54300Y-56198D03*
X54300Y-56798D03*
G54D13*
X57000Y-44800D03*
X56400Y-44800D03*
X53300Y-45700D03*
X53900Y-45700D03*
X57600Y-45600D03*
X58200Y-45600D03*
X53300Y-44800D03*
X53900Y-44800D03*
X57000Y-45600D03*
X56400Y-45600D03*
G54D14*
X60577Y-54798D03*
X60223Y-54798D03*
X60577Y-55198D03*
X60223Y-55198D03*
X56177Y-56698D03*
X55823Y-56698D03*
X56177Y-56298D03*
X55823Y-56298D03*
X56177Y-53698D03*
X55823Y-53698D03*
X56177Y-53298D03*
X55823Y-53298D03*
X60577Y-52198D03*
X60223Y-52198D03*
X60577Y-51798D03*
X60223Y-51798D03*
X56177Y-50598D03*
X55823Y-50598D03*
X56177Y-50198D03*
X55823Y-50198D03*
X60577Y-49198D03*
X60223Y-49198D03*
X60577Y-48798D03*
X60223Y-48798D03*
X56177Y-47598D03*
X55823Y-47598D03*
X56177Y-47198D03*
X55823Y-47198D03*
G54D15*
X55300Y-47221D03*
X55300Y-47575D03*
X59700Y-48821D03*
X59700Y-49175D03*
X55300Y-50221D03*
X55300Y-50575D03*
X59700Y-51821D03*
X59700Y-52175D03*
X55300Y-53321D03*
X55300Y-53675D03*
X55300Y-56321D03*
X55300Y-56675D03*
X59700Y-55175D03*
X59700Y-54821D03*
G54D11*
X90570Y-58500D03*
X90570Y-57900D03*
G54D16*
X92550Y-54984D03*
X92550Y-53015D03*
G54D12*
X61500Y-46100D03*
X89450Y-54100D03*
G54D17*
X89170Y-55920D03*
X89170Y-56420D03*
X89170Y-56920D03*
X89170Y-57420D03*
X86670Y-57420D03*
X86670Y-56920D03*
X86670Y-56420D03*
X86670Y-55920D03*
G54D18*
X45275Y-45275D03*
X45275Y-57086D03*
G54D19*
X46397Y-53051D03*
X44153Y-53051D03*
X46397Y-52854D03*
X44153Y-52854D03*
X46397Y-52657D03*
X44153Y-52657D03*
X46397Y-52460D03*
X44153Y-52460D03*
X46397Y-52263D03*
X44153Y-52263D03*
X46397Y-52066D03*
X44153Y-52066D03*
X46397Y-51870D03*
X44153Y-51870D03*
X46397Y-51673D03*
X44153Y-51673D03*
X46397Y-51476D03*
X44153Y-51476D03*
X46397Y-51279D03*
X44153Y-51279D03*
X46397Y-51082D03*
X44153Y-51082D03*
X46397Y-50885D03*
X44153Y-50885D03*
X46397Y-50688D03*
X44153Y-50688D03*
X46397Y-50492D03*
X44153Y-50492D03*
X46397Y-50295D03*
X44153Y-50295D03*
X46397Y-50098D03*
X44153Y-50098D03*
X46397Y-49901D03*
X44153Y-49901D03*
X46397Y-49704D03*
X44153Y-49704D03*
X46397Y-49507D03*
X44153Y-49507D03*
X46397Y-49311D03*
X44153Y-49311D03*
G54D20*
X45039Y-53909D03*
X45039Y-48454D03*
G54D18*
X42519Y-48031D03*
X42519Y-54330D03*
G54D21*
X87383Y-50806D03*
X87383Y-52306D03*
X86883Y-50056D03*
X86883Y-51556D03*
X86383Y-50806D03*
X86383Y-52306D03*
X85883Y-50056D03*
X85883Y-51556D03*
X85383Y-50806D03*
X85383Y-52306D03*
X84883Y-50056D03*
X84883Y-51556D03*
X84383Y-50806D03*
X84383Y-52306D03*
X83883Y-50056D03*
X83883Y-51556D03*
X83383Y-50806D03*
X83383Y-52306D03*
X82883Y-50056D03*
X82883Y-51556D03*
X82383Y-50806D03*
X82383Y-52306D03*
X81883Y-50056D03*
X81883Y-51556D03*
X81383Y-50806D03*
X81383Y-52306D03*
X80883Y-50056D03*
X80883Y-51556D03*
X80383Y-50806D03*
X80383Y-52306D03*
X79883Y-50056D03*
X79883Y-51556D03*
X79383Y-50806D03*
X79383Y-52306D03*
X78883Y-50056D03*
X78883Y-51556D03*
X78383Y-50806D03*
X78383Y-52306D03*
X77883Y-50056D03*
X77883Y-51556D03*
X77383Y-50806D03*
X77383Y-52306D03*
X76883Y-50056D03*
X76883Y-51556D03*
X76383Y-50806D03*
X76383Y-52306D03*
X75883Y-50056D03*
X75883Y-51556D03*
X75383Y-50806D03*
X75383Y-52306D03*
X74883Y-50056D03*
X74883Y-51556D03*
X74383Y-50806D03*
X74383Y-52306D03*
X73883Y-50056D03*
X73883Y-51556D03*
X73383Y-50806D03*
X73383Y-52306D03*
X72883Y-50056D03*
X72883Y-51556D03*
X72383Y-50806D03*
X72383Y-52306D03*
X71883Y-50056D03*
X71883Y-51556D03*
X71383Y-50806D03*
X71383Y-52306D03*
X70883Y-50056D03*
X70883Y-51556D03*
G54D22*
X67733Y-51181D03*
X90533Y-51181D03*
G54D18*
X90551Y-51181D03*
X92519Y-45275D03*
X92519Y-57086D03*
G54D12*
X61500Y-44300D03*
X51100Y-44400D03*
X51100Y-46600D03*
G54D23*
X91030Y-57420D03*
X57290Y-44000D03*
X55310Y-46200D03*
X59280Y-46590D03*
X81530Y-54340D03*
X81530Y-53730D03*
X40452Y-50787D03*
X40000Y-49600D03*
X90080Y-56990D03*
X91399Y-58373D03*
X40944Y-49606D03*
X40452Y-49606D03*
X40944Y-50787D03*
X40000Y-50800D03*
X85705Y-57805D03*
X85715Y-55615D03*
X85705Y-57130D03*
X85705Y-56245D03*
X58300Y-44700D03*
X55800Y-45600D03*
X54400Y-44800D03*
X45030Y-47280D03*
X45030Y-55110D03*
X43428Y-53291D03*
X42973Y-53291D03*
X43246Y-51184D03*
X47471Y-51147D03*
X90080Y-56420D03*
X90500Y-55920D03*
X90270Y-54110D03*
X83920Y-48350D03*
X83950Y-47770D03*
X62500Y-44300D03*
X40354Y-47539D03*
X40354Y-47933D03*
X40452Y-54429D03*
X40452Y-54035D03*
X62500Y-46100D03*
X40944Y-52362D03*
X40452Y-52362D03*
X40944Y-51574D03*
X40452Y-51574D03*
G54D24*
X88470Y-58240D02*
X88920Y-58240D01*
X89260Y-57900D02*
X89900Y-57900D01*
X88920Y-58240D02*
X89260Y-57900D01*
X51100Y-44400D02*
X52330Y-44400D01*
X52420Y-44310D02*
X52420Y-44312D01*
X52330Y-44400D02*
X52420Y-44310D01*
G54D25*
X90570Y-57900D02*
X90570Y-57579D01*
X90570Y-57579D02*
X90411Y-57420D01*
X89900Y-57900D02*
X89900Y-57574D01*
X89900Y-57574D02*
X89746Y-57420D01*
X91030Y-57420D02*
X90411Y-57420D01*
X90411Y-57420D02*
X89746Y-57420D01*
X89746Y-57420D02*
X89170Y-57420D01*
G54D24*
X57290Y-44000D02*
X52732Y-44000D01*
G54D25*
X47421Y-49311D02*
X46397Y-49311D01*
G54D24*
X52732Y-44000D02*
X52420Y-44312D01*
X52420Y-44312D02*
X47421Y-49311D01*
X56400Y-44320D02*
X56400Y-44800D01*
X56690Y-44030D02*
X56400Y-44320D01*
X57260Y-44030D02*
X56690Y-44030D01*
X57290Y-44000D02*
X57260Y-44030D01*
X53900Y-45700D02*
X54810Y-45700D01*
X54810Y-45700D02*
X55310Y-46200D01*
X55000Y-45300D02*
X55000Y-45890D01*
X55000Y-45890D02*
X55310Y-46200D01*
X59280Y-46590D02*
X59000Y-46310D01*
X58200Y-45600D02*
X58290Y-45600D01*
X58290Y-45600D02*
X59000Y-46310D01*
X59000Y-45300D02*
X59000Y-46310D01*
X62850Y-55090D02*
X60685Y-55090D01*
X62850Y-55090D02*
X64150Y-56390D01*
X64150Y-56390D02*
X81170Y-56390D01*
X81170Y-56390D02*
X82890Y-54670D01*
X82890Y-54670D02*
X82890Y-52190D01*
X82890Y-52190D02*
X82340Y-51640D01*
X82340Y-51640D02*
X82340Y-51380D01*
X82340Y-51380D02*
X81883Y-50923D01*
X81883Y-50056D02*
X81883Y-50923D01*
X60685Y-55090D02*
X60577Y-55198D01*
X60577Y-55165D02*
X60652Y-55090D01*
X60577Y-55198D02*
X60577Y-55165D01*
X62897Y-54922D02*
X60652Y-54922D01*
X60577Y-54847D02*
X60650Y-54920D01*
X60577Y-54847D02*
X60577Y-54798D01*
X60652Y-54922D02*
X60650Y-54920D01*
X62897Y-54922D02*
X64212Y-56237D01*
X64212Y-56237D02*
X81107Y-56237D01*
X81107Y-56237D02*
X82737Y-54607D01*
X82737Y-54607D02*
X82737Y-52690D01*
X82737Y-52690D02*
X82383Y-52335D01*
X82383Y-52335D02*
X82383Y-52306D01*
X79550Y-55200D02*
X79550Y-55202D01*
X79552Y-55202D02*
X79550Y-55200D01*
X80667Y-55202D02*
X79552Y-55202D01*
X81530Y-54340D02*
X80667Y-55202D01*
X63337Y-53572D02*
X64967Y-55202D01*
X64967Y-55202D02*
X79550Y-55202D01*
X79550Y-55202D02*
X79607Y-55202D01*
X63337Y-53572D02*
X63320Y-53572D01*
X58030Y-53572D02*
X63320Y-53572D01*
X63320Y-53572D02*
X63322Y-53572D01*
X56177Y-53698D02*
X56177Y-53635D01*
X56240Y-53572D02*
X58030Y-53572D01*
X58030Y-53572D02*
X58100Y-53572D01*
X56177Y-53635D02*
X56240Y-53572D01*
X79200Y-55045D02*
X80215Y-55045D01*
X81530Y-53730D02*
X80760Y-54500D01*
X63400Y-53420D02*
X63390Y-53420D01*
X65025Y-55045D02*
X79200Y-55045D01*
X63400Y-53420D02*
X65025Y-55045D01*
X80215Y-55045D02*
X80760Y-54500D01*
X58140Y-53420D02*
X63390Y-53420D01*
X63390Y-53420D02*
X63410Y-53420D01*
X56177Y-53298D02*
X56177Y-53367D01*
X56230Y-53420D02*
X58140Y-53420D01*
X58140Y-53420D02*
X58190Y-53420D01*
X56177Y-53367D02*
X56230Y-53420D01*
G54D25*
X44153Y-50492D02*
X43602Y-50492D01*
X43602Y-50492D02*
X43405Y-50295D01*
X44153Y-50098D02*
X43602Y-50098D01*
X43602Y-50098D02*
X43405Y-50295D01*
X44153Y-50492D02*
X40748Y-50492D01*
X40748Y-50492D02*
X40452Y-50787D01*
X44153Y-50295D02*
X43804Y-50295D01*
X43804Y-50295D02*
X43405Y-50295D01*
X44153Y-50098D02*
X43731Y-50098D01*
X40354Y-50098D02*
X40000Y-49600D01*
X43731Y-50098D02*
X40354Y-50098D01*
X89170Y-56920D02*
X90010Y-56920D01*
X90010Y-56920D02*
X90080Y-56990D01*
X90570Y-58500D02*
X91272Y-58500D01*
X91272Y-58500D02*
X91399Y-58373D01*
X89900Y-58500D02*
X90570Y-58500D01*
X44153Y-49704D02*
X41043Y-49704D01*
X41043Y-49704D02*
X40944Y-49606D01*
X44153Y-49901D02*
X40748Y-49901D01*
X40748Y-49901D02*
X40452Y-49606D01*
X44153Y-50688D02*
X41043Y-50688D01*
X41043Y-50688D02*
X40944Y-50787D01*
X43405Y-50295D02*
X40354Y-50295D01*
X40354Y-50295D02*
X40000Y-50800D01*
X86670Y-57420D02*
X86090Y-57420D01*
X86090Y-57420D02*
X85705Y-57805D01*
X86670Y-55920D02*
X86020Y-55920D01*
X86020Y-55920D02*
X85715Y-55615D01*
X86670Y-56920D02*
X85915Y-56920D01*
X85915Y-56920D02*
X85705Y-57130D01*
X86670Y-56420D02*
X85880Y-56420D01*
X85880Y-56420D02*
X85705Y-56245D01*
G54D24*
X59000Y-44700D02*
X58300Y-44700D01*
X56400Y-45600D02*
X55800Y-45600D01*
X55000Y-44700D02*
X54500Y-44700D01*
X54400Y-44800D02*
X53900Y-44800D01*
X54500Y-44700D02*
X54400Y-44800D01*
G54D25*
X45039Y-48454D02*
X45039Y-47289D01*
X45039Y-47289D02*
X45030Y-47280D01*
X45039Y-53909D02*
X45039Y-55100D01*
X45039Y-55100D02*
X45030Y-55110D01*
X44153Y-53051D02*
X43667Y-53051D01*
X43667Y-53051D02*
X43428Y-53291D01*
X44153Y-52854D02*
X43409Y-52854D01*
X43409Y-52854D02*
X42973Y-53291D01*
G54D24*
X46397Y-51279D02*
X47338Y-51279D01*
X47338Y-51279D02*
X47471Y-51147D01*
X47406Y-51082D02*
X47471Y-51147D01*
X47406Y-51082D02*
X46397Y-51082D01*
X44153Y-51279D02*
X43341Y-51279D01*
X43347Y-51082D02*
X43246Y-51184D01*
X43347Y-51082D02*
X44153Y-51082D01*
X43341Y-51279D02*
X43246Y-51184D01*
X90080Y-56420D02*
X89170Y-56420D01*
X90500Y-55920D02*
X89170Y-55920D01*
X57000Y-45600D02*
X57000Y-44800D01*
X57000Y-45600D02*
X57600Y-45600D01*
X89450Y-54100D02*
X90260Y-54100D01*
X90260Y-54100D02*
X90270Y-54110D01*
X51100Y-46600D02*
X50430Y-46600D01*
X50320Y-46710D02*
X50320Y-46720D01*
X50430Y-46600D02*
X50320Y-46710D01*
X53300Y-45700D02*
X53300Y-44800D01*
X53320Y-45650D02*
X53250Y-45650D01*
X53250Y-45650D02*
X53300Y-45700D01*
X51390Y-45650D02*
X53320Y-45650D01*
X53320Y-45650D02*
X53330Y-45650D01*
X47520Y-49507D02*
X47532Y-49507D01*
X47532Y-49507D02*
X50320Y-46720D01*
X50320Y-46720D02*
X51390Y-45650D01*
G54D25*
X46397Y-49507D02*
X47520Y-49507D01*
X47520Y-49507D02*
X47578Y-49507D01*
G54D24*
X56770Y-47472D02*
X62892Y-47472D01*
X85883Y-50673D02*
X85883Y-51556D01*
X85400Y-50190D02*
X85883Y-50673D01*
X85400Y-49940D02*
X85400Y-50190D01*
X85731Y-49608D02*
X85400Y-49940D01*
X85731Y-47836D02*
X85731Y-49608D01*
X84037Y-46142D02*
X85731Y-47836D01*
X64222Y-46142D02*
X84037Y-46142D01*
X62892Y-47472D02*
X64222Y-46142D01*
X56177Y-47598D02*
X56177Y-47595D01*
X56300Y-47472D02*
X56770Y-47472D01*
X56770Y-47472D02*
X56880Y-47472D01*
X56177Y-47595D02*
X56300Y-47472D01*
X56840Y-47320D02*
X62830Y-47320D01*
X85883Y-47773D02*
X85883Y-50056D01*
X84100Y-45990D02*
X85883Y-47773D01*
X64160Y-45990D02*
X84100Y-45990D01*
X62830Y-47320D02*
X64160Y-45990D01*
X56177Y-47198D02*
X56177Y-47217D01*
X56280Y-47320D02*
X56840Y-47320D01*
X56840Y-47320D02*
X56930Y-47320D01*
X56177Y-47217D02*
X56280Y-47320D01*
X63437Y-49072D02*
X63447Y-49072D01*
X61980Y-49072D02*
X63437Y-49072D01*
X82892Y-47322D02*
X83920Y-48350D01*
X65197Y-47322D02*
X82892Y-47322D01*
X63447Y-49072D02*
X65197Y-47322D01*
X60577Y-49198D02*
X60577Y-49185D01*
X60690Y-49072D02*
X61980Y-49072D01*
X61980Y-49072D02*
X61990Y-49072D01*
X61990Y-49072D02*
X62030Y-49072D01*
X60577Y-49185D02*
X60690Y-49072D01*
X63375Y-48920D02*
X63375Y-48914D01*
X62000Y-48920D02*
X63375Y-48920D01*
X83350Y-47170D02*
X83950Y-47770D01*
X65120Y-47170D02*
X83350Y-47170D01*
X63375Y-48914D02*
X65120Y-47170D01*
X60577Y-48798D02*
X60577Y-48817D01*
X60680Y-48920D02*
X62000Y-48920D01*
X62000Y-48920D02*
X61970Y-48920D01*
X61970Y-48920D02*
X62030Y-48920D01*
X60577Y-48817D02*
X60680Y-48920D01*
X57370Y-56572D02*
X57652Y-56572D01*
X83766Y-50806D02*
X83383Y-50806D01*
X84360Y-51400D02*
X83766Y-50806D01*
X84360Y-51710D02*
X84360Y-51400D01*
X83952Y-52117D02*
X84360Y-51710D01*
X83952Y-56262D02*
X83952Y-52117D01*
X82652Y-57562D02*
X83952Y-56262D01*
X58642Y-57562D02*
X82652Y-57562D01*
X57652Y-56572D02*
X58642Y-57562D01*
X56177Y-56698D02*
X56177Y-56665D01*
X56270Y-56572D02*
X57370Y-56572D01*
X57370Y-56572D02*
X57430Y-56572D01*
X56177Y-56665D02*
X56270Y-56572D01*
X57330Y-56420D02*
X57750Y-56420D01*
X83800Y-51639D02*
X83883Y-51556D01*
X83800Y-56200D02*
X83800Y-51639D01*
X82590Y-57410D02*
X83800Y-56200D01*
X58740Y-57410D02*
X82590Y-57410D01*
X57750Y-56420D02*
X58740Y-57410D01*
X56177Y-56298D02*
X56177Y-56337D01*
X56260Y-56420D02*
X57330Y-56420D01*
X57330Y-56420D02*
X57450Y-56420D01*
X56177Y-56337D02*
X56260Y-56420D01*
X62280Y-52072D02*
X64112Y-52072D01*
X78756Y-50806D02*
X78383Y-50806D01*
X79390Y-51440D02*
X78756Y-50806D01*
X79390Y-51710D02*
X79390Y-51440D01*
X78970Y-52130D02*
X79390Y-51710D01*
X78970Y-52810D02*
X78970Y-52130D01*
X77740Y-54040D02*
X78970Y-52810D01*
X66080Y-54040D02*
X77740Y-54040D01*
X64112Y-52072D02*
X66080Y-54040D01*
X60577Y-52198D02*
X60577Y-52155D01*
X60660Y-52072D02*
X62280Y-52072D01*
X62280Y-52072D02*
X62290Y-52072D01*
X60577Y-52155D02*
X60660Y-52072D01*
X62220Y-51920D02*
X64184Y-51920D01*
X78817Y-51621D02*
X78883Y-51556D01*
X78817Y-52747D02*
X78817Y-51621D01*
X77685Y-53880D02*
X78817Y-52747D01*
X66144Y-53880D02*
X77685Y-53880D01*
X64184Y-51920D02*
X66144Y-53880D01*
X60577Y-51798D02*
X60577Y-51847D01*
X60650Y-51920D02*
X62220Y-51920D01*
X62220Y-51920D02*
X62290Y-51920D01*
X60577Y-51847D02*
X60650Y-51920D01*
G54D25*
X47559Y-52854D02*
X48958Y-53984D01*
G54D26*
X51695Y-56308D02*
X48958Y-53984D01*
X51695Y-56308D02*
X55300Y-56321D01*
G54D25*
X46397Y-52854D02*
X47559Y-52854D01*
X47559Y-52854D02*
X47578Y-52854D01*
G54D26*
X55300Y-56321D02*
X54423Y-56321D01*
X54423Y-56321D02*
X54300Y-56198D01*
X55300Y-56321D02*
X55800Y-56321D01*
X55800Y-56321D02*
X55823Y-56298D01*
G54D25*
X47421Y-53051D02*
X48748Y-54271D01*
G54D26*
X51555Y-56672D02*
X48748Y-54271D01*
X51555Y-56672D02*
X55300Y-56675D01*
G54D25*
X46397Y-53051D02*
X47421Y-53051D01*
X47421Y-53051D02*
X47432Y-53051D01*
X47432Y-53051D02*
X47440Y-53042D01*
G54D26*
X55800Y-56675D02*
X55823Y-56698D01*
X55300Y-56675D02*
X55800Y-56675D01*
X55300Y-56675D02*
X54423Y-56675D01*
X54423Y-56675D02*
X54300Y-56798D01*
X59700Y-54821D02*
X58823Y-54821D01*
X58823Y-54821D02*
X58700Y-54698D01*
X60223Y-54798D02*
X59736Y-54798D01*
X59699Y-54835D02*
X59700Y-54821D01*
X59736Y-54798D02*
X59699Y-54835D01*
G54D25*
X47814Y-52460D02*
X49420Y-53200D01*
G54D26*
X52660Y-54820D02*
X49420Y-53200D01*
X52660Y-54820D02*
X59700Y-54821D01*
G54D25*
X46397Y-52460D02*
X47814Y-52460D01*
X47814Y-52460D02*
X47825Y-52460D01*
X47825Y-52460D02*
X47834Y-52451D01*
G54D26*
X59700Y-55175D02*
X60200Y-55175D01*
X60200Y-55175D02*
X60223Y-55198D01*
X59700Y-55175D02*
X58823Y-55175D01*
X58823Y-55175D02*
X58700Y-55298D01*
G54D25*
X47696Y-52657D02*
X49250Y-53510D01*
G54D26*
X52490Y-55180D02*
X49250Y-53510D01*
X52490Y-55180D02*
X59700Y-55175D01*
G54D25*
X46397Y-52657D02*
X47696Y-52657D01*
X47696Y-52657D02*
X47716Y-52657D01*
X47696Y-49704D02*
X49240Y-48840D01*
X46397Y-49704D02*
X47696Y-49704D01*
G54D26*
X49240Y-48840D02*
X52481Y-47198D01*
X55823Y-47198D02*
X52481Y-47198D01*
X52481Y-47198D02*
X52470Y-47210D01*
X54423Y-47221D02*
X54300Y-47098D01*
X55300Y-47221D02*
X54423Y-47221D01*
X55300Y-47221D02*
X55800Y-47221D01*
X55800Y-47221D02*
X55823Y-47198D01*
G54D25*
X47795Y-49901D02*
X49420Y-49140D01*
X46397Y-49901D02*
X47795Y-49901D01*
G54D26*
X49420Y-49140D02*
X52664Y-47575D01*
X55300Y-47575D02*
X52664Y-47575D01*
X52664Y-47575D02*
X52660Y-47580D01*
X55800Y-47575D02*
X55823Y-47598D01*
X55300Y-47575D02*
X55800Y-47575D01*
X55300Y-47575D02*
X54423Y-47575D01*
X54423Y-47575D02*
X54300Y-47698D01*
X59700Y-48821D02*
X58823Y-48821D01*
X58823Y-48821D02*
X58700Y-48698D01*
X60223Y-48798D02*
X59723Y-48798D01*
X59723Y-48798D02*
X59700Y-48821D01*
G54D25*
X47893Y-50098D02*
X49610Y-49630D01*
X46397Y-50098D02*
X47893Y-50098D01*
G54D26*
X49610Y-49630D02*
X53141Y-48821D01*
X59700Y-48821D02*
X53141Y-48821D01*
X53141Y-48821D02*
X53140Y-48820D01*
X59700Y-49175D02*
X58823Y-49175D01*
X58823Y-49175D02*
X58700Y-49298D01*
X60223Y-49198D02*
X59723Y-49198D01*
X59723Y-49198D02*
X59700Y-49175D01*
G54D25*
X47972Y-50295D02*
X49710Y-49960D01*
X46397Y-50295D02*
X47972Y-50295D01*
G54D26*
X49710Y-49960D02*
X53250Y-49175D01*
X59700Y-49175D02*
X53250Y-49175D01*
X53250Y-49175D02*
X53244Y-49175D01*
X53244Y-49175D02*
X53240Y-49180D01*
G54D25*
X48011Y-50492D02*
X49800Y-50340D01*
X46397Y-50492D02*
X48011Y-50492D01*
G54D26*
X49800Y-50340D02*
X53450Y-50221D01*
X55300Y-50221D02*
X53450Y-50221D01*
X53450Y-50221D02*
X53431Y-50221D01*
X53431Y-50221D02*
X53430Y-50220D01*
X55300Y-50221D02*
X54423Y-50221D01*
X54423Y-50221D02*
X54300Y-50098D01*
X55300Y-50221D02*
X55800Y-50221D01*
X55800Y-50221D02*
X55823Y-50198D01*
G54D25*
X50796Y-50652D02*
X48051Y-50688D01*
X48051Y-50688D02*
X46397Y-50688D01*
G54D26*
X53474Y-50575D02*
X50796Y-50652D01*
X50796Y-50652D02*
X49840Y-50680D01*
X55300Y-50575D02*
X53474Y-50575D01*
X53474Y-50575D02*
X53470Y-50580D01*
X55800Y-50575D02*
X55823Y-50598D01*
X55300Y-50575D02*
X55800Y-50575D01*
X55300Y-50575D02*
X54423Y-50575D01*
X54423Y-50575D02*
X54300Y-50698D01*
X59700Y-51821D02*
X58823Y-51821D01*
X58823Y-51821D02*
X58700Y-51698D01*
X59700Y-51821D02*
X60200Y-51821D01*
X60200Y-51821D02*
X60223Y-51798D01*
G54D25*
X48070Y-51673D02*
X49840Y-51670D01*
X46397Y-51673D02*
X48070Y-51673D01*
G54D26*
X49840Y-51670D02*
X53461Y-51821D01*
X59700Y-51821D02*
X53461Y-51821D01*
X53461Y-51821D02*
X53460Y-51820D01*
X59700Y-52175D02*
X58823Y-52175D01*
X58823Y-52175D02*
X58700Y-52298D01*
X59700Y-52175D02*
X60200Y-52175D01*
X60200Y-52175D02*
X60223Y-52198D01*
G54D25*
X48011Y-51870D02*
X49790Y-52010D01*
X46397Y-51870D02*
X48011Y-51870D01*
G54D26*
X49790Y-52010D02*
X53434Y-52175D01*
X59700Y-52175D02*
X53434Y-52175D01*
X53434Y-52175D02*
X53430Y-52180D01*
G54D25*
X47963Y-52066D02*
X49700Y-52430D01*
G54D26*
X53179Y-53305D02*
X49700Y-52430D01*
X53179Y-53305D02*
X55300Y-53321D01*
G54D25*
X46397Y-52066D02*
X47963Y-52066D01*
X47963Y-52066D02*
X47972Y-52058D01*
G54D26*
X55300Y-53321D02*
X54423Y-53321D01*
X54423Y-53321D02*
X54300Y-53198D01*
X55300Y-53321D02*
X55800Y-53321D01*
X55800Y-53321D02*
X55823Y-53298D01*
G54D25*
X47893Y-52263D02*
X49609Y-52759D01*
G54D26*
X53123Y-53676D02*
X49609Y-52759D01*
X53123Y-53676D02*
X55300Y-53675D01*
G54D25*
X46397Y-52263D02*
X47893Y-52263D01*
X47893Y-52263D02*
X47913Y-52263D01*
G54D26*
X55800Y-53675D02*
X55823Y-53698D01*
X55300Y-53675D02*
X55800Y-53675D01*
X55300Y-53675D02*
X54423Y-53675D01*
X54423Y-53675D02*
X54300Y-53798D01*
X54423Y-53675D02*
X54300Y-53798D01*
G54D24*
X58590Y-50482D02*
X64207Y-50482D01*
X77883Y-50673D02*
X77883Y-51556D01*
X77350Y-50140D02*
X77883Y-50673D01*
X77350Y-49420D02*
X77350Y-50140D01*
X76432Y-48502D02*
X77350Y-49420D01*
X66187Y-48502D02*
X76432Y-48502D01*
X64207Y-50482D02*
X66187Y-48502D01*
X56177Y-50598D02*
X56177Y-50565D01*
X56260Y-50482D02*
X58590Y-50482D01*
X58590Y-50482D02*
X58670Y-50482D01*
X56177Y-50565D02*
X56260Y-50482D01*
X58670Y-50330D02*
X64140Y-50330D01*
X77883Y-49353D02*
X77883Y-50056D01*
X76880Y-48350D02*
X77883Y-49353D01*
X66120Y-48350D02*
X76880Y-48350D01*
X64140Y-50330D02*
X66120Y-48350D01*
X56177Y-50198D02*
X56177Y-50257D01*
X56250Y-50330D02*
X58670Y-50330D01*
X58670Y-50330D02*
X58690Y-50330D01*
X56177Y-50257D02*
X56250Y-50330D01*
X61500Y-44300D02*
X62500Y-44300D01*
G54D25*
X44153Y-49311D02*
X42125Y-49311D01*
X42125Y-49311D02*
X40354Y-47539D01*
X44153Y-49507D02*
X41929Y-49507D01*
X41929Y-49507D02*
X40354Y-47933D01*
X44153Y-52657D02*
X42224Y-52657D01*
X42224Y-52657D02*
X40452Y-54429D01*
X44153Y-52460D02*
X42027Y-52460D01*
X42027Y-52460D02*
X40452Y-54035D01*
G54D24*
X61500Y-46100D02*
X62500Y-46100D01*
G54D25*
X44153Y-52263D02*
X41043Y-52263D01*
X41043Y-52263D02*
X40944Y-52362D01*
X44153Y-52066D02*
X40748Y-52066D01*
X40748Y-52066D02*
X40452Y-52362D01*
X44153Y-51673D02*
X41043Y-51673D01*
X41043Y-51673D02*
X40944Y-51574D01*
X44153Y-51870D02*
X40748Y-51870D01*
X40748Y-51870D02*
X40452Y-51574D01*
G54D10*
G36*
X41190Y-52607D02*
X40207Y-52607D01*
X40207Y-51329D01*
X41190Y-51329D01*
X41190Y-52607D01*
X41190Y-52607D01*
G37*
G54D27*
X41190Y-52607D02*
X40207Y-52607D01*
X40207Y-51329D01*
X41190Y-51329D01*
X41190Y-52607D01*
G54D10*
G36*
X41091Y-50934D02*
X39815Y-50934D01*
X39815Y-49459D01*
X41091Y-49459D01*
X41091Y-50934D01*
X41091Y-50934D01*
G37*
G54D27*
X41091Y-50934D02*
X39815Y-50934D01*
X39815Y-49459D01*
X41091Y-49459D01*
X41091Y-50934D01*
G54D10*
G36*
X40599Y-48178D02*
X40109Y-48178D01*
X40109Y-47294D01*
X40599Y-47294D01*
X40599Y-48178D01*
X40599Y-48178D01*
G37*
G54D27*
X40599Y-48178D02*
X40109Y-48178D01*
X40109Y-47294D01*
X40599Y-47294D01*
X40599Y-48178D01*
G54D10*
G36*
X40698Y-54674D02*
X40207Y-54674D01*
X40207Y-53790D01*
X40698Y-53790D01*
X40698Y-54674D01*
X40698Y-54674D01*
G37*
G54D27*
X40698Y-54674D02*
X40207Y-54674D01*
X40207Y-53790D01*
X40698Y-53790D01*
X40698Y-54674D01*
M02*
