M48
INCH,TZ
T1C0.025
T2C0.034
T3C0.039
T4C0.087
T5C0.109
%
G90
G05
T1
X40000Y-49600
X40000Y-50800
X40354Y-47539
X40354Y-47933
X40453Y-49606
X40453Y-50787
X40453Y-51575
X40453Y-52362
X40453Y-54035
X40453Y-54429
X40945Y-49606
X40945Y-50787
X40945Y-51575
X40945Y-52362
X42973Y-53291
X43246Y-51184
X43428Y-53291
X45030Y-47280
X45030Y-55110
X47471Y-51147
X54400Y-44800
X55310Y-46200
X55800Y-45600
X57290Y-44000
X58300Y-44700
X59280Y-46590
X62500Y-44300
X62500Y-46100
X81530Y-53730
X81530Y-54340
X83920Y-48350
X83950Y-47770
X85705Y-56245
X85705Y-57130
X85705Y-57805
X85715Y-55615
X90080Y-56420
X90080Y-56990
X90270Y-54110
X90500Y-55920
X91030Y-57420
X91399Y-58373
T2
X70884Y-50056
X70884Y-51556
X71384Y-50806
X71384Y-52306
X71884Y-50056
X71884Y-51556
X72384Y-50806
X72384Y-52306
X72884Y-50056
X72884Y-51556
X73384Y-50806
X73384Y-52306
X73884Y-50056
X73884Y-51556
X74384Y-50806
X74384Y-52306
X74884Y-50056
X74884Y-51556
X75384Y-50806
X75384Y-52306
X75884Y-50056
X75884Y-51556
X76384Y-50806
X76384Y-52306
X76884Y-50056
X76884Y-51556
X77384Y-50806
X77384Y-52306
X77884Y-50056
X77884Y-51556
X78384Y-50806
X78384Y-52306
X78884Y-50056
X78884Y-51556
X79384Y-50806
X79384Y-52306
X79884Y-50056
X79884Y-51556
X80384Y-50806
X80384Y-52306
X80884Y-50056
X80884Y-51556
X81384Y-50806
X81384Y-52306
X81884Y-50056
X81884Y-51556
X82384Y-50806
X82384Y-52306
X82884Y-50056
X82884Y-51556
X83384Y-50806
X83384Y-52306
X83884Y-50056
X83884Y-51556
X84384Y-50806
X84384Y-52306
X84884Y-50056
X84884Y-51556
X85384Y-50806
X85384Y-52306
X85884Y-50056
X85884Y-51556
X86384Y-50806
X86384Y-52306
X86884Y-50056
X86884Y-51556
X87384Y-50806
X87384Y-52306
T3
X92550Y-53016
X92550Y-54984
T4
X42520Y-48031
X42520Y-54331
X45276Y-45276
X45276Y-57087
X90551Y-51181
X92520Y-45276
X92520Y-57087
T5
X67734Y-51181
X90534Y-51181
T0
M30
