G04 (created by PCBNEW (2013-mar-13)-testing) date Sat 16 Nov 2013 03:56:29 AM CET*
%MOIN*%
G04 Gerber Fmt 3.4, Leading zero omitted, Abs format*
%FSLAX34Y34*%
G01*
G70*
G90*
G04 APERTURE LIST*
%ADD10C,0.005906*%
%ADD11C,0.078740*%
%ADD12C,0.086614*%
%ADD13C,0.059055*%
%ADD14C,0.118110*%
%ADD15C,0.035000*%
%ADD16C,0.011811*%
%ADD17C,0.008200*%
G04 APERTURE END LIST*
G54D10*
G54D11*
X92550Y-54984D03*
X92550Y-53015D03*
G54D12*
X45275Y-45275D03*
X45275Y-57086D03*
X42519Y-48031D03*
X42519Y-54330D03*
G54D13*
X87383Y-50806D03*
X87383Y-52306D03*
X86883Y-50056D03*
X86883Y-51556D03*
X86383Y-50806D03*
X86383Y-52306D03*
X85883Y-50056D03*
X85883Y-51556D03*
X85383Y-50806D03*
X85383Y-52306D03*
X84883Y-50056D03*
X84883Y-51556D03*
X84383Y-50806D03*
X84383Y-52306D03*
X83883Y-50056D03*
X83883Y-51556D03*
X83383Y-50806D03*
X83383Y-52306D03*
X82883Y-50056D03*
X82883Y-51556D03*
X82383Y-50806D03*
X82383Y-52306D03*
X81883Y-50056D03*
X81883Y-51556D03*
X81383Y-50806D03*
X81383Y-52306D03*
X80883Y-50056D03*
X80883Y-51556D03*
X80383Y-50806D03*
X80383Y-52306D03*
X79883Y-50056D03*
X79883Y-51556D03*
X79383Y-50806D03*
X79383Y-52306D03*
X78883Y-50056D03*
X78883Y-51556D03*
X78383Y-50806D03*
X78383Y-52306D03*
X77883Y-50056D03*
X77883Y-51556D03*
X77383Y-50806D03*
X77383Y-52306D03*
X76883Y-50056D03*
X76883Y-51556D03*
X76383Y-50806D03*
X76383Y-52306D03*
X75883Y-50056D03*
X75883Y-51556D03*
X75383Y-50806D03*
X75383Y-52306D03*
X74883Y-50056D03*
X74883Y-51556D03*
X74383Y-50806D03*
X74383Y-52306D03*
X73883Y-50056D03*
X73883Y-51556D03*
X73383Y-50806D03*
X73383Y-52306D03*
X72883Y-50056D03*
X72883Y-51556D03*
X72383Y-50806D03*
X72383Y-52306D03*
X71883Y-50056D03*
X71883Y-51556D03*
X71383Y-50806D03*
X71383Y-52306D03*
X70883Y-50056D03*
X70883Y-51556D03*
G54D14*
X67733Y-51181D03*
X90533Y-51181D03*
G54D12*
X90551Y-51181D03*
X92519Y-45275D03*
X92519Y-57086D03*
G54D15*
X91030Y-57420D03*
X57290Y-44000D03*
X55310Y-46200D03*
X59280Y-46590D03*
X81530Y-54340D03*
X81530Y-53730D03*
X40452Y-50787D03*
X40000Y-49600D03*
X90080Y-56990D03*
X91399Y-58373D03*
X40944Y-49606D03*
X40452Y-49606D03*
X40944Y-50787D03*
X40000Y-50800D03*
X85705Y-57805D03*
X85715Y-55615D03*
X85705Y-57130D03*
X85705Y-56245D03*
X58300Y-44700D03*
X55800Y-45600D03*
X54400Y-44800D03*
X45030Y-47280D03*
X45030Y-55110D03*
X43428Y-53291D03*
X42973Y-53291D03*
X43246Y-51184D03*
X47471Y-51147D03*
X90080Y-56420D03*
X90500Y-55920D03*
X90270Y-54110D03*
X83920Y-48350D03*
X83950Y-47770D03*
X62500Y-44300D03*
X40354Y-47539D03*
X40354Y-47933D03*
X40452Y-54429D03*
X40452Y-54035D03*
X62500Y-46100D03*
X40944Y-52362D03*
X40452Y-52362D03*
X40944Y-51574D03*
X40452Y-51574D03*
G54D16*
X91010Y-55790D02*
X91010Y-57400D01*
X84800Y-55035D02*
X90255Y-55035D01*
X90255Y-55035D02*
X91010Y-55790D01*
X91010Y-57400D02*
X91030Y-57420D01*
X75883Y-50928D02*
X75883Y-50056D01*
X76350Y-51395D02*
X75883Y-50928D01*
X76350Y-51645D02*
X76350Y-51395D01*
X76845Y-52140D02*
X76350Y-51645D01*
X76845Y-53880D02*
X76845Y-52140D01*
X78000Y-55035D02*
X76845Y-53880D01*
X84805Y-55035D02*
X84800Y-55035D01*
X84800Y-55035D02*
X78000Y-55035D01*
G54D17*
X75883Y-50056D02*
X75883Y-49023D01*
X58830Y-44000D02*
X57290Y-44000D01*
X62720Y-47890D02*
X58830Y-44000D01*
X65739Y-47890D02*
X62720Y-47890D01*
X65740Y-47890D02*
X65739Y-47890D01*
X74750Y-47890D02*
X65740Y-47890D01*
X75883Y-49023D02*
X74750Y-47890D01*
X55350Y-46240D02*
X59950Y-46240D01*
X73383Y-49163D02*
X73383Y-50806D01*
X62129Y-48419D02*
X66423Y-48419D01*
X66423Y-48419D02*
X66423Y-48420D01*
X66423Y-48420D02*
X72640Y-48420D01*
X72640Y-48420D02*
X73383Y-49163D01*
X59950Y-46240D02*
X62129Y-48419D01*
X55310Y-46200D02*
X55350Y-46240D01*
X66535Y-53820D02*
X64683Y-53820D01*
X59280Y-48416D02*
X59280Y-46590D01*
X64683Y-53820D02*
X59280Y-48416D01*
X73383Y-53376D02*
X73383Y-52306D01*
X72940Y-53820D02*
X73383Y-53376D01*
X66510Y-53820D02*
X66535Y-53820D01*
X66535Y-53820D02*
X72940Y-53820D01*
X82952Y-52912D02*
X82952Y-52917D01*
X82952Y-52912D02*
X82952Y-51624D01*
X82883Y-51556D02*
X82952Y-51624D01*
X82952Y-52917D02*
X81530Y-54340D01*
X81925Y-53725D02*
X81535Y-53725D01*
X81535Y-53725D02*
X81530Y-53730D01*
X82883Y-50926D02*
X82883Y-50056D01*
X81925Y-53725D02*
X82800Y-52850D01*
X82800Y-52850D02*
X82800Y-52130D01*
X82800Y-52130D02*
X82440Y-51770D01*
X82440Y-51770D02*
X82440Y-51370D01*
X82440Y-51370D02*
X82883Y-50926D01*
X81920Y-53730D02*
X81925Y-53725D01*
X89635Y-56650D02*
X89850Y-56650D01*
X77770Y-56650D02*
X89635Y-56650D01*
X74883Y-50056D02*
X74883Y-50928D01*
X75345Y-51390D02*
X74883Y-50928D01*
X75345Y-51660D02*
X75345Y-51390D01*
X75870Y-52185D02*
X75345Y-51660D01*
X75870Y-54750D02*
X75870Y-52185D01*
X77770Y-56650D02*
X75870Y-54750D01*
X89850Y-56650D02*
X90080Y-56420D01*
X84065Y-58415D02*
X90365Y-58415D01*
X84065Y-58415D02*
X75565Y-58415D01*
X75565Y-58415D02*
X74883Y-57733D01*
X74883Y-51556D02*
X74883Y-57733D01*
X90550Y-55970D02*
X90500Y-55920D01*
X90550Y-58230D02*
X90550Y-55970D01*
X90365Y-58415D02*
X90550Y-58230D01*
X84383Y-51433D02*
X84383Y-52306D01*
X83970Y-51020D02*
X84383Y-51433D01*
X83970Y-50600D02*
X83970Y-51020D01*
X84317Y-50252D02*
X83970Y-50600D01*
X84317Y-48747D02*
X84317Y-50252D01*
X83920Y-48350D02*
X84317Y-48747D01*
X84470Y-50719D02*
X84383Y-50806D01*
X84470Y-48290D02*
X84470Y-50719D01*
X83950Y-47770D02*
X84470Y-48290D01*
M02*
