G04 (created by PCBNEW (2013-jul-07)-stable) date Fri 02 May 2014 03:08:32 PM CDT*
%MOIN*%
G04 Gerber Fmt 3.4, Leading zero omitted, Abs format*
%FSLAX34Y34*%
G01*
G70*
G90*
G04 APERTURE LIST*
%ADD10C,0.00590551*%
%ADD11C,0.0590551*%
%ADD12C,0.11811*%
%ADD13R,0.06X0.06*%
%ADD14C,0.06*%
%ADD15C,0.0787402*%
%ADD16C,0.0866142*%
%ADD17C,0.035*%
%ADD18C,0.011811*%
%ADD19C,0.0082*%
%ADD20C,0.01*%
G04 APERTURE END LIST*
G54D10*
G54D11*
X51525Y-29750D03*
X51525Y-31250D03*
X51025Y-29000D03*
X51025Y-30500D03*
X50525Y-29750D03*
X50525Y-31250D03*
X50025Y-29000D03*
X50025Y-30500D03*
X49525Y-29750D03*
X49525Y-31250D03*
X49025Y-29000D03*
X49025Y-30500D03*
X48525Y-29750D03*
X48525Y-31250D03*
X48025Y-29000D03*
X48025Y-30500D03*
X47525Y-29750D03*
X47525Y-31250D03*
X47025Y-29000D03*
X47025Y-30500D03*
X46525Y-29750D03*
X46525Y-31250D03*
X46025Y-29000D03*
X46025Y-30500D03*
X45525Y-29750D03*
X45525Y-31250D03*
X45025Y-29000D03*
X45025Y-30500D03*
X44525Y-29750D03*
X44525Y-31250D03*
X44025Y-29000D03*
X44025Y-30500D03*
X43525Y-29750D03*
X43525Y-31250D03*
X43025Y-29000D03*
X43025Y-30500D03*
X42525Y-29750D03*
X42525Y-31250D03*
X42025Y-29000D03*
X42025Y-30500D03*
X41525Y-29750D03*
X41525Y-31250D03*
X41025Y-29000D03*
X41025Y-30500D03*
X40525Y-29750D03*
X40525Y-31250D03*
X40025Y-29000D03*
X40025Y-30500D03*
X39525Y-29750D03*
X39525Y-31250D03*
X39025Y-29000D03*
X39025Y-30500D03*
X38525Y-29750D03*
X38525Y-31250D03*
X38025Y-29000D03*
X38025Y-30500D03*
X37525Y-29750D03*
X37525Y-31250D03*
X37025Y-29000D03*
X37025Y-30500D03*
X36525Y-29750D03*
X36525Y-31250D03*
X36025Y-29000D03*
X36025Y-30500D03*
X35525Y-29750D03*
X35525Y-31250D03*
X35025Y-29000D03*
X35025Y-30500D03*
G54D12*
X31875Y-30125D03*
X54675Y-30125D03*
G54D13*
X44450Y-33030D03*
G54D14*
X44450Y-34030D03*
G54D15*
X23425Y-25196D03*
G54D16*
X25393Y-25196D03*
X57480Y-25196D03*
X57480Y-37795D03*
X21259Y-37795D03*
X21259Y-25196D03*
G54D17*
X26110Y-34890D03*
X55220Y-32690D03*
X40280Y-34650D03*
X37834Y-26141D03*
X36060Y-34650D03*
X38640Y-34680D03*
X34260Y-36110D03*
X34200Y-35300D03*
X37874Y-36181D03*
X54881Y-33661D03*
X52440Y-34488D03*
X52440Y-33700D03*
X55905Y-37992D03*
X55393Y-37992D03*
X54921Y-37992D03*
X54370Y-37992D03*
X26850Y-38031D03*
X24921Y-35000D03*
X23897Y-33779D03*
X23503Y-33779D03*
X23110Y-33779D03*
X22677Y-33779D03*
X22677Y-31771D03*
X22125Y-31771D03*
X22637Y-31259D03*
X22125Y-31259D03*
X23976Y-29173D03*
X23543Y-29173D03*
X23110Y-29173D03*
X22677Y-29173D03*
X25629Y-27716D03*
X23900Y-31510D03*
X27360Y-31510D03*
X57230Y-31680D03*
X57230Y-33500D03*
X24900Y-38500D03*
X40000Y-26141D03*
X36020Y-36770D03*
X26710Y-34890D03*
X23425Y-27795D03*
X25590Y-29720D03*
X25580Y-30220D03*
X22650Y-30150D03*
X22160Y-30160D03*
X23740Y-35590D03*
X25590Y-33310D03*
X25600Y-32770D03*
X22230Y-32980D03*
X22690Y-32970D03*
G54D18*
X35025Y-30500D02*
X35025Y-30505D01*
X26226Y-32126D02*
X25610Y-31510D01*
X33403Y-32126D02*
X26226Y-32126D01*
X35025Y-30505D02*
X33403Y-32126D01*
X23900Y-31510D02*
X25610Y-31510D01*
X25610Y-31510D02*
X27360Y-31510D01*
X27360Y-31510D02*
X27380Y-31490D01*
G54D19*
X44450Y-34030D02*
X44450Y-37080D01*
X43030Y-38500D02*
X24900Y-38500D01*
X44450Y-37080D02*
X43030Y-38500D01*
G54D18*
X45870Y-29750D02*
X45900Y-29750D01*
X45900Y-29750D02*
X46470Y-29180D01*
X45525Y-29750D02*
X45870Y-29750D01*
X46500Y-30350D02*
X46550Y-30350D01*
X45900Y-29750D02*
X46500Y-30350D01*
X47010Y-29600D02*
X47040Y-29600D01*
X47540Y-28630D02*
X46020Y-27110D01*
X47540Y-29100D02*
X47540Y-28630D01*
X47040Y-29600D02*
X47540Y-29100D01*
X45525Y-31250D02*
X45900Y-31250D01*
X45900Y-31250D02*
X46550Y-30600D01*
X46550Y-30600D02*
X46550Y-30350D01*
X46530Y-28660D02*
X46050Y-28180D01*
X46530Y-29120D02*
X46530Y-28660D01*
X47020Y-29610D02*
X47010Y-29600D01*
X46550Y-30350D02*
X47020Y-29880D01*
X47020Y-29880D02*
X47020Y-29610D01*
X47010Y-29600D02*
X46530Y-29120D01*
X45025Y-30500D02*
X45025Y-29000D01*
X45525Y-29750D02*
X45525Y-28495D01*
X45525Y-28495D02*
X45560Y-28460D01*
X45525Y-29750D02*
X45525Y-30000D01*
X45525Y-30000D02*
X45025Y-30500D01*
X45025Y-29000D02*
X45025Y-29250D01*
X45025Y-29250D02*
X45525Y-29750D01*
X45525Y-31250D02*
X45525Y-31000D01*
X45525Y-31000D02*
X45525Y-29750D01*
X44525Y-29750D02*
X44140Y-29750D01*
X43000Y-31740D02*
X41740Y-33000D01*
X43000Y-31140D02*
X43000Y-31740D01*
X43530Y-30610D02*
X43000Y-31140D01*
X43530Y-30360D02*
X43530Y-30610D01*
X44140Y-29750D02*
X43530Y-30360D01*
X40000Y-31110D02*
X39560Y-30670D01*
X40525Y-29750D02*
X40525Y-30625D01*
X40000Y-31150D02*
X40000Y-31110D01*
X40000Y-31110D02*
X40000Y-33030D01*
X40525Y-30625D02*
X40000Y-31150D01*
X40525Y-29750D02*
X40160Y-29750D01*
X39010Y-31130D02*
X39010Y-32420D01*
X39520Y-30620D02*
X39010Y-31130D01*
X39520Y-30390D02*
X39520Y-30620D01*
X40160Y-29750D02*
X39520Y-30390D01*
X40525Y-29750D02*
X40525Y-30000D01*
X40525Y-30000D02*
X41025Y-30500D01*
X40525Y-29750D02*
X40525Y-29500D01*
X40525Y-29500D02*
X41025Y-29000D01*
X41025Y-30500D02*
X41025Y-32475D01*
X41025Y-32475D02*
X40950Y-32550D01*
X41025Y-30500D02*
X41025Y-30750D01*
X41025Y-30750D02*
X41525Y-31250D01*
X41525Y-31250D02*
X41610Y-31250D01*
X41610Y-31250D02*
X42090Y-31730D01*
X42090Y-31730D02*
X42090Y-32700D01*
X41525Y-31250D02*
X41525Y-32865D01*
X41525Y-32865D02*
X41510Y-32880D01*
X41025Y-29000D02*
X41025Y-29250D01*
X41025Y-29250D02*
X41025Y-30500D01*
G54D10*
G36*
X42319Y-37590D02*
X40705Y-37591D01*
X40705Y-34565D01*
X40640Y-34409D01*
X40521Y-34289D01*
X40364Y-34225D01*
X40195Y-34224D01*
X40039Y-34289D01*
X39919Y-34408D01*
X39855Y-34565D01*
X39854Y-34734D01*
X39919Y-34890D01*
X40038Y-35010D01*
X40195Y-35074D01*
X40364Y-35075D01*
X40520Y-35010D01*
X40640Y-34891D01*
X40704Y-34734D01*
X40705Y-34565D01*
X40705Y-37591D01*
X39065Y-37593D01*
X39065Y-34595D01*
X39000Y-34439D01*
X38881Y-34319D01*
X38724Y-34255D01*
X38555Y-34254D01*
X38399Y-34319D01*
X38279Y-34438D01*
X38215Y-34595D01*
X38214Y-34764D01*
X38279Y-34920D01*
X38398Y-35040D01*
X38555Y-35104D01*
X38724Y-35105D01*
X38880Y-35040D01*
X39000Y-34921D01*
X39064Y-34764D01*
X39065Y-34595D01*
X39065Y-37593D01*
X38299Y-37593D01*
X38299Y-36096D01*
X38234Y-35940D01*
X38115Y-35821D01*
X37958Y-35756D01*
X37789Y-35756D01*
X37633Y-35820D01*
X37513Y-35940D01*
X37449Y-36096D01*
X37448Y-36265D01*
X37513Y-36421D01*
X37632Y-36541D01*
X37789Y-36606D01*
X37958Y-36606D01*
X38114Y-36541D01*
X38234Y-36422D01*
X38298Y-36266D01*
X38299Y-36096D01*
X38299Y-37593D01*
X36485Y-37595D01*
X36485Y-34565D01*
X36420Y-34409D01*
X36301Y-34289D01*
X36144Y-34225D01*
X35975Y-34224D01*
X35819Y-34289D01*
X35699Y-34408D01*
X35635Y-34565D01*
X35634Y-34734D01*
X35699Y-34890D01*
X35818Y-35010D01*
X35975Y-35074D01*
X36144Y-35075D01*
X36300Y-35010D01*
X36420Y-34891D01*
X36484Y-34734D01*
X36485Y-34565D01*
X36485Y-37595D01*
X36445Y-37595D01*
X36445Y-36685D01*
X36380Y-36529D01*
X36261Y-36409D01*
X36104Y-36345D01*
X35935Y-36344D01*
X35779Y-36409D01*
X35659Y-36528D01*
X35595Y-36685D01*
X35594Y-36854D01*
X35659Y-37010D01*
X35778Y-37130D01*
X35935Y-37194D01*
X36104Y-37195D01*
X36260Y-37130D01*
X36380Y-37011D01*
X36444Y-36854D01*
X36445Y-36685D01*
X36445Y-37595D01*
X34685Y-37597D01*
X34685Y-36025D01*
X34620Y-35869D01*
X34501Y-35749D01*
X34362Y-35692D01*
X34440Y-35660D01*
X34560Y-35541D01*
X34624Y-35384D01*
X34625Y-35215D01*
X34560Y-35059D01*
X34441Y-34939D01*
X34284Y-34875D01*
X34115Y-34874D01*
X33959Y-34939D01*
X33839Y-35058D01*
X33775Y-35215D01*
X33774Y-35384D01*
X33839Y-35540D01*
X33958Y-35660D01*
X34097Y-35717D01*
X34019Y-35749D01*
X33899Y-35868D01*
X33835Y-36025D01*
X33834Y-36194D01*
X33899Y-36350D01*
X34018Y-36470D01*
X34175Y-36534D01*
X34344Y-36535D01*
X34500Y-36470D01*
X34620Y-36351D01*
X34684Y-36194D01*
X34685Y-36025D01*
X34685Y-37597D01*
X27135Y-37604D01*
X27135Y-34805D01*
X27070Y-34649D01*
X26951Y-34529D01*
X26794Y-34465D01*
X26625Y-34464D01*
X26469Y-34529D01*
X26410Y-34588D01*
X26351Y-34529D01*
X26194Y-34465D01*
X26025Y-34464D01*
X25869Y-34529D01*
X25749Y-34648D01*
X25685Y-34805D01*
X25684Y-34974D01*
X25749Y-35130D01*
X25868Y-35250D01*
X26025Y-35314D01*
X26194Y-35315D01*
X26350Y-35250D01*
X26409Y-35191D01*
X26468Y-35250D01*
X26625Y-35314D01*
X26794Y-35315D01*
X26950Y-35250D01*
X27070Y-35131D01*
X27134Y-34974D01*
X27135Y-34805D01*
X27135Y-37604D01*
X25346Y-37606D01*
X25346Y-34915D01*
X25281Y-34759D01*
X25162Y-34639D01*
X25006Y-34575D01*
X24837Y-34574D01*
X24680Y-34639D01*
X24561Y-34758D01*
X24496Y-34915D01*
X24496Y-35084D01*
X24560Y-35240D01*
X24680Y-35360D01*
X24836Y-35424D01*
X25005Y-35425D01*
X25161Y-35360D01*
X25281Y-35241D01*
X25346Y-35084D01*
X25346Y-34915D01*
X25346Y-37606D01*
X24322Y-37607D01*
X24322Y-33695D01*
X24258Y-33539D01*
X24138Y-33419D01*
X23982Y-33354D01*
X23813Y-33354D01*
X23700Y-33401D01*
X23588Y-33354D01*
X23419Y-33354D01*
X23307Y-33401D01*
X23195Y-33354D01*
X23026Y-33354D01*
X22893Y-33409D01*
X22762Y-33354D01*
X22592Y-33354D01*
X22436Y-33419D01*
X22317Y-33538D01*
X22252Y-33694D01*
X22252Y-33863D01*
X22316Y-34019D01*
X22436Y-34139D01*
X22592Y-34204D01*
X22761Y-34204D01*
X22893Y-34149D01*
X23025Y-34204D01*
X23194Y-34204D01*
X23307Y-34158D01*
X23419Y-34204D01*
X23588Y-34204D01*
X23700Y-34158D01*
X23812Y-34204D01*
X23981Y-34204D01*
X24138Y-34140D01*
X24257Y-34020D01*
X24322Y-33864D01*
X24322Y-33695D01*
X24322Y-37607D01*
X21922Y-37609D01*
X21839Y-37408D01*
X21647Y-37216D01*
X21396Y-37112D01*
X21280Y-37112D01*
X21280Y-32320D01*
X25554Y-32320D01*
X26351Y-33514D01*
X33291Y-33514D01*
X34286Y-32320D01*
X42300Y-32320D01*
X42319Y-37590D01*
X42319Y-37590D01*
G37*
G54D20*
X42319Y-37590D02*
X40705Y-37591D01*
X40705Y-34565D01*
X40640Y-34409D01*
X40521Y-34289D01*
X40364Y-34225D01*
X40195Y-34224D01*
X40039Y-34289D01*
X39919Y-34408D01*
X39855Y-34565D01*
X39854Y-34734D01*
X39919Y-34890D01*
X40038Y-35010D01*
X40195Y-35074D01*
X40364Y-35075D01*
X40520Y-35010D01*
X40640Y-34891D01*
X40704Y-34734D01*
X40705Y-34565D01*
X40705Y-37591D01*
X39065Y-37593D01*
X39065Y-34595D01*
X39000Y-34439D01*
X38881Y-34319D01*
X38724Y-34255D01*
X38555Y-34254D01*
X38399Y-34319D01*
X38279Y-34438D01*
X38215Y-34595D01*
X38214Y-34764D01*
X38279Y-34920D01*
X38398Y-35040D01*
X38555Y-35104D01*
X38724Y-35105D01*
X38880Y-35040D01*
X39000Y-34921D01*
X39064Y-34764D01*
X39065Y-34595D01*
X39065Y-37593D01*
X38299Y-37593D01*
X38299Y-36096D01*
X38234Y-35940D01*
X38115Y-35821D01*
X37958Y-35756D01*
X37789Y-35756D01*
X37633Y-35820D01*
X37513Y-35940D01*
X37449Y-36096D01*
X37448Y-36265D01*
X37513Y-36421D01*
X37632Y-36541D01*
X37789Y-36606D01*
X37958Y-36606D01*
X38114Y-36541D01*
X38234Y-36422D01*
X38298Y-36266D01*
X38299Y-36096D01*
X38299Y-37593D01*
X36485Y-37595D01*
X36485Y-34565D01*
X36420Y-34409D01*
X36301Y-34289D01*
X36144Y-34225D01*
X35975Y-34224D01*
X35819Y-34289D01*
X35699Y-34408D01*
X35635Y-34565D01*
X35634Y-34734D01*
X35699Y-34890D01*
X35818Y-35010D01*
X35975Y-35074D01*
X36144Y-35075D01*
X36300Y-35010D01*
X36420Y-34891D01*
X36484Y-34734D01*
X36485Y-34565D01*
X36485Y-37595D01*
X36445Y-37595D01*
X36445Y-36685D01*
X36380Y-36529D01*
X36261Y-36409D01*
X36104Y-36345D01*
X35935Y-36344D01*
X35779Y-36409D01*
X35659Y-36528D01*
X35595Y-36685D01*
X35594Y-36854D01*
X35659Y-37010D01*
X35778Y-37130D01*
X35935Y-37194D01*
X36104Y-37195D01*
X36260Y-37130D01*
X36380Y-37011D01*
X36444Y-36854D01*
X36445Y-36685D01*
X36445Y-37595D01*
X34685Y-37597D01*
X34685Y-36025D01*
X34620Y-35869D01*
X34501Y-35749D01*
X34362Y-35692D01*
X34440Y-35660D01*
X34560Y-35541D01*
X34624Y-35384D01*
X34625Y-35215D01*
X34560Y-35059D01*
X34441Y-34939D01*
X34284Y-34875D01*
X34115Y-34874D01*
X33959Y-34939D01*
X33839Y-35058D01*
X33775Y-35215D01*
X33774Y-35384D01*
X33839Y-35540D01*
X33958Y-35660D01*
X34097Y-35717D01*
X34019Y-35749D01*
X33899Y-35868D01*
X33835Y-36025D01*
X33834Y-36194D01*
X33899Y-36350D01*
X34018Y-36470D01*
X34175Y-36534D01*
X34344Y-36535D01*
X34500Y-36470D01*
X34620Y-36351D01*
X34684Y-36194D01*
X34685Y-36025D01*
X34685Y-37597D01*
X27135Y-37604D01*
X27135Y-34805D01*
X27070Y-34649D01*
X26951Y-34529D01*
X26794Y-34465D01*
X26625Y-34464D01*
X26469Y-34529D01*
X26410Y-34588D01*
X26351Y-34529D01*
X26194Y-34465D01*
X26025Y-34464D01*
X25869Y-34529D01*
X25749Y-34648D01*
X25685Y-34805D01*
X25684Y-34974D01*
X25749Y-35130D01*
X25868Y-35250D01*
X26025Y-35314D01*
X26194Y-35315D01*
X26350Y-35250D01*
X26409Y-35191D01*
X26468Y-35250D01*
X26625Y-35314D01*
X26794Y-35315D01*
X26950Y-35250D01*
X27070Y-35131D01*
X27134Y-34974D01*
X27135Y-34805D01*
X27135Y-37604D01*
X25346Y-37606D01*
X25346Y-34915D01*
X25281Y-34759D01*
X25162Y-34639D01*
X25006Y-34575D01*
X24837Y-34574D01*
X24680Y-34639D01*
X24561Y-34758D01*
X24496Y-34915D01*
X24496Y-35084D01*
X24560Y-35240D01*
X24680Y-35360D01*
X24836Y-35424D01*
X25005Y-35425D01*
X25161Y-35360D01*
X25281Y-35241D01*
X25346Y-35084D01*
X25346Y-34915D01*
X25346Y-37606D01*
X24322Y-37607D01*
X24322Y-33695D01*
X24258Y-33539D01*
X24138Y-33419D01*
X23982Y-33354D01*
X23813Y-33354D01*
X23700Y-33401D01*
X23588Y-33354D01*
X23419Y-33354D01*
X23307Y-33401D01*
X23195Y-33354D01*
X23026Y-33354D01*
X22893Y-33409D01*
X22762Y-33354D01*
X22592Y-33354D01*
X22436Y-33419D01*
X22317Y-33538D01*
X22252Y-33694D01*
X22252Y-33863D01*
X22316Y-34019D01*
X22436Y-34139D01*
X22592Y-34204D01*
X22761Y-34204D01*
X22893Y-34149D01*
X23025Y-34204D01*
X23194Y-34204D01*
X23307Y-34158D01*
X23419Y-34204D01*
X23588Y-34204D01*
X23700Y-34158D01*
X23812Y-34204D01*
X23981Y-34204D01*
X24138Y-34140D01*
X24257Y-34020D01*
X24322Y-33864D01*
X24322Y-33695D01*
X24322Y-37607D01*
X21922Y-37609D01*
X21839Y-37408D01*
X21647Y-37216D01*
X21396Y-37112D01*
X21280Y-37112D01*
X21280Y-32320D01*
X25554Y-32320D01*
X26351Y-33514D01*
X33291Y-33514D01*
X34286Y-32320D01*
X42300Y-32320D01*
X42319Y-37590D01*
G54D10*
G36*
X45101Y-30505D02*
X45030Y-30576D01*
X45025Y-30570D01*
X45019Y-30576D01*
X44948Y-30505D01*
X44954Y-30500D01*
X44948Y-30494D01*
X45019Y-30423D01*
X45025Y-30429D01*
X45030Y-30423D01*
X45101Y-30494D01*
X45095Y-30500D01*
X45101Y-30505D01*
X45101Y-30505D01*
G37*
G54D20*
X45101Y-30505D02*
X45030Y-30576D01*
X45025Y-30570D01*
X45019Y-30576D01*
X44948Y-30505D01*
X44954Y-30500D01*
X44948Y-30494D01*
X45019Y-30423D01*
X45025Y-30429D01*
X45030Y-30423D01*
X45101Y-30494D01*
X45095Y-30500D01*
X45101Y-30505D01*
G54D10*
G36*
X45601Y-29755D02*
X45530Y-29826D01*
X45525Y-29820D01*
X45519Y-29826D01*
X45448Y-29755D01*
X45454Y-29750D01*
X45448Y-29744D01*
X45519Y-29673D01*
X45525Y-29679D01*
X45530Y-29673D01*
X45601Y-29744D01*
X45595Y-29750D01*
X45601Y-29755D01*
X45601Y-29755D01*
G37*
G54D20*
X45601Y-29755D02*
X45530Y-29826D01*
X45525Y-29820D01*
X45519Y-29826D01*
X45448Y-29755D01*
X45454Y-29750D01*
X45448Y-29744D01*
X45519Y-29673D01*
X45525Y-29679D01*
X45530Y-29673D01*
X45601Y-29744D01*
X45595Y-29750D01*
X45601Y-29755D01*
G54D10*
G36*
X46219Y-25089D02*
X46177Y-28472D01*
X46133Y-28454D01*
X45917Y-28454D01*
X45716Y-28537D01*
X45563Y-28690D01*
X45527Y-28775D01*
X45502Y-28714D01*
X45407Y-28688D01*
X45336Y-28758D01*
X45336Y-28617D01*
X45310Y-28522D01*
X45105Y-28449D01*
X44888Y-28460D01*
X44739Y-28522D01*
X44713Y-28617D01*
X45025Y-28929D01*
X45336Y-28617D01*
X45336Y-28758D01*
X45095Y-29000D01*
X45101Y-29005D01*
X45030Y-29076D01*
X45025Y-29070D01*
X45019Y-29076D01*
X44948Y-29005D01*
X44954Y-29000D01*
X44642Y-28688D01*
X44547Y-28714D01*
X44524Y-28780D01*
X44487Y-28691D01*
X44334Y-28538D01*
X44133Y-28454D01*
X43917Y-28454D01*
X43716Y-28537D01*
X43563Y-28690D01*
X43525Y-28782D01*
X43487Y-28691D01*
X43334Y-28538D01*
X43133Y-28454D01*
X42917Y-28454D01*
X42716Y-28537D01*
X42563Y-28690D01*
X42525Y-28782D01*
X42487Y-28691D01*
X42334Y-28538D01*
X42133Y-28454D01*
X41917Y-28454D01*
X41716Y-28537D01*
X41563Y-28690D01*
X41525Y-28782D01*
X41487Y-28691D01*
X41334Y-28538D01*
X41133Y-28454D01*
X40917Y-28454D01*
X40716Y-28537D01*
X40563Y-28690D01*
X40525Y-28782D01*
X40487Y-28691D01*
X40425Y-28628D01*
X40425Y-26057D01*
X40360Y-25901D01*
X40241Y-25781D01*
X40084Y-25716D01*
X39915Y-25716D01*
X39759Y-25781D01*
X39639Y-25900D01*
X39575Y-26056D01*
X39574Y-26225D01*
X39639Y-26382D01*
X39758Y-26501D01*
X39915Y-26566D01*
X40084Y-26566D01*
X40240Y-26502D01*
X40360Y-26382D01*
X40424Y-26226D01*
X40425Y-26057D01*
X40425Y-28628D01*
X40334Y-28538D01*
X40133Y-28454D01*
X39917Y-28454D01*
X39716Y-28537D01*
X39563Y-28690D01*
X39525Y-28782D01*
X39487Y-28691D01*
X39334Y-28538D01*
X39133Y-28454D01*
X38917Y-28454D01*
X38716Y-28537D01*
X38563Y-28690D01*
X38525Y-28782D01*
X38487Y-28691D01*
X38334Y-28538D01*
X38259Y-28507D01*
X38259Y-26057D01*
X38195Y-25901D01*
X38075Y-25781D01*
X37919Y-25716D01*
X37750Y-25716D01*
X37594Y-25781D01*
X37474Y-25900D01*
X37409Y-26056D01*
X37409Y-26225D01*
X37474Y-26382D01*
X37593Y-26501D01*
X37749Y-26566D01*
X37918Y-26566D01*
X38075Y-26502D01*
X38194Y-26382D01*
X38259Y-26226D01*
X38259Y-26057D01*
X38259Y-28507D01*
X38133Y-28454D01*
X37917Y-28454D01*
X37716Y-28537D01*
X37563Y-28690D01*
X37525Y-28782D01*
X37487Y-28691D01*
X37334Y-28538D01*
X37133Y-28454D01*
X36917Y-28454D01*
X36716Y-28537D01*
X36563Y-28690D01*
X36525Y-28782D01*
X36487Y-28691D01*
X36334Y-28538D01*
X36133Y-28454D01*
X35917Y-28454D01*
X35716Y-28537D01*
X35563Y-28690D01*
X35525Y-28782D01*
X35487Y-28691D01*
X35334Y-28538D01*
X35133Y-28454D01*
X35052Y-28454D01*
X35060Y-28000D01*
X30590Y-28000D01*
X30590Y-30668D01*
X26054Y-30674D01*
X26054Y-27632D01*
X25990Y-27476D01*
X25870Y-27356D01*
X25714Y-27291D01*
X25545Y-27291D01*
X25389Y-27356D01*
X25269Y-27475D01*
X25204Y-27631D01*
X25204Y-27800D01*
X25269Y-27956D01*
X25388Y-28076D01*
X25545Y-28141D01*
X25714Y-28141D01*
X25870Y-28077D01*
X25990Y-27957D01*
X26054Y-27801D01*
X26054Y-27632D01*
X26054Y-30674D01*
X24401Y-30676D01*
X24401Y-29089D01*
X24336Y-28932D01*
X24217Y-28813D01*
X24061Y-28748D01*
X23892Y-28748D01*
X23759Y-28802D01*
X23628Y-28748D01*
X23459Y-28748D01*
X23326Y-28802D01*
X23195Y-28748D01*
X23026Y-28748D01*
X22893Y-28802D01*
X22762Y-28748D01*
X22592Y-28748D01*
X22436Y-28812D01*
X22317Y-28932D01*
X22252Y-29088D01*
X22252Y-29257D01*
X22316Y-29413D01*
X22436Y-29533D01*
X22592Y-29598D01*
X22761Y-29598D01*
X22893Y-29543D01*
X23025Y-29598D01*
X23194Y-29598D01*
X23326Y-29543D01*
X23458Y-29598D01*
X23627Y-29598D01*
X23759Y-29543D01*
X23891Y-29598D01*
X24060Y-29598D01*
X24216Y-29533D01*
X24336Y-29414D01*
X24401Y-29258D01*
X24401Y-29089D01*
X24401Y-30676D01*
X21250Y-30679D01*
X21258Y-25879D01*
X21395Y-25880D01*
X21646Y-25776D01*
X21838Y-25584D01*
X21942Y-25333D01*
X21943Y-25080D01*
X22781Y-25080D01*
X22781Y-25324D01*
X22879Y-25561D01*
X23060Y-25742D01*
X23296Y-25840D01*
X23552Y-25840D01*
X23789Y-25742D01*
X23970Y-25561D01*
X24068Y-25325D01*
X24068Y-25081D01*
X24710Y-25081D01*
X24710Y-25332D01*
X24814Y-25583D01*
X25006Y-25775D01*
X25257Y-25879D01*
X25528Y-25880D01*
X25780Y-25776D01*
X25972Y-25584D01*
X26076Y-25333D01*
X26076Y-25081D01*
X46219Y-25089D01*
X46219Y-25089D01*
G37*
G54D20*
X46219Y-25089D02*
X46177Y-28472D01*
X46133Y-28454D01*
X45917Y-28454D01*
X45716Y-28537D01*
X45563Y-28690D01*
X45527Y-28775D01*
X45502Y-28714D01*
X45407Y-28688D01*
X45336Y-28758D01*
X45336Y-28617D01*
X45310Y-28522D01*
X45105Y-28449D01*
X44888Y-28460D01*
X44739Y-28522D01*
X44713Y-28617D01*
X45025Y-28929D01*
X45336Y-28617D01*
X45336Y-28758D01*
X45095Y-29000D01*
X45101Y-29005D01*
X45030Y-29076D01*
X45025Y-29070D01*
X45019Y-29076D01*
X44948Y-29005D01*
X44954Y-29000D01*
X44642Y-28688D01*
X44547Y-28714D01*
X44524Y-28780D01*
X44487Y-28691D01*
X44334Y-28538D01*
X44133Y-28454D01*
X43917Y-28454D01*
X43716Y-28537D01*
X43563Y-28690D01*
X43525Y-28782D01*
X43487Y-28691D01*
X43334Y-28538D01*
X43133Y-28454D01*
X42917Y-28454D01*
X42716Y-28537D01*
X42563Y-28690D01*
X42525Y-28782D01*
X42487Y-28691D01*
X42334Y-28538D01*
X42133Y-28454D01*
X41917Y-28454D01*
X41716Y-28537D01*
X41563Y-28690D01*
X41525Y-28782D01*
X41487Y-28691D01*
X41334Y-28538D01*
X41133Y-28454D01*
X40917Y-28454D01*
X40716Y-28537D01*
X40563Y-28690D01*
X40525Y-28782D01*
X40487Y-28691D01*
X40425Y-28628D01*
X40425Y-26057D01*
X40360Y-25901D01*
X40241Y-25781D01*
X40084Y-25716D01*
X39915Y-25716D01*
X39759Y-25781D01*
X39639Y-25900D01*
X39575Y-26056D01*
X39574Y-26225D01*
X39639Y-26382D01*
X39758Y-26501D01*
X39915Y-26566D01*
X40084Y-26566D01*
X40240Y-26502D01*
X40360Y-26382D01*
X40424Y-26226D01*
X40425Y-26057D01*
X40425Y-28628D01*
X40334Y-28538D01*
X40133Y-28454D01*
X39917Y-28454D01*
X39716Y-28537D01*
X39563Y-28690D01*
X39525Y-28782D01*
X39487Y-28691D01*
X39334Y-28538D01*
X39133Y-28454D01*
X38917Y-28454D01*
X38716Y-28537D01*
X38563Y-28690D01*
X38525Y-28782D01*
X38487Y-28691D01*
X38334Y-28538D01*
X38259Y-28507D01*
X38259Y-26057D01*
X38195Y-25901D01*
X38075Y-25781D01*
X37919Y-25716D01*
X37750Y-25716D01*
X37594Y-25781D01*
X37474Y-25900D01*
X37409Y-26056D01*
X37409Y-26225D01*
X37474Y-26382D01*
X37593Y-26501D01*
X37749Y-26566D01*
X37918Y-26566D01*
X38075Y-26502D01*
X38194Y-26382D01*
X38259Y-26226D01*
X38259Y-26057D01*
X38259Y-28507D01*
X38133Y-28454D01*
X37917Y-28454D01*
X37716Y-28537D01*
X37563Y-28690D01*
X37525Y-28782D01*
X37487Y-28691D01*
X37334Y-28538D01*
X37133Y-28454D01*
X36917Y-28454D01*
X36716Y-28537D01*
X36563Y-28690D01*
X36525Y-28782D01*
X36487Y-28691D01*
X36334Y-28538D01*
X36133Y-28454D01*
X35917Y-28454D01*
X35716Y-28537D01*
X35563Y-28690D01*
X35525Y-28782D01*
X35487Y-28691D01*
X35334Y-28538D01*
X35133Y-28454D01*
X35052Y-28454D01*
X35060Y-28000D01*
X30590Y-28000D01*
X30590Y-30668D01*
X26054Y-30674D01*
X26054Y-27632D01*
X25990Y-27476D01*
X25870Y-27356D01*
X25714Y-27291D01*
X25545Y-27291D01*
X25389Y-27356D01*
X25269Y-27475D01*
X25204Y-27631D01*
X25204Y-27800D01*
X25269Y-27956D01*
X25388Y-28076D01*
X25545Y-28141D01*
X25714Y-28141D01*
X25870Y-28077D01*
X25990Y-27957D01*
X26054Y-27801D01*
X26054Y-27632D01*
X26054Y-30674D01*
X24401Y-30676D01*
X24401Y-29089D01*
X24336Y-28932D01*
X24217Y-28813D01*
X24061Y-28748D01*
X23892Y-28748D01*
X23759Y-28802D01*
X23628Y-28748D01*
X23459Y-28748D01*
X23326Y-28802D01*
X23195Y-28748D01*
X23026Y-28748D01*
X22893Y-28802D01*
X22762Y-28748D01*
X22592Y-28748D01*
X22436Y-28812D01*
X22317Y-28932D01*
X22252Y-29088D01*
X22252Y-29257D01*
X22316Y-29413D01*
X22436Y-29533D01*
X22592Y-29598D01*
X22761Y-29598D01*
X22893Y-29543D01*
X23025Y-29598D01*
X23194Y-29598D01*
X23326Y-29543D01*
X23458Y-29598D01*
X23627Y-29598D01*
X23759Y-29543D01*
X23891Y-29598D01*
X24060Y-29598D01*
X24216Y-29533D01*
X24336Y-29414D01*
X24401Y-29258D01*
X24401Y-29089D01*
X24401Y-30676D01*
X21250Y-30679D01*
X21258Y-25879D01*
X21395Y-25880D01*
X21646Y-25776D01*
X21838Y-25584D01*
X21942Y-25333D01*
X21943Y-25080D01*
X22781Y-25080D01*
X22781Y-25324D01*
X22879Y-25561D01*
X23060Y-25742D01*
X23296Y-25840D01*
X23552Y-25840D01*
X23789Y-25742D01*
X23970Y-25561D01*
X24068Y-25325D01*
X24068Y-25081D01*
X24710Y-25081D01*
X24710Y-25332D01*
X24814Y-25583D01*
X25006Y-25775D01*
X25257Y-25879D01*
X25528Y-25880D01*
X25780Y-25776D01*
X25972Y-25584D01*
X26076Y-25333D01*
X26076Y-25081D01*
X46219Y-25089D01*
M02*
