<?xml version="1.0" standalone="no"?>
 <!DOCTYPE svg PUBLIC "-//W3C//DTD SVG 1.1//EN" 
 "http://www.w3.org/Graphics/SVG/1.1/DTD/svg11.dtd"> 
<svg xmlns="http://www.w3.org/2000/svg" version="1.1" 
    width="41.9989cm" height="29.7002cm" viewBox="0 0 165350 116930 ">
<title>SVG Picture created as FPix2DTB_90deg_up-F_SilkS.svg date 2014/07/07 15:48:03 </title>
  <desc>Picture generated by PCBNEW </desc>
<g style="fill:#000000; fill-opacity:1;stroke:#000000; stroke-opacity:1;
stroke-linecap:round; stroke-linejoin:round; "
 transform="translate(0 0) scale(1 1)">
</g>
<g style="fill:#000000; fill-opacity:0.0; 
stroke:#000000; stroke-width:60; stroke-opacity:1; 
stroke-linecap:round; stroke-linejoin:round;">
<path d="M31473 38437
L31777 38437
" />
<path d="M31473 37413
L31777 37413
" />
<path d="M31625 37603
L31625 37223
" />
<path d="M31473 36232
L31777 36232
" />
<path d="M31473 35208
L31777 35208
" />
<path d="M31625 35399
L31625 35018
" />
<path d="M31473 34145
L31777 34145
" />
<path d="M31473 32964
L31777 32964
" />
<path d="M31625 33155
L31625 32774
" />
<path d="M31473 27570
L31777 27570
" />
<path d="M31473 26507
L31777 26507
" />
<path d="M31625 26698
L31625 26317
" />
<path d="M31473 25759
L31777 25759
" />
<path d="M31473 24657
L31777 24657
" />
<path d="M31625 24848
L31625 24467
" />
<path d="M23622 31653
L23503 31653
" />
<path d="M23622 31653
L23622 31535
" />
<path d="M23346 31377
L23622 31653
" />
<path d="M23346 31653
L23346 31377
" />
<path d="M23070 31377
L23346 31653
" />
<path d="M27992 31614
L27913 31614
" />
<path d="M27992 31614
L27992 31535
" />
<path d="M27755 31377
L27992 31614
" />
<path d="M27755 31614
L27755 31377
" />
<path d="M27519 31377
L27755 31614
" />
<path d="M23035 31755
L22635 31755
" />
<path d="M22826 31755
L22826 31526
" />
<path d="M23035 31526
L22635 31526
" />
<path d="M22635 31393
L23035 31259
L22635 31126
" />
<path d="M28468 31794
L28068 31794
" />
<path d="M28259 31794
L28259 31565
" />
<path d="M28468 31565
L28068 31565
" />
<path d="M28068 31432
L28468 31299
L28068 31165
" />
<path d="M52891 36316
L53139 36316
L53006 36507
L53063 36507
L53101 36530
L53120 36554
L53139 36602
L53139 36721
L53120 36768
L53101 36792
L53063 36816
L52948 36816
L52910 36792
L52891 36768
" />
<path d="M53310 36768
L53329 36792
L53310 36816
L53291 36792
L53310 36768
L53310 36816
" />
<path d="M53463 36316
L53710 36316
L53577 36507
L53634 36507
L53672 36530
L53691 36554
L53710 36602
L53710 36721
L53691 36768
L53672 36792
L53634 36816
L53520 36816
L53482 36792
L53463 36768
" />
<path d="M53825 36316
L53958 36816
L54091 36316
" />
<path d="M40529 33993
L40777 33993
L40643 34184
L40701 34184
L40739 34208
L40758 34231
L40777 34279
L40777 34398
L40758 34446
L40739 34469
L40701 34493
L40586 34493
L40548 34469
L40529 34446
" />
<path d="M40948 34446
L40967 34469
L40948 34493
L40929 34469
L40948 34446
L40948 34493
" />
<path d="M41101 33993
L41348 33993
L41215 34184
L41272 34184
L41310 34208
L41329 34231
L41348 34279
L41348 34398
L41329 34446
L41310 34469
L41272 34493
L41158 34493
L41120 34469
L41101 34446
" />
<path d="M41462 33993
L41596 34493
L41729 33993
" />
<path d="M35756 35792
L35623 35554
" />
<path d="M35528 35792
L35528 35292
L35680 35292
L35718 35316
L35737 35340
L35756 35388
L35756 35459
L35737 35507
L35718 35531
L35680 35554
L35528 35554
" />
<path d="M35871 35292
L36099 35292
" />
<path d="M35985 35792
L35985 35292
" />
<path d="M36233 35792
L36233 35292
L36328 35292
L36385 35316
L36423 35364
L36442 35411
L36461 35507
L36461 35578
L36442 35673
L36423 35721
L36385 35769
L36328 35792
L36233 35792
" />
<path d="M23738 35922
L23872 36422
L24005 35922
" />
<path d="M24138 36422
L24138 35922
L24234 35922
L24291 35946
L24329 35994
L24348 36041
L24367 36137
L24367 36208
L24348 36303
L24329 36351
L24291 36399
L24234 36422
L24138 36422
" />
<path d="M23423 26867
L23557 27367
L23690 26867
" />
<path d="M23804 27224
L23995 27224
" />
<path d="M23766 27367
L23900 26867
L24033 27367
" />
<path d="M26092 25867
L26054 25844
L25996 25844
L25939 25867
L25901 25915
L25882 25963
L25863 26058
L25863 26129
L25882 26225
L25901 26272
L25939 26320
L25996 26344
L26035 26344
L26092 26320
L26111 26296
L26111 26129
L26035 26129
" />
<path d="M26282 26344
L26282 25844
L26511 26344
L26511 25844
" />
<path d="M26701 26344
L26701 25844
L26796 25844
L26854 25867
L26892 25915
L26911 25963
L26930 26058
L26930 26129
L26911 26225
L26892 26272
L26854 26320
L26796 26344
L26701 26344
" />
<path d="M30245 38146
L30226 38170
L30168 38194
L30130 38194
L30073 38170
L30035 38123
L30016 38075
L29997 37980
L29997 37908
L30016 37813
L30035 37765
L30073 37718
L30130 37694
L30168 37694
L30226 37718
L30245 37742
" />
<path d="M30473 38194
L30435 38170
L30416 38123
L30416 37694
" />
<path d="M30626 38194
L30626 37694
" />
<path d="M30664 38004
L30778 38194
" />
<path d="M30778 37861
L30626 38051
" />
<path d="M30245 35942
L30226 35965
L30168 35989
L30130 35989
L30073 35965
L30035 35918
L30016 35870
L29997 35775
L29997 35704
L30016 35608
L30035 35561
L30073 35513
L30130 35489
L30168 35489
L30226 35513
L30245 35537
" />
<path d="M30359 35489
L30587 35489
" />
<path d="M30473 35989
L30473 35489
" />
<path d="M30949 35989
L30816 35751
" />
<path d="M30721 35989
L30721 35489
L30873 35489
L30911 35513
L30930 35537
L30949 35585
L30949 35656
L30930 35704
L30911 35727
L30873 35751
L30721 35751
" />
<path d="M29997 33761
L30054 33785
L30149 33785
L30187 33761
L30206 33737
L30226 33689
L30226 33642
L30206 33594
L30187 33570
L30149 33546
L30073 33523
L30035 33499
L30016 33475
L29997 33427
L29997 33380
L30016 33332
L30035 33308
L30073 33285
L30168 33285
L30226 33308
" />
<path d="M30397 33785
L30397 33285
L30492 33285
L30549 33308
L30587 33356
L30606 33404
L30626 33499
L30626 33570
L30606 33666
L30587 33713
L30549 33761
L30492 33785
L30397 33785
" />
<path d="M30778 33642
L30968 33642
" />
<path d="M30740 33785
L30873 33285
L31006 33785
" />
<path d="M30245 27367
L30111 27129
" />
<path d="M30016 27367
L30016 26867
L30168 26867
L30206 26891
L30226 26915
L30245 26962
L30245 27034
L30226 27082
L30206 27105
L30168 27129
L30016 27129
" />
<path d="M30416 27367
L30416 26867
L30511 26867
L30568 26891
L30606 26939
L30626 26986
L30645 27082
L30645 27153
L30626 27248
L30606 27296
L30568 27343
L30511 27367
L30416 27367
" />
<path d="M30987 27367
L30987 27105
L30968 27058
L30930 27034
L30854 27034
L30816 27058
" />
<path d="M30987 27343
L30949 27367
L30854 27367
L30816 27343
L30797 27296
L30797 27248
L30816 27201
L30854 27177
L30949 27177
L30987 27153
" />
<path d="M30092 24938
L30168 24938
L30206 24962
L30245 25010
L30264 25105
L30264 25271
L30245 25367
L30206 25414
L30168 25438
L30092 25438
L30054 25414
L30016 25367
L29997 25271
L29997 25105
L30016 25010
L30054 24962
L30092 24938
" />
<path d="M30606 25105
L30606 25438
" />
<path d="M30435 25105
L30435 25367
L30454 25414
L30492 25438
L30549 25438
L30587 25414
L30606 25390
" />
<path d="M30740 25105
L30892 25105
" />
<path d="M30797 24938
L30797 25367
L30816 25414
L30854 25438
L30892 25438
" />
<path d="M31006 25295
L31197 25295
" />
<path d="M30968 25438
L31102 24938
L31235 25438
" />
<path d="M24915 38115
L24915 37615
L25068 37615
L25106 37639
L25125 37663
L25144 37711
L25144 37782
L25125 37830
L25106 37853
L25068 37877
L24915 37877
" />
<path d="M25372 38115
L25334 38091
L25315 38068
L25296 38020
L25296 37877
L25315 37830
L25334 37806
L25372 37782
L25429 37782
L25468 37806
L25487 37830
L25506 37877
L25506 38020
L25487 38068
L25468 38091
L25429 38115
L25372 38115
" />
<path d="M25639 37782
L25715 38115
L25791 37877
L25868 38115
L25944 37782
" />
<path d="M26249 38091
L26210 38115
L26134 38115
L26096 38091
L26077 38044
L26077 37853
L26096 37806
L26134 37782
L26210 37782
L26249 37806
L26268 37853
L26268 37901
L26077 37949
" />
<path d="M26439 38115
L26439 37782
" />
<path d="M26439 37877
L26458 37830
L26477 37806
L26515 37782
L26553 37782
" />
<path d="M27049 38115
L27010 38091
L26991 38068
L26972 38020
L26972 37877
L26991 37830
L27010 37806
L27049 37782
L27106 37782
L27144 37806
L27163 37830
L27182 37877
L27182 38020
L27163 38068
L27144 38091
L27106 38115
L27049 38115
" />
<path d="M27353 37782
L27353 38115
" />
<path d="M27353 37830
L27372 37806
L27410 37782
L27468 37782
L27506 37806
L27525 37853
L27525 38115
" />
</g>
<g style="fill:#000000; fill-opacity:0.0; 
stroke:#000000; stroke-width:75; stroke-opacity:1; 
stroke-linecap:round; stroke-linejoin:round;">
<path d="M43822 33785
L43822 34024
L43522 34024
" />
<path d="M43665 33619
L43665 33452
" />
<path d="M43822 33381
L43822 33619
L43522 33619
L43522 33381
" />
<path d="M43822 33166
L43522 33166
L43522 33047
L43536 32976
L43565 32928
L43593 32905
L43650 32881
L43693 32881
L43750 32905
L43779 32928
L43807 32976
L43822 33047
L43822 33166
" />
<path d="M40228 37716
L40347 37916
L40467 37716
" />
<path d="M40633 37645
L40657 37630
L40705 37616
L40824 37616
L40871 37630
L40895 37645
L40919 37673
L40919 37702
L40895 37745
L40609 37916
L40919 37916
" />
<path d="M41133 37888
L41157 37902
L41133 37916
L41109 37902
L41133 37888
L41133 37916
" />
<path d="M41467 37616
L41514 37616
L41562 37630
L41586 37645
L41609 37673
L41633 37730
L41633 37802
L41609 37859
L41586 37888
L41562 37902
L41514 37916
L41467 37916
L41419 37902
L41395 37888
L41371 37859
L41347 37802
L41347 37730
L41371 37673
L41395 37645
L41419 37630
L41467 37616
" />
<path d="M42228 37802
L42609 37802
" />
<path d="M43395 37759
L43228 37759
" />
<path d="M43228 37916
L43228 37616
L43467 37616
" />
<path d="M43657 37888
L43681 37902
L43657 37916
L43633 37902
L43657 37888
L43657 37916
" />
<path d="M44276 37916
L44276 37616
L44443 37830
L44609 37616
L44609 37916
" />
<path d="M45038 37902
L44990 37916
L44895 37916
L44847 37902
L44824 37873
L44824 37759
L44847 37730
L44895 37716
L44990 37716
L45038 37730
L45062 37759
L45062 37788
L44824 37816
" />
<path d="M45276 37916
L45276 37716
" />
<path d="M45276 37616
L45252 37630
L45276 37645
L45300 37630
L45276 37616
L45276 37645
" />
<path d="M45705 37902
L45657 37916
L45562 37916
L45514 37902
L45490 37873
L45490 37759
L45514 37730
L45562 37716
L45657 37716
L45705 37730
L45728 37759
L45728 37788
L45490 37816
" />
<path d="M45943 37916
L45943 37716
" />
<path d="M45943 37773
L45967 37745
L45990 37730
L46038 37716
L46086 37716
" />
<path d="M46276 37902
L46276 37916
L46252 37945
L46228 37959
" />
<path d="M46871 37916
L46871 37616
L47038 37830
L47205 37616
L47205 37916
" />
<path d="M47657 37916
L47657 37759
L47633 37730
L47586 37716
L47490 37716
L47443 37730
" />
<path d="M47657 37902
L47609 37916
L47490 37916
L47443 37902
L47419 37873
L47419 37845
L47443 37816
L47490 37802
L47609 37802
L47657 37788
" />
<path d="M47895 37916
L47895 37716
" />
<path d="M47895 37616
L47871 37630
L47895 37645
L47919 37630
L47895 37616
L47895 37645
" />
<path d="M48490 37645
L48514 37630
L48562 37616
L48681 37616
L48728 37630
L48752 37645
L48776 37673
L48776 37702
L48752 37745
L48467 37916
L48776 37916
" />
<path d="M49086 37616
L49133 37616
L49181 37630
L49205 37645
L49228 37673
L49252 37730
L49252 37802
L49228 37859
L49205 37888
L49181 37902
L49133 37916
L49086 37916
L49038 37902
L49014 37888
L48990 37859
L48967 37802
L48967 37730
L48990 37673
L49014 37645
L49038 37630
L49086 37616
" />
<path d="M49728 37916
L49443 37916
" />
<path d="M49586 37916
L49586 37616
L49538 37659
L49490 37688
L49443 37702
" />
<path d="M50157 37716
L50157 37916
" />
<path d="M50038 37602
L49919 37816
L50228 37816
" />
<path d="M40276 37026
L40276 37269
L40300 37297
L40324 37311
L40371 37326
L40467 37326
L40514 37311
L40538 37297
L40562 37269
L40562 37026
" />
<path d="M40800 37126
L40800 37326
" />
<path d="M40800 37154
L40824 37140
L40871 37126
L40943 37126
L40990 37140
L41014 37169
L41014 37326
" />
<path d="M41252 37326
L41252 37126
" />
<path d="M41252 37026
L41228 37040
L41252 37054
L41276 37040
L41252 37026
L41252 37054
" />
<path d="M41443 37126
L41562 37326
L41681 37126
" />
<path d="M42062 37311
L42014 37326
L41919 37326
L41871 37311
L41847 37283
L41847 37169
L41871 37140
L41919 37126
L42014 37126
L42062 37140
L42086 37169
L42086 37197
L41847 37226
" />
<path d="M42300 37326
L42300 37126
" />
<path d="M42300 37183
L42324 37154
L42347 37140
L42395 37126
L42443 37126
" />
<path d="M42586 37311
L42633 37326
L42728 37326
L42776 37311
L42800 37283
L42800 37269
L42776 37240
L42728 37226
L42657 37226
L42609 37211
L42586 37183
L42586 37169
L42609 37140
L42657 37126
L42728 37126
L42776 37140
" />
<path d="M43014 37326
L43014 37126
" />
<path d="M43014 37026
L42990 37040
L43014 37054
L43038 37040
L43014 37026
L43014 37054
" />
<path d="M43181 37126
L43371 37126
" />
<path d="M43252 37026
L43252 37283
L43276 37311
L43324 37326
L43371 37326
" />
<path d="M43490 37126
L43609 37326
" />
<path d="M43728 37126
L43609 37326
L43562 37397
L43538 37411
L43490 37426
" />
<path d="M44371 37326
L44324 37311
L44300 37297
L44276 37269
L44276 37183
L44300 37154
L44324 37140
L44371 37126
L44443 37126
L44490 37140
L44514 37154
L44538 37183
L44538 37269
L44514 37297
L44490 37311
L44443 37326
L44371 37326
" />
<path d="M44681 37126
L44871 37126
" />
<path d="M44752 37326
L44752 37069
L44776 37040
L44824 37026
L44871 37026
" />
<path d="M45419 37326
L45419 37026
L45705 37326
L45705 37026
" />
<path d="M46133 37311
L46086 37326
L45990 37326
L45943 37311
L45919 37283
L45919 37169
L45943 37140
L45990 37126
L46086 37126
L46133 37140
L46157 37169
L46157 37197
L45919 37226
" />
<path d="M46371 37326
L46371 37026
" />
<path d="M46371 37140
L46419 37126
L46514 37126
L46562 37140
L46586 37154
L46609 37183
L46609 37269
L46586 37297
L46562 37311
L46514 37326
L46419 37326
L46371 37311
" />
<path d="M46824 37326
L46824 37126
" />
<path d="M46824 37183
L46847 37154
L46871 37140
L46919 37126
L46967 37126
" />
<path d="M47347 37326
L47347 37169
L47324 37140
L47276 37126
L47181 37126
L47133 37140
" />
<path d="M47347 37311
L47300 37326
L47181 37326
L47133 37311
L47109 37283
L47109 37254
L47133 37226
L47181 37211
L47300 37211
L47347 37197
" />
<path d="M47562 37311
L47609 37326
L47705 37326
L47752 37311
L47776 37283
L47776 37269
L47752 37240
L47705 37226
L47633 37226
L47586 37211
L47562 37183
L47562 37169
L47586 37140
L47633 37126
L47705 37126
L47752 37140
" />
<path d="M47990 37326
L47990 37026
" />
<path d="M48038 37211
L48181 37326
" />
<path d="M48181 37126
L47990 37240
" />
<path d="M48609 37326
L48609 37169
L48586 37140
L48538 37126
L48443 37126
L48395 37140
" />
<path d="M48609 37311
L48562 37326
L48443 37326
L48395 37311
L48371 37283
L48371 37254
L48395 37226
L48443 37211
L48562 37211
L48609 37197
" />
<path d="M48847 37211
L49228 37211
" />
<path d="M49705 37326
L49467 37326
L49467 37026
" />
<path d="M49871 37326
L49871 37126
" />
<path d="M49871 37026
L49847 37040
L49871 37054
L49895 37040
L49871 37026
L49871 37054
" />
<path d="M50109 37126
L50109 37326
" />
<path d="M50109 37154
L50133 37140
L50181 37126
L50252 37126
L50300 37140
L50324 37169
L50324 37326
" />
<path d="M50776 37311
L50728 37326
L50633 37326
L50586 37311
L50562 37297
L50538 37269
L50538 37183
L50562 37154
L50586 37140
L50633 37126
L50728 37126
L50776 37140
" />
<path d="M51062 37326
L51014 37311
L50990 37297
L50967 37269
L50967 37183
L50990 37154
L51014 37140
L51062 37126
L51133 37126
L51181 37140
L51205 37154
L51228 37183
L51228 37269
L51205 37297
L51181 37311
L51133 37326
L51062 37326
" />
<path d="M51514 37326
L51467 37311
L51443 37283
L51443 37026
" />
<path d="M51705 37126
L51705 37326
" />
<path d="M51705 37154
L51728 37140
L51776 37126
L51847 37126
L51895 37140
L51919 37169
L51919 37326
" />
</g>
<g style="fill:#000000; fill-opacity:0.0; 
stroke:#000000; stroke-width:118.11; stroke-opacity:1; 
stroke-linecap:round; stroke-linejoin:round;">
<path d="M40607 36347
L40344 36347
" />
<path d="M40344 36656
L40344 36065
L40719 36065
" />
<path d="M41019 36656
L41019 36065
L41319 36065
L41394 36093
L41432 36122
L41469 36178
L41469 36262
L41432 36318
L41394 36347
L41319 36375
L41019 36375
" />
<path d="M41807 36656
L41807 36262
" />
<path d="M41807 36065
L41769 36093
L41807 36122
L41844 36093
L41807 36065
L41807 36122
" />
<path d="M42107 36656
L42519 36262
" />
<path d="M42107 36262
L42519 36656
" />
<path d="M43307 36262
L43607 36262
" />
<path d="M43419 36065
L43419 36571
L43457 36628
L43532 36656
L43607 36656
" />
<path d="M43982 36656
L43907 36628
L43869 36600
L43832 36543
L43832 36375
L43869 36318
L43907 36290
L43982 36262
L44094 36262
L44169 36290
L44206 36318
L44244 36375
L44244 36543
L44206 36600
L44169 36628
L44094 36656
L43982 36656
" />
<path d="M45181 36656
L45181 36065
L45369 36065
L45481 36093
L45556 36150
L45594 36206
L45631 36318
L45631 36403
L45594 36515
L45556 36571
L45481 36628
L45369 36656
L45181 36656
" />
<path d="M45856 36065
L46306 36065
" />
<path d="M46081 36656
L46081 36065
" />
<path d="M46831 36347
L46944 36375
L46981 36403
L47019 36459
L47019 36543
L46981 36600
L46944 36628
L46869 36656
L46569 36656
L46569 36065
L46831 36065
L46906 36093
L46944 36122
L46981 36178
L46981 36234
L46944 36290
L46906 36318
L46831 36347
L46569 36347
" />
<path d="M48293 36656
L48293 36347
L48256 36290
L48181 36262
L48031 36262
L47956 36290
" />
<path d="M48293 36628
L48218 36656
L48031 36656
L47956 36628
L47919 36571
L47919 36515
L47956 36459
L48031 36431
L48218 36431
L48293 36403
" />
<path d="M49006 36656
L49006 36065
" />
<path d="M49006 36628
L48931 36656
L48781 36656
L48706 36628
L48668 36600
L48631 36543
L48631 36375
L48668 36318
L48706 36290
L48781 36262
L48931 36262
L49006 36290
" />
<path d="M49718 36656
L49718 36347
L49681 36290
L49606 36262
L49456 36262
L49381 36290
" />
<path d="M49718 36628
L49643 36656
L49456 36656
L49381 36628
L49343 36571
L49343 36515
L49381 36459
L49456 36431
L49643 36431
L49718 36403
" />
<path d="M50093 36262
L50093 36853
" />
<path d="M50093 36290
L50168 36262
L50318 36262
L50393 36290
L50431 36318
L50468 36375
L50468 36543
L50431 36600
L50393 36628
L50318 36656
L50168 36656
L50093 36628
" />
<path d="M50693 36262
L50993 36262
" />
<path d="M50806 36065
L50806 36571
L50843 36628
L50918 36656
L50993 36656
" />
<path d="M51556 36628
L51481 36656
L51331 36656
L51256 36628
L51218 36571
L51218 36347
L51256 36290
L51331 36262
L51481 36262
L51556 36290
L51593 36347
L51593 36403
L51218 36459
" />
<path d="M51931 36656
L51931 36262
" />
<path d="M51931 36375
L51968 36318
L52006 36290
L52080 36262
L52155 36262
" />
</g>
<g style="fill:#000000; fill-opacity:0.0; 
stroke:#000000; stroke-width:50; stroke-opacity:1; 
stroke-linecap:round; stroke-linejoin:round;">
<path d="M54150 35000
L56150 35000
" />
<path d="M56150 35000
L56150 36800
" />
<path d="M56150 36800
L54150 36800
" />
<path d="M54150 36800
L54150 35000
" />
<path d="M54150 35600
L54350 35600
" />
<path d="M54350 35600
L54350 36100
" />
<path d="M54350 36100
L54150 36100
" />
</g>
<g style="fill:#000000; fill-opacity:0.0; 
stroke:#000000; stroke-width:59.0551; stroke-opacity:1; 
stroke-linecap:round; stroke-linejoin:round;">
<path d="M27322 32047
L27322 31889
" />
<path d="M27322 32519
L27322 32362
" />
<path d="M27322 32992
L27322 32834
" />
<path d="M27322 33464
L27322 33307
" />
<path d="M27322 33937
L27322 33779
" />
<path d="M27322 34527
L27322 34251
" />
<path d="M27322 28740
L27322 28464
" />
<path d="M27322 29212
L27322 29055
" />
<path d="M27322 29685
L27322 29527
" />
<path d="M27322 34527
L27125 34527
" />
<path d="M27322 28464
L27125 28464
" />
<path d="M27322 30157
L27322 30000
" />
<path d="M27322 30629
L27322 30472
" />
<path d="M27322 31102
L27322 30944
" />
<path d="M27322 31574
L27322 31417
" />
<path d="M23306.6 29646.1 A1197.39 1197.39 0.0 0 0 23268.2 31339.1 " />
<path d="M23307.1 33385.8 A1447.62 1447.62 0.0 0 0 23307.1 31338.6 " />
<path d="M25925 29118
L24940 29118
" />
<path d="M24940 29122
L24940 29413
" />
<path d="M24673 29413
L24944 29413
" />
<path d="M24645 29425
L24070 29618
" />
<path d="M24066 29618
L23342 29618
" />
<path d="M24645 33566
L24070 33374
" />
<path d="M24070 33374
L23346 33374
" />
<path d="M24944 33870
L24944 33578
" />
<path d="M24673 33578
L24944 33578
" />
<path d="M24940 33874
L25925 33874
" />
<path d="M25933 33874
L25933 29122
" />
<path d="M26791 34507
L26791 28464
" />
<path d="M26791 28464
L24389 28464
" />
<path d="M24389 28464
L24389 34507
" />
<path d="M24389 34507
L26791 34507
" />
</g>
<g style="fill:#000000; fill-opacity:0.0; 
stroke:#000000; stroke-width:50; stroke-opacity:1; 
stroke-linecap:round; stroke-linejoin:round;">
<path d="M37750 35600
L37750 34700
" />
<path d="M37750 34700
L38250 34700
" />
<path d="M38250 34700
L38250 35600
" />
<path d="M38250 35600
L37750 35600
" />
<path d="M38520 34423
L37620 34423
" />
<path d="M37620 34423
L37620 33923
" />
<path d="M37620 33923
L38520 33923
" />
<path d="M38520 33923
L38520 34423
" />
<path d="M53810 33940
L52910 33940
" />
<path d="M52910 33940
L52910 33440
" />
<path d="M52910 33440
L53810 33440
" />
<path d="M53810 33440
L53810 33940
" />
<path d="M53810 34740
L52910 34740
" />
<path d="M52910 34740
L52910 34240
" />
<path d="M52910 34240
L53810 34240
" />
<path d="M53810 34240
L53810 34740
" />
<path d="M36361 33923
L37261 33923
" />
<path d="M37261 33923
L37261 34423
" />
<path d="M37261 34423
L36361 34423
" />
<path d="M36361 34423
L36361 33923
" />
<path d="M39290 35600
L39290 34700
" />
<path d="M39290 34700
L39790 34700
" />
<path d="M39790 34700
L39790 35600
" />
<path d="M39790 35600
L39290 35600
" />
<path d="M37120 35930
L37120 36830
" />
<path d="M37120 36830
L36620 36830
" />
<path d="M36620 36830
L36620 35930
" />
<path d="M36620 35930
L37120 35930
" />
<path d="M39780 35930
L39780 36830
" />
<path d="M39780 36830
L39280 36830
" />
<path d="M39280 36830
L39280 35930
" />
<path d="M39280 35930
L39780 35930
" />
<path d="M36620 35610
L36620 34710
" />
<path d="M36620 34710
L37120 34710
" />
<path d="M37120 34710
L37120 35610
" />
<path d="M37120 35610
L36620 35610
" />
<path d="M23950 37040
L24850 37040
" />
<path d="M24850 37040
L24850 37540
" />
<path d="M24850 37540
L23950 37540
" />
<path d="M23950 37540
L23950 37040
" />
</g>
<g style="fill:#000000; fill-opacity:0.0; 
stroke:#000000; stroke-width:28; stroke-opacity:1; 
stroke-linecap:round; stroke-linejoin:round;">
<path d="M33850 37825
L33850 37625
" />
<path d="M33850 37625
L33550 37625
" />
<path d="M33550 37625
L33550 37825
" />
<path d="M33850 38025
L33850 38225
" />
<path d="M33850 38225
L33550 38225
" />
<path d="M33550 38225
L33550 38025
" />
<path d="M33850 25125
L33850 24925
" />
<path d="M33850 24925
L33550 24925
" />
<path d="M33550 24925
L33550 25125
" />
<path d="M33850 25325
L33850 25525
" />
<path d="M33850 25525
L33550 25525
" />
<path d="M33550 25525
L33550 25325
" />
<path d="M33800 26900
L33800 26700
" />
<path d="M33800 26700
L33500 26700
" />
<path d="M33500 26700
L33500 26900
" />
<path d="M33800 27100
L33800 27300
" />
<path d="M33800 27300
L33500 27300
" />
<path d="M33500 27300
L33500 27100
" />
<path d="M33800 33500
L33800 33300
" />
<path d="M33800 33300
L33500 33300
" />
<path d="M33500 33300
L33500 33500
" />
<path d="M33800 33700
L33800 33900
" />
<path d="M33800 33900
L33500 33900
" />
<path d="M33500 33900
L33500 33700
" />
<path d="M33850 35600
L33850 35400
" />
<path d="M33850 35400
L33550 35400
" />
<path d="M33550 35400
L33550 35600
" />
<path d="M33850 35800
L33850 36000
" />
<path d="M33850 36000
L33550 36000
" />
<path d="M33550 36000
L33550 35800
" />
<path d="M33200 25125
L33400 25125
" />
<path d="M33400 25125
L33400 24825
" />
<path d="M33400 24825
L33200 24825
" />
<path d="M33000 25125
L32800 25125
" />
<path d="M32800 25125
L32800 24825
" />
<path d="M32800 24825
L33000 24825
" />
<path d="M32650 33500
L32650 33300
" />
<path d="M32650 33300
L32350 33300
" />
<path d="M32350 33300
L32350 33500
" />
<path d="M32650 33700
L32650 33900
" />
<path d="M32650 33900
L32350 33900
" />
<path d="M32350 33900
L32350 33700
" />
<path d="M33200 25625
L33400 25625
" />
<path d="M33400 25625
L33400 25325
" />
<path d="M33400 25325
L33200 25325
" />
<path d="M33000 25625
L32800 25625
" />
<path d="M32800 25625
L32800 25325
" />
<path d="M32800 25325
L33000 25325
" />
<path d="M32650 25125
L32650 24925
" />
<path d="M32650 24925
L32350 24925
" />
<path d="M32350 24925
L32350 25125
" />
<path d="M32650 25325
L32650 25525
" />
<path d="M32650 25525
L32350 25525
" />
<path d="M32350 25525
L32350 25325
" />
<path d="M33175 26900
L33375 26900
" />
<path d="M33375 26900
L33375 26600
" />
<path d="M33375 26600
L33175 26600
" />
<path d="M32975 26900
L32775 26900
" />
<path d="M32775 26900
L32775 26600
" />
<path d="M32775 26600
L32975 26600
" />
<path d="M32650 26900
L32650 26700
" />
<path d="M32650 26700
L32350 26700
" />
<path d="M32350 26700
L32350 26900
" />
<path d="M32650 27100
L32650 27300
" />
<path d="M32650 27300
L32350 27300
" />
<path d="M32350 27300
L32350 27100
" />
<path d="M33175 27400
L33375 27400
" />
<path d="M33375 27400
L33375 27100
" />
<path d="M33375 27100
L33175 27100
" />
<path d="M32975 27400
L32775 27400
" />
<path d="M32775 27400
L32775 27100
" />
<path d="M32775 27100
L32975 27100
" />
<path d="M33175 33500
L33375 33500
" />
<path d="M33375 33500
L33375 33200
" />
<path d="M33375 33200
L33175 33200
" />
<path d="M32975 33500
L32775 33500
" />
<path d="M32775 33500
L32775 33200
" />
<path d="M32775 33200
L32975 33200
" />
<path d="M33175 34000
L33375 34000
" />
<path d="M33375 34000
L33375 33700
" />
<path d="M33375 33700
L33175 33700
" />
<path d="M32975 34000
L32775 34000
" />
<path d="M32775 34000
L32775 33700
" />
<path d="M32775 33700
L32975 33700
" />
<path d="M33200 35600
L33400 35600
" />
<path d="M33400 35600
L33400 35300
" />
<path d="M33400 35300
L33200 35300
" />
<path d="M33000 35600
L32800 35600
" />
<path d="M32800 35600
L32800 35300
" />
<path d="M32800 35300
L33000 35300
" />
<path d="M32650 35600
L32650 35400
" />
<path d="M32650 35400
L32350 35400
" />
<path d="M32350 35400
L32350 35600
" />
<path d="M32650 35800
L32650 36000
" />
<path d="M32650 36000
L32350 36000
" />
<path d="M32350 36000
L32350 35800
" />
<path d="M33200 36100
L33400 36100
" />
<path d="M33400 36100
L33400 35800
" />
<path d="M33400 35800
L33200 35800
" />
<path d="M33000 36100
L32800 36100
" />
<path d="M32800 36100
L32800 35800
" />
<path d="M32800 35800
L33000 35800
" />
<path d="M33200 37825
L33400 37825
" />
<path d="M33400 37825
L33400 37525
" />
<path d="M33400 37525
L33200 37525
" />
<path d="M33000 37825
L32800 37825
" />
<path d="M32800 37825
L32800 37525
" />
<path d="M32800 37525
L33000 37525
" />
<path d="M32350 38025
L32350 38225
" />
<path d="M32350 38225
L32650 38225
" />
<path d="M32650 38225
L32650 38025
" />
<path d="M32350 37825
L32350 37625
" />
<path d="M32350 37625
L32650 37625
" />
<path d="M32650 37625
L32650 37825
" />
<path d="M33200 38325
L33400 38325
" />
<path d="M33400 38325
L33400 38025
" />
<path d="M33400 38025
L33200 38025
" />
<path d="M33000 38325
L32800 38325
" />
<path d="M32800 38325
L32800 38025
" />
<path d="M32800 38025
L33000 38025
" />
</g>
<g style="fill:#000000; fill-opacity:0.0; 
stroke:#000000; stroke-width:59.0551; stroke-opacity:1; 
stroke-linecap:round; stroke-linejoin:round;">
<circle cx="54675" cy="30125" r="430" /> 
<circle cx="31875" cy="30125" r="430.116" /> 
<path d="M34185 29040
L34525 31210
" />
<path d="M52355 29030
L52015 31210
" />
<path d="M34525 31215
L52025 31215
" />
<path d="M34195 29035
L52355 29035
" />
<path d="M33650 28750
L32700 28750
" />
<path d="M32700 28750
L32700 29450
" />
<path d="M32700 29450
L33100 29450
" />
<path d="M33100 31500
L33100 28750
" />
<path d="M33650 28750
L33650 31500
" />
<path d="M33650 31500
L32700 31500
" />
<path d="M32700 31500
L32700 30800
" />
<path d="M33100 30800
L32700 30800
" />
<path d="M52900 28750
L53850 28750
" />
<path d="M52900 31500
L53850 31500
" />
<path d="M52905 28740
L52905 31490
" />
<path d="M53450 28750
L53450 31490
" />
<path d="M53850 28750
L53850 29450
" />
<path d="M53850 31500
L53850 30800
" />
<path d="M53845 29440
L53455 29450
" />
<path d="M53845 30800
L53465 30800
" />
<path d="M53845 30800
L53465 30800
" />
<path d="M53845 29440
L53455 29450
" />
<path d="M53850 31500
L53850 30800
" />
<path d="M53850 28750
L53850 29450
" />
<path d="M53450 28750
L53450 31490
" />
<path d="M52905 28740
L52905 31490
" />
<path d="M52900 31500
L53850 31500
" />
<path d="M52900 28750
L53850 28750
" />
<path d="M55850 28095
L55850 32155
" />
<path d="M30700 32155
L30700 28095
" />
<path d="M30700 28095
L55850 28095
" />
<path d="M30700 32155
L55850 32155
" />
</g>
<g style="fill:#000000; fill-opacity:0.0; 
stroke:#000000; stroke-width:60; stroke-opacity:1; 
stroke-linecap:round; stroke-linejoin:round;">
<path d="M43950 32530
L44950 32530
" />
<path d="M44950 32530
L44950 34530
" />
<path d="M44950 34530
L43950 34530
" />
<path d="M43950 34530
L43950 32530
" />
</g>
<g style="fill:#000000; fill-opacity:0.0; 
stroke:#000000; stroke-width:26; stroke-opacity:1; 
stroke-linecap:round; stroke-linejoin:round;">
<path d="M26317 37113
L26317 37467
" />
<path d="M26317 37467
L26474 37467
" />
<path d="M26474 37113
L26474 37467
" />
<path d="M26317 37113
L26474 37113
" />
<path d="M25806 37113
L25806 37467
" />
<path d="M25806 37467
L25963 37467
" />
<path d="M25963 37113
L25963 37467
" />
<path d="M25806 37113
L25963 37113
" />
<path d="M26140 37113
L26140 37172
" />
<path d="M26140 37172
L26258 37172
" />
<path d="M26258 37113
L26258 37172
" />
<path d="M26140 37113
L26258 37113
" />
<path d="M26140 37408
L26140 37467
" />
<path d="M26140 37467
L26258 37467
" />
<path d="M26258 37408
L26258 37467
" />
<path d="M26140 37408
L26258 37408
" />
<path d="M26140 37231
L26140 37349
" />
<path d="M26140 37349
L26258 37349
" />
<path d="M26258 37231
L26258 37349
" />
<path d="M26140 37231
L26258 37231
" />
</g>
<g style="fill:#000000; fill-opacity:0.0; 
stroke:#000000; stroke-width:40; stroke-opacity:1; 
stroke-linecap:round; stroke-linejoin:round;">
<path d="M26317 37133
L25963 37133
" />
<path d="M26317 37447
L25963 37447
" />
</g>
<g style="fill:#000000; fill-opacity:0.0; 
stroke:#000000; stroke-width:59.0551; stroke-opacity:1; 
stroke-linecap:round; stroke-linejoin:round;">
<circle cx="57480.3" cy="25196.9" r="850.111" /> 
<circle cx="57480.3" cy="37795.3" r="850.111" /> 
<circle cx="21259.8" cy="37795.3" r="850.111" /> 
<circle cx="21259.8" cy="25196.9" r="850.111" /> 
</g>
<g style="fill:#000000; fill-opacity:1.0; 
stroke:#000000; stroke-width:1; stroke-opacity:1; 
stroke-linecap:round; stroke-linejoin:round;">
<polyline style="fill-rule:evenodd;"
points="48547,35555
48489,35555
48489,33754
48489,33499
48487,33296
48477,32621
47370,32623
46263,32624
46497,32702
46641,32752
46785,32807
46888,32849
46977,32884
47034,32900
47047,32897
47066,32902
47112,32946
47114,32948
47178,33007
47225,33013
47279,32966
47289,32955
47357,32909
47448,32888
47535,32893
47594,32925
47602,32939
47607,33000
47568,33017
47510,32994
47435,32968
47390,33000
47380,33056
47412,33119
47497,33169
47579,33216
47629,33269
47633,33278
47681,33392
47734,33445
47736,33446
47774,33429
47844,33373
47935,33290
47976,33250
48089,33143
48165,33085
48209,33073
48217,33078
48218,33115
48175,33182
48084,33285
48049,33321
47958,33416
47888,33492
47850,33538
47847,33545
47865,33579
47912,33650
47967,33727
48035,33816
48079,33858
48112,33862
48145,33839
48207,33799
48260,33789
48280,33811
48259,33849
48214,33904
48148,33974
48263,34239
48323,34386
48377,34533
48416,34654
48420,34671
48438,34737
48450,34770
48459,34764
48466,34713
48472,34610
48478,34447
48480,34405
48485,34227
48488,34003
48489,33754
48489,35555
48488,35555
48488,35488
48464,35270
48439,35105
48400,34919
48349,34725
48292,34535
48231,34361
48173,34218
48119,34116
48080,34071
48038,34078
47999,34097
47999,33964
47991,33920
47947,33844
47912,33790
47846,33701
47793,33640
47767,33621
47729,33641
47670,33681
47670,33509
47667,33493
47633,33477
47572,33508
47556,33521
47460,33573
47365,33586
47289,33563
47249,33506
47247,33484
47254,33432
47285,33428
47343,33460
47422,33483
47486,33457
47513,33391
47513,33390
47480,33322
47380,33255
47300,33208
47252,33169
47247,33157
47220,33122
47192,33107
47164,33103
47150,33126
47148,33189
47157,33305
47159,33320
47168,33443
47168,33513
47154,33546
47126,33554
47119,33555
47081,33541
47053,33491
47030,33390
47026,33363
46994,33171
46897,33363
46843,33461
46798,33530
46773,33555
46745,33527
46700,33455
46655,33369
46604,33270
46574,33225
46555,33226
46542,33260
46525,33351
46516,33446
46499,33519
46465,33556
46431,33550
46413,33494
46413,33486
46419,33399
46433,33283
46454,33156
46476,33038
46498,32949
46514,32909
46542,32919
46587,32977
46625,33042
46681,33147
46733,33234
46755,33267
46785,33299
46811,33296
46847,33248
46891,33172
46940,33081
46972,33017
46980,32998
46952,32978
46878,32940
46775,32891
46767,32887
46521,32792
46241,32711
45963,32652
45825,32634
45613,32612
45613,33182
45613,33751
45738,33772
45998,33821
46209,33879
46390,33952
46558,34047
46613,34084
46703,34141
46772,34178
46797,34187
46836,34168
46916,34118
47024,34045
47118,33979
47324,33827
47479,33708
47585,33618
47647,33553
47670,33509
47670,33681
47654,33693
47555,33768
47517,33798
47384,33903
47242,34010
47120,34099
47113,34104
47016,34173
46939,34228
46902,34257
46901,34294
46926,34358
46962,34420
46995,34454
46999,34455
47034,34444
47116,34415
47230,34375
47279,34357
47518,34257
47763,34125
47978,33991
47999,33964
47999,34097
47964,34115
47924,34140
47743,34250
47529,34359
47312,34452
47255,34473
47159,34511
47095,34544
47080,34560
47093,34604
47126,34682
47137,34706
47181,34784
47225,34814
47294,34811
47303,34810
47496,34755
47695,34658
47873,34534
47962,34449
48051,34352
48107,34303
48136,34296
48146,34329
48147,34349
48117,34434
48035,34532
47913,34634
47761,34732
47592,34817
47438,34874
47246,34934
47267,35052
47288,35151
47316,35201
47366,35219
47433,35221
47603,35189
47758,35092
47811,35041
47872,34983
47915,34955
47919,34955
47947,34975
47932,35029
47878,35104
47838,35146
47678,35264
47508,35317
47444,35321
47374,35331
47349,35370
47347,35405
47347,35488
47917,35488
48488,35488
48488,35555
47247,35555
47247,35408
47223,35337
47210,35330
47210,35186
47205,35140
47201,35117
47186,35035
47180,34984
47149,34970
47113,34965
47113,34837
47100,34800
47067,34730
47028,34651
46992,34585
46971,34555
46931,34565
46879,34581
46879,34458
46860,34419
46830,34375
46803,34345
46772,34338
46722,34356
46678,34382
46678,34246
46678,34245
46652,34210
46579,34157
46476,34094
46357,34030
46237,33974
46186,33953
46043,33910
45883,33876
45810,33866
45613,33845
45613,34095
45613,34345
45772,34364
45905,34391
46045,34435
46080,34450
46172,34489
46237,34514
46253,34519
46291,34504
46369,34461
46470,34400
46477,34396
46576,34331
46648,34278
46678,34246
46678,34382
46640,34405
46565,34453
46465,34524
46394,34584
46366,34622
46367,34627
46409,34643
46442,34636
46502,34613
46601,34577
46688,34546
46789,34507
46858,34475
46879,34458
46879,34581
46850,34590
46750,34622
46652,34655
46578,34681
46570,34684
46508,34716
46498,34755
46513,34788
46538,34821
46580,34841
46654,34851
46774,34854
46831,34855
46959,34853
47056,34847
47108,34840
47113,34837
47113,34965
47068,34960
46951,34955
46913,34955
46768,34958
46682,34969
46648,34990
46647,34996
46664,35060
46719,35108
46823,35147
46916,35169
47059,35200
47148,35214
47195,35210
47210,35186
47210,35330
47172,35311
47089,35294
46983,35277
46876,35262
46790,35252
46747,35251
46739,35284
46742,35352
46754,35423
46768,35463
46807,35475
46894,35484
47010,35488
47015,35488
47136,35486
47206,35479
47237,35461
47246,35426
47247,35408
47247,35555
47063,35555
46689,35555
46689,35488
46669,35367
46652,35283
46635,35233
46633,35230
46593,35217
46579,35214
46579,35076
46554,34997
46486,34967
46447,34971
46447,34834
46428,34794
46369,34800
46313,34828
46313,34680
46295,34655
46243,34681
46192,34728
46192,34589
46043,34523
45918,34477
45788,34442
45753,34435
45613,34413
45613,34584
45615,34684
45628,34735
45661,34753
45705,34755
45792,34767
45847,34788
45906,34815
45961,34806
46030,34754
46079,34705
46192,34589
46192,34728
46162,34757
46161,34759
46063,34863
46188,34784
46263,34731
46308,34689
46313,34680
46313,34828
46266,34853
46259,34857
46181,34910
46149,34944
46165,34951
46205,34939
46282,34915
46355,34898
46421,34870
46447,34834
46447,34971
46427,34974
46312,35009
46242,35048
46228,35084
46228,35086
46270,35104
46348,35113
46441,35112
46524,35103
46574,35085
46579,35076
46579,35214
46510,35202
46460,35196
46303,35178
46325,35287
46340,35377
46346,35441
46347,35442
46369,35471
46443,35486
46518,35488
46689,35488
46689,35555
46255,35555
46255,35488
46233,35381
46206,35284
46164,35242
46107,35243
46107,35142
46102,35132
46062,35128
46058,35132
46062,35152
46080,35155
46107,35142
46107,35243
46088,35244
46038,35256
45943,35288
45902,35323
45904,35377
45916,35413
45945,35460
45998,35482
46096,35488
46100,35488
46255,35488
46255,35555
45847,35555
45847,35438
45846,35436
45846,34933
45817,34898
45747,34868
45658,34855
45655,34855
45631,34884
45617,34954
45612,35041
45619,35121
45637,35168
45669,35159
45722,35113
45780,35048
45827,34982
45846,34933
45846,35436
45820,35394
45797,35388
45751,35408
45759,35454
45769,35466
45818,35487
45845,35452
45847,35438
45847,35555
45647,35555
45647,35271
45630,35255
45613,35271
45630,35288
45647,35271
45647,35555
45580,35555
45580,34071
45580,32588
47063,32588
48547,32588
48547,34071
48547,35555
48547,35555
" /> 
<polyline style="fill-rule:evenodd;"
points="46344,33488
46330,33521
46282,33553
46162,33584
46025,33570
45939,33536
45844,33462
45794,33361
45780,33221
45794,33109
45845,33020
45879,32983
45946,32924
46011,32897
46102,32892
46154,32894
46261,32905
46318,32927
46341,32964
46341,32968
46339,33012
46297,33007
46292,33005
46174,32967
46088,32971
46012,33019
45998,33033
45930,33141
45913,33264
45948,33379
45984,33425
46043,33470
46115,33483
46200,33476
46299,33471
46344,33488
46344,33488
" /> 
<polyline style="fill-rule:evenodd;"
points="52290,35555
51925,35554
51925,35488
51916,35196
51906,34905
51748,34894
51590,34884
51590,34036
51590,33188
51756,33188
51923,33188
51923,32905
51923,32621
51290,32621
50656,32621
50656,32905
50656,33188
50823,33188
50990,33188
50990,33659
50990,34130
50390,33376
49791,32621
49373,32621
48956,32621
48956,32905
48956,33188
49123,33188
49290,33188
49290,34055
49290,34921
49123,34921
48956,34921
48956,35205
48956,35488
49590,35488
50223,35488
50223,35205
50223,34921
50072,34921
49966,34912
49909,34885
49904,34878
49898,34829
49895,34729
49894,34589
49896,34426
49897,34405
49906,33976
50504,34732
51102,35488
51514,35488
51925,35488
51925,35554
51631,35554
50973,35553
50756,35268
50644,35121
50524,34965
50402,34809
50287,34662
50186,34535
50108,34438
50061,34381
50054,34373
50037,34385
50027,34457
50023,34581
50023,34821
50190,34821
50356,34821
50356,35188
50356,35555
49623,35555
48890,35555
48890,35188
48890,34821
49040,34821
49190,34821
49190,34055
49190,33288
49040,33288
48890,33288
48890,32921
48890,32555
49400,32555
49911,32555
50292,33037
50420,33200
50541,33354
50645,33487
50724,33589
50764,33642
50856,33765
50856,33527
50856,33288
50690,33288
50523,33288
50523,32921
50523,32555
51290,32555
52056,32555
52056,32921
52056,33288
51890,33288
51723,33288
51723,34055
51723,34821
51890,34821
52056,34821
52056,35081
52056,35341
52173,35327
52250,35323
52282,35344
52289,35411
52290,35434
52290,35555
52290,35555
" /> 
<polyline style="fill-rule:evenodd;"
points="51690,32905
51660,32944
51592,32955
51536,32956
51492,32965
51457,32988
51431,33031
51413,33103
51401,33209
51394,33357
51391,33553
51390,33803
51390,34021
51390,34983
51476,35051
51556,35105
51626,35139
51686,35167
51684,35191
51624,35209
51511,35219
51412,35221
51135,35221
50421,34318
49706,33414
49697,34223
49695,34496
49695,34710
49700,34872
49711,34989
49730,35068
49758,35117
49796,35143
49846,35153
49895,35155
49963,35165
49990,35188
49957,35202
49866,35213
49724,35220
49590,35221
49414,35218
49284,35211
49207,35199
49190,35188
49218,35163
49281,35154
49347,35150
49399,35134
49440,35101
49471,35042
49493,34952
49508,34824
49517,34651
49521,34428
49523,34146
49523,34034
49523,33151
49442,33071
49360,33007
49276,32969
49212,32938
49190,32901
49205,32877
49258,32863
49360,32856
49465,32855
49740,32855
50438,33740
50605,33951
50761,34147
50899,34320
51016,34464
51105,34573
51162,34641
51180,34660
51194,34661
51204,34632
51212,34568
51218,34462
51221,34306
51222,34095
51222,33917
51221,33642
51218,33426
51211,33263
51198,33144
51178,33062
51149,33010
51110,32980
51058,32966
51014,32961
50921,32941
50890,32903
50890,32902
50901,32882
50942,32868
51022,32859
51152,32855
51290,32855
51462,32856
51578,32860
51648,32870
51682,32885
51690,32905
51690,32905
" /> 
</g>
<g style="fill:#000000; fill-opacity:1.0; 
stroke:#000000; stroke-width:50; stroke-opacity:1; 
stroke-linecap:round; stroke-linejoin:round;">
<path d="M38447 25891
L39347 25891
" />
<path d="M39347 25891
L39347 26391
" />
<path d="M39347 26391
L38447 26391
" />
<path d="M38447 26391
L38447 25891
" />
</g>
<g style="fill:#000000; fill-opacity:0.0; 
stroke:#000000; stroke-width:19.685; stroke-opacity:1; 
stroke-linecap:round; stroke-linejoin:round;">
<path d="M27406 25624
L27406 25428
L27481 25428
L27499 25437
L27509 25446
L27518 25465
L27518 25493
L27509 25512
L27499 25521
L27481 25531
L27406 25531
" />
<path d="M27706 25624
L27593 25624
" />
<path d="M27649 25624
L27649 25428
L27631 25456
L27612 25474
L27593 25484
" />
<path d="M27874 25493
L27874 25624
" />
<path d="M27828 25418
L27781 25559
L27903 25559
" />
<path d="M32149 35799
L32149 35603
L32224 35603
L32243 35612
L32253 35621
L32262 35640
L32262 35668
L32253 35687
L32243 35696
L32224 35706
L32149 35706
" />
<path d="M32374 35687
L32356 35678
L32346 35668
L32337 35649
L32337 35640
L32346 35621
L32356 35612
L32374 35603
L32412 35603
L32431 35612
L32440 35621
L32449 35640
L32449 35649
L32440 35668
L32431 35678
L32412 35687
L32374 35687
L32356 35696
L32346 35706
L32337 35724
L32337 35762
L32346 35781
L32356 35790
L32374 35799
L32412 35799
L32431 35790
L32440 35781
L32449 35762
L32449 35724
L32440 35706
L32431 35696
L32412 35687
" />
<path d="M32056 38024
L32056 37828
L32131 37828
L32149 37837
L32159 37846
L32168 37865
L32168 37893
L32159 37912
L32149 37921
L32131 37931
L32056 37931
" />
<path d="M32356 38024
L32243 38024
" />
<path d="M32299 38024
L32299 37828
L32281 37856
L32262 37874
L32243 37884
" />
<path d="M32431 37846
L32440 37837
L32459 37828
L32506 37828
L32524 37837
L32534 37846
L32543 37865
L32543 37884
L32534 37912
L32421 38024
L32543 38024
" />
<path d="M32056 38574
L32056 38378
L32131 38378
L32149 38387
L32159 38396
L32168 38415
L32168 38443
L32159 38462
L32149 38471
L32131 38481
L32056 38481
" />
<path d="M32356 38574
L32243 38574
" />
<path d="M32299 38574
L32299 38378
L32281 38406
L32262 38424
L32243 38434
" />
<path d="M32421 38378
L32543 38378
L32478 38453
L32506 38453
L32524 38462
L32534 38471
L32543 38490
L32543 38537
L32534 38556
L32524 38565
L32506 38574
L32449 38574
L32431 38565
L32421 38556
" />
<path d="M24536 35964
L24536 35768
L24611 35768
L24629 35777
L24639 35786
L24648 35805
L24648 35833
L24639 35852
L24629 35861
L24611 35871
L24536 35871
" />
<path d="M24836 35964
L24723 35964
" />
<path d="M24779 35964
L24779 35768
L24761 35796
L24742 35814
L24723 35824
" />
<path d="M24958 35768
L24976 35768
L24995 35777
L25004 35786
L25014 35805
L25023 35843
L25023 35889
L25014 35927
L25004 35946
L24995 35955
L24976 35964
L24958 35964
L24939 35955
L24929 35946
L24920 35927
L24911 35889
L24911 35843
L24920 35805
L24929 35786
L24939 35777
L24958 35768
" />
<path d="M53189 36274
L53189 36078
L53264 36078
L53283 36087
L53293 36096
L53302 36115
L53302 36143
L53293 36162
L53283 36171
L53264 36181
L53189 36181
" />
<path d="M53396 36274
L53433 36274
L53452 36265
L53461 36256
L53480 36228
L53489 36190
L53489 36115
L53480 36096
L53471 36087
L53452 36078
L53414 36078
L53396 36087
L53386 36096
L53377 36115
L53377 36162
L53386 36181
L53396 36190
L53414 36199
L53452 36199
L53471 36190
L53480 36181
L53489 36162
" />
<path d="M24469 28144
L24469 27948
L24544 27948
L24563 27957
L24573 27966
L24582 27985
L24582 28013
L24573 28032
L24563 28041
L24544 28051
L24469 28051
" />
<path d="M24751 28013
L24751 28144
" />
<path d="M24704 27938
L24657 28079
L24779 28079
" />
<path d="M41006 35224
L41006 35028
L41081 35028
L41099 35037
L41109 35046
L41118 35065
L41118 35093
L41109 35112
L41099 35121
L41081 35131
L41006 35131
" />
<path d="M41306 35224
L41193 35224
" />
<path d="M41249 35224
L41249 35028
L41231 35056
L41212 35074
L41193 35084
" />
<path d="M41484 35028
L41390 35028
L41381 35121
L41390 35112
L41409 35103
L41456 35103
L41474 35112
L41484 35121
L41493 35140
L41493 35187
L41484 35206
L41474 35215
L41456 35224
L41409 35224
L41390 35215
L41381 35206
" />
<path d="M36026 36504
L36026 36308
L36101 36308
L36119 36317
L36129 36326
L36138 36345
L36138 36373
L36129 36392
L36119 36401
L36101 36411
L36026 36411
" />
<path d="M36326 36504
L36213 36504
" />
<path d="M36269 36504
L36269 36308
L36251 36336
L36232 36354
L36213 36364
" />
<path d="M36494 36308
L36457 36308
L36438 36317
L36429 36326
L36410 36354
L36401 36392
L36401 36467
L36410 36486
L36419 36495
L36438 36504
L36476 36504
L36494 36495
L36504 36486
L36513 36467
L36513 36420
L36504 36401
L36494 36392
L36476 36383
L36438 36383
L36419 36392
L36410 36401
L36401 36420
" />
<path d="M32149 25324
L32149 25128
L32224 25128
L32243 25137
L32253 25146
L32262 25165
L32262 25193
L32253 25212
L32243 25221
L32224 25231
L32149 25231
" />
<path d="M32449 25324
L32337 25324
" />
<path d="M32393 25324
L32393 25128
L32374 25156
L32356 25174
L32337 25184
" />
<path d="M32149 25874
L32149 25678
L32224 25678
L32243 25687
L32253 25696
L32262 25715
L32262 25743
L32253 25762
L32243 25771
L32224 25781
L32149 25781
" />
<path d="M32337 25696
L32346 25687
L32365 25678
L32412 25678
L32431 25687
L32440 25696
L32449 25715
L32449 25734
L32440 25762
L32328 25874
L32449 25874
" />
<path d="M32149 27099
L32149 26903
L32224 26903
L32243 26912
L32253 26921
L32262 26940
L32262 26968
L32253 26987
L32243 26996
L32224 27006
L32149 27006
" />
<path d="M32328 26903
L32449 26903
L32384 26978
L32412 26978
L32431 26987
L32440 26996
L32449 27015
L32449 27062
L32440 27081
L32431 27090
L32412 27099
L32356 27099
L32337 27090
L32328 27081
" />
<path d="M32149 27649
L32149 27453
L32224 27453
L32243 27462
L32253 27471
L32262 27490
L32262 27518
L32253 27537
L32243 27546
L32224 27556
L32149 27556
" />
<path d="M32440 27453
L32346 27453
L32337 27546
L32346 27537
L32365 27528
L32412 27528
L32431 27537
L32440 27546
L32449 27565
L32449 27612
L32440 27631
L32431 27640
L32412 27649
L32365 27649
L32346 27640
L32337 27631
" />
<path d="M32149 33699
L32149 33503
L32224 33503
L32243 33512
L32253 33521
L32262 33540
L32262 33568
L32253 33587
L32243 33596
L32224 33606
L32149 33606
" />
<path d="M32431 33503
L32393 33503
L32374 33512
L32365 33521
L32346 33549
L32337 33587
L32337 33662
L32346 33681
L32356 33690
L32374 33699
L32412 33699
L32431 33690
L32440 33681
L32449 33662
L32449 33615
L32440 33596
L32431 33587
L32412 33578
L32374 33578
L32356 33587
L32346 33596
L32337 33615
" />
<path d="M32056 36349
L32056 36153
L32131 36153
L32149 36162
L32159 36171
L32168 36190
L32168 36218
L32159 36237
L32149 36246
L32131 36256
L32056 36256
" />
<path d="M32356 36349
L32243 36349
" />
<path d="M32299 36349
L32299 36153
L32281 36181
L32262 36199
L32243 36209
" />
<path d="M32543 36349
L32431 36349
" />
<path d="M32487 36349
L32487 36153
L32468 36181
L32449 36199
L32431 36209
" />
<path d="M32149 34249
L32149 34053
L32224 34053
L32243 34062
L32253 34071
L32262 34090
L32262 34118
L32253 34137
L32243 34146
L32224 34156
L32149 34156
" />
<path d="M32328 34053
L32459 34053
L32374 34249
" />
</g>
<g style="fill:#000000; fill-opacity:0.0; 
stroke:#000000; stroke-width:50; stroke-opacity:1; 
stroke-linecap:round; stroke-linejoin:round;">
<path d="M54845 35132
L54845 35496
L54864 35539
L54883 35560
L54921 35582
L54997 35582
L55035 35560
L55054 35539
L55073 35496
L55073 35132
" />
<path d="M55473 35582
L55245 35582
" />
<path d="M55359 35582
L55359 35132
L55321 35196
L55283 35239
L55245 35260
" />
<path d="M54264 36200
L54283 36180
L54321 36161
L54416 36161
L54454 36180
L54473 36200
L54492 36238
L54492 36276
L54473 36333
L54245 36561
L54492 36561
" />
<path d="M54835 36295
L54835 36561
" />
<path d="M54740 36142
L54645 36428
L54892 36428
" />
<path d="M55273 36523
L55254 36542
L55197 36561
L55159 36561
L55102 36542
L55064 36504
L55045 36466
L55026 36390
L55026 36333
L55045 36257
L55064 36219
L55102 36180
L55159 36161
L55197 36161
L55254 36180
L55273 36200
" />
<path d="M55521 36161
L55559 36161
L55597 36180
L55616 36200
L55635 36238
L55654 36314
L55654 36409
L55635 36485
L55616 36523
L55597 36542
L55559 36561
L55521 36561
L55483 36542
L55464 36523
L55445 36485
L55426 36409
L55426 36314
L55445 36238
L55464 36200
L55483 36180
L55521 36161
" />
<path d="M55807 36200
L55826 36180
L55864 36161
L55959 36161
L55997 36180
L56016 36200
L56035 36238
L56035 36276
L56016 36333
L55788 36561
L56035 36561
" />
</g>
<g style="fill:#000000; fill-opacity:0.0; 
stroke:#000000; stroke-width:59.0551; stroke-opacity:1; 
stroke-linecap:round; stroke-linejoin:round;">
<path d="M24923 31603
L25204 31603
L25260 31622
L25298 31659
L25316 31716
L25316 31753
" />
<path d="M24960 31434
L24941 31416
L24923 31378
L24923 31284
L24941 31247
L24960 31228
L24998 31209
L25035 31209
L25091 31228
L25316 31453
L25316 31209
" />
</g>
<g style="fill:#000000; fill-opacity:0.0; 
stroke:#000000; stroke-width:45; stroke-opacity:1; 
stroke-linecap:round; stroke-linejoin:round;">
<path d="M38080 35265
L37985 35325
" />
<path d="M38080 35368
L37880 35368
L37880 35300
L37890 35282
L37900 35274
L37919 35265
L37947 35265
L37966 35274
L37976 35282
L37985 35300
L37985 35368
" />
<path d="M37900 35197
L37890 35188
L37880 35171
L37880 35128
L37890 35111
L37900 35102
L37919 35094
L37938 35094
L37966 35102
L38080 35205
L38080 35094
" />
<path d="M37947 34940
L38080 34940
" />
<path d="M37871 34982
L38014 35025
L38014 34914
" />
<path d="M38040 34235
L38032 34244
L38006 34254
L37989 34254
L37963 34244
L37946 34225
L37938 34206
L37929 34168
L37929 34139
L37938 34101
L37946 34082
L37963 34063
L37989 34054
L38006 34054
L38032 34063
L38040 34073
" />
<path d="M38195 34120
L38195 34254
" />
<path d="M38152 34044
L38109 34187
L38220 34187
" />
<path d="M53330 33751
L53321 33761
L53295 33770
L53278 33770
L53252 33761
L53235 33742
L53227 33723
L53218 33685
L53218 33656
L53227 33618
L53235 33599
L53252 33580
L53278 33570
L53295 33570
L53321 33580
L53330 33590
" />
<path d="M53501 33770
L53398 33770
" />
<path d="M53450 33770
L53450 33570
L53432 33599
L53415 33618
L53398 33628
" />
<path d="M53330 34551
L53321 34561
L53295 34570
L53278 34570
L53252 34561
L53235 34542
L53227 34523
L53218 34485
L53218 34456
L53227 34418
L53235 34399
L53252 34380
L53278 34370
L53295 34370
L53321 34380
L53330 34390
" />
<path d="M53398 34390
L53407 34380
L53424 34370
L53467 34370
L53484 34380
L53492 34390
L53501 34409
L53501 34428
L53492 34456
L53390 34570
L53501 34570
" />
<path d="M36781 34235
L36772 34244
L36746 34254
L36729 34254
L36703 34244
L36686 34225
L36678 34206
L36669 34168
L36669 34139
L36678 34101
L36686 34082
L36703 34063
L36729 34054
L36746 34054
L36772 34063
L36781 34073
" />
<path d="M36841 34054
L36952 34054
L36892 34130
L36918 34130
L36935 34139
L36943 34149
L36952 34168
L36952 34216
L36943 34235
L36935 34244
L36918 34254
L36866 34254
L36849 34244
L36841 34235
" />
<path d="M39620 35265
L39525 35325
" />
<path d="M39620 35368
L39420 35368
L39420 35300
L39430 35282
L39440 35274
L39459 35265
L39487 35265
L39506 35274
L39516 35282
L39525 35300
L39525 35368
" />
<path d="M39440 35197
L39430 35188
L39420 35171
L39420 35128
L39430 35111
L39440 35102
L39459 35094
L39478 35094
L39506 35102
L39620 35205
L39620 35094
" />
<path d="M39440 35025
L39430 35017
L39420 35000
L39420 34957
L39430 34940
L39440 34931
L39459 34922
L39478 34922
L39506 34931
L39620 35034
L39620 34922
" />
<path d="M36950 36495
L36855 36555
" />
<path d="M36950 36598
L36750 36598
L36750 36530
L36760 36512
L36770 36504
L36789 36495
L36817 36495
L36836 36504
L36846 36512
L36855 36530
L36855 36598
" />
<path d="M36770 36427
L36760 36418
L36750 36401
L36750 36358
L36760 36341
L36770 36332
L36789 36324
L36808 36324
L36836 36332
L36950 36435
L36950 36324
" />
<path d="M36750 36161
L36750 36247
L36846 36255
L36836 36247
L36827 36230
L36827 36187
L36836 36170
L36846 36161
L36865 36152
L36912 36152
L36931 36161
L36941 36170
L36950 36187
L36950 36230
L36941 36247
L36931 36255
" />
<path d="M39610 36495
L39515 36555
" />
<path d="M39610 36598
L39410 36598
L39410 36530
L39420 36512
L39430 36504
L39449 36495
L39477 36495
L39496 36504
L39506 36512
L39515 36530
L39515 36598
" />
<path d="M39430 36427
L39420 36418
L39410 36401
L39410 36358
L39420 36341
L39430 36332
L39449 36324
L39468 36324
L39496 36332
L39610 36435
L39610 36324
" />
<path d="M39410 36170
L39410 36204
L39420 36221
L39430 36230
L39458 36247
L39496 36255
L39572 36255
L39591 36247
L39601 36238
L39610 36221
L39610 36187
L39601 36170
L39591 36161
L39572 36152
L39525 36152
L39506 36161
L39496 36170
L39487 36187
L39487 36221
L39496 36238
L39506 36247
L39525 36255
" />
<path d="M36950 35275
L36855 35335
" />
<path d="M36950 35378
L36750 35378
L36750 35310
L36760 35292
L36770 35284
L36789 35275
L36817 35275
L36836 35284
L36846 35292
L36855 35310
L36855 35378
" />
<path d="M36770 35207
L36760 35198
L36750 35181
L36750 35138
L36760 35121
L36770 35112
L36789 35104
L36808 35104
L36836 35112
L36950 35215
L36950 35104
" />
<path d="M36750 35044
L36750 34932
L36827 34992
L36827 34967
L36836 34950
L36846 34941
L36865 34932
L36912 34932
L36931 34941
L36941 34950
L36950 34967
L36950 35018
L36941 35035
L36931 35044
" />
<path d="M24284 37370
L24224 37275
" />
<path d="M24181 37370
L24181 37170
L24250 37170
L24267 37180
L24275 37190
L24284 37209
L24284 37237
L24275 37256
L24267 37266
L24250 37275
L24181 37275
" />
<path d="M24352 37190
L24361 37180
L24378 37170
L24421 37170
L24438 37180
L24447 37190
L24455 37209
L24455 37228
L24447 37256
L24344 37370
L24455 37370
" />
<path d="M24627 37370
L24524 37370
" />
<path d="M24575 37370
L24575 37170
L24558 37199
L24541 37218
L24524 37228
" />
</g>
<g style="fill:#000000; fill-opacity:0.0; 
stroke:#000000; stroke-width:28; stroke-opacity:1; 
stroke-linecap:round; stroke-linejoin:round;">
<path d="M33755 38002
L33690 38042
" />
<path d="M33755 38070
L33617 38070
L33617 38025
L33624 38013
L33631 38007
L33644 38002
L33663 38002
L33677 38007
L33683 38013
L33690 38025
L33690 38070
" />
<path d="M33755 37887
L33755 37956
" />
<path d="M33755 37922
L33617 37922
L33637 37933
L33650 37945
L33657 37956
" />
<path d="M33677 37819
L33670 37830
L33663 37836
L33650 37842
L33644 37842
L33631 37836
L33624 37830
L33617 37819
L33617 37796
L33624 37785
L33631 37779
L33644 37773
L33650 37773
L33663 37779
L33670 37785
L33677 37796
L33677 37819
L33683 37830
L33690 37836
L33703 37842
L33729 37842
L33742 37836
L33749 37830
L33755 37819
L33755 37796
L33749 37785
L33742 37779
L33729 37773
L33703 37773
L33690 37779
L33683 37785
L33677 37796
" />
<path d="M33755 25245
L33690 25285
" />
<path d="M33755 25313
L33617 25313
L33617 25267
L33624 25256
L33631 25250
L33644 25245
L33663 25245
L33677 25250
L33683 25256
L33690 25267
L33690 25313
" />
<path d="M33631 25199
L33624 25193
L33617 25182
L33617 25153
L33624 25142
L33631 25136
L33644 25130
L33657 25130
L33677 25136
L33755 25205
L33755 25130
" />
<path d="M33705 27020
L33640 27060
" />
<path d="M33705 27088
L33567 27088
L33567 27042
L33574 27031
L33581 27025
L33594 27020
L33613 27020
L33627 27025
L33633 27031
L33640 27042
L33640 27088
" />
<path d="M33567 26917
L33567 26940
L33574 26951
L33581 26957
L33600 26968
L33627 26974
L33679 26974
L33692 26968
L33699 26962
L33705 26951
L33705 26928
L33699 26917
L33692 26911
L33679 26905
L33646 26905
L33633 26911
L33627 26917
L33620 26928
L33620 26951
L33627 26962
L33633 26968
L33646 26974
" />
<path d="M33705 33677
L33640 33717
" />
<path d="M33705 33745
L33567 33745
L33567 33700
L33574 33688
L33581 33682
L33594 33677
L33613 33677
L33627 33682
L33633 33688
L33640 33700
L33640 33745
" />
<path d="M33705 33562
L33705 33631
" />
<path d="M33705 33597
L33567 33597
L33587 33608
L33600 33620
L33607 33631
" />
<path d="M33567 33488
L33567 33477
L33574 33465
L33581 33460
L33594 33454
L33620 33448
L33653 33448
L33679 33454
L33692 33460
L33699 33465
L33705 33477
L33705 33488
L33699 33500
L33692 33505
L33679 33511
L33653 33517
L33620 33517
L33594 33511
L33581 33505
L33574 33500
L33567 33488
" />
<path d="M33755 35777
L33690 35817
" />
<path d="M33755 35845
L33617 35845
L33617 35800
L33624 35788
L33631 35782
L33644 35777
L33663 35777
L33677 35782
L33683 35788
L33690 35800
L33690 35845
" />
<path d="M33755 35662
L33755 35731
" />
<path d="M33755 35697
L33617 35697
L33637 35708
L33650 35720
L33657 35731
" />
<path d="M33663 35560
L33755 35560
" />
<path d="M33611 35588
L33709 35617
L33709 35542
" />
<path d="M33080 25030
L33040 24965
" />
<path d="M33011 25030
L33011 24892
L33057 24892
L33068 24899
L33074 24906
L33080 24919
L33080 24938
L33074 24952
L33068 24958
L33057 24965
L33011 24965
" />
<path d="M33194 25030
L33125 25030
" />
<path d="M33160 25030
L33160 24892
L33148 24912
L33137 24925
L33125 24932
" />
<path d="M32555 33677
L32490 33717
" />
<path d="M32555 33745
L32417 33745
L32417 33700
L32424 33688
L32431 33682
L32444 33677
L32463 33677
L32477 33682
L32483 33688
L32490 33700
L32490 33745
" />
<path d="M32555 33562
L32555 33631
" />
<path d="M32555 33597
L32417 33597
L32437 33608
L32450 33620
L32457 33631
" />
<path d="M32555 33448
L32555 33517
" />
<path d="M32555 33482
L32417 33482
L32437 33494
L32450 33505
L32457 33517
" />
<path d="M33080 25530
L33040 25465
" />
<path d="M33011 25530
L33011 25392
L33057 25392
L33068 25399
L33074 25406
L33080 25419
L33080 25438
L33074 25452
L33068 25458
L33057 25465
L33011 25465
" />
<path d="M33182 25438
L33182 25530
" />
<path d="M33154 25386
L33125 25484
L33200 25484
" />
<path d="M32555 25245
L32490 25285
" />
<path d="M32555 25313
L32417 25313
L32417 25267
L32424 25256
L32431 25250
L32444 25245
L32463 25245
L32477 25250
L32483 25256
L32490 25267
L32490 25313
" />
<path d="M32417 25205
L32417 25130
L32470 25170
L32470 25153
L32477 25142
L32483 25136
L32496 25130
L32529 25130
L32542 25136
L32549 25142
L32555 25153
L32555 25187
L32549 25199
L32542 25205
" />
<path d="M33055 26805
L33015 26740
" />
<path d="M32986 26805
L32986 26667
L33032 26667
L33043 26674
L33049 26681
L33055 26694
L33055 26713
L33049 26727
L33043 26733
L33032 26740
L32986 26740
" />
<path d="M33163 26667
L33106 26667
L33100 26733
L33106 26727
L33117 26720
L33146 26720
L33157 26727
L33163 26733
L33169 26746
L33169 26779
L33163 26792
L33157 26799
L33146 26805
L33117 26805
L33106 26799
L33100 26792
" />
<path d="M32555 27020
L32490 27060
" />
<path d="M32555 27088
L32417 27088
L32417 27042
L32424 27031
L32431 27025
L32444 27020
L32463 27020
L32477 27025
L32483 27031
L32490 27042
L32490 27088
" />
<path d="M32417 26980
L32417 26900
L32555 26951
" />
<path d="M33055 27305
L33015 27240
" />
<path d="M32986 27305
L32986 27167
L33032 27167
L33043 27174
L33049 27181
L33055 27194
L33055 27213
L33049 27227
L33043 27233
L33032 27240
L32986 27240
" />
<path d="M33123 27227
L33112 27220
L33106 27213
L33100 27200
L33100 27194
L33106 27181
L33112 27174
L33123 27167
L33146 27167
L33157 27174
L33163 27181
L33169 27194
L33169 27200
L33163 27213
L33157 27220
L33146 27227
L33123 27227
L33112 27233
L33106 27240
L33100 27253
L33100 27279
L33106 27292
L33112 27299
L33123 27305
L33146 27305
L33157 27299
L33163 27292
L33169 27279
L33169 27253
L33163 27240
L33157 27233
L33146 27227
" />
<path d="M33055 33405
L33015 33340
" />
<path d="M32986 33405
L32986 33267
L33032 33267
L33043 33274
L33049 33281
L33055 33294
L33055 33313
L33049 33327
L33043 33333
L33032 33340
L32986 33340
" />
<path d="M33112 33405
L33135 33405
L33146 33399
L33152 33392
L33163 33373
L33169 33346
L33169 33294
L33163 33281
L33157 33274
L33146 33267
L33123 33267
L33112 33274
L33106 33281
L33100 33294
L33100 33327
L33106 33340
L33112 33346
L33123 33353
L33146 33353
L33157 33346
L33163 33340
L33169 33327
" />
<path d="M32997 33905
L32957 33840
" />
<path d="M32929 33905
L32929 33767
L32975 33767
L32986 33774
L32992 33781
L32997 33794
L32997 33813
L32992 33827
L32986 33833
L32975 33840
L32929 33840
" />
<path d="M33112 33905
L33043 33905
" />
<path d="M33077 33905
L33077 33767
L33066 33787
L33055 33800
L33043 33807
" />
<path d="M33157 33781
L33163 33774
L33175 33767
L33203 33767
L33215 33774
L33220 33781
L33226 33794
L33226 33807
L33220 33827
L33152 33905
L33226 33905
" />
<path d="M33022 35505
L32982 35440
" />
<path d="M32954 35505
L32954 35367
L33000 35367
L33011 35374
L33017 35381
L33022 35394
L33022 35413
L33017 35427
L33011 35433
L33000 35440
L32954 35440
" />
<path d="M33137 35505
L33068 35505
" />
<path d="M33102 35505
L33102 35367
L33091 35387
L33080 35400
L33068 35407
" />
<path d="M33177 35367
L33251 35367
L33211 35420
L33228 35420
L33240 35427
L33245 35433
L33251 35446
L33251 35479
L33245 35492
L33240 35499
L33228 35505
L33194 35505
L33182 35499
L33177 35492
" />
<path d="M32555 35777
L32490 35817
" />
<path d="M32555 35845
L32417 35845
L32417 35800
L32424 35788
L32431 35782
L32444 35777
L32463 35777
L32477 35782
L32483 35788
L32490 35800
L32490 35845
" />
<path d="M32555 35662
L32555 35731
" />
<path d="M32555 35697
L32417 35697
L32437 35708
L32450 35720
L32457 35731
" />
<path d="M32417 35554
L32417 35611
L32483 35617
L32477 35611
L32470 35600
L32470 35571
L32477 35560
L32483 35554
L32496 35548
L32529 35548
L32542 35554
L32549 35560
L32555 35571
L32555 35600
L32549 35611
L32542 35617
" />
<path d="M33022 36005
L32982 35940
" />
<path d="M32954 36005
L32954 35867
L33000 35867
L33011 35874
L33017 35881
L33022 35894
L33022 35913
L33017 35927
L33011 35933
L33000 35940
L32954 35940
" />
<path d="M33137 36005
L33068 36005
" />
<path d="M33102 36005
L33102 35867
L33091 35887
L33080 35900
L33068 35907
" />
<path d="M33240 35867
L33217 35867
L33205 35874
L33200 35881
L33188 35900
L33182 35927
L33182 35979
L33188 35992
L33194 35999
L33205 36005
L33228 36005
L33240 35999
L33245 35992
L33251 35979
L33251 35946
L33245 35933
L33240 35927
L33228 35920
L33205 35920
L33194 35927
L33188 35933
L33182 35946
" />
<path d="M33022 37730
L32982 37665
" />
<path d="M32954 37730
L32954 37592
L33000 37592
L33011 37599
L33017 37606
L33022 37619
L33022 37638
L33017 37652
L33011 37658
L33000 37665
L32954 37665
" />
<path d="M33137 37730
L33068 37730
" />
<path d="M33102 37730
L33102 37592
L33091 37612
L33080 37625
L33068 37632
" />
<path d="M33177 37592
L33257 37592
L33205 37730
" />
<path d="M32555 38002
L32490 38042
" />
<path d="M32555 38070
L32417 38070
L32417 38025
L32424 38013
L32431 38007
L32444 38002
L32463 38002
L32477 38007
L32483 38013
L32490 38025
L32490 38070
" />
<path d="M32555 37887
L32555 37956
" />
<path d="M32555 37922
L32417 37922
L32437 37933
L32450 37945
L32457 37956
" />
<path d="M32555 37830
L32555 37807
L32549 37796
L32542 37790
L32523 37779
L32496 37773
L32444 37773
L32431 37779
L32424 37785
L32417 37796
L32417 37819
L32424 37830
L32431 37836
L32444 37842
L32477 37842
L32490 37836
L32496 37830
L32503 37819
L32503 37796
L32496 37785
L32490 37779
L32477 37773
" />
<path d="M33022 38230
L32982 38165
" />
<path d="M32954 38230
L32954 38092
L33000 38092
L33011 38099
L33017 38106
L33022 38119
L33022 38138
L33017 38152
L33011 38158
L33000 38165
L32954 38165
" />
<path d="M33068 38106
L33074 38099
L33085 38092
L33114 38092
L33125 38099
L33131 38106
L33137 38119
L33137 38132
L33131 38152
L33062 38230
L33137 38230
" />
<path d="M33211 38092
L33222 38092
L33234 38099
L33240 38106
L33245 38119
L33251 38145
L33251 38178
L33245 38204
L33240 38217
L33234 38224
L33222 38230
L33211 38230
L33200 38224
L33194 38217
L33188 38204
L33182 38178
L33182 38145
L33188 38119
L33194 38106
L33200 38099
L33211 38092
" />
</g>
<g style="fill:#000000; fill-opacity:0.0; 
stroke:#000000; stroke-width:59.0551; stroke-opacity:1; 
stroke-linecap:round; stroke-linejoin:round;">
<path d="M43393 27265
L43393 27546
L43375 27603
L43337 27640
L43281 27659
L43243 27659
" />
<path d="M43787 27659
L43562 27659
" />
<path d="M43674 27659
L43674 27265
L43637 27321
L43599 27359
L43562 27378
" />
</g>
<g style="fill:#000000; fill-opacity:0.0; 
stroke:#000000; stroke-width:60; stroke-opacity:1; 
stroke-linecap:round; stroke-linejoin:round;">
<path d="M45021 33779
L45235 33779
L45278 33794
L45307 33822
L45321 33865
L45321 33894
" />
<path d="M45321 33637
L45021 33637
L45021 33522
L45035 33494
L45050 33480
L45078 33465
L45121 33465
L45150 33480
L45164 33494
L45178 33522
L45178 33637
" />
<path d="M45050 33351
L45035 33337
L45021 33308
L45021 33237
L45035 33208
L45050 33194
L45078 33180
L45107 33180
L45150 33194
L45321 33365
L45321 33180
" />
</g>
<g style="fill:#000000; fill-opacity:0.0; 
stroke:#000000; stroke-width:50; stroke-opacity:1; 
stroke-linecap:round; stroke-linejoin:round;">
<path d="M25992 36970
L25992 36770
L26040 36770
L26068 36780
L26087 36799
L26097 36818
L26106 36856
L26106 36885
L26097 36923
L26087 36942
L26068 36961
L26040 36970
L25992 36970
" />
<path d="M26297 36970
L26182 36970
" />
<path d="M26240 36970
L26240 36770
L26220 36799
L26201 36818
L26182 36828
" />
<path d="M26011 37770
L25916 37770
L25916 37570
" />
<path d="M26078 37666
L26144 37666
" />
<path d="M26173 37770
L26078 37770
L26078 37570
L26173 37570
" />
<path d="M26259 37770
L26259 37570
L26306 37570
L26335 37580
L26354 37599
L26363 37618
L26373 37656
L26373 37685
L26363 37723
L26354 37742
L26335 37761
L26306 37770
L26259 37770
" />
</g>
<g style="fill:#000000; fill-opacity:0.0; 
stroke:#000000; stroke-width:59.0551; stroke-opacity:1; 
stroke-linecap:round; stroke-linejoin:round;">
<path d="M24120 25671
L24120 25952
L24101 26008
L24064 26046
L24008 26064
L23970 26064
" />
<path d="M24308 26064
L24308 25671
L24458 25671
L24495 25689
L24514 25708
L24533 25746
L24533 25802
L24514 25839
L24495 25858
L24458 25877
L24308 25877
" />
<path d="M24908 26064
L24683 26064
" />
<path d="M24795 26064
L24795 25671
L24758 25727
L24720 25764
L24683 25783
" />
</g>
<g style="fill:#000000; fill-opacity:0.0; 
stroke:#000000; stroke-width:45; stroke-opacity:1; 
stroke-linecap:round; stroke-linejoin:round;">
<path d="M38837 26117
L38777 26117
" />
<path d="M38777 26222
L38777 26022
L38863 26022
" />
<path d="M39026 26222
L38923 26222
" />
<path d="M38974 26222
L38974 26022
L38957 26051
L38940 26070
L38923 26079
" />
</g> 
</svg>
