G04 (created by PCBNEW (2013-mar-13)-testing) date Sun 10 Nov 2013 04:18:21 PM CET*
%MOIN*%
G04 Gerber Fmt 3.4, Leading zero omitted, Abs format*
%FSLAX34Y34*%
G01*
G70*
G90*
G04 APERTURE LIST*
%ADD10C,0.005906*%
%ADD11C,0.059055*%
%ADD12C,0.118110*%
%ADD13C,0.078740*%
%ADD14C,0.035000*%
%ADD15C,0.008200*%
%ADD16C,0.027000*%
%ADD17C,0.011811*%
G04 APERTURE END LIST*
G54D10*
G54D11*
X73059Y-50098D03*
X73059Y-48598D03*
X72559Y-50848D03*
X72559Y-49348D03*
X72059Y-50098D03*
X72059Y-48598D03*
X71559Y-50848D03*
X71559Y-49348D03*
X71059Y-50098D03*
X71059Y-48598D03*
X70559Y-50848D03*
X70559Y-49348D03*
X70059Y-50098D03*
X70059Y-48598D03*
X69559Y-50848D03*
X69559Y-49348D03*
X69059Y-50098D03*
X69059Y-48598D03*
X68559Y-50848D03*
X68559Y-49348D03*
X68059Y-50098D03*
X68059Y-48598D03*
X67559Y-50848D03*
X67559Y-49348D03*
X67059Y-50098D03*
X67059Y-48598D03*
X66559Y-50848D03*
X66559Y-49348D03*
X66059Y-50098D03*
X66059Y-48598D03*
X65559Y-50848D03*
X65559Y-49348D03*
X65059Y-50098D03*
X65059Y-48598D03*
X64559Y-50848D03*
X64559Y-49348D03*
X64059Y-50098D03*
X64059Y-48598D03*
X63559Y-50848D03*
X63559Y-49348D03*
X63059Y-50098D03*
X63059Y-48598D03*
X62559Y-50848D03*
X62559Y-49348D03*
X62059Y-50098D03*
X62059Y-48598D03*
X61559Y-50848D03*
X61559Y-49348D03*
X61059Y-50098D03*
X61059Y-48598D03*
X60559Y-50848D03*
X60559Y-49348D03*
X60059Y-50098D03*
X60059Y-48598D03*
X59559Y-50848D03*
X59559Y-49348D03*
X59059Y-50098D03*
X59059Y-48598D03*
X58559Y-50848D03*
X58559Y-49348D03*
X58059Y-50098D03*
X58059Y-48598D03*
X57559Y-50848D03*
X57559Y-49348D03*
X57059Y-50098D03*
X57059Y-48598D03*
X56559Y-50848D03*
X56559Y-49348D03*
G54D12*
X53409Y-49348D03*
X76208Y-49348D03*
G54D13*
X77460Y-54134D03*
X77460Y-52165D03*
G54D14*
X61200Y-58300D03*
X47900Y-57600D03*
X71730Y-56090D03*
X56000Y-58300D03*
X63100Y-58300D03*
X65000Y-58200D03*
X57800Y-58300D03*
X53000Y-58300D03*
X73500Y-54000D03*
X78200Y-57800D03*
X78200Y-57200D03*
X78200Y-56500D03*
X78200Y-55800D03*
X74100Y-56600D03*
X43300Y-56600D03*
X42900Y-50600D03*
X44100Y-51600D03*
X40100Y-54400D03*
X40600Y-54400D03*
X40600Y-54800D03*
X40600Y-55300D03*
X40600Y-55800D03*
X40010Y-53260D03*
X72380Y-57060D03*
X71870Y-57590D03*
X75200Y-53300D03*
X64840Y-51490D03*
X65090Y-51860D03*
X63560Y-54240D03*
X64430Y-54270D03*
X61190Y-55260D03*
X61220Y-55970D03*
X42300Y-55200D03*
X42400Y-55600D03*
X42500Y-51300D03*
X42500Y-51760D03*
X41090Y-50970D03*
X41100Y-51510D03*
X41100Y-52070D03*
X41100Y-52640D03*
G54D15*
X61200Y-58300D02*
X61200Y-58700D01*
X72290Y-56090D02*
X71730Y-56090D01*
X73100Y-56900D02*
X72290Y-56090D01*
X73100Y-58100D02*
X73100Y-56900D01*
X72500Y-58700D02*
X73100Y-58100D01*
X49000Y-58700D02*
X61200Y-58700D01*
X61200Y-58700D02*
X72500Y-58700D01*
X47900Y-57600D02*
X49000Y-58700D01*
G54D16*
X61559Y-53450D02*
X61559Y-50848D01*
X71730Y-56090D02*
X71100Y-56720D01*
X71100Y-56720D02*
X61060Y-56720D01*
X61060Y-56720D02*
X60440Y-56100D01*
X60440Y-56100D02*
X60440Y-54570D01*
X60440Y-54570D02*
X61559Y-53450D01*
G54D15*
X58701Y-50098D02*
X59059Y-50098D01*
X58100Y-50700D02*
X58701Y-50098D01*
X58100Y-56200D02*
X58100Y-50700D01*
X56000Y-58300D02*
X58100Y-56200D01*
X59059Y-49459D02*
X59059Y-48598D01*
X59600Y-50000D02*
X59059Y-49459D01*
X59600Y-50200D02*
X59600Y-50000D01*
X59000Y-50800D02*
X59600Y-50200D01*
X59000Y-56600D02*
X59000Y-50800D01*
X60200Y-57800D02*
X59000Y-56600D01*
X62600Y-57800D02*
X60200Y-57800D01*
X63100Y-58300D02*
X62600Y-57800D01*
G54D17*
X60559Y-51640D02*
X60559Y-50848D01*
X59960Y-52240D02*
X60559Y-51640D01*
X59960Y-56430D02*
X59960Y-52240D01*
X60610Y-57080D02*
X59960Y-56430D01*
X72360Y-57080D02*
X60610Y-57080D01*
X72380Y-57060D02*
X72360Y-57080D01*
X60559Y-50230D02*
X60559Y-49348D01*
X60060Y-50730D02*
X60559Y-50230D01*
X60060Y-51240D02*
X60060Y-50730D01*
X59540Y-51760D02*
X60060Y-51240D01*
X59540Y-56670D02*
X59540Y-51760D01*
X60470Y-57600D02*
X59540Y-56670D01*
X71860Y-57600D02*
X60470Y-57600D01*
X71870Y-57590D02*
X71860Y-57600D01*
G54D15*
X68977Y-50179D02*
X69059Y-50098D01*
X68977Y-51197D02*
X68977Y-50179D01*
X68547Y-51627D02*
X68977Y-51197D01*
X65517Y-51627D02*
X68547Y-51627D01*
X65380Y-51490D02*
X65517Y-51627D01*
X64840Y-51490D02*
X65380Y-51490D01*
X69559Y-50210D02*
X69559Y-49348D01*
X69130Y-50640D02*
X69559Y-50210D01*
X69130Y-51260D02*
X69130Y-50640D01*
X68610Y-51780D02*
X69130Y-51260D01*
X65170Y-51780D02*
X68610Y-51780D01*
X65090Y-51860D02*
X65170Y-51780D01*
X63980Y-50177D02*
X64059Y-50098D01*
X63980Y-53820D02*
X63980Y-50177D01*
X63560Y-54240D02*
X63980Y-53820D01*
X64559Y-50210D02*
X64559Y-49348D01*
X64132Y-50637D02*
X64559Y-50210D01*
X64132Y-53972D02*
X64132Y-50637D01*
X64430Y-54270D02*
X64132Y-53972D01*
X63559Y-50240D02*
X63559Y-49348D01*
X63080Y-50720D02*
X63559Y-50240D01*
X63080Y-53370D02*
X63080Y-50720D01*
X61190Y-55260D02*
X63080Y-53370D01*
X63232Y-51175D02*
X63559Y-50848D01*
X63232Y-53432D02*
X63232Y-51175D01*
X61550Y-55114D02*
X63232Y-53432D01*
X61550Y-55640D02*
X61550Y-55114D01*
X61220Y-55970D02*
X61550Y-55640D01*
M02*
