G04 (created by PCBNEW (2013-jul-07)-stable) date Fri 08 Aug 2014 03:36:14 PM CDT*
%MOIN*%
G04 Gerber Fmt 3.4, Leading zero omitted, Abs format*
%FSLAX34Y34*%
G01*
G70*
G90*
G04 APERTURE LIST*
%ADD10C,0.00590551*%
%ADD11C,0.01*%
%ADD12C,0.011811*%
%ADD13C,0.0075*%
%ADD14C,0.006*%
%ADD15C,0.005*%
%ADD16C,0.0028*%
%ADD17C,0.0026*%
%ADD18C,0.004*%
%ADD19C,0.0001*%
%ADD20C,0.0045*%
G04 APERTURE END LIST*
G54D10*
G54D11*
X21540Y-36600D02*
X21540Y-35040D01*
X20020Y-35840D02*
X21540Y-36600D01*
X20020Y-35840D02*
X21540Y-35040D01*
G54D12*
X21289Y-35840D02*
X21337Y-35792D01*
X21384Y-35840D01*
X21337Y-35887D01*
X21289Y-35840D01*
X21384Y-35840D01*
X21003Y-35840D02*
X20432Y-35887D01*
X20384Y-35840D01*
X20432Y-35792D01*
X21003Y-35840D01*
X20384Y-35840D01*
G54D13*
X20821Y-35080D02*
X20521Y-35080D01*
X20521Y-34985D01*
X20535Y-34928D01*
X20564Y-34890D01*
X20592Y-34871D01*
X20650Y-34852D01*
X20692Y-34852D01*
X20750Y-34871D01*
X20778Y-34890D01*
X20807Y-34928D01*
X20821Y-34985D01*
X20821Y-35080D01*
X20821Y-34623D02*
X20807Y-34661D01*
X20792Y-34680D01*
X20764Y-34699D01*
X20678Y-34699D01*
X20650Y-34680D01*
X20635Y-34661D01*
X20621Y-34623D01*
X20621Y-34566D01*
X20635Y-34528D01*
X20650Y-34509D01*
X20678Y-34490D01*
X20764Y-34490D01*
X20792Y-34509D01*
X20807Y-34528D01*
X20821Y-34566D01*
X20821Y-34623D01*
X20621Y-34014D02*
X20821Y-34014D01*
X20650Y-34014D02*
X20635Y-33995D01*
X20621Y-33957D01*
X20621Y-33899D01*
X20635Y-33861D01*
X20664Y-33842D01*
X20821Y-33842D01*
X20821Y-33595D02*
X20807Y-33633D01*
X20792Y-33652D01*
X20764Y-33671D01*
X20678Y-33671D01*
X20650Y-33652D01*
X20635Y-33633D01*
X20621Y-33595D01*
X20621Y-33538D01*
X20635Y-33499D01*
X20650Y-33480D01*
X20678Y-33461D01*
X20764Y-33461D01*
X20792Y-33480D01*
X20807Y-33499D01*
X20821Y-33538D01*
X20821Y-33595D01*
X20621Y-33347D02*
X20621Y-33195D01*
X20521Y-33290D02*
X20778Y-33290D01*
X20807Y-33271D01*
X20821Y-33233D01*
X20821Y-33195D01*
X20821Y-32699D02*
X20807Y-32738D01*
X20792Y-32757D01*
X20764Y-32776D01*
X20678Y-32776D01*
X20650Y-32757D01*
X20635Y-32738D01*
X20621Y-32699D01*
X20621Y-32642D01*
X20635Y-32604D01*
X20650Y-32585D01*
X20678Y-32566D01*
X20764Y-32566D01*
X20792Y-32585D01*
X20807Y-32604D01*
X20821Y-32642D01*
X20821Y-32699D01*
X20621Y-32395D02*
X20921Y-32395D01*
X20635Y-32395D02*
X20621Y-32357D01*
X20621Y-32280D01*
X20635Y-32242D01*
X20650Y-32223D01*
X20678Y-32204D01*
X20764Y-32204D01*
X20792Y-32223D01*
X20807Y-32242D01*
X20821Y-32280D01*
X20821Y-32357D01*
X20807Y-32395D01*
X20807Y-31880D02*
X20821Y-31919D01*
X20821Y-31995D01*
X20807Y-32033D01*
X20778Y-32052D01*
X20664Y-32052D01*
X20635Y-32033D01*
X20621Y-31995D01*
X20621Y-31919D01*
X20635Y-31880D01*
X20664Y-31861D01*
X20692Y-31861D01*
X20721Y-32052D01*
X20821Y-31690D02*
X20621Y-31690D01*
X20678Y-31690D02*
X20650Y-31671D01*
X20635Y-31652D01*
X20621Y-31614D01*
X20621Y-31576D01*
X20821Y-31271D02*
X20664Y-31271D01*
X20635Y-31290D01*
X20621Y-31328D01*
X20621Y-31404D01*
X20635Y-31442D01*
X20807Y-31271D02*
X20821Y-31309D01*
X20821Y-31404D01*
X20807Y-31442D01*
X20778Y-31461D01*
X20750Y-31461D01*
X20721Y-31442D01*
X20707Y-31404D01*
X20707Y-31309D01*
X20692Y-31271D01*
X20621Y-31138D02*
X20621Y-30985D01*
X20521Y-31080D02*
X20778Y-31080D01*
X20807Y-31061D01*
X20821Y-31023D01*
X20821Y-30985D01*
X20807Y-30700D02*
X20821Y-30738D01*
X20821Y-30814D01*
X20807Y-30852D01*
X20778Y-30871D01*
X20664Y-30871D01*
X20635Y-30852D01*
X20621Y-30814D01*
X20621Y-30738D01*
X20635Y-30700D01*
X20664Y-30680D01*
X20692Y-30680D01*
X20721Y-30871D01*
X20621Y-30261D02*
X20621Y-30109D01*
X20521Y-30204D02*
X20778Y-30204D01*
X20807Y-30185D01*
X20821Y-30147D01*
X20821Y-30109D01*
X20821Y-29976D02*
X20521Y-29976D01*
X20821Y-29804D02*
X20664Y-29804D01*
X20635Y-29823D01*
X20621Y-29861D01*
X20621Y-29919D01*
X20635Y-29957D01*
X20650Y-29976D01*
X20821Y-29614D02*
X20621Y-29614D01*
X20521Y-29614D02*
X20535Y-29633D01*
X20550Y-29614D01*
X20535Y-29595D01*
X20521Y-29614D01*
X20550Y-29614D01*
X20807Y-29442D02*
X20821Y-29404D01*
X20821Y-29328D01*
X20807Y-29290D01*
X20778Y-29271D01*
X20764Y-29271D01*
X20735Y-29290D01*
X20721Y-29328D01*
X20721Y-29385D01*
X20707Y-29423D01*
X20678Y-29442D01*
X20664Y-29442D01*
X20635Y-29423D01*
X20621Y-29385D01*
X20621Y-29328D01*
X20635Y-29290D01*
X20821Y-28623D02*
X20664Y-28623D01*
X20635Y-28642D01*
X20621Y-28680D01*
X20621Y-28757D01*
X20635Y-28795D01*
X20807Y-28623D02*
X20821Y-28661D01*
X20821Y-28757D01*
X20807Y-28795D01*
X20778Y-28814D01*
X20750Y-28814D01*
X20721Y-28795D01*
X20707Y-28757D01*
X20707Y-28661D01*
X20692Y-28623D01*
X20821Y-28261D02*
X20521Y-28261D01*
X20807Y-28261D02*
X20821Y-28300D01*
X20821Y-28376D01*
X20807Y-28414D01*
X20792Y-28433D01*
X20764Y-28452D01*
X20678Y-28452D01*
X20650Y-28433D01*
X20635Y-28414D01*
X20621Y-28376D01*
X20621Y-28300D01*
X20635Y-28261D01*
X20821Y-27900D02*
X20664Y-27900D01*
X20635Y-27919D01*
X20621Y-27957D01*
X20621Y-28033D01*
X20635Y-28071D01*
X20807Y-27900D02*
X20821Y-27938D01*
X20821Y-28033D01*
X20807Y-28071D01*
X20778Y-28090D01*
X20750Y-28090D01*
X20721Y-28071D01*
X20707Y-28033D01*
X20707Y-27938D01*
X20692Y-27900D01*
X20621Y-27709D02*
X20921Y-27709D01*
X20635Y-27709D02*
X20621Y-27671D01*
X20621Y-27595D01*
X20635Y-27557D01*
X20650Y-27538D01*
X20678Y-27519D01*
X20764Y-27519D01*
X20792Y-27538D01*
X20807Y-27557D01*
X20821Y-27595D01*
X20821Y-27671D01*
X20807Y-27709D01*
X20621Y-27404D02*
X20621Y-27252D01*
X20521Y-27347D02*
X20778Y-27347D01*
X20807Y-27328D01*
X20821Y-27290D01*
X20821Y-27252D01*
X20807Y-26966D02*
X20821Y-27004D01*
X20821Y-27080D01*
X20807Y-27119D01*
X20778Y-27138D01*
X20664Y-27138D01*
X20635Y-27119D01*
X20621Y-27080D01*
X20621Y-27004D01*
X20635Y-26966D01*
X20664Y-26947D01*
X20692Y-26947D01*
X20721Y-27138D01*
X20821Y-26776D02*
X20621Y-26776D01*
X20678Y-26776D02*
X20650Y-26757D01*
X20635Y-26738D01*
X20621Y-26700D01*
X20621Y-26661D01*
X21116Y-34071D02*
X21316Y-33995D01*
X21173Y-33919D01*
X21316Y-33842D01*
X21116Y-33766D01*
X21316Y-33614D02*
X21116Y-33614D01*
X21016Y-33614D02*
X21030Y-33633D01*
X21045Y-33614D01*
X21030Y-33595D01*
X21016Y-33614D01*
X21045Y-33614D01*
X21116Y-33480D02*
X21116Y-33328D01*
X21016Y-33423D02*
X21273Y-33423D01*
X21302Y-33404D01*
X21316Y-33366D01*
X21316Y-33328D01*
X21316Y-33195D02*
X21016Y-33195D01*
X21316Y-33023D02*
X21159Y-33023D01*
X21130Y-33042D01*
X21116Y-33080D01*
X21116Y-33138D01*
X21130Y-33176D01*
X21145Y-33195D01*
X21316Y-32776D02*
X21302Y-32814D01*
X21287Y-32833D01*
X21259Y-32852D01*
X21173Y-32852D01*
X21145Y-32833D01*
X21130Y-32814D01*
X21116Y-32776D01*
X21116Y-32719D01*
X21130Y-32680D01*
X21145Y-32661D01*
X21173Y-32642D01*
X21259Y-32642D01*
X21287Y-32661D01*
X21302Y-32680D01*
X21316Y-32719D01*
X21316Y-32776D01*
X21116Y-32299D02*
X21316Y-32299D01*
X21116Y-32471D02*
X21273Y-32471D01*
X21302Y-32452D01*
X21316Y-32414D01*
X21316Y-32357D01*
X21302Y-32319D01*
X21287Y-32299D01*
X21116Y-32166D02*
X21116Y-32014D01*
X21016Y-32109D02*
X21273Y-32109D01*
X21302Y-32090D01*
X21316Y-32052D01*
X21316Y-32014D01*
X21316Y-31404D02*
X21159Y-31404D01*
X21130Y-31423D01*
X21116Y-31461D01*
X21116Y-31538D01*
X21130Y-31576D01*
X21302Y-31404D02*
X21316Y-31442D01*
X21316Y-31538D01*
X21302Y-31576D01*
X21273Y-31595D01*
X21245Y-31595D01*
X21216Y-31576D01*
X21202Y-31538D01*
X21202Y-31442D01*
X21187Y-31404D01*
X21116Y-30966D02*
X21116Y-30814D01*
X21316Y-30909D02*
X21059Y-30909D01*
X21030Y-30890D01*
X21016Y-30852D01*
X21016Y-30814D01*
X21316Y-30623D02*
X21302Y-30661D01*
X21273Y-30680D01*
X21016Y-30680D01*
X21302Y-30319D02*
X21316Y-30357D01*
X21316Y-30433D01*
X21302Y-30471D01*
X21273Y-30490D01*
X21159Y-30490D01*
X21130Y-30471D01*
X21116Y-30433D01*
X21116Y-30357D01*
X21130Y-30319D01*
X21159Y-30300D01*
X21187Y-30300D01*
X21216Y-30490D01*
X21316Y-30166D02*
X21116Y-29957D01*
X21116Y-30166D02*
X21316Y-29957D01*
X21302Y-29328D02*
X21316Y-29366D01*
X21316Y-29442D01*
X21302Y-29480D01*
X21287Y-29500D01*
X21259Y-29519D01*
X21173Y-29519D01*
X21145Y-29500D01*
X21130Y-29480D01*
X21116Y-29442D01*
X21116Y-29366D01*
X21130Y-29328D01*
X21316Y-28985D02*
X21159Y-28985D01*
X21130Y-29004D01*
X21116Y-29042D01*
X21116Y-29119D01*
X21130Y-29157D01*
X21302Y-28985D02*
X21316Y-29023D01*
X21316Y-29119D01*
X21302Y-29157D01*
X21273Y-29176D01*
X21245Y-29176D01*
X21216Y-29157D01*
X21202Y-29119D01*
X21202Y-29023D01*
X21187Y-28985D01*
X21316Y-28795D02*
X21016Y-28795D01*
X21130Y-28795D02*
X21116Y-28757D01*
X21116Y-28680D01*
X21130Y-28642D01*
X21145Y-28623D01*
X21173Y-28604D01*
X21259Y-28604D01*
X21287Y-28623D01*
X21302Y-28642D01*
X21316Y-28680D01*
X21316Y-28757D01*
X21302Y-28795D01*
X21316Y-28376D02*
X21302Y-28414D01*
X21273Y-28433D01*
X21016Y-28433D01*
X21302Y-28071D02*
X21316Y-28109D01*
X21316Y-28185D01*
X21302Y-28223D01*
X21273Y-28242D01*
X21159Y-28242D01*
X21130Y-28223D01*
X21116Y-28185D01*
X21116Y-28109D01*
X21130Y-28071D01*
X21159Y-28052D01*
X21187Y-28052D01*
X21216Y-28242D01*
X21797Y-34480D02*
X21811Y-34519D01*
X21811Y-34595D01*
X21797Y-34633D01*
X21782Y-34652D01*
X21754Y-34671D01*
X21668Y-34671D01*
X21640Y-34652D01*
X21625Y-34633D01*
X21611Y-34595D01*
X21611Y-34519D01*
X21625Y-34480D01*
X21811Y-34252D02*
X21797Y-34290D01*
X21782Y-34309D01*
X21754Y-34328D01*
X21668Y-34328D01*
X21640Y-34309D01*
X21625Y-34290D01*
X21611Y-34252D01*
X21611Y-34195D01*
X21625Y-34157D01*
X21640Y-34138D01*
X21668Y-34119D01*
X21754Y-34119D01*
X21782Y-34138D01*
X21797Y-34157D01*
X21811Y-34195D01*
X21811Y-34252D01*
X21611Y-33947D02*
X21811Y-33947D01*
X21640Y-33947D02*
X21625Y-33928D01*
X21611Y-33890D01*
X21611Y-33833D01*
X21625Y-33795D01*
X21654Y-33776D01*
X21811Y-33776D01*
X21611Y-33585D02*
X21811Y-33585D01*
X21640Y-33585D02*
X21625Y-33566D01*
X21611Y-33528D01*
X21611Y-33471D01*
X21625Y-33433D01*
X21654Y-33414D01*
X21811Y-33414D01*
X21797Y-33071D02*
X21811Y-33109D01*
X21811Y-33185D01*
X21797Y-33223D01*
X21768Y-33242D01*
X21654Y-33242D01*
X21625Y-33223D01*
X21611Y-33185D01*
X21611Y-33109D01*
X21625Y-33071D01*
X21654Y-33052D01*
X21682Y-33052D01*
X21711Y-33242D01*
X21797Y-32709D02*
X21811Y-32747D01*
X21811Y-32823D01*
X21797Y-32861D01*
X21782Y-32880D01*
X21754Y-32899D01*
X21668Y-32899D01*
X21640Y-32880D01*
X21625Y-32861D01*
X21611Y-32823D01*
X21611Y-32747D01*
X21625Y-32709D01*
X21611Y-32595D02*
X21611Y-32442D01*
X21511Y-32538D02*
X21768Y-32538D01*
X21797Y-32519D01*
X21811Y-32480D01*
X21811Y-32442D01*
X21797Y-32157D02*
X21811Y-32195D01*
X21811Y-32271D01*
X21797Y-32309D01*
X21768Y-32328D01*
X21654Y-32328D01*
X21625Y-32309D01*
X21611Y-32271D01*
X21611Y-32195D01*
X21625Y-32157D01*
X21654Y-32138D01*
X21682Y-32138D01*
X21711Y-32328D01*
X21811Y-31795D02*
X21511Y-31795D01*
X21797Y-31795D02*
X21811Y-31833D01*
X21811Y-31909D01*
X21797Y-31947D01*
X21782Y-31966D01*
X21754Y-31985D01*
X21668Y-31985D01*
X21640Y-31966D01*
X21625Y-31947D01*
X21611Y-31909D01*
X21611Y-31833D01*
X21625Y-31795D01*
X21782Y-31604D02*
X21797Y-31585D01*
X21811Y-31604D01*
X21797Y-31623D01*
X21782Y-31604D01*
X21811Y-31604D01*
X21811Y-30880D02*
X21668Y-31014D01*
X21811Y-31109D02*
X21511Y-31109D01*
X21511Y-30957D01*
X21525Y-30919D01*
X21540Y-30900D01*
X21568Y-30880D01*
X21611Y-30880D01*
X21640Y-30900D01*
X21654Y-30919D01*
X21668Y-30957D01*
X21668Y-31109D01*
X21811Y-30709D02*
X21611Y-30709D01*
X21511Y-30709D02*
X21525Y-30728D01*
X21540Y-30709D01*
X21525Y-30690D01*
X21511Y-30709D01*
X21540Y-30709D01*
X21797Y-30538D02*
X21811Y-30499D01*
X21811Y-30423D01*
X21797Y-30385D01*
X21768Y-30366D01*
X21754Y-30366D01*
X21725Y-30385D01*
X21711Y-30423D01*
X21711Y-30480D01*
X21697Y-30519D01*
X21668Y-30538D01*
X21654Y-30538D01*
X21625Y-30519D01*
X21611Y-30480D01*
X21611Y-30423D01*
X21625Y-30385D01*
X21811Y-30195D02*
X21511Y-30195D01*
X21697Y-30157D02*
X21811Y-30042D01*
X21611Y-30042D02*
X21725Y-30195D01*
X21811Y-29509D02*
X21797Y-29547D01*
X21782Y-29566D01*
X21754Y-29585D01*
X21668Y-29585D01*
X21640Y-29566D01*
X21625Y-29547D01*
X21611Y-29509D01*
X21611Y-29452D01*
X21625Y-29414D01*
X21640Y-29395D01*
X21668Y-29376D01*
X21754Y-29376D01*
X21782Y-29395D01*
X21797Y-29414D01*
X21811Y-29452D01*
X21811Y-29509D01*
X21611Y-29261D02*
X21611Y-29109D01*
X21811Y-29204D02*
X21554Y-29204D01*
X21525Y-29185D01*
X21511Y-29147D01*
X21511Y-29109D01*
X21797Y-28690D02*
X21811Y-28652D01*
X21811Y-28576D01*
X21797Y-28538D01*
X21768Y-28519D01*
X21754Y-28519D01*
X21725Y-28538D01*
X21711Y-28576D01*
X21711Y-28633D01*
X21697Y-28671D01*
X21668Y-28690D01*
X21654Y-28690D01*
X21625Y-28671D01*
X21611Y-28633D01*
X21611Y-28576D01*
X21625Y-28538D01*
X21811Y-28347D02*
X21511Y-28347D01*
X21811Y-28176D02*
X21654Y-28176D01*
X21625Y-28195D01*
X21611Y-28233D01*
X21611Y-28290D01*
X21625Y-28328D01*
X21640Y-28347D01*
X21811Y-27928D02*
X21797Y-27966D01*
X21782Y-27985D01*
X21754Y-28004D01*
X21668Y-28004D01*
X21640Y-27985D01*
X21625Y-27966D01*
X21611Y-27928D01*
X21611Y-27871D01*
X21625Y-27833D01*
X21640Y-27814D01*
X21668Y-27795D01*
X21754Y-27795D01*
X21782Y-27814D01*
X21797Y-27833D01*
X21811Y-27871D01*
X21811Y-27928D01*
X21811Y-27623D02*
X21611Y-27623D01*
X21668Y-27623D02*
X21640Y-27604D01*
X21625Y-27585D01*
X21611Y-27547D01*
X21611Y-27509D01*
X21611Y-27433D02*
X21611Y-27280D01*
X21511Y-27376D02*
X21768Y-27376D01*
X21797Y-27357D01*
X21811Y-27319D01*
X21811Y-27280D01*
X21782Y-27147D02*
X21797Y-27128D01*
X21811Y-27147D01*
X21797Y-27166D01*
X21782Y-27147D01*
X21811Y-27147D01*
G54D14*
X41141Y-26870D02*
X41141Y-25098D01*
X55019Y-26870D02*
X41141Y-26870D01*
X55019Y-25098D02*
X55019Y-26870D01*
X41141Y-25098D02*
X55019Y-25098D01*
G54D13*
X41417Y-25301D02*
X41642Y-25301D01*
X41529Y-25601D02*
X41529Y-25301D01*
X41773Y-25601D02*
X41773Y-25301D01*
X41942Y-25601D02*
X41942Y-25444D01*
X41923Y-25415D01*
X41886Y-25401D01*
X41829Y-25401D01*
X41792Y-25415D01*
X41773Y-25430D01*
X42129Y-25601D02*
X42129Y-25401D01*
X42129Y-25301D02*
X42111Y-25315D01*
X42129Y-25330D01*
X42148Y-25315D01*
X42129Y-25301D01*
X42129Y-25330D01*
X42298Y-25587D02*
X42336Y-25601D01*
X42411Y-25601D01*
X42448Y-25587D01*
X42467Y-25558D01*
X42467Y-25544D01*
X42448Y-25515D01*
X42411Y-25501D01*
X42354Y-25501D01*
X42317Y-25487D01*
X42298Y-25458D01*
X42298Y-25444D01*
X42317Y-25415D01*
X42354Y-25401D01*
X42411Y-25401D01*
X42448Y-25415D01*
X43104Y-25601D02*
X43104Y-25444D01*
X43086Y-25415D01*
X43048Y-25401D01*
X42973Y-25401D01*
X42936Y-25415D01*
X43104Y-25587D02*
X43067Y-25601D01*
X42973Y-25601D01*
X42936Y-25587D01*
X42917Y-25558D01*
X42917Y-25530D01*
X42936Y-25501D01*
X42973Y-25487D01*
X43067Y-25487D01*
X43104Y-25472D01*
X43460Y-25601D02*
X43460Y-25301D01*
X43460Y-25587D02*
X43423Y-25601D01*
X43348Y-25601D01*
X43311Y-25587D01*
X43292Y-25572D01*
X43273Y-25544D01*
X43273Y-25458D01*
X43292Y-25430D01*
X43311Y-25415D01*
X43348Y-25401D01*
X43423Y-25401D01*
X43460Y-25415D01*
X43817Y-25601D02*
X43817Y-25444D01*
X43798Y-25415D01*
X43760Y-25401D01*
X43685Y-25401D01*
X43648Y-25415D01*
X43817Y-25587D02*
X43779Y-25601D01*
X43685Y-25601D01*
X43648Y-25587D01*
X43629Y-25558D01*
X43629Y-25530D01*
X43648Y-25501D01*
X43685Y-25487D01*
X43779Y-25487D01*
X43817Y-25472D01*
X44004Y-25401D02*
X44004Y-25701D01*
X44004Y-25415D02*
X44042Y-25401D01*
X44117Y-25401D01*
X44154Y-25415D01*
X44173Y-25430D01*
X44192Y-25458D01*
X44192Y-25544D01*
X44173Y-25572D01*
X44154Y-25587D01*
X44117Y-25601D01*
X44042Y-25601D01*
X44004Y-25587D01*
X44304Y-25401D02*
X44454Y-25401D01*
X44360Y-25301D02*
X44360Y-25558D01*
X44379Y-25587D01*
X44417Y-25601D01*
X44454Y-25601D01*
X44735Y-25587D02*
X44698Y-25601D01*
X44623Y-25601D01*
X44585Y-25587D01*
X44567Y-25558D01*
X44567Y-25444D01*
X44585Y-25415D01*
X44623Y-25401D01*
X44698Y-25401D01*
X44735Y-25415D01*
X44754Y-25444D01*
X44754Y-25472D01*
X44567Y-25501D01*
X44923Y-25601D02*
X44923Y-25401D01*
X44923Y-25458D02*
X44942Y-25430D01*
X44960Y-25415D01*
X44998Y-25401D01*
X45035Y-25401D01*
X45466Y-25601D02*
X45466Y-25401D01*
X45466Y-25301D02*
X45448Y-25315D01*
X45466Y-25330D01*
X45485Y-25315D01*
X45466Y-25301D01*
X45466Y-25330D01*
X45635Y-25587D02*
X45673Y-25601D01*
X45748Y-25601D01*
X45785Y-25587D01*
X45804Y-25558D01*
X45804Y-25544D01*
X45785Y-25515D01*
X45748Y-25501D01*
X45691Y-25501D01*
X45654Y-25487D01*
X45635Y-25458D01*
X45635Y-25444D01*
X45654Y-25415D01*
X45691Y-25401D01*
X45748Y-25401D01*
X45785Y-25415D01*
X46441Y-25587D02*
X46404Y-25601D01*
X46329Y-25601D01*
X46291Y-25587D01*
X46273Y-25572D01*
X46254Y-25544D01*
X46254Y-25458D01*
X46273Y-25430D01*
X46291Y-25415D01*
X46329Y-25401D01*
X46404Y-25401D01*
X46441Y-25415D01*
X46666Y-25601D02*
X46629Y-25587D01*
X46610Y-25572D01*
X46591Y-25544D01*
X46591Y-25458D01*
X46610Y-25430D01*
X46629Y-25415D01*
X46666Y-25401D01*
X46723Y-25401D01*
X46760Y-25415D01*
X46779Y-25430D01*
X46798Y-25458D01*
X46798Y-25544D01*
X46779Y-25572D01*
X46760Y-25587D01*
X46723Y-25601D01*
X46666Y-25601D01*
X46966Y-25601D02*
X46966Y-25401D01*
X46966Y-25430D02*
X46985Y-25415D01*
X47023Y-25401D01*
X47079Y-25401D01*
X47116Y-25415D01*
X47135Y-25444D01*
X47135Y-25601D01*
X47135Y-25444D02*
X47154Y-25415D01*
X47191Y-25401D01*
X47248Y-25401D01*
X47285Y-25415D01*
X47304Y-25444D01*
X47304Y-25601D01*
X47491Y-25401D02*
X47491Y-25701D01*
X47491Y-25415D02*
X47529Y-25401D01*
X47604Y-25401D01*
X47641Y-25415D01*
X47660Y-25430D01*
X47679Y-25458D01*
X47679Y-25544D01*
X47660Y-25572D01*
X47641Y-25587D01*
X47604Y-25601D01*
X47529Y-25601D01*
X47491Y-25587D01*
X48016Y-25601D02*
X48016Y-25444D01*
X47997Y-25415D01*
X47960Y-25401D01*
X47885Y-25401D01*
X47847Y-25415D01*
X48016Y-25587D02*
X47979Y-25601D01*
X47885Y-25601D01*
X47847Y-25587D01*
X47829Y-25558D01*
X47829Y-25530D01*
X47847Y-25501D01*
X47885Y-25487D01*
X47979Y-25487D01*
X48016Y-25472D01*
X48147Y-25401D02*
X48297Y-25401D01*
X48204Y-25301D02*
X48204Y-25558D01*
X48222Y-25587D01*
X48260Y-25601D01*
X48297Y-25601D01*
X48429Y-25601D02*
X48429Y-25401D01*
X48429Y-25301D02*
X48410Y-25315D01*
X48429Y-25330D01*
X48447Y-25315D01*
X48429Y-25301D01*
X48429Y-25330D01*
X48616Y-25601D02*
X48616Y-25301D01*
X48616Y-25415D02*
X48654Y-25401D01*
X48729Y-25401D01*
X48766Y-25415D01*
X48785Y-25430D01*
X48804Y-25458D01*
X48804Y-25544D01*
X48785Y-25572D01*
X48766Y-25587D01*
X48729Y-25601D01*
X48654Y-25601D01*
X48616Y-25587D01*
X49029Y-25601D02*
X48991Y-25587D01*
X48972Y-25558D01*
X48972Y-25301D01*
X49329Y-25587D02*
X49291Y-25601D01*
X49216Y-25601D01*
X49179Y-25587D01*
X49160Y-25558D01*
X49160Y-25444D01*
X49179Y-25415D01*
X49216Y-25401D01*
X49291Y-25401D01*
X49329Y-25415D01*
X49347Y-25444D01*
X49347Y-25472D01*
X49160Y-25501D01*
X49760Y-25401D02*
X49910Y-25401D01*
X49816Y-25301D02*
X49816Y-25558D01*
X49835Y-25587D01*
X49872Y-25601D01*
X49910Y-25601D01*
X50097Y-25601D02*
X50060Y-25587D01*
X50041Y-25572D01*
X50022Y-25544D01*
X50022Y-25458D01*
X50041Y-25430D01*
X50060Y-25415D01*
X50097Y-25401D01*
X50153Y-25401D01*
X50191Y-25415D01*
X50210Y-25430D01*
X50228Y-25458D01*
X50228Y-25544D01*
X50210Y-25572D01*
X50191Y-25587D01*
X50153Y-25601D01*
X50097Y-25601D01*
X50922Y-25601D02*
X50791Y-25458D01*
X50697Y-25601D02*
X50697Y-25301D01*
X50847Y-25301D01*
X50885Y-25315D01*
X50903Y-25330D01*
X50922Y-25358D01*
X50922Y-25401D01*
X50903Y-25430D01*
X50885Y-25444D01*
X50847Y-25458D01*
X50697Y-25458D01*
X51241Y-25587D02*
X51203Y-25601D01*
X51128Y-25601D01*
X51091Y-25587D01*
X51072Y-25558D01*
X51072Y-25444D01*
X51091Y-25415D01*
X51128Y-25401D01*
X51203Y-25401D01*
X51241Y-25415D01*
X51260Y-25444D01*
X51260Y-25472D01*
X51072Y-25501D01*
X51391Y-25401D02*
X51484Y-25601D01*
X51578Y-25401D01*
X51728Y-25572D02*
X51747Y-25587D01*
X51728Y-25601D01*
X51709Y-25587D01*
X51728Y-25572D01*
X51728Y-25601D01*
X52441Y-25572D02*
X52422Y-25587D01*
X52366Y-25601D01*
X52328Y-25601D01*
X52272Y-25587D01*
X52234Y-25558D01*
X52216Y-25530D01*
X52197Y-25472D01*
X52197Y-25430D01*
X52216Y-25372D01*
X52234Y-25344D01*
X52272Y-25315D01*
X52328Y-25301D01*
X52366Y-25301D01*
X52422Y-25315D01*
X52441Y-25330D01*
X52909Y-25601D02*
X52909Y-25301D01*
X52909Y-25444D02*
X53134Y-25444D01*
X53134Y-25601D02*
X53134Y-25301D01*
X53322Y-25601D02*
X53322Y-25301D01*
X53415Y-25301D01*
X53472Y-25315D01*
X53509Y-25344D01*
X53528Y-25372D01*
X53547Y-25430D01*
X53547Y-25472D01*
X53528Y-25530D01*
X53509Y-25558D01*
X53472Y-25587D01*
X53415Y-25601D01*
X53322Y-25601D01*
X53715Y-25601D02*
X53715Y-25301D01*
X53903Y-25572D02*
X53922Y-25587D01*
X53903Y-25601D01*
X53884Y-25587D01*
X53903Y-25572D01*
X53903Y-25601D01*
X41548Y-25796D02*
X41623Y-25796D01*
X41661Y-25810D01*
X41698Y-25839D01*
X41717Y-25896D01*
X41717Y-25996D01*
X41698Y-26053D01*
X41661Y-26082D01*
X41623Y-26096D01*
X41548Y-26096D01*
X41511Y-26082D01*
X41473Y-26053D01*
X41454Y-25996D01*
X41454Y-25896D01*
X41473Y-25839D01*
X41511Y-25810D01*
X41548Y-25796D01*
X41886Y-25896D02*
X41886Y-26196D01*
X41886Y-25910D02*
X41923Y-25896D01*
X41998Y-25896D01*
X42036Y-25910D01*
X42054Y-25925D01*
X42073Y-25953D01*
X42073Y-26039D01*
X42054Y-26067D01*
X42036Y-26082D01*
X41998Y-26096D01*
X41923Y-26096D01*
X41886Y-26082D01*
X42392Y-26082D02*
X42354Y-26096D01*
X42279Y-26096D01*
X42242Y-26082D01*
X42223Y-26053D01*
X42223Y-25939D01*
X42242Y-25910D01*
X42279Y-25896D01*
X42354Y-25896D01*
X42392Y-25910D01*
X42411Y-25939D01*
X42411Y-25967D01*
X42223Y-25996D01*
X42579Y-26096D02*
X42579Y-25896D01*
X42579Y-25953D02*
X42598Y-25925D01*
X42617Y-25910D01*
X42654Y-25896D01*
X42692Y-25896D01*
X42992Y-26096D02*
X42992Y-25939D01*
X42973Y-25910D01*
X42936Y-25896D01*
X42861Y-25896D01*
X42823Y-25910D01*
X42992Y-26082D02*
X42954Y-26096D01*
X42861Y-26096D01*
X42823Y-26082D01*
X42804Y-26053D01*
X42804Y-26025D01*
X42823Y-25996D01*
X42861Y-25982D01*
X42954Y-25982D01*
X42992Y-25967D01*
X43123Y-25896D02*
X43273Y-25896D01*
X43179Y-25796D02*
X43179Y-26053D01*
X43198Y-26082D01*
X43236Y-26096D01*
X43273Y-26096D01*
X43404Y-26096D02*
X43404Y-25896D01*
X43404Y-25796D02*
X43385Y-25810D01*
X43404Y-25825D01*
X43423Y-25810D01*
X43404Y-25796D01*
X43404Y-25825D01*
X43592Y-25896D02*
X43592Y-26096D01*
X43592Y-25925D02*
X43610Y-25910D01*
X43648Y-25896D01*
X43704Y-25896D01*
X43742Y-25910D01*
X43760Y-25939D01*
X43760Y-26096D01*
X44117Y-25896D02*
X44117Y-26139D01*
X44098Y-26167D01*
X44079Y-26182D01*
X44042Y-26196D01*
X43985Y-26196D01*
X43948Y-26182D01*
X44117Y-26082D02*
X44079Y-26096D01*
X44004Y-26096D01*
X43967Y-26082D01*
X43948Y-26067D01*
X43929Y-26039D01*
X43929Y-25953D01*
X43948Y-25925D01*
X43967Y-25910D01*
X44004Y-25896D01*
X44079Y-25896D01*
X44117Y-25910D01*
X44660Y-26096D02*
X44623Y-26082D01*
X44604Y-26067D01*
X44585Y-26039D01*
X44585Y-25953D01*
X44604Y-25925D01*
X44623Y-25910D01*
X44660Y-25896D01*
X44717Y-25896D01*
X44754Y-25910D01*
X44773Y-25925D01*
X44792Y-25953D01*
X44792Y-26039D01*
X44773Y-26067D01*
X44754Y-26082D01*
X44717Y-26096D01*
X44660Y-26096D01*
X45017Y-26096D02*
X44979Y-26082D01*
X44960Y-26053D01*
X44960Y-25796D01*
X45335Y-26096D02*
X45335Y-25796D01*
X45335Y-26082D02*
X45298Y-26096D01*
X45223Y-26096D01*
X45185Y-26082D01*
X45167Y-26067D01*
X45148Y-26039D01*
X45148Y-25953D01*
X45167Y-25925D01*
X45185Y-25910D01*
X45223Y-25896D01*
X45298Y-25896D01*
X45335Y-25910D01*
X45673Y-26082D02*
X45635Y-26096D01*
X45560Y-26096D01*
X45523Y-26082D01*
X45504Y-26053D01*
X45504Y-25939D01*
X45523Y-25910D01*
X45560Y-25896D01*
X45635Y-25896D01*
X45673Y-25910D01*
X45691Y-25939D01*
X45691Y-25967D01*
X45504Y-25996D01*
X45860Y-26096D02*
X45860Y-25896D01*
X45860Y-25953D02*
X45879Y-25925D01*
X45898Y-25910D01*
X45935Y-25896D01*
X45973Y-25896D01*
X46366Y-25896D02*
X46460Y-26096D01*
X46554Y-25896D01*
X46854Y-26082D02*
X46816Y-26096D01*
X46741Y-26096D01*
X46704Y-26082D01*
X46685Y-26053D01*
X46685Y-25939D01*
X46704Y-25910D01*
X46741Y-25896D01*
X46816Y-25896D01*
X46854Y-25910D01*
X46873Y-25939D01*
X46873Y-25967D01*
X46685Y-25996D01*
X47041Y-26096D02*
X47041Y-25896D01*
X47041Y-25953D02*
X47060Y-25925D01*
X47079Y-25910D01*
X47116Y-25896D01*
X47154Y-25896D01*
X47266Y-26082D02*
X47304Y-26096D01*
X47379Y-26096D01*
X47416Y-26082D01*
X47435Y-26053D01*
X47435Y-26039D01*
X47416Y-26010D01*
X47379Y-25996D01*
X47323Y-25996D01*
X47285Y-25982D01*
X47266Y-25953D01*
X47266Y-25939D01*
X47285Y-25910D01*
X47323Y-25896D01*
X47379Y-25896D01*
X47416Y-25910D01*
X47604Y-26096D02*
X47604Y-25896D01*
X47604Y-25796D02*
X47585Y-25810D01*
X47604Y-25825D01*
X47622Y-25810D01*
X47604Y-25796D01*
X47604Y-25825D01*
X47847Y-26096D02*
X47810Y-26082D01*
X47791Y-26067D01*
X47772Y-26039D01*
X47772Y-25953D01*
X47791Y-25925D01*
X47810Y-25910D01*
X47847Y-25896D01*
X47904Y-25896D01*
X47941Y-25910D01*
X47960Y-25925D01*
X47979Y-25953D01*
X47979Y-26039D01*
X47960Y-26067D01*
X47941Y-26082D01*
X47904Y-26096D01*
X47847Y-26096D01*
X48147Y-25896D02*
X48147Y-26096D01*
X48147Y-25925D02*
X48166Y-25910D01*
X48204Y-25896D01*
X48260Y-25896D01*
X48297Y-25910D01*
X48316Y-25939D01*
X48316Y-26096D01*
X48485Y-26082D02*
X48522Y-26096D01*
X48597Y-26096D01*
X48635Y-26082D01*
X48654Y-26053D01*
X48654Y-26039D01*
X48635Y-26010D01*
X48597Y-25996D01*
X48541Y-25996D01*
X48504Y-25982D01*
X48485Y-25953D01*
X48485Y-25939D01*
X48504Y-25910D01*
X48541Y-25896D01*
X48597Y-25896D01*
X48635Y-25910D01*
X49085Y-25896D02*
X49160Y-26096D01*
X49235Y-25953D01*
X49310Y-26096D01*
X49385Y-25896D01*
X49535Y-26096D02*
X49535Y-25896D01*
X49535Y-25796D02*
X49516Y-25810D01*
X49535Y-25825D01*
X49553Y-25810D01*
X49535Y-25796D01*
X49535Y-25825D01*
X49666Y-25896D02*
X49816Y-25896D01*
X49722Y-25796D02*
X49722Y-26053D01*
X49741Y-26082D01*
X49778Y-26096D01*
X49816Y-26096D01*
X49947Y-26096D02*
X49947Y-25796D01*
X50116Y-26096D02*
X50116Y-25939D01*
X50097Y-25910D01*
X50060Y-25896D01*
X50003Y-25896D01*
X49966Y-25910D01*
X49947Y-25925D01*
X50360Y-26096D02*
X50322Y-26082D01*
X50303Y-26067D01*
X50285Y-26039D01*
X50285Y-25953D01*
X50303Y-25925D01*
X50322Y-25910D01*
X50360Y-25896D01*
X50416Y-25896D01*
X50453Y-25910D01*
X50472Y-25925D01*
X50491Y-25953D01*
X50491Y-26039D01*
X50472Y-26067D01*
X50453Y-26082D01*
X50416Y-26096D01*
X50360Y-26096D01*
X50828Y-25896D02*
X50828Y-26096D01*
X50660Y-25896D02*
X50660Y-26053D01*
X50678Y-26082D01*
X50716Y-26096D01*
X50772Y-26096D01*
X50810Y-26082D01*
X50828Y-26067D01*
X50960Y-25896D02*
X51110Y-25896D01*
X51016Y-25796D02*
X51016Y-26053D01*
X51035Y-26082D01*
X51072Y-26096D01*
X51110Y-26096D01*
X51709Y-26096D02*
X51709Y-25939D01*
X51691Y-25910D01*
X51653Y-25896D01*
X51578Y-25896D01*
X51541Y-25910D01*
X51709Y-26082D02*
X51672Y-26096D01*
X51578Y-26096D01*
X51541Y-26082D01*
X51522Y-26053D01*
X51522Y-26025D01*
X51541Y-25996D01*
X51578Y-25982D01*
X51672Y-25982D01*
X51709Y-25967D01*
X52366Y-26082D02*
X52328Y-26096D01*
X52253Y-26096D01*
X52216Y-26082D01*
X52197Y-26067D01*
X52178Y-26039D01*
X52178Y-25953D01*
X52197Y-25925D01*
X52216Y-25910D01*
X52253Y-25896D01*
X52328Y-25896D01*
X52366Y-25910D01*
X52591Y-26096D02*
X52553Y-26082D01*
X52534Y-26067D01*
X52516Y-26039D01*
X52516Y-25953D01*
X52534Y-25925D01*
X52553Y-25910D01*
X52591Y-25896D01*
X52647Y-25896D01*
X52684Y-25910D01*
X52703Y-25925D01*
X52722Y-25953D01*
X52722Y-26039D01*
X52703Y-26067D01*
X52684Y-26082D01*
X52647Y-26096D01*
X52591Y-26096D01*
X52891Y-25896D02*
X52891Y-26096D01*
X52891Y-25925D02*
X52909Y-25910D01*
X52947Y-25896D01*
X53003Y-25896D01*
X53041Y-25910D01*
X53059Y-25939D01*
X53059Y-26096D01*
X53209Y-25896D02*
X53303Y-26096D01*
X53397Y-25896D01*
X53697Y-26082D02*
X53659Y-26096D01*
X53584Y-26096D01*
X53547Y-26082D01*
X53528Y-26053D01*
X53528Y-25939D01*
X53547Y-25910D01*
X53584Y-25896D01*
X53659Y-25896D01*
X53697Y-25910D01*
X53715Y-25939D01*
X53715Y-25967D01*
X53528Y-25996D01*
X53884Y-26096D02*
X53884Y-25896D01*
X53884Y-25953D02*
X53903Y-25925D01*
X53922Y-25910D01*
X53959Y-25896D01*
X53997Y-25896D01*
X54072Y-25896D02*
X54222Y-25896D01*
X54128Y-25796D02*
X54128Y-26053D01*
X54147Y-26082D01*
X54184Y-26096D01*
X54222Y-26096D01*
X54503Y-26082D02*
X54465Y-26096D01*
X54390Y-26096D01*
X54353Y-26082D01*
X54334Y-26053D01*
X54334Y-25939D01*
X54353Y-25910D01*
X54390Y-25896D01*
X54465Y-25896D01*
X54503Y-25910D01*
X54522Y-25939D01*
X54522Y-25967D01*
X54334Y-25996D01*
X54690Y-26096D02*
X54690Y-25896D01*
X54690Y-25953D02*
X54709Y-25925D01*
X54728Y-25910D01*
X54765Y-25896D01*
X54803Y-25896D01*
X41473Y-26591D02*
X41473Y-26391D01*
X41473Y-26420D02*
X41492Y-26405D01*
X41529Y-26391D01*
X41586Y-26391D01*
X41623Y-26405D01*
X41642Y-26434D01*
X41642Y-26591D01*
X41642Y-26434D02*
X41661Y-26405D01*
X41698Y-26391D01*
X41754Y-26391D01*
X41792Y-26405D01*
X41811Y-26434D01*
X41811Y-26591D01*
X42167Y-26591D02*
X42167Y-26434D01*
X42148Y-26405D01*
X42111Y-26391D01*
X42036Y-26391D01*
X41998Y-26405D01*
X42167Y-26577D02*
X42129Y-26591D01*
X42036Y-26591D01*
X41998Y-26577D01*
X41979Y-26548D01*
X41979Y-26520D01*
X41998Y-26491D01*
X42036Y-26477D01*
X42129Y-26477D01*
X42167Y-26462D01*
X42317Y-26391D02*
X42411Y-26591D01*
X42504Y-26391D02*
X42411Y-26591D01*
X42373Y-26662D01*
X42354Y-26677D01*
X42317Y-26691D01*
X43011Y-26591D02*
X42973Y-26577D01*
X42954Y-26548D01*
X42954Y-26291D01*
X43311Y-26577D02*
X43273Y-26591D01*
X43198Y-26591D01*
X43161Y-26577D01*
X43142Y-26548D01*
X43142Y-26434D01*
X43161Y-26405D01*
X43198Y-26391D01*
X43273Y-26391D01*
X43311Y-26405D01*
X43329Y-26434D01*
X43329Y-26462D01*
X43142Y-26491D01*
X43667Y-26591D02*
X43667Y-26434D01*
X43648Y-26405D01*
X43610Y-26391D01*
X43535Y-26391D01*
X43498Y-26405D01*
X43667Y-26577D02*
X43629Y-26591D01*
X43535Y-26591D01*
X43498Y-26577D01*
X43479Y-26548D01*
X43479Y-26520D01*
X43498Y-26491D01*
X43535Y-26477D01*
X43629Y-26477D01*
X43667Y-26462D01*
X44023Y-26591D02*
X44023Y-26291D01*
X44023Y-26577D02*
X43985Y-26591D01*
X43910Y-26591D01*
X43873Y-26577D01*
X43854Y-26562D01*
X43835Y-26534D01*
X43835Y-26448D01*
X43854Y-26420D01*
X43873Y-26405D01*
X43910Y-26391D01*
X43985Y-26391D01*
X44023Y-26405D01*
X44454Y-26391D02*
X44604Y-26391D01*
X44510Y-26291D02*
X44510Y-26548D01*
X44529Y-26577D01*
X44567Y-26591D01*
X44604Y-26591D01*
X44792Y-26591D02*
X44754Y-26577D01*
X44735Y-26562D01*
X44717Y-26534D01*
X44717Y-26448D01*
X44735Y-26420D01*
X44754Y-26405D01*
X44792Y-26391D01*
X44848Y-26391D01*
X44885Y-26405D01*
X44904Y-26420D01*
X44923Y-26448D01*
X44923Y-26534D01*
X44904Y-26562D01*
X44885Y-26577D01*
X44848Y-26591D01*
X44792Y-26591D01*
X45560Y-26591D02*
X45560Y-26434D01*
X45541Y-26405D01*
X45504Y-26391D01*
X45429Y-26391D01*
X45391Y-26405D01*
X45560Y-26577D02*
X45523Y-26591D01*
X45429Y-26591D01*
X45391Y-26577D01*
X45373Y-26548D01*
X45373Y-26520D01*
X45391Y-26491D01*
X45429Y-26477D01*
X45523Y-26477D01*
X45560Y-26462D01*
X46029Y-26577D02*
X46066Y-26591D01*
X46141Y-26591D01*
X46179Y-26577D01*
X46198Y-26548D01*
X46198Y-26534D01*
X46179Y-26505D01*
X46141Y-26491D01*
X46085Y-26491D01*
X46048Y-26477D01*
X46029Y-26448D01*
X46029Y-26434D01*
X46048Y-26405D01*
X46085Y-26391D01*
X46141Y-26391D01*
X46179Y-26405D01*
X46366Y-26591D02*
X46366Y-26291D01*
X46535Y-26591D02*
X46535Y-26434D01*
X46516Y-26405D01*
X46479Y-26391D01*
X46423Y-26391D01*
X46385Y-26405D01*
X46366Y-26420D01*
X46779Y-26591D02*
X46741Y-26577D01*
X46723Y-26562D01*
X46704Y-26534D01*
X46704Y-26448D01*
X46723Y-26420D01*
X46741Y-26405D01*
X46779Y-26391D01*
X46835Y-26391D01*
X46873Y-26405D01*
X46891Y-26420D01*
X46910Y-26448D01*
X46910Y-26534D01*
X46891Y-26562D01*
X46873Y-26577D01*
X46835Y-26591D01*
X46779Y-26591D01*
X47079Y-26591D02*
X47079Y-26391D01*
X47079Y-26448D02*
X47098Y-26420D01*
X47116Y-26405D01*
X47154Y-26391D01*
X47191Y-26391D01*
X47266Y-26391D02*
X47416Y-26391D01*
X47323Y-26291D02*
X47323Y-26548D01*
X47341Y-26577D01*
X47379Y-26591D01*
X47416Y-26591D01*
X48016Y-26591D02*
X48016Y-26434D01*
X47997Y-26405D01*
X47960Y-26391D01*
X47885Y-26391D01*
X47847Y-26405D01*
X48016Y-26577D02*
X47979Y-26591D01*
X47885Y-26591D01*
X47847Y-26577D01*
X47829Y-26548D01*
X47829Y-26520D01*
X47847Y-26491D01*
X47885Y-26477D01*
X47979Y-26477D01*
X48016Y-26462D01*
X48204Y-26391D02*
X48204Y-26591D01*
X48204Y-26420D02*
X48222Y-26405D01*
X48260Y-26391D01*
X48316Y-26391D01*
X48354Y-26405D01*
X48372Y-26434D01*
X48372Y-26591D01*
X48729Y-26591D02*
X48729Y-26291D01*
X48729Y-26577D02*
X48691Y-26591D01*
X48616Y-26591D01*
X48579Y-26577D01*
X48560Y-26562D01*
X48541Y-26534D01*
X48541Y-26448D01*
X48560Y-26420D01*
X48579Y-26405D01*
X48616Y-26391D01*
X48691Y-26391D01*
X48729Y-26405D01*
X49272Y-26591D02*
X49235Y-26577D01*
X49216Y-26562D01*
X49197Y-26534D01*
X49197Y-26448D01*
X49216Y-26420D01*
X49235Y-26405D01*
X49272Y-26391D01*
X49329Y-26391D01*
X49366Y-26405D01*
X49385Y-26420D01*
X49403Y-26448D01*
X49403Y-26534D01*
X49385Y-26562D01*
X49366Y-26577D01*
X49329Y-26591D01*
X49272Y-26591D01*
X49535Y-26391D02*
X49628Y-26591D01*
X49722Y-26391D01*
X50022Y-26577D02*
X49985Y-26591D01*
X49910Y-26591D01*
X49872Y-26577D01*
X49853Y-26548D01*
X49853Y-26434D01*
X49872Y-26405D01*
X49910Y-26391D01*
X49985Y-26391D01*
X50022Y-26405D01*
X50041Y-26434D01*
X50041Y-26462D01*
X49853Y-26491D01*
X50210Y-26591D02*
X50210Y-26391D01*
X50210Y-26448D02*
X50228Y-26420D01*
X50247Y-26405D01*
X50285Y-26391D01*
X50322Y-26391D01*
X50453Y-26591D02*
X50453Y-26291D01*
X50622Y-26591D02*
X50622Y-26434D01*
X50603Y-26405D01*
X50566Y-26391D01*
X50510Y-26391D01*
X50472Y-26405D01*
X50453Y-26420D01*
X50960Y-26577D02*
X50922Y-26591D01*
X50847Y-26591D01*
X50810Y-26577D01*
X50791Y-26548D01*
X50791Y-26434D01*
X50810Y-26405D01*
X50847Y-26391D01*
X50922Y-26391D01*
X50960Y-26405D01*
X50978Y-26434D01*
X50978Y-26462D01*
X50791Y-26491D01*
X51316Y-26591D02*
X51316Y-26434D01*
X51297Y-26405D01*
X51260Y-26391D01*
X51185Y-26391D01*
X51147Y-26405D01*
X51316Y-26577D02*
X51278Y-26591D01*
X51185Y-26591D01*
X51147Y-26577D01*
X51128Y-26548D01*
X51128Y-26520D01*
X51147Y-26491D01*
X51185Y-26477D01*
X51278Y-26477D01*
X51316Y-26462D01*
X51447Y-26391D02*
X51597Y-26391D01*
X51503Y-26291D02*
X51503Y-26548D01*
X51522Y-26577D01*
X51559Y-26591D01*
X51597Y-26591D01*
X51728Y-26591D02*
X51728Y-26391D01*
X51728Y-26291D02*
X51709Y-26305D01*
X51728Y-26320D01*
X51747Y-26305D01*
X51728Y-26291D01*
X51728Y-26320D01*
X51916Y-26391D02*
X51916Y-26591D01*
X51916Y-26420D02*
X51934Y-26405D01*
X51972Y-26391D01*
X52028Y-26391D01*
X52066Y-26405D01*
X52084Y-26434D01*
X52084Y-26591D01*
X52441Y-26391D02*
X52441Y-26634D01*
X52422Y-26662D01*
X52403Y-26677D01*
X52366Y-26691D01*
X52309Y-26691D01*
X52272Y-26677D01*
X52441Y-26577D02*
X52403Y-26591D01*
X52328Y-26591D01*
X52291Y-26577D01*
X52272Y-26562D01*
X52253Y-26534D01*
X52253Y-26448D01*
X52272Y-26420D01*
X52291Y-26405D01*
X52328Y-26391D01*
X52403Y-26391D01*
X52441Y-26405D01*
X52628Y-26562D02*
X52647Y-26577D01*
X52628Y-26591D01*
X52609Y-26577D01*
X52628Y-26562D01*
X52628Y-26591D01*
G54D14*
X38344Y-26572D02*
X38592Y-26572D01*
X38458Y-26762D01*
X38515Y-26762D01*
X38554Y-26786D01*
X38573Y-26810D01*
X38592Y-26858D01*
X38592Y-26977D01*
X38573Y-27024D01*
X38554Y-27048D01*
X38515Y-27072D01*
X38401Y-27072D01*
X38363Y-27048D01*
X38344Y-27024D01*
X38763Y-27024D02*
X38782Y-27048D01*
X38763Y-27072D01*
X38744Y-27048D01*
X38763Y-27024D01*
X38763Y-27072D01*
X38915Y-26572D02*
X39163Y-26572D01*
X39030Y-26762D01*
X39087Y-26762D01*
X39125Y-26786D01*
X39144Y-26810D01*
X39163Y-26858D01*
X39163Y-26977D01*
X39144Y-27024D01*
X39125Y-27048D01*
X39087Y-27072D01*
X38973Y-27072D01*
X38935Y-27048D01*
X38915Y-27024D01*
X39277Y-26572D02*
X39411Y-27072D01*
X39544Y-26572D01*
X38557Y-25554D02*
X38457Y-25554D01*
X38457Y-25711D02*
X38457Y-25411D01*
X38600Y-25411D01*
X38842Y-25511D02*
X38842Y-25711D01*
X38714Y-25511D02*
X38714Y-25669D01*
X38728Y-25697D01*
X38757Y-25711D01*
X38800Y-25711D01*
X38828Y-25697D01*
X38842Y-25683D01*
X38971Y-25697D02*
X39000Y-25711D01*
X39057Y-25711D01*
X39085Y-25697D01*
X39100Y-25669D01*
X39100Y-25654D01*
X39085Y-25626D01*
X39057Y-25611D01*
X39014Y-25611D01*
X38985Y-25597D01*
X38971Y-25569D01*
X38971Y-25554D01*
X38985Y-25526D01*
X39014Y-25511D01*
X39057Y-25511D01*
X39085Y-25526D01*
X39342Y-25697D02*
X39314Y-25711D01*
X39257Y-25711D01*
X39228Y-25697D01*
X39214Y-25669D01*
X39214Y-25554D01*
X39228Y-25526D01*
X39257Y-25511D01*
X39314Y-25511D01*
X39342Y-25526D01*
X39357Y-25554D01*
X39357Y-25583D01*
X39214Y-25611D01*
X38156Y-34305D02*
X38141Y-34319D01*
X38099Y-34334D01*
X38070Y-34334D01*
X38027Y-34319D01*
X37999Y-34291D01*
X37984Y-34262D01*
X37970Y-34205D01*
X37970Y-34162D01*
X37984Y-34105D01*
X37999Y-34076D01*
X38027Y-34048D01*
X38070Y-34034D01*
X38099Y-34034D01*
X38141Y-34048D01*
X38156Y-34062D01*
X36896Y-34305D02*
X36882Y-34319D01*
X36839Y-34334D01*
X36810Y-34334D01*
X36767Y-34319D01*
X36739Y-34291D01*
X36724Y-34262D01*
X36710Y-34205D01*
X36710Y-34162D01*
X36724Y-34105D01*
X36739Y-34076D01*
X36767Y-34048D01*
X36810Y-34034D01*
X36839Y-34034D01*
X36882Y-34048D01*
X36896Y-34062D01*
X37301Y-35218D02*
X37301Y-35361D01*
X37444Y-35375D01*
X37430Y-35361D01*
X37416Y-35333D01*
X37416Y-35261D01*
X37430Y-35233D01*
X37444Y-35218D01*
X37473Y-35204D01*
X37544Y-35204D01*
X37573Y-35218D01*
X37587Y-35233D01*
X37601Y-35261D01*
X37601Y-35333D01*
X37587Y-35361D01*
X37573Y-35375D01*
X37601Y-35090D02*
X37301Y-34861D01*
X37301Y-35047D02*
X37316Y-35018D01*
X37344Y-35004D01*
X37373Y-35018D01*
X37387Y-35047D01*
X37373Y-35075D01*
X37344Y-35090D01*
X37316Y-35075D01*
X37301Y-35047D01*
X37587Y-34875D02*
X37558Y-34861D01*
X37530Y-34875D01*
X37516Y-34904D01*
X37530Y-34933D01*
X37558Y-34947D01*
X37587Y-34933D01*
X37601Y-34904D01*
X37587Y-34875D01*
X36199Y-35218D02*
X36199Y-35361D01*
X36342Y-35375D01*
X36327Y-35361D01*
X36313Y-35333D01*
X36313Y-35261D01*
X36327Y-35233D01*
X36342Y-35218D01*
X36370Y-35204D01*
X36442Y-35204D01*
X36470Y-35218D01*
X36485Y-35233D01*
X36499Y-35261D01*
X36499Y-35333D01*
X36485Y-35361D01*
X36470Y-35375D01*
X36499Y-35090D02*
X36199Y-34861D01*
X36199Y-35047D02*
X36213Y-35018D01*
X36242Y-35004D01*
X36270Y-35018D01*
X36285Y-35047D01*
X36270Y-35075D01*
X36242Y-35090D01*
X36213Y-35075D01*
X36199Y-35047D01*
X36485Y-34875D02*
X36456Y-34861D01*
X36427Y-34875D01*
X36413Y-34904D01*
X36427Y-34933D01*
X36456Y-34947D01*
X36485Y-34933D01*
X36499Y-34904D01*
X36485Y-34875D01*
X36470Y-36700D02*
X36485Y-36685D01*
X36499Y-36700D01*
X36485Y-36714D01*
X36470Y-36700D01*
X36499Y-36700D01*
X36499Y-36400D02*
X36499Y-36571D01*
X36499Y-36485D02*
X36199Y-36485D01*
X36242Y-36514D01*
X36270Y-36543D01*
X36285Y-36571D01*
X36499Y-36285D02*
X36199Y-36057D01*
X36199Y-36243D02*
X36213Y-36214D01*
X36242Y-36200D01*
X36270Y-36214D01*
X36285Y-36243D01*
X36270Y-36271D01*
X36242Y-36285D01*
X36213Y-36271D01*
X36199Y-36243D01*
X36485Y-36071D02*
X36456Y-36057D01*
X36427Y-36071D01*
X36413Y-36100D01*
X36427Y-36128D01*
X36456Y-36143D01*
X36485Y-36128D01*
X36499Y-36100D01*
X36485Y-36071D01*
X39147Y-35519D02*
X39162Y-35504D01*
X39176Y-35519D01*
X39162Y-35533D01*
X39147Y-35519D01*
X39176Y-35519D01*
X39176Y-35219D02*
X39176Y-35390D01*
X39176Y-35304D02*
X38876Y-35304D01*
X38919Y-35333D01*
X38947Y-35361D01*
X38962Y-35390D01*
X39176Y-35104D02*
X38876Y-34876D01*
X38876Y-35061D02*
X38890Y-35033D01*
X38919Y-35019D01*
X38947Y-35033D01*
X38962Y-35061D01*
X38947Y-35090D01*
X38919Y-35104D01*
X38890Y-35090D01*
X38876Y-35061D01*
X39162Y-34890D02*
X39133Y-34876D01*
X39105Y-34890D01*
X39090Y-34919D01*
X39105Y-34947D01*
X39133Y-34961D01*
X39162Y-34947D01*
X39176Y-34919D01*
X39162Y-34890D01*
X39147Y-36700D02*
X39162Y-36685D01*
X39176Y-36700D01*
X39162Y-36714D01*
X39147Y-36700D01*
X39176Y-36700D01*
X39176Y-36400D02*
X39176Y-36571D01*
X39176Y-36485D02*
X38876Y-36485D01*
X38919Y-36514D01*
X38947Y-36543D01*
X38962Y-36571D01*
X39176Y-36285D02*
X38876Y-36057D01*
X38876Y-36243D02*
X38890Y-36214D01*
X38919Y-36200D01*
X38947Y-36214D01*
X38962Y-36243D01*
X38947Y-36271D01*
X38919Y-36285D01*
X38890Y-36271D01*
X38876Y-36243D01*
X39162Y-36071D02*
X39133Y-36057D01*
X39105Y-36071D01*
X39090Y-36100D01*
X39105Y-36128D01*
X39133Y-36143D01*
X39162Y-36128D01*
X39176Y-36100D01*
X39162Y-36071D01*
X35993Y-37446D02*
X35859Y-37208D01*
X35764Y-37446D02*
X35764Y-36946D01*
X35916Y-36946D01*
X35955Y-36970D01*
X35974Y-36994D01*
X35993Y-37041D01*
X35993Y-37113D01*
X35974Y-37160D01*
X35955Y-37184D01*
X35916Y-37208D01*
X35764Y-37208D01*
X36107Y-36946D02*
X36335Y-36946D01*
X36221Y-37446D02*
X36221Y-36946D01*
X36469Y-37446D02*
X36469Y-36946D01*
X36564Y-36946D01*
X36621Y-36970D01*
X36659Y-37017D01*
X36678Y-37065D01*
X36697Y-37160D01*
X36697Y-37232D01*
X36678Y-37327D01*
X36659Y-37375D01*
X36621Y-37422D01*
X36564Y-37446D01*
X36469Y-37446D01*
X34339Y-38107D02*
X34320Y-38131D01*
X34263Y-38155D01*
X34225Y-38155D01*
X34168Y-38131D01*
X34130Y-38083D01*
X34110Y-38036D01*
X34091Y-37940D01*
X34091Y-37869D01*
X34110Y-37774D01*
X34130Y-37726D01*
X34168Y-37678D01*
X34225Y-37655D01*
X34263Y-37655D01*
X34320Y-37678D01*
X34339Y-37702D01*
X34701Y-38155D02*
X34510Y-38155D01*
X34510Y-37655D01*
X34834Y-38155D02*
X34834Y-37655D01*
X35063Y-38155D02*
X34891Y-37869D01*
X35063Y-37655D02*
X34834Y-37940D01*
X34693Y-35902D02*
X34674Y-35926D01*
X34617Y-35950D01*
X34579Y-35950D01*
X34522Y-35926D01*
X34484Y-35878D01*
X34465Y-35831D01*
X34446Y-35736D01*
X34446Y-35664D01*
X34465Y-35569D01*
X34484Y-35521D01*
X34522Y-35474D01*
X34579Y-35450D01*
X34617Y-35450D01*
X34674Y-35474D01*
X34693Y-35498D01*
X34808Y-35450D02*
X35036Y-35450D01*
X34922Y-35950D02*
X34922Y-35450D01*
X35398Y-35950D02*
X35265Y-35712D01*
X35170Y-35950D02*
X35170Y-35450D01*
X35322Y-35450D01*
X35360Y-35474D01*
X35379Y-35498D01*
X35398Y-35545D01*
X35398Y-35617D01*
X35379Y-35664D01*
X35360Y-35688D01*
X35322Y-35712D01*
X35170Y-35712D01*
X34131Y-33800D02*
X34188Y-33824D01*
X34283Y-33824D01*
X34321Y-33800D01*
X34340Y-33776D01*
X34359Y-33729D01*
X34359Y-33681D01*
X34340Y-33633D01*
X34321Y-33610D01*
X34283Y-33586D01*
X34207Y-33562D01*
X34169Y-33538D01*
X34150Y-33514D01*
X34131Y-33467D01*
X34131Y-33419D01*
X34150Y-33372D01*
X34169Y-33348D01*
X34207Y-33324D01*
X34302Y-33324D01*
X34359Y-33348D01*
X34531Y-33824D02*
X34531Y-33324D01*
X34626Y-33324D01*
X34683Y-33348D01*
X34721Y-33395D01*
X34740Y-33443D01*
X34759Y-33538D01*
X34759Y-33610D01*
X34740Y-33705D01*
X34721Y-33752D01*
X34683Y-33800D01*
X34626Y-33824D01*
X34531Y-33824D01*
X34912Y-33681D02*
X35102Y-33681D01*
X34874Y-33824D02*
X35007Y-33324D01*
X35140Y-33824D01*
X34052Y-25454D02*
X34109Y-25477D01*
X34204Y-25477D01*
X34243Y-25454D01*
X34262Y-25430D01*
X34281Y-25382D01*
X34281Y-25335D01*
X34262Y-25287D01*
X34243Y-25263D01*
X34204Y-25239D01*
X34128Y-25216D01*
X34090Y-25192D01*
X34071Y-25168D01*
X34052Y-25120D01*
X34052Y-25073D01*
X34071Y-25025D01*
X34090Y-25001D01*
X34128Y-24977D01*
X34223Y-24977D01*
X34281Y-25001D01*
X34452Y-25477D02*
X34452Y-24977D01*
X34547Y-24977D01*
X34604Y-25001D01*
X34643Y-25049D01*
X34662Y-25097D01*
X34681Y-25192D01*
X34681Y-25263D01*
X34662Y-25358D01*
X34643Y-25406D01*
X34604Y-25454D01*
X34547Y-25477D01*
X34452Y-25477D01*
X34833Y-25335D02*
X35023Y-25335D01*
X34795Y-25477D02*
X34928Y-24977D01*
X35062Y-25477D01*
X35138Y-24977D02*
X35366Y-24977D01*
X35252Y-25477D02*
X35252Y-24977D01*
X35481Y-25335D02*
X35671Y-25335D01*
X35443Y-25477D02*
X35576Y-24977D01*
X35709Y-25477D01*
X36052Y-25477D02*
X35823Y-25477D01*
X35938Y-25477D02*
X35938Y-24977D01*
X35900Y-25049D01*
X35862Y-25097D01*
X35823Y-25120D01*
X34053Y-26749D02*
X34282Y-26749D01*
X34168Y-27249D02*
X34168Y-26749D01*
X34491Y-26749D02*
X34568Y-26749D01*
X34606Y-26773D01*
X34644Y-26821D01*
X34663Y-26916D01*
X34663Y-27082D01*
X34644Y-27178D01*
X34606Y-27225D01*
X34568Y-27249D01*
X34491Y-27249D01*
X34453Y-27225D01*
X34415Y-27178D01*
X34396Y-27082D01*
X34396Y-26916D01*
X34415Y-26821D01*
X34453Y-26773D01*
X34491Y-26749D01*
X34834Y-26749D02*
X34834Y-27154D01*
X34853Y-27202D01*
X34872Y-27225D01*
X34910Y-27249D01*
X34987Y-27249D01*
X35025Y-27225D01*
X35044Y-27202D01*
X35063Y-27154D01*
X35063Y-26749D01*
X35196Y-26749D02*
X35425Y-26749D01*
X35310Y-27249D02*
X35310Y-26749D01*
X31473Y-38437D02*
X31777Y-38437D01*
X31473Y-37413D02*
X31777Y-37413D01*
X31625Y-37603D02*
X31625Y-37223D01*
X31473Y-36232D02*
X31777Y-36232D01*
X31473Y-35208D02*
X31777Y-35208D01*
X31625Y-35399D02*
X31625Y-35018D01*
X31473Y-34145D02*
X31777Y-34145D01*
X31473Y-32964D02*
X31777Y-32964D01*
X31625Y-33155D02*
X31625Y-32774D01*
X31473Y-27570D02*
X31777Y-27570D01*
X31473Y-26507D02*
X31777Y-26507D01*
X31625Y-26698D02*
X31625Y-26317D01*
X31473Y-25759D02*
X31777Y-25759D01*
X31473Y-24657D02*
X31777Y-24657D01*
X31625Y-24848D02*
X31625Y-24467D01*
X23622Y-31653D02*
X23503Y-31653D01*
X23622Y-31653D02*
X23622Y-31535D01*
X23346Y-31377D02*
X23622Y-31653D01*
X23346Y-31653D02*
X23346Y-31377D01*
X23070Y-31377D02*
X23346Y-31653D01*
X27992Y-31614D02*
X27913Y-31614D01*
X27992Y-31614D02*
X27992Y-31535D01*
X27755Y-31377D02*
X27992Y-31614D01*
X27755Y-31614D02*
X27755Y-31377D01*
X27519Y-31377D02*
X27755Y-31614D01*
X23035Y-31755D02*
X22635Y-31755D01*
X22826Y-31755D02*
X22826Y-31526D01*
X23035Y-31526D02*
X22635Y-31526D01*
X22635Y-31393D02*
X23035Y-31259D01*
X22635Y-31126D01*
X28468Y-31794D02*
X28068Y-31794D01*
X28259Y-31794D02*
X28259Y-31565D01*
X28468Y-31565D02*
X28068Y-31565D01*
X28068Y-31432D02*
X28468Y-31299D01*
X28068Y-31165D01*
X52498Y-35056D02*
X52745Y-35056D01*
X52612Y-35247D01*
X52669Y-35247D01*
X52707Y-35270D01*
X52726Y-35294D01*
X52745Y-35342D01*
X52745Y-35461D01*
X52726Y-35509D01*
X52707Y-35532D01*
X52669Y-35556D01*
X52555Y-35556D01*
X52517Y-35532D01*
X52498Y-35509D01*
X52917Y-35509D02*
X52936Y-35532D01*
X52917Y-35556D01*
X52898Y-35532D01*
X52917Y-35509D01*
X52917Y-35556D01*
X53069Y-35056D02*
X53317Y-35056D01*
X53183Y-35247D01*
X53240Y-35247D01*
X53279Y-35270D01*
X53298Y-35294D01*
X53317Y-35342D01*
X53317Y-35461D01*
X53298Y-35509D01*
X53279Y-35532D01*
X53240Y-35556D01*
X53126Y-35556D01*
X53088Y-35532D01*
X53069Y-35509D01*
X53431Y-35056D02*
X53564Y-35556D01*
X53698Y-35056D01*
X39919Y-33855D02*
X40166Y-33855D01*
X40033Y-34046D01*
X40090Y-34046D01*
X40128Y-34070D01*
X40147Y-34094D01*
X40166Y-34141D01*
X40166Y-34260D01*
X40147Y-34308D01*
X40128Y-34332D01*
X40090Y-34355D01*
X39976Y-34355D01*
X39938Y-34332D01*
X39919Y-34308D01*
X40338Y-34308D02*
X40357Y-34332D01*
X40338Y-34355D01*
X40319Y-34332D01*
X40338Y-34308D01*
X40338Y-34355D01*
X40490Y-33855D02*
X40738Y-33855D01*
X40605Y-34046D01*
X40662Y-34046D01*
X40700Y-34070D01*
X40719Y-34094D01*
X40738Y-34141D01*
X40738Y-34260D01*
X40719Y-34308D01*
X40700Y-34332D01*
X40662Y-34355D01*
X40547Y-34355D01*
X40509Y-34332D01*
X40490Y-34308D01*
X40852Y-33855D02*
X40986Y-34355D01*
X41119Y-33855D01*
X23738Y-35922D02*
X23872Y-36422D01*
X24005Y-35922D01*
X24138Y-36422D02*
X24138Y-35922D01*
X24234Y-35922D01*
X24291Y-35946D01*
X24329Y-35994D01*
X24348Y-36041D01*
X24367Y-36137D01*
X24367Y-36208D01*
X24348Y-36303D01*
X24329Y-36351D01*
X24291Y-36399D01*
X24234Y-36422D01*
X24138Y-36422D01*
X23423Y-26867D02*
X23557Y-27367D01*
X23690Y-26867D01*
X23804Y-27224D02*
X23995Y-27224D01*
X23766Y-27367D02*
X23900Y-26867D01*
X24033Y-27367D01*
X26092Y-25867D02*
X26054Y-25844D01*
X25996Y-25844D01*
X25939Y-25867D01*
X25901Y-25915D01*
X25882Y-25963D01*
X25863Y-26058D01*
X25863Y-26129D01*
X25882Y-26225D01*
X25901Y-26272D01*
X25939Y-26320D01*
X25996Y-26344D01*
X26035Y-26344D01*
X26092Y-26320D01*
X26111Y-26296D01*
X26111Y-26129D01*
X26035Y-26129D01*
X26282Y-26344D02*
X26282Y-25844D01*
X26511Y-26344D01*
X26511Y-25844D01*
X26701Y-26344D02*
X26701Y-25844D01*
X26796Y-25844D01*
X26854Y-25867D01*
X26892Y-25915D01*
X26911Y-25963D01*
X26930Y-26058D01*
X26930Y-26129D01*
X26911Y-26225D01*
X26892Y-26272D01*
X26854Y-26320D01*
X26796Y-26344D01*
X26701Y-26344D01*
X30245Y-38146D02*
X30226Y-38170D01*
X30168Y-38194D01*
X30130Y-38194D01*
X30073Y-38170D01*
X30035Y-38123D01*
X30016Y-38075D01*
X29997Y-37980D01*
X29997Y-37908D01*
X30016Y-37813D01*
X30035Y-37765D01*
X30073Y-37718D01*
X30130Y-37694D01*
X30168Y-37694D01*
X30226Y-37718D01*
X30245Y-37742D01*
X30473Y-38194D02*
X30435Y-38170D01*
X30416Y-38123D01*
X30416Y-37694D01*
X30626Y-38194D02*
X30626Y-37694D01*
X30664Y-38004D02*
X30778Y-38194D01*
X30778Y-37861D02*
X30626Y-38051D01*
X29959Y-35489D02*
X30187Y-35489D01*
X30073Y-35989D02*
X30073Y-35489D01*
X30321Y-35989D02*
X30321Y-35656D01*
X30321Y-35751D02*
X30340Y-35704D01*
X30359Y-35680D01*
X30397Y-35656D01*
X30435Y-35656D01*
X30568Y-35989D02*
X30568Y-35656D01*
X30568Y-35489D02*
X30549Y-35513D01*
X30568Y-35537D01*
X30587Y-35513D01*
X30568Y-35489D01*
X30568Y-35537D01*
X30930Y-35656D02*
X30930Y-36061D01*
X30911Y-36108D01*
X30892Y-36132D01*
X30854Y-36156D01*
X30797Y-36156D01*
X30759Y-36132D01*
X30930Y-35965D02*
X30892Y-35989D01*
X30816Y-35989D01*
X30778Y-35965D01*
X30759Y-35942D01*
X30740Y-35894D01*
X30740Y-35751D01*
X30759Y-35704D01*
X30778Y-35680D01*
X30816Y-35656D01*
X30892Y-35656D01*
X30930Y-35680D01*
X29997Y-33761D02*
X30054Y-33785D01*
X30149Y-33785D01*
X30187Y-33761D01*
X30206Y-33737D01*
X30226Y-33689D01*
X30226Y-33642D01*
X30206Y-33594D01*
X30187Y-33570D01*
X30149Y-33546D01*
X30073Y-33523D01*
X30035Y-33499D01*
X30016Y-33475D01*
X29997Y-33427D01*
X29997Y-33380D01*
X30016Y-33332D01*
X30035Y-33308D01*
X30073Y-33285D01*
X30168Y-33285D01*
X30226Y-33308D01*
X30397Y-33785D02*
X30397Y-33285D01*
X30492Y-33285D01*
X30549Y-33308D01*
X30587Y-33356D01*
X30606Y-33404D01*
X30626Y-33499D01*
X30626Y-33570D01*
X30606Y-33666D01*
X30587Y-33713D01*
X30549Y-33761D01*
X30492Y-33785D01*
X30397Y-33785D01*
X30245Y-27249D02*
X30111Y-27011D01*
X30016Y-27249D02*
X30016Y-26749D01*
X30168Y-26749D01*
X30206Y-26773D01*
X30226Y-26797D01*
X30245Y-26844D01*
X30245Y-26916D01*
X30226Y-26963D01*
X30206Y-26987D01*
X30168Y-27011D01*
X30016Y-27011D01*
X30416Y-27249D02*
X30416Y-26749D01*
X30511Y-26749D01*
X30568Y-26773D01*
X30606Y-26821D01*
X30626Y-26868D01*
X30645Y-26963D01*
X30645Y-27035D01*
X30626Y-27130D01*
X30606Y-27178D01*
X30568Y-27225D01*
X30511Y-27249D01*
X30416Y-27249D01*
X30987Y-27249D02*
X30987Y-26987D01*
X30968Y-26940D01*
X30930Y-26916D01*
X30854Y-26916D01*
X30816Y-26940D01*
X30987Y-27225D02*
X30949Y-27249D01*
X30854Y-27249D01*
X30816Y-27225D01*
X30797Y-27178D01*
X30797Y-27130D01*
X30816Y-27082D01*
X30854Y-27059D01*
X30949Y-27059D01*
X30987Y-27035D01*
X30092Y-24977D02*
X30168Y-24977D01*
X30206Y-25001D01*
X30245Y-25049D01*
X30264Y-25144D01*
X30264Y-25311D01*
X30245Y-25406D01*
X30206Y-25454D01*
X30168Y-25477D01*
X30092Y-25477D01*
X30054Y-25454D01*
X30016Y-25406D01*
X29997Y-25311D01*
X29997Y-25144D01*
X30016Y-25049D01*
X30054Y-25001D01*
X30092Y-24977D01*
X30606Y-25144D02*
X30606Y-25477D01*
X30435Y-25144D02*
X30435Y-25406D01*
X30454Y-25454D01*
X30492Y-25477D01*
X30549Y-25477D01*
X30587Y-25454D01*
X30606Y-25430D01*
X30740Y-25144D02*
X30892Y-25144D01*
X30797Y-24977D02*
X30797Y-25406D01*
X30816Y-25454D01*
X30854Y-25477D01*
X30892Y-25477D01*
X31006Y-25335D02*
X31197Y-25335D01*
X30968Y-25477D02*
X31102Y-24977D01*
X31235Y-25477D01*
X24915Y-38115D02*
X24915Y-37615D01*
X25068Y-37615D01*
X25106Y-37639D01*
X25125Y-37663D01*
X25144Y-37711D01*
X25144Y-37782D01*
X25125Y-37830D01*
X25106Y-37853D01*
X25068Y-37877D01*
X24915Y-37877D01*
X25372Y-38115D02*
X25334Y-38091D01*
X25315Y-38068D01*
X25296Y-38020D01*
X25296Y-37877D01*
X25315Y-37830D01*
X25334Y-37806D01*
X25372Y-37782D01*
X25429Y-37782D01*
X25468Y-37806D01*
X25487Y-37830D01*
X25506Y-37877D01*
X25506Y-38020D01*
X25487Y-38068D01*
X25468Y-38091D01*
X25429Y-38115D01*
X25372Y-38115D01*
X25639Y-37782D02*
X25715Y-38115D01*
X25791Y-37877D01*
X25868Y-38115D01*
X25944Y-37782D01*
X26249Y-38091D02*
X26210Y-38115D01*
X26134Y-38115D01*
X26096Y-38091D01*
X26077Y-38044D01*
X26077Y-37853D01*
X26096Y-37806D01*
X26134Y-37782D01*
X26210Y-37782D01*
X26249Y-37806D01*
X26268Y-37853D01*
X26268Y-37901D01*
X26077Y-37949D01*
X26439Y-38115D02*
X26439Y-37782D01*
X26439Y-37877D02*
X26458Y-37830D01*
X26477Y-37806D01*
X26515Y-37782D01*
X26553Y-37782D01*
X27049Y-38115D02*
X27010Y-38091D01*
X26991Y-38068D01*
X26972Y-38020D01*
X26972Y-37877D01*
X26991Y-37830D01*
X27010Y-37806D01*
X27049Y-37782D01*
X27106Y-37782D01*
X27144Y-37806D01*
X27163Y-37830D01*
X27182Y-37877D01*
X27182Y-38020D01*
X27163Y-38068D01*
X27144Y-38091D01*
X27106Y-38115D01*
X27049Y-38115D01*
X27353Y-37782D02*
X27353Y-38115D01*
X27353Y-37830D02*
X27372Y-37806D01*
X27410Y-37782D01*
X27468Y-37782D01*
X27506Y-37806D01*
X27525Y-37853D01*
X27525Y-38115D01*
G54D13*
X49530Y-35459D02*
X49530Y-35697D01*
X49230Y-35697D01*
X49373Y-35292D02*
X49373Y-35125D01*
X49530Y-35054D02*
X49530Y-35292D01*
X49230Y-35292D01*
X49230Y-35054D01*
X49530Y-34840D02*
X49230Y-34840D01*
X49230Y-34721D01*
X49245Y-34649D01*
X49273Y-34602D01*
X49302Y-34578D01*
X49359Y-34554D01*
X49402Y-34554D01*
X49459Y-34578D01*
X49488Y-34602D01*
X49516Y-34649D01*
X49530Y-34721D01*
X49530Y-34840D01*
X41803Y-38208D02*
X41922Y-38408D01*
X42041Y-38208D01*
X42208Y-38137D02*
X42232Y-38123D01*
X42279Y-38108D01*
X42398Y-38108D01*
X42446Y-38123D01*
X42470Y-38137D01*
X42494Y-38165D01*
X42494Y-38194D01*
X42470Y-38237D01*
X42184Y-38408D01*
X42494Y-38408D01*
X42708Y-38380D02*
X42732Y-38394D01*
X42708Y-38408D01*
X42684Y-38394D01*
X42708Y-38380D01*
X42708Y-38408D01*
X43208Y-38408D02*
X42922Y-38408D01*
X43065Y-38408D02*
X43065Y-38108D01*
X43017Y-38151D01*
X42970Y-38180D01*
X42922Y-38194D01*
X43803Y-38294D02*
X44184Y-38294D01*
X44970Y-38251D02*
X44803Y-38251D01*
X44803Y-38408D02*
X44803Y-38108D01*
X45041Y-38108D01*
X45232Y-38380D02*
X45256Y-38394D01*
X45232Y-38408D01*
X45208Y-38394D01*
X45232Y-38380D01*
X45232Y-38408D01*
X45851Y-38408D02*
X45851Y-38108D01*
X46017Y-38323D01*
X46184Y-38108D01*
X46184Y-38408D01*
X46613Y-38394D02*
X46565Y-38408D01*
X46470Y-38408D01*
X46422Y-38394D01*
X46398Y-38365D01*
X46398Y-38251D01*
X46422Y-38223D01*
X46470Y-38208D01*
X46565Y-38208D01*
X46613Y-38223D01*
X46637Y-38251D01*
X46637Y-38280D01*
X46398Y-38308D01*
X46851Y-38408D02*
X46851Y-38208D01*
X46851Y-38108D02*
X46827Y-38123D01*
X46851Y-38137D01*
X46875Y-38123D01*
X46851Y-38108D01*
X46851Y-38137D01*
X47279Y-38394D02*
X47232Y-38408D01*
X47137Y-38408D01*
X47089Y-38394D01*
X47065Y-38365D01*
X47065Y-38251D01*
X47089Y-38223D01*
X47137Y-38208D01*
X47232Y-38208D01*
X47279Y-38223D01*
X47303Y-38251D01*
X47303Y-38280D01*
X47065Y-38308D01*
X47517Y-38408D02*
X47517Y-38208D01*
X47517Y-38265D02*
X47541Y-38237D01*
X47565Y-38223D01*
X47613Y-38208D01*
X47660Y-38208D01*
X47851Y-38394D02*
X47851Y-38408D01*
X47827Y-38437D01*
X47803Y-38451D01*
X48446Y-38408D02*
X48446Y-38108D01*
X48613Y-38323D01*
X48779Y-38108D01*
X48779Y-38408D01*
X49232Y-38408D02*
X49232Y-38251D01*
X49208Y-38223D01*
X49160Y-38208D01*
X49065Y-38208D01*
X49017Y-38223D01*
X49232Y-38394D02*
X49184Y-38408D01*
X49065Y-38408D01*
X49017Y-38394D01*
X48994Y-38365D01*
X48994Y-38337D01*
X49017Y-38308D01*
X49065Y-38294D01*
X49184Y-38294D01*
X49232Y-38280D01*
X49422Y-38208D02*
X49541Y-38408D01*
X49660Y-38208D02*
X49541Y-38408D01*
X49494Y-38480D01*
X49470Y-38494D01*
X49422Y-38508D01*
X50208Y-38137D02*
X50232Y-38123D01*
X50279Y-38108D01*
X50398Y-38108D01*
X50446Y-38123D01*
X50470Y-38137D01*
X50494Y-38165D01*
X50494Y-38194D01*
X50470Y-38237D01*
X50184Y-38408D01*
X50494Y-38408D01*
X50803Y-38108D02*
X50851Y-38108D01*
X50898Y-38123D01*
X50922Y-38137D01*
X50946Y-38165D01*
X50970Y-38223D01*
X50970Y-38294D01*
X50946Y-38351D01*
X50922Y-38380D01*
X50898Y-38394D01*
X50851Y-38408D01*
X50803Y-38408D01*
X50756Y-38394D01*
X50732Y-38380D01*
X50708Y-38351D01*
X50684Y-38294D01*
X50684Y-38223D01*
X50708Y-38165D01*
X50732Y-38137D01*
X50756Y-38123D01*
X50803Y-38108D01*
X51446Y-38408D02*
X51160Y-38408D01*
X51303Y-38408D02*
X51303Y-38108D01*
X51256Y-38151D01*
X51208Y-38180D01*
X51160Y-38194D01*
X51875Y-38208D02*
X51875Y-38408D01*
X51756Y-38094D02*
X51637Y-38308D01*
X51946Y-38308D01*
X41752Y-37518D02*
X41752Y-37761D01*
X41776Y-37789D01*
X41800Y-37803D01*
X41848Y-37818D01*
X41943Y-37818D01*
X41991Y-37803D01*
X42014Y-37789D01*
X42038Y-37761D01*
X42038Y-37518D01*
X42276Y-37618D02*
X42276Y-37818D01*
X42276Y-37646D02*
X42300Y-37632D01*
X42348Y-37618D01*
X42419Y-37618D01*
X42467Y-37632D01*
X42491Y-37661D01*
X42491Y-37818D01*
X42729Y-37818D02*
X42729Y-37618D01*
X42729Y-37518D02*
X42705Y-37532D01*
X42729Y-37546D01*
X42752Y-37532D01*
X42729Y-37518D01*
X42729Y-37546D01*
X42919Y-37618D02*
X43038Y-37818D01*
X43157Y-37618D01*
X43538Y-37803D02*
X43491Y-37818D01*
X43395Y-37818D01*
X43348Y-37803D01*
X43324Y-37775D01*
X43324Y-37661D01*
X43348Y-37632D01*
X43395Y-37618D01*
X43491Y-37618D01*
X43538Y-37632D01*
X43562Y-37661D01*
X43562Y-37689D01*
X43324Y-37718D01*
X43776Y-37818D02*
X43776Y-37618D01*
X43776Y-37675D02*
X43800Y-37646D01*
X43824Y-37632D01*
X43871Y-37618D01*
X43919Y-37618D01*
X44062Y-37803D02*
X44110Y-37818D01*
X44205Y-37818D01*
X44252Y-37803D01*
X44276Y-37775D01*
X44276Y-37761D01*
X44252Y-37732D01*
X44205Y-37718D01*
X44133Y-37718D01*
X44086Y-37703D01*
X44062Y-37675D01*
X44062Y-37661D01*
X44086Y-37632D01*
X44133Y-37618D01*
X44205Y-37618D01*
X44252Y-37632D01*
X44491Y-37818D02*
X44491Y-37618D01*
X44491Y-37518D02*
X44467Y-37532D01*
X44491Y-37546D01*
X44514Y-37532D01*
X44491Y-37518D01*
X44491Y-37546D01*
X44657Y-37618D02*
X44848Y-37618D01*
X44729Y-37518D02*
X44729Y-37775D01*
X44752Y-37803D01*
X44800Y-37818D01*
X44848Y-37818D01*
X44967Y-37618D02*
X45086Y-37818D01*
X45205Y-37618D02*
X45086Y-37818D01*
X45038Y-37889D01*
X45014Y-37903D01*
X44967Y-37918D01*
X45848Y-37818D02*
X45800Y-37803D01*
X45776Y-37789D01*
X45752Y-37761D01*
X45752Y-37675D01*
X45776Y-37646D01*
X45800Y-37632D01*
X45848Y-37618D01*
X45919Y-37618D01*
X45967Y-37632D01*
X45991Y-37646D01*
X46014Y-37675D01*
X46014Y-37761D01*
X45991Y-37789D01*
X45967Y-37803D01*
X45919Y-37818D01*
X45848Y-37818D01*
X46157Y-37618D02*
X46348Y-37618D01*
X46229Y-37818D02*
X46229Y-37561D01*
X46252Y-37532D01*
X46300Y-37518D01*
X46348Y-37518D01*
X46895Y-37818D02*
X46895Y-37518D01*
X47181Y-37818D01*
X47181Y-37518D01*
X47610Y-37803D02*
X47562Y-37818D01*
X47467Y-37818D01*
X47419Y-37803D01*
X47395Y-37775D01*
X47395Y-37661D01*
X47419Y-37632D01*
X47467Y-37618D01*
X47562Y-37618D01*
X47610Y-37632D01*
X47633Y-37661D01*
X47633Y-37689D01*
X47395Y-37718D01*
X47848Y-37818D02*
X47848Y-37518D01*
X47848Y-37632D02*
X47895Y-37618D01*
X47991Y-37618D01*
X48038Y-37632D01*
X48062Y-37646D01*
X48086Y-37675D01*
X48086Y-37761D01*
X48062Y-37789D01*
X48038Y-37803D01*
X47991Y-37818D01*
X47895Y-37818D01*
X47848Y-37803D01*
X48300Y-37818D02*
X48300Y-37618D01*
X48300Y-37675D02*
X48324Y-37646D01*
X48348Y-37632D01*
X48395Y-37618D01*
X48443Y-37618D01*
X48824Y-37818D02*
X48824Y-37661D01*
X48800Y-37632D01*
X48752Y-37618D01*
X48657Y-37618D01*
X48610Y-37632D01*
X48824Y-37803D02*
X48776Y-37818D01*
X48657Y-37818D01*
X48610Y-37803D01*
X48586Y-37775D01*
X48586Y-37746D01*
X48610Y-37718D01*
X48657Y-37703D01*
X48776Y-37703D01*
X48824Y-37689D01*
X49038Y-37803D02*
X49086Y-37818D01*
X49181Y-37818D01*
X49229Y-37803D01*
X49252Y-37775D01*
X49252Y-37761D01*
X49229Y-37732D01*
X49181Y-37718D01*
X49110Y-37718D01*
X49062Y-37703D01*
X49038Y-37675D01*
X49038Y-37661D01*
X49062Y-37632D01*
X49110Y-37618D01*
X49181Y-37618D01*
X49229Y-37632D01*
X49467Y-37818D02*
X49467Y-37518D01*
X49514Y-37703D02*
X49657Y-37818D01*
X49657Y-37618D02*
X49467Y-37732D01*
X50086Y-37818D02*
X50086Y-37661D01*
X50062Y-37632D01*
X50014Y-37618D01*
X49919Y-37618D01*
X49871Y-37632D01*
X50086Y-37803D02*
X50038Y-37818D01*
X49919Y-37818D01*
X49871Y-37803D01*
X49848Y-37775D01*
X49848Y-37746D01*
X49871Y-37718D01*
X49919Y-37703D01*
X50038Y-37703D01*
X50086Y-37689D01*
X50324Y-37703D02*
X50705Y-37703D01*
X51181Y-37818D02*
X50943Y-37818D01*
X50943Y-37518D01*
X51348Y-37818D02*
X51348Y-37618D01*
X51348Y-37518D02*
X51324Y-37532D01*
X51348Y-37546D01*
X51371Y-37532D01*
X51348Y-37518D01*
X51348Y-37546D01*
X51586Y-37618D02*
X51586Y-37818D01*
X51586Y-37646D02*
X51610Y-37632D01*
X51657Y-37618D01*
X51729Y-37618D01*
X51776Y-37632D01*
X51800Y-37661D01*
X51800Y-37818D01*
X52252Y-37803D02*
X52205Y-37818D01*
X52110Y-37818D01*
X52062Y-37803D01*
X52038Y-37789D01*
X52014Y-37761D01*
X52014Y-37675D01*
X52038Y-37646D01*
X52062Y-37632D01*
X52110Y-37618D01*
X52205Y-37618D01*
X52252Y-37632D01*
X52538Y-37818D02*
X52491Y-37803D01*
X52467Y-37789D01*
X52443Y-37761D01*
X52443Y-37675D01*
X52467Y-37646D01*
X52491Y-37632D01*
X52538Y-37618D01*
X52610Y-37618D01*
X52657Y-37632D01*
X52681Y-37646D01*
X52705Y-37675D01*
X52705Y-37761D01*
X52681Y-37789D01*
X52657Y-37803D01*
X52610Y-37818D01*
X52538Y-37818D01*
X52991Y-37818D02*
X52943Y-37803D01*
X52919Y-37775D01*
X52919Y-37518D01*
X53181Y-37618D02*
X53181Y-37818D01*
X53181Y-37646D02*
X53205Y-37632D01*
X53252Y-37618D01*
X53324Y-37618D01*
X53371Y-37632D01*
X53395Y-37661D01*
X53395Y-37818D01*
G54D12*
X42083Y-36937D02*
X41821Y-36937D01*
X41821Y-37246D02*
X41821Y-36656D01*
X42196Y-36656D01*
X42496Y-37246D02*
X42496Y-36656D01*
X42796Y-36656D01*
X42871Y-36684D01*
X42908Y-36712D01*
X42946Y-36768D01*
X42946Y-36853D01*
X42908Y-36909D01*
X42871Y-36937D01*
X42796Y-36965D01*
X42496Y-36965D01*
X43283Y-37246D02*
X43283Y-36853D01*
X43283Y-36656D02*
X43246Y-36684D01*
X43283Y-36712D01*
X43321Y-36684D01*
X43283Y-36656D01*
X43283Y-36712D01*
X43583Y-37246D02*
X43996Y-36853D01*
X43583Y-36853D02*
X43996Y-37246D01*
X44783Y-36853D02*
X45083Y-36853D01*
X44895Y-36656D02*
X44895Y-37162D01*
X44933Y-37218D01*
X45008Y-37246D01*
X45083Y-37246D01*
X45458Y-37246D02*
X45383Y-37218D01*
X45345Y-37190D01*
X45308Y-37134D01*
X45308Y-36965D01*
X45345Y-36909D01*
X45383Y-36881D01*
X45458Y-36853D01*
X45570Y-36853D01*
X45645Y-36881D01*
X45683Y-36909D01*
X45720Y-36965D01*
X45720Y-37134D01*
X45683Y-37190D01*
X45645Y-37218D01*
X45570Y-37246D01*
X45458Y-37246D01*
X46658Y-37246D02*
X46658Y-36656D01*
X46845Y-36656D01*
X46958Y-36684D01*
X47033Y-36740D01*
X47070Y-36796D01*
X47108Y-36909D01*
X47108Y-36993D01*
X47070Y-37106D01*
X47033Y-37162D01*
X46958Y-37218D01*
X46845Y-37246D01*
X46658Y-37246D01*
X47333Y-36656D02*
X47783Y-36656D01*
X47558Y-37246D02*
X47558Y-36656D01*
X48308Y-36937D02*
X48420Y-36965D01*
X48458Y-36993D01*
X48495Y-37050D01*
X48495Y-37134D01*
X48458Y-37190D01*
X48420Y-37218D01*
X48345Y-37246D01*
X48045Y-37246D01*
X48045Y-36656D01*
X48308Y-36656D01*
X48383Y-36684D01*
X48420Y-36712D01*
X48458Y-36768D01*
X48458Y-36825D01*
X48420Y-36881D01*
X48383Y-36909D01*
X48308Y-36937D01*
X48045Y-36937D01*
X49770Y-37246D02*
X49770Y-36937D01*
X49732Y-36881D01*
X49657Y-36853D01*
X49507Y-36853D01*
X49432Y-36881D01*
X49770Y-37218D02*
X49695Y-37246D01*
X49507Y-37246D01*
X49432Y-37218D01*
X49395Y-37162D01*
X49395Y-37106D01*
X49432Y-37050D01*
X49507Y-37021D01*
X49695Y-37021D01*
X49770Y-36993D01*
X50482Y-37246D02*
X50482Y-36656D01*
X50482Y-37218D02*
X50407Y-37246D01*
X50257Y-37246D01*
X50182Y-37218D01*
X50145Y-37190D01*
X50107Y-37134D01*
X50107Y-36965D01*
X50145Y-36909D01*
X50182Y-36881D01*
X50257Y-36853D01*
X50407Y-36853D01*
X50482Y-36881D01*
X51195Y-37246D02*
X51195Y-36937D01*
X51157Y-36881D01*
X51082Y-36853D01*
X50932Y-36853D01*
X50857Y-36881D01*
X51195Y-37218D02*
X51120Y-37246D01*
X50932Y-37246D01*
X50857Y-37218D01*
X50820Y-37162D01*
X50820Y-37106D01*
X50857Y-37050D01*
X50932Y-37021D01*
X51120Y-37021D01*
X51195Y-36993D01*
X51570Y-36853D02*
X51570Y-37443D01*
X51570Y-36881D02*
X51645Y-36853D01*
X51795Y-36853D01*
X51870Y-36881D01*
X51907Y-36909D01*
X51945Y-36965D01*
X51945Y-37134D01*
X51907Y-37190D01*
X51870Y-37218D01*
X51795Y-37246D01*
X51645Y-37246D01*
X51570Y-37218D01*
X52170Y-36853D02*
X52470Y-36853D01*
X52282Y-36656D02*
X52282Y-37162D01*
X52320Y-37218D01*
X52395Y-37246D01*
X52470Y-37246D01*
X53032Y-37218D02*
X52957Y-37246D01*
X52807Y-37246D01*
X52732Y-37218D01*
X52694Y-37162D01*
X52694Y-36937D01*
X52732Y-36881D01*
X52807Y-36853D01*
X52957Y-36853D01*
X53032Y-36881D01*
X53069Y-36937D01*
X53069Y-36993D01*
X52694Y-37050D01*
X53407Y-37246D02*
X53407Y-36853D01*
X53407Y-36965D02*
X53444Y-36909D01*
X53482Y-36881D01*
X53557Y-36853D01*
X53632Y-36853D01*
G54D15*
X54150Y-35000D02*
X56150Y-35000D01*
X56150Y-35000D02*
X56150Y-36800D01*
X56150Y-36800D02*
X54150Y-36800D01*
X54150Y-36800D02*
X54150Y-35000D01*
X54150Y-35600D02*
X54350Y-35600D01*
X54350Y-35600D02*
X54350Y-36100D01*
X54350Y-36100D02*
X54150Y-36100D01*
G54D10*
X27322Y-32047D02*
X27322Y-31889D01*
X27322Y-32519D02*
X27322Y-32362D01*
X27322Y-32992D02*
X27322Y-32834D01*
X27322Y-33464D02*
X27322Y-33307D01*
X27322Y-33937D02*
X27322Y-33779D01*
X27322Y-34527D02*
X27322Y-34251D01*
X27322Y-28740D02*
X27322Y-28464D01*
X27322Y-29212D02*
X27322Y-29055D01*
X27322Y-29685D02*
X27322Y-29527D01*
X27322Y-34527D02*
X27125Y-34527D01*
X27322Y-28464D02*
X27125Y-28464D01*
X27322Y-30157D02*
X27322Y-30000D01*
X27322Y-30629D02*
X27322Y-30472D01*
X27322Y-31102D02*
X27322Y-30944D01*
X27322Y-31574D02*
X27322Y-31417D01*
X23306Y-29646D02*
G75*
G03X23268Y-31339I827J-865D01*
G74*
G01*
X23307Y-33385D02*
G75*
G03X23307Y-31338I-1023J1023D01*
G74*
G01*
X25925Y-29118D02*
X24940Y-29118D01*
X24940Y-29122D02*
X24940Y-29413D01*
X24673Y-29413D02*
X24944Y-29413D01*
X24645Y-29425D02*
X24070Y-29618D01*
X24066Y-29618D02*
X23342Y-29618D01*
X24645Y-33566D02*
X24070Y-33374D01*
X24070Y-33374D02*
X23346Y-33374D01*
X24944Y-33870D02*
X24944Y-33578D01*
X24673Y-33578D02*
X24944Y-33578D01*
X24940Y-33874D02*
X25925Y-33874D01*
X25933Y-33874D02*
X25933Y-29122D01*
X26791Y-34507D02*
X26791Y-28464D01*
X26791Y-28464D02*
X24389Y-28464D01*
X24389Y-28464D02*
X24389Y-34507D01*
X24389Y-34507D02*
X26791Y-34507D01*
G54D15*
X37750Y-35600D02*
X37750Y-34700D01*
X37750Y-34700D02*
X38250Y-34700D01*
X38250Y-34700D02*
X38250Y-35600D01*
X38250Y-35600D02*
X37750Y-35600D01*
X38520Y-34423D02*
X37620Y-34423D01*
X37620Y-34423D02*
X37620Y-33923D01*
X37620Y-33923D02*
X38520Y-33923D01*
X38520Y-33923D02*
X38520Y-34423D01*
X53810Y-33940D02*
X52910Y-33940D01*
X52910Y-33940D02*
X52910Y-33440D01*
X52910Y-33440D02*
X53810Y-33440D01*
X53810Y-33440D02*
X53810Y-33940D01*
X53810Y-34740D02*
X52910Y-34740D01*
X52910Y-34740D02*
X52910Y-34240D01*
X52910Y-34240D02*
X53810Y-34240D01*
X53810Y-34240D02*
X53810Y-34740D01*
X36361Y-33923D02*
X37261Y-33923D01*
X37261Y-33923D02*
X37261Y-34423D01*
X37261Y-34423D02*
X36361Y-34423D01*
X36361Y-34423D02*
X36361Y-33923D01*
X39290Y-35600D02*
X39290Y-34700D01*
X39290Y-34700D02*
X39790Y-34700D01*
X39790Y-34700D02*
X39790Y-35600D01*
X39790Y-35600D02*
X39290Y-35600D01*
X37120Y-35930D02*
X37120Y-36830D01*
X37120Y-36830D02*
X36620Y-36830D01*
X36620Y-36830D02*
X36620Y-35930D01*
X36620Y-35930D02*
X37120Y-35930D01*
X39780Y-35930D02*
X39780Y-36830D01*
X39780Y-36830D02*
X39280Y-36830D01*
X39280Y-36830D02*
X39280Y-35930D01*
X39280Y-35930D02*
X39780Y-35930D01*
X36620Y-35610D02*
X36620Y-34710D01*
X36620Y-34710D02*
X37120Y-34710D01*
X37120Y-34710D02*
X37120Y-35610D01*
X37120Y-35610D02*
X36620Y-35610D01*
X23950Y-37040D02*
X24850Y-37040D01*
X24850Y-37040D02*
X24850Y-37540D01*
X24850Y-37540D02*
X23950Y-37540D01*
X23950Y-37540D02*
X23950Y-37040D01*
G54D16*
X33850Y-37825D02*
X33850Y-37625D01*
X33850Y-37625D02*
X33550Y-37625D01*
X33550Y-37625D02*
X33550Y-37825D01*
X33850Y-38025D02*
X33850Y-38225D01*
X33850Y-38225D02*
X33550Y-38225D01*
X33550Y-38225D02*
X33550Y-38025D01*
X33850Y-25125D02*
X33850Y-24925D01*
X33850Y-24925D02*
X33550Y-24925D01*
X33550Y-24925D02*
X33550Y-25125D01*
X33850Y-25325D02*
X33850Y-25525D01*
X33850Y-25525D02*
X33550Y-25525D01*
X33550Y-25525D02*
X33550Y-25325D01*
X33800Y-26900D02*
X33800Y-26700D01*
X33800Y-26700D02*
X33500Y-26700D01*
X33500Y-26700D02*
X33500Y-26900D01*
X33800Y-27100D02*
X33800Y-27300D01*
X33800Y-27300D02*
X33500Y-27300D01*
X33500Y-27300D02*
X33500Y-27100D01*
X33800Y-33500D02*
X33800Y-33300D01*
X33800Y-33300D02*
X33500Y-33300D01*
X33500Y-33300D02*
X33500Y-33500D01*
X33800Y-33700D02*
X33800Y-33900D01*
X33800Y-33900D02*
X33500Y-33900D01*
X33500Y-33900D02*
X33500Y-33700D01*
X33850Y-35600D02*
X33850Y-35400D01*
X33850Y-35400D02*
X33550Y-35400D01*
X33550Y-35400D02*
X33550Y-35600D01*
X33850Y-35800D02*
X33850Y-36000D01*
X33850Y-36000D02*
X33550Y-36000D01*
X33550Y-36000D02*
X33550Y-35800D01*
X33200Y-25125D02*
X33400Y-25125D01*
X33400Y-25125D02*
X33400Y-24825D01*
X33400Y-24825D02*
X33200Y-24825D01*
X33000Y-25125D02*
X32800Y-25125D01*
X32800Y-25125D02*
X32800Y-24825D01*
X32800Y-24825D02*
X33000Y-24825D01*
X32650Y-33500D02*
X32650Y-33300D01*
X32650Y-33300D02*
X32350Y-33300D01*
X32350Y-33300D02*
X32350Y-33500D01*
X32650Y-33700D02*
X32650Y-33900D01*
X32650Y-33900D02*
X32350Y-33900D01*
X32350Y-33900D02*
X32350Y-33700D01*
X33200Y-25625D02*
X33400Y-25625D01*
X33400Y-25625D02*
X33400Y-25325D01*
X33400Y-25325D02*
X33200Y-25325D01*
X33000Y-25625D02*
X32800Y-25625D01*
X32800Y-25625D02*
X32800Y-25325D01*
X32800Y-25325D02*
X33000Y-25325D01*
X32650Y-25125D02*
X32650Y-24925D01*
X32650Y-24925D02*
X32350Y-24925D01*
X32350Y-24925D02*
X32350Y-25125D01*
X32650Y-25325D02*
X32650Y-25525D01*
X32650Y-25525D02*
X32350Y-25525D01*
X32350Y-25525D02*
X32350Y-25325D01*
X33175Y-26900D02*
X33375Y-26900D01*
X33375Y-26900D02*
X33375Y-26600D01*
X33375Y-26600D02*
X33175Y-26600D01*
X32975Y-26900D02*
X32775Y-26900D01*
X32775Y-26900D02*
X32775Y-26600D01*
X32775Y-26600D02*
X32975Y-26600D01*
X32650Y-26900D02*
X32650Y-26700D01*
X32650Y-26700D02*
X32350Y-26700D01*
X32350Y-26700D02*
X32350Y-26900D01*
X32650Y-27100D02*
X32650Y-27300D01*
X32650Y-27300D02*
X32350Y-27300D01*
X32350Y-27300D02*
X32350Y-27100D01*
X33175Y-27400D02*
X33375Y-27400D01*
X33375Y-27400D02*
X33375Y-27100D01*
X33375Y-27100D02*
X33175Y-27100D01*
X32975Y-27400D02*
X32775Y-27400D01*
X32775Y-27400D02*
X32775Y-27100D01*
X32775Y-27100D02*
X32975Y-27100D01*
X33175Y-33500D02*
X33375Y-33500D01*
X33375Y-33500D02*
X33375Y-33200D01*
X33375Y-33200D02*
X33175Y-33200D01*
X32975Y-33500D02*
X32775Y-33500D01*
X32775Y-33500D02*
X32775Y-33200D01*
X32775Y-33200D02*
X32975Y-33200D01*
X33175Y-34000D02*
X33375Y-34000D01*
X33375Y-34000D02*
X33375Y-33700D01*
X33375Y-33700D02*
X33175Y-33700D01*
X32975Y-34000D02*
X32775Y-34000D01*
X32775Y-34000D02*
X32775Y-33700D01*
X32775Y-33700D02*
X32975Y-33700D01*
X33200Y-35600D02*
X33400Y-35600D01*
X33400Y-35600D02*
X33400Y-35300D01*
X33400Y-35300D02*
X33200Y-35300D01*
X33000Y-35600D02*
X32800Y-35600D01*
X32800Y-35600D02*
X32800Y-35300D01*
X32800Y-35300D02*
X33000Y-35300D01*
X32650Y-35600D02*
X32650Y-35400D01*
X32650Y-35400D02*
X32350Y-35400D01*
X32350Y-35400D02*
X32350Y-35600D01*
X32650Y-35800D02*
X32650Y-36000D01*
X32650Y-36000D02*
X32350Y-36000D01*
X32350Y-36000D02*
X32350Y-35800D01*
X33200Y-36100D02*
X33400Y-36100D01*
X33400Y-36100D02*
X33400Y-35800D01*
X33400Y-35800D02*
X33200Y-35800D01*
X33000Y-36100D02*
X32800Y-36100D01*
X32800Y-36100D02*
X32800Y-35800D01*
X32800Y-35800D02*
X33000Y-35800D01*
X33200Y-37825D02*
X33400Y-37825D01*
X33400Y-37825D02*
X33400Y-37525D01*
X33400Y-37525D02*
X33200Y-37525D01*
X33000Y-37825D02*
X32800Y-37825D01*
X32800Y-37825D02*
X32800Y-37525D01*
X32800Y-37525D02*
X33000Y-37525D01*
X32350Y-38025D02*
X32350Y-38225D01*
X32350Y-38225D02*
X32650Y-38225D01*
X32650Y-38225D02*
X32650Y-38025D01*
X32350Y-37825D02*
X32350Y-37625D01*
X32350Y-37625D02*
X32650Y-37625D01*
X32650Y-37625D02*
X32650Y-37825D01*
X33200Y-38325D02*
X33400Y-38325D01*
X33400Y-38325D02*
X33400Y-38025D01*
X33400Y-38025D02*
X33200Y-38025D01*
X33000Y-38325D02*
X32800Y-38325D01*
X32800Y-38325D02*
X32800Y-38025D01*
X32800Y-38025D02*
X33000Y-38025D01*
G54D10*
X55105Y-30125D02*
G75*
G03X55105Y-30125I-430J0D01*
G74*
G01*
X32305Y-30125D02*
G75*
G03X32305Y-30125I-430J0D01*
G74*
G01*
X34185Y-29040D02*
X34525Y-31210D01*
X52355Y-29030D02*
X52015Y-31210D01*
X34525Y-31215D02*
X52025Y-31215D01*
X34195Y-29035D02*
X52355Y-29035D01*
X33650Y-28750D02*
X32700Y-28750D01*
X32700Y-28750D02*
X32700Y-29450D01*
X32700Y-29450D02*
X33100Y-29450D01*
X33100Y-31500D02*
X33100Y-28750D01*
X33650Y-28750D02*
X33650Y-31500D01*
X33650Y-31500D02*
X32700Y-31500D01*
X32700Y-31500D02*
X32700Y-30800D01*
X33100Y-30800D02*
X32700Y-30800D01*
X52900Y-28750D02*
X53850Y-28750D01*
X52900Y-31500D02*
X53850Y-31500D01*
X52905Y-28740D02*
X52905Y-31490D01*
X53450Y-28750D02*
X53450Y-31490D01*
X53850Y-28750D02*
X53850Y-29450D01*
X53850Y-31500D02*
X53850Y-30800D01*
X53845Y-29440D02*
X53455Y-29450D01*
X53845Y-30800D02*
X53465Y-30800D01*
X53845Y-30800D02*
X53465Y-30800D01*
X53845Y-29440D02*
X53455Y-29450D01*
X53850Y-31500D02*
X53850Y-30800D01*
X53850Y-28750D02*
X53850Y-29450D01*
X53450Y-28750D02*
X53450Y-31490D01*
X52905Y-28740D02*
X52905Y-31490D01*
X52900Y-31500D02*
X53850Y-31500D01*
X52900Y-28750D02*
X53850Y-28750D01*
X55850Y-28095D02*
X55850Y-32155D01*
X30700Y-32155D02*
X30700Y-28095D01*
X30700Y-28095D02*
X55850Y-28095D01*
X30700Y-32155D02*
X55850Y-32155D01*
G54D14*
X49645Y-34160D02*
X50645Y-34160D01*
X50645Y-34160D02*
X50645Y-36160D01*
X50645Y-36160D02*
X49645Y-36160D01*
X49645Y-36160D02*
X49645Y-34160D01*
G54D17*
X26317Y-37113D02*
X26317Y-37467D01*
X26317Y-37467D02*
X26474Y-37467D01*
X26474Y-37113D02*
X26474Y-37467D01*
X26317Y-37113D02*
X26474Y-37113D01*
X25806Y-37113D02*
X25806Y-37467D01*
X25806Y-37467D02*
X25963Y-37467D01*
X25963Y-37113D02*
X25963Y-37467D01*
X25806Y-37113D02*
X25963Y-37113D01*
X26140Y-37113D02*
X26140Y-37172D01*
X26140Y-37172D02*
X26258Y-37172D01*
X26258Y-37113D02*
X26258Y-37172D01*
X26140Y-37113D02*
X26258Y-37113D01*
X26140Y-37408D02*
X26140Y-37467D01*
X26140Y-37467D02*
X26258Y-37467D01*
X26258Y-37408D02*
X26258Y-37467D01*
X26140Y-37408D02*
X26258Y-37408D01*
X26140Y-37231D02*
X26140Y-37349D01*
X26140Y-37349D02*
X26258Y-37349D01*
X26258Y-37231D02*
X26258Y-37349D01*
X26140Y-37231D02*
X26258Y-37231D01*
G54D18*
X26317Y-37133D02*
X25963Y-37133D01*
X26317Y-37447D02*
X25963Y-37447D01*
G54D10*
X58330Y-25196D02*
G75*
G03X58330Y-25196I-850J0D01*
G74*
G01*
X58330Y-37795D02*
G75*
G03X58330Y-37795I-850J0D01*
G74*
G01*
X22109Y-37795D02*
G75*
G03X22109Y-37795I-850J0D01*
G74*
G01*
X22109Y-25196D02*
G75*
G03X22109Y-25196I-850J0D01*
G74*
G01*
G54D19*
G36*
X44708Y-36047D02*
X44650Y-36047D01*
X44650Y-34246D01*
X44650Y-33991D01*
X44648Y-33788D01*
X44638Y-33113D01*
X43531Y-33115D01*
X42424Y-33116D01*
X42658Y-33194D01*
X42802Y-33244D01*
X42946Y-33299D01*
X43049Y-33341D01*
X43138Y-33376D01*
X43195Y-33392D01*
X43208Y-33389D01*
X43227Y-33394D01*
X43273Y-33438D01*
X43275Y-33440D01*
X43339Y-33499D01*
X43386Y-33505D01*
X43440Y-33458D01*
X43450Y-33447D01*
X43518Y-33401D01*
X43609Y-33380D01*
X43696Y-33385D01*
X43755Y-33417D01*
X43763Y-33431D01*
X43768Y-33492D01*
X43729Y-33509D01*
X43671Y-33486D01*
X43596Y-33460D01*
X43551Y-33492D01*
X43541Y-33548D01*
X43573Y-33611D01*
X43658Y-33661D01*
X43740Y-33708D01*
X43790Y-33761D01*
X43794Y-33770D01*
X43842Y-33884D01*
X43895Y-33937D01*
X43897Y-33938D01*
X43935Y-33921D01*
X44005Y-33865D01*
X44096Y-33782D01*
X44137Y-33742D01*
X44250Y-33635D01*
X44326Y-33577D01*
X44370Y-33565D01*
X44378Y-33570D01*
X44379Y-33607D01*
X44336Y-33674D01*
X44245Y-33777D01*
X44210Y-33813D01*
X44119Y-33908D01*
X44049Y-33984D01*
X44011Y-34030D01*
X44008Y-34037D01*
X44026Y-34071D01*
X44073Y-34142D01*
X44128Y-34219D01*
X44196Y-34308D01*
X44240Y-34350D01*
X44273Y-34354D01*
X44306Y-34331D01*
X44368Y-34291D01*
X44421Y-34281D01*
X44441Y-34303D01*
X44420Y-34341D01*
X44375Y-34396D01*
X44309Y-34466D01*
X44424Y-34731D01*
X44484Y-34878D01*
X44538Y-35025D01*
X44577Y-35146D01*
X44581Y-35163D01*
X44599Y-35229D01*
X44611Y-35262D01*
X44620Y-35256D01*
X44627Y-35205D01*
X44633Y-35102D01*
X44639Y-34939D01*
X44641Y-34897D01*
X44646Y-34719D01*
X44649Y-34495D01*
X44650Y-34246D01*
X44650Y-36047D01*
X44649Y-36047D01*
X44649Y-35980D01*
X44625Y-35762D01*
X44600Y-35597D01*
X44561Y-35411D01*
X44510Y-35217D01*
X44453Y-35027D01*
X44392Y-34853D01*
X44334Y-34710D01*
X44280Y-34608D01*
X44241Y-34563D01*
X44199Y-34570D01*
X44160Y-34589D01*
X44160Y-34456D01*
X44152Y-34412D01*
X44108Y-34336D01*
X44073Y-34282D01*
X44007Y-34193D01*
X43954Y-34132D01*
X43928Y-34113D01*
X43890Y-34133D01*
X43831Y-34173D01*
X43831Y-34001D01*
X43828Y-33985D01*
X43794Y-33969D01*
X43733Y-34000D01*
X43717Y-34013D01*
X43621Y-34065D01*
X43526Y-34078D01*
X43450Y-34055D01*
X43410Y-33998D01*
X43408Y-33976D01*
X43415Y-33924D01*
X43446Y-33920D01*
X43504Y-33952D01*
X43583Y-33975D01*
X43647Y-33949D01*
X43674Y-33883D01*
X43674Y-33882D01*
X43641Y-33814D01*
X43541Y-33747D01*
X43461Y-33700D01*
X43413Y-33661D01*
X43408Y-33649D01*
X43381Y-33614D01*
X43353Y-33599D01*
X43325Y-33595D01*
X43311Y-33618D01*
X43309Y-33681D01*
X43318Y-33797D01*
X43320Y-33812D01*
X43329Y-33935D01*
X43329Y-34005D01*
X43315Y-34038D01*
X43287Y-34046D01*
X43280Y-34047D01*
X43242Y-34033D01*
X43214Y-33983D01*
X43191Y-33882D01*
X43187Y-33855D01*
X43155Y-33663D01*
X43058Y-33855D01*
X43004Y-33953D01*
X42959Y-34022D01*
X42934Y-34047D01*
X42906Y-34019D01*
X42861Y-33947D01*
X42816Y-33861D01*
X42765Y-33762D01*
X42735Y-33717D01*
X42716Y-33718D01*
X42703Y-33752D01*
X42686Y-33843D01*
X42677Y-33938D01*
X42660Y-34011D01*
X42626Y-34048D01*
X42592Y-34042D01*
X42574Y-33986D01*
X42574Y-33978D01*
X42580Y-33891D01*
X42594Y-33775D01*
X42615Y-33648D01*
X42637Y-33530D01*
X42659Y-33441D01*
X42675Y-33401D01*
X42703Y-33411D01*
X42748Y-33469D01*
X42786Y-33534D01*
X42842Y-33639D01*
X42894Y-33726D01*
X42916Y-33759D01*
X42946Y-33791D01*
X42972Y-33788D01*
X43008Y-33740D01*
X43052Y-33664D01*
X43101Y-33573D01*
X43133Y-33509D01*
X43141Y-33490D01*
X43113Y-33470D01*
X43039Y-33432D01*
X42936Y-33383D01*
X42928Y-33379D01*
X42682Y-33284D01*
X42402Y-33203D01*
X42124Y-33144D01*
X41986Y-33126D01*
X41774Y-33104D01*
X41774Y-33674D01*
X41774Y-34243D01*
X41899Y-34264D01*
X42159Y-34313D01*
X42370Y-34371D01*
X42551Y-34444D01*
X42719Y-34539D01*
X42774Y-34576D01*
X42864Y-34633D01*
X42933Y-34670D01*
X42958Y-34679D01*
X42997Y-34660D01*
X43077Y-34610D01*
X43185Y-34537D01*
X43279Y-34471D01*
X43485Y-34319D01*
X43640Y-34200D01*
X43746Y-34110D01*
X43808Y-34045D01*
X43831Y-34001D01*
X43831Y-34173D01*
X43815Y-34185D01*
X43716Y-34260D01*
X43678Y-34290D01*
X43545Y-34395D01*
X43403Y-34502D01*
X43281Y-34591D01*
X43274Y-34596D01*
X43177Y-34665D01*
X43100Y-34720D01*
X43063Y-34749D01*
X43062Y-34786D01*
X43087Y-34850D01*
X43123Y-34912D01*
X43156Y-34946D01*
X43160Y-34947D01*
X43195Y-34936D01*
X43277Y-34907D01*
X43391Y-34867D01*
X43440Y-34849D01*
X43679Y-34749D01*
X43924Y-34617D01*
X44139Y-34483D01*
X44160Y-34456D01*
X44160Y-34589D01*
X44125Y-34607D01*
X44085Y-34632D01*
X43904Y-34742D01*
X43690Y-34851D01*
X43473Y-34944D01*
X43416Y-34965D01*
X43320Y-35003D01*
X43256Y-35036D01*
X43241Y-35052D01*
X43254Y-35096D01*
X43287Y-35174D01*
X43298Y-35198D01*
X43342Y-35276D01*
X43386Y-35306D01*
X43455Y-35303D01*
X43464Y-35302D01*
X43657Y-35247D01*
X43856Y-35150D01*
X44034Y-35026D01*
X44123Y-34941D01*
X44212Y-34844D01*
X44268Y-34795D01*
X44297Y-34788D01*
X44307Y-34821D01*
X44308Y-34841D01*
X44278Y-34926D01*
X44196Y-35024D01*
X44074Y-35126D01*
X43922Y-35224D01*
X43753Y-35309D01*
X43599Y-35366D01*
X43407Y-35426D01*
X43428Y-35544D01*
X43449Y-35643D01*
X43477Y-35693D01*
X43527Y-35711D01*
X43594Y-35713D01*
X43764Y-35681D01*
X43919Y-35584D01*
X43972Y-35533D01*
X44033Y-35475D01*
X44076Y-35447D01*
X44080Y-35447D01*
X44108Y-35467D01*
X44093Y-35521D01*
X44039Y-35596D01*
X43999Y-35638D01*
X43839Y-35756D01*
X43669Y-35809D01*
X43605Y-35813D01*
X43535Y-35823D01*
X43510Y-35862D01*
X43508Y-35897D01*
X43508Y-35980D01*
X44078Y-35980D01*
X44649Y-35980D01*
X44649Y-36047D01*
X43408Y-36047D01*
X43408Y-35900D01*
X43384Y-35829D01*
X43371Y-35822D01*
X43371Y-35678D01*
X43366Y-35632D01*
X43362Y-35609D01*
X43347Y-35527D01*
X43341Y-35476D01*
X43310Y-35462D01*
X43274Y-35457D01*
X43274Y-35329D01*
X43261Y-35292D01*
X43228Y-35222D01*
X43189Y-35143D01*
X43153Y-35077D01*
X43132Y-35047D01*
X43092Y-35057D01*
X43040Y-35073D01*
X43040Y-34950D01*
X43021Y-34911D01*
X42991Y-34867D01*
X42964Y-34837D01*
X42933Y-34830D01*
X42883Y-34848D01*
X42839Y-34874D01*
X42839Y-34738D01*
X42839Y-34737D01*
X42813Y-34702D01*
X42740Y-34649D01*
X42637Y-34586D01*
X42518Y-34522D01*
X42398Y-34466D01*
X42347Y-34445D01*
X42204Y-34402D01*
X42044Y-34368D01*
X41971Y-34358D01*
X41774Y-34337D01*
X41774Y-34587D01*
X41774Y-34837D01*
X41933Y-34856D01*
X42066Y-34883D01*
X42206Y-34927D01*
X42241Y-34942D01*
X42333Y-34981D01*
X42398Y-35006D01*
X42414Y-35011D01*
X42452Y-34996D01*
X42530Y-34953D01*
X42631Y-34892D01*
X42638Y-34888D01*
X42737Y-34823D01*
X42809Y-34770D01*
X42839Y-34738D01*
X42839Y-34874D01*
X42801Y-34897D01*
X42726Y-34945D01*
X42626Y-35016D01*
X42555Y-35076D01*
X42527Y-35114D01*
X42528Y-35119D01*
X42570Y-35135D01*
X42603Y-35128D01*
X42663Y-35105D01*
X42762Y-35069D01*
X42849Y-35038D01*
X42950Y-34999D01*
X43019Y-34967D01*
X43040Y-34950D01*
X43040Y-35073D01*
X43011Y-35082D01*
X42911Y-35114D01*
X42813Y-35147D01*
X42739Y-35173D01*
X42731Y-35176D01*
X42669Y-35208D01*
X42659Y-35247D01*
X42674Y-35280D01*
X42699Y-35313D01*
X42741Y-35333D01*
X42815Y-35343D01*
X42935Y-35346D01*
X42992Y-35347D01*
X43120Y-35345D01*
X43217Y-35339D01*
X43269Y-35332D01*
X43274Y-35329D01*
X43274Y-35457D01*
X43229Y-35452D01*
X43112Y-35447D01*
X43074Y-35447D01*
X42929Y-35450D01*
X42843Y-35461D01*
X42809Y-35482D01*
X42808Y-35488D01*
X42825Y-35552D01*
X42880Y-35600D01*
X42984Y-35639D01*
X43077Y-35661D01*
X43220Y-35692D01*
X43309Y-35706D01*
X43356Y-35702D01*
X43371Y-35678D01*
X43371Y-35822D01*
X43333Y-35803D01*
X43250Y-35786D01*
X43144Y-35769D01*
X43037Y-35754D01*
X42951Y-35744D01*
X42908Y-35743D01*
X42900Y-35776D01*
X42903Y-35844D01*
X42915Y-35915D01*
X42929Y-35955D01*
X42968Y-35967D01*
X43055Y-35976D01*
X43171Y-35980D01*
X43176Y-35980D01*
X43297Y-35978D01*
X43367Y-35971D01*
X43398Y-35953D01*
X43407Y-35918D01*
X43408Y-35900D01*
X43408Y-36047D01*
X43224Y-36047D01*
X42850Y-36047D01*
X42850Y-35980D01*
X42830Y-35859D01*
X42813Y-35775D01*
X42796Y-35725D01*
X42794Y-35722D01*
X42754Y-35709D01*
X42740Y-35706D01*
X42740Y-35568D01*
X42715Y-35489D01*
X42647Y-35459D01*
X42608Y-35463D01*
X42608Y-35326D01*
X42589Y-35286D01*
X42530Y-35292D01*
X42474Y-35320D01*
X42474Y-35172D01*
X42456Y-35147D01*
X42404Y-35173D01*
X42353Y-35220D01*
X42353Y-35081D01*
X42204Y-35015D01*
X42079Y-34969D01*
X41949Y-34934D01*
X41914Y-34927D01*
X41774Y-34905D01*
X41774Y-35076D01*
X41776Y-35176D01*
X41789Y-35227D01*
X41822Y-35245D01*
X41866Y-35247D01*
X41953Y-35259D01*
X42008Y-35280D01*
X42067Y-35307D01*
X42122Y-35298D01*
X42191Y-35246D01*
X42240Y-35197D01*
X42353Y-35081D01*
X42353Y-35220D01*
X42323Y-35249D01*
X42322Y-35251D01*
X42224Y-35355D01*
X42349Y-35276D01*
X42424Y-35223D01*
X42469Y-35181D01*
X42474Y-35172D01*
X42474Y-35320D01*
X42427Y-35345D01*
X42420Y-35349D01*
X42342Y-35402D01*
X42310Y-35436D01*
X42326Y-35443D01*
X42366Y-35431D01*
X42443Y-35407D01*
X42516Y-35390D01*
X42582Y-35362D01*
X42608Y-35326D01*
X42608Y-35463D01*
X42588Y-35466D01*
X42473Y-35501D01*
X42403Y-35540D01*
X42389Y-35576D01*
X42389Y-35578D01*
X42431Y-35596D01*
X42509Y-35605D01*
X42602Y-35604D01*
X42685Y-35595D01*
X42735Y-35577D01*
X42740Y-35568D01*
X42740Y-35706D01*
X42671Y-35694D01*
X42621Y-35688D01*
X42464Y-35670D01*
X42486Y-35779D01*
X42501Y-35869D01*
X42507Y-35933D01*
X42508Y-35934D01*
X42530Y-35963D01*
X42604Y-35978D01*
X42679Y-35980D01*
X42850Y-35980D01*
X42850Y-36047D01*
X42416Y-36047D01*
X42416Y-35980D01*
X42394Y-35873D01*
X42367Y-35776D01*
X42325Y-35734D01*
X42268Y-35735D01*
X42268Y-35634D01*
X42263Y-35624D01*
X42223Y-35620D01*
X42219Y-35624D01*
X42223Y-35644D01*
X42241Y-35647D01*
X42268Y-35634D01*
X42268Y-35735D01*
X42249Y-35736D01*
X42199Y-35748D01*
X42104Y-35780D01*
X42063Y-35815D01*
X42065Y-35869D01*
X42077Y-35905D01*
X42106Y-35952D01*
X42159Y-35974D01*
X42257Y-35980D01*
X42261Y-35980D01*
X42416Y-35980D01*
X42416Y-36047D01*
X42008Y-36047D01*
X42008Y-35930D01*
X42007Y-35928D01*
X42007Y-35425D01*
X41978Y-35390D01*
X41908Y-35360D01*
X41819Y-35347D01*
X41816Y-35347D01*
X41792Y-35376D01*
X41778Y-35446D01*
X41773Y-35533D01*
X41780Y-35613D01*
X41798Y-35660D01*
X41830Y-35651D01*
X41883Y-35605D01*
X41941Y-35540D01*
X41988Y-35474D01*
X42007Y-35425D01*
X42007Y-35928D01*
X41981Y-35886D01*
X41958Y-35880D01*
X41912Y-35900D01*
X41920Y-35946D01*
X41930Y-35958D01*
X41979Y-35979D01*
X42006Y-35944D01*
X42008Y-35930D01*
X42008Y-36047D01*
X41808Y-36047D01*
X41808Y-35763D01*
X41791Y-35747D01*
X41774Y-35763D01*
X41791Y-35780D01*
X41808Y-35763D01*
X41808Y-36047D01*
X41741Y-36047D01*
X41741Y-34563D01*
X41741Y-33080D01*
X43224Y-33080D01*
X44708Y-33080D01*
X44708Y-34563D01*
X44708Y-36047D01*
X44708Y-36047D01*
X44708Y-36047D01*
G37*
G36*
X42505Y-33980D02*
X42491Y-34013D01*
X42443Y-34045D01*
X42323Y-34076D01*
X42186Y-34062D01*
X42100Y-34028D01*
X42005Y-33954D01*
X41955Y-33853D01*
X41941Y-33713D01*
X41955Y-33601D01*
X42006Y-33512D01*
X42040Y-33475D01*
X42107Y-33416D01*
X42172Y-33389D01*
X42263Y-33384D01*
X42315Y-33386D01*
X42422Y-33397D01*
X42479Y-33419D01*
X42502Y-33456D01*
X42502Y-33460D01*
X42500Y-33504D01*
X42458Y-33499D01*
X42453Y-33497D01*
X42335Y-33459D01*
X42249Y-33463D01*
X42173Y-33511D01*
X42159Y-33525D01*
X42091Y-33633D01*
X42074Y-33756D01*
X42109Y-33871D01*
X42145Y-33917D01*
X42204Y-33962D01*
X42276Y-33975D01*
X42361Y-33968D01*
X42460Y-33963D01*
X42505Y-33980D01*
X42505Y-33980D01*
X42505Y-33980D01*
G37*
G36*
X48550Y-36047D02*
X48185Y-36046D01*
X48185Y-35980D01*
X48176Y-35688D01*
X48166Y-35397D01*
X48008Y-35386D01*
X47850Y-35376D01*
X47850Y-34528D01*
X47850Y-33680D01*
X48016Y-33680D01*
X48183Y-33680D01*
X48183Y-33397D01*
X48183Y-33113D01*
X47550Y-33113D01*
X46916Y-33113D01*
X46916Y-33397D01*
X46916Y-33680D01*
X47083Y-33680D01*
X47250Y-33680D01*
X47250Y-34151D01*
X47250Y-34622D01*
X46650Y-33868D01*
X46051Y-33113D01*
X45633Y-33113D01*
X45216Y-33113D01*
X45216Y-33397D01*
X45216Y-33680D01*
X45383Y-33680D01*
X45550Y-33680D01*
X45550Y-34547D01*
X45550Y-35413D01*
X45383Y-35413D01*
X45216Y-35413D01*
X45216Y-35697D01*
X45216Y-35980D01*
X45850Y-35980D01*
X46483Y-35980D01*
X46483Y-35697D01*
X46483Y-35413D01*
X46332Y-35413D01*
X46226Y-35404D01*
X46169Y-35377D01*
X46164Y-35370D01*
X46158Y-35321D01*
X46155Y-35221D01*
X46154Y-35081D01*
X46156Y-34918D01*
X46157Y-34897D01*
X46166Y-34468D01*
X46764Y-35224D01*
X47362Y-35980D01*
X47774Y-35980D01*
X48185Y-35980D01*
X48185Y-36046D01*
X47891Y-36046D01*
X47233Y-36045D01*
X47016Y-35760D01*
X46904Y-35613D01*
X46784Y-35457D01*
X46662Y-35301D01*
X46547Y-35154D01*
X46446Y-35027D01*
X46368Y-34930D01*
X46321Y-34873D01*
X46314Y-34865D01*
X46297Y-34877D01*
X46287Y-34949D01*
X46283Y-35073D01*
X46283Y-35313D01*
X46450Y-35313D01*
X46616Y-35313D01*
X46616Y-35680D01*
X46616Y-36047D01*
X45883Y-36047D01*
X45150Y-36047D01*
X45150Y-35680D01*
X45150Y-35313D01*
X45300Y-35313D01*
X45450Y-35313D01*
X45450Y-34547D01*
X45450Y-33780D01*
X45300Y-33780D01*
X45150Y-33780D01*
X45150Y-33413D01*
X45150Y-33047D01*
X45660Y-33047D01*
X46171Y-33047D01*
X46552Y-33529D01*
X46680Y-33692D01*
X46801Y-33846D01*
X46905Y-33979D01*
X46984Y-34081D01*
X47024Y-34134D01*
X47116Y-34257D01*
X47116Y-34019D01*
X47116Y-33780D01*
X46950Y-33780D01*
X46783Y-33780D01*
X46783Y-33413D01*
X46783Y-33047D01*
X47550Y-33047D01*
X48316Y-33047D01*
X48316Y-33413D01*
X48316Y-33780D01*
X48150Y-33780D01*
X47983Y-33780D01*
X47983Y-34547D01*
X47983Y-35313D01*
X48150Y-35313D01*
X48316Y-35313D01*
X48316Y-35573D01*
X48316Y-35833D01*
X48433Y-35819D01*
X48510Y-35815D01*
X48542Y-35836D01*
X48549Y-35903D01*
X48550Y-35926D01*
X48550Y-36047D01*
X48550Y-36047D01*
X48550Y-36047D01*
G37*
G36*
X47950Y-33397D02*
X47920Y-33436D01*
X47852Y-33447D01*
X47796Y-33448D01*
X47752Y-33457D01*
X47717Y-33480D01*
X47691Y-33523D01*
X47673Y-33595D01*
X47661Y-33701D01*
X47654Y-33849D01*
X47651Y-34045D01*
X47650Y-34295D01*
X47650Y-34513D01*
X47650Y-35475D01*
X47736Y-35543D01*
X47816Y-35597D01*
X47886Y-35631D01*
X47946Y-35659D01*
X47944Y-35683D01*
X47884Y-35701D01*
X47771Y-35711D01*
X47672Y-35713D01*
X47395Y-35713D01*
X46681Y-34810D01*
X45966Y-33906D01*
X45957Y-34715D01*
X45955Y-34988D01*
X45955Y-35202D01*
X45960Y-35364D01*
X45971Y-35481D01*
X45990Y-35560D01*
X46018Y-35609D01*
X46056Y-35635D01*
X46106Y-35645D01*
X46155Y-35647D01*
X46223Y-35657D01*
X46250Y-35680D01*
X46217Y-35694D01*
X46126Y-35705D01*
X45984Y-35712D01*
X45850Y-35713D01*
X45674Y-35710D01*
X45544Y-35703D01*
X45467Y-35691D01*
X45450Y-35680D01*
X45478Y-35655D01*
X45541Y-35646D01*
X45607Y-35642D01*
X45659Y-35626D01*
X45700Y-35593D01*
X45731Y-35534D01*
X45753Y-35444D01*
X45768Y-35316D01*
X45777Y-35143D01*
X45781Y-34920D01*
X45783Y-34638D01*
X45783Y-34526D01*
X45783Y-33643D01*
X45702Y-33563D01*
X45620Y-33499D01*
X45536Y-33461D01*
X45472Y-33430D01*
X45450Y-33393D01*
X45465Y-33369D01*
X45518Y-33355D01*
X45620Y-33348D01*
X45725Y-33347D01*
X46000Y-33347D01*
X46698Y-34232D01*
X46865Y-34443D01*
X47021Y-34639D01*
X47159Y-34812D01*
X47276Y-34956D01*
X47365Y-35065D01*
X47422Y-35133D01*
X47440Y-35152D01*
X47454Y-35153D01*
X47464Y-35124D01*
X47472Y-35060D01*
X47478Y-34954D01*
X47481Y-34798D01*
X47482Y-34587D01*
X47482Y-34409D01*
X47481Y-34134D01*
X47478Y-33918D01*
X47471Y-33755D01*
X47458Y-33636D01*
X47438Y-33554D01*
X47409Y-33502D01*
X47370Y-33472D01*
X47318Y-33458D01*
X47274Y-33453D01*
X47181Y-33433D01*
X47150Y-33395D01*
X47150Y-33394D01*
X47161Y-33374D01*
X47202Y-33360D01*
X47282Y-33351D01*
X47412Y-33347D01*
X47550Y-33347D01*
X47722Y-33348D01*
X47838Y-33352D01*
X47908Y-33362D01*
X47942Y-33377D01*
X47950Y-33397D01*
X47950Y-33397D01*
X47950Y-33397D01*
G37*
G54D15*
X38447Y-25891D02*
X39347Y-25891D01*
X39347Y-25891D02*
X39347Y-26391D01*
X39347Y-26391D02*
X38447Y-26391D01*
X38447Y-26391D02*
X38447Y-25891D01*
X54845Y-35132D02*
X54845Y-35496D01*
X54864Y-35539D01*
X54883Y-35560D01*
X54921Y-35582D01*
X54997Y-35582D01*
X55035Y-35560D01*
X55054Y-35539D01*
X55073Y-35496D01*
X55073Y-35132D01*
X55473Y-35582D02*
X55245Y-35582D01*
X55359Y-35582D02*
X55359Y-35132D01*
X55321Y-35196D01*
X55283Y-35239D01*
X55245Y-35260D01*
X54264Y-36200D02*
X54283Y-36180D01*
X54321Y-36161D01*
X54416Y-36161D01*
X54454Y-36180D01*
X54473Y-36200D01*
X54492Y-36238D01*
X54492Y-36276D01*
X54473Y-36333D01*
X54245Y-36561D01*
X54492Y-36561D01*
X54835Y-36295D02*
X54835Y-36561D01*
X54740Y-36142D02*
X54645Y-36428D01*
X54892Y-36428D01*
X55273Y-36523D02*
X55254Y-36542D01*
X55197Y-36561D01*
X55159Y-36561D01*
X55102Y-36542D01*
X55064Y-36504D01*
X55045Y-36466D01*
X55026Y-36390D01*
X55026Y-36333D01*
X55045Y-36257D01*
X55064Y-36219D01*
X55102Y-36180D01*
X55159Y-36161D01*
X55197Y-36161D01*
X55254Y-36180D01*
X55273Y-36200D01*
X55521Y-36161D02*
X55559Y-36161D01*
X55597Y-36180D01*
X55616Y-36200D01*
X55635Y-36238D01*
X55654Y-36314D01*
X55654Y-36409D01*
X55635Y-36485D01*
X55616Y-36523D01*
X55597Y-36542D01*
X55559Y-36561D01*
X55521Y-36561D01*
X55483Y-36542D01*
X55464Y-36523D01*
X55445Y-36485D01*
X55426Y-36409D01*
X55426Y-36314D01*
X55445Y-36238D01*
X55464Y-36200D01*
X55483Y-36180D01*
X55521Y-36161D01*
X55807Y-36200D02*
X55826Y-36180D01*
X55864Y-36161D01*
X55959Y-36161D01*
X55997Y-36180D01*
X56016Y-36200D01*
X56035Y-36238D01*
X56035Y-36276D01*
X56016Y-36333D01*
X55788Y-36561D01*
X56035Y-36561D01*
G54D10*
X24923Y-31603D02*
X25204Y-31603D01*
X25260Y-31622D01*
X25298Y-31659D01*
X25316Y-31716D01*
X25316Y-31753D01*
X24960Y-31434D02*
X24941Y-31416D01*
X24923Y-31378D01*
X24923Y-31284D01*
X24941Y-31247D01*
X24960Y-31228D01*
X24998Y-31209D01*
X25035Y-31209D01*
X25091Y-31228D01*
X25316Y-31453D01*
X25316Y-31209D01*
G54D20*
X38080Y-35265D02*
X37985Y-35325D01*
X38080Y-35368D02*
X37880Y-35368D01*
X37880Y-35300D01*
X37890Y-35282D01*
X37900Y-35274D01*
X37919Y-35265D01*
X37947Y-35265D01*
X37966Y-35274D01*
X37976Y-35282D01*
X37985Y-35300D01*
X37985Y-35368D01*
X37900Y-35197D02*
X37890Y-35188D01*
X37880Y-35171D01*
X37880Y-35128D01*
X37890Y-35111D01*
X37900Y-35102D01*
X37919Y-35094D01*
X37938Y-35094D01*
X37966Y-35102D01*
X38080Y-35205D01*
X38080Y-35094D01*
X37947Y-34940D02*
X38080Y-34940D01*
X37871Y-34982D02*
X38014Y-35025D01*
X38014Y-34914D01*
X38040Y-34235D02*
X38032Y-34244D01*
X38006Y-34254D01*
X37989Y-34254D01*
X37963Y-34244D01*
X37946Y-34225D01*
X37938Y-34206D01*
X37929Y-34168D01*
X37929Y-34139D01*
X37938Y-34101D01*
X37946Y-34082D01*
X37963Y-34063D01*
X37989Y-34054D01*
X38006Y-34054D01*
X38032Y-34063D01*
X38040Y-34073D01*
X38195Y-34120D02*
X38195Y-34254D01*
X38152Y-34044D02*
X38109Y-34187D01*
X38220Y-34187D01*
X53330Y-33751D02*
X53321Y-33761D01*
X53295Y-33770D01*
X53278Y-33770D01*
X53252Y-33761D01*
X53235Y-33742D01*
X53227Y-33723D01*
X53218Y-33685D01*
X53218Y-33656D01*
X53227Y-33618D01*
X53235Y-33599D01*
X53252Y-33580D01*
X53278Y-33570D01*
X53295Y-33570D01*
X53321Y-33580D01*
X53330Y-33590D01*
X53501Y-33770D02*
X53398Y-33770D01*
X53450Y-33770D02*
X53450Y-33570D01*
X53432Y-33599D01*
X53415Y-33618D01*
X53398Y-33628D01*
X53330Y-34551D02*
X53321Y-34561D01*
X53295Y-34570D01*
X53278Y-34570D01*
X53252Y-34561D01*
X53235Y-34542D01*
X53227Y-34523D01*
X53218Y-34485D01*
X53218Y-34456D01*
X53227Y-34418D01*
X53235Y-34399D01*
X53252Y-34380D01*
X53278Y-34370D01*
X53295Y-34370D01*
X53321Y-34380D01*
X53330Y-34390D01*
X53398Y-34390D02*
X53407Y-34380D01*
X53424Y-34370D01*
X53467Y-34370D01*
X53484Y-34380D01*
X53492Y-34390D01*
X53501Y-34409D01*
X53501Y-34428D01*
X53492Y-34456D01*
X53390Y-34570D01*
X53501Y-34570D01*
X36781Y-34235D02*
X36772Y-34244D01*
X36746Y-34254D01*
X36729Y-34254D01*
X36703Y-34244D01*
X36686Y-34225D01*
X36678Y-34206D01*
X36669Y-34168D01*
X36669Y-34139D01*
X36678Y-34101D01*
X36686Y-34082D01*
X36703Y-34063D01*
X36729Y-34054D01*
X36746Y-34054D01*
X36772Y-34063D01*
X36781Y-34073D01*
X36841Y-34054D02*
X36952Y-34054D01*
X36892Y-34130D01*
X36918Y-34130D01*
X36935Y-34139D01*
X36943Y-34149D01*
X36952Y-34168D01*
X36952Y-34216D01*
X36943Y-34235D01*
X36935Y-34244D01*
X36918Y-34254D01*
X36866Y-34254D01*
X36849Y-34244D01*
X36841Y-34235D01*
X39620Y-35265D02*
X39525Y-35325D01*
X39620Y-35368D02*
X39420Y-35368D01*
X39420Y-35300D01*
X39430Y-35282D01*
X39440Y-35274D01*
X39459Y-35265D01*
X39487Y-35265D01*
X39506Y-35274D01*
X39516Y-35282D01*
X39525Y-35300D01*
X39525Y-35368D01*
X39440Y-35197D02*
X39430Y-35188D01*
X39420Y-35171D01*
X39420Y-35128D01*
X39430Y-35111D01*
X39440Y-35102D01*
X39459Y-35094D01*
X39478Y-35094D01*
X39506Y-35102D01*
X39620Y-35205D01*
X39620Y-35094D01*
X39440Y-35025D02*
X39430Y-35017D01*
X39420Y-35000D01*
X39420Y-34957D01*
X39430Y-34940D01*
X39440Y-34931D01*
X39459Y-34922D01*
X39478Y-34922D01*
X39506Y-34931D01*
X39620Y-35034D01*
X39620Y-34922D01*
X36950Y-36495D02*
X36855Y-36555D01*
X36950Y-36598D02*
X36750Y-36598D01*
X36750Y-36530D01*
X36760Y-36512D01*
X36770Y-36504D01*
X36789Y-36495D01*
X36817Y-36495D01*
X36836Y-36504D01*
X36846Y-36512D01*
X36855Y-36530D01*
X36855Y-36598D01*
X36770Y-36427D02*
X36760Y-36418D01*
X36750Y-36401D01*
X36750Y-36358D01*
X36760Y-36341D01*
X36770Y-36332D01*
X36789Y-36324D01*
X36808Y-36324D01*
X36836Y-36332D01*
X36950Y-36435D01*
X36950Y-36324D01*
X36750Y-36161D02*
X36750Y-36247D01*
X36846Y-36255D01*
X36836Y-36247D01*
X36827Y-36230D01*
X36827Y-36187D01*
X36836Y-36170D01*
X36846Y-36161D01*
X36865Y-36152D01*
X36912Y-36152D01*
X36931Y-36161D01*
X36941Y-36170D01*
X36950Y-36187D01*
X36950Y-36230D01*
X36941Y-36247D01*
X36931Y-36255D01*
X39610Y-36495D02*
X39515Y-36555D01*
X39610Y-36598D02*
X39410Y-36598D01*
X39410Y-36530D01*
X39420Y-36512D01*
X39430Y-36504D01*
X39449Y-36495D01*
X39477Y-36495D01*
X39496Y-36504D01*
X39506Y-36512D01*
X39515Y-36530D01*
X39515Y-36598D01*
X39430Y-36427D02*
X39420Y-36418D01*
X39410Y-36401D01*
X39410Y-36358D01*
X39420Y-36341D01*
X39430Y-36332D01*
X39449Y-36324D01*
X39468Y-36324D01*
X39496Y-36332D01*
X39610Y-36435D01*
X39610Y-36324D01*
X39410Y-36170D02*
X39410Y-36204D01*
X39420Y-36221D01*
X39430Y-36230D01*
X39458Y-36247D01*
X39496Y-36255D01*
X39572Y-36255D01*
X39591Y-36247D01*
X39601Y-36238D01*
X39610Y-36221D01*
X39610Y-36187D01*
X39601Y-36170D01*
X39591Y-36161D01*
X39572Y-36152D01*
X39525Y-36152D01*
X39506Y-36161D01*
X39496Y-36170D01*
X39487Y-36187D01*
X39487Y-36221D01*
X39496Y-36238D01*
X39506Y-36247D01*
X39525Y-36255D01*
X36950Y-35275D02*
X36855Y-35335D01*
X36950Y-35378D02*
X36750Y-35378D01*
X36750Y-35310D01*
X36760Y-35292D01*
X36770Y-35284D01*
X36789Y-35275D01*
X36817Y-35275D01*
X36836Y-35284D01*
X36846Y-35292D01*
X36855Y-35310D01*
X36855Y-35378D01*
X36770Y-35207D02*
X36760Y-35198D01*
X36750Y-35181D01*
X36750Y-35138D01*
X36760Y-35121D01*
X36770Y-35112D01*
X36789Y-35104D01*
X36808Y-35104D01*
X36836Y-35112D01*
X36950Y-35215D01*
X36950Y-35104D01*
X36750Y-35044D02*
X36750Y-34932D01*
X36827Y-34992D01*
X36827Y-34967D01*
X36836Y-34950D01*
X36846Y-34941D01*
X36865Y-34932D01*
X36912Y-34932D01*
X36931Y-34941D01*
X36941Y-34950D01*
X36950Y-34967D01*
X36950Y-35018D01*
X36941Y-35035D01*
X36931Y-35044D01*
X24284Y-37370D02*
X24224Y-37275D01*
X24181Y-37370D02*
X24181Y-37170D01*
X24250Y-37170D01*
X24267Y-37180D01*
X24275Y-37190D01*
X24284Y-37209D01*
X24284Y-37237D01*
X24275Y-37256D01*
X24267Y-37266D01*
X24250Y-37275D01*
X24181Y-37275D01*
X24352Y-37190D02*
X24361Y-37180D01*
X24378Y-37170D01*
X24421Y-37170D01*
X24438Y-37180D01*
X24447Y-37190D01*
X24455Y-37209D01*
X24455Y-37228D01*
X24447Y-37256D01*
X24344Y-37370D01*
X24455Y-37370D01*
X24627Y-37370D02*
X24524Y-37370D01*
X24575Y-37370D02*
X24575Y-37170D01*
X24558Y-37199D01*
X24541Y-37218D01*
X24524Y-37228D01*
G54D16*
X33755Y-38002D02*
X33690Y-38042D01*
X33755Y-38070D02*
X33617Y-38070D01*
X33617Y-38025D01*
X33624Y-38013D01*
X33631Y-38007D01*
X33644Y-38002D01*
X33663Y-38002D01*
X33677Y-38007D01*
X33683Y-38013D01*
X33690Y-38025D01*
X33690Y-38070D01*
X33755Y-37887D02*
X33755Y-37956D01*
X33755Y-37922D02*
X33617Y-37922D01*
X33637Y-37933D01*
X33650Y-37945D01*
X33657Y-37956D01*
X33677Y-37819D02*
X33670Y-37830D01*
X33663Y-37836D01*
X33650Y-37842D01*
X33644Y-37842D01*
X33631Y-37836D01*
X33624Y-37830D01*
X33617Y-37819D01*
X33617Y-37796D01*
X33624Y-37785D01*
X33631Y-37779D01*
X33644Y-37773D01*
X33650Y-37773D01*
X33663Y-37779D01*
X33670Y-37785D01*
X33677Y-37796D01*
X33677Y-37819D01*
X33683Y-37830D01*
X33690Y-37836D01*
X33703Y-37842D01*
X33729Y-37842D01*
X33742Y-37836D01*
X33749Y-37830D01*
X33755Y-37819D01*
X33755Y-37796D01*
X33749Y-37785D01*
X33742Y-37779D01*
X33729Y-37773D01*
X33703Y-37773D01*
X33690Y-37779D01*
X33683Y-37785D01*
X33677Y-37796D01*
X33755Y-25245D02*
X33690Y-25285D01*
X33755Y-25313D02*
X33617Y-25313D01*
X33617Y-25267D01*
X33624Y-25256D01*
X33631Y-25250D01*
X33644Y-25245D01*
X33663Y-25245D01*
X33677Y-25250D01*
X33683Y-25256D01*
X33690Y-25267D01*
X33690Y-25313D01*
X33631Y-25199D02*
X33624Y-25193D01*
X33617Y-25182D01*
X33617Y-25153D01*
X33624Y-25142D01*
X33631Y-25136D01*
X33644Y-25130D01*
X33657Y-25130D01*
X33677Y-25136D01*
X33755Y-25205D01*
X33755Y-25130D01*
X33705Y-27020D02*
X33640Y-27060D01*
X33705Y-27088D02*
X33567Y-27088D01*
X33567Y-27042D01*
X33574Y-27031D01*
X33581Y-27025D01*
X33594Y-27020D01*
X33613Y-27020D01*
X33627Y-27025D01*
X33633Y-27031D01*
X33640Y-27042D01*
X33640Y-27088D01*
X33567Y-26917D02*
X33567Y-26940D01*
X33574Y-26951D01*
X33581Y-26957D01*
X33600Y-26968D01*
X33627Y-26974D01*
X33679Y-26974D01*
X33692Y-26968D01*
X33699Y-26962D01*
X33705Y-26951D01*
X33705Y-26928D01*
X33699Y-26917D01*
X33692Y-26911D01*
X33679Y-26905D01*
X33646Y-26905D01*
X33633Y-26911D01*
X33627Y-26917D01*
X33620Y-26928D01*
X33620Y-26951D01*
X33627Y-26962D01*
X33633Y-26968D01*
X33646Y-26974D01*
X33705Y-33677D02*
X33640Y-33717D01*
X33705Y-33745D02*
X33567Y-33745D01*
X33567Y-33700D01*
X33574Y-33688D01*
X33581Y-33682D01*
X33594Y-33677D01*
X33613Y-33677D01*
X33627Y-33682D01*
X33633Y-33688D01*
X33640Y-33700D01*
X33640Y-33745D01*
X33705Y-33562D02*
X33705Y-33631D01*
X33705Y-33597D02*
X33567Y-33597D01*
X33587Y-33608D01*
X33600Y-33620D01*
X33607Y-33631D01*
X33567Y-33488D02*
X33567Y-33477D01*
X33574Y-33465D01*
X33581Y-33460D01*
X33594Y-33454D01*
X33620Y-33448D01*
X33653Y-33448D01*
X33679Y-33454D01*
X33692Y-33460D01*
X33699Y-33465D01*
X33705Y-33477D01*
X33705Y-33488D01*
X33699Y-33500D01*
X33692Y-33505D01*
X33679Y-33511D01*
X33653Y-33517D01*
X33620Y-33517D01*
X33594Y-33511D01*
X33581Y-33505D01*
X33574Y-33500D01*
X33567Y-33488D01*
X33755Y-35777D02*
X33690Y-35817D01*
X33755Y-35845D02*
X33617Y-35845D01*
X33617Y-35800D01*
X33624Y-35788D01*
X33631Y-35782D01*
X33644Y-35777D01*
X33663Y-35777D01*
X33677Y-35782D01*
X33683Y-35788D01*
X33690Y-35800D01*
X33690Y-35845D01*
X33755Y-35662D02*
X33755Y-35731D01*
X33755Y-35697D02*
X33617Y-35697D01*
X33637Y-35708D01*
X33650Y-35720D01*
X33657Y-35731D01*
X33663Y-35560D02*
X33755Y-35560D01*
X33611Y-35588D02*
X33709Y-35617D01*
X33709Y-35542D01*
X33080Y-25030D02*
X33040Y-24965D01*
X33011Y-25030D02*
X33011Y-24892D01*
X33057Y-24892D01*
X33068Y-24899D01*
X33074Y-24906D01*
X33080Y-24919D01*
X33080Y-24938D01*
X33074Y-24952D01*
X33068Y-24958D01*
X33057Y-24965D01*
X33011Y-24965D01*
X33194Y-25030D02*
X33125Y-25030D01*
X33160Y-25030D02*
X33160Y-24892D01*
X33148Y-24912D01*
X33137Y-24925D01*
X33125Y-24932D01*
X32555Y-33677D02*
X32490Y-33717D01*
X32555Y-33745D02*
X32417Y-33745D01*
X32417Y-33700D01*
X32424Y-33688D01*
X32431Y-33682D01*
X32444Y-33677D01*
X32463Y-33677D01*
X32477Y-33682D01*
X32483Y-33688D01*
X32490Y-33700D01*
X32490Y-33745D01*
X32555Y-33562D02*
X32555Y-33631D01*
X32555Y-33597D02*
X32417Y-33597D01*
X32437Y-33608D01*
X32450Y-33620D01*
X32457Y-33631D01*
X32555Y-33448D02*
X32555Y-33517D01*
X32555Y-33482D02*
X32417Y-33482D01*
X32437Y-33494D01*
X32450Y-33505D01*
X32457Y-33517D01*
X33080Y-25530D02*
X33040Y-25465D01*
X33011Y-25530D02*
X33011Y-25392D01*
X33057Y-25392D01*
X33068Y-25399D01*
X33074Y-25406D01*
X33080Y-25419D01*
X33080Y-25438D01*
X33074Y-25452D01*
X33068Y-25458D01*
X33057Y-25465D01*
X33011Y-25465D01*
X33182Y-25438D02*
X33182Y-25530D01*
X33154Y-25386D02*
X33125Y-25484D01*
X33200Y-25484D01*
X32555Y-25245D02*
X32490Y-25285D01*
X32555Y-25313D02*
X32417Y-25313D01*
X32417Y-25267D01*
X32424Y-25256D01*
X32431Y-25250D01*
X32444Y-25245D01*
X32463Y-25245D01*
X32477Y-25250D01*
X32483Y-25256D01*
X32490Y-25267D01*
X32490Y-25313D01*
X32417Y-25205D02*
X32417Y-25130D01*
X32470Y-25170D01*
X32470Y-25153D01*
X32477Y-25142D01*
X32483Y-25136D01*
X32496Y-25130D01*
X32529Y-25130D01*
X32542Y-25136D01*
X32549Y-25142D01*
X32555Y-25153D01*
X32555Y-25187D01*
X32549Y-25199D01*
X32542Y-25205D01*
X33055Y-26805D02*
X33015Y-26740D01*
X32986Y-26805D02*
X32986Y-26667D01*
X33032Y-26667D01*
X33043Y-26674D01*
X33049Y-26681D01*
X33055Y-26694D01*
X33055Y-26713D01*
X33049Y-26727D01*
X33043Y-26733D01*
X33032Y-26740D01*
X32986Y-26740D01*
X33163Y-26667D02*
X33106Y-26667D01*
X33100Y-26733D01*
X33106Y-26727D01*
X33117Y-26720D01*
X33146Y-26720D01*
X33157Y-26727D01*
X33163Y-26733D01*
X33169Y-26746D01*
X33169Y-26779D01*
X33163Y-26792D01*
X33157Y-26799D01*
X33146Y-26805D01*
X33117Y-26805D01*
X33106Y-26799D01*
X33100Y-26792D01*
X32555Y-27020D02*
X32490Y-27060D01*
X32555Y-27088D02*
X32417Y-27088D01*
X32417Y-27042D01*
X32424Y-27031D01*
X32431Y-27025D01*
X32444Y-27020D01*
X32463Y-27020D01*
X32477Y-27025D01*
X32483Y-27031D01*
X32490Y-27042D01*
X32490Y-27088D01*
X32417Y-26980D02*
X32417Y-26900D01*
X32555Y-26951D01*
X33055Y-27305D02*
X33015Y-27240D01*
X32986Y-27305D02*
X32986Y-27167D01*
X33032Y-27167D01*
X33043Y-27174D01*
X33049Y-27181D01*
X33055Y-27194D01*
X33055Y-27213D01*
X33049Y-27227D01*
X33043Y-27233D01*
X33032Y-27240D01*
X32986Y-27240D01*
X33123Y-27227D02*
X33112Y-27220D01*
X33106Y-27213D01*
X33100Y-27200D01*
X33100Y-27194D01*
X33106Y-27181D01*
X33112Y-27174D01*
X33123Y-27167D01*
X33146Y-27167D01*
X33157Y-27174D01*
X33163Y-27181D01*
X33169Y-27194D01*
X33169Y-27200D01*
X33163Y-27213D01*
X33157Y-27220D01*
X33146Y-27227D01*
X33123Y-27227D01*
X33112Y-27233D01*
X33106Y-27240D01*
X33100Y-27253D01*
X33100Y-27279D01*
X33106Y-27292D01*
X33112Y-27299D01*
X33123Y-27305D01*
X33146Y-27305D01*
X33157Y-27299D01*
X33163Y-27292D01*
X33169Y-27279D01*
X33169Y-27253D01*
X33163Y-27240D01*
X33157Y-27233D01*
X33146Y-27227D01*
X33055Y-33405D02*
X33015Y-33340D01*
X32986Y-33405D02*
X32986Y-33267D01*
X33032Y-33267D01*
X33043Y-33274D01*
X33049Y-33281D01*
X33055Y-33294D01*
X33055Y-33313D01*
X33049Y-33327D01*
X33043Y-33333D01*
X33032Y-33340D01*
X32986Y-33340D01*
X33112Y-33405D02*
X33135Y-33405D01*
X33146Y-33399D01*
X33152Y-33392D01*
X33163Y-33373D01*
X33169Y-33346D01*
X33169Y-33294D01*
X33163Y-33281D01*
X33157Y-33274D01*
X33146Y-33267D01*
X33123Y-33267D01*
X33112Y-33274D01*
X33106Y-33281D01*
X33100Y-33294D01*
X33100Y-33327D01*
X33106Y-33340D01*
X33112Y-33346D01*
X33123Y-33353D01*
X33146Y-33353D01*
X33157Y-33346D01*
X33163Y-33340D01*
X33169Y-33327D01*
X32997Y-33905D02*
X32957Y-33840D01*
X32929Y-33905D02*
X32929Y-33767D01*
X32975Y-33767D01*
X32986Y-33774D01*
X32992Y-33781D01*
X32997Y-33794D01*
X32997Y-33813D01*
X32992Y-33827D01*
X32986Y-33833D01*
X32975Y-33840D01*
X32929Y-33840D01*
X33112Y-33905D02*
X33043Y-33905D01*
X33077Y-33905D02*
X33077Y-33767D01*
X33066Y-33787D01*
X33055Y-33800D01*
X33043Y-33807D01*
X33157Y-33781D02*
X33163Y-33774D01*
X33175Y-33767D01*
X33203Y-33767D01*
X33215Y-33774D01*
X33220Y-33781D01*
X33226Y-33794D01*
X33226Y-33807D01*
X33220Y-33827D01*
X33152Y-33905D01*
X33226Y-33905D01*
X33022Y-35505D02*
X32982Y-35440D01*
X32954Y-35505D02*
X32954Y-35367D01*
X33000Y-35367D01*
X33011Y-35374D01*
X33017Y-35381D01*
X33022Y-35394D01*
X33022Y-35413D01*
X33017Y-35427D01*
X33011Y-35433D01*
X33000Y-35440D01*
X32954Y-35440D01*
X33137Y-35505D02*
X33068Y-35505D01*
X33102Y-35505D02*
X33102Y-35367D01*
X33091Y-35387D01*
X33080Y-35400D01*
X33068Y-35407D01*
X33177Y-35367D02*
X33251Y-35367D01*
X33211Y-35420D01*
X33228Y-35420D01*
X33240Y-35427D01*
X33245Y-35433D01*
X33251Y-35446D01*
X33251Y-35479D01*
X33245Y-35492D01*
X33240Y-35499D01*
X33228Y-35505D01*
X33194Y-35505D01*
X33182Y-35499D01*
X33177Y-35492D01*
X32555Y-35777D02*
X32490Y-35817D01*
X32555Y-35845D02*
X32417Y-35845D01*
X32417Y-35800D01*
X32424Y-35788D01*
X32431Y-35782D01*
X32444Y-35777D01*
X32463Y-35777D01*
X32477Y-35782D01*
X32483Y-35788D01*
X32490Y-35800D01*
X32490Y-35845D01*
X32555Y-35662D02*
X32555Y-35731D01*
X32555Y-35697D02*
X32417Y-35697D01*
X32437Y-35708D01*
X32450Y-35720D01*
X32457Y-35731D01*
X32417Y-35554D02*
X32417Y-35611D01*
X32483Y-35617D01*
X32477Y-35611D01*
X32470Y-35600D01*
X32470Y-35571D01*
X32477Y-35560D01*
X32483Y-35554D01*
X32496Y-35548D01*
X32529Y-35548D01*
X32542Y-35554D01*
X32549Y-35560D01*
X32555Y-35571D01*
X32555Y-35600D01*
X32549Y-35611D01*
X32542Y-35617D01*
X33022Y-36005D02*
X32982Y-35940D01*
X32954Y-36005D02*
X32954Y-35867D01*
X33000Y-35867D01*
X33011Y-35874D01*
X33017Y-35881D01*
X33022Y-35894D01*
X33022Y-35913D01*
X33017Y-35927D01*
X33011Y-35933D01*
X33000Y-35940D01*
X32954Y-35940D01*
X33137Y-36005D02*
X33068Y-36005D01*
X33102Y-36005D02*
X33102Y-35867D01*
X33091Y-35887D01*
X33080Y-35900D01*
X33068Y-35907D01*
X33240Y-35867D02*
X33217Y-35867D01*
X33205Y-35874D01*
X33200Y-35881D01*
X33188Y-35900D01*
X33182Y-35927D01*
X33182Y-35979D01*
X33188Y-35992D01*
X33194Y-35999D01*
X33205Y-36005D01*
X33228Y-36005D01*
X33240Y-35999D01*
X33245Y-35992D01*
X33251Y-35979D01*
X33251Y-35946D01*
X33245Y-35933D01*
X33240Y-35927D01*
X33228Y-35920D01*
X33205Y-35920D01*
X33194Y-35927D01*
X33188Y-35933D01*
X33182Y-35946D01*
X33022Y-37730D02*
X32982Y-37665D01*
X32954Y-37730D02*
X32954Y-37592D01*
X33000Y-37592D01*
X33011Y-37599D01*
X33017Y-37606D01*
X33022Y-37619D01*
X33022Y-37638D01*
X33017Y-37652D01*
X33011Y-37658D01*
X33000Y-37665D01*
X32954Y-37665D01*
X33137Y-37730D02*
X33068Y-37730D01*
X33102Y-37730D02*
X33102Y-37592D01*
X33091Y-37612D01*
X33080Y-37625D01*
X33068Y-37632D01*
X33177Y-37592D02*
X33257Y-37592D01*
X33205Y-37730D01*
X32555Y-38002D02*
X32490Y-38042D01*
X32555Y-38070D02*
X32417Y-38070D01*
X32417Y-38025D01*
X32424Y-38013D01*
X32431Y-38007D01*
X32444Y-38002D01*
X32463Y-38002D01*
X32477Y-38007D01*
X32483Y-38013D01*
X32490Y-38025D01*
X32490Y-38070D01*
X32555Y-37887D02*
X32555Y-37956D01*
X32555Y-37922D02*
X32417Y-37922D01*
X32437Y-37933D01*
X32450Y-37945D01*
X32457Y-37956D01*
X32555Y-37830D02*
X32555Y-37807D01*
X32549Y-37796D01*
X32542Y-37790D01*
X32523Y-37779D01*
X32496Y-37773D01*
X32444Y-37773D01*
X32431Y-37779D01*
X32424Y-37785D01*
X32417Y-37796D01*
X32417Y-37819D01*
X32424Y-37830D01*
X32431Y-37836D01*
X32444Y-37842D01*
X32477Y-37842D01*
X32490Y-37836D01*
X32496Y-37830D01*
X32503Y-37819D01*
X32503Y-37796D01*
X32496Y-37785D01*
X32490Y-37779D01*
X32477Y-37773D01*
X33022Y-38230D02*
X32982Y-38165D01*
X32954Y-38230D02*
X32954Y-38092D01*
X33000Y-38092D01*
X33011Y-38099D01*
X33017Y-38106D01*
X33022Y-38119D01*
X33022Y-38138D01*
X33017Y-38152D01*
X33011Y-38158D01*
X33000Y-38165D01*
X32954Y-38165D01*
X33068Y-38106D02*
X33074Y-38099D01*
X33085Y-38092D01*
X33114Y-38092D01*
X33125Y-38099D01*
X33131Y-38106D01*
X33137Y-38119D01*
X33137Y-38132D01*
X33131Y-38152D01*
X33062Y-38230D01*
X33137Y-38230D01*
X33211Y-38092D02*
X33222Y-38092D01*
X33234Y-38099D01*
X33240Y-38106D01*
X33245Y-38119D01*
X33251Y-38145D01*
X33251Y-38178D01*
X33245Y-38204D01*
X33240Y-38217D01*
X33234Y-38224D01*
X33222Y-38230D01*
X33211Y-38230D01*
X33200Y-38224D01*
X33194Y-38217D01*
X33188Y-38204D01*
X33182Y-38178D01*
X33182Y-38145D01*
X33188Y-38119D01*
X33194Y-38106D01*
X33200Y-38099D01*
X33211Y-38092D01*
G54D14*
X50716Y-35409D02*
X50930Y-35409D01*
X50973Y-35424D01*
X51002Y-35452D01*
X51016Y-35495D01*
X51016Y-35524D01*
X51016Y-35267D02*
X50716Y-35267D01*
X50716Y-35152D01*
X50730Y-35124D01*
X50745Y-35110D01*
X50773Y-35095D01*
X50816Y-35095D01*
X50845Y-35110D01*
X50859Y-35124D01*
X50873Y-35152D01*
X50873Y-35267D01*
X50745Y-34981D02*
X50730Y-34967D01*
X50716Y-34938D01*
X50716Y-34867D01*
X50730Y-34838D01*
X50745Y-34824D01*
X50773Y-34810D01*
X50802Y-34810D01*
X50845Y-34824D01*
X51016Y-34995D01*
X51016Y-34810D01*
G54D15*
X25992Y-36970D02*
X25992Y-36770D01*
X26040Y-36770D01*
X26068Y-36780D01*
X26087Y-36799D01*
X26097Y-36818D01*
X26106Y-36856D01*
X26106Y-36885D01*
X26097Y-36923D01*
X26087Y-36942D01*
X26068Y-36961D01*
X26040Y-36970D01*
X25992Y-36970D01*
X26297Y-36970D02*
X26182Y-36970D01*
X26240Y-36970D02*
X26240Y-36770D01*
X26220Y-36799D01*
X26201Y-36818D01*
X26182Y-36828D01*
X26011Y-37770D02*
X25916Y-37770D01*
X25916Y-37570D01*
X26078Y-37666D02*
X26144Y-37666D01*
X26173Y-37770D02*
X26078Y-37770D01*
X26078Y-37570D01*
X26173Y-37570D01*
X26259Y-37770D02*
X26259Y-37570D01*
X26306Y-37570D01*
X26335Y-37580D01*
X26354Y-37599D01*
X26363Y-37618D01*
X26373Y-37656D01*
X26373Y-37685D01*
X26363Y-37723D01*
X26354Y-37742D01*
X26335Y-37761D01*
X26306Y-37770D01*
X26259Y-37770D01*
G54D10*
X24120Y-25671D02*
X24120Y-25952D01*
X24101Y-26008D01*
X24064Y-26046D01*
X24008Y-26064D01*
X23970Y-26064D01*
X24308Y-26064D02*
X24308Y-25671D01*
X24458Y-25671D01*
X24495Y-25689D01*
X24514Y-25708D01*
X24533Y-25746D01*
X24533Y-25802D01*
X24514Y-25839D01*
X24495Y-25858D01*
X24458Y-25877D01*
X24308Y-25877D01*
X24908Y-26064D02*
X24683Y-26064D01*
X24795Y-26064D02*
X24795Y-25671D01*
X24758Y-25727D01*
X24720Y-25764D01*
X24683Y-25783D01*
G54D20*
X38837Y-26117D02*
X38777Y-26117D01*
X38777Y-26222D02*
X38777Y-26022D01*
X38863Y-26022D01*
X39026Y-26222D02*
X38923Y-26222D01*
X38974Y-26222D02*
X38974Y-26022D01*
X38957Y-26051D01*
X38940Y-26070D01*
X38923Y-26079D01*
M02*
