G04 (created by PCBNEW (2013-mar-13)-testing) date Sun 10 Nov 2013 05:03:15 PM CET*
%MOIN*%
G04 Gerber Fmt 3.4, Leading zero omitted, Abs format*
%FSLAX34Y34*%
G01*
G70*
G90*
G04 APERTURE LIST*
%ADD10C,0.005906*%
%ADD11C,0.059055*%
%ADD12C,0.118110*%
%ADD13C,0.078740*%
%ADD14C,0.086614*%
G04 APERTURE END LIST*
G54D10*
G54D11*
X73059Y-50098D03*
X73059Y-48598D03*
X72559Y-50848D03*
X72559Y-49348D03*
X72059Y-50098D03*
X72059Y-48598D03*
X71559Y-50848D03*
X71559Y-49348D03*
X71059Y-50098D03*
X71059Y-48598D03*
X70559Y-50848D03*
X70559Y-49348D03*
X70059Y-50098D03*
X70059Y-48598D03*
X69559Y-50848D03*
X69559Y-49348D03*
X69059Y-50098D03*
X69059Y-48598D03*
X68559Y-50848D03*
X68559Y-49348D03*
X68059Y-50098D03*
X68059Y-48598D03*
X67559Y-50848D03*
X67559Y-49348D03*
X67059Y-50098D03*
X67059Y-48598D03*
X66559Y-50848D03*
X66559Y-49348D03*
X66059Y-50098D03*
X66059Y-48598D03*
X65559Y-50848D03*
X65559Y-49348D03*
X65059Y-50098D03*
X65059Y-48598D03*
X64559Y-50848D03*
X64559Y-49348D03*
X64059Y-50098D03*
X64059Y-48598D03*
X63559Y-50848D03*
X63559Y-49348D03*
X63059Y-50098D03*
X63059Y-48598D03*
X62559Y-50848D03*
X62559Y-49348D03*
X62059Y-50098D03*
X62059Y-48598D03*
X61559Y-50848D03*
X61559Y-49348D03*
X61059Y-50098D03*
X61059Y-48598D03*
X60559Y-50848D03*
X60559Y-49348D03*
X60059Y-50098D03*
X60059Y-48598D03*
X59559Y-50848D03*
X59559Y-49348D03*
X59059Y-50098D03*
X59059Y-48598D03*
X58559Y-50848D03*
X58559Y-49348D03*
X58059Y-50098D03*
X58059Y-48598D03*
X57559Y-50848D03*
X57559Y-49348D03*
X57059Y-50098D03*
X57059Y-48598D03*
X56559Y-50848D03*
X56559Y-49348D03*
G54D12*
X53409Y-49348D03*
X76208Y-49348D03*
G54D13*
X77460Y-54134D03*
X77460Y-52165D03*
G54D14*
X45275Y-48818D03*
X45275Y-57480D03*
X72834Y-52755D03*
M02*
