G04 (created by PCBNEW (2013-mar-13)-testing) date Sat 16 Nov 2013 03:45:40 AM CET*
%MOIN*%
G04 Gerber Fmt 3.4, Leading zero omitted, Abs format*
%FSLAX34Y34*%
G01*
G70*
G90*
G04 APERTURE LIST*
%ADD10C,0.005906*%
%ADD11C,0.078740*%
%ADD12C,0.086614*%
%ADD13C,0.059055*%
%ADD14C,0.118110*%
%ADD15C,0.035000*%
%ADD16C,0.008200*%
%ADD17C,0.011811*%
%ADD18C,0.010000*%
G04 APERTURE END LIST*
G54D10*
G54D11*
X92550Y-54984D03*
X92550Y-53015D03*
G54D12*
X45275Y-45275D03*
X45275Y-57086D03*
X42519Y-48031D03*
X42519Y-54330D03*
G54D13*
X87383Y-50806D03*
X87383Y-52306D03*
X86883Y-50056D03*
X86883Y-51556D03*
X86383Y-50806D03*
X86383Y-52306D03*
X85883Y-50056D03*
X85883Y-51556D03*
X85383Y-50806D03*
X85383Y-52306D03*
X84883Y-50056D03*
X84883Y-51556D03*
X84383Y-50806D03*
X84383Y-52306D03*
X83883Y-50056D03*
X83883Y-51556D03*
X83383Y-50806D03*
X83383Y-52306D03*
X82883Y-50056D03*
X82883Y-51556D03*
X82383Y-50806D03*
X82383Y-52306D03*
X81883Y-50056D03*
X81883Y-51556D03*
X81383Y-50806D03*
X81383Y-52306D03*
X80883Y-50056D03*
X80883Y-51556D03*
X80383Y-50806D03*
X80383Y-52306D03*
X79883Y-50056D03*
X79883Y-51556D03*
X79383Y-50806D03*
X79383Y-52306D03*
X78883Y-50056D03*
X78883Y-51556D03*
X78383Y-50806D03*
X78383Y-52306D03*
X77883Y-50056D03*
X77883Y-51556D03*
X77383Y-50806D03*
X77383Y-52306D03*
X76883Y-50056D03*
X76883Y-51556D03*
X76383Y-50806D03*
X76383Y-52306D03*
X75883Y-50056D03*
X75883Y-51556D03*
X75383Y-50806D03*
X75383Y-52306D03*
X74883Y-50056D03*
X74883Y-51556D03*
X74383Y-50806D03*
X74383Y-52306D03*
X73883Y-50056D03*
X73883Y-51556D03*
X73383Y-50806D03*
X73383Y-52306D03*
X72883Y-50056D03*
X72883Y-51556D03*
X72383Y-50806D03*
X72383Y-52306D03*
X71883Y-50056D03*
X71883Y-51556D03*
X71383Y-50806D03*
X71383Y-52306D03*
X70883Y-50056D03*
X70883Y-51556D03*
G54D14*
X67733Y-51181D03*
X90533Y-51181D03*
G54D12*
X90551Y-51181D03*
X92519Y-45275D03*
X92519Y-57086D03*
G54D15*
X91030Y-57420D03*
X57290Y-44000D03*
X55310Y-46200D03*
X59280Y-46590D03*
X81530Y-54340D03*
X81530Y-53730D03*
X40452Y-50787D03*
X39862Y-49606D03*
X90080Y-56990D03*
X91399Y-58373D03*
X40944Y-49606D03*
X40452Y-49606D03*
X40944Y-50787D03*
X39862Y-50787D03*
X85705Y-57805D03*
X85715Y-55615D03*
X85705Y-57130D03*
X85705Y-56245D03*
X58300Y-44700D03*
X55800Y-45600D03*
X54400Y-44800D03*
X45030Y-47280D03*
X45030Y-55110D03*
X43428Y-53291D03*
X42973Y-53291D03*
X43246Y-51184D03*
X47471Y-51147D03*
X90080Y-56420D03*
X90500Y-55920D03*
X90270Y-54110D03*
X83920Y-48350D03*
X83950Y-47770D03*
X62500Y-44300D03*
X40354Y-47539D03*
X40354Y-47933D03*
X40452Y-54429D03*
X40452Y-54035D03*
X62500Y-46100D03*
X40944Y-52362D03*
X40452Y-52362D03*
X40944Y-51574D03*
X40452Y-51574D03*
G54D16*
X63484Y-51174D02*
X63870Y-51174D01*
X69388Y-53051D02*
X70883Y-51556D01*
X65748Y-53051D02*
X69388Y-53051D01*
X63870Y-51174D02*
X65748Y-53051D01*
X43246Y-51184D02*
X43246Y-51178D01*
X47768Y-50882D02*
X48060Y-51174D01*
X43542Y-50882D02*
X47768Y-50882D01*
X43246Y-51178D02*
X43542Y-50882D01*
X50160Y-51174D02*
X48060Y-51174D01*
X48060Y-51174D02*
X47498Y-51174D01*
X47498Y-51174D02*
X47471Y-51147D01*
X50160Y-51174D02*
X63484Y-51174D01*
X63484Y-51174D02*
X63490Y-51174D01*
X50160Y-51174D02*
X50180Y-51174D01*
G54D17*
X82381Y-51673D02*
X82913Y-52204D01*
X82913Y-52204D02*
X82913Y-52677D01*
X81752Y-50806D02*
X81752Y-50808D01*
X81850Y-52204D02*
X81850Y-52716D01*
X82401Y-51653D02*
X82381Y-51673D01*
X82381Y-51673D02*
X81850Y-52204D01*
X82401Y-51456D02*
X82401Y-51653D01*
X81752Y-50808D02*
X82401Y-51456D01*
X81383Y-50806D02*
X81752Y-50806D01*
X82401Y-50157D02*
X82401Y-49763D01*
X81752Y-50806D02*
X82401Y-50157D01*
X80883Y-51556D02*
X80530Y-51556D01*
X79921Y-52165D02*
X79921Y-52755D01*
X80530Y-51556D02*
X79921Y-52165D01*
X80883Y-51556D02*
X80883Y-52635D01*
X80883Y-52635D02*
X80905Y-52657D01*
X81383Y-50806D02*
X81383Y-49718D01*
X81383Y-49718D02*
X81397Y-49704D01*
X80883Y-51556D02*
X80883Y-51306D01*
X80883Y-51306D02*
X81383Y-50806D01*
X81383Y-52306D02*
X81383Y-52056D01*
X81383Y-52056D02*
X80883Y-51556D01*
X80883Y-50056D02*
X80883Y-50306D01*
X80883Y-50306D02*
X81383Y-50806D01*
X78425Y-50118D02*
X78425Y-50236D01*
X80020Y-50806D02*
X80383Y-50806D01*
X79527Y-51299D02*
X80020Y-50806D01*
X79251Y-51299D02*
X79527Y-51299D01*
X78897Y-50944D02*
X79251Y-51299D01*
X78897Y-50708D02*
X78897Y-50944D01*
X78425Y-50236D02*
X78897Y-50708D01*
X76883Y-51556D02*
X76883Y-52722D01*
X76883Y-52722D02*
X76850Y-52755D01*
X77913Y-50629D02*
X77834Y-50629D01*
X77322Y-50118D02*
X77322Y-49527D01*
X77834Y-50629D02*
X77322Y-50118D01*
X76883Y-51556D02*
X77262Y-51556D01*
X78425Y-50118D02*
X78425Y-49763D01*
X77913Y-50629D02*
X78425Y-50118D01*
X77913Y-50905D02*
X77913Y-50629D01*
X77262Y-51556D02*
X77913Y-50905D01*
X76002Y-50806D02*
X76002Y-50808D01*
X74881Y-52165D02*
X74881Y-52677D01*
X75354Y-51692D02*
X74881Y-52165D01*
X75354Y-51456D02*
X75354Y-51692D01*
X76002Y-50808D02*
X75354Y-51456D01*
X76883Y-51556D02*
X76495Y-51556D01*
X75885Y-52165D02*
X75885Y-52657D01*
X76495Y-51556D02*
X75885Y-52165D01*
X76383Y-50806D02*
X76002Y-50806D01*
X75393Y-50196D02*
X75393Y-49704D01*
X76002Y-50806D02*
X75393Y-50196D01*
X76383Y-50806D02*
X76383Y-49612D01*
X76383Y-49612D02*
X76377Y-49606D01*
X76383Y-50806D02*
X76383Y-50556D01*
X76383Y-50556D02*
X76883Y-50056D01*
X76883Y-51556D02*
X76883Y-51306D01*
X76883Y-51306D02*
X76383Y-50806D01*
X77383Y-52306D02*
X77383Y-52056D01*
X77383Y-52056D02*
X76883Y-51556D01*
G54D10*
G36*
X78493Y-57036D02*
X77695Y-57036D01*
X77695Y-52688D01*
X77383Y-52376D01*
X77072Y-52688D01*
X77098Y-52783D01*
X77303Y-52856D01*
X77519Y-52845D01*
X77668Y-52783D01*
X77695Y-52688D01*
X77695Y-57036D01*
X45958Y-57036D01*
X45958Y-56951D01*
X45855Y-56700D01*
X45663Y-56507D01*
X45455Y-56421D01*
X45455Y-55025D01*
X45390Y-54869D01*
X45271Y-54749D01*
X45114Y-54685D01*
X44945Y-54684D01*
X44789Y-54749D01*
X44669Y-54868D01*
X44605Y-55025D01*
X44604Y-55194D01*
X44669Y-55350D01*
X44788Y-55470D01*
X44945Y-55534D01*
X45114Y-55535D01*
X45270Y-55470D01*
X45390Y-55351D01*
X45454Y-55194D01*
X45455Y-55025D01*
X45455Y-56421D01*
X45412Y-56403D01*
X45140Y-56403D01*
X44889Y-56507D01*
X44696Y-56699D01*
X44592Y-56950D01*
X44592Y-57036D01*
X43853Y-57036D01*
X43853Y-53206D01*
X43788Y-53050D01*
X43669Y-52930D01*
X43512Y-52866D01*
X43343Y-52865D01*
X43200Y-52925D01*
X43057Y-52866D01*
X42888Y-52865D01*
X42732Y-52930D01*
X42612Y-53049D01*
X42548Y-53206D01*
X42547Y-53375D01*
X42612Y-53531D01*
X42731Y-53651D01*
X42888Y-53715D01*
X43057Y-53716D01*
X43200Y-53656D01*
X43343Y-53715D01*
X43512Y-53716D01*
X43668Y-53651D01*
X43788Y-53532D01*
X43852Y-53375D01*
X43853Y-53206D01*
X43853Y-57036D01*
X43202Y-57036D01*
X43202Y-54195D01*
X43099Y-53944D01*
X42907Y-53751D01*
X42656Y-53647D01*
X42384Y-53647D01*
X42133Y-53751D01*
X41940Y-53943D01*
X41836Y-54194D01*
X41836Y-54465D01*
X41940Y-54717D01*
X42132Y-54909D01*
X42383Y-55013D01*
X42654Y-55013D01*
X42906Y-54910D01*
X43098Y-54718D01*
X43202Y-54467D01*
X43202Y-54195D01*
X43202Y-57036D01*
X41290Y-57036D01*
X41290Y-53099D01*
X40010Y-53099D01*
X40010Y-51329D01*
X41290Y-51329D01*
X41290Y-51043D01*
X41304Y-51028D01*
X41369Y-50872D01*
X41369Y-50703D01*
X41305Y-50546D01*
X41290Y-50531D01*
X41290Y-49862D01*
X41304Y-49847D01*
X41369Y-49691D01*
X41369Y-49522D01*
X41305Y-49365D01*
X41290Y-49350D01*
X41290Y-45817D01*
X44851Y-45817D01*
X44888Y-45854D01*
X45139Y-45958D01*
X45410Y-45958D01*
X45662Y-45855D01*
X45699Y-45817D01*
X55122Y-45817D01*
X55069Y-45839D01*
X54949Y-45958D01*
X54885Y-46115D01*
X54884Y-46284D01*
X54949Y-46440D01*
X55068Y-46560D01*
X55225Y-46624D01*
X55394Y-46625D01*
X55550Y-46560D01*
X55670Y-46441D01*
X55734Y-46284D01*
X55735Y-46115D01*
X55693Y-46016D01*
X55715Y-46024D01*
X55884Y-46025D01*
X56040Y-45960D01*
X56160Y-45841D01*
X56169Y-45817D01*
X78493Y-45817D01*
X78493Y-49675D01*
X78421Y-49746D01*
X78383Y-49838D01*
X78346Y-49747D01*
X78193Y-49594D01*
X77992Y-49510D01*
X77775Y-49510D01*
X77575Y-49593D01*
X77421Y-49746D01*
X77386Y-49832D01*
X77361Y-49771D01*
X77266Y-49744D01*
X77159Y-49851D01*
X77017Y-49851D01*
X77195Y-49673D01*
X77168Y-49578D01*
X76964Y-49506D01*
X76747Y-49517D01*
X76598Y-49578D01*
X76572Y-49673D01*
X76750Y-49851D01*
X76608Y-49851D01*
X76501Y-49744D01*
X76406Y-49771D01*
X76383Y-49836D01*
X76346Y-49747D01*
X76193Y-49594D01*
X75992Y-49510D01*
X75775Y-49510D01*
X75575Y-49593D01*
X75421Y-49746D01*
X75383Y-49838D01*
X75346Y-49747D01*
X75193Y-49594D01*
X74992Y-49510D01*
X74775Y-49510D01*
X74575Y-49593D01*
X74421Y-49746D01*
X74383Y-49838D01*
X74346Y-49747D01*
X74193Y-49594D01*
X73992Y-49510D01*
X73775Y-49510D01*
X73575Y-49593D01*
X73421Y-49746D01*
X73383Y-49838D01*
X73346Y-49747D01*
X73193Y-49594D01*
X72992Y-49510D01*
X72775Y-49510D01*
X72575Y-49593D01*
X72421Y-49746D01*
X72383Y-49838D01*
X72346Y-49747D01*
X72193Y-49594D01*
X71992Y-49510D01*
X71775Y-49510D01*
X71575Y-49593D01*
X71421Y-49746D01*
X71383Y-49838D01*
X71346Y-49747D01*
X71193Y-49594D01*
X70992Y-49510D01*
X70775Y-49510D01*
X70575Y-49593D01*
X70421Y-49746D01*
X70378Y-49851D01*
X59705Y-49851D01*
X59705Y-46505D01*
X59640Y-46349D01*
X59521Y-46229D01*
X59364Y-46165D01*
X59195Y-46164D01*
X59039Y-46229D01*
X58919Y-46348D01*
X58855Y-46505D01*
X58854Y-46674D01*
X58919Y-46830D01*
X59038Y-46950D01*
X59195Y-47014D01*
X59364Y-47015D01*
X59520Y-46950D01*
X59640Y-46831D01*
X59704Y-46674D01*
X59705Y-46505D01*
X59705Y-49851D01*
X45455Y-49851D01*
X45455Y-47195D01*
X45390Y-47039D01*
X45271Y-46919D01*
X45114Y-46855D01*
X44945Y-46854D01*
X44789Y-46919D01*
X44669Y-47038D01*
X44605Y-47195D01*
X44604Y-47364D01*
X44669Y-47520D01*
X44788Y-47640D01*
X44945Y-47704D01*
X45114Y-47705D01*
X45270Y-47640D01*
X45390Y-47521D01*
X45454Y-47364D01*
X45455Y-47195D01*
X45455Y-49851D01*
X43202Y-49851D01*
X43202Y-47896D01*
X43099Y-47645D01*
X42907Y-47452D01*
X42656Y-47348D01*
X42384Y-47348D01*
X42133Y-47452D01*
X41940Y-47644D01*
X41836Y-47895D01*
X41836Y-48166D01*
X41940Y-48417D01*
X42132Y-48610D01*
X42383Y-48714D01*
X42654Y-48714D01*
X42906Y-48610D01*
X43098Y-48418D01*
X43202Y-48167D01*
X43202Y-47896D01*
X43202Y-49851D01*
X42506Y-49851D01*
X42512Y-50649D01*
X42464Y-50677D01*
X42464Y-51707D01*
X42568Y-51768D01*
X42568Y-52609D01*
X62774Y-52609D01*
X64349Y-54183D01*
X70591Y-54183D01*
X72040Y-52734D01*
X72074Y-52768D01*
X72274Y-52851D01*
X72491Y-52851D01*
X72692Y-52768D01*
X72845Y-52615D01*
X72883Y-52523D01*
X72921Y-52614D01*
X73074Y-52768D01*
X73274Y-52851D01*
X73491Y-52851D01*
X73692Y-52768D01*
X73845Y-52615D01*
X73883Y-52523D01*
X73921Y-52614D01*
X74074Y-52768D01*
X74274Y-52851D01*
X74491Y-52851D01*
X74692Y-52768D01*
X74845Y-52615D01*
X74883Y-52523D01*
X74921Y-52614D01*
X75074Y-52768D01*
X75274Y-52851D01*
X75491Y-52851D01*
X75692Y-52768D01*
X75845Y-52615D01*
X75883Y-52523D01*
X75921Y-52614D01*
X76074Y-52768D01*
X76274Y-52851D01*
X76491Y-52851D01*
X76692Y-52768D01*
X76845Y-52615D01*
X76881Y-52530D01*
X76906Y-52591D01*
X77001Y-52617D01*
X77313Y-52306D01*
X77307Y-52300D01*
X77375Y-52232D01*
X77381Y-52232D01*
X77383Y-52235D01*
X77386Y-52232D01*
X77392Y-52232D01*
X77460Y-52300D01*
X77454Y-52306D01*
X77766Y-52617D01*
X77861Y-52591D01*
X77884Y-52525D01*
X77921Y-52614D01*
X78074Y-52768D01*
X78274Y-52851D01*
X78491Y-52851D01*
X78493Y-52850D01*
X78493Y-57036D01*
X78493Y-57036D01*
G37*
G54D18*
X78493Y-57036D02*
X77695Y-57036D01*
X77695Y-52688D01*
X77383Y-52376D01*
X77072Y-52688D01*
X77098Y-52783D01*
X77303Y-52856D01*
X77519Y-52845D01*
X77668Y-52783D01*
X77695Y-52688D01*
X77695Y-57036D01*
X45958Y-57036D01*
X45958Y-56951D01*
X45855Y-56700D01*
X45663Y-56507D01*
X45455Y-56421D01*
X45455Y-55025D01*
X45390Y-54869D01*
X45271Y-54749D01*
X45114Y-54685D01*
X44945Y-54684D01*
X44789Y-54749D01*
X44669Y-54868D01*
X44605Y-55025D01*
X44604Y-55194D01*
X44669Y-55350D01*
X44788Y-55470D01*
X44945Y-55534D01*
X45114Y-55535D01*
X45270Y-55470D01*
X45390Y-55351D01*
X45454Y-55194D01*
X45455Y-55025D01*
X45455Y-56421D01*
X45412Y-56403D01*
X45140Y-56403D01*
X44889Y-56507D01*
X44696Y-56699D01*
X44592Y-56950D01*
X44592Y-57036D01*
X43853Y-57036D01*
X43853Y-53206D01*
X43788Y-53050D01*
X43669Y-52930D01*
X43512Y-52866D01*
X43343Y-52865D01*
X43200Y-52925D01*
X43057Y-52866D01*
X42888Y-52865D01*
X42732Y-52930D01*
X42612Y-53049D01*
X42548Y-53206D01*
X42547Y-53375D01*
X42612Y-53531D01*
X42731Y-53651D01*
X42888Y-53715D01*
X43057Y-53716D01*
X43200Y-53656D01*
X43343Y-53715D01*
X43512Y-53716D01*
X43668Y-53651D01*
X43788Y-53532D01*
X43852Y-53375D01*
X43853Y-53206D01*
X43853Y-57036D01*
X43202Y-57036D01*
X43202Y-54195D01*
X43099Y-53944D01*
X42907Y-53751D01*
X42656Y-53647D01*
X42384Y-53647D01*
X42133Y-53751D01*
X41940Y-53943D01*
X41836Y-54194D01*
X41836Y-54465D01*
X41940Y-54717D01*
X42132Y-54909D01*
X42383Y-55013D01*
X42654Y-55013D01*
X42906Y-54910D01*
X43098Y-54718D01*
X43202Y-54467D01*
X43202Y-54195D01*
X43202Y-57036D01*
X41290Y-57036D01*
X41290Y-53099D01*
X40010Y-53099D01*
X40010Y-51329D01*
X41290Y-51329D01*
X41290Y-51043D01*
X41304Y-51028D01*
X41369Y-50872D01*
X41369Y-50703D01*
X41305Y-50546D01*
X41290Y-50531D01*
X41290Y-49862D01*
X41304Y-49847D01*
X41369Y-49691D01*
X41369Y-49522D01*
X41305Y-49365D01*
X41290Y-49350D01*
X41290Y-45817D01*
X44851Y-45817D01*
X44888Y-45854D01*
X45139Y-45958D01*
X45410Y-45958D01*
X45662Y-45855D01*
X45699Y-45817D01*
X55122Y-45817D01*
X55069Y-45839D01*
X54949Y-45958D01*
X54885Y-46115D01*
X54884Y-46284D01*
X54949Y-46440D01*
X55068Y-46560D01*
X55225Y-46624D01*
X55394Y-46625D01*
X55550Y-46560D01*
X55670Y-46441D01*
X55734Y-46284D01*
X55735Y-46115D01*
X55693Y-46016D01*
X55715Y-46024D01*
X55884Y-46025D01*
X56040Y-45960D01*
X56160Y-45841D01*
X56169Y-45817D01*
X78493Y-45817D01*
X78493Y-49675D01*
X78421Y-49746D01*
X78383Y-49838D01*
X78346Y-49747D01*
X78193Y-49594D01*
X77992Y-49510D01*
X77775Y-49510D01*
X77575Y-49593D01*
X77421Y-49746D01*
X77386Y-49832D01*
X77361Y-49771D01*
X77266Y-49744D01*
X77159Y-49851D01*
X77017Y-49851D01*
X77195Y-49673D01*
X77168Y-49578D01*
X76964Y-49506D01*
X76747Y-49517D01*
X76598Y-49578D01*
X76572Y-49673D01*
X76750Y-49851D01*
X76608Y-49851D01*
X76501Y-49744D01*
X76406Y-49771D01*
X76383Y-49836D01*
X76346Y-49747D01*
X76193Y-49594D01*
X75992Y-49510D01*
X75775Y-49510D01*
X75575Y-49593D01*
X75421Y-49746D01*
X75383Y-49838D01*
X75346Y-49747D01*
X75193Y-49594D01*
X74992Y-49510D01*
X74775Y-49510D01*
X74575Y-49593D01*
X74421Y-49746D01*
X74383Y-49838D01*
X74346Y-49747D01*
X74193Y-49594D01*
X73992Y-49510D01*
X73775Y-49510D01*
X73575Y-49593D01*
X73421Y-49746D01*
X73383Y-49838D01*
X73346Y-49747D01*
X73193Y-49594D01*
X72992Y-49510D01*
X72775Y-49510D01*
X72575Y-49593D01*
X72421Y-49746D01*
X72383Y-49838D01*
X72346Y-49747D01*
X72193Y-49594D01*
X71992Y-49510D01*
X71775Y-49510D01*
X71575Y-49593D01*
X71421Y-49746D01*
X71383Y-49838D01*
X71346Y-49747D01*
X71193Y-49594D01*
X70992Y-49510D01*
X70775Y-49510D01*
X70575Y-49593D01*
X70421Y-49746D01*
X70378Y-49851D01*
X59705Y-49851D01*
X59705Y-46505D01*
X59640Y-46349D01*
X59521Y-46229D01*
X59364Y-46165D01*
X59195Y-46164D01*
X59039Y-46229D01*
X58919Y-46348D01*
X58855Y-46505D01*
X58854Y-46674D01*
X58919Y-46830D01*
X59038Y-46950D01*
X59195Y-47014D01*
X59364Y-47015D01*
X59520Y-46950D01*
X59640Y-46831D01*
X59704Y-46674D01*
X59705Y-46505D01*
X59705Y-49851D01*
X45455Y-49851D01*
X45455Y-47195D01*
X45390Y-47039D01*
X45271Y-46919D01*
X45114Y-46855D01*
X44945Y-46854D01*
X44789Y-46919D01*
X44669Y-47038D01*
X44605Y-47195D01*
X44604Y-47364D01*
X44669Y-47520D01*
X44788Y-47640D01*
X44945Y-47704D01*
X45114Y-47705D01*
X45270Y-47640D01*
X45390Y-47521D01*
X45454Y-47364D01*
X45455Y-47195D01*
X45455Y-49851D01*
X43202Y-49851D01*
X43202Y-47896D01*
X43099Y-47645D01*
X42907Y-47452D01*
X42656Y-47348D01*
X42384Y-47348D01*
X42133Y-47452D01*
X41940Y-47644D01*
X41836Y-47895D01*
X41836Y-48166D01*
X41940Y-48417D01*
X42132Y-48610D01*
X42383Y-48714D01*
X42654Y-48714D01*
X42906Y-48610D01*
X43098Y-48418D01*
X43202Y-48167D01*
X43202Y-47896D01*
X43202Y-49851D01*
X42506Y-49851D01*
X42512Y-50649D01*
X42464Y-50677D01*
X42464Y-51707D01*
X42568Y-51768D01*
X42568Y-52609D01*
X62774Y-52609D01*
X64349Y-54183D01*
X70591Y-54183D01*
X72040Y-52734D01*
X72074Y-52768D01*
X72274Y-52851D01*
X72491Y-52851D01*
X72692Y-52768D01*
X72845Y-52615D01*
X72883Y-52523D01*
X72921Y-52614D01*
X73074Y-52768D01*
X73274Y-52851D01*
X73491Y-52851D01*
X73692Y-52768D01*
X73845Y-52615D01*
X73883Y-52523D01*
X73921Y-52614D01*
X74074Y-52768D01*
X74274Y-52851D01*
X74491Y-52851D01*
X74692Y-52768D01*
X74845Y-52615D01*
X74883Y-52523D01*
X74921Y-52614D01*
X75074Y-52768D01*
X75274Y-52851D01*
X75491Y-52851D01*
X75692Y-52768D01*
X75845Y-52615D01*
X75883Y-52523D01*
X75921Y-52614D01*
X76074Y-52768D01*
X76274Y-52851D01*
X76491Y-52851D01*
X76692Y-52768D01*
X76845Y-52615D01*
X76881Y-52530D01*
X76906Y-52591D01*
X77001Y-52617D01*
X77313Y-52306D01*
X77307Y-52300D01*
X77375Y-52232D01*
X77381Y-52232D01*
X77383Y-52235D01*
X77386Y-52232D01*
X77392Y-52232D01*
X77460Y-52300D01*
X77454Y-52306D01*
X77766Y-52617D01*
X77861Y-52591D01*
X77884Y-52525D01*
X77921Y-52614D01*
X78074Y-52768D01*
X78274Y-52851D01*
X78491Y-52851D01*
X78493Y-52850D01*
X78493Y-57036D01*
G54D10*
G36*
X94142Y-49851D02*
X93202Y-49851D01*
X93202Y-45140D01*
X93099Y-44889D01*
X92907Y-44696D01*
X92656Y-44592D01*
X92384Y-44592D01*
X92133Y-44696D01*
X91940Y-44888D01*
X91836Y-45139D01*
X91836Y-45410D01*
X91940Y-45662D01*
X92132Y-45854D01*
X92383Y-45958D01*
X92654Y-45958D01*
X92906Y-45855D01*
X93098Y-45663D01*
X93202Y-45412D01*
X93202Y-45140D01*
X93202Y-49851D01*
X87389Y-49851D01*
X87346Y-49747D01*
X87193Y-49594D01*
X86992Y-49510D01*
X86775Y-49510D01*
X86575Y-49593D01*
X86421Y-49746D01*
X86383Y-49838D01*
X86346Y-49747D01*
X86193Y-49594D01*
X85992Y-49510D01*
X85775Y-49510D01*
X85575Y-49593D01*
X85421Y-49746D01*
X85383Y-49838D01*
X85346Y-49747D01*
X85193Y-49594D01*
X84992Y-49510D01*
X84775Y-49510D01*
X84575Y-49593D01*
X84421Y-49746D01*
X84383Y-49838D01*
X84375Y-49817D01*
X84375Y-47685D01*
X84310Y-47529D01*
X84191Y-47409D01*
X84034Y-47345D01*
X83865Y-47344D01*
X83709Y-47409D01*
X83589Y-47528D01*
X83525Y-47685D01*
X83524Y-47854D01*
X83589Y-48010D01*
X83623Y-48044D01*
X83559Y-48108D01*
X83495Y-48265D01*
X83494Y-48434D01*
X83559Y-48590D01*
X83678Y-48710D01*
X83835Y-48774D01*
X84004Y-48775D01*
X84160Y-48710D01*
X84280Y-48591D01*
X84344Y-48434D01*
X84345Y-48265D01*
X84280Y-48109D01*
X84246Y-48075D01*
X84310Y-48011D01*
X84374Y-47854D01*
X84375Y-47685D01*
X84375Y-49817D01*
X84346Y-49747D01*
X84193Y-49594D01*
X83992Y-49510D01*
X83775Y-49510D01*
X83575Y-49593D01*
X83421Y-49746D01*
X83383Y-49838D01*
X83346Y-49747D01*
X83193Y-49594D01*
X82992Y-49510D01*
X82775Y-49510D01*
X82575Y-49593D01*
X82421Y-49746D01*
X82383Y-49838D01*
X82346Y-49747D01*
X82193Y-49594D01*
X81992Y-49510D01*
X81775Y-49510D01*
X81575Y-49593D01*
X81421Y-49746D01*
X81386Y-49832D01*
X81361Y-49771D01*
X81266Y-49744D01*
X81159Y-49851D01*
X81017Y-49851D01*
X81195Y-49673D01*
X81168Y-49578D01*
X80964Y-49506D01*
X80747Y-49517D01*
X80598Y-49578D01*
X80572Y-49673D01*
X80750Y-49851D01*
X80608Y-49851D01*
X80501Y-49744D01*
X80406Y-49771D01*
X80383Y-49836D01*
X80346Y-49747D01*
X80193Y-49594D01*
X79992Y-49510D01*
X79775Y-49510D01*
X79575Y-49593D01*
X79421Y-49746D01*
X79383Y-49838D01*
X79346Y-49747D01*
X79193Y-49594D01*
X78992Y-49510D01*
X78888Y-49510D01*
X78888Y-45422D01*
X58725Y-45422D01*
X58725Y-44615D01*
X58660Y-44459D01*
X58541Y-44339D01*
X58384Y-44275D01*
X58215Y-44274D01*
X58059Y-44339D01*
X57939Y-44458D01*
X57875Y-44615D01*
X57874Y-44784D01*
X57939Y-44940D01*
X58058Y-45060D01*
X58215Y-45124D01*
X58384Y-45125D01*
X58540Y-45060D01*
X58660Y-44941D01*
X58724Y-44784D01*
X58725Y-44615D01*
X58725Y-45422D01*
X56186Y-45422D01*
X56160Y-45359D01*
X56041Y-45239D01*
X55884Y-45175D01*
X55715Y-45174D01*
X55559Y-45239D01*
X55439Y-45358D01*
X55413Y-45422D01*
X54825Y-45422D01*
X54825Y-44715D01*
X54760Y-44559D01*
X54641Y-44439D01*
X54484Y-44375D01*
X54315Y-44374D01*
X54159Y-44439D01*
X54039Y-44558D01*
X53975Y-44715D01*
X53974Y-44884D01*
X54039Y-45040D01*
X54158Y-45160D01*
X54315Y-45224D01*
X54484Y-45225D01*
X54640Y-45160D01*
X54760Y-45041D01*
X54824Y-44884D01*
X54825Y-44715D01*
X54825Y-45422D01*
X45954Y-45422D01*
X45958Y-45412D01*
X45958Y-45140D01*
X45855Y-44889D01*
X45663Y-44696D01*
X45412Y-44592D01*
X45140Y-44592D01*
X44889Y-44696D01*
X44696Y-44888D01*
X44592Y-45139D01*
X44592Y-45410D01*
X44597Y-45422D01*
X40894Y-45422D01*
X40894Y-48768D01*
X40010Y-48768D01*
X40010Y-43750D01*
X56938Y-43750D01*
X56929Y-43758D01*
X56865Y-43915D01*
X56864Y-44084D01*
X56929Y-44240D01*
X57048Y-44360D01*
X57205Y-44424D01*
X57374Y-44425D01*
X57530Y-44360D01*
X57650Y-44241D01*
X57714Y-44084D01*
X57715Y-43915D01*
X57650Y-43759D01*
X57641Y-43750D01*
X94142Y-43750D01*
X94142Y-49851D01*
X94142Y-49851D01*
G37*
G54D18*
X94142Y-49851D02*
X93202Y-49851D01*
X93202Y-45140D01*
X93099Y-44889D01*
X92907Y-44696D01*
X92656Y-44592D01*
X92384Y-44592D01*
X92133Y-44696D01*
X91940Y-44888D01*
X91836Y-45139D01*
X91836Y-45410D01*
X91940Y-45662D01*
X92132Y-45854D01*
X92383Y-45958D01*
X92654Y-45958D01*
X92906Y-45855D01*
X93098Y-45663D01*
X93202Y-45412D01*
X93202Y-45140D01*
X93202Y-49851D01*
X87389Y-49851D01*
X87346Y-49747D01*
X87193Y-49594D01*
X86992Y-49510D01*
X86775Y-49510D01*
X86575Y-49593D01*
X86421Y-49746D01*
X86383Y-49838D01*
X86346Y-49747D01*
X86193Y-49594D01*
X85992Y-49510D01*
X85775Y-49510D01*
X85575Y-49593D01*
X85421Y-49746D01*
X85383Y-49838D01*
X85346Y-49747D01*
X85193Y-49594D01*
X84992Y-49510D01*
X84775Y-49510D01*
X84575Y-49593D01*
X84421Y-49746D01*
X84383Y-49838D01*
X84375Y-49817D01*
X84375Y-47685D01*
X84310Y-47529D01*
X84191Y-47409D01*
X84034Y-47345D01*
X83865Y-47344D01*
X83709Y-47409D01*
X83589Y-47528D01*
X83525Y-47685D01*
X83524Y-47854D01*
X83589Y-48010D01*
X83623Y-48044D01*
X83559Y-48108D01*
X83495Y-48265D01*
X83494Y-48434D01*
X83559Y-48590D01*
X83678Y-48710D01*
X83835Y-48774D01*
X84004Y-48775D01*
X84160Y-48710D01*
X84280Y-48591D01*
X84344Y-48434D01*
X84345Y-48265D01*
X84280Y-48109D01*
X84246Y-48075D01*
X84310Y-48011D01*
X84374Y-47854D01*
X84375Y-47685D01*
X84375Y-49817D01*
X84346Y-49747D01*
X84193Y-49594D01*
X83992Y-49510D01*
X83775Y-49510D01*
X83575Y-49593D01*
X83421Y-49746D01*
X83383Y-49838D01*
X83346Y-49747D01*
X83193Y-49594D01*
X82992Y-49510D01*
X82775Y-49510D01*
X82575Y-49593D01*
X82421Y-49746D01*
X82383Y-49838D01*
X82346Y-49747D01*
X82193Y-49594D01*
X81992Y-49510D01*
X81775Y-49510D01*
X81575Y-49593D01*
X81421Y-49746D01*
X81386Y-49832D01*
X81361Y-49771D01*
X81266Y-49744D01*
X81159Y-49851D01*
X81017Y-49851D01*
X81195Y-49673D01*
X81168Y-49578D01*
X80964Y-49506D01*
X80747Y-49517D01*
X80598Y-49578D01*
X80572Y-49673D01*
X80750Y-49851D01*
X80608Y-49851D01*
X80501Y-49744D01*
X80406Y-49771D01*
X80383Y-49836D01*
X80346Y-49747D01*
X80193Y-49594D01*
X79992Y-49510D01*
X79775Y-49510D01*
X79575Y-49593D01*
X79421Y-49746D01*
X79383Y-49838D01*
X79346Y-49747D01*
X79193Y-49594D01*
X78992Y-49510D01*
X78888Y-49510D01*
X78888Y-45422D01*
X58725Y-45422D01*
X58725Y-44615D01*
X58660Y-44459D01*
X58541Y-44339D01*
X58384Y-44275D01*
X58215Y-44274D01*
X58059Y-44339D01*
X57939Y-44458D01*
X57875Y-44615D01*
X57874Y-44784D01*
X57939Y-44940D01*
X58058Y-45060D01*
X58215Y-45124D01*
X58384Y-45125D01*
X58540Y-45060D01*
X58660Y-44941D01*
X58724Y-44784D01*
X58725Y-44615D01*
X58725Y-45422D01*
X56186Y-45422D01*
X56160Y-45359D01*
X56041Y-45239D01*
X55884Y-45175D01*
X55715Y-45174D01*
X55559Y-45239D01*
X55439Y-45358D01*
X55413Y-45422D01*
X54825Y-45422D01*
X54825Y-44715D01*
X54760Y-44559D01*
X54641Y-44439D01*
X54484Y-44375D01*
X54315Y-44374D01*
X54159Y-44439D01*
X54039Y-44558D01*
X53975Y-44715D01*
X53974Y-44884D01*
X54039Y-45040D01*
X54158Y-45160D01*
X54315Y-45224D01*
X54484Y-45225D01*
X54640Y-45160D01*
X54760Y-45041D01*
X54824Y-44884D01*
X54825Y-44715D01*
X54825Y-45422D01*
X45954Y-45422D01*
X45958Y-45412D01*
X45958Y-45140D01*
X45855Y-44889D01*
X45663Y-44696D01*
X45412Y-44592D01*
X45140Y-44592D01*
X44889Y-44696D01*
X44696Y-44888D01*
X44592Y-45139D01*
X44592Y-45410D01*
X44597Y-45422D01*
X40894Y-45422D01*
X40894Y-48768D01*
X40010Y-48768D01*
X40010Y-43750D01*
X56938Y-43750D01*
X56929Y-43758D01*
X56865Y-43915D01*
X56864Y-44084D01*
X56929Y-44240D01*
X57048Y-44360D01*
X57205Y-44424D01*
X57374Y-44425D01*
X57530Y-44360D01*
X57650Y-44241D01*
X57714Y-44084D01*
X57715Y-43915D01*
X57650Y-43759D01*
X57641Y-43750D01*
X94142Y-43750D01*
X94142Y-49851D01*
G54D10*
G36*
X94044Y-58709D02*
X93202Y-58709D01*
X93202Y-56951D01*
X93193Y-56929D01*
X93193Y-54856D01*
X93096Y-54620D01*
X92915Y-54438D01*
X92678Y-54340D01*
X92422Y-54340D01*
X92185Y-54438D01*
X92004Y-54619D01*
X91906Y-54855D01*
X91906Y-55111D01*
X92003Y-55348D01*
X92184Y-55529D01*
X92421Y-55627D01*
X92677Y-55628D01*
X92914Y-55530D01*
X93095Y-55349D01*
X93193Y-55112D01*
X93193Y-54856D01*
X93193Y-56929D01*
X93099Y-56700D01*
X92907Y-56507D01*
X92656Y-56403D01*
X92384Y-56403D01*
X92133Y-56507D01*
X91940Y-56699D01*
X91836Y-56950D01*
X91836Y-57221D01*
X91940Y-57473D01*
X92132Y-57665D01*
X92383Y-57769D01*
X92654Y-57769D01*
X92906Y-57666D01*
X93098Y-57474D01*
X93202Y-57223D01*
X93202Y-56951D01*
X93202Y-58709D01*
X91663Y-58709D01*
X91759Y-58614D01*
X91823Y-58457D01*
X91824Y-58288D01*
X91759Y-58132D01*
X91640Y-58012D01*
X91483Y-57948D01*
X91455Y-57948D01*
X91455Y-57335D01*
X91390Y-57179D01*
X91271Y-57059D01*
X91114Y-56995D01*
X90945Y-56994D01*
X90925Y-57003D01*
X90925Y-55835D01*
X90860Y-55679D01*
X90741Y-55559D01*
X90695Y-55540D01*
X90695Y-54025D01*
X90630Y-53869D01*
X90511Y-53749D01*
X90354Y-53685D01*
X90185Y-53684D01*
X90029Y-53749D01*
X89909Y-53868D01*
X89845Y-54025D01*
X89844Y-54194D01*
X89909Y-54350D01*
X90028Y-54470D01*
X90185Y-54534D01*
X90354Y-54535D01*
X90510Y-54470D01*
X90630Y-54351D01*
X90694Y-54194D01*
X90695Y-54025D01*
X90695Y-55540D01*
X90584Y-55495D01*
X90415Y-55494D01*
X90259Y-55559D01*
X90139Y-55678D01*
X90075Y-55835D01*
X90074Y-55994D01*
X89995Y-55994D01*
X89839Y-56059D01*
X89719Y-56178D01*
X89655Y-56335D01*
X89654Y-56504D01*
X89719Y-56660D01*
X89763Y-56704D01*
X89719Y-56748D01*
X89655Y-56905D01*
X89654Y-57074D01*
X89719Y-57230D01*
X89838Y-57350D01*
X89995Y-57414D01*
X90164Y-57415D01*
X90320Y-57350D01*
X90440Y-57231D01*
X90504Y-57074D01*
X90505Y-56905D01*
X90440Y-56749D01*
X90396Y-56705D01*
X90440Y-56661D01*
X90504Y-56504D01*
X90505Y-56345D01*
X90584Y-56345D01*
X90740Y-56280D01*
X90860Y-56161D01*
X90924Y-56004D01*
X90925Y-55835D01*
X90925Y-57003D01*
X90789Y-57059D01*
X90669Y-57178D01*
X90605Y-57335D01*
X90604Y-57504D01*
X90669Y-57660D01*
X90788Y-57780D01*
X90945Y-57844D01*
X91114Y-57845D01*
X91270Y-57780D01*
X91390Y-57661D01*
X91454Y-57504D01*
X91455Y-57335D01*
X91455Y-57948D01*
X91314Y-57947D01*
X91158Y-58012D01*
X91038Y-58131D01*
X90974Y-58288D01*
X90973Y-58457D01*
X91038Y-58613D01*
X91134Y-58709D01*
X86140Y-58709D01*
X86140Y-55530D01*
X86075Y-55374D01*
X85956Y-55254D01*
X85799Y-55190D01*
X85630Y-55189D01*
X85474Y-55254D01*
X85354Y-55373D01*
X85290Y-55530D01*
X85289Y-55699D01*
X85354Y-55855D01*
X85423Y-55925D01*
X85344Y-56003D01*
X85280Y-56160D01*
X85279Y-56329D01*
X85344Y-56485D01*
X85463Y-56605D01*
X85620Y-56669D01*
X85789Y-56670D01*
X85945Y-56605D01*
X86065Y-56486D01*
X86129Y-56329D01*
X86130Y-56160D01*
X86065Y-56004D01*
X85996Y-55934D01*
X86075Y-55856D01*
X86139Y-55699D01*
X86140Y-55530D01*
X86140Y-58709D01*
X86130Y-58709D01*
X86130Y-57720D01*
X86065Y-57564D01*
X85968Y-57467D01*
X86065Y-57371D01*
X86129Y-57214D01*
X86130Y-57045D01*
X86065Y-56889D01*
X85946Y-56769D01*
X85789Y-56705D01*
X85620Y-56704D01*
X85464Y-56769D01*
X85344Y-56888D01*
X85280Y-57045D01*
X85279Y-57214D01*
X85344Y-57370D01*
X85441Y-57467D01*
X85344Y-57563D01*
X85280Y-57720D01*
X85279Y-57889D01*
X85344Y-58045D01*
X85463Y-58165D01*
X85620Y-58229D01*
X85789Y-58230D01*
X85945Y-58165D01*
X86065Y-58046D01*
X86129Y-57889D01*
X86130Y-57720D01*
X86130Y-58709D01*
X81955Y-58709D01*
X81955Y-54255D01*
X81890Y-54099D01*
X81826Y-54034D01*
X81890Y-53971D01*
X81954Y-53814D01*
X81955Y-53645D01*
X81890Y-53489D01*
X81771Y-53369D01*
X81614Y-53305D01*
X81445Y-53304D01*
X81289Y-53369D01*
X81169Y-53488D01*
X81105Y-53645D01*
X81104Y-53814D01*
X81169Y-53970D01*
X81233Y-54035D01*
X81169Y-54098D01*
X81105Y-54255D01*
X81104Y-54424D01*
X81169Y-54580D01*
X81288Y-54700D01*
X81445Y-54764D01*
X81614Y-54765D01*
X81770Y-54700D01*
X81890Y-54581D01*
X81954Y-54424D01*
X81955Y-54255D01*
X81955Y-58709D01*
X45275Y-58709D01*
X45078Y-58709D01*
X40010Y-58709D01*
X40010Y-53593D01*
X40894Y-53593D01*
X40894Y-57431D01*
X44679Y-57431D01*
X44696Y-57473D01*
X44888Y-57665D01*
X45139Y-57769D01*
X45410Y-57769D01*
X45662Y-57666D01*
X45854Y-57474D01*
X45871Y-57431D01*
X78888Y-57431D01*
X78888Y-52535D01*
X78921Y-52614D01*
X79074Y-52768D01*
X79274Y-52851D01*
X79491Y-52851D01*
X79692Y-52768D01*
X79845Y-52615D01*
X79883Y-52523D01*
X79921Y-52614D01*
X80074Y-52768D01*
X80274Y-52851D01*
X80491Y-52851D01*
X80692Y-52768D01*
X80845Y-52615D01*
X80881Y-52530D01*
X80906Y-52591D01*
X81001Y-52617D01*
X81108Y-52510D01*
X81250Y-52510D01*
X81072Y-52688D01*
X81098Y-52783D01*
X81303Y-52856D01*
X81519Y-52845D01*
X81668Y-52783D01*
X81695Y-52688D01*
X81517Y-52510D01*
X81659Y-52510D01*
X81766Y-52617D01*
X81861Y-52591D01*
X81884Y-52525D01*
X81921Y-52614D01*
X82074Y-52768D01*
X82274Y-52851D01*
X82491Y-52851D01*
X82692Y-52768D01*
X82845Y-52615D01*
X82883Y-52523D01*
X82921Y-52614D01*
X83074Y-52768D01*
X83274Y-52851D01*
X83491Y-52851D01*
X83692Y-52768D01*
X83845Y-52615D01*
X83883Y-52523D01*
X83921Y-52614D01*
X84074Y-52768D01*
X84274Y-52851D01*
X84491Y-52851D01*
X84692Y-52768D01*
X84845Y-52615D01*
X84883Y-52523D01*
X84921Y-52614D01*
X85074Y-52768D01*
X85274Y-52851D01*
X85491Y-52851D01*
X85692Y-52768D01*
X85845Y-52615D01*
X85883Y-52523D01*
X85921Y-52614D01*
X86074Y-52768D01*
X86274Y-52851D01*
X86491Y-52851D01*
X86692Y-52768D01*
X86845Y-52615D01*
X86883Y-52523D01*
X86921Y-52614D01*
X87074Y-52768D01*
X87274Y-52851D01*
X87491Y-52851D01*
X87692Y-52768D01*
X87845Y-52615D01*
X87889Y-52510D01*
X92144Y-52510D01*
X92004Y-52650D01*
X91906Y-52887D01*
X91906Y-53143D01*
X92003Y-53379D01*
X92184Y-53561D01*
X92421Y-53659D01*
X92677Y-53659D01*
X92914Y-53561D01*
X93095Y-53380D01*
X93193Y-53144D01*
X93193Y-52888D01*
X93096Y-52651D01*
X92955Y-52510D01*
X94044Y-52510D01*
X94044Y-58709D01*
X94044Y-58709D01*
G37*
G54D18*
X94044Y-58709D02*
X93202Y-58709D01*
X93202Y-56951D01*
X93193Y-56929D01*
X93193Y-54856D01*
X93096Y-54620D01*
X92915Y-54438D01*
X92678Y-54340D01*
X92422Y-54340D01*
X92185Y-54438D01*
X92004Y-54619D01*
X91906Y-54855D01*
X91906Y-55111D01*
X92003Y-55348D01*
X92184Y-55529D01*
X92421Y-55627D01*
X92677Y-55628D01*
X92914Y-55530D01*
X93095Y-55349D01*
X93193Y-55112D01*
X93193Y-54856D01*
X93193Y-56929D01*
X93099Y-56700D01*
X92907Y-56507D01*
X92656Y-56403D01*
X92384Y-56403D01*
X92133Y-56507D01*
X91940Y-56699D01*
X91836Y-56950D01*
X91836Y-57221D01*
X91940Y-57473D01*
X92132Y-57665D01*
X92383Y-57769D01*
X92654Y-57769D01*
X92906Y-57666D01*
X93098Y-57474D01*
X93202Y-57223D01*
X93202Y-56951D01*
X93202Y-58709D01*
X91663Y-58709D01*
X91759Y-58614D01*
X91823Y-58457D01*
X91824Y-58288D01*
X91759Y-58132D01*
X91640Y-58012D01*
X91483Y-57948D01*
X91455Y-57948D01*
X91455Y-57335D01*
X91390Y-57179D01*
X91271Y-57059D01*
X91114Y-56995D01*
X90945Y-56994D01*
X90925Y-57003D01*
X90925Y-55835D01*
X90860Y-55679D01*
X90741Y-55559D01*
X90695Y-55540D01*
X90695Y-54025D01*
X90630Y-53869D01*
X90511Y-53749D01*
X90354Y-53685D01*
X90185Y-53684D01*
X90029Y-53749D01*
X89909Y-53868D01*
X89845Y-54025D01*
X89844Y-54194D01*
X89909Y-54350D01*
X90028Y-54470D01*
X90185Y-54534D01*
X90354Y-54535D01*
X90510Y-54470D01*
X90630Y-54351D01*
X90694Y-54194D01*
X90695Y-54025D01*
X90695Y-55540D01*
X90584Y-55495D01*
X90415Y-55494D01*
X90259Y-55559D01*
X90139Y-55678D01*
X90075Y-55835D01*
X90074Y-55994D01*
X89995Y-55994D01*
X89839Y-56059D01*
X89719Y-56178D01*
X89655Y-56335D01*
X89654Y-56504D01*
X89719Y-56660D01*
X89763Y-56704D01*
X89719Y-56748D01*
X89655Y-56905D01*
X89654Y-57074D01*
X89719Y-57230D01*
X89838Y-57350D01*
X89995Y-57414D01*
X90164Y-57415D01*
X90320Y-57350D01*
X90440Y-57231D01*
X90504Y-57074D01*
X90505Y-56905D01*
X90440Y-56749D01*
X90396Y-56705D01*
X90440Y-56661D01*
X90504Y-56504D01*
X90505Y-56345D01*
X90584Y-56345D01*
X90740Y-56280D01*
X90860Y-56161D01*
X90924Y-56004D01*
X90925Y-55835D01*
X90925Y-57003D01*
X90789Y-57059D01*
X90669Y-57178D01*
X90605Y-57335D01*
X90604Y-57504D01*
X90669Y-57660D01*
X90788Y-57780D01*
X90945Y-57844D01*
X91114Y-57845D01*
X91270Y-57780D01*
X91390Y-57661D01*
X91454Y-57504D01*
X91455Y-57335D01*
X91455Y-57948D01*
X91314Y-57947D01*
X91158Y-58012D01*
X91038Y-58131D01*
X90974Y-58288D01*
X90973Y-58457D01*
X91038Y-58613D01*
X91134Y-58709D01*
X86140Y-58709D01*
X86140Y-55530D01*
X86075Y-55374D01*
X85956Y-55254D01*
X85799Y-55190D01*
X85630Y-55189D01*
X85474Y-55254D01*
X85354Y-55373D01*
X85290Y-55530D01*
X85289Y-55699D01*
X85354Y-55855D01*
X85423Y-55925D01*
X85344Y-56003D01*
X85280Y-56160D01*
X85279Y-56329D01*
X85344Y-56485D01*
X85463Y-56605D01*
X85620Y-56669D01*
X85789Y-56670D01*
X85945Y-56605D01*
X86065Y-56486D01*
X86129Y-56329D01*
X86130Y-56160D01*
X86065Y-56004D01*
X85996Y-55934D01*
X86075Y-55856D01*
X86139Y-55699D01*
X86140Y-55530D01*
X86140Y-58709D01*
X86130Y-58709D01*
X86130Y-57720D01*
X86065Y-57564D01*
X85968Y-57467D01*
X86065Y-57371D01*
X86129Y-57214D01*
X86130Y-57045D01*
X86065Y-56889D01*
X85946Y-56769D01*
X85789Y-56705D01*
X85620Y-56704D01*
X85464Y-56769D01*
X85344Y-56888D01*
X85280Y-57045D01*
X85279Y-57214D01*
X85344Y-57370D01*
X85441Y-57467D01*
X85344Y-57563D01*
X85280Y-57720D01*
X85279Y-57889D01*
X85344Y-58045D01*
X85463Y-58165D01*
X85620Y-58229D01*
X85789Y-58230D01*
X85945Y-58165D01*
X86065Y-58046D01*
X86129Y-57889D01*
X86130Y-57720D01*
X86130Y-58709D01*
X81955Y-58709D01*
X81955Y-54255D01*
X81890Y-54099D01*
X81826Y-54034D01*
X81890Y-53971D01*
X81954Y-53814D01*
X81955Y-53645D01*
X81890Y-53489D01*
X81771Y-53369D01*
X81614Y-53305D01*
X81445Y-53304D01*
X81289Y-53369D01*
X81169Y-53488D01*
X81105Y-53645D01*
X81104Y-53814D01*
X81169Y-53970D01*
X81233Y-54035D01*
X81169Y-54098D01*
X81105Y-54255D01*
X81104Y-54424D01*
X81169Y-54580D01*
X81288Y-54700D01*
X81445Y-54764D01*
X81614Y-54765D01*
X81770Y-54700D01*
X81890Y-54581D01*
X81954Y-54424D01*
X81955Y-54255D01*
X81955Y-58709D01*
X45275Y-58709D01*
X45078Y-58709D01*
X40010Y-58709D01*
X40010Y-53593D01*
X40894Y-53593D01*
X40894Y-57431D01*
X44679Y-57431D01*
X44696Y-57473D01*
X44888Y-57665D01*
X45139Y-57769D01*
X45410Y-57769D01*
X45662Y-57666D01*
X45854Y-57474D01*
X45871Y-57431D01*
X78888Y-57431D01*
X78888Y-52535D01*
X78921Y-52614D01*
X79074Y-52768D01*
X79274Y-52851D01*
X79491Y-52851D01*
X79692Y-52768D01*
X79845Y-52615D01*
X79883Y-52523D01*
X79921Y-52614D01*
X80074Y-52768D01*
X80274Y-52851D01*
X80491Y-52851D01*
X80692Y-52768D01*
X80845Y-52615D01*
X80881Y-52530D01*
X80906Y-52591D01*
X81001Y-52617D01*
X81108Y-52510D01*
X81250Y-52510D01*
X81072Y-52688D01*
X81098Y-52783D01*
X81303Y-52856D01*
X81519Y-52845D01*
X81668Y-52783D01*
X81695Y-52688D01*
X81517Y-52510D01*
X81659Y-52510D01*
X81766Y-52617D01*
X81861Y-52591D01*
X81884Y-52525D01*
X81921Y-52614D01*
X82074Y-52768D01*
X82274Y-52851D01*
X82491Y-52851D01*
X82692Y-52768D01*
X82845Y-52615D01*
X82883Y-52523D01*
X82921Y-52614D01*
X83074Y-52768D01*
X83274Y-52851D01*
X83491Y-52851D01*
X83692Y-52768D01*
X83845Y-52615D01*
X83883Y-52523D01*
X83921Y-52614D01*
X84074Y-52768D01*
X84274Y-52851D01*
X84491Y-52851D01*
X84692Y-52768D01*
X84845Y-52615D01*
X84883Y-52523D01*
X84921Y-52614D01*
X85074Y-52768D01*
X85274Y-52851D01*
X85491Y-52851D01*
X85692Y-52768D01*
X85845Y-52615D01*
X85883Y-52523D01*
X85921Y-52614D01*
X86074Y-52768D01*
X86274Y-52851D01*
X86491Y-52851D01*
X86692Y-52768D01*
X86845Y-52615D01*
X86883Y-52523D01*
X86921Y-52614D01*
X87074Y-52768D01*
X87274Y-52851D01*
X87491Y-52851D01*
X87692Y-52768D01*
X87845Y-52615D01*
X87889Y-52510D01*
X92144Y-52510D01*
X92004Y-52650D01*
X91906Y-52887D01*
X91906Y-53143D01*
X92003Y-53379D01*
X92184Y-53561D01*
X92421Y-53659D01*
X92677Y-53659D01*
X92914Y-53561D01*
X93095Y-53380D01*
X93193Y-53144D01*
X93193Y-52888D01*
X93096Y-52651D01*
X92955Y-52510D01*
X94044Y-52510D01*
X94044Y-58709D01*
M02*
