G04 (created by PCBNEW (2013-jul-07)-stable) date Fri 08 Aug 2014 03:36:14 PM CDT*
%MOIN*%
G04 Gerber Fmt 3.4, Leading zero omitted, Abs format*
%FSLAX34Y34*%
G01*
G70*
G90*
G04 APERTURE LIST*
%ADD10C,0.00590551*%
%ADD11C,0.0590551*%
%ADD12C,0.11811*%
%ADD13R,0.06X0.06*%
%ADD14C,0.06*%
%ADD15C,0.0787402*%
%ADD16C,0.0866142*%
%ADD17C,0.035*%
%ADD18C,0.011811*%
%ADD19C,0.01*%
G04 APERTURE END LIST*
G54D10*
G54D11*
X51525Y-29750D03*
X51525Y-31250D03*
X51025Y-29000D03*
X51025Y-30500D03*
X50525Y-29750D03*
X50525Y-31250D03*
X50025Y-29000D03*
X50025Y-30500D03*
X49525Y-29750D03*
X49525Y-31250D03*
X49025Y-29000D03*
X49025Y-30500D03*
X48525Y-29750D03*
X48525Y-31250D03*
X48025Y-29000D03*
X48025Y-30500D03*
X47525Y-29750D03*
X47525Y-31250D03*
X47025Y-29000D03*
X47025Y-30500D03*
X46525Y-29750D03*
X46525Y-31250D03*
X46025Y-29000D03*
X46025Y-30500D03*
X45525Y-29750D03*
X45525Y-31250D03*
X45025Y-29000D03*
X45025Y-30500D03*
X44525Y-29750D03*
X44525Y-31250D03*
X44025Y-29000D03*
X44025Y-30500D03*
X43525Y-29750D03*
X43525Y-31250D03*
X43025Y-29000D03*
X43025Y-30500D03*
X42525Y-29750D03*
X42525Y-31250D03*
X42025Y-29000D03*
X42025Y-30500D03*
X41525Y-29750D03*
X41525Y-31250D03*
X41025Y-29000D03*
X41025Y-30500D03*
X40525Y-29750D03*
X40525Y-31250D03*
X40025Y-29000D03*
X40025Y-30500D03*
X39525Y-29750D03*
X39525Y-31250D03*
X39025Y-29000D03*
X39025Y-30500D03*
X38525Y-29750D03*
X38525Y-31250D03*
X38025Y-29000D03*
X38025Y-30500D03*
X37525Y-29750D03*
X37525Y-31250D03*
X37025Y-29000D03*
X37025Y-30500D03*
X36525Y-29750D03*
X36525Y-31250D03*
X36025Y-29000D03*
X36025Y-30500D03*
X35525Y-29750D03*
X35525Y-31250D03*
X35025Y-29000D03*
X35025Y-30500D03*
G54D12*
X31875Y-30125D03*
X54675Y-30125D03*
G54D13*
X50145Y-34660D03*
G54D14*
X50145Y-35660D03*
G54D15*
X23425Y-25196D03*
G54D16*
X25393Y-25196D03*
X57480Y-25196D03*
X57480Y-37795D03*
X21259Y-37795D03*
X21259Y-25196D03*
G54D17*
X37834Y-26141D03*
X40280Y-34650D03*
X55220Y-32690D03*
X26110Y-34890D03*
X37362Y-26141D03*
X36889Y-26141D03*
X36060Y-34650D03*
X38640Y-34680D03*
X34260Y-36110D03*
X34200Y-35300D03*
X25629Y-27716D03*
X22677Y-29173D03*
X23110Y-29173D03*
X23543Y-29173D03*
X23976Y-29173D03*
X22125Y-31259D03*
X22637Y-31259D03*
X22125Y-31771D03*
X22677Y-31771D03*
X22677Y-33779D03*
X23110Y-33779D03*
X23503Y-33779D03*
X23897Y-33779D03*
X24921Y-35000D03*
X26850Y-38031D03*
X54370Y-37992D03*
X54921Y-37992D03*
X55393Y-37992D03*
X55905Y-37992D03*
X52440Y-33700D03*
X52440Y-34488D03*
X54881Y-33661D03*
X37874Y-36181D03*
X27360Y-31510D03*
X23900Y-31510D03*
X57230Y-31680D03*
X57230Y-33500D03*
X24900Y-38500D03*
X40000Y-26141D03*
X26710Y-34890D03*
X36020Y-36770D03*
X22160Y-30160D03*
X22650Y-30150D03*
X25580Y-30220D03*
X25590Y-29720D03*
X23425Y-27795D03*
X22690Y-32970D03*
X22230Y-32980D03*
X25600Y-32770D03*
X25590Y-33310D03*
X23740Y-35590D03*
G54D18*
X36025Y-30500D02*
X37025Y-30500D01*
X36025Y-31730D02*
X35984Y-31771D01*
X36025Y-30500D02*
X36025Y-31730D01*
X37025Y-31946D02*
X37047Y-31968D01*
X37025Y-30500D02*
X37025Y-31946D01*
X41525Y-28493D02*
X41456Y-28425D01*
X41525Y-29750D02*
X41525Y-28493D01*
X46025Y-31770D02*
X46023Y-31771D01*
X46025Y-30500D02*
X46025Y-31770D01*
X46525Y-28099D02*
X46496Y-28070D01*
X46525Y-29750D02*
X46525Y-28099D01*
X49025Y-31820D02*
X49212Y-32007D01*
X49025Y-30500D02*
X49025Y-31820D01*
X49525Y-28703D02*
X49566Y-28661D01*
X49525Y-29750D02*
X49525Y-28703D01*
X51783Y-30500D02*
X51811Y-30472D01*
X51025Y-30500D02*
X51783Y-30500D01*
G54D10*
G36*
X36101Y-30505D02*
X36030Y-30576D01*
X36025Y-30570D01*
X36019Y-30576D01*
X35948Y-30505D01*
X35954Y-30500D01*
X35948Y-30494D01*
X36019Y-30423D01*
X36025Y-30429D01*
X36030Y-30423D01*
X36101Y-30494D01*
X36095Y-30500D01*
X36101Y-30505D01*
X36101Y-30505D01*
G37*
G54D19*
X36101Y-30505D02*
X36030Y-30576D01*
X36025Y-30570D01*
X36019Y-30576D01*
X35948Y-30505D01*
X35954Y-30500D01*
X35948Y-30494D01*
X36019Y-30423D01*
X36025Y-30429D01*
X36030Y-30423D01*
X36101Y-30494D01*
X36095Y-30500D01*
X36101Y-30505D01*
G54D10*
G36*
X37101Y-30505D02*
X37030Y-30576D01*
X37025Y-30570D01*
X37019Y-30576D01*
X36948Y-30505D01*
X36954Y-30500D01*
X36948Y-30494D01*
X37019Y-30423D01*
X37025Y-30429D01*
X37030Y-30423D01*
X37101Y-30494D01*
X37095Y-30500D01*
X37101Y-30505D01*
X37101Y-30505D01*
G37*
G54D19*
X37101Y-30505D02*
X37030Y-30576D01*
X37025Y-30570D01*
X37019Y-30576D01*
X36948Y-30505D01*
X36954Y-30500D01*
X36948Y-30494D01*
X37019Y-30423D01*
X37025Y-30429D01*
X37030Y-30423D01*
X37101Y-30494D01*
X37095Y-30500D01*
X37101Y-30505D01*
G54D10*
G36*
X41601Y-29755D02*
X41530Y-29826D01*
X41525Y-29820D01*
X41519Y-29826D01*
X41448Y-29755D01*
X41454Y-29750D01*
X41448Y-29744D01*
X41519Y-29673D01*
X41525Y-29679D01*
X41530Y-29673D01*
X41601Y-29744D01*
X41595Y-29750D01*
X41601Y-29755D01*
X41601Y-29755D01*
G37*
G54D19*
X41601Y-29755D02*
X41530Y-29826D01*
X41525Y-29820D01*
X41519Y-29826D01*
X41448Y-29755D01*
X41454Y-29750D01*
X41448Y-29744D01*
X41519Y-29673D01*
X41525Y-29679D01*
X41530Y-29673D01*
X41601Y-29744D01*
X41595Y-29750D01*
X41601Y-29755D01*
G54D10*
G36*
X46101Y-30505D02*
X46030Y-30576D01*
X46025Y-30570D01*
X46019Y-30576D01*
X45948Y-30505D01*
X45954Y-30500D01*
X45948Y-30494D01*
X46019Y-30423D01*
X46025Y-30429D01*
X46030Y-30423D01*
X46101Y-30494D01*
X46095Y-30500D01*
X46101Y-30505D01*
X46101Y-30505D01*
G37*
G54D19*
X46101Y-30505D02*
X46030Y-30576D01*
X46025Y-30570D01*
X46019Y-30576D01*
X45948Y-30505D01*
X45954Y-30500D01*
X45948Y-30494D01*
X46019Y-30423D01*
X46025Y-30429D01*
X46030Y-30423D01*
X46101Y-30494D01*
X46095Y-30500D01*
X46101Y-30505D01*
G54D10*
G36*
X46601Y-29755D02*
X46530Y-29826D01*
X46525Y-29820D01*
X46519Y-29826D01*
X46448Y-29755D01*
X46454Y-29750D01*
X46448Y-29744D01*
X46519Y-29673D01*
X46525Y-29679D01*
X46530Y-29673D01*
X46601Y-29744D01*
X46595Y-29750D01*
X46601Y-29755D01*
X46601Y-29755D01*
G37*
G54D19*
X46601Y-29755D02*
X46530Y-29826D01*
X46525Y-29820D01*
X46519Y-29826D01*
X46448Y-29755D01*
X46454Y-29750D01*
X46448Y-29744D01*
X46519Y-29673D01*
X46525Y-29679D01*
X46530Y-29673D01*
X46601Y-29744D01*
X46595Y-29750D01*
X46601Y-29755D01*
G54D10*
G36*
X49101Y-30505D02*
X49030Y-30576D01*
X49025Y-30570D01*
X49019Y-30576D01*
X48948Y-30505D01*
X48954Y-30500D01*
X48948Y-30494D01*
X49019Y-30423D01*
X49025Y-30429D01*
X49030Y-30423D01*
X49101Y-30494D01*
X49095Y-30500D01*
X49101Y-30505D01*
X49101Y-30505D01*
G37*
G54D19*
X49101Y-30505D02*
X49030Y-30576D01*
X49025Y-30570D01*
X49019Y-30576D01*
X48948Y-30505D01*
X48954Y-30500D01*
X48948Y-30494D01*
X49019Y-30423D01*
X49025Y-30429D01*
X49030Y-30423D01*
X49101Y-30494D01*
X49095Y-30500D01*
X49101Y-30505D01*
G54D10*
G36*
X49601Y-29755D02*
X49530Y-29826D01*
X49525Y-29820D01*
X49519Y-29826D01*
X49448Y-29755D01*
X49454Y-29750D01*
X49448Y-29744D01*
X49519Y-29673D01*
X49525Y-29679D01*
X49530Y-29673D01*
X49601Y-29744D01*
X49595Y-29750D01*
X49601Y-29755D01*
X49601Y-29755D01*
G37*
G54D19*
X49601Y-29755D02*
X49530Y-29826D01*
X49525Y-29820D01*
X49519Y-29826D01*
X49448Y-29755D01*
X49454Y-29750D01*
X49448Y-29744D01*
X49519Y-29673D01*
X49525Y-29679D01*
X49530Y-29673D01*
X49601Y-29744D01*
X49595Y-29750D01*
X49601Y-29755D01*
G54D10*
G36*
X51101Y-30505D02*
X51030Y-30576D01*
X51025Y-30570D01*
X51019Y-30576D01*
X50948Y-30505D01*
X50954Y-30500D01*
X50948Y-30494D01*
X51019Y-30423D01*
X51025Y-30429D01*
X51030Y-30423D01*
X51101Y-30494D01*
X51095Y-30500D01*
X51101Y-30505D01*
X51101Y-30505D01*
G37*
G54D19*
X51101Y-30505D02*
X51030Y-30576D01*
X51025Y-30570D01*
X51019Y-30576D01*
X50948Y-30505D01*
X50954Y-30500D01*
X50948Y-30494D01*
X51019Y-30423D01*
X51025Y-30429D01*
X51030Y-30423D01*
X51101Y-30494D01*
X51095Y-30500D01*
X51101Y-30505D01*
G54D10*
G36*
X58611Y-38926D02*
X58163Y-38926D01*
X58163Y-37660D01*
X58163Y-25061D01*
X58059Y-24810D01*
X57867Y-24618D01*
X57616Y-24513D01*
X57345Y-24513D01*
X57093Y-24617D01*
X56901Y-24809D01*
X56797Y-25060D01*
X56797Y-25332D01*
X56900Y-25583D01*
X57092Y-25775D01*
X57343Y-25879D01*
X57615Y-25880D01*
X57866Y-25776D01*
X58059Y-25584D01*
X58163Y-25333D01*
X58163Y-25061D01*
X58163Y-37660D01*
X58059Y-37408D01*
X57867Y-37216D01*
X57655Y-37128D01*
X57655Y-33415D01*
X57655Y-31595D01*
X57590Y-31439D01*
X57471Y-31319D01*
X57314Y-31255D01*
X57145Y-31254D01*
X56989Y-31319D01*
X56869Y-31438D01*
X56805Y-31595D01*
X56804Y-31764D01*
X56869Y-31920D01*
X56988Y-32040D01*
X57145Y-32104D01*
X57314Y-32105D01*
X57470Y-32040D01*
X57590Y-31921D01*
X57654Y-31764D01*
X57655Y-31595D01*
X57655Y-33415D01*
X57590Y-33259D01*
X57471Y-33139D01*
X57314Y-33075D01*
X57145Y-33074D01*
X56989Y-33139D01*
X56869Y-33258D01*
X56805Y-33415D01*
X56804Y-33584D01*
X56869Y-33740D01*
X56988Y-33860D01*
X57145Y-33924D01*
X57314Y-33925D01*
X57470Y-33860D01*
X57590Y-33741D01*
X57654Y-33584D01*
X57655Y-33415D01*
X57655Y-37128D01*
X57616Y-37112D01*
X57345Y-37112D01*
X57093Y-37215D01*
X56901Y-37407D01*
X56797Y-37658D01*
X56797Y-37930D01*
X56900Y-38181D01*
X57092Y-38374D01*
X57343Y-38478D01*
X57615Y-38478D01*
X57866Y-38374D01*
X58059Y-38182D01*
X58163Y-37931D01*
X58163Y-37660D01*
X58163Y-38926D01*
X55645Y-38926D01*
X55645Y-32605D01*
X55580Y-32449D01*
X55515Y-32384D01*
X55515Y-29958D01*
X55388Y-29649D01*
X55151Y-29412D01*
X54842Y-29284D01*
X54508Y-29284D01*
X54199Y-29412D01*
X53962Y-29648D01*
X53834Y-29957D01*
X53834Y-30291D01*
X53962Y-30600D01*
X54198Y-30837D01*
X54507Y-30965D01*
X54841Y-30965D01*
X55150Y-30838D01*
X55387Y-30601D01*
X55515Y-30292D01*
X55515Y-29958D01*
X55515Y-32384D01*
X55461Y-32329D01*
X55304Y-32265D01*
X55135Y-32264D01*
X54979Y-32329D01*
X54859Y-32448D01*
X54795Y-32605D01*
X54794Y-32774D01*
X54859Y-32930D01*
X54978Y-33050D01*
X55135Y-33114D01*
X55304Y-33115D01*
X55460Y-33050D01*
X55580Y-32931D01*
X55644Y-32774D01*
X55645Y-32605D01*
X55645Y-38926D01*
X52075Y-38926D01*
X52075Y-29830D01*
X52064Y-29613D01*
X52002Y-29464D01*
X51907Y-29438D01*
X51595Y-29750D01*
X51907Y-30061D01*
X52002Y-30035D01*
X52075Y-29830D01*
X52075Y-38926D01*
X52070Y-38926D01*
X52070Y-31142D01*
X51987Y-30941D01*
X51834Y-30788D01*
X51633Y-30704D01*
X51530Y-30704D01*
X51575Y-30580D01*
X51564Y-30363D01*
X51535Y-30295D01*
X51661Y-30289D01*
X51810Y-30227D01*
X51836Y-30132D01*
X51525Y-29820D01*
X51519Y-29826D01*
X51448Y-29755D01*
X51454Y-29750D01*
X51448Y-29744D01*
X51519Y-29673D01*
X51525Y-29679D01*
X51836Y-29367D01*
X51810Y-29272D01*
X51605Y-29199D01*
X51530Y-29203D01*
X51570Y-29108D01*
X51570Y-28892D01*
X51487Y-28691D01*
X51334Y-28538D01*
X51133Y-28454D01*
X50917Y-28454D01*
X50716Y-28537D01*
X50563Y-28690D01*
X50525Y-28782D01*
X50487Y-28691D01*
X50334Y-28538D01*
X50133Y-28454D01*
X49917Y-28454D01*
X49716Y-28537D01*
X49563Y-28690D01*
X49525Y-28782D01*
X49487Y-28691D01*
X49334Y-28538D01*
X49133Y-28454D01*
X48917Y-28454D01*
X48716Y-28537D01*
X48563Y-28690D01*
X48527Y-28775D01*
X48502Y-28714D01*
X48407Y-28688D01*
X48336Y-28758D01*
X48336Y-28617D01*
X48310Y-28522D01*
X48105Y-28449D01*
X47888Y-28460D01*
X47739Y-28522D01*
X47713Y-28617D01*
X48025Y-28929D01*
X48336Y-28617D01*
X48336Y-28758D01*
X48095Y-29000D01*
X48101Y-29005D01*
X48030Y-29076D01*
X48025Y-29070D01*
X48019Y-29076D01*
X47948Y-29005D01*
X47954Y-29000D01*
X47642Y-28688D01*
X47547Y-28714D01*
X47524Y-28780D01*
X47487Y-28691D01*
X47334Y-28538D01*
X47133Y-28454D01*
X46917Y-28454D01*
X46716Y-28537D01*
X46563Y-28690D01*
X46525Y-28782D01*
X46487Y-28691D01*
X46334Y-28538D01*
X46133Y-28454D01*
X45917Y-28454D01*
X45716Y-28537D01*
X45563Y-28690D01*
X45525Y-28782D01*
X45487Y-28691D01*
X45334Y-28538D01*
X45133Y-28454D01*
X44917Y-28454D01*
X44716Y-28537D01*
X44563Y-28690D01*
X44525Y-28782D01*
X44487Y-28691D01*
X44334Y-28538D01*
X44133Y-28454D01*
X43917Y-28454D01*
X43716Y-28537D01*
X43563Y-28690D01*
X43527Y-28775D01*
X43502Y-28714D01*
X43407Y-28688D01*
X43336Y-28758D01*
X43336Y-28617D01*
X43310Y-28522D01*
X43105Y-28449D01*
X42888Y-28460D01*
X42739Y-28522D01*
X42713Y-28617D01*
X43025Y-28929D01*
X43336Y-28617D01*
X43336Y-28758D01*
X43095Y-29000D01*
X43101Y-29005D01*
X43030Y-29076D01*
X43025Y-29070D01*
X43019Y-29076D01*
X42948Y-29005D01*
X42954Y-29000D01*
X42642Y-28688D01*
X42547Y-28714D01*
X42524Y-28780D01*
X42487Y-28691D01*
X42334Y-28538D01*
X42133Y-28454D01*
X41917Y-28454D01*
X41716Y-28537D01*
X41563Y-28690D01*
X41525Y-28782D01*
X41487Y-28691D01*
X41334Y-28538D01*
X41133Y-28454D01*
X40917Y-28454D01*
X40716Y-28537D01*
X40563Y-28690D01*
X40525Y-28782D01*
X40487Y-28691D01*
X40425Y-28628D01*
X40425Y-26057D01*
X40360Y-25901D01*
X40241Y-25781D01*
X40084Y-25716D01*
X39915Y-25716D01*
X39759Y-25781D01*
X39639Y-25900D01*
X39575Y-26056D01*
X39574Y-26225D01*
X39639Y-26382D01*
X39758Y-26501D01*
X39915Y-26566D01*
X40084Y-26566D01*
X40240Y-26502D01*
X40360Y-26382D01*
X40424Y-26226D01*
X40425Y-26057D01*
X40425Y-28628D01*
X40334Y-28538D01*
X40133Y-28454D01*
X39917Y-28454D01*
X39716Y-28537D01*
X39563Y-28690D01*
X39525Y-28782D01*
X39487Y-28691D01*
X39334Y-28538D01*
X39133Y-28454D01*
X38917Y-28454D01*
X38716Y-28537D01*
X38563Y-28690D01*
X38525Y-28782D01*
X38487Y-28691D01*
X38334Y-28538D01*
X38259Y-28507D01*
X38259Y-26057D01*
X38195Y-25901D01*
X38075Y-25781D01*
X37919Y-25716D01*
X37750Y-25716D01*
X37598Y-25779D01*
X37447Y-25716D01*
X37278Y-25716D01*
X37125Y-25779D01*
X36974Y-25716D01*
X36805Y-25716D01*
X36649Y-25781D01*
X36529Y-25900D01*
X36464Y-26056D01*
X36464Y-26225D01*
X36529Y-26382D01*
X36648Y-26501D01*
X36804Y-26566D01*
X36973Y-26566D01*
X37126Y-26503D01*
X37277Y-26566D01*
X37446Y-26566D01*
X37598Y-26503D01*
X37749Y-26566D01*
X37918Y-26566D01*
X38075Y-26502D01*
X38194Y-26382D01*
X38259Y-26226D01*
X38259Y-26057D01*
X38259Y-28507D01*
X38133Y-28454D01*
X37917Y-28454D01*
X37716Y-28537D01*
X37563Y-28690D01*
X37525Y-28782D01*
X37487Y-28691D01*
X37334Y-28538D01*
X37133Y-28454D01*
X36917Y-28454D01*
X36716Y-28537D01*
X36563Y-28690D01*
X36525Y-28782D01*
X36487Y-28691D01*
X36334Y-28538D01*
X36133Y-28454D01*
X35917Y-28454D01*
X35716Y-28537D01*
X35563Y-28690D01*
X35525Y-28782D01*
X35487Y-28691D01*
X35334Y-28538D01*
X35133Y-28454D01*
X34917Y-28454D01*
X34716Y-28537D01*
X34563Y-28690D01*
X34479Y-28891D01*
X34479Y-28926D01*
X32587Y-28926D01*
X32587Y-29649D01*
X32351Y-29412D01*
X32042Y-29284D01*
X31708Y-29284D01*
X31399Y-29412D01*
X31162Y-29648D01*
X31034Y-29957D01*
X31034Y-30291D01*
X31162Y-30600D01*
X31398Y-30837D01*
X31707Y-30965D01*
X32041Y-30965D01*
X32350Y-30838D01*
X32587Y-30601D01*
X32587Y-30600D01*
X32587Y-32254D01*
X35641Y-32254D01*
X35635Y-31794D01*
X35833Y-31712D01*
X35986Y-31559D01*
X36024Y-31467D01*
X36062Y-31558D01*
X36215Y-31711D01*
X36416Y-31795D01*
X36632Y-31795D01*
X36833Y-31712D01*
X36986Y-31559D01*
X37024Y-31467D01*
X37062Y-31558D01*
X37215Y-31711D01*
X37416Y-31795D01*
X37632Y-31795D01*
X37833Y-31712D01*
X37986Y-31559D01*
X38024Y-31467D01*
X38062Y-31558D01*
X38215Y-31711D01*
X38416Y-31795D01*
X38632Y-31795D01*
X38833Y-31712D01*
X38986Y-31559D01*
X39024Y-31467D01*
X39062Y-31558D01*
X39215Y-31711D01*
X39416Y-31795D01*
X39632Y-31795D01*
X39833Y-31712D01*
X39986Y-31559D01*
X40022Y-31474D01*
X40047Y-31535D01*
X40142Y-31561D01*
X40454Y-31250D01*
X40448Y-31244D01*
X40519Y-31173D01*
X40525Y-31179D01*
X40530Y-31173D01*
X40601Y-31244D01*
X40595Y-31250D01*
X40907Y-31561D01*
X41002Y-31535D01*
X41025Y-31469D01*
X41062Y-31558D01*
X41215Y-31711D01*
X41416Y-31795D01*
X41632Y-31795D01*
X41833Y-31712D01*
X41986Y-31559D01*
X42022Y-31474D01*
X42047Y-31535D01*
X42142Y-31561D01*
X42454Y-31250D01*
X42448Y-31244D01*
X42519Y-31173D01*
X42525Y-31179D01*
X42530Y-31173D01*
X42601Y-31244D01*
X42595Y-31250D01*
X42907Y-31561D01*
X43002Y-31535D01*
X43025Y-31469D01*
X43062Y-31558D01*
X43215Y-31711D01*
X43416Y-31795D01*
X43632Y-31795D01*
X43833Y-31712D01*
X43986Y-31559D01*
X44022Y-31474D01*
X44047Y-31535D01*
X44142Y-31561D01*
X44454Y-31250D01*
X44448Y-31244D01*
X44519Y-31173D01*
X44525Y-31179D01*
X44530Y-31173D01*
X44601Y-31244D01*
X44595Y-31250D01*
X44907Y-31561D01*
X45002Y-31535D01*
X45025Y-31469D01*
X45062Y-31558D01*
X45215Y-31711D01*
X45416Y-31795D01*
X45632Y-31795D01*
X45833Y-31712D01*
X45986Y-31559D01*
X46024Y-31467D01*
X46062Y-31558D01*
X46215Y-31711D01*
X46416Y-31795D01*
X46632Y-31795D01*
X46833Y-31712D01*
X46986Y-31559D01*
X47022Y-31474D01*
X47047Y-31535D01*
X47142Y-31561D01*
X47454Y-31250D01*
X47448Y-31244D01*
X47519Y-31173D01*
X47525Y-31179D01*
X47530Y-31173D01*
X47601Y-31244D01*
X47595Y-31250D01*
X47907Y-31561D01*
X48002Y-31535D01*
X48025Y-31469D01*
X48062Y-31558D01*
X48215Y-31711D01*
X48416Y-31795D01*
X48632Y-31795D01*
X48833Y-31712D01*
X48986Y-31559D01*
X49024Y-31467D01*
X49062Y-31558D01*
X49215Y-31711D01*
X49416Y-31795D01*
X49632Y-31795D01*
X49833Y-31712D01*
X49986Y-31559D01*
X50022Y-31474D01*
X50047Y-31535D01*
X50142Y-31561D01*
X50454Y-31250D01*
X50448Y-31244D01*
X50519Y-31173D01*
X50525Y-31179D01*
X50530Y-31173D01*
X50601Y-31244D01*
X50595Y-31250D01*
X50907Y-31561D01*
X51002Y-31535D01*
X51025Y-31469D01*
X51062Y-31558D01*
X51215Y-31711D01*
X51416Y-31795D01*
X51632Y-31795D01*
X51833Y-31712D01*
X51986Y-31559D01*
X52070Y-31358D01*
X52070Y-31142D01*
X52070Y-38926D01*
X50836Y-38926D01*
X50836Y-31632D01*
X50525Y-31320D01*
X50213Y-31632D01*
X50239Y-31727D01*
X50444Y-31800D01*
X50661Y-31789D01*
X50810Y-31727D01*
X50836Y-31632D01*
X50836Y-38926D01*
X50695Y-38926D01*
X50695Y-35551D01*
X50611Y-35348D01*
X50472Y-35210D01*
X50494Y-35210D01*
X50586Y-35172D01*
X50656Y-35101D01*
X50694Y-35009D01*
X50695Y-34910D01*
X50695Y-34310D01*
X50657Y-34218D01*
X50586Y-34148D01*
X50494Y-34110D01*
X50395Y-34109D01*
X49795Y-34109D01*
X49703Y-34147D01*
X49633Y-34218D01*
X49595Y-34310D01*
X49594Y-34409D01*
X49594Y-35009D01*
X49632Y-35101D01*
X49703Y-35171D01*
X49795Y-35209D01*
X49817Y-35209D01*
X49679Y-35348D01*
X49595Y-35550D01*
X49594Y-35768D01*
X49678Y-35971D01*
X49833Y-36125D01*
X50035Y-36209D01*
X50253Y-36210D01*
X50456Y-36126D01*
X50610Y-35971D01*
X50694Y-35769D01*
X50695Y-35551D01*
X50695Y-38926D01*
X47836Y-38926D01*
X47836Y-31632D01*
X47525Y-31320D01*
X47213Y-31632D01*
X47239Y-31727D01*
X47444Y-31800D01*
X47661Y-31789D01*
X47810Y-31727D01*
X47836Y-31632D01*
X47836Y-38926D01*
X44836Y-38926D01*
X44836Y-31632D01*
X44525Y-31320D01*
X44213Y-31632D01*
X44239Y-31727D01*
X44444Y-31800D01*
X44661Y-31789D01*
X44810Y-31727D01*
X44836Y-31632D01*
X44836Y-38926D01*
X42836Y-38926D01*
X42836Y-31632D01*
X42525Y-31320D01*
X42213Y-31632D01*
X42239Y-31727D01*
X42444Y-31800D01*
X42661Y-31789D01*
X42810Y-31727D01*
X42836Y-31632D01*
X42836Y-38926D01*
X40836Y-38926D01*
X40836Y-31632D01*
X40525Y-31320D01*
X40213Y-31632D01*
X40239Y-31727D01*
X40444Y-31800D01*
X40661Y-31789D01*
X40810Y-31727D01*
X40836Y-31632D01*
X40836Y-38926D01*
X40705Y-38926D01*
X40705Y-34565D01*
X40640Y-34409D01*
X40521Y-34289D01*
X40364Y-34225D01*
X40195Y-34224D01*
X40039Y-34289D01*
X39919Y-34408D01*
X39855Y-34565D01*
X39854Y-34734D01*
X39919Y-34890D01*
X40038Y-35010D01*
X40195Y-35074D01*
X40364Y-35075D01*
X40520Y-35010D01*
X40640Y-34891D01*
X40704Y-34734D01*
X40705Y-34565D01*
X40705Y-38926D01*
X39065Y-38926D01*
X39065Y-34595D01*
X39000Y-34439D01*
X38881Y-34319D01*
X38724Y-34255D01*
X38555Y-34254D01*
X38399Y-34319D01*
X38279Y-34438D01*
X38215Y-34595D01*
X38214Y-34764D01*
X38279Y-34920D01*
X38398Y-35040D01*
X38555Y-35104D01*
X38724Y-35105D01*
X38880Y-35040D01*
X39000Y-34921D01*
X39064Y-34764D01*
X39065Y-34595D01*
X39065Y-38926D01*
X36485Y-38926D01*
X36485Y-34565D01*
X36420Y-34409D01*
X36301Y-34289D01*
X36144Y-34225D01*
X35975Y-34224D01*
X35819Y-34289D01*
X35699Y-34408D01*
X35635Y-34565D01*
X35634Y-34734D01*
X35699Y-34890D01*
X35818Y-35010D01*
X35975Y-35074D01*
X36144Y-35075D01*
X36300Y-35010D01*
X36420Y-34891D01*
X36484Y-34734D01*
X36485Y-34565D01*
X36485Y-38926D01*
X36445Y-38926D01*
X36445Y-36685D01*
X36380Y-36529D01*
X36261Y-36409D01*
X36104Y-36345D01*
X35935Y-36344D01*
X35779Y-36409D01*
X35659Y-36528D01*
X35595Y-36685D01*
X35594Y-36854D01*
X35659Y-37010D01*
X35778Y-37130D01*
X35935Y-37194D01*
X36104Y-37195D01*
X36260Y-37130D01*
X36380Y-37011D01*
X36444Y-36854D01*
X36445Y-36685D01*
X36445Y-38926D01*
X34685Y-38926D01*
X34685Y-36025D01*
X34620Y-35869D01*
X34501Y-35749D01*
X34362Y-35692D01*
X34440Y-35660D01*
X34560Y-35541D01*
X34624Y-35384D01*
X34625Y-35215D01*
X34560Y-35059D01*
X34441Y-34939D01*
X34284Y-34875D01*
X34115Y-34874D01*
X33959Y-34939D01*
X33839Y-35058D01*
X33775Y-35215D01*
X33774Y-35384D01*
X33839Y-35540D01*
X33958Y-35660D01*
X34097Y-35717D01*
X34019Y-35749D01*
X33899Y-35868D01*
X33835Y-36025D01*
X33834Y-36194D01*
X33899Y-36350D01*
X34018Y-36470D01*
X34175Y-36534D01*
X34344Y-36535D01*
X34500Y-36470D01*
X34620Y-36351D01*
X34684Y-36194D01*
X34685Y-36025D01*
X34685Y-38926D01*
X28081Y-38926D01*
X28081Y-32018D01*
X28081Y-30973D01*
X26080Y-30973D01*
X26080Y-25310D01*
X26071Y-25038D01*
X25985Y-24828D01*
X25875Y-24785D01*
X25805Y-24856D01*
X25805Y-24714D01*
X25761Y-24605D01*
X25507Y-24509D01*
X25235Y-24518D01*
X25025Y-24605D01*
X24982Y-24714D01*
X25393Y-25126D01*
X25805Y-24714D01*
X25805Y-24856D01*
X25464Y-25196D01*
X25875Y-25608D01*
X25985Y-25564D01*
X26080Y-25310D01*
X26080Y-30973D01*
X26015Y-30973D01*
X26015Y-29635D01*
X25950Y-29479D01*
X25831Y-29359D01*
X25805Y-29349D01*
X25805Y-25679D01*
X25393Y-25267D01*
X25322Y-25338D01*
X25322Y-25196D01*
X24911Y-24785D01*
X24802Y-24828D01*
X24706Y-25083D01*
X24715Y-25354D01*
X24802Y-25564D01*
X24911Y-25608D01*
X25322Y-25196D01*
X25322Y-25338D01*
X24982Y-25679D01*
X25025Y-25788D01*
X25280Y-25883D01*
X25551Y-25875D01*
X25761Y-25788D01*
X25805Y-25679D01*
X25805Y-29349D01*
X25674Y-29295D01*
X25505Y-29294D01*
X25349Y-29359D01*
X25229Y-29478D01*
X25165Y-29635D01*
X25164Y-29804D01*
X25229Y-29960D01*
X25233Y-29964D01*
X25219Y-29978D01*
X25155Y-30135D01*
X25154Y-30304D01*
X25219Y-30460D01*
X25338Y-30580D01*
X25495Y-30644D01*
X25664Y-30645D01*
X25820Y-30580D01*
X25940Y-30461D01*
X26004Y-30304D01*
X26005Y-30135D01*
X25940Y-29979D01*
X25936Y-29975D01*
X25950Y-29961D01*
X26014Y-29804D01*
X26015Y-29635D01*
X26015Y-30973D01*
X24073Y-30973D01*
X24073Y-25300D01*
X24063Y-25045D01*
X23984Y-24852D01*
X23878Y-24813D01*
X23808Y-24884D01*
X23808Y-24743D01*
X23769Y-24638D01*
X23529Y-24548D01*
X23273Y-24558D01*
X23080Y-24638D01*
X23042Y-24743D01*
X23425Y-25126D01*
X23808Y-24743D01*
X23808Y-24884D01*
X23495Y-25196D01*
X23878Y-25579D01*
X23984Y-25541D01*
X24073Y-25300D01*
X24073Y-30973D01*
X23850Y-30973D01*
X23850Y-27711D01*
X23808Y-27609D01*
X23808Y-25650D01*
X23425Y-25267D01*
X23354Y-25338D01*
X23354Y-25196D01*
X22971Y-24813D01*
X22866Y-24852D01*
X22777Y-25092D01*
X22786Y-25348D01*
X22866Y-25541D01*
X22971Y-25579D01*
X23354Y-25196D01*
X23354Y-25338D01*
X23042Y-25650D01*
X23080Y-25755D01*
X23321Y-25844D01*
X23576Y-25835D01*
X23769Y-25755D01*
X23808Y-25650D01*
X23808Y-27609D01*
X23785Y-27554D01*
X23666Y-27435D01*
X23510Y-27370D01*
X23341Y-27370D01*
X23184Y-27434D01*
X23065Y-27554D01*
X23000Y-27710D01*
X23000Y-27879D01*
X23064Y-28035D01*
X23184Y-28155D01*
X23340Y-28220D01*
X23509Y-28220D01*
X23665Y-28155D01*
X23785Y-28036D01*
X23850Y-27880D01*
X23850Y-27711D01*
X23850Y-30973D01*
X23257Y-30973D01*
X23257Y-32018D01*
X28081Y-32018D01*
X28081Y-38926D01*
X27135Y-38926D01*
X27135Y-34805D01*
X27070Y-34649D01*
X26951Y-34529D01*
X26794Y-34465D01*
X26625Y-34464D01*
X26469Y-34529D01*
X26410Y-34588D01*
X26351Y-34529D01*
X26194Y-34465D01*
X26025Y-34464D01*
X26025Y-34465D01*
X26025Y-32685D01*
X25960Y-32529D01*
X25841Y-32409D01*
X25684Y-32345D01*
X25515Y-32344D01*
X25359Y-32409D01*
X25239Y-32528D01*
X25175Y-32685D01*
X25174Y-32854D01*
X25239Y-33010D01*
X25263Y-33034D01*
X25229Y-33068D01*
X25165Y-33225D01*
X25164Y-33394D01*
X25229Y-33550D01*
X25348Y-33670D01*
X25505Y-33734D01*
X25674Y-33735D01*
X25830Y-33670D01*
X25950Y-33551D01*
X26014Y-33394D01*
X26015Y-33225D01*
X25950Y-33069D01*
X25926Y-33045D01*
X25960Y-33011D01*
X26024Y-32854D01*
X26025Y-32685D01*
X26025Y-34465D01*
X25869Y-34529D01*
X25749Y-34648D01*
X25685Y-34805D01*
X25684Y-34974D01*
X25749Y-35130D01*
X25868Y-35250D01*
X26025Y-35314D01*
X26194Y-35315D01*
X26350Y-35250D01*
X26409Y-35191D01*
X26468Y-35250D01*
X26625Y-35314D01*
X26794Y-35315D01*
X26950Y-35250D01*
X27070Y-35131D01*
X27134Y-34974D01*
X27135Y-34805D01*
X27135Y-38926D01*
X25325Y-38926D01*
X25325Y-38415D01*
X25260Y-38259D01*
X25141Y-38139D01*
X24984Y-38075D01*
X24815Y-38074D01*
X24659Y-38139D01*
X24539Y-38258D01*
X24475Y-38415D01*
X24474Y-38584D01*
X24539Y-38740D01*
X24658Y-38860D01*
X24815Y-38924D01*
X24984Y-38925D01*
X25140Y-38860D01*
X25260Y-38741D01*
X25324Y-38584D01*
X25325Y-38415D01*
X25325Y-38926D01*
X24165Y-38926D01*
X24165Y-35506D01*
X24100Y-35350D01*
X23981Y-35230D01*
X23825Y-35165D01*
X23655Y-35165D01*
X23499Y-35230D01*
X23380Y-35349D01*
X23315Y-35505D01*
X23315Y-35674D01*
X23379Y-35830D01*
X23499Y-35950D01*
X23655Y-36015D01*
X23824Y-36015D01*
X23980Y-35951D01*
X24100Y-35831D01*
X24165Y-35675D01*
X24165Y-35506D01*
X24165Y-38926D01*
X23115Y-38926D01*
X23115Y-32885D01*
X23075Y-32789D01*
X23075Y-30065D01*
X23010Y-29909D01*
X22891Y-29789D01*
X22734Y-29725D01*
X22565Y-29724D01*
X22409Y-29789D01*
X22399Y-29799D01*
X22244Y-29735D01*
X22075Y-29734D01*
X21943Y-29789D01*
X21943Y-25061D01*
X21839Y-24810D01*
X21647Y-24618D01*
X21396Y-24513D01*
X21124Y-24513D01*
X20873Y-24617D01*
X20681Y-24809D01*
X20576Y-25060D01*
X20576Y-25332D01*
X20680Y-25583D01*
X20872Y-25775D01*
X21123Y-25879D01*
X21395Y-25880D01*
X21646Y-25776D01*
X21838Y-25584D01*
X21942Y-25333D01*
X21943Y-25061D01*
X21943Y-29789D01*
X21919Y-29799D01*
X21799Y-29918D01*
X21735Y-30075D01*
X21734Y-30244D01*
X21799Y-30400D01*
X21918Y-30520D01*
X22075Y-30584D01*
X22244Y-30585D01*
X22400Y-30520D01*
X22410Y-30510D01*
X22565Y-30574D01*
X22734Y-30575D01*
X22890Y-30510D01*
X23010Y-30391D01*
X23074Y-30234D01*
X23075Y-30065D01*
X23075Y-32789D01*
X23050Y-32729D01*
X22931Y-32609D01*
X22774Y-32545D01*
X22605Y-32544D01*
X22449Y-32609D01*
X22448Y-32610D01*
X22314Y-32555D01*
X22145Y-32554D01*
X21989Y-32619D01*
X21869Y-32738D01*
X21805Y-32895D01*
X21804Y-33064D01*
X21869Y-33220D01*
X21988Y-33340D01*
X22145Y-33404D01*
X22314Y-33405D01*
X22470Y-33340D01*
X22471Y-33339D01*
X22605Y-33394D01*
X22774Y-33395D01*
X22930Y-33330D01*
X23050Y-33211D01*
X23114Y-33054D01*
X23115Y-32885D01*
X23115Y-38926D01*
X21943Y-38926D01*
X21943Y-37660D01*
X21839Y-37408D01*
X21647Y-37216D01*
X21396Y-37112D01*
X21124Y-37112D01*
X20873Y-37215D01*
X20681Y-37407D01*
X20576Y-37658D01*
X20576Y-37930D01*
X20680Y-38181D01*
X20872Y-38374D01*
X21123Y-38478D01*
X21395Y-38478D01*
X21646Y-38374D01*
X21838Y-38182D01*
X21942Y-37931D01*
X21943Y-37660D01*
X21943Y-38926D01*
X20128Y-38926D01*
X20128Y-24065D01*
X58611Y-24065D01*
X58611Y-38926D01*
X58611Y-38926D01*
G37*
G54D19*
X58611Y-38926D02*
X58163Y-38926D01*
X58163Y-37660D01*
X58163Y-25061D01*
X58059Y-24810D01*
X57867Y-24618D01*
X57616Y-24513D01*
X57345Y-24513D01*
X57093Y-24617D01*
X56901Y-24809D01*
X56797Y-25060D01*
X56797Y-25332D01*
X56900Y-25583D01*
X57092Y-25775D01*
X57343Y-25879D01*
X57615Y-25880D01*
X57866Y-25776D01*
X58059Y-25584D01*
X58163Y-25333D01*
X58163Y-25061D01*
X58163Y-37660D01*
X58059Y-37408D01*
X57867Y-37216D01*
X57655Y-37128D01*
X57655Y-33415D01*
X57655Y-31595D01*
X57590Y-31439D01*
X57471Y-31319D01*
X57314Y-31255D01*
X57145Y-31254D01*
X56989Y-31319D01*
X56869Y-31438D01*
X56805Y-31595D01*
X56804Y-31764D01*
X56869Y-31920D01*
X56988Y-32040D01*
X57145Y-32104D01*
X57314Y-32105D01*
X57470Y-32040D01*
X57590Y-31921D01*
X57654Y-31764D01*
X57655Y-31595D01*
X57655Y-33415D01*
X57590Y-33259D01*
X57471Y-33139D01*
X57314Y-33075D01*
X57145Y-33074D01*
X56989Y-33139D01*
X56869Y-33258D01*
X56805Y-33415D01*
X56804Y-33584D01*
X56869Y-33740D01*
X56988Y-33860D01*
X57145Y-33924D01*
X57314Y-33925D01*
X57470Y-33860D01*
X57590Y-33741D01*
X57654Y-33584D01*
X57655Y-33415D01*
X57655Y-37128D01*
X57616Y-37112D01*
X57345Y-37112D01*
X57093Y-37215D01*
X56901Y-37407D01*
X56797Y-37658D01*
X56797Y-37930D01*
X56900Y-38181D01*
X57092Y-38374D01*
X57343Y-38478D01*
X57615Y-38478D01*
X57866Y-38374D01*
X58059Y-38182D01*
X58163Y-37931D01*
X58163Y-37660D01*
X58163Y-38926D01*
X55645Y-38926D01*
X55645Y-32605D01*
X55580Y-32449D01*
X55515Y-32384D01*
X55515Y-29958D01*
X55388Y-29649D01*
X55151Y-29412D01*
X54842Y-29284D01*
X54508Y-29284D01*
X54199Y-29412D01*
X53962Y-29648D01*
X53834Y-29957D01*
X53834Y-30291D01*
X53962Y-30600D01*
X54198Y-30837D01*
X54507Y-30965D01*
X54841Y-30965D01*
X55150Y-30838D01*
X55387Y-30601D01*
X55515Y-30292D01*
X55515Y-29958D01*
X55515Y-32384D01*
X55461Y-32329D01*
X55304Y-32265D01*
X55135Y-32264D01*
X54979Y-32329D01*
X54859Y-32448D01*
X54795Y-32605D01*
X54794Y-32774D01*
X54859Y-32930D01*
X54978Y-33050D01*
X55135Y-33114D01*
X55304Y-33115D01*
X55460Y-33050D01*
X55580Y-32931D01*
X55644Y-32774D01*
X55645Y-32605D01*
X55645Y-38926D01*
X52075Y-38926D01*
X52075Y-29830D01*
X52064Y-29613D01*
X52002Y-29464D01*
X51907Y-29438D01*
X51595Y-29750D01*
X51907Y-30061D01*
X52002Y-30035D01*
X52075Y-29830D01*
X52075Y-38926D01*
X52070Y-38926D01*
X52070Y-31142D01*
X51987Y-30941D01*
X51834Y-30788D01*
X51633Y-30704D01*
X51530Y-30704D01*
X51575Y-30580D01*
X51564Y-30363D01*
X51535Y-30295D01*
X51661Y-30289D01*
X51810Y-30227D01*
X51836Y-30132D01*
X51525Y-29820D01*
X51519Y-29826D01*
X51448Y-29755D01*
X51454Y-29750D01*
X51448Y-29744D01*
X51519Y-29673D01*
X51525Y-29679D01*
X51836Y-29367D01*
X51810Y-29272D01*
X51605Y-29199D01*
X51530Y-29203D01*
X51570Y-29108D01*
X51570Y-28892D01*
X51487Y-28691D01*
X51334Y-28538D01*
X51133Y-28454D01*
X50917Y-28454D01*
X50716Y-28537D01*
X50563Y-28690D01*
X50525Y-28782D01*
X50487Y-28691D01*
X50334Y-28538D01*
X50133Y-28454D01*
X49917Y-28454D01*
X49716Y-28537D01*
X49563Y-28690D01*
X49525Y-28782D01*
X49487Y-28691D01*
X49334Y-28538D01*
X49133Y-28454D01*
X48917Y-28454D01*
X48716Y-28537D01*
X48563Y-28690D01*
X48527Y-28775D01*
X48502Y-28714D01*
X48407Y-28688D01*
X48336Y-28758D01*
X48336Y-28617D01*
X48310Y-28522D01*
X48105Y-28449D01*
X47888Y-28460D01*
X47739Y-28522D01*
X47713Y-28617D01*
X48025Y-28929D01*
X48336Y-28617D01*
X48336Y-28758D01*
X48095Y-29000D01*
X48101Y-29005D01*
X48030Y-29076D01*
X48025Y-29070D01*
X48019Y-29076D01*
X47948Y-29005D01*
X47954Y-29000D01*
X47642Y-28688D01*
X47547Y-28714D01*
X47524Y-28780D01*
X47487Y-28691D01*
X47334Y-28538D01*
X47133Y-28454D01*
X46917Y-28454D01*
X46716Y-28537D01*
X46563Y-28690D01*
X46525Y-28782D01*
X46487Y-28691D01*
X46334Y-28538D01*
X46133Y-28454D01*
X45917Y-28454D01*
X45716Y-28537D01*
X45563Y-28690D01*
X45525Y-28782D01*
X45487Y-28691D01*
X45334Y-28538D01*
X45133Y-28454D01*
X44917Y-28454D01*
X44716Y-28537D01*
X44563Y-28690D01*
X44525Y-28782D01*
X44487Y-28691D01*
X44334Y-28538D01*
X44133Y-28454D01*
X43917Y-28454D01*
X43716Y-28537D01*
X43563Y-28690D01*
X43527Y-28775D01*
X43502Y-28714D01*
X43407Y-28688D01*
X43336Y-28758D01*
X43336Y-28617D01*
X43310Y-28522D01*
X43105Y-28449D01*
X42888Y-28460D01*
X42739Y-28522D01*
X42713Y-28617D01*
X43025Y-28929D01*
X43336Y-28617D01*
X43336Y-28758D01*
X43095Y-29000D01*
X43101Y-29005D01*
X43030Y-29076D01*
X43025Y-29070D01*
X43019Y-29076D01*
X42948Y-29005D01*
X42954Y-29000D01*
X42642Y-28688D01*
X42547Y-28714D01*
X42524Y-28780D01*
X42487Y-28691D01*
X42334Y-28538D01*
X42133Y-28454D01*
X41917Y-28454D01*
X41716Y-28537D01*
X41563Y-28690D01*
X41525Y-28782D01*
X41487Y-28691D01*
X41334Y-28538D01*
X41133Y-28454D01*
X40917Y-28454D01*
X40716Y-28537D01*
X40563Y-28690D01*
X40525Y-28782D01*
X40487Y-28691D01*
X40425Y-28628D01*
X40425Y-26057D01*
X40360Y-25901D01*
X40241Y-25781D01*
X40084Y-25716D01*
X39915Y-25716D01*
X39759Y-25781D01*
X39639Y-25900D01*
X39575Y-26056D01*
X39574Y-26225D01*
X39639Y-26382D01*
X39758Y-26501D01*
X39915Y-26566D01*
X40084Y-26566D01*
X40240Y-26502D01*
X40360Y-26382D01*
X40424Y-26226D01*
X40425Y-26057D01*
X40425Y-28628D01*
X40334Y-28538D01*
X40133Y-28454D01*
X39917Y-28454D01*
X39716Y-28537D01*
X39563Y-28690D01*
X39525Y-28782D01*
X39487Y-28691D01*
X39334Y-28538D01*
X39133Y-28454D01*
X38917Y-28454D01*
X38716Y-28537D01*
X38563Y-28690D01*
X38525Y-28782D01*
X38487Y-28691D01*
X38334Y-28538D01*
X38259Y-28507D01*
X38259Y-26057D01*
X38195Y-25901D01*
X38075Y-25781D01*
X37919Y-25716D01*
X37750Y-25716D01*
X37598Y-25779D01*
X37447Y-25716D01*
X37278Y-25716D01*
X37125Y-25779D01*
X36974Y-25716D01*
X36805Y-25716D01*
X36649Y-25781D01*
X36529Y-25900D01*
X36464Y-26056D01*
X36464Y-26225D01*
X36529Y-26382D01*
X36648Y-26501D01*
X36804Y-26566D01*
X36973Y-26566D01*
X37126Y-26503D01*
X37277Y-26566D01*
X37446Y-26566D01*
X37598Y-26503D01*
X37749Y-26566D01*
X37918Y-26566D01*
X38075Y-26502D01*
X38194Y-26382D01*
X38259Y-26226D01*
X38259Y-26057D01*
X38259Y-28507D01*
X38133Y-28454D01*
X37917Y-28454D01*
X37716Y-28537D01*
X37563Y-28690D01*
X37525Y-28782D01*
X37487Y-28691D01*
X37334Y-28538D01*
X37133Y-28454D01*
X36917Y-28454D01*
X36716Y-28537D01*
X36563Y-28690D01*
X36525Y-28782D01*
X36487Y-28691D01*
X36334Y-28538D01*
X36133Y-28454D01*
X35917Y-28454D01*
X35716Y-28537D01*
X35563Y-28690D01*
X35525Y-28782D01*
X35487Y-28691D01*
X35334Y-28538D01*
X35133Y-28454D01*
X34917Y-28454D01*
X34716Y-28537D01*
X34563Y-28690D01*
X34479Y-28891D01*
X34479Y-28926D01*
X32587Y-28926D01*
X32587Y-29649D01*
X32351Y-29412D01*
X32042Y-29284D01*
X31708Y-29284D01*
X31399Y-29412D01*
X31162Y-29648D01*
X31034Y-29957D01*
X31034Y-30291D01*
X31162Y-30600D01*
X31398Y-30837D01*
X31707Y-30965D01*
X32041Y-30965D01*
X32350Y-30838D01*
X32587Y-30601D01*
X32587Y-30600D01*
X32587Y-32254D01*
X35641Y-32254D01*
X35635Y-31794D01*
X35833Y-31712D01*
X35986Y-31559D01*
X36024Y-31467D01*
X36062Y-31558D01*
X36215Y-31711D01*
X36416Y-31795D01*
X36632Y-31795D01*
X36833Y-31712D01*
X36986Y-31559D01*
X37024Y-31467D01*
X37062Y-31558D01*
X37215Y-31711D01*
X37416Y-31795D01*
X37632Y-31795D01*
X37833Y-31712D01*
X37986Y-31559D01*
X38024Y-31467D01*
X38062Y-31558D01*
X38215Y-31711D01*
X38416Y-31795D01*
X38632Y-31795D01*
X38833Y-31712D01*
X38986Y-31559D01*
X39024Y-31467D01*
X39062Y-31558D01*
X39215Y-31711D01*
X39416Y-31795D01*
X39632Y-31795D01*
X39833Y-31712D01*
X39986Y-31559D01*
X40022Y-31474D01*
X40047Y-31535D01*
X40142Y-31561D01*
X40454Y-31250D01*
X40448Y-31244D01*
X40519Y-31173D01*
X40525Y-31179D01*
X40530Y-31173D01*
X40601Y-31244D01*
X40595Y-31250D01*
X40907Y-31561D01*
X41002Y-31535D01*
X41025Y-31469D01*
X41062Y-31558D01*
X41215Y-31711D01*
X41416Y-31795D01*
X41632Y-31795D01*
X41833Y-31712D01*
X41986Y-31559D01*
X42022Y-31474D01*
X42047Y-31535D01*
X42142Y-31561D01*
X42454Y-31250D01*
X42448Y-31244D01*
X42519Y-31173D01*
X42525Y-31179D01*
X42530Y-31173D01*
X42601Y-31244D01*
X42595Y-31250D01*
X42907Y-31561D01*
X43002Y-31535D01*
X43025Y-31469D01*
X43062Y-31558D01*
X43215Y-31711D01*
X43416Y-31795D01*
X43632Y-31795D01*
X43833Y-31712D01*
X43986Y-31559D01*
X44022Y-31474D01*
X44047Y-31535D01*
X44142Y-31561D01*
X44454Y-31250D01*
X44448Y-31244D01*
X44519Y-31173D01*
X44525Y-31179D01*
X44530Y-31173D01*
X44601Y-31244D01*
X44595Y-31250D01*
X44907Y-31561D01*
X45002Y-31535D01*
X45025Y-31469D01*
X45062Y-31558D01*
X45215Y-31711D01*
X45416Y-31795D01*
X45632Y-31795D01*
X45833Y-31712D01*
X45986Y-31559D01*
X46024Y-31467D01*
X46062Y-31558D01*
X46215Y-31711D01*
X46416Y-31795D01*
X46632Y-31795D01*
X46833Y-31712D01*
X46986Y-31559D01*
X47022Y-31474D01*
X47047Y-31535D01*
X47142Y-31561D01*
X47454Y-31250D01*
X47448Y-31244D01*
X47519Y-31173D01*
X47525Y-31179D01*
X47530Y-31173D01*
X47601Y-31244D01*
X47595Y-31250D01*
X47907Y-31561D01*
X48002Y-31535D01*
X48025Y-31469D01*
X48062Y-31558D01*
X48215Y-31711D01*
X48416Y-31795D01*
X48632Y-31795D01*
X48833Y-31712D01*
X48986Y-31559D01*
X49024Y-31467D01*
X49062Y-31558D01*
X49215Y-31711D01*
X49416Y-31795D01*
X49632Y-31795D01*
X49833Y-31712D01*
X49986Y-31559D01*
X50022Y-31474D01*
X50047Y-31535D01*
X50142Y-31561D01*
X50454Y-31250D01*
X50448Y-31244D01*
X50519Y-31173D01*
X50525Y-31179D01*
X50530Y-31173D01*
X50601Y-31244D01*
X50595Y-31250D01*
X50907Y-31561D01*
X51002Y-31535D01*
X51025Y-31469D01*
X51062Y-31558D01*
X51215Y-31711D01*
X51416Y-31795D01*
X51632Y-31795D01*
X51833Y-31712D01*
X51986Y-31559D01*
X52070Y-31358D01*
X52070Y-31142D01*
X52070Y-38926D01*
X50836Y-38926D01*
X50836Y-31632D01*
X50525Y-31320D01*
X50213Y-31632D01*
X50239Y-31727D01*
X50444Y-31800D01*
X50661Y-31789D01*
X50810Y-31727D01*
X50836Y-31632D01*
X50836Y-38926D01*
X50695Y-38926D01*
X50695Y-35551D01*
X50611Y-35348D01*
X50472Y-35210D01*
X50494Y-35210D01*
X50586Y-35172D01*
X50656Y-35101D01*
X50694Y-35009D01*
X50695Y-34910D01*
X50695Y-34310D01*
X50657Y-34218D01*
X50586Y-34148D01*
X50494Y-34110D01*
X50395Y-34109D01*
X49795Y-34109D01*
X49703Y-34147D01*
X49633Y-34218D01*
X49595Y-34310D01*
X49594Y-34409D01*
X49594Y-35009D01*
X49632Y-35101D01*
X49703Y-35171D01*
X49795Y-35209D01*
X49817Y-35209D01*
X49679Y-35348D01*
X49595Y-35550D01*
X49594Y-35768D01*
X49678Y-35971D01*
X49833Y-36125D01*
X50035Y-36209D01*
X50253Y-36210D01*
X50456Y-36126D01*
X50610Y-35971D01*
X50694Y-35769D01*
X50695Y-35551D01*
X50695Y-38926D01*
X47836Y-38926D01*
X47836Y-31632D01*
X47525Y-31320D01*
X47213Y-31632D01*
X47239Y-31727D01*
X47444Y-31800D01*
X47661Y-31789D01*
X47810Y-31727D01*
X47836Y-31632D01*
X47836Y-38926D01*
X44836Y-38926D01*
X44836Y-31632D01*
X44525Y-31320D01*
X44213Y-31632D01*
X44239Y-31727D01*
X44444Y-31800D01*
X44661Y-31789D01*
X44810Y-31727D01*
X44836Y-31632D01*
X44836Y-38926D01*
X42836Y-38926D01*
X42836Y-31632D01*
X42525Y-31320D01*
X42213Y-31632D01*
X42239Y-31727D01*
X42444Y-31800D01*
X42661Y-31789D01*
X42810Y-31727D01*
X42836Y-31632D01*
X42836Y-38926D01*
X40836Y-38926D01*
X40836Y-31632D01*
X40525Y-31320D01*
X40213Y-31632D01*
X40239Y-31727D01*
X40444Y-31800D01*
X40661Y-31789D01*
X40810Y-31727D01*
X40836Y-31632D01*
X40836Y-38926D01*
X40705Y-38926D01*
X40705Y-34565D01*
X40640Y-34409D01*
X40521Y-34289D01*
X40364Y-34225D01*
X40195Y-34224D01*
X40039Y-34289D01*
X39919Y-34408D01*
X39855Y-34565D01*
X39854Y-34734D01*
X39919Y-34890D01*
X40038Y-35010D01*
X40195Y-35074D01*
X40364Y-35075D01*
X40520Y-35010D01*
X40640Y-34891D01*
X40704Y-34734D01*
X40705Y-34565D01*
X40705Y-38926D01*
X39065Y-38926D01*
X39065Y-34595D01*
X39000Y-34439D01*
X38881Y-34319D01*
X38724Y-34255D01*
X38555Y-34254D01*
X38399Y-34319D01*
X38279Y-34438D01*
X38215Y-34595D01*
X38214Y-34764D01*
X38279Y-34920D01*
X38398Y-35040D01*
X38555Y-35104D01*
X38724Y-35105D01*
X38880Y-35040D01*
X39000Y-34921D01*
X39064Y-34764D01*
X39065Y-34595D01*
X39065Y-38926D01*
X36485Y-38926D01*
X36485Y-34565D01*
X36420Y-34409D01*
X36301Y-34289D01*
X36144Y-34225D01*
X35975Y-34224D01*
X35819Y-34289D01*
X35699Y-34408D01*
X35635Y-34565D01*
X35634Y-34734D01*
X35699Y-34890D01*
X35818Y-35010D01*
X35975Y-35074D01*
X36144Y-35075D01*
X36300Y-35010D01*
X36420Y-34891D01*
X36484Y-34734D01*
X36485Y-34565D01*
X36485Y-38926D01*
X36445Y-38926D01*
X36445Y-36685D01*
X36380Y-36529D01*
X36261Y-36409D01*
X36104Y-36345D01*
X35935Y-36344D01*
X35779Y-36409D01*
X35659Y-36528D01*
X35595Y-36685D01*
X35594Y-36854D01*
X35659Y-37010D01*
X35778Y-37130D01*
X35935Y-37194D01*
X36104Y-37195D01*
X36260Y-37130D01*
X36380Y-37011D01*
X36444Y-36854D01*
X36445Y-36685D01*
X36445Y-38926D01*
X34685Y-38926D01*
X34685Y-36025D01*
X34620Y-35869D01*
X34501Y-35749D01*
X34362Y-35692D01*
X34440Y-35660D01*
X34560Y-35541D01*
X34624Y-35384D01*
X34625Y-35215D01*
X34560Y-35059D01*
X34441Y-34939D01*
X34284Y-34875D01*
X34115Y-34874D01*
X33959Y-34939D01*
X33839Y-35058D01*
X33775Y-35215D01*
X33774Y-35384D01*
X33839Y-35540D01*
X33958Y-35660D01*
X34097Y-35717D01*
X34019Y-35749D01*
X33899Y-35868D01*
X33835Y-36025D01*
X33834Y-36194D01*
X33899Y-36350D01*
X34018Y-36470D01*
X34175Y-36534D01*
X34344Y-36535D01*
X34500Y-36470D01*
X34620Y-36351D01*
X34684Y-36194D01*
X34685Y-36025D01*
X34685Y-38926D01*
X28081Y-38926D01*
X28081Y-32018D01*
X28081Y-30973D01*
X26080Y-30973D01*
X26080Y-25310D01*
X26071Y-25038D01*
X25985Y-24828D01*
X25875Y-24785D01*
X25805Y-24856D01*
X25805Y-24714D01*
X25761Y-24605D01*
X25507Y-24509D01*
X25235Y-24518D01*
X25025Y-24605D01*
X24982Y-24714D01*
X25393Y-25126D01*
X25805Y-24714D01*
X25805Y-24856D01*
X25464Y-25196D01*
X25875Y-25608D01*
X25985Y-25564D01*
X26080Y-25310D01*
X26080Y-30973D01*
X26015Y-30973D01*
X26015Y-29635D01*
X25950Y-29479D01*
X25831Y-29359D01*
X25805Y-29349D01*
X25805Y-25679D01*
X25393Y-25267D01*
X25322Y-25338D01*
X25322Y-25196D01*
X24911Y-24785D01*
X24802Y-24828D01*
X24706Y-25083D01*
X24715Y-25354D01*
X24802Y-25564D01*
X24911Y-25608D01*
X25322Y-25196D01*
X25322Y-25338D01*
X24982Y-25679D01*
X25025Y-25788D01*
X25280Y-25883D01*
X25551Y-25875D01*
X25761Y-25788D01*
X25805Y-25679D01*
X25805Y-29349D01*
X25674Y-29295D01*
X25505Y-29294D01*
X25349Y-29359D01*
X25229Y-29478D01*
X25165Y-29635D01*
X25164Y-29804D01*
X25229Y-29960D01*
X25233Y-29964D01*
X25219Y-29978D01*
X25155Y-30135D01*
X25154Y-30304D01*
X25219Y-30460D01*
X25338Y-30580D01*
X25495Y-30644D01*
X25664Y-30645D01*
X25820Y-30580D01*
X25940Y-30461D01*
X26004Y-30304D01*
X26005Y-30135D01*
X25940Y-29979D01*
X25936Y-29975D01*
X25950Y-29961D01*
X26014Y-29804D01*
X26015Y-29635D01*
X26015Y-30973D01*
X24073Y-30973D01*
X24073Y-25300D01*
X24063Y-25045D01*
X23984Y-24852D01*
X23878Y-24813D01*
X23808Y-24884D01*
X23808Y-24743D01*
X23769Y-24638D01*
X23529Y-24548D01*
X23273Y-24558D01*
X23080Y-24638D01*
X23042Y-24743D01*
X23425Y-25126D01*
X23808Y-24743D01*
X23808Y-24884D01*
X23495Y-25196D01*
X23878Y-25579D01*
X23984Y-25541D01*
X24073Y-25300D01*
X24073Y-30973D01*
X23850Y-30973D01*
X23850Y-27711D01*
X23808Y-27609D01*
X23808Y-25650D01*
X23425Y-25267D01*
X23354Y-25338D01*
X23354Y-25196D01*
X22971Y-24813D01*
X22866Y-24852D01*
X22777Y-25092D01*
X22786Y-25348D01*
X22866Y-25541D01*
X22971Y-25579D01*
X23354Y-25196D01*
X23354Y-25338D01*
X23042Y-25650D01*
X23080Y-25755D01*
X23321Y-25844D01*
X23576Y-25835D01*
X23769Y-25755D01*
X23808Y-25650D01*
X23808Y-27609D01*
X23785Y-27554D01*
X23666Y-27435D01*
X23510Y-27370D01*
X23341Y-27370D01*
X23184Y-27434D01*
X23065Y-27554D01*
X23000Y-27710D01*
X23000Y-27879D01*
X23064Y-28035D01*
X23184Y-28155D01*
X23340Y-28220D01*
X23509Y-28220D01*
X23665Y-28155D01*
X23785Y-28036D01*
X23850Y-27880D01*
X23850Y-27711D01*
X23850Y-30973D01*
X23257Y-30973D01*
X23257Y-32018D01*
X28081Y-32018D01*
X28081Y-38926D01*
X27135Y-38926D01*
X27135Y-34805D01*
X27070Y-34649D01*
X26951Y-34529D01*
X26794Y-34465D01*
X26625Y-34464D01*
X26469Y-34529D01*
X26410Y-34588D01*
X26351Y-34529D01*
X26194Y-34465D01*
X26025Y-34464D01*
X26025Y-34465D01*
X26025Y-32685D01*
X25960Y-32529D01*
X25841Y-32409D01*
X25684Y-32345D01*
X25515Y-32344D01*
X25359Y-32409D01*
X25239Y-32528D01*
X25175Y-32685D01*
X25174Y-32854D01*
X25239Y-33010D01*
X25263Y-33034D01*
X25229Y-33068D01*
X25165Y-33225D01*
X25164Y-33394D01*
X25229Y-33550D01*
X25348Y-33670D01*
X25505Y-33734D01*
X25674Y-33735D01*
X25830Y-33670D01*
X25950Y-33551D01*
X26014Y-33394D01*
X26015Y-33225D01*
X25950Y-33069D01*
X25926Y-33045D01*
X25960Y-33011D01*
X26024Y-32854D01*
X26025Y-32685D01*
X26025Y-34465D01*
X25869Y-34529D01*
X25749Y-34648D01*
X25685Y-34805D01*
X25684Y-34974D01*
X25749Y-35130D01*
X25868Y-35250D01*
X26025Y-35314D01*
X26194Y-35315D01*
X26350Y-35250D01*
X26409Y-35191D01*
X26468Y-35250D01*
X26625Y-35314D01*
X26794Y-35315D01*
X26950Y-35250D01*
X27070Y-35131D01*
X27134Y-34974D01*
X27135Y-34805D01*
X27135Y-38926D01*
X25325Y-38926D01*
X25325Y-38415D01*
X25260Y-38259D01*
X25141Y-38139D01*
X24984Y-38075D01*
X24815Y-38074D01*
X24659Y-38139D01*
X24539Y-38258D01*
X24475Y-38415D01*
X24474Y-38584D01*
X24539Y-38740D01*
X24658Y-38860D01*
X24815Y-38924D01*
X24984Y-38925D01*
X25140Y-38860D01*
X25260Y-38741D01*
X25324Y-38584D01*
X25325Y-38415D01*
X25325Y-38926D01*
X24165Y-38926D01*
X24165Y-35506D01*
X24100Y-35350D01*
X23981Y-35230D01*
X23825Y-35165D01*
X23655Y-35165D01*
X23499Y-35230D01*
X23380Y-35349D01*
X23315Y-35505D01*
X23315Y-35674D01*
X23379Y-35830D01*
X23499Y-35950D01*
X23655Y-36015D01*
X23824Y-36015D01*
X23980Y-35951D01*
X24100Y-35831D01*
X24165Y-35675D01*
X24165Y-35506D01*
X24165Y-38926D01*
X23115Y-38926D01*
X23115Y-32885D01*
X23075Y-32789D01*
X23075Y-30065D01*
X23010Y-29909D01*
X22891Y-29789D01*
X22734Y-29725D01*
X22565Y-29724D01*
X22409Y-29789D01*
X22399Y-29799D01*
X22244Y-29735D01*
X22075Y-29734D01*
X21943Y-29789D01*
X21943Y-25061D01*
X21839Y-24810D01*
X21647Y-24618D01*
X21396Y-24513D01*
X21124Y-24513D01*
X20873Y-24617D01*
X20681Y-24809D01*
X20576Y-25060D01*
X20576Y-25332D01*
X20680Y-25583D01*
X20872Y-25775D01*
X21123Y-25879D01*
X21395Y-25880D01*
X21646Y-25776D01*
X21838Y-25584D01*
X21942Y-25333D01*
X21943Y-25061D01*
X21943Y-29789D01*
X21919Y-29799D01*
X21799Y-29918D01*
X21735Y-30075D01*
X21734Y-30244D01*
X21799Y-30400D01*
X21918Y-30520D01*
X22075Y-30584D01*
X22244Y-30585D01*
X22400Y-30520D01*
X22410Y-30510D01*
X22565Y-30574D01*
X22734Y-30575D01*
X22890Y-30510D01*
X23010Y-30391D01*
X23074Y-30234D01*
X23075Y-30065D01*
X23075Y-32789D01*
X23050Y-32729D01*
X22931Y-32609D01*
X22774Y-32545D01*
X22605Y-32544D01*
X22449Y-32609D01*
X22448Y-32610D01*
X22314Y-32555D01*
X22145Y-32554D01*
X21989Y-32619D01*
X21869Y-32738D01*
X21805Y-32895D01*
X21804Y-33064D01*
X21869Y-33220D01*
X21988Y-33340D01*
X22145Y-33404D01*
X22314Y-33405D01*
X22470Y-33340D01*
X22471Y-33339D01*
X22605Y-33394D01*
X22774Y-33395D01*
X22930Y-33330D01*
X23050Y-33211D01*
X23114Y-33054D01*
X23115Y-32885D01*
X23115Y-38926D01*
X21943Y-38926D01*
X21943Y-37660D01*
X21839Y-37408D01*
X21647Y-37216D01*
X21396Y-37112D01*
X21124Y-37112D01*
X20873Y-37215D01*
X20681Y-37407D01*
X20576Y-37658D01*
X20576Y-37930D01*
X20680Y-38181D01*
X20872Y-38374D01*
X21123Y-38478D01*
X21395Y-38478D01*
X21646Y-38374D01*
X21838Y-38182D01*
X21942Y-37931D01*
X21943Y-37660D01*
X21943Y-38926D01*
X20128Y-38926D01*
X20128Y-24065D01*
X58611Y-24065D01*
X58611Y-38926D01*
M02*
