G04 (created by PCBNEW-RS274X (2012-apr-16-27)-stable) date Wed 10 Jul 2013 04:33:38 PM CEST*
G01*
G70*
G90*
%MOIN*%
G04 Gerber Fmt 3.4, Leading zero omitted, Abs format*
%FSLAX34Y34*%
G04 APERTURE LIST*
%ADD10C,0.000000*%
%ADD11C,0.003900*%
%ADD12C,0.002000*%
%ADD13C,0.094400*%
G04 APERTURE END LIST*
G54D10*
G54D11*
X55086Y-15939D02*
X55086Y-15348D01*
X54992Y-15348D01*
X54936Y-15376D01*
X54899Y-15432D01*
X54880Y-15488D01*
X54861Y-15601D01*
X54861Y-15685D01*
X54880Y-15798D01*
X54899Y-15854D01*
X54936Y-15911D01*
X54992Y-15939D01*
X55086Y-15939D01*
X54692Y-15629D02*
X54561Y-15629D01*
X54505Y-15939D02*
X54692Y-15939D01*
X54692Y-15348D01*
X54505Y-15348D01*
X54355Y-15911D02*
X54299Y-15939D01*
X54205Y-15939D01*
X54167Y-15911D01*
X54149Y-15882D01*
X54130Y-15826D01*
X54130Y-15770D01*
X54149Y-15714D01*
X54167Y-15685D01*
X54205Y-15657D01*
X54280Y-15629D01*
X54317Y-15601D01*
X54336Y-15573D01*
X54355Y-15517D01*
X54355Y-15460D01*
X54336Y-15404D01*
X54317Y-15376D01*
X54280Y-15348D01*
X54186Y-15348D01*
X54130Y-15376D01*
X53886Y-15657D02*
X53886Y-15939D01*
X54017Y-15348D02*
X53886Y-15657D01*
X53755Y-15348D01*
X53192Y-15629D02*
X53323Y-15629D01*
X53323Y-15939D02*
X53323Y-15348D01*
X53136Y-15348D01*
X52985Y-15939D02*
X52985Y-15348D01*
X52985Y-15629D02*
X52760Y-15629D01*
X52760Y-15939D02*
X52760Y-15348D01*
X52572Y-15714D02*
X52272Y-15714D01*
X51859Y-15882D02*
X51878Y-15911D01*
X51934Y-15939D01*
X51972Y-15939D01*
X52028Y-15911D01*
X52065Y-15854D01*
X52084Y-15798D01*
X52103Y-15685D01*
X52103Y-15601D01*
X52084Y-15488D01*
X52065Y-15432D01*
X52028Y-15376D01*
X51972Y-15348D01*
X51934Y-15348D01*
X51878Y-15376D01*
X51859Y-15404D01*
X51690Y-15939D02*
X51690Y-15348D01*
X51559Y-15770D01*
X51428Y-15348D01*
X51428Y-15939D01*
X51259Y-15911D02*
X51203Y-15939D01*
X51109Y-15939D01*
X51071Y-15911D01*
X51053Y-15882D01*
X51034Y-15826D01*
X51034Y-15770D01*
X51053Y-15714D01*
X51071Y-15685D01*
X51109Y-15657D01*
X51184Y-15629D01*
X51221Y-15601D01*
X51240Y-15573D01*
X51259Y-15517D01*
X51259Y-15460D01*
X51240Y-15404D01*
X51221Y-15376D01*
X51184Y-15348D01*
X51090Y-15348D01*
X51034Y-15376D01*
X54899Y-16805D02*
X55086Y-16805D01*
X55086Y-16214D01*
X54617Y-16777D02*
X54655Y-16805D01*
X54730Y-16805D01*
X54767Y-16777D01*
X54786Y-16720D01*
X54786Y-16495D01*
X54767Y-16439D01*
X54730Y-16411D01*
X54655Y-16411D01*
X54617Y-16439D01*
X54598Y-16495D01*
X54598Y-16551D01*
X54786Y-16608D01*
X54429Y-16805D02*
X54429Y-16411D01*
X54429Y-16214D02*
X54448Y-16242D01*
X54429Y-16270D01*
X54410Y-16242D01*
X54429Y-16214D01*
X54429Y-16270D01*
X54297Y-16411D02*
X54147Y-16411D01*
X54241Y-16214D02*
X54241Y-16720D01*
X54222Y-16777D01*
X54185Y-16805D01*
X54147Y-16805D01*
X53866Y-16777D02*
X53904Y-16805D01*
X53979Y-16805D01*
X54016Y-16777D01*
X54035Y-16720D01*
X54035Y-16495D01*
X54016Y-16439D01*
X53979Y-16411D01*
X53904Y-16411D01*
X53866Y-16439D01*
X53847Y-16495D01*
X53847Y-16551D01*
X54035Y-16608D01*
X53678Y-16805D02*
X53678Y-16411D01*
X53678Y-16523D02*
X53659Y-16467D01*
X53641Y-16439D01*
X53603Y-16411D01*
X53566Y-16411D01*
X53434Y-16411D02*
X53434Y-17002D01*
X53434Y-16439D02*
X53397Y-16411D01*
X53322Y-16411D01*
X53284Y-16439D01*
X53265Y-16467D01*
X53247Y-16523D01*
X53247Y-16692D01*
X53265Y-16748D01*
X53284Y-16777D01*
X53322Y-16805D01*
X53397Y-16805D01*
X53434Y-16777D01*
X53022Y-16805D02*
X53059Y-16777D01*
X53078Y-16720D01*
X53078Y-16214D01*
X52703Y-16805D02*
X52703Y-16495D01*
X52722Y-16439D01*
X52760Y-16411D01*
X52835Y-16411D01*
X52872Y-16439D01*
X52703Y-16777D02*
X52741Y-16805D01*
X52835Y-16805D01*
X52872Y-16777D01*
X52891Y-16720D01*
X52891Y-16664D01*
X52872Y-16608D01*
X52835Y-16580D01*
X52741Y-16580D01*
X52703Y-16551D01*
X52572Y-16411D02*
X52422Y-16411D01*
X52516Y-16214D02*
X52516Y-16720D01*
X52497Y-16777D01*
X52460Y-16805D01*
X52422Y-16805D01*
X52347Y-16411D02*
X52197Y-16411D01*
X52291Y-16214D02*
X52291Y-16720D01*
X52272Y-16777D01*
X52235Y-16805D01*
X52197Y-16805D01*
X51916Y-16777D02*
X51954Y-16805D01*
X52029Y-16805D01*
X52066Y-16777D01*
X52085Y-16720D01*
X52085Y-16495D01*
X52066Y-16439D01*
X52029Y-16411D01*
X51954Y-16411D01*
X51916Y-16439D01*
X51897Y-16495D01*
X51897Y-16551D01*
X52085Y-16608D01*
X51409Y-16805D02*
X51334Y-16805D01*
X51297Y-16777D01*
X51278Y-16748D01*
X51241Y-16664D01*
X51222Y-16551D01*
X51222Y-16326D01*
X51241Y-16270D01*
X51259Y-16242D01*
X51297Y-16214D01*
X51372Y-16214D01*
X51409Y-16242D01*
X51428Y-16270D01*
X51447Y-16326D01*
X51447Y-16467D01*
X51428Y-16523D01*
X51409Y-16551D01*
X51372Y-16580D01*
X51297Y-16580D01*
X51259Y-16551D01*
X51241Y-16523D01*
X51222Y-16467D01*
X50978Y-16214D02*
X50941Y-16214D01*
X50903Y-16242D01*
X50884Y-16270D01*
X50866Y-16326D01*
X50847Y-16439D01*
X50847Y-16580D01*
X50866Y-16692D01*
X50884Y-16748D01*
X50903Y-16777D01*
X50941Y-16805D01*
X50978Y-16805D01*
X51016Y-16777D01*
X51034Y-16748D01*
X51053Y-16692D01*
X51072Y-16580D01*
X51072Y-16439D01*
X51053Y-16326D01*
X51034Y-16270D01*
X51016Y-16242D01*
X50978Y-16214D01*
X50603Y-16214D02*
X50566Y-16214D01*
X50528Y-16242D01*
X50509Y-16270D01*
X50491Y-16326D01*
X50472Y-16439D01*
X50472Y-16580D01*
X50491Y-16692D01*
X50509Y-16748D01*
X50528Y-16777D01*
X50566Y-16805D01*
X50603Y-16805D01*
X50641Y-16777D01*
X50659Y-16748D01*
X50678Y-16692D01*
X50697Y-16580D01*
X50697Y-16439D01*
X50678Y-16326D01*
X50659Y-16270D01*
X50641Y-16242D01*
X50603Y-16214D01*
X50134Y-16214D02*
X50209Y-16214D01*
X50247Y-16242D01*
X50266Y-16270D01*
X50303Y-16354D01*
X50322Y-16467D01*
X50322Y-16692D01*
X50303Y-16748D01*
X50284Y-16777D01*
X50247Y-16805D01*
X50172Y-16805D01*
X50134Y-16777D01*
X50116Y-16748D01*
X50097Y-16692D01*
X50097Y-16551D01*
X50116Y-16495D01*
X50134Y-16467D01*
X50172Y-16439D01*
X50247Y-16439D01*
X50284Y-16467D01*
X50303Y-16495D01*
X50322Y-16551D01*
X49928Y-16580D02*
X49628Y-16580D01*
X49253Y-16805D02*
X49440Y-16805D01*
X49440Y-16214D01*
X49140Y-16777D02*
X49084Y-16805D01*
X48990Y-16805D01*
X48952Y-16777D01*
X48934Y-16748D01*
X48915Y-16692D01*
X48915Y-16636D01*
X48934Y-16580D01*
X48952Y-16551D01*
X48990Y-16523D01*
X49065Y-16495D01*
X49102Y-16467D01*
X49121Y-16439D01*
X49140Y-16383D01*
X49140Y-16326D01*
X49121Y-16270D01*
X49102Y-16242D01*
X49065Y-16214D01*
X48971Y-16214D01*
X48915Y-16242D01*
X48746Y-16805D02*
X48746Y-16214D01*
X48615Y-16636D01*
X48484Y-16214D01*
X48484Y-16805D01*
X48315Y-16270D02*
X48296Y-16242D01*
X48259Y-16214D01*
X48165Y-16214D01*
X48127Y-16242D01*
X48109Y-16270D01*
X48090Y-16326D01*
X48090Y-16383D01*
X48109Y-16467D01*
X48334Y-16805D01*
X48090Y-16805D01*
X55086Y-18537D02*
X55086Y-17946D01*
X54936Y-17946D01*
X54899Y-17974D01*
X54880Y-18002D01*
X54861Y-18058D01*
X54861Y-18143D01*
X54880Y-18199D01*
X54899Y-18227D01*
X54936Y-18255D01*
X55086Y-18255D01*
X54711Y-18509D02*
X54655Y-18537D01*
X54561Y-18537D01*
X54523Y-18509D01*
X54505Y-18480D01*
X54486Y-18424D01*
X54486Y-18368D01*
X54505Y-18312D01*
X54523Y-18283D01*
X54561Y-18255D01*
X54636Y-18227D01*
X54673Y-18199D01*
X54692Y-18171D01*
X54711Y-18115D01*
X54711Y-18058D01*
X54692Y-18002D01*
X54673Y-17974D01*
X54636Y-17946D01*
X54542Y-17946D01*
X54486Y-17974D01*
X54317Y-18537D02*
X54317Y-17946D01*
X53960Y-18143D02*
X53960Y-18537D01*
X54054Y-17918D02*
X54148Y-18340D01*
X53904Y-18340D01*
X53585Y-17946D02*
X53660Y-17946D01*
X53698Y-17974D01*
X53717Y-18002D01*
X53754Y-18086D01*
X53773Y-18199D01*
X53773Y-18424D01*
X53754Y-18480D01*
X53735Y-18509D01*
X53698Y-18537D01*
X53623Y-18537D01*
X53585Y-18509D01*
X53567Y-18480D01*
X53548Y-18424D01*
X53548Y-18283D01*
X53567Y-18227D01*
X53585Y-18199D01*
X53623Y-18171D01*
X53698Y-18171D01*
X53735Y-18199D01*
X53754Y-18227D01*
X53773Y-18283D01*
X52854Y-18537D02*
X52985Y-18255D01*
X53079Y-18537D02*
X53079Y-17946D01*
X52929Y-17946D01*
X52892Y-17974D01*
X52873Y-18002D01*
X52854Y-18058D01*
X52854Y-18143D01*
X52873Y-18199D01*
X52892Y-18227D01*
X52929Y-18255D01*
X53079Y-18255D01*
X52610Y-17946D02*
X52535Y-17946D01*
X52498Y-17974D01*
X52460Y-18030D01*
X52441Y-18143D01*
X52441Y-18340D01*
X52460Y-18452D01*
X52498Y-18509D01*
X52535Y-18537D01*
X52610Y-18537D01*
X52648Y-18509D01*
X52685Y-18452D01*
X52704Y-18340D01*
X52704Y-18143D01*
X52685Y-18030D01*
X52648Y-17974D01*
X52610Y-17946D01*
X52047Y-18480D02*
X52066Y-18509D01*
X52122Y-18537D01*
X52160Y-18537D01*
X52216Y-18509D01*
X52253Y-18452D01*
X52272Y-18396D01*
X52291Y-18283D01*
X52291Y-18199D01*
X52272Y-18086D01*
X52253Y-18030D01*
X52216Y-17974D01*
X52160Y-17946D01*
X52122Y-17946D01*
X52066Y-17974D01*
X52047Y-18002D01*
X51353Y-18480D02*
X51372Y-18509D01*
X51428Y-18537D01*
X51466Y-18537D01*
X51522Y-18509D01*
X51559Y-18452D01*
X51578Y-18396D01*
X51597Y-18283D01*
X51597Y-18199D01*
X51578Y-18086D01*
X51559Y-18030D01*
X51522Y-17974D01*
X51466Y-17946D01*
X51428Y-17946D01*
X51372Y-17974D01*
X51353Y-18002D01*
X51015Y-18537D02*
X51015Y-18227D01*
X51034Y-18171D01*
X51072Y-18143D01*
X51147Y-18143D01*
X51184Y-18171D01*
X51015Y-18509D02*
X51053Y-18537D01*
X51147Y-18537D01*
X51184Y-18509D01*
X51203Y-18452D01*
X51203Y-18396D01*
X51184Y-18340D01*
X51147Y-18312D01*
X51053Y-18312D01*
X51015Y-18283D01*
X50828Y-18537D02*
X50828Y-18143D01*
X50828Y-18255D02*
X50809Y-18199D01*
X50791Y-18171D01*
X50753Y-18143D01*
X50716Y-18143D01*
X50584Y-18537D02*
X50584Y-18143D01*
X50584Y-18255D02*
X50565Y-18199D01*
X50547Y-18171D01*
X50509Y-18143D01*
X50472Y-18143D01*
X50340Y-18537D02*
X50340Y-18143D01*
X50340Y-17946D02*
X50359Y-17974D01*
X50340Y-18002D01*
X50321Y-17974D01*
X50340Y-17946D01*
X50340Y-18002D01*
X50002Y-18509D02*
X50040Y-18537D01*
X50115Y-18537D01*
X50152Y-18509D01*
X50171Y-18452D01*
X50171Y-18227D01*
X50152Y-18171D01*
X50115Y-18143D01*
X50040Y-18143D01*
X50002Y-18171D01*
X49983Y-18227D01*
X49983Y-18283D01*
X50171Y-18340D01*
X49814Y-18537D02*
X49814Y-18143D01*
X49814Y-18255D02*
X49795Y-18199D01*
X49777Y-18171D01*
X49739Y-18143D01*
X49702Y-18143D01*
X49139Y-18227D02*
X49083Y-18255D01*
X49064Y-18283D01*
X49045Y-18340D01*
X49045Y-18424D01*
X49064Y-18480D01*
X49083Y-18509D01*
X49120Y-18537D01*
X49270Y-18537D01*
X49270Y-17946D01*
X49139Y-17946D01*
X49101Y-17974D01*
X49083Y-18002D01*
X49064Y-18058D01*
X49064Y-18115D01*
X49083Y-18171D01*
X49101Y-18199D01*
X49139Y-18227D01*
X49270Y-18227D01*
X48820Y-18537D02*
X48857Y-18509D01*
X48876Y-18480D01*
X48895Y-18424D01*
X48895Y-18255D01*
X48876Y-18199D01*
X48857Y-18171D01*
X48820Y-18143D01*
X48764Y-18143D01*
X48726Y-18171D01*
X48707Y-18199D01*
X48689Y-18255D01*
X48689Y-18424D01*
X48707Y-18480D01*
X48726Y-18509D01*
X48764Y-18537D01*
X48820Y-18537D01*
X48351Y-18537D02*
X48351Y-18227D01*
X48370Y-18171D01*
X48408Y-18143D01*
X48483Y-18143D01*
X48520Y-18171D01*
X48351Y-18509D02*
X48389Y-18537D01*
X48483Y-18537D01*
X48520Y-18509D01*
X48539Y-18452D01*
X48539Y-18396D01*
X48520Y-18340D01*
X48483Y-18312D01*
X48389Y-18312D01*
X48351Y-18283D01*
X48164Y-18537D02*
X48164Y-18143D01*
X48164Y-18255D02*
X48145Y-18199D01*
X48127Y-18171D01*
X48089Y-18143D01*
X48052Y-18143D01*
X47751Y-18537D02*
X47751Y-17946D01*
X47751Y-18509D02*
X47789Y-18537D01*
X47864Y-18537D01*
X47901Y-18509D01*
X47920Y-18480D01*
X47939Y-18424D01*
X47939Y-18255D01*
X47920Y-18199D01*
X47901Y-18171D01*
X47864Y-18143D01*
X47789Y-18143D01*
X47751Y-18171D01*
X54861Y-19346D02*
X54880Y-19375D01*
X54936Y-19403D01*
X54974Y-19403D01*
X55030Y-19375D01*
X55067Y-19318D01*
X55086Y-19262D01*
X55105Y-19149D01*
X55105Y-19065D01*
X55086Y-18952D01*
X55067Y-18896D01*
X55030Y-18840D01*
X54974Y-18812D01*
X54936Y-18812D01*
X54880Y-18840D01*
X54861Y-18868D01*
X54636Y-19403D02*
X54673Y-19375D01*
X54692Y-19346D01*
X54711Y-19290D01*
X54711Y-19121D01*
X54692Y-19065D01*
X54673Y-19037D01*
X54636Y-19009D01*
X54580Y-19009D01*
X54542Y-19037D01*
X54523Y-19065D01*
X54505Y-19121D01*
X54505Y-19290D01*
X54523Y-19346D01*
X54542Y-19375D01*
X54580Y-19403D01*
X54636Y-19403D01*
X54280Y-19403D02*
X54317Y-19375D01*
X54336Y-19346D01*
X54355Y-19290D01*
X54355Y-19121D01*
X54336Y-19065D01*
X54317Y-19037D01*
X54280Y-19009D01*
X54224Y-19009D01*
X54186Y-19037D01*
X54167Y-19065D01*
X54149Y-19121D01*
X54149Y-19290D01*
X54167Y-19346D01*
X54186Y-19375D01*
X54224Y-19403D01*
X54280Y-19403D01*
X53924Y-19403D02*
X53961Y-19375D01*
X53980Y-19318D01*
X53980Y-18812D01*
X53774Y-19403D02*
X53774Y-19009D01*
X53774Y-18812D02*
X53793Y-18840D01*
X53774Y-18868D01*
X53755Y-18840D01*
X53774Y-18812D01*
X53774Y-18868D01*
X53586Y-19009D02*
X53586Y-19403D01*
X53586Y-19065D02*
X53567Y-19037D01*
X53530Y-19009D01*
X53474Y-19009D01*
X53436Y-19037D01*
X53417Y-19093D01*
X53417Y-19403D01*
X53061Y-19009D02*
X53061Y-19487D01*
X53080Y-19543D01*
X53099Y-19572D01*
X53136Y-19600D01*
X53193Y-19600D01*
X53230Y-19572D01*
X53061Y-19375D02*
X53099Y-19403D01*
X53174Y-19403D01*
X53211Y-19375D01*
X53230Y-19346D01*
X53249Y-19290D01*
X53249Y-19121D01*
X53230Y-19065D01*
X53211Y-19037D01*
X53174Y-19009D01*
X53099Y-19009D01*
X53061Y-19037D01*
X52630Y-18812D02*
X52499Y-19403D01*
X52368Y-18812D01*
X52236Y-19403D02*
X52236Y-19009D01*
X52236Y-18812D02*
X52255Y-18840D01*
X52236Y-18868D01*
X52217Y-18840D01*
X52236Y-18812D01*
X52236Y-18868D01*
X51879Y-19403D02*
X51879Y-19093D01*
X51898Y-19037D01*
X51936Y-19009D01*
X52011Y-19009D01*
X52048Y-19037D01*
X51879Y-19375D02*
X51917Y-19403D01*
X52011Y-19403D01*
X52048Y-19375D01*
X52067Y-19318D01*
X52067Y-19262D01*
X52048Y-19206D01*
X52011Y-19178D01*
X51917Y-19178D01*
X51879Y-19149D01*
X51711Y-19375D02*
X51673Y-19403D01*
X51598Y-19403D01*
X51561Y-19375D01*
X51542Y-19318D01*
X51542Y-19290D01*
X51561Y-19234D01*
X51598Y-19206D01*
X51655Y-19206D01*
X51692Y-19178D01*
X51711Y-19121D01*
X51711Y-19093D01*
X51692Y-19037D01*
X51655Y-19009D01*
X51598Y-19009D01*
X51561Y-19037D01*
X51354Y-19375D02*
X51354Y-19403D01*
X51373Y-19459D01*
X51392Y-19487D01*
X50923Y-18812D02*
X50829Y-19403D01*
X50754Y-18981D01*
X50679Y-19403D01*
X50585Y-18812D01*
X50435Y-19403D02*
X50435Y-19009D01*
X50435Y-18812D02*
X50454Y-18840D01*
X50435Y-18868D01*
X50416Y-18840D01*
X50435Y-18812D01*
X50435Y-18868D01*
X50247Y-19403D02*
X50247Y-19009D01*
X50247Y-19121D02*
X50228Y-19065D01*
X50210Y-19037D01*
X50172Y-19009D01*
X50135Y-19009D01*
X49853Y-19375D02*
X49891Y-19403D01*
X49966Y-19403D01*
X50003Y-19375D01*
X50022Y-19318D01*
X50022Y-19093D01*
X50003Y-19037D01*
X49966Y-19009D01*
X49891Y-19009D01*
X49853Y-19037D01*
X49834Y-19093D01*
X49834Y-19149D01*
X50022Y-19206D01*
X49234Y-19093D02*
X49178Y-19121D01*
X49159Y-19149D01*
X49140Y-19206D01*
X49140Y-19290D01*
X49159Y-19346D01*
X49178Y-19375D01*
X49215Y-19403D01*
X49365Y-19403D01*
X49365Y-18812D01*
X49234Y-18812D01*
X49196Y-18840D01*
X49178Y-18868D01*
X49159Y-18924D01*
X49159Y-18981D01*
X49178Y-19037D01*
X49196Y-19065D01*
X49234Y-19093D01*
X49365Y-19093D01*
X48915Y-19403D02*
X48952Y-19375D01*
X48971Y-19346D01*
X48990Y-19290D01*
X48990Y-19121D01*
X48971Y-19065D01*
X48952Y-19037D01*
X48915Y-19009D01*
X48859Y-19009D01*
X48821Y-19037D01*
X48802Y-19065D01*
X48784Y-19121D01*
X48784Y-19290D01*
X48802Y-19346D01*
X48821Y-19375D01*
X48859Y-19403D01*
X48915Y-19403D01*
X48615Y-19009D02*
X48615Y-19403D01*
X48615Y-19065D02*
X48596Y-19037D01*
X48559Y-19009D01*
X48503Y-19009D01*
X48465Y-19037D01*
X48446Y-19093D01*
X48446Y-19403D01*
X48090Y-19403D02*
X48090Y-18812D01*
X48090Y-19375D02*
X48128Y-19403D01*
X48203Y-19403D01*
X48240Y-19375D01*
X48259Y-19346D01*
X48278Y-19290D01*
X48278Y-19121D01*
X48259Y-19065D01*
X48240Y-19037D01*
X48203Y-19009D01*
X48128Y-19009D01*
X48090Y-19037D01*
X47603Y-19403D02*
X47603Y-18812D01*
X47453Y-18812D01*
X47416Y-18840D01*
X47397Y-18868D01*
X47378Y-18924D01*
X47378Y-19009D01*
X47397Y-19065D01*
X47416Y-19093D01*
X47453Y-19121D01*
X47603Y-19121D01*
X47040Y-19403D02*
X47040Y-19093D01*
X47059Y-19037D01*
X47097Y-19009D01*
X47172Y-19009D01*
X47209Y-19037D01*
X47040Y-19375D02*
X47078Y-19403D01*
X47172Y-19403D01*
X47209Y-19375D01*
X47228Y-19318D01*
X47228Y-19262D01*
X47209Y-19206D01*
X47172Y-19178D01*
X47078Y-19178D01*
X47040Y-19149D01*
X46684Y-19403D02*
X46684Y-18812D01*
X46684Y-19375D02*
X46722Y-19403D01*
X46797Y-19403D01*
X46834Y-19375D01*
X46853Y-19346D01*
X46872Y-19290D01*
X46872Y-19121D01*
X46853Y-19065D01*
X46834Y-19037D01*
X46797Y-19009D01*
X46722Y-19009D01*
X46684Y-19037D01*
X46516Y-19375D02*
X46478Y-19403D01*
X46403Y-19403D01*
X46366Y-19375D01*
X46347Y-19318D01*
X46347Y-19290D01*
X46366Y-19234D01*
X46403Y-19206D01*
X46460Y-19206D01*
X46497Y-19178D01*
X46516Y-19121D01*
X46516Y-19093D01*
X46497Y-19037D01*
X46460Y-19009D01*
X46403Y-19009D01*
X46366Y-19037D01*
X46159Y-19375D02*
X46159Y-19403D01*
X46178Y-19459D01*
X46197Y-19487D01*
X45465Y-19403D02*
X45596Y-19121D01*
X45690Y-19403D02*
X45690Y-18812D01*
X45540Y-18812D01*
X45503Y-18840D01*
X45484Y-18868D01*
X45465Y-18924D01*
X45465Y-19009D01*
X45484Y-19065D01*
X45503Y-19093D01*
X45540Y-19121D01*
X45690Y-19121D01*
X45240Y-19403D02*
X45277Y-19375D01*
X45296Y-19346D01*
X45315Y-19290D01*
X45315Y-19121D01*
X45296Y-19065D01*
X45277Y-19037D01*
X45240Y-19009D01*
X45184Y-19009D01*
X45146Y-19037D01*
X45127Y-19065D01*
X45109Y-19121D01*
X45109Y-19290D01*
X45127Y-19346D01*
X45146Y-19375D01*
X45184Y-19403D01*
X45240Y-19403D01*
X44996Y-19009D02*
X44846Y-19009D01*
X44940Y-18812D02*
X44940Y-19318D01*
X44921Y-19375D01*
X44884Y-19403D01*
X44846Y-19403D01*
X44546Y-19403D02*
X44546Y-19093D01*
X44565Y-19037D01*
X44603Y-19009D01*
X44678Y-19009D01*
X44715Y-19037D01*
X44546Y-19375D02*
X44584Y-19403D01*
X44678Y-19403D01*
X44715Y-19375D01*
X44734Y-19318D01*
X44734Y-19262D01*
X44715Y-19206D01*
X44678Y-19178D01*
X44584Y-19178D01*
X44546Y-19149D01*
X44415Y-19009D02*
X44265Y-19009D01*
X44359Y-18812D02*
X44359Y-19318D01*
X44340Y-19375D01*
X44303Y-19403D01*
X44265Y-19403D01*
X43984Y-19375D02*
X44022Y-19403D01*
X44097Y-19403D01*
X44134Y-19375D01*
X44153Y-19318D01*
X44153Y-19093D01*
X44134Y-19037D01*
X44097Y-19009D01*
X44022Y-19009D01*
X43984Y-19037D01*
X43965Y-19093D01*
X43965Y-19149D01*
X44153Y-19206D01*
X43627Y-19403D02*
X43627Y-18812D01*
X43627Y-19375D02*
X43665Y-19403D01*
X43740Y-19403D01*
X43777Y-19375D01*
X43796Y-19346D01*
X43815Y-19290D01*
X43815Y-19121D01*
X43796Y-19065D01*
X43777Y-19037D01*
X43740Y-19009D01*
X43665Y-19009D01*
X43627Y-19037D01*
X42915Y-19403D02*
X43046Y-19121D01*
X43140Y-19403D02*
X43140Y-18812D01*
X42990Y-18812D01*
X42953Y-18840D01*
X42934Y-18868D01*
X42915Y-18924D01*
X42915Y-19009D01*
X42934Y-19065D01*
X42953Y-19093D01*
X42990Y-19121D01*
X43140Y-19121D01*
X42671Y-18812D02*
X42596Y-18812D01*
X42559Y-18840D01*
X42521Y-18896D01*
X42502Y-19009D01*
X42502Y-19206D01*
X42521Y-19318D01*
X42559Y-19375D01*
X42596Y-19403D01*
X42671Y-19403D01*
X42709Y-19375D01*
X42746Y-19318D01*
X42765Y-19206D01*
X42765Y-19009D01*
X42746Y-18896D01*
X42709Y-18840D01*
X42671Y-18812D01*
X42108Y-19346D02*
X42127Y-19375D01*
X42183Y-19403D01*
X42221Y-19403D01*
X42277Y-19375D01*
X42314Y-19318D01*
X42333Y-19262D01*
X42352Y-19149D01*
X42352Y-19065D01*
X42333Y-18952D01*
X42314Y-18896D01*
X42277Y-18840D01*
X42221Y-18812D01*
X42183Y-18812D01*
X42127Y-18840D01*
X42108Y-18868D01*
X41639Y-19403D02*
X41639Y-18812D01*
X41508Y-19234D01*
X41377Y-18812D01*
X41377Y-19403D01*
X41133Y-19403D02*
X41170Y-19375D01*
X41189Y-19346D01*
X41208Y-19290D01*
X41208Y-19121D01*
X41189Y-19065D01*
X41170Y-19037D01*
X41133Y-19009D01*
X41077Y-19009D01*
X41039Y-19037D01*
X41020Y-19065D01*
X41002Y-19121D01*
X41002Y-19290D01*
X41020Y-19346D01*
X41039Y-19375D01*
X41077Y-19403D01*
X41133Y-19403D01*
X40664Y-19009D02*
X40664Y-19403D01*
X40833Y-19009D02*
X40833Y-19318D01*
X40814Y-19375D01*
X40777Y-19403D01*
X40721Y-19403D01*
X40683Y-19375D01*
X40664Y-19346D01*
X40477Y-19009D02*
X40477Y-19403D01*
X40477Y-19065D02*
X40458Y-19037D01*
X40421Y-19009D01*
X40365Y-19009D01*
X40327Y-19037D01*
X40308Y-19093D01*
X40308Y-19403D01*
X40177Y-19009D02*
X40027Y-19009D01*
X40121Y-18812D02*
X40121Y-19318D01*
X40102Y-19375D01*
X40065Y-19403D01*
X40027Y-19403D01*
X39896Y-19403D02*
X39896Y-19009D01*
X39896Y-18812D02*
X39915Y-18840D01*
X39896Y-18868D01*
X39877Y-18840D01*
X39896Y-18812D01*
X39896Y-18868D01*
X39708Y-19009D02*
X39708Y-19403D01*
X39708Y-19065D02*
X39689Y-19037D01*
X39652Y-19009D01*
X39596Y-19009D01*
X39558Y-19037D01*
X39539Y-19093D01*
X39539Y-19403D01*
X39183Y-19009D02*
X39183Y-19487D01*
X39202Y-19543D01*
X39221Y-19572D01*
X39258Y-19600D01*
X39315Y-19600D01*
X39352Y-19572D01*
X39183Y-19375D02*
X39221Y-19403D01*
X39296Y-19403D01*
X39333Y-19375D01*
X39352Y-19346D01*
X39371Y-19290D01*
X39371Y-19121D01*
X39352Y-19065D01*
X39333Y-19037D01*
X39296Y-19009D01*
X39221Y-19009D01*
X39183Y-19037D01*
G54D12*
X38816Y-36751D02*
X38816Y-21042D01*
X55253Y-36751D02*
X38816Y-36751D01*
X55253Y-21042D02*
X55253Y-36751D01*
X38816Y-21042D02*
X55253Y-21042D01*
G54D13*
X52160Y-33240D03*
X41920Y-33240D03*
M02*
