G04 (created by PCBNEW-RS274X (2012-apr-16-27)-stable) date Wed 10 Jul 2013 04:33:38 PM CEST*
G01*
G70*
G90*
%MOIN*%
G04 Gerber Fmt 3.4, Leading zero omitted, Abs format*
%FSLAX34Y34*%
G04 APERTURE LIST*
%ADD10C,0.000000*%
%ADD11C,0.003900*%
%ADD12C,0.002000*%
%ADD13C,0.094400*%
%ADD14R,0.031400X0.110200*%
%ADD15R,0.023500X0.015800*%
G04 APERTURE END LIST*
G54D10*
G54D11*
X38834Y-15939D02*
X38834Y-15348D01*
X38928Y-15348D01*
X38984Y-15376D01*
X39021Y-15432D01*
X39040Y-15488D01*
X39059Y-15601D01*
X39059Y-15685D01*
X39040Y-15798D01*
X39021Y-15854D01*
X38984Y-15911D01*
X38928Y-15939D01*
X38834Y-15939D01*
X39228Y-15629D02*
X39359Y-15629D01*
X39415Y-15939D02*
X39228Y-15939D01*
X39228Y-15348D01*
X39415Y-15348D01*
X39565Y-15911D02*
X39621Y-15939D01*
X39715Y-15939D01*
X39753Y-15911D01*
X39771Y-15882D01*
X39790Y-15826D01*
X39790Y-15770D01*
X39771Y-15714D01*
X39753Y-15685D01*
X39715Y-15657D01*
X39640Y-15629D01*
X39603Y-15601D01*
X39584Y-15573D01*
X39565Y-15517D01*
X39565Y-15460D01*
X39584Y-15404D01*
X39603Y-15376D01*
X39640Y-15348D01*
X39734Y-15348D01*
X39790Y-15376D01*
X40034Y-15657D02*
X40034Y-15939D01*
X39903Y-15348D02*
X40034Y-15657D01*
X40165Y-15348D01*
X40728Y-15629D02*
X40597Y-15629D01*
X40597Y-15939D02*
X40597Y-15348D01*
X40784Y-15348D01*
X40935Y-15939D02*
X40935Y-15348D01*
X40935Y-15629D02*
X41160Y-15629D01*
X41160Y-15939D02*
X41160Y-15348D01*
X41348Y-15714D02*
X41648Y-15714D01*
X42061Y-15882D02*
X42042Y-15911D01*
X41986Y-15939D01*
X41948Y-15939D01*
X41892Y-15911D01*
X41855Y-15854D01*
X41836Y-15798D01*
X41817Y-15685D01*
X41817Y-15601D01*
X41836Y-15488D01*
X41855Y-15432D01*
X41892Y-15376D01*
X41948Y-15348D01*
X41986Y-15348D01*
X42042Y-15376D01*
X42061Y-15404D01*
X42230Y-15939D02*
X42230Y-15348D01*
X42361Y-15770D01*
X42492Y-15348D01*
X42492Y-15939D01*
X42661Y-15911D02*
X42717Y-15939D01*
X42811Y-15939D01*
X42849Y-15911D01*
X42867Y-15882D01*
X42886Y-15826D01*
X42886Y-15770D01*
X42867Y-15714D01*
X42849Y-15685D01*
X42811Y-15657D01*
X42736Y-15629D01*
X42699Y-15601D01*
X42680Y-15573D01*
X42661Y-15517D01*
X42661Y-15460D01*
X42680Y-15404D01*
X42699Y-15376D01*
X42736Y-15348D01*
X42830Y-15348D01*
X42886Y-15376D01*
X39021Y-16805D02*
X38834Y-16805D01*
X38834Y-16214D01*
X39303Y-16777D02*
X39265Y-16805D01*
X39190Y-16805D01*
X39153Y-16777D01*
X39134Y-16720D01*
X39134Y-16495D01*
X39153Y-16439D01*
X39190Y-16411D01*
X39265Y-16411D01*
X39303Y-16439D01*
X39322Y-16495D01*
X39322Y-16551D01*
X39134Y-16608D01*
X39491Y-16805D02*
X39491Y-16411D01*
X39491Y-16214D02*
X39472Y-16242D01*
X39491Y-16270D01*
X39510Y-16242D01*
X39491Y-16214D01*
X39491Y-16270D01*
X39623Y-16411D02*
X39773Y-16411D01*
X39679Y-16214D02*
X39679Y-16720D01*
X39698Y-16777D01*
X39735Y-16805D01*
X39773Y-16805D01*
X40054Y-16777D02*
X40016Y-16805D01*
X39941Y-16805D01*
X39904Y-16777D01*
X39885Y-16720D01*
X39885Y-16495D01*
X39904Y-16439D01*
X39941Y-16411D01*
X40016Y-16411D01*
X40054Y-16439D01*
X40073Y-16495D01*
X40073Y-16551D01*
X39885Y-16608D01*
X40242Y-16805D02*
X40242Y-16411D01*
X40242Y-16523D02*
X40261Y-16467D01*
X40279Y-16439D01*
X40317Y-16411D01*
X40354Y-16411D01*
X40486Y-16411D02*
X40486Y-17002D01*
X40486Y-16439D02*
X40523Y-16411D01*
X40598Y-16411D01*
X40636Y-16439D01*
X40655Y-16467D01*
X40673Y-16523D01*
X40673Y-16692D01*
X40655Y-16748D01*
X40636Y-16777D01*
X40598Y-16805D01*
X40523Y-16805D01*
X40486Y-16777D01*
X40898Y-16805D02*
X40861Y-16777D01*
X40842Y-16720D01*
X40842Y-16214D01*
X41217Y-16805D02*
X41217Y-16495D01*
X41198Y-16439D01*
X41160Y-16411D01*
X41085Y-16411D01*
X41048Y-16439D01*
X41217Y-16777D02*
X41179Y-16805D01*
X41085Y-16805D01*
X41048Y-16777D01*
X41029Y-16720D01*
X41029Y-16664D01*
X41048Y-16608D01*
X41085Y-16580D01*
X41179Y-16580D01*
X41217Y-16551D01*
X41348Y-16411D02*
X41498Y-16411D01*
X41404Y-16214D02*
X41404Y-16720D01*
X41423Y-16777D01*
X41460Y-16805D01*
X41498Y-16805D01*
X41573Y-16411D02*
X41723Y-16411D01*
X41629Y-16214D02*
X41629Y-16720D01*
X41648Y-16777D01*
X41685Y-16805D01*
X41723Y-16805D01*
X42004Y-16777D02*
X41966Y-16805D01*
X41891Y-16805D01*
X41854Y-16777D01*
X41835Y-16720D01*
X41835Y-16495D01*
X41854Y-16439D01*
X41891Y-16411D01*
X41966Y-16411D01*
X42004Y-16439D01*
X42023Y-16495D01*
X42023Y-16551D01*
X41835Y-16608D01*
X42511Y-16805D02*
X42586Y-16805D01*
X42623Y-16777D01*
X42642Y-16748D01*
X42679Y-16664D01*
X42698Y-16551D01*
X42698Y-16326D01*
X42679Y-16270D01*
X42661Y-16242D01*
X42623Y-16214D01*
X42548Y-16214D01*
X42511Y-16242D01*
X42492Y-16270D01*
X42473Y-16326D01*
X42473Y-16467D01*
X42492Y-16523D01*
X42511Y-16551D01*
X42548Y-16580D01*
X42623Y-16580D01*
X42661Y-16551D01*
X42679Y-16523D01*
X42698Y-16467D01*
X42942Y-16214D02*
X42979Y-16214D01*
X43017Y-16242D01*
X43036Y-16270D01*
X43054Y-16326D01*
X43073Y-16439D01*
X43073Y-16580D01*
X43054Y-16692D01*
X43036Y-16748D01*
X43017Y-16777D01*
X42979Y-16805D01*
X42942Y-16805D01*
X42904Y-16777D01*
X42886Y-16748D01*
X42867Y-16692D01*
X42848Y-16580D01*
X42848Y-16439D01*
X42867Y-16326D01*
X42886Y-16270D01*
X42904Y-16242D01*
X42942Y-16214D01*
X43317Y-16214D02*
X43354Y-16214D01*
X43392Y-16242D01*
X43411Y-16270D01*
X43429Y-16326D01*
X43448Y-16439D01*
X43448Y-16580D01*
X43429Y-16692D01*
X43411Y-16748D01*
X43392Y-16777D01*
X43354Y-16805D01*
X43317Y-16805D01*
X43279Y-16777D01*
X43261Y-16748D01*
X43242Y-16692D01*
X43223Y-16580D01*
X43223Y-16439D01*
X43242Y-16326D01*
X43261Y-16270D01*
X43279Y-16242D01*
X43317Y-16214D01*
X43786Y-16214D02*
X43711Y-16214D01*
X43673Y-16242D01*
X43654Y-16270D01*
X43617Y-16354D01*
X43598Y-16467D01*
X43598Y-16692D01*
X43617Y-16748D01*
X43636Y-16777D01*
X43673Y-16805D01*
X43748Y-16805D01*
X43786Y-16777D01*
X43804Y-16748D01*
X43823Y-16692D01*
X43823Y-16551D01*
X43804Y-16495D01*
X43786Y-16467D01*
X43748Y-16439D01*
X43673Y-16439D01*
X43636Y-16467D01*
X43617Y-16495D01*
X43598Y-16551D01*
X43992Y-16580D02*
X44292Y-16580D01*
X44667Y-16805D02*
X44480Y-16805D01*
X44480Y-16214D01*
X44780Y-16777D02*
X44836Y-16805D01*
X44930Y-16805D01*
X44968Y-16777D01*
X44986Y-16748D01*
X45005Y-16692D01*
X45005Y-16636D01*
X44986Y-16580D01*
X44968Y-16551D01*
X44930Y-16523D01*
X44855Y-16495D01*
X44818Y-16467D01*
X44799Y-16439D01*
X44780Y-16383D01*
X44780Y-16326D01*
X44799Y-16270D01*
X44818Y-16242D01*
X44855Y-16214D01*
X44949Y-16214D01*
X45005Y-16242D01*
X45174Y-16805D02*
X45174Y-16214D01*
X45305Y-16636D01*
X45436Y-16214D01*
X45436Y-16805D01*
X45830Y-16805D02*
X45605Y-16805D01*
X45718Y-16805D02*
X45718Y-16214D01*
X45680Y-16298D01*
X45643Y-16354D01*
X45605Y-16383D01*
X38834Y-18537D02*
X38834Y-17946D01*
X38984Y-17946D01*
X39021Y-17974D01*
X39040Y-18002D01*
X39059Y-18058D01*
X39059Y-18143D01*
X39040Y-18199D01*
X39021Y-18227D01*
X38984Y-18255D01*
X38834Y-18255D01*
X39209Y-18509D02*
X39265Y-18537D01*
X39359Y-18537D01*
X39397Y-18509D01*
X39415Y-18480D01*
X39434Y-18424D01*
X39434Y-18368D01*
X39415Y-18312D01*
X39397Y-18283D01*
X39359Y-18255D01*
X39284Y-18227D01*
X39247Y-18199D01*
X39228Y-18171D01*
X39209Y-18115D01*
X39209Y-18058D01*
X39228Y-18002D01*
X39247Y-17974D01*
X39284Y-17946D01*
X39378Y-17946D01*
X39434Y-17974D01*
X39603Y-18537D02*
X39603Y-17946D01*
X39960Y-18143D02*
X39960Y-18537D01*
X39866Y-17918D02*
X39772Y-18340D01*
X40016Y-18340D01*
X40335Y-17946D02*
X40260Y-17946D01*
X40222Y-17974D01*
X40203Y-18002D01*
X40166Y-18086D01*
X40147Y-18199D01*
X40147Y-18424D01*
X40166Y-18480D01*
X40185Y-18509D01*
X40222Y-18537D01*
X40297Y-18537D01*
X40335Y-18509D01*
X40353Y-18480D01*
X40372Y-18424D01*
X40372Y-18283D01*
X40353Y-18227D01*
X40335Y-18199D01*
X40297Y-18171D01*
X40222Y-18171D01*
X40185Y-18199D01*
X40166Y-18227D01*
X40147Y-18283D01*
X41066Y-18537D02*
X40935Y-18255D01*
X40841Y-18537D02*
X40841Y-17946D01*
X40991Y-17946D01*
X41028Y-17974D01*
X41047Y-18002D01*
X41066Y-18058D01*
X41066Y-18143D01*
X41047Y-18199D01*
X41028Y-18227D01*
X40991Y-18255D01*
X40841Y-18255D01*
X41310Y-17946D02*
X41385Y-17946D01*
X41422Y-17974D01*
X41460Y-18030D01*
X41479Y-18143D01*
X41479Y-18340D01*
X41460Y-18452D01*
X41422Y-18509D01*
X41385Y-18537D01*
X41310Y-18537D01*
X41272Y-18509D01*
X41235Y-18452D01*
X41216Y-18340D01*
X41216Y-18143D01*
X41235Y-18030D01*
X41272Y-17974D01*
X41310Y-17946D01*
X41873Y-18480D02*
X41854Y-18509D01*
X41798Y-18537D01*
X41760Y-18537D01*
X41704Y-18509D01*
X41667Y-18452D01*
X41648Y-18396D01*
X41629Y-18283D01*
X41629Y-18199D01*
X41648Y-18086D01*
X41667Y-18030D01*
X41704Y-17974D01*
X41760Y-17946D01*
X41798Y-17946D01*
X41854Y-17974D01*
X41873Y-18002D01*
X42567Y-18480D02*
X42548Y-18509D01*
X42492Y-18537D01*
X42454Y-18537D01*
X42398Y-18509D01*
X42361Y-18452D01*
X42342Y-18396D01*
X42323Y-18283D01*
X42323Y-18199D01*
X42342Y-18086D01*
X42361Y-18030D01*
X42398Y-17974D01*
X42454Y-17946D01*
X42492Y-17946D01*
X42548Y-17974D01*
X42567Y-18002D01*
X42905Y-18537D02*
X42905Y-18227D01*
X42886Y-18171D01*
X42848Y-18143D01*
X42773Y-18143D01*
X42736Y-18171D01*
X42905Y-18509D02*
X42867Y-18537D01*
X42773Y-18537D01*
X42736Y-18509D01*
X42717Y-18452D01*
X42717Y-18396D01*
X42736Y-18340D01*
X42773Y-18312D01*
X42867Y-18312D01*
X42905Y-18283D01*
X43092Y-18537D02*
X43092Y-18143D01*
X43092Y-18255D02*
X43111Y-18199D01*
X43129Y-18171D01*
X43167Y-18143D01*
X43204Y-18143D01*
X43336Y-18537D02*
X43336Y-18143D01*
X43336Y-18255D02*
X43355Y-18199D01*
X43373Y-18171D01*
X43411Y-18143D01*
X43448Y-18143D01*
X43580Y-18537D02*
X43580Y-18143D01*
X43580Y-17946D02*
X43561Y-17974D01*
X43580Y-18002D01*
X43599Y-17974D01*
X43580Y-17946D01*
X43580Y-18002D01*
X43918Y-18509D02*
X43880Y-18537D01*
X43805Y-18537D01*
X43768Y-18509D01*
X43749Y-18452D01*
X43749Y-18227D01*
X43768Y-18171D01*
X43805Y-18143D01*
X43880Y-18143D01*
X43918Y-18171D01*
X43937Y-18227D01*
X43937Y-18283D01*
X43749Y-18340D01*
X44106Y-18537D02*
X44106Y-18143D01*
X44106Y-18255D02*
X44125Y-18199D01*
X44143Y-18171D01*
X44181Y-18143D01*
X44218Y-18143D01*
X44781Y-18227D02*
X44837Y-18255D01*
X44856Y-18283D01*
X44875Y-18340D01*
X44875Y-18424D01*
X44856Y-18480D01*
X44837Y-18509D01*
X44800Y-18537D01*
X44650Y-18537D01*
X44650Y-17946D01*
X44781Y-17946D01*
X44819Y-17974D01*
X44837Y-18002D01*
X44856Y-18058D01*
X44856Y-18115D01*
X44837Y-18171D01*
X44819Y-18199D01*
X44781Y-18227D01*
X44650Y-18227D01*
X45100Y-18537D02*
X45063Y-18509D01*
X45044Y-18480D01*
X45025Y-18424D01*
X45025Y-18255D01*
X45044Y-18199D01*
X45063Y-18171D01*
X45100Y-18143D01*
X45156Y-18143D01*
X45194Y-18171D01*
X45213Y-18199D01*
X45231Y-18255D01*
X45231Y-18424D01*
X45213Y-18480D01*
X45194Y-18509D01*
X45156Y-18537D01*
X45100Y-18537D01*
X45569Y-18537D02*
X45569Y-18227D01*
X45550Y-18171D01*
X45512Y-18143D01*
X45437Y-18143D01*
X45400Y-18171D01*
X45569Y-18509D02*
X45531Y-18537D01*
X45437Y-18537D01*
X45400Y-18509D01*
X45381Y-18452D01*
X45381Y-18396D01*
X45400Y-18340D01*
X45437Y-18312D01*
X45531Y-18312D01*
X45569Y-18283D01*
X45756Y-18537D02*
X45756Y-18143D01*
X45756Y-18255D02*
X45775Y-18199D01*
X45793Y-18171D01*
X45831Y-18143D01*
X45868Y-18143D01*
X46169Y-18537D02*
X46169Y-17946D01*
X46169Y-18509D02*
X46131Y-18537D01*
X46056Y-18537D01*
X46019Y-18509D01*
X46000Y-18480D01*
X45981Y-18424D01*
X45981Y-18255D01*
X46000Y-18199D01*
X46019Y-18171D01*
X46056Y-18143D01*
X46131Y-18143D01*
X46169Y-18171D01*
X39059Y-19346D02*
X39040Y-19375D01*
X38984Y-19403D01*
X38946Y-19403D01*
X38890Y-19375D01*
X38853Y-19318D01*
X38834Y-19262D01*
X38815Y-19149D01*
X38815Y-19065D01*
X38834Y-18952D01*
X38853Y-18896D01*
X38890Y-18840D01*
X38946Y-18812D01*
X38984Y-18812D01*
X39040Y-18840D01*
X39059Y-18868D01*
X39284Y-19403D02*
X39247Y-19375D01*
X39228Y-19346D01*
X39209Y-19290D01*
X39209Y-19121D01*
X39228Y-19065D01*
X39247Y-19037D01*
X39284Y-19009D01*
X39340Y-19009D01*
X39378Y-19037D01*
X39397Y-19065D01*
X39415Y-19121D01*
X39415Y-19290D01*
X39397Y-19346D01*
X39378Y-19375D01*
X39340Y-19403D01*
X39284Y-19403D01*
X39640Y-19403D02*
X39603Y-19375D01*
X39584Y-19346D01*
X39565Y-19290D01*
X39565Y-19121D01*
X39584Y-19065D01*
X39603Y-19037D01*
X39640Y-19009D01*
X39696Y-19009D01*
X39734Y-19037D01*
X39753Y-19065D01*
X39771Y-19121D01*
X39771Y-19290D01*
X39753Y-19346D01*
X39734Y-19375D01*
X39696Y-19403D01*
X39640Y-19403D01*
X39996Y-19403D02*
X39959Y-19375D01*
X39940Y-19318D01*
X39940Y-18812D01*
X40146Y-19403D02*
X40146Y-19009D01*
X40146Y-18812D02*
X40127Y-18840D01*
X40146Y-18868D01*
X40165Y-18840D01*
X40146Y-18812D01*
X40146Y-18868D01*
X40334Y-19009D02*
X40334Y-19403D01*
X40334Y-19065D02*
X40353Y-19037D01*
X40390Y-19009D01*
X40446Y-19009D01*
X40484Y-19037D01*
X40503Y-19093D01*
X40503Y-19403D01*
X40859Y-19009D02*
X40859Y-19487D01*
X40840Y-19543D01*
X40821Y-19572D01*
X40784Y-19600D01*
X40727Y-19600D01*
X40690Y-19572D01*
X40859Y-19375D02*
X40821Y-19403D01*
X40746Y-19403D01*
X40709Y-19375D01*
X40690Y-19346D01*
X40671Y-19290D01*
X40671Y-19121D01*
X40690Y-19065D01*
X40709Y-19037D01*
X40746Y-19009D01*
X40821Y-19009D01*
X40859Y-19037D01*
X41290Y-18812D02*
X41421Y-19403D01*
X41552Y-18812D01*
X41684Y-19403D02*
X41684Y-19009D01*
X41684Y-18812D02*
X41665Y-18840D01*
X41684Y-18868D01*
X41703Y-18840D01*
X41684Y-18812D01*
X41684Y-18868D01*
X42041Y-19403D02*
X42041Y-19093D01*
X42022Y-19037D01*
X41984Y-19009D01*
X41909Y-19009D01*
X41872Y-19037D01*
X42041Y-19375D02*
X42003Y-19403D01*
X41909Y-19403D01*
X41872Y-19375D01*
X41853Y-19318D01*
X41853Y-19262D01*
X41872Y-19206D01*
X41909Y-19178D01*
X42003Y-19178D01*
X42041Y-19149D01*
X42209Y-19375D02*
X42247Y-19403D01*
X42322Y-19403D01*
X42359Y-19375D01*
X42378Y-19318D01*
X42378Y-19290D01*
X42359Y-19234D01*
X42322Y-19206D01*
X42265Y-19206D01*
X42228Y-19178D01*
X42209Y-19121D01*
X42209Y-19093D01*
X42228Y-19037D01*
X42265Y-19009D01*
X42322Y-19009D01*
X42359Y-19037D01*
X42566Y-19375D02*
X42566Y-19403D01*
X42547Y-19459D01*
X42528Y-19487D01*
X42997Y-18812D02*
X43091Y-19403D01*
X43166Y-18981D01*
X43241Y-19403D01*
X43335Y-18812D01*
X43485Y-19403D02*
X43485Y-19009D01*
X43485Y-18812D02*
X43466Y-18840D01*
X43485Y-18868D01*
X43504Y-18840D01*
X43485Y-18812D01*
X43485Y-18868D01*
X43673Y-19403D02*
X43673Y-19009D01*
X43673Y-19121D02*
X43692Y-19065D01*
X43710Y-19037D01*
X43748Y-19009D01*
X43785Y-19009D01*
X44067Y-19375D02*
X44029Y-19403D01*
X43954Y-19403D01*
X43917Y-19375D01*
X43898Y-19318D01*
X43898Y-19093D01*
X43917Y-19037D01*
X43954Y-19009D01*
X44029Y-19009D01*
X44067Y-19037D01*
X44086Y-19093D01*
X44086Y-19149D01*
X43898Y-19206D01*
X44686Y-19093D02*
X44742Y-19121D01*
X44761Y-19149D01*
X44780Y-19206D01*
X44780Y-19290D01*
X44761Y-19346D01*
X44742Y-19375D01*
X44705Y-19403D01*
X44555Y-19403D01*
X44555Y-18812D01*
X44686Y-18812D01*
X44724Y-18840D01*
X44742Y-18868D01*
X44761Y-18924D01*
X44761Y-18981D01*
X44742Y-19037D01*
X44724Y-19065D01*
X44686Y-19093D01*
X44555Y-19093D01*
X45005Y-19403D02*
X44968Y-19375D01*
X44949Y-19346D01*
X44930Y-19290D01*
X44930Y-19121D01*
X44949Y-19065D01*
X44968Y-19037D01*
X45005Y-19009D01*
X45061Y-19009D01*
X45099Y-19037D01*
X45118Y-19065D01*
X45136Y-19121D01*
X45136Y-19290D01*
X45118Y-19346D01*
X45099Y-19375D01*
X45061Y-19403D01*
X45005Y-19403D01*
X45305Y-19009D02*
X45305Y-19403D01*
X45305Y-19065D02*
X45324Y-19037D01*
X45361Y-19009D01*
X45417Y-19009D01*
X45455Y-19037D01*
X45474Y-19093D01*
X45474Y-19403D01*
X45830Y-19403D02*
X45830Y-18812D01*
X45830Y-19375D02*
X45792Y-19403D01*
X45717Y-19403D01*
X45680Y-19375D01*
X45661Y-19346D01*
X45642Y-19290D01*
X45642Y-19121D01*
X45661Y-19065D01*
X45680Y-19037D01*
X45717Y-19009D01*
X45792Y-19009D01*
X45830Y-19037D01*
X46317Y-19403D02*
X46317Y-18812D01*
X46467Y-18812D01*
X46504Y-18840D01*
X46523Y-18868D01*
X46542Y-18924D01*
X46542Y-19009D01*
X46523Y-19065D01*
X46504Y-19093D01*
X46467Y-19121D01*
X46317Y-19121D01*
X46880Y-19403D02*
X46880Y-19093D01*
X46861Y-19037D01*
X46823Y-19009D01*
X46748Y-19009D01*
X46711Y-19037D01*
X46880Y-19375D02*
X46842Y-19403D01*
X46748Y-19403D01*
X46711Y-19375D01*
X46692Y-19318D01*
X46692Y-19262D01*
X46711Y-19206D01*
X46748Y-19178D01*
X46842Y-19178D01*
X46880Y-19149D01*
X47236Y-19403D02*
X47236Y-18812D01*
X47236Y-19375D02*
X47198Y-19403D01*
X47123Y-19403D01*
X47086Y-19375D01*
X47067Y-19346D01*
X47048Y-19290D01*
X47048Y-19121D01*
X47067Y-19065D01*
X47086Y-19037D01*
X47123Y-19009D01*
X47198Y-19009D01*
X47236Y-19037D01*
X47404Y-19375D02*
X47442Y-19403D01*
X47517Y-19403D01*
X47554Y-19375D01*
X47573Y-19318D01*
X47573Y-19290D01*
X47554Y-19234D01*
X47517Y-19206D01*
X47460Y-19206D01*
X47423Y-19178D01*
X47404Y-19121D01*
X47404Y-19093D01*
X47423Y-19037D01*
X47460Y-19009D01*
X47517Y-19009D01*
X47554Y-19037D01*
X47761Y-19375D02*
X47761Y-19403D01*
X47742Y-19459D01*
X47723Y-19487D01*
X48455Y-19403D02*
X48324Y-19121D01*
X48230Y-19403D02*
X48230Y-18812D01*
X48380Y-18812D01*
X48417Y-18840D01*
X48436Y-18868D01*
X48455Y-18924D01*
X48455Y-19009D01*
X48436Y-19065D01*
X48417Y-19093D01*
X48380Y-19121D01*
X48230Y-19121D01*
X48680Y-19403D02*
X48643Y-19375D01*
X48624Y-19346D01*
X48605Y-19290D01*
X48605Y-19121D01*
X48624Y-19065D01*
X48643Y-19037D01*
X48680Y-19009D01*
X48736Y-19009D01*
X48774Y-19037D01*
X48793Y-19065D01*
X48811Y-19121D01*
X48811Y-19290D01*
X48793Y-19346D01*
X48774Y-19375D01*
X48736Y-19403D01*
X48680Y-19403D01*
X48924Y-19009D02*
X49074Y-19009D01*
X48980Y-18812D02*
X48980Y-19318D01*
X48999Y-19375D01*
X49036Y-19403D01*
X49074Y-19403D01*
X49374Y-19403D02*
X49374Y-19093D01*
X49355Y-19037D01*
X49317Y-19009D01*
X49242Y-19009D01*
X49205Y-19037D01*
X49374Y-19375D02*
X49336Y-19403D01*
X49242Y-19403D01*
X49205Y-19375D01*
X49186Y-19318D01*
X49186Y-19262D01*
X49205Y-19206D01*
X49242Y-19178D01*
X49336Y-19178D01*
X49374Y-19149D01*
X49505Y-19009D02*
X49655Y-19009D01*
X49561Y-18812D02*
X49561Y-19318D01*
X49580Y-19375D01*
X49617Y-19403D01*
X49655Y-19403D01*
X49936Y-19375D02*
X49898Y-19403D01*
X49823Y-19403D01*
X49786Y-19375D01*
X49767Y-19318D01*
X49767Y-19093D01*
X49786Y-19037D01*
X49823Y-19009D01*
X49898Y-19009D01*
X49936Y-19037D01*
X49955Y-19093D01*
X49955Y-19149D01*
X49767Y-19206D01*
X50293Y-19403D02*
X50293Y-18812D01*
X50293Y-19375D02*
X50255Y-19403D01*
X50180Y-19403D01*
X50143Y-19375D01*
X50124Y-19346D01*
X50105Y-19290D01*
X50105Y-19121D01*
X50124Y-19065D01*
X50143Y-19037D01*
X50180Y-19009D01*
X50255Y-19009D01*
X50293Y-19037D01*
X51005Y-19403D02*
X50874Y-19121D01*
X50780Y-19403D02*
X50780Y-18812D01*
X50930Y-18812D01*
X50967Y-18840D01*
X50986Y-18868D01*
X51005Y-18924D01*
X51005Y-19009D01*
X50986Y-19065D01*
X50967Y-19093D01*
X50930Y-19121D01*
X50780Y-19121D01*
X51249Y-18812D02*
X51324Y-18812D01*
X51361Y-18840D01*
X51399Y-18896D01*
X51418Y-19009D01*
X51418Y-19206D01*
X51399Y-19318D01*
X51361Y-19375D01*
X51324Y-19403D01*
X51249Y-19403D01*
X51211Y-19375D01*
X51174Y-19318D01*
X51155Y-19206D01*
X51155Y-19009D01*
X51174Y-18896D01*
X51211Y-18840D01*
X51249Y-18812D01*
X51812Y-19346D02*
X51793Y-19375D01*
X51737Y-19403D01*
X51699Y-19403D01*
X51643Y-19375D01*
X51606Y-19318D01*
X51587Y-19262D01*
X51568Y-19149D01*
X51568Y-19065D01*
X51587Y-18952D01*
X51606Y-18896D01*
X51643Y-18840D01*
X51699Y-18812D01*
X51737Y-18812D01*
X51793Y-18840D01*
X51812Y-18868D01*
X52281Y-19403D02*
X52281Y-18812D01*
X52412Y-19234D01*
X52543Y-18812D01*
X52543Y-19403D01*
X52787Y-19403D02*
X52750Y-19375D01*
X52731Y-19346D01*
X52712Y-19290D01*
X52712Y-19121D01*
X52731Y-19065D01*
X52750Y-19037D01*
X52787Y-19009D01*
X52843Y-19009D01*
X52881Y-19037D01*
X52900Y-19065D01*
X52918Y-19121D01*
X52918Y-19290D01*
X52900Y-19346D01*
X52881Y-19375D01*
X52843Y-19403D01*
X52787Y-19403D01*
X53256Y-19009D02*
X53256Y-19403D01*
X53087Y-19009D02*
X53087Y-19318D01*
X53106Y-19375D01*
X53143Y-19403D01*
X53199Y-19403D01*
X53237Y-19375D01*
X53256Y-19346D01*
X53443Y-19009D02*
X53443Y-19403D01*
X53443Y-19065D02*
X53462Y-19037D01*
X53499Y-19009D01*
X53555Y-19009D01*
X53593Y-19037D01*
X53612Y-19093D01*
X53612Y-19403D01*
X53743Y-19009D02*
X53893Y-19009D01*
X53799Y-18812D02*
X53799Y-19318D01*
X53818Y-19375D01*
X53855Y-19403D01*
X53893Y-19403D01*
X54024Y-19403D02*
X54024Y-19009D01*
X54024Y-18812D02*
X54005Y-18840D01*
X54024Y-18868D01*
X54043Y-18840D01*
X54024Y-18812D01*
X54024Y-18868D01*
X54212Y-19009D02*
X54212Y-19403D01*
X54212Y-19065D02*
X54231Y-19037D01*
X54268Y-19009D01*
X54324Y-19009D01*
X54362Y-19037D01*
X54381Y-19093D01*
X54381Y-19403D01*
X54737Y-19009D02*
X54737Y-19487D01*
X54718Y-19543D01*
X54699Y-19572D01*
X54662Y-19600D01*
X54605Y-19600D01*
X54568Y-19572D01*
X54737Y-19375D02*
X54699Y-19403D01*
X54624Y-19403D01*
X54587Y-19375D01*
X54568Y-19346D01*
X54549Y-19290D01*
X54549Y-19121D01*
X54568Y-19065D01*
X54587Y-19037D01*
X54624Y-19009D01*
X54699Y-19009D01*
X54737Y-19037D01*
G54D12*
X38816Y-36751D02*
X38816Y-21042D01*
X55253Y-36751D02*
X38816Y-36751D01*
X55253Y-21042D02*
X55253Y-36751D01*
X38816Y-21042D02*
X55253Y-21042D01*
G54D13*
X52160Y-33240D03*
X41920Y-33240D03*
G54D14*
X54712Y-21790D03*
X54318Y-21790D03*
X53925Y-21790D03*
X53531Y-21790D03*
X53137Y-21790D03*
X52743Y-21790D03*
X52350Y-21790D03*
X51956Y-21790D03*
X51562Y-21790D03*
X51169Y-21790D03*
X50775Y-21790D03*
X50381Y-21790D03*
X49988Y-21790D03*
X49594Y-21790D03*
X49200Y-21790D03*
X48806Y-21790D03*
X48413Y-21790D03*
X48019Y-21790D03*
X47625Y-21790D03*
X47232Y-21790D03*
X46838Y-21790D03*
X46444Y-21790D03*
X46051Y-21790D03*
X45657Y-21790D03*
X45263Y-21790D03*
X44869Y-21790D03*
X44476Y-21790D03*
X44082Y-21790D03*
X43688Y-21790D03*
X43295Y-21790D03*
X42901Y-21790D03*
X42507Y-21790D03*
X42114Y-21790D03*
X41720Y-21790D03*
X41326Y-21790D03*
X40932Y-21790D03*
X40539Y-21790D03*
X40145Y-21790D03*
X39751Y-21790D03*
X39358Y-21790D03*
G54D15*
X45740Y-26940D03*
X45920Y-27020D03*
X45740Y-27100D03*
X45920Y-27180D03*
X45740Y-27260D03*
X45920Y-27340D03*
X45740Y-27420D03*
X45920Y-27500D03*
X45740Y-27580D03*
X45920Y-27660D03*
X45740Y-27740D03*
X45920Y-27820D03*
X45740Y-27900D03*
X45920Y-27980D03*
X45740Y-28060D03*
X45920Y-28140D03*
X45740Y-28220D03*
X45920Y-28300D03*
X45740Y-28380D03*
X45920Y-28460D03*
X45740Y-28540D03*
X45920Y-28620D03*
X45740Y-28700D03*
X45920Y-28780D03*
X45740Y-28860D03*
X45920Y-28940D03*
X45740Y-29020D03*
X45920Y-29100D03*
X45740Y-29180D03*
X45920Y-29260D03*
X45740Y-29340D03*
X45920Y-29420D03*
X45740Y-29500D03*
X45920Y-29580D03*
X45740Y-29660D03*
X45920Y-29740D03*
X45740Y-29820D03*
X45920Y-29900D03*
M02*
