M48
;DRILL file {Pcbnew (2012-apr-16-27)-stable} date Wed 10 Jul 2013 04:34:03 PM CEST
;FORMAT={-:-/ absolute / metric / decimal}
FMAT,2
METRIC,TZ
T1C0.399
%
G90
G05
M71
T1
X118.770Y-68.783
X118.770Y-70.460
X118.770Y-72.136
X118.770Y-73.812
X118.770Y-75.489
X120.447Y-68.783
X120.447Y-70.460
X120.447Y-72.136
X120.447Y-73.812
X120.447Y-75.489
X122.123Y-68.783
X122.123Y-70.460
X122.123Y-72.136
X122.123Y-73.812
X122.123Y-75.489
X123.800Y-68.783
X123.800Y-70.460
X123.800Y-72.136
X123.800Y-73.812
X123.800Y-75.489
X125.476Y-68.783
X125.476Y-70.460
X125.476Y-72.136
X125.476Y-73.812
X125.476Y-75.489
X127.152Y-68.783
X127.152Y-70.460
X127.152Y-72.136
X127.152Y-73.812
X127.152Y-75.489
X128.829Y-68.783
X128.829Y-70.460
X128.829Y-72.136
X128.829Y-73.812
X128.829Y-75.489
T0
M30
