G04 (created by PCBNEW (2012-apr-16-27)-stable) date Wed 10 Jul 2013 04:34:06 PM CEST*
G01*
G70*
G90*
%MOIN*%
G04 Gerber Fmt 3.4, Leading zero omitted, Abs format*
%FSLAX34Y34*%
G04 APERTURE LIST*
%ADD10C,0.001000*%
%ADD11C,0.002000*%
%ADD12C,0.008000*%
G04 APERTURE END LIST*
G54D10*
G54D11*
X38816Y-36751D02*
X38816Y-21042D01*
X55253Y-36751D02*
X38816Y-36751D01*
X55253Y-21042D02*
X55253Y-36751D01*
X38816Y-21042D02*
X55253Y-21042D01*
G54D10*
X46682Y-27002D02*
X46838Y-27158D01*
X46838Y-27002D02*
X46682Y-27158D01*
X46682Y-27662D02*
X46838Y-27818D01*
X46838Y-27662D02*
X46682Y-27818D01*
X46682Y-28322D02*
X46838Y-28478D01*
X46838Y-28322D02*
X46682Y-28478D01*
X46682Y-28982D02*
X46838Y-29138D01*
X46838Y-28982D02*
X46682Y-29138D01*
X46682Y-29642D02*
X46838Y-29798D01*
X46838Y-29642D02*
X46682Y-29798D01*
X47342Y-27002D02*
X47498Y-27158D01*
X47498Y-27002D02*
X47342Y-27158D01*
X47342Y-27662D02*
X47498Y-27818D01*
X47498Y-27662D02*
X47342Y-27818D01*
X47342Y-28322D02*
X47498Y-28478D01*
X47498Y-28322D02*
X47342Y-28478D01*
X47342Y-28982D02*
X47498Y-29138D01*
X47498Y-28982D02*
X47342Y-29138D01*
X47342Y-29642D02*
X47498Y-29798D01*
X47498Y-29642D02*
X47342Y-29798D01*
X48002Y-27002D02*
X48158Y-27158D01*
X48158Y-27002D02*
X48002Y-27158D01*
X48002Y-27662D02*
X48158Y-27818D01*
X48158Y-27662D02*
X48002Y-27818D01*
X48002Y-28322D02*
X48158Y-28478D01*
X48158Y-28322D02*
X48002Y-28478D01*
X48002Y-28982D02*
X48158Y-29138D01*
X48158Y-28982D02*
X48002Y-29138D01*
X48002Y-29642D02*
X48158Y-29798D01*
X48158Y-29642D02*
X48002Y-29798D01*
X48662Y-27002D02*
X48818Y-27158D01*
X48818Y-27002D02*
X48662Y-27158D01*
X48662Y-27662D02*
X48818Y-27818D01*
X48818Y-27662D02*
X48662Y-27818D01*
X48662Y-28322D02*
X48818Y-28478D01*
X48818Y-28322D02*
X48662Y-28478D01*
X48662Y-28982D02*
X48818Y-29138D01*
X48818Y-28982D02*
X48662Y-29138D01*
X48662Y-29642D02*
X48818Y-29798D01*
X48818Y-29642D02*
X48662Y-29798D01*
X49322Y-27002D02*
X49478Y-27158D01*
X49478Y-27002D02*
X49322Y-27158D01*
X49322Y-27662D02*
X49478Y-27818D01*
X49478Y-27662D02*
X49322Y-27818D01*
X49322Y-28322D02*
X49478Y-28478D01*
X49478Y-28322D02*
X49322Y-28478D01*
X49322Y-28982D02*
X49478Y-29138D01*
X49478Y-28982D02*
X49322Y-29138D01*
X49322Y-29642D02*
X49478Y-29798D01*
X49478Y-29642D02*
X49322Y-29798D01*
X49982Y-27002D02*
X50138Y-27158D01*
X50138Y-27002D02*
X49982Y-27158D01*
X49982Y-27662D02*
X50138Y-27818D01*
X50138Y-27662D02*
X49982Y-27818D01*
X49982Y-28322D02*
X50138Y-28478D01*
X50138Y-28322D02*
X49982Y-28478D01*
X49982Y-28982D02*
X50138Y-29138D01*
X50138Y-28982D02*
X49982Y-29138D01*
X49982Y-29642D02*
X50138Y-29798D01*
X50138Y-29642D02*
X49982Y-29798D01*
X50642Y-27002D02*
X50798Y-27158D01*
X50798Y-27002D02*
X50642Y-27158D01*
X50642Y-27662D02*
X50798Y-27818D01*
X50798Y-27662D02*
X50642Y-27818D01*
X50642Y-28322D02*
X50798Y-28478D01*
X50798Y-28322D02*
X50642Y-28478D01*
X50642Y-28982D02*
X50798Y-29138D01*
X50798Y-28982D02*
X50642Y-29138D01*
X50642Y-29642D02*
X50798Y-29798D01*
X50798Y-29642D02*
X50642Y-29798D01*
X42353Y-33240D02*
X42344Y-33324D01*
X42320Y-33405D01*
X42280Y-33479D01*
X42227Y-33545D01*
X42162Y-33598D01*
X42087Y-33639D01*
X42007Y-33664D01*
X41923Y-33672D01*
X41839Y-33665D01*
X41758Y-33641D01*
X41683Y-33602D01*
X41618Y-33549D01*
X41563Y-33484D01*
X41523Y-33410D01*
X41497Y-33330D01*
X41488Y-33246D01*
X41495Y-33162D01*
X41518Y-33081D01*
X41557Y-33006D01*
X41609Y-32940D01*
X41673Y-32885D01*
X41747Y-32844D01*
X41828Y-32818D01*
X41911Y-32808D01*
X41995Y-32814D01*
X42076Y-32837D01*
X42152Y-32875D01*
X42218Y-32927D01*
X42273Y-32991D01*
X42315Y-33064D01*
X42342Y-33145D01*
X42352Y-33228D01*
X42353Y-33240D01*
X52593Y-33240D02*
X52584Y-33324D01*
X52560Y-33405D01*
X52520Y-33479D01*
X52467Y-33545D01*
X52402Y-33598D01*
X52327Y-33639D01*
X52247Y-33664D01*
X52163Y-33672D01*
X52079Y-33665D01*
X51998Y-33641D01*
X51923Y-33602D01*
X51858Y-33549D01*
X51803Y-33484D01*
X51763Y-33410D01*
X51737Y-33330D01*
X51728Y-33246D01*
X51735Y-33162D01*
X51758Y-33081D01*
X51797Y-33006D01*
X51849Y-32940D01*
X51913Y-32885D01*
X51987Y-32844D01*
X52068Y-32818D01*
X52151Y-32808D01*
X52235Y-32814D01*
X52316Y-32837D01*
X52392Y-32875D01*
X52458Y-32927D01*
X52513Y-32991D01*
X52555Y-33064D01*
X52582Y-33145D01*
X52592Y-33228D01*
X52593Y-33240D01*
G54D12*
X37843Y-43694D02*
X37843Y-42894D01*
X38034Y-42894D01*
X38148Y-42932D01*
X38224Y-43008D01*
X38263Y-43084D01*
X38301Y-43237D01*
X38301Y-43351D01*
X38263Y-43503D01*
X38224Y-43580D01*
X38148Y-43656D01*
X38034Y-43694D01*
X37843Y-43694D01*
X38643Y-43694D02*
X38643Y-43160D01*
X38643Y-43313D02*
X38682Y-43237D01*
X38720Y-43199D01*
X38796Y-43160D01*
X38872Y-43160D01*
X39138Y-43694D02*
X39138Y-43160D01*
X39138Y-42894D02*
X39100Y-42932D01*
X39138Y-42970D01*
X39177Y-42932D01*
X39138Y-42894D01*
X39138Y-42970D01*
X39634Y-43694D02*
X39558Y-43656D01*
X39519Y-43580D01*
X39519Y-42894D01*
X40053Y-43694D02*
X39977Y-43656D01*
X39938Y-43580D01*
X39938Y-42894D01*
X40967Y-43694D02*
X40967Y-42894D01*
X41234Y-43465D01*
X41501Y-42894D01*
X41501Y-43694D01*
X42224Y-43694D02*
X42224Y-43275D01*
X42186Y-43199D01*
X42110Y-43160D01*
X41958Y-43160D01*
X41881Y-43199D01*
X42224Y-43656D02*
X42148Y-43694D01*
X41958Y-43694D01*
X41881Y-43656D01*
X41843Y-43580D01*
X41843Y-43503D01*
X41881Y-43427D01*
X41958Y-43389D01*
X42148Y-43389D01*
X42224Y-43351D01*
X42605Y-43160D02*
X42605Y-43960D01*
X42605Y-43199D02*
X42682Y-43160D01*
X42834Y-43160D01*
X42910Y-43199D01*
X42948Y-43237D01*
X42986Y-43313D01*
X42986Y-43541D01*
X42948Y-43618D01*
X42910Y-43656D01*
X42834Y-43694D01*
X42682Y-43694D01*
X42605Y-43656D01*
X43329Y-43618D02*
X43368Y-43656D01*
X43329Y-43694D01*
X43291Y-43656D01*
X43329Y-43618D01*
X43329Y-43694D01*
X43329Y-43199D02*
X43368Y-43237D01*
X43329Y-43275D01*
X43291Y-43237D01*
X43329Y-43199D01*
X43329Y-43275D01*
X37296Y-44972D02*
X37452Y-45128D01*
X37452Y-44972D02*
X37296Y-45128D01*
X37996Y-44574D02*
X38072Y-44574D01*
X38148Y-44612D01*
X38186Y-44650D01*
X38224Y-44726D01*
X38263Y-44879D01*
X38263Y-45069D01*
X38224Y-45221D01*
X38186Y-45298D01*
X38148Y-45336D01*
X38072Y-45374D01*
X37996Y-45374D01*
X37920Y-45336D01*
X37882Y-45298D01*
X37843Y-45221D01*
X37805Y-45069D01*
X37805Y-44879D01*
X37843Y-44726D01*
X37882Y-44650D01*
X37920Y-44612D01*
X37996Y-44574D01*
X38605Y-45298D02*
X38644Y-45336D01*
X38605Y-45374D01*
X38567Y-45336D01*
X38605Y-45298D01*
X38605Y-45374D01*
X39329Y-44840D02*
X39329Y-45374D01*
X39139Y-44536D02*
X38948Y-45107D01*
X39444Y-45107D01*
X39901Y-44574D02*
X39977Y-44574D01*
X40053Y-44612D01*
X40091Y-44650D01*
X40129Y-44726D01*
X40168Y-44879D01*
X40168Y-45069D01*
X40129Y-45221D01*
X40091Y-45298D01*
X40053Y-45336D01*
X39977Y-45374D01*
X39901Y-45374D01*
X39825Y-45336D01*
X39787Y-45298D01*
X39748Y-45221D01*
X39710Y-45069D01*
X39710Y-44879D01*
X39748Y-44726D01*
X39787Y-44650D01*
X39825Y-44612D01*
X39901Y-44574D01*
X40510Y-45374D02*
X40510Y-44840D01*
X40510Y-44917D02*
X40549Y-44879D01*
X40625Y-44840D01*
X40739Y-44840D01*
X40815Y-44879D01*
X40853Y-44955D01*
X40853Y-45374D01*
X40853Y-44955D02*
X40891Y-44879D01*
X40968Y-44840D01*
X41082Y-44840D01*
X41158Y-44879D01*
X41196Y-44955D01*
X41196Y-45374D01*
X41577Y-45374D02*
X41577Y-44840D01*
X41577Y-44917D02*
X41616Y-44879D01*
X41692Y-44840D01*
X41806Y-44840D01*
X41882Y-44879D01*
X41920Y-44955D01*
X41920Y-45374D01*
X41920Y-44955D02*
X41958Y-44879D01*
X42035Y-44840D01*
X42149Y-44840D01*
X42225Y-44879D01*
X42263Y-44955D01*
X42263Y-45374D01*
X43826Y-44536D02*
X43140Y-45564D01*
X44855Y-44574D02*
X44931Y-44574D01*
X45007Y-44612D01*
X45045Y-44650D01*
X45083Y-44726D01*
X45122Y-44879D01*
X45122Y-45069D01*
X45083Y-45221D01*
X45045Y-45298D01*
X45007Y-45336D01*
X44931Y-45374D01*
X44855Y-45374D01*
X44779Y-45336D01*
X44741Y-45298D01*
X44702Y-45221D01*
X44664Y-45069D01*
X44664Y-44879D01*
X44702Y-44726D01*
X44741Y-44650D01*
X44779Y-44612D01*
X44855Y-44574D01*
X45464Y-45298D02*
X45503Y-45336D01*
X45464Y-45374D01*
X45426Y-45336D01*
X45464Y-45298D01*
X45464Y-45374D01*
X45998Y-44574D02*
X46074Y-44574D01*
X46150Y-44612D01*
X46188Y-44650D01*
X46226Y-44726D01*
X46265Y-44879D01*
X46265Y-45069D01*
X46226Y-45221D01*
X46188Y-45298D01*
X46150Y-45336D01*
X46074Y-45374D01*
X45998Y-45374D01*
X45922Y-45336D01*
X45884Y-45298D01*
X45845Y-45221D01*
X45807Y-45069D01*
X45807Y-44879D01*
X45845Y-44726D01*
X45884Y-44650D01*
X45922Y-44612D01*
X45998Y-44574D01*
X47027Y-45374D02*
X46569Y-45374D01*
X46798Y-45374D02*
X46798Y-44574D01*
X46722Y-44688D01*
X46646Y-44764D01*
X46569Y-44802D01*
X47712Y-44574D02*
X47560Y-44574D01*
X47484Y-44612D01*
X47446Y-44650D01*
X47369Y-44764D01*
X47331Y-44917D01*
X47331Y-45221D01*
X47369Y-45298D01*
X47408Y-45336D01*
X47484Y-45374D01*
X47636Y-45374D01*
X47712Y-45336D01*
X47750Y-45298D01*
X47789Y-45221D01*
X47789Y-45031D01*
X47750Y-44955D01*
X47712Y-44917D01*
X47636Y-44879D01*
X47484Y-44879D01*
X47408Y-44917D01*
X47369Y-44955D01*
X47331Y-45031D01*
X48093Y-44574D02*
X48093Y-44726D01*
X48398Y-44574D02*
X48398Y-44726D01*
X49580Y-45679D02*
X49542Y-45640D01*
X49466Y-45526D01*
X49428Y-45450D01*
X49390Y-45336D01*
X49351Y-45145D01*
X49351Y-44993D01*
X49390Y-44802D01*
X49428Y-44688D01*
X49466Y-44612D01*
X49542Y-44498D01*
X49580Y-44460D01*
X49808Y-44574D02*
X50304Y-44574D01*
X50037Y-44879D01*
X50151Y-44879D01*
X50227Y-44917D01*
X50265Y-44955D01*
X50304Y-45031D01*
X50304Y-45221D01*
X50265Y-45298D01*
X50227Y-45336D01*
X50151Y-45374D01*
X49923Y-45374D01*
X49846Y-45336D01*
X49808Y-45298D01*
X51027Y-44574D02*
X50646Y-44574D01*
X50608Y-44955D01*
X50646Y-44917D01*
X50723Y-44879D01*
X50913Y-44879D01*
X50989Y-44917D01*
X51027Y-44955D01*
X51066Y-45031D01*
X51066Y-45221D01*
X51027Y-45298D01*
X50989Y-45336D01*
X50913Y-45374D01*
X50723Y-45374D01*
X50646Y-45336D01*
X50608Y-45298D01*
X52018Y-45374D02*
X52018Y-44574D01*
X52361Y-45374D02*
X52361Y-44955D01*
X52323Y-44879D01*
X52247Y-44840D01*
X52133Y-44840D01*
X52057Y-44879D01*
X52018Y-44917D01*
X52857Y-45374D02*
X52781Y-45336D01*
X52742Y-45298D01*
X52704Y-45221D01*
X52704Y-44993D01*
X52742Y-44917D01*
X52781Y-44879D01*
X52857Y-44840D01*
X52971Y-44840D01*
X53047Y-44879D01*
X53085Y-44917D01*
X53123Y-44993D01*
X53123Y-45221D01*
X53085Y-45298D01*
X53047Y-45336D01*
X52971Y-45374D01*
X52857Y-45374D01*
X53581Y-45374D02*
X53505Y-45336D01*
X53466Y-45260D01*
X53466Y-44574D01*
X54190Y-45336D02*
X54114Y-45374D01*
X53962Y-45374D01*
X53885Y-45336D01*
X53847Y-45260D01*
X53847Y-44955D01*
X53885Y-44879D01*
X53962Y-44840D01*
X54114Y-44840D01*
X54190Y-44879D01*
X54228Y-44955D01*
X54228Y-45031D01*
X53847Y-45107D01*
X54533Y-45336D02*
X54610Y-45374D01*
X54762Y-45374D01*
X54838Y-45336D01*
X54876Y-45260D01*
X54876Y-45221D01*
X54838Y-45145D01*
X54762Y-45107D01*
X54648Y-45107D01*
X54571Y-45069D01*
X54533Y-44993D01*
X54533Y-44955D01*
X54571Y-44879D01*
X54648Y-44840D01*
X54762Y-44840D01*
X54838Y-44879D01*
X55143Y-45679D02*
X55181Y-45640D01*
X55258Y-45526D01*
X55296Y-45450D01*
X55334Y-45336D01*
X55372Y-45145D01*
X55372Y-44993D01*
X55334Y-44802D01*
X55296Y-44688D01*
X55258Y-44612D01*
X55181Y-44498D01*
X55143Y-44460D01*
G54D10*
X37453Y-46106D02*
X37444Y-46190D01*
X37420Y-46271D01*
X37380Y-46345D01*
X37327Y-46411D01*
X37262Y-46464D01*
X37187Y-46505D01*
X37107Y-46530D01*
X37023Y-46538D01*
X36939Y-46531D01*
X36858Y-46507D01*
X36783Y-46468D01*
X36718Y-46415D01*
X36663Y-46350D01*
X36623Y-46276D01*
X36597Y-46196D01*
X36588Y-46112D01*
X36595Y-46028D01*
X36618Y-45947D01*
X36657Y-45872D01*
X36709Y-45806D01*
X36773Y-45751D01*
X36847Y-45710D01*
X36928Y-45684D01*
X37011Y-45674D01*
X37095Y-45680D01*
X37176Y-45703D01*
X37252Y-45741D01*
X37318Y-45793D01*
X37373Y-45857D01*
X37415Y-45930D01*
X37442Y-46011D01*
X37452Y-46094D01*
X37453Y-46106D01*
G54D12*
X37805Y-45706D02*
X37843Y-45668D01*
X37920Y-45630D01*
X38110Y-45630D01*
X38186Y-45668D01*
X38224Y-45706D01*
X38263Y-45782D01*
X38263Y-45858D01*
X38224Y-45973D01*
X37767Y-46430D01*
X38263Y-46430D01*
X38605Y-46354D02*
X38644Y-46392D01*
X38605Y-46430D01*
X38567Y-46392D01*
X38605Y-46354D01*
X38605Y-46430D01*
X38948Y-45706D02*
X38986Y-45668D01*
X39063Y-45630D01*
X39253Y-45630D01*
X39329Y-45668D01*
X39367Y-45706D01*
X39406Y-45782D01*
X39406Y-45858D01*
X39367Y-45973D01*
X38910Y-46430D01*
X39406Y-46430D01*
X39901Y-45630D02*
X39977Y-45630D01*
X40053Y-45668D01*
X40091Y-45706D01*
X40129Y-45782D01*
X40168Y-45935D01*
X40168Y-46125D01*
X40129Y-46277D01*
X40091Y-46354D01*
X40053Y-46392D01*
X39977Y-46430D01*
X39901Y-46430D01*
X39825Y-46392D01*
X39787Y-46354D01*
X39748Y-46277D01*
X39710Y-46125D01*
X39710Y-45935D01*
X39748Y-45782D01*
X39787Y-45706D01*
X39825Y-45668D01*
X39901Y-45630D01*
X40510Y-46430D02*
X40510Y-45896D01*
X40510Y-45973D02*
X40549Y-45935D01*
X40625Y-45896D01*
X40739Y-45896D01*
X40815Y-45935D01*
X40853Y-46011D01*
X40853Y-46430D01*
X40853Y-46011D02*
X40891Y-45935D01*
X40968Y-45896D01*
X41082Y-45896D01*
X41158Y-45935D01*
X41196Y-46011D01*
X41196Y-46430D01*
X41577Y-46430D02*
X41577Y-45896D01*
X41577Y-45973D02*
X41616Y-45935D01*
X41692Y-45896D01*
X41806Y-45896D01*
X41882Y-45935D01*
X41920Y-46011D01*
X41920Y-46430D01*
X41920Y-46011D02*
X41958Y-45935D01*
X42035Y-45896D01*
X42149Y-45896D01*
X42225Y-45935D01*
X42263Y-46011D01*
X42263Y-46430D01*
X43826Y-45592D02*
X43140Y-46620D01*
X44855Y-45630D02*
X44931Y-45630D01*
X45007Y-45668D01*
X45045Y-45706D01*
X45083Y-45782D01*
X45122Y-45935D01*
X45122Y-46125D01*
X45083Y-46277D01*
X45045Y-46354D01*
X45007Y-46392D01*
X44931Y-46430D01*
X44855Y-46430D01*
X44779Y-46392D01*
X44741Y-46354D01*
X44702Y-46277D01*
X44664Y-46125D01*
X44664Y-45935D01*
X44702Y-45782D01*
X44741Y-45706D01*
X44779Y-45668D01*
X44855Y-45630D01*
X45464Y-46354D02*
X45503Y-46392D01*
X45464Y-46430D01*
X45426Y-46392D01*
X45464Y-46354D01*
X45464Y-46430D01*
X45998Y-45630D02*
X46074Y-45630D01*
X46150Y-45668D01*
X46188Y-45706D01*
X46226Y-45782D01*
X46265Y-45935D01*
X46265Y-46125D01*
X46226Y-46277D01*
X46188Y-46354D01*
X46150Y-46392D01*
X46074Y-46430D01*
X45998Y-46430D01*
X45922Y-46392D01*
X45884Y-46354D01*
X45845Y-46277D01*
X45807Y-46125D01*
X45807Y-45935D01*
X45845Y-45782D01*
X45884Y-45706D01*
X45922Y-45668D01*
X45998Y-45630D01*
X46722Y-45973D02*
X46646Y-45935D01*
X46607Y-45896D01*
X46569Y-45820D01*
X46569Y-45782D01*
X46607Y-45706D01*
X46646Y-45668D01*
X46722Y-45630D01*
X46874Y-45630D01*
X46950Y-45668D01*
X46988Y-45706D01*
X47027Y-45782D01*
X47027Y-45820D01*
X46988Y-45896D01*
X46950Y-45935D01*
X46874Y-45973D01*
X46722Y-45973D01*
X46646Y-46011D01*
X46607Y-46049D01*
X46569Y-46125D01*
X46569Y-46277D01*
X46607Y-46354D01*
X46646Y-46392D01*
X46722Y-46430D01*
X46874Y-46430D01*
X46950Y-46392D01*
X46988Y-46354D01*
X47027Y-46277D01*
X47027Y-46125D01*
X46988Y-46049D01*
X46950Y-46011D01*
X46874Y-45973D01*
X47293Y-45630D02*
X47827Y-45630D01*
X47484Y-46430D01*
X48093Y-45630D02*
X48093Y-45782D01*
X48398Y-45630D02*
X48398Y-45782D01*
X49580Y-46735D02*
X49542Y-46696D01*
X49466Y-46582D01*
X49428Y-46506D01*
X49390Y-46392D01*
X49351Y-46201D01*
X49351Y-46049D01*
X49390Y-45858D01*
X49428Y-45744D01*
X49466Y-45668D01*
X49542Y-45554D01*
X49580Y-45516D01*
X49846Y-45706D02*
X49884Y-45668D01*
X49961Y-45630D01*
X50151Y-45630D01*
X50227Y-45668D01*
X50265Y-45706D01*
X50304Y-45782D01*
X50304Y-45858D01*
X50265Y-45973D01*
X49808Y-46430D01*
X50304Y-46430D01*
X51256Y-46430D02*
X51256Y-45630D01*
X51599Y-46430D02*
X51599Y-46011D01*
X51561Y-45935D01*
X51485Y-45896D01*
X51371Y-45896D01*
X51295Y-45935D01*
X51256Y-45973D01*
X52095Y-46430D02*
X52019Y-46392D01*
X51980Y-46354D01*
X51942Y-46277D01*
X51942Y-46049D01*
X51980Y-45973D01*
X52019Y-45935D01*
X52095Y-45896D01*
X52209Y-45896D01*
X52285Y-45935D01*
X52323Y-45973D01*
X52361Y-46049D01*
X52361Y-46277D01*
X52323Y-46354D01*
X52285Y-46392D01*
X52209Y-46430D01*
X52095Y-46430D01*
X52819Y-46430D02*
X52743Y-46392D01*
X52704Y-46316D01*
X52704Y-45630D01*
X53428Y-46392D02*
X53352Y-46430D01*
X53200Y-46430D01*
X53123Y-46392D01*
X53085Y-46316D01*
X53085Y-46011D01*
X53123Y-45935D01*
X53200Y-45896D01*
X53352Y-45896D01*
X53428Y-45935D01*
X53466Y-46011D01*
X53466Y-46087D01*
X53085Y-46163D01*
X53771Y-46392D02*
X53848Y-46430D01*
X54000Y-46430D01*
X54076Y-46392D01*
X54114Y-46316D01*
X54114Y-46277D01*
X54076Y-46201D01*
X54000Y-46163D01*
X53886Y-46163D01*
X53809Y-46125D01*
X53771Y-46049D01*
X53771Y-46011D01*
X53809Y-45935D01*
X53886Y-45896D01*
X54000Y-45896D01*
X54076Y-45935D01*
X54381Y-46735D02*
X54419Y-46696D01*
X54496Y-46582D01*
X54534Y-46506D01*
X54572Y-46392D01*
X54610Y-46201D01*
X54610Y-46049D01*
X54572Y-45858D01*
X54534Y-45744D01*
X54496Y-45668D01*
X54419Y-45554D01*
X54381Y-45516D01*
M02*
