M48
;DRILL file {Pcbnew (2012-apr-16-27)-stable} date Thu 14 Nov 2013 09:47:28 AM CET
;FORMAT={-:-/ absolute / metric / decimal}
FMAT,2
METRIC,TZ
T1C0.399
%
G90
G05
M71
T1
X116.078Y-67.970
X116.078Y-69.647
X116.078Y-71.323
X116.078Y-73.000
X116.078Y-74.676
X116.078Y-76.352
X116.078Y-78.029
X117.754Y-67.970
X117.754Y-69.647
X117.754Y-71.323
X117.754Y-73.000
X117.754Y-74.676
X117.754Y-76.352
X117.754Y-78.029
X119.431Y-67.970
X119.431Y-69.647
X119.431Y-71.323
X119.431Y-73.000
X119.431Y-74.676
X119.431Y-76.352
X119.431Y-78.029
X121.107Y-67.970
X121.107Y-69.647
X121.107Y-71.323
X121.107Y-73.000
X121.107Y-74.676
X121.107Y-76.352
X121.107Y-78.029
X122.784Y-67.970
X122.784Y-69.647
X122.784Y-71.323
X122.784Y-73.000
X122.784Y-74.676
X122.784Y-76.352
X122.784Y-78.029
T0
M30
