G04 (created by PCBNEW-RS274X (2012-apr-16-27)-stable) date Thu 14 Nov 2013 09:46:59 AM CET*
G01*
G70*
G90*
%MOIN*%
G04 Gerber Fmt 3.4, Leading zero omitted, Abs format*
%FSLAX34Y34*%
G04 APERTURE LIST*
%ADD10C,0.000000*%
%ADD11C,0.003900*%
%ADD12C,0.002000*%
%ADD13C,0.094400*%
%ADD14C,0.010000*%
G04 APERTURE END LIST*
G54D10*
G54D11*
X54946Y-15899D02*
X54946Y-15308D01*
X54852Y-15308D01*
X54796Y-15336D01*
X54759Y-15392D01*
X54740Y-15448D01*
X54721Y-15561D01*
X54721Y-15645D01*
X54740Y-15758D01*
X54759Y-15814D01*
X54796Y-15871D01*
X54852Y-15899D01*
X54946Y-15899D01*
X54552Y-15589D02*
X54421Y-15589D01*
X54365Y-15899D02*
X54552Y-15899D01*
X54552Y-15308D01*
X54365Y-15308D01*
X54215Y-15871D02*
X54159Y-15899D01*
X54065Y-15899D01*
X54027Y-15871D01*
X54009Y-15842D01*
X53990Y-15786D01*
X53990Y-15730D01*
X54009Y-15674D01*
X54027Y-15645D01*
X54065Y-15617D01*
X54140Y-15589D01*
X54177Y-15561D01*
X54196Y-15533D01*
X54215Y-15477D01*
X54215Y-15420D01*
X54196Y-15364D01*
X54177Y-15336D01*
X54140Y-15308D01*
X54046Y-15308D01*
X53990Y-15336D01*
X53746Y-15617D02*
X53746Y-15899D01*
X53877Y-15308D02*
X53746Y-15617D01*
X53615Y-15308D01*
X53052Y-15589D02*
X53183Y-15589D01*
X53183Y-15899D02*
X53183Y-15308D01*
X52996Y-15308D01*
X52845Y-15899D02*
X52845Y-15308D01*
X52845Y-15589D02*
X52620Y-15589D01*
X52620Y-15899D02*
X52620Y-15308D01*
X52432Y-15674D02*
X52132Y-15674D01*
X51719Y-15842D02*
X51738Y-15871D01*
X51794Y-15899D01*
X51832Y-15899D01*
X51888Y-15871D01*
X51925Y-15814D01*
X51944Y-15758D01*
X51963Y-15645D01*
X51963Y-15561D01*
X51944Y-15448D01*
X51925Y-15392D01*
X51888Y-15336D01*
X51832Y-15308D01*
X51794Y-15308D01*
X51738Y-15336D01*
X51719Y-15364D01*
X51550Y-15899D02*
X51550Y-15308D01*
X51419Y-15730D01*
X51288Y-15308D01*
X51288Y-15899D01*
X51119Y-15871D02*
X51063Y-15899D01*
X50969Y-15899D01*
X50931Y-15871D01*
X50913Y-15842D01*
X50894Y-15786D01*
X50894Y-15730D01*
X50913Y-15674D01*
X50931Y-15645D01*
X50969Y-15617D01*
X51044Y-15589D01*
X51081Y-15561D01*
X51100Y-15533D01*
X51119Y-15477D01*
X51119Y-15420D01*
X51100Y-15364D01*
X51081Y-15336D01*
X51044Y-15308D01*
X50950Y-15308D01*
X50894Y-15336D01*
X54759Y-16765D02*
X54946Y-16765D01*
X54946Y-16174D01*
X54477Y-16737D02*
X54515Y-16765D01*
X54590Y-16765D01*
X54627Y-16737D01*
X54646Y-16680D01*
X54646Y-16455D01*
X54627Y-16399D01*
X54590Y-16371D01*
X54515Y-16371D01*
X54477Y-16399D01*
X54458Y-16455D01*
X54458Y-16511D01*
X54646Y-16568D01*
X54289Y-16765D02*
X54289Y-16371D01*
X54289Y-16174D02*
X54308Y-16202D01*
X54289Y-16230D01*
X54270Y-16202D01*
X54289Y-16174D01*
X54289Y-16230D01*
X54157Y-16371D02*
X54007Y-16371D01*
X54101Y-16174D02*
X54101Y-16680D01*
X54082Y-16737D01*
X54045Y-16765D01*
X54007Y-16765D01*
X53726Y-16737D02*
X53764Y-16765D01*
X53839Y-16765D01*
X53876Y-16737D01*
X53895Y-16680D01*
X53895Y-16455D01*
X53876Y-16399D01*
X53839Y-16371D01*
X53764Y-16371D01*
X53726Y-16399D01*
X53707Y-16455D01*
X53707Y-16511D01*
X53895Y-16568D01*
X53538Y-16765D02*
X53538Y-16371D01*
X53538Y-16483D02*
X53519Y-16427D01*
X53501Y-16399D01*
X53463Y-16371D01*
X53426Y-16371D01*
X53294Y-16371D02*
X53294Y-16962D01*
X53294Y-16399D02*
X53257Y-16371D01*
X53182Y-16371D01*
X53144Y-16399D01*
X53125Y-16427D01*
X53107Y-16483D01*
X53107Y-16652D01*
X53125Y-16708D01*
X53144Y-16737D01*
X53182Y-16765D01*
X53257Y-16765D01*
X53294Y-16737D01*
X52882Y-16765D02*
X52919Y-16737D01*
X52938Y-16680D01*
X52938Y-16174D01*
X52563Y-16765D02*
X52563Y-16455D01*
X52582Y-16399D01*
X52620Y-16371D01*
X52695Y-16371D01*
X52732Y-16399D01*
X52563Y-16737D02*
X52601Y-16765D01*
X52695Y-16765D01*
X52732Y-16737D01*
X52751Y-16680D01*
X52751Y-16624D01*
X52732Y-16568D01*
X52695Y-16540D01*
X52601Y-16540D01*
X52563Y-16511D01*
X52432Y-16371D02*
X52282Y-16371D01*
X52376Y-16174D02*
X52376Y-16680D01*
X52357Y-16737D01*
X52320Y-16765D01*
X52282Y-16765D01*
X52207Y-16371D02*
X52057Y-16371D01*
X52151Y-16174D02*
X52151Y-16680D01*
X52132Y-16737D01*
X52095Y-16765D01*
X52057Y-16765D01*
X51776Y-16737D02*
X51814Y-16765D01*
X51889Y-16765D01*
X51926Y-16737D01*
X51945Y-16680D01*
X51945Y-16455D01*
X51926Y-16399D01*
X51889Y-16371D01*
X51814Y-16371D01*
X51776Y-16399D01*
X51757Y-16455D01*
X51757Y-16511D01*
X51945Y-16568D01*
X51269Y-16765D02*
X51194Y-16765D01*
X51157Y-16737D01*
X51138Y-16708D01*
X51101Y-16624D01*
X51082Y-16511D01*
X51082Y-16286D01*
X51101Y-16230D01*
X51119Y-16202D01*
X51157Y-16174D01*
X51232Y-16174D01*
X51269Y-16202D01*
X51288Y-16230D01*
X51307Y-16286D01*
X51307Y-16427D01*
X51288Y-16483D01*
X51269Y-16511D01*
X51232Y-16540D01*
X51157Y-16540D01*
X51119Y-16511D01*
X51101Y-16483D01*
X51082Y-16427D01*
X50838Y-16174D02*
X50801Y-16174D01*
X50763Y-16202D01*
X50744Y-16230D01*
X50726Y-16286D01*
X50707Y-16399D01*
X50707Y-16540D01*
X50726Y-16652D01*
X50744Y-16708D01*
X50763Y-16737D01*
X50801Y-16765D01*
X50838Y-16765D01*
X50876Y-16737D01*
X50894Y-16708D01*
X50913Y-16652D01*
X50932Y-16540D01*
X50932Y-16399D01*
X50913Y-16286D01*
X50894Y-16230D01*
X50876Y-16202D01*
X50838Y-16174D01*
X50463Y-16174D02*
X50426Y-16174D01*
X50388Y-16202D01*
X50369Y-16230D01*
X50351Y-16286D01*
X50332Y-16399D01*
X50332Y-16540D01*
X50351Y-16652D01*
X50369Y-16708D01*
X50388Y-16737D01*
X50426Y-16765D01*
X50463Y-16765D01*
X50501Y-16737D01*
X50519Y-16708D01*
X50538Y-16652D01*
X50557Y-16540D01*
X50557Y-16399D01*
X50538Y-16286D01*
X50519Y-16230D01*
X50501Y-16202D01*
X50463Y-16174D01*
X49976Y-16174D02*
X50163Y-16174D01*
X50182Y-16455D01*
X50163Y-16427D01*
X50126Y-16399D01*
X50032Y-16399D01*
X49994Y-16427D01*
X49976Y-16455D01*
X49957Y-16511D01*
X49957Y-16652D01*
X49976Y-16708D01*
X49994Y-16737D01*
X50032Y-16765D01*
X50126Y-16765D01*
X50163Y-16737D01*
X50182Y-16708D01*
X49788Y-16540D02*
X49488Y-16540D01*
X49225Y-16174D02*
X49188Y-16174D01*
X49150Y-16202D01*
X49131Y-16230D01*
X49113Y-16286D01*
X49094Y-16399D01*
X49094Y-16540D01*
X49113Y-16652D01*
X49131Y-16708D01*
X49150Y-16737D01*
X49188Y-16765D01*
X49225Y-16765D01*
X49263Y-16737D01*
X49281Y-16708D01*
X49300Y-16652D01*
X49319Y-16540D01*
X49319Y-16399D01*
X49300Y-16286D01*
X49281Y-16230D01*
X49263Y-16202D01*
X49225Y-16174D01*
X48719Y-16765D02*
X48944Y-16765D01*
X48831Y-16765D02*
X48831Y-16174D01*
X48869Y-16258D01*
X48906Y-16314D01*
X48944Y-16343D01*
X48550Y-16540D02*
X48250Y-16540D01*
X47875Y-16765D02*
X48062Y-16765D01*
X48062Y-16174D01*
X47762Y-16737D02*
X47706Y-16765D01*
X47612Y-16765D01*
X47574Y-16737D01*
X47556Y-16708D01*
X47537Y-16652D01*
X47537Y-16596D01*
X47556Y-16540D01*
X47574Y-16511D01*
X47612Y-16483D01*
X47687Y-16455D01*
X47724Y-16427D01*
X47743Y-16399D01*
X47762Y-16343D01*
X47762Y-16286D01*
X47743Y-16230D01*
X47724Y-16202D01*
X47687Y-16174D01*
X47593Y-16174D01*
X47537Y-16202D01*
X47368Y-16765D02*
X47368Y-16174D01*
X47237Y-16596D01*
X47106Y-16174D01*
X47106Y-16765D01*
X46937Y-16230D02*
X46918Y-16202D01*
X46881Y-16174D01*
X46787Y-16174D01*
X46749Y-16202D01*
X46731Y-16230D01*
X46712Y-16286D01*
X46712Y-16343D01*
X46731Y-16427D01*
X46956Y-16765D01*
X46712Y-16765D01*
X54946Y-18497D02*
X54946Y-17906D01*
X54796Y-17906D01*
X54759Y-17934D01*
X54740Y-17962D01*
X54721Y-18018D01*
X54721Y-18103D01*
X54740Y-18159D01*
X54759Y-18187D01*
X54796Y-18215D01*
X54946Y-18215D01*
X54571Y-18469D02*
X54515Y-18497D01*
X54421Y-18497D01*
X54383Y-18469D01*
X54365Y-18440D01*
X54346Y-18384D01*
X54346Y-18328D01*
X54365Y-18272D01*
X54383Y-18243D01*
X54421Y-18215D01*
X54496Y-18187D01*
X54533Y-18159D01*
X54552Y-18131D01*
X54571Y-18075D01*
X54571Y-18018D01*
X54552Y-17962D01*
X54533Y-17934D01*
X54496Y-17906D01*
X54402Y-17906D01*
X54346Y-17934D01*
X54177Y-18497D02*
X54177Y-17906D01*
X53820Y-18103D02*
X53820Y-18497D01*
X53914Y-17878D02*
X54008Y-18300D01*
X53764Y-18300D01*
X53445Y-17906D02*
X53520Y-17906D01*
X53558Y-17934D01*
X53577Y-17962D01*
X53614Y-18046D01*
X53633Y-18159D01*
X53633Y-18384D01*
X53614Y-18440D01*
X53595Y-18469D01*
X53558Y-18497D01*
X53483Y-18497D01*
X53445Y-18469D01*
X53427Y-18440D01*
X53408Y-18384D01*
X53408Y-18243D01*
X53427Y-18187D01*
X53445Y-18159D01*
X53483Y-18131D01*
X53558Y-18131D01*
X53595Y-18159D01*
X53614Y-18187D01*
X53633Y-18243D01*
X52714Y-18497D02*
X52845Y-18215D01*
X52939Y-18497D02*
X52939Y-17906D01*
X52789Y-17906D01*
X52752Y-17934D01*
X52733Y-17962D01*
X52714Y-18018D01*
X52714Y-18103D01*
X52733Y-18159D01*
X52752Y-18187D01*
X52789Y-18215D01*
X52939Y-18215D01*
X52470Y-17906D02*
X52395Y-17906D01*
X52358Y-17934D01*
X52320Y-17990D01*
X52301Y-18103D01*
X52301Y-18300D01*
X52320Y-18412D01*
X52358Y-18469D01*
X52395Y-18497D01*
X52470Y-18497D01*
X52508Y-18469D01*
X52545Y-18412D01*
X52564Y-18300D01*
X52564Y-18103D01*
X52545Y-17990D01*
X52508Y-17934D01*
X52470Y-17906D01*
X51907Y-18440D02*
X51926Y-18469D01*
X51982Y-18497D01*
X52020Y-18497D01*
X52076Y-18469D01*
X52113Y-18412D01*
X52132Y-18356D01*
X52151Y-18243D01*
X52151Y-18159D01*
X52132Y-18046D01*
X52113Y-17990D01*
X52076Y-17934D01*
X52020Y-17906D01*
X51982Y-17906D01*
X51926Y-17934D01*
X51907Y-17962D01*
X51213Y-18440D02*
X51232Y-18469D01*
X51288Y-18497D01*
X51326Y-18497D01*
X51382Y-18469D01*
X51419Y-18412D01*
X51438Y-18356D01*
X51457Y-18243D01*
X51457Y-18159D01*
X51438Y-18046D01*
X51419Y-17990D01*
X51382Y-17934D01*
X51326Y-17906D01*
X51288Y-17906D01*
X51232Y-17934D01*
X51213Y-17962D01*
X50875Y-18497D02*
X50875Y-18187D01*
X50894Y-18131D01*
X50932Y-18103D01*
X51007Y-18103D01*
X51044Y-18131D01*
X50875Y-18469D02*
X50913Y-18497D01*
X51007Y-18497D01*
X51044Y-18469D01*
X51063Y-18412D01*
X51063Y-18356D01*
X51044Y-18300D01*
X51007Y-18272D01*
X50913Y-18272D01*
X50875Y-18243D01*
X50688Y-18497D02*
X50688Y-18103D01*
X50688Y-18215D02*
X50669Y-18159D01*
X50651Y-18131D01*
X50613Y-18103D01*
X50576Y-18103D01*
X50444Y-18497D02*
X50444Y-18103D01*
X50444Y-18215D02*
X50425Y-18159D01*
X50407Y-18131D01*
X50369Y-18103D01*
X50332Y-18103D01*
X50200Y-18497D02*
X50200Y-18103D01*
X50200Y-17906D02*
X50219Y-17934D01*
X50200Y-17962D01*
X50181Y-17934D01*
X50200Y-17906D01*
X50200Y-17962D01*
X49862Y-18469D02*
X49900Y-18497D01*
X49975Y-18497D01*
X50012Y-18469D01*
X50031Y-18412D01*
X50031Y-18187D01*
X50012Y-18131D01*
X49975Y-18103D01*
X49900Y-18103D01*
X49862Y-18131D01*
X49843Y-18187D01*
X49843Y-18243D01*
X50031Y-18300D01*
X49674Y-18497D02*
X49674Y-18103D01*
X49674Y-18215D02*
X49655Y-18159D01*
X49637Y-18131D01*
X49599Y-18103D01*
X49562Y-18103D01*
X48999Y-18187D02*
X48943Y-18215D01*
X48924Y-18243D01*
X48905Y-18300D01*
X48905Y-18384D01*
X48924Y-18440D01*
X48943Y-18469D01*
X48980Y-18497D01*
X49130Y-18497D01*
X49130Y-17906D01*
X48999Y-17906D01*
X48961Y-17934D01*
X48943Y-17962D01*
X48924Y-18018D01*
X48924Y-18075D01*
X48943Y-18131D01*
X48961Y-18159D01*
X48999Y-18187D01*
X49130Y-18187D01*
X48680Y-18497D02*
X48717Y-18469D01*
X48736Y-18440D01*
X48755Y-18384D01*
X48755Y-18215D01*
X48736Y-18159D01*
X48717Y-18131D01*
X48680Y-18103D01*
X48624Y-18103D01*
X48586Y-18131D01*
X48567Y-18159D01*
X48549Y-18215D01*
X48549Y-18384D01*
X48567Y-18440D01*
X48586Y-18469D01*
X48624Y-18497D01*
X48680Y-18497D01*
X48211Y-18497D02*
X48211Y-18187D01*
X48230Y-18131D01*
X48268Y-18103D01*
X48343Y-18103D01*
X48380Y-18131D01*
X48211Y-18469D02*
X48249Y-18497D01*
X48343Y-18497D01*
X48380Y-18469D01*
X48399Y-18412D01*
X48399Y-18356D01*
X48380Y-18300D01*
X48343Y-18272D01*
X48249Y-18272D01*
X48211Y-18243D01*
X48024Y-18497D02*
X48024Y-18103D01*
X48024Y-18215D02*
X48005Y-18159D01*
X47987Y-18131D01*
X47949Y-18103D01*
X47912Y-18103D01*
X47611Y-18497D02*
X47611Y-17906D01*
X47611Y-18469D02*
X47649Y-18497D01*
X47724Y-18497D01*
X47761Y-18469D01*
X47780Y-18440D01*
X47799Y-18384D01*
X47799Y-18215D01*
X47780Y-18159D01*
X47761Y-18131D01*
X47724Y-18103D01*
X47649Y-18103D01*
X47611Y-18131D01*
X54721Y-19306D02*
X54740Y-19335D01*
X54796Y-19363D01*
X54834Y-19363D01*
X54890Y-19335D01*
X54927Y-19278D01*
X54946Y-19222D01*
X54965Y-19109D01*
X54965Y-19025D01*
X54946Y-18912D01*
X54927Y-18856D01*
X54890Y-18800D01*
X54834Y-18772D01*
X54796Y-18772D01*
X54740Y-18800D01*
X54721Y-18828D01*
X54496Y-19363D02*
X54533Y-19335D01*
X54552Y-19306D01*
X54571Y-19250D01*
X54571Y-19081D01*
X54552Y-19025D01*
X54533Y-18997D01*
X54496Y-18969D01*
X54440Y-18969D01*
X54402Y-18997D01*
X54383Y-19025D01*
X54365Y-19081D01*
X54365Y-19250D01*
X54383Y-19306D01*
X54402Y-19335D01*
X54440Y-19363D01*
X54496Y-19363D01*
X54140Y-19363D02*
X54177Y-19335D01*
X54196Y-19306D01*
X54215Y-19250D01*
X54215Y-19081D01*
X54196Y-19025D01*
X54177Y-18997D01*
X54140Y-18969D01*
X54084Y-18969D01*
X54046Y-18997D01*
X54027Y-19025D01*
X54009Y-19081D01*
X54009Y-19250D01*
X54027Y-19306D01*
X54046Y-19335D01*
X54084Y-19363D01*
X54140Y-19363D01*
X53784Y-19363D02*
X53821Y-19335D01*
X53840Y-19278D01*
X53840Y-18772D01*
X53634Y-19363D02*
X53634Y-18969D01*
X53634Y-18772D02*
X53653Y-18800D01*
X53634Y-18828D01*
X53615Y-18800D01*
X53634Y-18772D01*
X53634Y-18828D01*
X53446Y-18969D02*
X53446Y-19363D01*
X53446Y-19025D02*
X53427Y-18997D01*
X53390Y-18969D01*
X53334Y-18969D01*
X53296Y-18997D01*
X53277Y-19053D01*
X53277Y-19363D01*
X52921Y-18969D02*
X52921Y-19447D01*
X52940Y-19503D01*
X52959Y-19532D01*
X52996Y-19560D01*
X53053Y-19560D01*
X53090Y-19532D01*
X52921Y-19335D02*
X52959Y-19363D01*
X53034Y-19363D01*
X53071Y-19335D01*
X53090Y-19306D01*
X53109Y-19250D01*
X53109Y-19081D01*
X53090Y-19025D01*
X53071Y-18997D01*
X53034Y-18969D01*
X52959Y-18969D01*
X52921Y-18997D01*
X52490Y-18772D02*
X52359Y-19363D01*
X52228Y-18772D01*
X52096Y-19363D02*
X52096Y-18969D01*
X52096Y-18772D02*
X52115Y-18800D01*
X52096Y-18828D01*
X52077Y-18800D01*
X52096Y-18772D01*
X52096Y-18828D01*
X51739Y-19363D02*
X51739Y-19053D01*
X51758Y-18997D01*
X51796Y-18969D01*
X51871Y-18969D01*
X51908Y-18997D01*
X51739Y-19335D02*
X51777Y-19363D01*
X51871Y-19363D01*
X51908Y-19335D01*
X51927Y-19278D01*
X51927Y-19222D01*
X51908Y-19166D01*
X51871Y-19138D01*
X51777Y-19138D01*
X51739Y-19109D01*
X51571Y-19335D02*
X51533Y-19363D01*
X51458Y-19363D01*
X51421Y-19335D01*
X51402Y-19278D01*
X51402Y-19250D01*
X51421Y-19194D01*
X51458Y-19166D01*
X51515Y-19166D01*
X51552Y-19138D01*
X51571Y-19081D01*
X51571Y-19053D01*
X51552Y-18997D01*
X51515Y-18969D01*
X51458Y-18969D01*
X51421Y-18997D01*
X51214Y-19335D02*
X51214Y-19363D01*
X51233Y-19419D01*
X51252Y-19447D01*
X50783Y-18772D02*
X50689Y-19363D01*
X50614Y-18941D01*
X50539Y-19363D01*
X50445Y-18772D01*
X50295Y-19363D02*
X50295Y-18969D01*
X50295Y-18772D02*
X50314Y-18800D01*
X50295Y-18828D01*
X50276Y-18800D01*
X50295Y-18772D01*
X50295Y-18828D01*
X50107Y-19363D02*
X50107Y-18969D01*
X50107Y-19081D02*
X50088Y-19025D01*
X50070Y-18997D01*
X50032Y-18969D01*
X49995Y-18969D01*
X49713Y-19335D02*
X49751Y-19363D01*
X49826Y-19363D01*
X49863Y-19335D01*
X49882Y-19278D01*
X49882Y-19053D01*
X49863Y-18997D01*
X49826Y-18969D01*
X49751Y-18969D01*
X49713Y-18997D01*
X49694Y-19053D01*
X49694Y-19109D01*
X49882Y-19166D01*
X49094Y-19053D02*
X49038Y-19081D01*
X49019Y-19109D01*
X49000Y-19166D01*
X49000Y-19250D01*
X49019Y-19306D01*
X49038Y-19335D01*
X49075Y-19363D01*
X49225Y-19363D01*
X49225Y-18772D01*
X49094Y-18772D01*
X49056Y-18800D01*
X49038Y-18828D01*
X49019Y-18884D01*
X49019Y-18941D01*
X49038Y-18997D01*
X49056Y-19025D01*
X49094Y-19053D01*
X49225Y-19053D01*
X48775Y-19363D02*
X48812Y-19335D01*
X48831Y-19306D01*
X48850Y-19250D01*
X48850Y-19081D01*
X48831Y-19025D01*
X48812Y-18997D01*
X48775Y-18969D01*
X48719Y-18969D01*
X48681Y-18997D01*
X48662Y-19025D01*
X48644Y-19081D01*
X48644Y-19250D01*
X48662Y-19306D01*
X48681Y-19335D01*
X48719Y-19363D01*
X48775Y-19363D01*
X48475Y-18969D02*
X48475Y-19363D01*
X48475Y-19025D02*
X48456Y-18997D01*
X48419Y-18969D01*
X48363Y-18969D01*
X48325Y-18997D01*
X48306Y-19053D01*
X48306Y-19363D01*
X47950Y-19363D02*
X47950Y-18772D01*
X47950Y-19335D02*
X47988Y-19363D01*
X48063Y-19363D01*
X48100Y-19335D01*
X48119Y-19306D01*
X48138Y-19250D01*
X48138Y-19081D01*
X48119Y-19025D01*
X48100Y-18997D01*
X48063Y-18969D01*
X47988Y-18969D01*
X47950Y-18997D01*
X47463Y-19363D02*
X47463Y-18772D01*
X47313Y-18772D01*
X47276Y-18800D01*
X47257Y-18828D01*
X47238Y-18884D01*
X47238Y-18969D01*
X47257Y-19025D01*
X47276Y-19053D01*
X47313Y-19081D01*
X47463Y-19081D01*
X46900Y-19363D02*
X46900Y-19053D01*
X46919Y-18997D01*
X46957Y-18969D01*
X47032Y-18969D01*
X47069Y-18997D01*
X46900Y-19335D02*
X46938Y-19363D01*
X47032Y-19363D01*
X47069Y-19335D01*
X47088Y-19278D01*
X47088Y-19222D01*
X47069Y-19166D01*
X47032Y-19138D01*
X46938Y-19138D01*
X46900Y-19109D01*
X46544Y-19363D02*
X46544Y-18772D01*
X46544Y-19335D02*
X46582Y-19363D01*
X46657Y-19363D01*
X46694Y-19335D01*
X46713Y-19306D01*
X46732Y-19250D01*
X46732Y-19081D01*
X46713Y-19025D01*
X46694Y-18997D01*
X46657Y-18969D01*
X46582Y-18969D01*
X46544Y-18997D01*
X46376Y-19335D02*
X46338Y-19363D01*
X46263Y-19363D01*
X46226Y-19335D01*
X46207Y-19278D01*
X46207Y-19250D01*
X46226Y-19194D01*
X46263Y-19166D01*
X46320Y-19166D01*
X46357Y-19138D01*
X46376Y-19081D01*
X46376Y-19053D01*
X46357Y-18997D01*
X46320Y-18969D01*
X46263Y-18969D01*
X46226Y-18997D01*
X46019Y-19335D02*
X46019Y-19363D01*
X46038Y-19419D01*
X46057Y-19447D01*
X45325Y-19363D02*
X45456Y-19081D01*
X45550Y-19363D02*
X45550Y-18772D01*
X45400Y-18772D01*
X45363Y-18800D01*
X45344Y-18828D01*
X45325Y-18884D01*
X45325Y-18969D01*
X45344Y-19025D01*
X45363Y-19053D01*
X45400Y-19081D01*
X45550Y-19081D01*
X45100Y-19363D02*
X45137Y-19335D01*
X45156Y-19306D01*
X45175Y-19250D01*
X45175Y-19081D01*
X45156Y-19025D01*
X45137Y-18997D01*
X45100Y-18969D01*
X45044Y-18969D01*
X45006Y-18997D01*
X44987Y-19025D01*
X44969Y-19081D01*
X44969Y-19250D01*
X44987Y-19306D01*
X45006Y-19335D01*
X45044Y-19363D01*
X45100Y-19363D01*
X44856Y-18969D02*
X44706Y-18969D01*
X44800Y-18772D02*
X44800Y-19278D01*
X44781Y-19335D01*
X44744Y-19363D01*
X44706Y-19363D01*
X44406Y-19363D02*
X44406Y-19053D01*
X44425Y-18997D01*
X44463Y-18969D01*
X44538Y-18969D01*
X44575Y-18997D01*
X44406Y-19335D02*
X44444Y-19363D01*
X44538Y-19363D01*
X44575Y-19335D01*
X44594Y-19278D01*
X44594Y-19222D01*
X44575Y-19166D01*
X44538Y-19138D01*
X44444Y-19138D01*
X44406Y-19109D01*
X44275Y-18969D02*
X44125Y-18969D01*
X44219Y-18772D02*
X44219Y-19278D01*
X44200Y-19335D01*
X44163Y-19363D01*
X44125Y-19363D01*
X43844Y-19335D02*
X43882Y-19363D01*
X43957Y-19363D01*
X43994Y-19335D01*
X44013Y-19278D01*
X44013Y-19053D01*
X43994Y-18997D01*
X43957Y-18969D01*
X43882Y-18969D01*
X43844Y-18997D01*
X43825Y-19053D01*
X43825Y-19109D01*
X44013Y-19166D01*
X43487Y-19363D02*
X43487Y-18772D01*
X43487Y-19335D02*
X43525Y-19363D01*
X43600Y-19363D01*
X43637Y-19335D01*
X43656Y-19306D01*
X43675Y-19250D01*
X43675Y-19081D01*
X43656Y-19025D01*
X43637Y-18997D01*
X43600Y-18969D01*
X43525Y-18969D01*
X43487Y-18997D01*
X42775Y-19363D02*
X42906Y-19081D01*
X43000Y-19363D02*
X43000Y-18772D01*
X42850Y-18772D01*
X42813Y-18800D01*
X42794Y-18828D01*
X42775Y-18884D01*
X42775Y-18969D01*
X42794Y-19025D01*
X42813Y-19053D01*
X42850Y-19081D01*
X43000Y-19081D01*
X42531Y-18772D02*
X42456Y-18772D01*
X42419Y-18800D01*
X42381Y-18856D01*
X42362Y-18969D01*
X42362Y-19166D01*
X42381Y-19278D01*
X42419Y-19335D01*
X42456Y-19363D01*
X42531Y-19363D01*
X42569Y-19335D01*
X42606Y-19278D01*
X42625Y-19166D01*
X42625Y-18969D01*
X42606Y-18856D01*
X42569Y-18800D01*
X42531Y-18772D01*
X41968Y-19306D02*
X41987Y-19335D01*
X42043Y-19363D01*
X42081Y-19363D01*
X42137Y-19335D01*
X42174Y-19278D01*
X42193Y-19222D01*
X42212Y-19109D01*
X42212Y-19025D01*
X42193Y-18912D01*
X42174Y-18856D01*
X42137Y-18800D01*
X42081Y-18772D01*
X42043Y-18772D01*
X41987Y-18800D01*
X41968Y-18828D01*
X41499Y-19363D02*
X41499Y-18772D01*
X41368Y-19194D01*
X41237Y-18772D01*
X41237Y-19363D01*
X40993Y-19363D02*
X41030Y-19335D01*
X41049Y-19306D01*
X41068Y-19250D01*
X41068Y-19081D01*
X41049Y-19025D01*
X41030Y-18997D01*
X40993Y-18969D01*
X40937Y-18969D01*
X40899Y-18997D01*
X40880Y-19025D01*
X40862Y-19081D01*
X40862Y-19250D01*
X40880Y-19306D01*
X40899Y-19335D01*
X40937Y-19363D01*
X40993Y-19363D01*
X40524Y-18969D02*
X40524Y-19363D01*
X40693Y-18969D02*
X40693Y-19278D01*
X40674Y-19335D01*
X40637Y-19363D01*
X40581Y-19363D01*
X40543Y-19335D01*
X40524Y-19306D01*
X40337Y-18969D02*
X40337Y-19363D01*
X40337Y-19025D02*
X40318Y-18997D01*
X40281Y-18969D01*
X40225Y-18969D01*
X40187Y-18997D01*
X40168Y-19053D01*
X40168Y-19363D01*
X40037Y-18969D02*
X39887Y-18969D01*
X39981Y-18772D02*
X39981Y-19278D01*
X39962Y-19335D01*
X39925Y-19363D01*
X39887Y-19363D01*
X39756Y-19363D02*
X39756Y-18969D01*
X39756Y-18772D02*
X39775Y-18800D01*
X39756Y-18828D01*
X39737Y-18800D01*
X39756Y-18772D01*
X39756Y-18828D01*
X39568Y-18969D02*
X39568Y-19363D01*
X39568Y-19025D02*
X39549Y-18997D01*
X39512Y-18969D01*
X39456Y-18969D01*
X39418Y-18997D01*
X39399Y-19053D01*
X39399Y-19363D01*
X39043Y-18969D02*
X39043Y-19447D01*
X39062Y-19503D01*
X39081Y-19532D01*
X39118Y-19560D01*
X39175Y-19560D01*
X39212Y-19532D01*
X39043Y-19335D02*
X39081Y-19363D01*
X39156Y-19363D01*
X39193Y-19335D01*
X39212Y-19306D01*
X39231Y-19250D01*
X39231Y-19081D01*
X39212Y-19025D01*
X39193Y-18997D01*
X39156Y-18969D01*
X39081Y-18969D01*
X39043Y-18997D01*
G54D12*
X38816Y-36751D02*
X38816Y-21042D01*
X55253Y-36751D02*
X38816Y-36751D01*
X55253Y-21042D02*
X55253Y-36751D01*
X38816Y-21042D02*
X55253Y-21042D01*
G54D13*
X52153Y-28463D03*
X41916Y-28463D03*
G54D10*
G36*
X54360Y-31280D02*
X54360Y-26040D01*
X39680Y-26040D01*
X39680Y-31280D01*
X54360Y-31280D01*
X54360Y-31280D01*
G37*
G54D14*
X54360Y-31280D02*
X54360Y-26040D01*
X39680Y-26040D01*
X39680Y-31280D01*
X54360Y-31280D01*
M02*
