G04 (created by PCBNEW-RS274X (2012-apr-16-27)-stable) date Thu 14 Nov 2013 09:46:59 AM CET*
G01*
G70*
G90*
%MOIN*%
G04 Gerber Fmt 3.4, Leading zero omitted, Abs format*
%FSLAX34Y34*%
G04 APERTURE LIST*
%ADD10C,0.000000*%
%ADD11C,0.003900*%
%ADD12C,0.002000*%
%ADD13C,0.007900*%
%ADD14C,0.086600*%
%ADD15R,0.023600X0.102400*%
%ADD16R,0.008000X0.015700*%
%ADD17C,0.023600*%
%ADD18C,0.008000*%
%ADD19C,0.019700*%
%ADD20C,0.004000*%
%ADD21C,0.010000*%
G04 APERTURE END LIST*
G54D10*
G54D11*
X39355Y-35703D02*
X39355Y-35349D01*
X39430Y-35349D01*
X39475Y-35366D01*
X39505Y-35400D01*
X39520Y-35434D01*
X39535Y-35501D01*
X39535Y-35552D01*
X39520Y-35619D01*
X39505Y-35653D01*
X39475Y-35686D01*
X39430Y-35703D01*
X39355Y-35703D01*
X39670Y-35518D02*
X39775Y-35518D01*
X39820Y-35703D02*
X39670Y-35703D01*
X39670Y-35349D01*
X39820Y-35349D01*
X39940Y-35686D02*
X39985Y-35703D01*
X40060Y-35703D01*
X40090Y-35686D01*
X40105Y-35670D01*
X40120Y-35636D01*
X40120Y-35602D01*
X40105Y-35568D01*
X40090Y-35552D01*
X40060Y-35535D01*
X40000Y-35518D01*
X39970Y-35501D01*
X39955Y-35484D01*
X39940Y-35450D01*
X39940Y-35417D01*
X39955Y-35383D01*
X39970Y-35366D01*
X40000Y-35349D01*
X40075Y-35349D01*
X40120Y-35366D01*
X40315Y-35535D02*
X40315Y-35703D01*
X40210Y-35349D02*
X40315Y-35535D01*
X40420Y-35349D01*
X40870Y-35518D02*
X40765Y-35518D01*
X40765Y-35703D02*
X40765Y-35349D01*
X40915Y-35349D01*
X41035Y-35703D02*
X41035Y-35349D01*
X41035Y-35518D02*
X41215Y-35518D01*
X41215Y-35703D02*
X41215Y-35349D01*
X41365Y-35568D02*
X41605Y-35568D01*
X41935Y-35670D02*
X41920Y-35686D01*
X41875Y-35703D01*
X41845Y-35703D01*
X41800Y-35686D01*
X41770Y-35653D01*
X41755Y-35619D01*
X41740Y-35552D01*
X41740Y-35501D01*
X41755Y-35434D01*
X41770Y-35400D01*
X41800Y-35366D01*
X41845Y-35349D01*
X41875Y-35349D01*
X41920Y-35366D01*
X41935Y-35383D01*
X42070Y-35703D02*
X42070Y-35349D01*
X42175Y-35602D01*
X42280Y-35349D01*
X42280Y-35703D01*
X42415Y-35686D02*
X42460Y-35703D01*
X42535Y-35703D01*
X42565Y-35686D01*
X42580Y-35670D01*
X42595Y-35636D01*
X42595Y-35602D01*
X42580Y-35568D01*
X42565Y-35552D01*
X42535Y-35535D01*
X42475Y-35518D01*
X42445Y-35501D01*
X42430Y-35484D01*
X42415Y-35450D01*
X42415Y-35417D01*
X42430Y-35383D01*
X42445Y-35366D01*
X42475Y-35349D01*
X42550Y-35349D01*
X42595Y-35366D01*
X39355Y-36237D02*
X39355Y-35883D01*
X39475Y-35883D01*
X39505Y-35900D01*
X39520Y-35917D01*
X39535Y-35951D01*
X39535Y-36001D01*
X39520Y-36035D01*
X39505Y-36052D01*
X39475Y-36069D01*
X39355Y-36069D01*
X39655Y-36220D02*
X39700Y-36237D01*
X39775Y-36237D01*
X39805Y-36220D01*
X39820Y-36204D01*
X39835Y-36170D01*
X39835Y-36136D01*
X39820Y-36102D01*
X39805Y-36086D01*
X39775Y-36069D01*
X39715Y-36052D01*
X39685Y-36035D01*
X39670Y-36018D01*
X39655Y-35984D01*
X39655Y-35951D01*
X39670Y-35917D01*
X39685Y-35900D01*
X39715Y-35883D01*
X39790Y-35883D01*
X39835Y-35900D01*
X39970Y-36237D02*
X39970Y-35883D01*
X40255Y-36001D02*
X40255Y-36237D01*
X40180Y-35866D02*
X40105Y-36119D01*
X40300Y-36119D01*
X40555Y-35883D02*
X40495Y-35883D01*
X40465Y-35900D01*
X40450Y-35917D01*
X40420Y-35968D01*
X40405Y-36035D01*
X40405Y-36170D01*
X40420Y-36204D01*
X40435Y-36220D01*
X40465Y-36237D01*
X40525Y-36237D01*
X40555Y-36220D01*
X40570Y-36204D01*
X40585Y-36170D01*
X40585Y-36086D01*
X40570Y-36052D01*
X40555Y-36035D01*
X40525Y-36018D01*
X40465Y-36018D01*
X40435Y-36035D01*
X40420Y-36052D01*
X40405Y-36086D01*
X41140Y-36237D02*
X41035Y-36069D01*
X40960Y-36237D02*
X40960Y-35883D01*
X41080Y-35883D01*
X41110Y-35900D01*
X41125Y-35917D01*
X41140Y-35951D01*
X41140Y-36001D01*
X41125Y-36035D01*
X41110Y-36052D01*
X41080Y-36069D01*
X40960Y-36069D01*
X41335Y-35883D02*
X41395Y-35883D01*
X41425Y-35900D01*
X41455Y-35934D01*
X41470Y-36001D01*
X41470Y-36119D01*
X41455Y-36187D01*
X41425Y-36220D01*
X41395Y-36237D01*
X41335Y-36237D01*
X41305Y-36220D01*
X41275Y-36187D01*
X41260Y-36119D01*
X41260Y-36001D01*
X41275Y-35934D01*
X41305Y-35900D01*
X41335Y-35883D01*
X41785Y-36204D02*
X41770Y-36220D01*
X41725Y-36237D01*
X41695Y-36237D01*
X41650Y-36220D01*
X41620Y-36187D01*
X41605Y-36153D01*
X41590Y-36086D01*
X41590Y-36035D01*
X41605Y-35968D01*
X41620Y-35934D01*
X41650Y-35900D01*
X41695Y-35883D01*
X41725Y-35883D01*
X41770Y-35900D01*
X41785Y-35917D01*
X42160Y-36237D02*
X42160Y-35883D01*
X42280Y-35883D01*
X42310Y-35900D01*
X42325Y-35917D01*
X42340Y-35951D01*
X42340Y-36001D01*
X42325Y-36035D01*
X42310Y-36052D01*
X42280Y-36069D01*
X42160Y-36069D01*
X42475Y-36237D02*
X42475Y-36001D01*
X42475Y-35883D02*
X42460Y-35900D01*
X42475Y-35917D01*
X42490Y-35900D01*
X42475Y-35883D01*
X42475Y-35917D01*
X42580Y-36001D02*
X42700Y-36001D01*
X42625Y-35883D02*
X42625Y-36187D01*
X42640Y-36220D01*
X42670Y-36237D01*
X42700Y-36237D01*
X42940Y-36220D02*
X42910Y-36237D01*
X42850Y-36237D01*
X42820Y-36220D01*
X42805Y-36204D01*
X42790Y-36170D01*
X42790Y-36069D01*
X42805Y-36035D01*
X42820Y-36018D01*
X42850Y-36001D01*
X42910Y-36001D01*
X42940Y-36018D01*
X43075Y-36237D02*
X43075Y-35883D01*
X43210Y-36237D02*
X43210Y-36052D01*
X43195Y-36018D01*
X43165Y-36001D01*
X43120Y-36001D01*
X43090Y-36018D01*
X43075Y-36035D01*
X43585Y-36136D02*
X43735Y-36136D01*
X43555Y-36237D02*
X43660Y-35883D01*
X43765Y-36237D01*
X44005Y-36237D02*
X44005Y-35883D01*
X44005Y-36220D02*
X43975Y-36237D01*
X43915Y-36237D01*
X43885Y-36220D01*
X43870Y-36204D01*
X43855Y-36170D01*
X43855Y-36069D01*
X43870Y-36035D01*
X43885Y-36018D01*
X43915Y-36001D01*
X43975Y-36001D01*
X44005Y-36018D01*
X44290Y-36237D02*
X44290Y-36052D01*
X44275Y-36018D01*
X44245Y-36001D01*
X44185Y-36001D01*
X44155Y-36018D01*
X44290Y-36220D02*
X44260Y-36237D01*
X44185Y-36237D01*
X44155Y-36220D01*
X44140Y-36187D01*
X44140Y-36153D01*
X44155Y-36119D01*
X44185Y-36102D01*
X44260Y-36102D01*
X44290Y-36086D01*
X44440Y-36001D02*
X44440Y-36355D01*
X44440Y-36018D02*
X44470Y-36001D01*
X44530Y-36001D01*
X44560Y-36018D01*
X44575Y-36035D01*
X44590Y-36069D01*
X44590Y-36170D01*
X44575Y-36204D01*
X44560Y-36220D01*
X44530Y-36237D01*
X44470Y-36237D01*
X44440Y-36220D01*
X44680Y-36001D02*
X44800Y-36001D01*
X44725Y-35883D02*
X44725Y-36187D01*
X44740Y-36220D01*
X44770Y-36237D01*
X44800Y-36237D01*
X45025Y-36220D02*
X44995Y-36237D01*
X44935Y-36237D01*
X44905Y-36220D01*
X44890Y-36187D01*
X44890Y-36052D01*
X44905Y-36018D01*
X44935Y-36001D01*
X44995Y-36001D01*
X45025Y-36018D01*
X45040Y-36052D01*
X45040Y-36086D01*
X44890Y-36119D01*
X45175Y-36237D02*
X45175Y-36001D01*
X45175Y-36069D02*
X45190Y-36035D01*
X45205Y-36018D01*
X45235Y-36001D01*
X45265Y-36001D01*
X38954Y-15879D02*
X38954Y-15288D01*
X39048Y-15288D01*
X39104Y-15316D01*
X39141Y-15372D01*
X39160Y-15428D01*
X39179Y-15541D01*
X39179Y-15625D01*
X39160Y-15738D01*
X39141Y-15794D01*
X39104Y-15851D01*
X39048Y-15879D01*
X38954Y-15879D01*
X39348Y-15569D02*
X39479Y-15569D01*
X39535Y-15879D02*
X39348Y-15879D01*
X39348Y-15288D01*
X39535Y-15288D01*
X39685Y-15851D02*
X39741Y-15879D01*
X39835Y-15879D01*
X39873Y-15851D01*
X39891Y-15822D01*
X39910Y-15766D01*
X39910Y-15710D01*
X39891Y-15654D01*
X39873Y-15625D01*
X39835Y-15597D01*
X39760Y-15569D01*
X39723Y-15541D01*
X39704Y-15513D01*
X39685Y-15457D01*
X39685Y-15400D01*
X39704Y-15344D01*
X39723Y-15316D01*
X39760Y-15288D01*
X39854Y-15288D01*
X39910Y-15316D01*
X40154Y-15597D02*
X40154Y-15879D01*
X40023Y-15288D02*
X40154Y-15597D01*
X40285Y-15288D01*
X40848Y-15569D02*
X40717Y-15569D01*
X40717Y-15879D02*
X40717Y-15288D01*
X40904Y-15288D01*
X41055Y-15879D02*
X41055Y-15288D01*
X41055Y-15569D02*
X41280Y-15569D01*
X41280Y-15879D02*
X41280Y-15288D01*
X41468Y-15654D02*
X41768Y-15654D01*
X42181Y-15822D02*
X42162Y-15851D01*
X42106Y-15879D01*
X42068Y-15879D01*
X42012Y-15851D01*
X41975Y-15794D01*
X41956Y-15738D01*
X41937Y-15625D01*
X41937Y-15541D01*
X41956Y-15428D01*
X41975Y-15372D01*
X42012Y-15316D01*
X42068Y-15288D01*
X42106Y-15288D01*
X42162Y-15316D01*
X42181Y-15344D01*
X42350Y-15879D02*
X42350Y-15288D01*
X42481Y-15710D01*
X42612Y-15288D01*
X42612Y-15879D01*
X42781Y-15851D02*
X42837Y-15879D01*
X42931Y-15879D01*
X42969Y-15851D01*
X42987Y-15822D01*
X43006Y-15766D01*
X43006Y-15710D01*
X42987Y-15654D01*
X42969Y-15625D01*
X42931Y-15597D01*
X42856Y-15569D01*
X42819Y-15541D01*
X42800Y-15513D01*
X42781Y-15457D01*
X42781Y-15400D01*
X42800Y-15344D01*
X42819Y-15316D01*
X42856Y-15288D01*
X42950Y-15288D01*
X43006Y-15316D01*
X39141Y-16745D02*
X38954Y-16745D01*
X38954Y-16154D01*
X39423Y-16717D02*
X39385Y-16745D01*
X39310Y-16745D01*
X39273Y-16717D01*
X39254Y-16660D01*
X39254Y-16435D01*
X39273Y-16379D01*
X39310Y-16351D01*
X39385Y-16351D01*
X39423Y-16379D01*
X39442Y-16435D01*
X39442Y-16491D01*
X39254Y-16548D01*
X39611Y-16745D02*
X39611Y-16351D01*
X39611Y-16154D02*
X39592Y-16182D01*
X39611Y-16210D01*
X39630Y-16182D01*
X39611Y-16154D01*
X39611Y-16210D01*
X39743Y-16351D02*
X39893Y-16351D01*
X39799Y-16154D02*
X39799Y-16660D01*
X39818Y-16717D01*
X39855Y-16745D01*
X39893Y-16745D01*
X40174Y-16717D02*
X40136Y-16745D01*
X40061Y-16745D01*
X40024Y-16717D01*
X40005Y-16660D01*
X40005Y-16435D01*
X40024Y-16379D01*
X40061Y-16351D01*
X40136Y-16351D01*
X40174Y-16379D01*
X40193Y-16435D01*
X40193Y-16491D01*
X40005Y-16548D01*
X40362Y-16745D02*
X40362Y-16351D01*
X40362Y-16463D02*
X40381Y-16407D01*
X40399Y-16379D01*
X40437Y-16351D01*
X40474Y-16351D01*
X40606Y-16351D02*
X40606Y-16942D01*
X40606Y-16379D02*
X40643Y-16351D01*
X40718Y-16351D01*
X40756Y-16379D01*
X40775Y-16407D01*
X40793Y-16463D01*
X40793Y-16632D01*
X40775Y-16688D01*
X40756Y-16717D01*
X40718Y-16745D01*
X40643Y-16745D01*
X40606Y-16717D01*
X41018Y-16745D02*
X40981Y-16717D01*
X40962Y-16660D01*
X40962Y-16154D01*
X41337Y-16745D02*
X41337Y-16435D01*
X41318Y-16379D01*
X41280Y-16351D01*
X41205Y-16351D01*
X41168Y-16379D01*
X41337Y-16717D02*
X41299Y-16745D01*
X41205Y-16745D01*
X41168Y-16717D01*
X41149Y-16660D01*
X41149Y-16604D01*
X41168Y-16548D01*
X41205Y-16520D01*
X41299Y-16520D01*
X41337Y-16491D01*
X41468Y-16351D02*
X41618Y-16351D01*
X41524Y-16154D02*
X41524Y-16660D01*
X41543Y-16717D01*
X41580Y-16745D01*
X41618Y-16745D01*
X41693Y-16351D02*
X41843Y-16351D01*
X41749Y-16154D02*
X41749Y-16660D01*
X41768Y-16717D01*
X41805Y-16745D01*
X41843Y-16745D01*
X42124Y-16717D02*
X42086Y-16745D01*
X42011Y-16745D01*
X41974Y-16717D01*
X41955Y-16660D01*
X41955Y-16435D01*
X41974Y-16379D01*
X42011Y-16351D01*
X42086Y-16351D01*
X42124Y-16379D01*
X42143Y-16435D01*
X42143Y-16491D01*
X41955Y-16548D01*
X42631Y-16745D02*
X42706Y-16745D01*
X42743Y-16717D01*
X42762Y-16688D01*
X42799Y-16604D01*
X42818Y-16491D01*
X42818Y-16266D01*
X42799Y-16210D01*
X42781Y-16182D01*
X42743Y-16154D01*
X42668Y-16154D01*
X42631Y-16182D01*
X42612Y-16210D01*
X42593Y-16266D01*
X42593Y-16407D01*
X42612Y-16463D01*
X42631Y-16491D01*
X42668Y-16520D01*
X42743Y-16520D01*
X42781Y-16491D01*
X42799Y-16463D01*
X42818Y-16407D01*
X43062Y-16154D02*
X43099Y-16154D01*
X43137Y-16182D01*
X43156Y-16210D01*
X43174Y-16266D01*
X43193Y-16379D01*
X43193Y-16520D01*
X43174Y-16632D01*
X43156Y-16688D01*
X43137Y-16717D01*
X43099Y-16745D01*
X43062Y-16745D01*
X43024Y-16717D01*
X43006Y-16688D01*
X42987Y-16632D01*
X42968Y-16520D01*
X42968Y-16379D01*
X42987Y-16266D01*
X43006Y-16210D01*
X43024Y-16182D01*
X43062Y-16154D01*
X43437Y-16154D02*
X43474Y-16154D01*
X43512Y-16182D01*
X43531Y-16210D01*
X43549Y-16266D01*
X43568Y-16379D01*
X43568Y-16520D01*
X43549Y-16632D01*
X43531Y-16688D01*
X43512Y-16717D01*
X43474Y-16745D01*
X43437Y-16745D01*
X43399Y-16717D01*
X43381Y-16688D01*
X43362Y-16632D01*
X43343Y-16520D01*
X43343Y-16379D01*
X43362Y-16266D01*
X43381Y-16210D01*
X43399Y-16182D01*
X43437Y-16154D01*
X43924Y-16154D02*
X43737Y-16154D01*
X43718Y-16435D01*
X43737Y-16407D01*
X43774Y-16379D01*
X43868Y-16379D01*
X43906Y-16407D01*
X43924Y-16435D01*
X43943Y-16491D01*
X43943Y-16632D01*
X43924Y-16688D01*
X43906Y-16717D01*
X43868Y-16745D01*
X43774Y-16745D01*
X43737Y-16717D01*
X43718Y-16688D01*
X44112Y-16520D02*
X44412Y-16520D01*
X44675Y-16154D02*
X44712Y-16154D01*
X44750Y-16182D01*
X44769Y-16210D01*
X44787Y-16266D01*
X44806Y-16379D01*
X44806Y-16520D01*
X44787Y-16632D01*
X44769Y-16688D01*
X44750Y-16717D01*
X44712Y-16745D01*
X44675Y-16745D01*
X44637Y-16717D01*
X44619Y-16688D01*
X44600Y-16632D01*
X44581Y-16520D01*
X44581Y-16379D01*
X44600Y-16266D01*
X44619Y-16210D01*
X44637Y-16182D01*
X44675Y-16154D01*
X45181Y-16745D02*
X44956Y-16745D01*
X45069Y-16745D02*
X45069Y-16154D01*
X45031Y-16238D01*
X44994Y-16294D01*
X44956Y-16323D01*
X45350Y-16520D02*
X45650Y-16520D01*
X46025Y-16745D02*
X45838Y-16745D01*
X45838Y-16154D01*
X46232Y-16154D02*
X46269Y-16154D01*
X46307Y-16182D01*
X46326Y-16210D01*
X46344Y-16266D01*
X46363Y-16379D01*
X46363Y-16520D01*
X46344Y-16632D01*
X46326Y-16688D01*
X46307Y-16717D01*
X46269Y-16745D01*
X46232Y-16745D01*
X46194Y-16717D01*
X46176Y-16688D01*
X46157Y-16632D01*
X46138Y-16520D01*
X46138Y-16379D01*
X46157Y-16266D01*
X46176Y-16210D01*
X46194Y-16182D01*
X46232Y-16154D01*
X46738Y-16745D02*
X46513Y-16745D01*
X46626Y-16745D02*
X46626Y-16154D01*
X46588Y-16238D01*
X46551Y-16294D01*
X46513Y-16323D01*
X46851Y-16154D02*
X47076Y-16154D01*
X46963Y-16745D02*
X46963Y-16154D01*
X38954Y-18477D02*
X38954Y-17886D01*
X39104Y-17886D01*
X39141Y-17914D01*
X39160Y-17942D01*
X39179Y-17998D01*
X39179Y-18083D01*
X39160Y-18139D01*
X39141Y-18167D01*
X39104Y-18195D01*
X38954Y-18195D01*
X39329Y-18449D02*
X39385Y-18477D01*
X39479Y-18477D01*
X39517Y-18449D01*
X39535Y-18420D01*
X39554Y-18364D01*
X39554Y-18308D01*
X39535Y-18252D01*
X39517Y-18223D01*
X39479Y-18195D01*
X39404Y-18167D01*
X39367Y-18139D01*
X39348Y-18111D01*
X39329Y-18055D01*
X39329Y-17998D01*
X39348Y-17942D01*
X39367Y-17914D01*
X39404Y-17886D01*
X39498Y-17886D01*
X39554Y-17914D01*
X39723Y-18477D02*
X39723Y-17886D01*
X40080Y-18083D02*
X40080Y-18477D01*
X39986Y-17858D02*
X39892Y-18280D01*
X40136Y-18280D01*
X40455Y-17886D02*
X40380Y-17886D01*
X40342Y-17914D01*
X40323Y-17942D01*
X40286Y-18026D01*
X40267Y-18139D01*
X40267Y-18364D01*
X40286Y-18420D01*
X40305Y-18449D01*
X40342Y-18477D01*
X40417Y-18477D01*
X40455Y-18449D01*
X40473Y-18420D01*
X40492Y-18364D01*
X40492Y-18223D01*
X40473Y-18167D01*
X40455Y-18139D01*
X40417Y-18111D01*
X40342Y-18111D01*
X40305Y-18139D01*
X40286Y-18167D01*
X40267Y-18223D01*
X41186Y-18477D02*
X41055Y-18195D01*
X40961Y-18477D02*
X40961Y-17886D01*
X41111Y-17886D01*
X41148Y-17914D01*
X41167Y-17942D01*
X41186Y-17998D01*
X41186Y-18083D01*
X41167Y-18139D01*
X41148Y-18167D01*
X41111Y-18195D01*
X40961Y-18195D01*
X41430Y-17886D02*
X41505Y-17886D01*
X41542Y-17914D01*
X41580Y-17970D01*
X41599Y-18083D01*
X41599Y-18280D01*
X41580Y-18392D01*
X41542Y-18449D01*
X41505Y-18477D01*
X41430Y-18477D01*
X41392Y-18449D01*
X41355Y-18392D01*
X41336Y-18280D01*
X41336Y-18083D01*
X41355Y-17970D01*
X41392Y-17914D01*
X41430Y-17886D01*
X41993Y-18420D02*
X41974Y-18449D01*
X41918Y-18477D01*
X41880Y-18477D01*
X41824Y-18449D01*
X41787Y-18392D01*
X41768Y-18336D01*
X41749Y-18223D01*
X41749Y-18139D01*
X41768Y-18026D01*
X41787Y-17970D01*
X41824Y-17914D01*
X41880Y-17886D01*
X41918Y-17886D01*
X41974Y-17914D01*
X41993Y-17942D01*
X42687Y-18420D02*
X42668Y-18449D01*
X42612Y-18477D01*
X42574Y-18477D01*
X42518Y-18449D01*
X42481Y-18392D01*
X42462Y-18336D01*
X42443Y-18223D01*
X42443Y-18139D01*
X42462Y-18026D01*
X42481Y-17970D01*
X42518Y-17914D01*
X42574Y-17886D01*
X42612Y-17886D01*
X42668Y-17914D01*
X42687Y-17942D01*
X43025Y-18477D02*
X43025Y-18167D01*
X43006Y-18111D01*
X42968Y-18083D01*
X42893Y-18083D01*
X42856Y-18111D01*
X43025Y-18449D02*
X42987Y-18477D01*
X42893Y-18477D01*
X42856Y-18449D01*
X42837Y-18392D01*
X42837Y-18336D01*
X42856Y-18280D01*
X42893Y-18252D01*
X42987Y-18252D01*
X43025Y-18223D01*
X43212Y-18477D02*
X43212Y-18083D01*
X43212Y-18195D02*
X43231Y-18139D01*
X43249Y-18111D01*
X43287Y-18083D01*
X43324Y-18083D01*
X43456Y-18477D02*
X43456Y-18083D01*
X43456Y-18195D02*
X43475Y-18139D01*
X43493Y-18111D01*
X43531Y-18083D01*
X43568Y-18083D01*
X43700Y-18477D02*
X43700Y-18083D01*
X43700Y-17886D02*
X43681Y-17914D01*
X43700Y-17942D01*
X43719Y-17914D01*
X43700Y-17886D01*
X43700Y-17942D01*
X44038Y-18449D02*
X44000Y-18477D01*
X43925Y-18477D01*
X43888Y-18449D01*
X43869Y-18392D01*
X43869Y-18167D01*
X43888Y-18111D01*
X43925Y-18083D01*
X44000Y-18083D01*
X44038Y-18111D01*
X44057Y-18167D01*
X44057Y-18223D01*
X43869Y-18280D01*
X44226Y-18477D02*
X44226Y-18083D01*
X44226Y-18195D02*
X44245Y-18139D01*
X44263Y-18111D01*
X44301Y-18083D01*
X44338Y-18083D01*
X44901Y-18167D02*
X44957Y-18195D01*
X44976Y-18223D01*
X44995Y-18280D01*
X44995Y-18364D01*
X44976Y-18420D01*
X44957Y-18449D01*
X44920Y-18477D01*
X44770Y-18477D01*
X44770Y-17886D01*
X44901Y-17886D01*
X44939Y-17914D01*
X44957Y-17942D01*
X44976Y-17998D01*
X44976Y-18055D01*
X44957Y-18111D01*
X44939Y-18139D01*
X44901Y-18167D01*
X44770Y-18167D01*
X45220Y-18477D02*
X45183Y-18449D01*
X45164Y-18420D01*
X45145Y-18364D01*
X45145Y-18195D01*
X45164Y-18139D01*
X45183Y-18111D01*
X45220Y-18083D01*
X45276Y-18083D01*
X45314Y-18111D01*
X45333Y-18139D01*
X45351Y-18195D01*
X45351Y-18364D01*
X45333Y-18420D01*
X45314Y-18449D01*
X45276Y-18477D01*
X45220Y-18477D01*
X45689Y-18477D02*
X45689Y-18167D01*
X45670Y-18111D01*
X45632Y-18083D01*
X45557Y-18083D01*
X45520Y-18111D01*
X45689Y-18449D02*
X45651Y-18477D01*
X45557Y-18477D01*
X45520Y-18449D01*
X45501Y-18392D01*
X45501Y-18336D01*
X45520Y-18280D01*
X45557Y-18252D01*
X45651Y-18252D01*
X45689Y-18223D01*
X45876Y-18477D02*
X45876Y-18083D01*
X45876Y-18195D02*
X45895Y-18139D01*
X45913Y-18111D01*
X45951Y-18083D01*
X45988Y-18083D01*
X46289Y-18477D02*
X46289Y-17886D01*
X46289Y-18449D02*
X46251Y-18477D01*
X46176Y-18477D01*
X46139Y-18449D01*
X46120Y-18420D01*
X46101Y-18364D01*
X46101Y-18195D01*
X46120Y-18139D01*
X46139Y-18111D01*
X46176Y-18083D01*
X46251Y-18083D01*
X46289Y-18111D01*
X39179Y-19286D02*
X39160Y-19315D01*
X39104Y-19343D01*
X39066Y-19343D01*
X39010Y-19315D01*
X38973Y-19258D01*
X38954Y-19202D01*
X38935Y-19089D01*
X38935Y-19005D01*
X38954Y-18892D01*
X38973Y-18836D01*
X39010Y-18780D01*
X39066Y-18752D01*
X39104Y-18752D01*
X39160Y-18780D01*
X39179Y-18808D01*
X39404Y-19343D02*
X39367Y-19315D01*
X39348Y-19286D01*
X39329Y-19230D01*
X39329Y-19061D01*
X39348Y-19005D01*
X39367Y-18977D01*
X39404Y-18949D01*
X39460Y-18949D01*
X39498Y-18977D01*
X39517Y-19005D01*
X39535Y-19061D01*
X39535Y-19230D01*
X39517Y-19286D01*
X39498Y-19315D01*
X39460Y-19343D01*
X39404Y-19343D01*
X39760Y-19343D02*
X39723Y-19315D01*
X39704Y-19286D01*
X39685Y-19230D01*
X39685Y-19061D01*
X39704Y-19005D01*
X39723Y-18977D01*
X39760Y-18949D01*
X39816Y-18949D01*
X39854Y-18977D01*
X39873Y-19005D01*
X39891Y-19061D01*
X39891Y-19230D01*
X39873Y-19286D01*
X39854Y-19315D01*
X39816Y-19343D01*
X39760Y-19343D01*
X40116Y-19343D02*
X40079Y-19315D01*
X40060Y-19258D01*
X40060Y-18752D01*
X40266Y-19343D02*
X40266Y-18949D01*
X40266Y-18752D02*
X40247Y-18780D01*
X40266Y-18808D01*
X40285Y-18780D01*
X40266Y-18752D01*
X40266Y-18808D01*
X40454Y-18949D02*
X40454Y-19343D01*
X40454Y-19005D02*
X40473Y-18977D01*
X40510Y-18949D01*
X40566Y-18949D01*
X40604Y-18977D01*
X40623Y-19033D01*
X40623Y-19343D01*
X40979Y-18949D02*
X40979Y-19427D01*
X40960Y-19483D01*
X40941Y-19512D01*
X40904Y-19540D01*
X40847Y-19540D01*
X40810Y-19512D01*
X40979Y-19315D02*
X40941Y-19343D01*
X40866Y-19343D01*
X40829Y-19315D01*
X40810Y-19286D01*
X40791Y-19230D01*
X40791Y-19061D01*
X40810Y-19005D01*
X40829Y-18977D01*
X40866Y-18949D01*
X40941Y-18949D01*
X40979Y-18977D01*
X41410Y-18752D02*
X41541Y-19343D01*
X41672Y-18752D01*
X41804Y-19343D02*
X41804Y-18949D01*
X41804Y-18752D02*
X41785Y-18780D01*
X41804Y-18808D01*
X41823Y-18780D01*
X41804Y-18752D01*
X41804Y-18808D01*
X42161Y-19343D02*
X42161Y-19033D01*
X42142Y-18977D01*
X42104Y-18949D01*
X42029Y-18949D01*
X41992Y-18977D01*
X42161Y-19315D02*
X42123Y-19343D01*
X42029Y-19343D01*
X41992Y-19315D01*
X41973Y-19258D01*
X41973Y-19202D01*
X41992Y-19146D01*
X42029Y-19118D01*
X42123Y-19118D01*
X42161Y-19089D01*
X42329Y-19315D02*
X42367Y-19343D01*
X42442Y-19343D01*
X42479Y-19315D01*
X42498Y-19258D01*
X42498Y-19230D01*
X42479Y-19174D01*
X42442Y-19146D01*
X42385Y-19146D01*
X42348Y-19118D01*
X42329Y-19061D01*
X42329Y-19033D01*
X42348Y-18977D01*
X42385Y-18949D01*
X42442Y-18949D01*
X42479Y-18977D01*
X42686Y-19315D02*
X42686Y-19343D01*
X42667Y-19399D01*
X42648Y-19427D01*
X43117Y-18752D02*
X43211Y-19343D01*
X43286Y-18921D01*
X43361Y-19343D01*
X43455Y-18752D01*
X43605Y-19343D02*
X43605Y-18949D01*
X43605Y-18752D02*
X43586Y-18780D01*
X43605Y-18808D01*
X43624Y-18780D01*
X43605Y-18752D01*
X43605Y-18808D01*
X43793Y-19343D02*
X43793Y-18949D01*
X43793Y-19061D02*
X43812Y-19005D01*
X43830Y-18977D01*
X43868Y-18949D01*
X43905Y-18949D01*
X44187Y-19315D02*
X44149Y-19343D01*
X44074Y-19343D01*
X44037Y-19315D01*
X44018Y-19258D01*
X44018Y-19033D01*
X44037Y-18977D01*
X44074Y-18949D01*
X44149Y-18949D01*
X44187Y-18977D01*
X44206Y-19033D01*
X44206Y-19089D01*
X44018Y-19146D01*
X44806Y-19033D02*
X44862Y-19061D01*
X44881Y-19089D01*
X44900Y-19146D01*
X44900Y-19230D01*
X44881Y-19286D01*
X44862Y-19315D01*
X44825Y-19343D01*
X44675Y-19343D01*
X44675Y-18752D01*
X44806Y-18752D01*
X44844Y-18780D01*
X44862Y-18808D01*
X44881Y-18864D01*
X44881Y-18921D01*
X44862Y-18977D01*
X44844Y-19005D01*
X44806Y-19033D01*
X44675Y-19033D01*
X45125Y-19343D02*
X45088Y-19315D01*
X45069Y-19286D01*
X45050Y-19230D01*
X45050Y-19061D01*
X45069Y-19005D01*
X45088Y-18977D01*
X45125Y-18949D01*
X45181Y-18949D01*
X45219Y-18977D01*
X45238Y-19005D01*
X45256Y-19061D01*
X45256Y-19230D01*
X45238Y-19286D01*
X45219Y-19315D01*
X45181Y-19343D01*
X45125Y-19343D01*
X45425Y-18949D02*
X45425Y-19343D01*
X45425Y-19005D02*
X45444Y-18977D01*
X45481Y-18949D01*
X45537Y-18949D01*
X45575Y-18977D01*
X45594Y-19033D01*
X45594Y-19343D01*
X45950Y-19343D02*
X45950Y-18752D01*
X45950Y-19315D02*
X45912Y-19343D01*
X45837Y-19343D01*
X45800Y-19315D01*
X45781Y-19286D01*
X45762Y-19230D01*
X45762Y-19061D01*
X45781Y-19005D01*
X45800Y-18977D01*
X45837Y-18949D01*
X45912Y-18949D01*
X45950Y-18977D01*
X46437Y-19343D02*
X46437Y-18752D01*
X46587Y-18752D01*
X46624Y-18780D01*
X46643Y-18808D01*
X46662Y-18864D01*
X46662Y-18949D01*
X46643Y-19005D01*
X46624Y-19033D01*
X46587Y-19061D01*
X46437Y-19061D01*
X47000Y-19343D02*
X47000Y-19033D01*
X46981Y-18977D01*
X46943Y-18949D01*
X46868Y-18949D01*
X46831Y-18977D01*
X47000Y-19315D02*
X46962Y-19343D01*
X46868Y-19343D01*
X46831Y-19315D01*
X46812Y-19258D01*
X46812Y-19202D01*
X46831Y-19146D01*
X46868Y-19118D01*
X46962Y-19118D01*
X47000Y-19089D01*
X47356Y-19343D02*
X47356Y-18752D01*
X47356Y-19315D02*
X47318Y-19343D01*
X47243Y-19343D01*
X47206Y-19315D01*
X47187Y-19286D01*
X47168Y-19230D01*
X47168Y-19061D01*
X47187Y-19005D01*
X47206Y-18977D01*
X47243Y-18949D01*
X47318Y-18949D01*
X47356Y-18977D01*
X47524Y-19315D02*
X47562Y-19343D01*
X47637Y-19343D01*
X47674Y-19315D01*
X47693Y-19258D01*
X47693Y-19230D01*
X47674Y-19174D01*
X47637Y-19146D01*
X47580Y-19146D01*
X47543Y-19118D01*
X47524Y-19061D01*
X47524Y-19033D01*
X47543Y-18977D01*
X47580Y-18949D01*
X47637Y-18949D01*
X47674Y-18977D01*
X47881Y-19315D02*
X47881Y-19343D01*
X47862Y-19399D01*
X47843Y-19427D01*
X48575Y-19343D02*
X48444Y-19061D01*
X48350Y-19343D02*
X48350Y-18752D01*
X48500Y-18752D01*
X48537Y-18780D01*
X48556Y-18808D01*
X48575Y-18864D01*
X48575Y-18949D01*
X48556Y-19005D01*
X48537Y-19033D01*
X48500Y-19061D01*
X48350Y-19061D01*
X48800Y-19343D02*
X48763Y-19315D01*
X48744Y-19286D01*
X48725Y-19230D01*
X48725Y-19061D01*
X48744Y-19005D01*
X48763Y-18977D01*
X48800Y-18949D01*
X48856Y-18949D01*
X48894Y-18977D01*
X48913Y-19005D01*
X48931Y-19061D01*
X48931Y-19230D01*
X48913Y-19286D01*
X48894Y-19315D01*
X48856Y-19343D01*
X48800Y-19343D01*
X49044Y-18949D02*
X49194Y-18949D01*
X49100Y-18752D02*
X49100Y-19258D01*
X49119Y-19315D01*
X49156Y-19343D01*
X49194Y-19343D01*
X49494Y-19343D02*
X49494Y-19033D01*
X49475Y-18977D01*
X49437Y-18949D01*
X49362Y-18949D01*
X49325Y-18977D01*
X49494Y-19315D02*
X49456Y-19343D01*
X49362Y-19343D01*
X49325Y-19315D01*
X49306Y-19258D01*
X49306Y-19202D01*
X49325Y-19146D01*
X49362Y-19118D01*
X49456Y-19118D01*
X49494Y-19089D01*
X49625Y-18949D02*
X49775Y-18949D01*
X49681Y-18752D02*
X49681Y-19258D01*
X49700Y-19315D01*
X49737Y-19343D01*
X49775Y-19343D01*
X50056Y-19315D02*
X50018Y-19343D01*
X49943Y-19343D01*
X49906Y-19315D01*
X49887Y-19258D01*
X49887Y-19033D01*
X49906Y-18977D01*
X49943Y-18949D01*
X50018Y-18949D01*
X50056Y-18977D01*
X50075Y-19033D01*
X50075Y-19089D01*
X49887Y-19146D01*
X50413Y-19343D02*
X50413Y-18752D01*
X50413Y-19315D02*
X50375Y-19343D01*
X50300Y-19343D01*
X50263Y-19315D01*
X50244Y-19286D01*
X50225Y-19230D01*
X50225Y-19061D01*
X50244Y-19005D01*
X50263Y-18977D01*
X50300Y-18949D01*
X50375Y-18949D01*
X50413Y-18977D01*
X51125Y-19343D02*
X50994Y-19061D01*
X50900Y-19343D02*
X50900Y-18752D01*
X51050Y-18752D01*
X51087Y-18780D01*
X51106Y-18808D01*
X51125Y-18864D01*
X51125Y-18949D01*
X51106Y-19005D01*
X51087Y-19033D01*
X51050Y-19061D01*
X50900Y-19061D01*
X51369Y-18752D02*
X51444Y-18752D01*
X51481Y-18780D01*
X51519Y-18836D01*
X51538Y-18949D01*
X51538Y-19146D01*
X51519Y-19258D01*
X51481Y-19315D01*
X51444Y-19343D01*
X51369Y-19343D01*
X51331Y-19315D01*
X51294Y-19258D01*
X51275Y-19146D01*
X51275Y-18949D01*
X51294Y-18836D01*
X51331Y-18780D01*
X51369Y-18752D01*
X51932Y-19286D02*
X51913Y-19315D01*
X51857Y-19343D01*
X51819Y-19343D01*
X51763Y-19315D01*
X51726Y-19258D01*
X51707Y-19202D01*
X51688Y-19089D01*
X51688Y-19005D01*
X51707Y-18892D01*
X51726Y-18836D01*
X51763Y-18780D01*
X51819Y-18752D01*
X51857Y-18752D01*
X51913Y-18780D01*
X51932Y-18808D01*
X52401Y-19343D02*
X52401Y-18752D01*
X52532Y-19174D01*
X52663Y-18752D01*
X52663Y-19343D01*
X52907Y-19343D02*
X52870Y-19315D01*
X52851Y-19286D01*
X52832Y-19230D01*
X52832Y-19061D01*
X52851Y-19005D01*
X52870Y-18977D01*
X52907Y-18949D01*
X52963Y-18949D01*
X53001Y-18977D01*
X53020Y-19005D01*
X53038Y-19061D01*
X53038Y-19230D01*
X53020Y-19286D01*
X53001Y-19315D01*
X52963Y-19343D01*
X52907Y-19343D01*
X53376Y-18949D02*
X53376Y-19343D01*
X53207Y-18949D02*
X53207Y-19258D01*
X53226Y-19315D01*
X53263Y-19343D01*
X53319Y-19343D01*
X53357Y-19315D01*
X53376Y-19286D01*
X53563Y-18949D02*
X53563Y-19343D01*
X53563Y-19005D02*
X53582Y-18977D01*
X53619Y-18949D01*
X53675Y-18949D01*
X53713Y-18977D01*
X53732Y-19033D01*
X53732Y-19343D01*
X53863Y-18949D02*
X54013Y-18949D01*
X53919Y-18752D02*
X53919Y-19258D01*
X53938Y-19315D01*
X53975Y-19343D01*
X54013Y-19343D01*
X54144Y-19343D02*
X54144Y-18949D01*
X54144Y-18752D02*
X54125Y-18780D01*
X54144Y-18808D01*
X54163Y-18780D01*
X54144Y-18752D01*
X54144Y-18808D01*
X54332Y-18949D02*
X54332Y-19343D01*
X54332Y-19005D02*
X54351Y-18977D01*
X54388Y-18949D01*
X54444Y-18949D01*
X54482Y-18977D01*
X54501Y-19033D01*
X54501Y-19343D01*
X54857Y-18949D02*
X54857Y-19427D01*
X54838Y-19483D01*
X54819Y-19512D01*
X54782Y-19540D01*
X54725Y-19540D01*
X54688Y-19512D01*
X54857Y-19315D02*
X54819Y-19343D01*
X54744Y-19343D01*
X54707Y-19315D01*
X54688Y-19286D01*
X54669Y-19230D01*
X54669Y-19061D01*
X54688Y-19005D01*
X54707Y-18977D01*
X54744Y-18949D01*
X54819Y-18949D01*
X54857Y-18977D01*
G54D12*
X38816Y-36751D02*
X38816Y-21042D01*
X55253Y-36751D02*
X38816Y-36751D01*
X55253Y-21042D02*
X55253Y-36751D01*
X38816Y-21042D02*
X55253Y-21042D01*
G54D13*
X53680Y-26524D02*
X53643Y-26505D01*
X53586Y-26505D01*
X53530Y-26524D01*
X53493Y-26562D01*
X53474Y-26599D01*
X53455Y-26674D01*
X53455Y-26731D01*
X53474Y-26806D01*
X53493Y-26843D01*
X53530Y-26881D01*
X53586Y-26899D01*
X53624Y-26899D01*
X53680Y-26881D01*
X53699Y-26862D01*
X53699Y-26731D01*
X53624Y-26731D01*
X53868Y-26899D02*
X53868Y-26505D01*
X54093Y-26899D01*
X54093Y-26505D01*
X54281Y-26899D02*
X54281Y-26505D01*
X54375Y-26505D01*
X54431Y-26524D01*
X54468Y-26562D01*
X54487Y-26599D01*
X54506Y-26674D01*
X54506Y-26731D01*
X54487Y-26806D01*
X54468Y-26843D01*
X54431Y-26881D01*
X54375Y-26899D01*
X54281Y-26899D01*
X40379Y-26679D02*
X40379Y-26285D01*
X40379Y-26473D02*
X40604Y-26473D01*
X40604Y-26679D02*
X40604Y-26285D01*
X40736Y-26285D02*
X40867Y-26679D01*
X40998Y-26285D01*
G54D14*
X52153Y-28463D03*
X41916Y-28463D03*
G54D15*
X54712Y-21790D03*
X54318Y-21790D03*
X53925Y-21790D03*
X53531Y-21790D03*
X53137Y-21790D03*
X52743Y-21790D03*
X52350Y-21790D03*
X51956Y-21790D03*
X51562Y-21790D03*
X51169Y-21790D03*
X50775Y-21790D03*
X50381Y-21790D03*
X49988Y-21790D03*
X49594Y-21790D03*
X49200Y-21790D03*
X48806Y-21790D03*
X48413Y-21790D03*
X48019Y-21790D03*
X47625Y-21790D03*
X47232Y-21790D03*
X46838Y-21790D03*
X46444Y-21790D03*
X46051Y-21790D03*
X45657Y-21790D03*
X45263Y-21790D03*
X44869Y-21790D03*
X44476Y-21790D03*
X44082Y-21790D03*
X43688Y-21790D03*
X43295Y-21790D03*
X42901Y-21790D03*
X42507Y-21790D03*
X42114Y-21790D03*
X41720Y-21790D03*
X41326Y-21790D03*
X40932Y-21790D03*
X40539Y-21790D03*
X40145Y-21790D03*
X39751Y-21790D03*
X39358Y-21790D03*
G54D16*
X48520Y-25620D03*
X48440Y-25800D03*
X48360Y-25620D03*
X48280Y-25800D03*
X48200Y-25620D03*
X48120Y-25800D03*
X48040Y-25620D03*
X47960Y-25800D03*
X47880Y-25620D03*
X47800Y-25800D03*
X47720Y-25620D03*
X47640Y-25800D03*
X47560Y-25620D03*
X47480Y-25800D03*
X47400Y-25620D03*
X47320Y-25800D03*
X47240Y-25620D03*
X47160Y-25800D03*
X47080Y-25620D03*
X47000Y-25800D03*
X46920Y-25620D03*
X46840Y-25800D03*
X46760Y-25620D03*
X46680Y-25800D03*
X46600Y-25620D03*
X46520Y-25800D03*
X46440Y-25620D03*
X46360Y-25800D03*
X46280Y-25620D03*
X46200Y-25800D03*
X46120Y-25620D03*
X46040Y-25800D03*
X45960Y-25620D03*
X45880Y-25800D03*
X45800Y-25620D03*
X45720Y-25800D03*
X45640Y-25620D03*
X45560Y-25800D03*
G54D17*
X47020Y-30060D03*
X47680Y-28740D03*
X48340Y-28740D03*
X48340Y-29400D03*
X46360Y-29400D03*
X46360Y-30060D03*
X45700Y-30060D03*
X45700Y-30720D03*
X45700Y-28740D03*
X46360Y-30720D03*
X47020Y-27420D03*
X47020Y-29400D03*
X48340Y-27420D03*
X48340Y-30060D03*
X47020Y-30720D03*
X47020Y-28740D03*
X46360Y-28740D03*
X45700Y-29400D03*
X46360Y-27420D03*
X45700Y-27420D03*
X47680Y-27420D03*
X46360Y-28080D03*
X45700Y-28080D03*
X47680Y-30060D03*
X47680Y-26760D03*
X48340Y-26760D03*
X47020Y-28080D03*
X47680Y-30720D03*
X48340Y-30720D03*
X46360Y-26760D03*
X47680Y-29400D03*
X47680Y-28080D03*
X48340Y-28080D03*
X47020Y-26760D03*
X45700Y-26760D03*
G54D18*
X39626Y-26935D02*
X39901Y-26897D01*
X39626Y-26935D02*
X39664Y-26661D01*
X39358Y-21790D02*
X39359Y-25145D01*
X44440Y-26400D02*
X44440Y-26400D01*
G54D19*
X44440Y-26400D02*
X44440Y-28080D01*
G54D18*
X39784Y-26384D02*
X40177Y-26384D01*
X40177Y-26384D02*
X39626Y-26935D01*
X44440Y-26400D02*
X44440Y-26400D01*
X39359Y-25145D02*
X44440Y-26400D01*
X40216Y-25952D02*
X39784Y-26384D01*
X48020Y-24068D02*
X51169Y-23168D01*
X51169Y-23168D02*
X51169Y-21790D01*
G54D20*
X47880Y-25620D02*
X47880Y-24120D01*
X47880Y-24120D02*
X48020Y-24068D01*
X47800Y-23960D02*
X47941Y-23911D01*
G54D18*
X50776Y-23089D02*
X50775Y-21790D01*
G54D20*
X47800Y-25800D02*
X47800Y-23960D01*
G54D18*
X47941Y-23911D02*
X50776Y-23089D01*
X47862Y-23752D02*
X50382Y-23011D01*
G54D20*
X47720Y-23800D02*
X47862Y-23752D01*
X47720Y-25620D02*
X47720Y-23800D01*
G54D18*
X50382Y-23011D02*
X50382Y-21790D01*
X47783Y-23594D02*
X49988Y-22932D01*
X49988Y-22932D02*
X49988Y-21790D01*
G54D20*
X47640Y-23640D02*
X47783Y-23594D01*
X47640Y-25800D02*
X47640Y-23640D01*
X47560Y-23480D02*
X47705Y-23435D01*
G54D18*
X47705Y-23435D02*
X49594Y-22853D01*
X49594Y-22853D02*
X49594Y-21790D01*
G54D20*
X47560Y-25620D02*
X47560Y-23480D01*
X47480Y-23320D02*
X47626Y-23276D01*
G54D18*
X47626Y-23276D02*
X49201Y-22774D01*
X49201Y-22774D02*
X49201Y-21790D01*
G54D20*
X47480Y-25800D02*
X47480Y-23320D01*
G54D18*
X47547Y-23116D02*
X48807Y-22696D01*
G54D20*
X47400Y-23160D02*
X47547Y-23116D01*
G54D18*
X48807Y-22696D02*
X48807Y-21790D01*
G54D20*
X47400Y-25620D02*
X47400Y-23160D01*
X47320Y-23000D02*
X47468Y-22955D01*
G54D18*
X47468Y-22955D02*
X48413Y-22617D01*
X48413Y-22617D02*
X48413Y-21790D01*
G54D20*
X47320Y-25800D02*
X47320Y-23000D01*
G54D18*
X47390Y-22790D02*
X48020Y-22538D01*
X48020Y-22538D02*
X48019Y-21790D01*
G54D20*
X47240Y-25620D02*
X47240Y-22840D01*
X47240Y-22840D02*
X47390Y-22790D01*
X47160Y-25800D02*
X47160Y-22700D01*
G54D18*
X47311Y-22617D02*
X47626Y-22459D01*
X47626Y-22459D02*
X47626Y-21790D01*
G54D20*
X47160Y-22700D02*
X47311Y-22617D01*
X48520Y-25360D02*
X48650Y-25331D01*
G54D18*
X48650Y-25331D02*
X54319Y-23798D01*
X54319Y-23798D02*
X54319Y-21790D01*
G54D20*
X48520Y-25620D02*
X48520Y-25360D01*
X47080Y-25620D02*
X47080Y-22540D01*
G54D18*
X47153Y-22460D02*
X47232Y-22381D01*
G54D20*
X47080Y-22540D02*
X47153Y-22460D01*
G54D18*
X47232Y-22381D02*
X47232Y-21790D01*
G54D20*
X47000Y-22540D02*
X46917Y-22459D01*
X47000Y-25800D02*
X47000Y-22540D01*
G54D18*
X46838Y-22380D02*
X46838Y-21790D01*
X46917Y-22459D02*
X46838Y-22380D01*
G54D20*
X46920Y-25620D02*
X46920Y-22700D01*
X46920Y-22700D02*
X46760Y-22618D01*
G54D18*
X46445Y-22459D02*
X46445Y-21790D01*
X46760Y-22618D02*
X46445Y-22459D01*
G54D20*
X46840Y-22860D02*
X46681Y-22790D01*
X46840Y-25800D02*
X46840Y-22860D01*
G54D18*
X46681Y-22790D02*
X46051Y-22538D01*
X46051Y-22538D02*
X46051Y-21790D01*
X46602Y-22955D02*
X45657Y-22617D01*
G54D20*
X46760Y-25620D02*
X46760Y-23020D01*
X46760Y-23020D02*
X46602Y-22955D01*
G54D18*
X45657Y-22617D02*
X45657Y-21790D01*
G54D20*
X46680Y-23180D02*
X46524Y-23116D01*
G54D18*
X45264Y-22696D02*
X45264Y-21790D01*
X46524Y-23116D02*
X45264Y-22696D01*
G54D20*
X46680Y-25800D02*
X46680Y-23180D01*
G54D18*
X46445Y-23276D02*
X44870Y-22774D01*
G54D20*
X46600Y-23320D02*
X46445Y-23276D01*
X46600Y-25620D02*
X46600Y-23320D01*
G54D18*
X44870Y-22774D02*
X44870Y-21790D01*
X44476Y-22853D02*
X44476Y-21790D01*
X46366Y-23435D02*
X44476Y-22853D01*
G54D20*
X46520Y-25800D02*
X46520Y-23480D01*
X46520Y-23480D02*
X46366Y-23435D01*
G54D18*
X44083Y-22932D02*
X44082Y-21790D01*
X46287Y-23594D02*
X44083Y-22932D01*
G54D20*
X46440Y-25620D02*
X46440Y-23640D01*
X46440Y-23640D02*
X46287Y-23594D01*
X46360Y-25800D02*
X46360Y-23800D01*
G54D18*
X46209Y-23752D02*
X43689Y-23011D01*
G54D20*
X46360Y-23800D02*
X46209Y-23752D01*
G54D18*
X43689Y-23011D02*
X43689Y-21790D01*
X48571Y-25173D02*
X53925Y-23719D01*
G54D20*
X48440Y-25220D02*
X48571Y-25173D01*
G54D18*
X53925Y-23719D02*
X53925Y-21790D01*
G54D20*
X48440Y-25800D02*
X48440Y-25220D01*
X46280Y-23960D02*
X46130Y-23911D01*
G54D18*
X43295Y-23089D02*
X43295Y-21790D01*
X46130Y-23911D02*
X43295Y-23089D01*
G54D20*
X46280Y-25620D02*
X46280Y-23960D01*
G54D18*
X46051Y-24068D02*
X42902Y-23168D01*
X42902Y-23168D02*
X42901Y-21790D01*
G54D20*
X46200Y-25800D02*
X46200Y-24120D01*
X46200Y-24120D02*
X46051Y-24068D01*
G54D18*
X45972Y-24226D02*
X42508Y-23247D01*
X42508Y-23247D02*
X42508Y-21790D01*
G54D20*
X46120Y-24260D02*
X45972Y-24226D01*
X46120Y-25620D02*
X46120Y-24260D01*
X46040Y-25800D02*
X46040Y-24420D01*
G54D18*
X42114Y-23326D02*
X42114Y-21790D01*
G54D20*
X46040Y-24420D02*
X45894Y-24385D01*
G54D18*
X45894Y-24385D02*
X42114Y-23326D01*
G54D20*
X45960Y-25620D02*
X45960Y-24580D01*
X45960Y-24580D02*
X45815Y-24542D01*
G54D18*
X45815Y-24542D02*
X41720Y-23404D01*
X41720Y-23404D02*
X41720Y-21790D01*
X41327Y-23483D02*
X41327Y-21790D01*
G54D20*
X45880Y-24740D02*
X45736Y-24700D01*
G54D18*
X45736Y-24700D02*
X41327Y-23483D01*
G54D20*
X45880Y-25800D02*
X45880Y-24740D01*
G54D18*
X45657Y-24857D02*
X40933Y-23562D01*
G54D20*
X45800Y-25620D02*
X45800Y-24900D01*
X45800Y-24900D02*
X45657Y-24857D01*
G54D18*
X40933Y-23562D02*
X40933Y-21790D01*
X40539Y-23641D02*
X40539Y-21790D01*
G54D20*
X45720Y-25060D02*
X45579Y-25016D01*
X45720Y-25800D02*
X45720Y-25060D01*
G54D18*
X45579Y-25016D02*
X40539Y-23641D01*
X45500Y-25173D02*
X40146Y-23719D01*
G54D20*
X45640Y-25620D02*
X45640Y-25220D01*
G54D18*
X40146Y-23719D02*
X40145Y-21790D01*
G54D20*
X45640Y-25220D02*
X45500Y-25173D01*
G54D18*
X39752Y-23798D02*
X39752Y-21790D01*
X45421Y-25331D02*
X39752Y-23798D01*
G54D20*
X45560Y-25380D02*
X45421Y-25331D01*
X45560Y-25800D02*
X45560Y-25380D01*
X48360Y-25060D02*
X48492Y-25016D01*
X48360Y-25620D02*
X48360Y-25060D01*
G54D18*
X53531Y-23641D02*
X53531Y-21790D01*
X48492Y-25016D02*
X53531Y-23641D01*
X53138Y-23562D02*
X53138Y-21790D01*
G54D20*
X48280Y-24900D02*
X48413Y-24857D01*
G54D18*
X48413Y-24857D02*
X53138Y-23562D01*
G54D20*
X48280Y-25800D02*
X48280Y-24900D01*
X48200Y-24740D02*
X48335Y-24700D01*
G54D18*
X52744Y-23483D02*
X52744Y-21790D01*
X48335Y-24700D02*
X52744Y-23483D01*
G54D20*
X48200Y-25620D02*
X48200Y-24740D01*
X48120Y-25800D02*
X48120Y-24580D01*
X48120Y-24580D02*
X48256Y-24542D01*
G54D18*
X52350Y-23404D02*
X52350Y-21790D01*
X48256Y-24542D02*
X52350Y-23404D01*
G54D20*
X48040Y-25620D02*
X48040Y-24420D01*
X48040Y-24420D02*
X48177Y-24385D01*
G54D18*
X48177Y-24385D02*
X51957Y-23326D01*
X51957Y-23326D02*
X51956Y-21790D01*
G54D20*
X47960Y-24260D02*
X48098Y-24226D01*
X47960Y-25800D02*
X47960Y-24260D01*
G54D18*
X48098Y-24226D02*
X51563Y-23247D01*
X51563Y-23247D02*
X51563Y-21790D01*
X48340Y-28740D02*
X47680Y-28740D01*
X46360Y-30720D02*
X47020Y-30720D01*
X45700Y-30060D02*
X45700Y-30720D01*
X47020Y-30060D02*
X46360Y-30060D01*
X48340Y-27420D02*
X47680Y-27420D01*
X54700Y-24880D02*
X48900Y-26520D01*
X54700Y-24880D02*
X54700Y-24880D01*
X54712Y-21790D02*
X54700Y-24880D01*
X48760Y-26520D02*
X48900Y-26520D01*
X45700Y-26520D02*
X48760Y-26520D01*
X47020Y-28740D02*
X46360Y-28740D01*
X45700Y-28740D02*
X45700Y-29400D01*
X45700Y-27420D02*
X45700Y-28080D01*
X47020Y-27420D02*
X46360Y-27420D01*
X46360Y-26760D02*
X47020Y-26760D01*
X46360Y-28080D02*
X47020Y-28080D01*
X45700Y-26760D02*
X45700Y-26520D01*
X48340Y-30060D02*
X47680Y-30060D01*
X47680Y-30720D02*
X48340Y-30720D01*
X47680Y-26760D02*
X48340Y-26760D01*
X47680Y-29400D02*
X48340Y-29400D01*
X47680Y-28080D02*
X48340Y-28080D01*
X46360Y-29400D02*
X47020Y-29400D01*
G54D10*
G36*
X48950Y-30990D02*
X45090Y-30990D01*
X45090Y-26330D01*
X48950Y-26330D01*
X48950Y-30990D01*
X48950Y-30990D01*
G37*
G54D21*
X48950Y-30990D02*
X45090Y-30990D01*
X45090Y-26330D01*
X48950Y-26330D01*
X48950Y-30990D01*
G54D10*
G36*
X49190Y-25910D02*
X48770Y-25910D01*
X48770Y-25590D01*
X49190Y-25590D01*
X49190Y-25910D01*
X49190Y-25910D01*
G37*
G54D21*
X49190Y-25910D02*
X48770Y-25910D01*
X48770Y-25590D01*
X49190Y-25590D01*
X49190Y-25910D01*
G54D10*
G36*
X45290Y-25910D02*
X44850Y-25910D01*
X44850Y-25590D01*
X45290Y-25590D01*
X45290Y-25910D01*
X45290Y-25910D01*
G37*
G54D21*
X45290Y-25910D02*
X44850Y-25910D01*
X44850Y-25590D01*
X45290Y-25590D01*
X45290Y-25910D01*
M02*
