G04 (created by PCBNEW (2012-apr-16-27)-stable) date Thu 14 Nov 2013 10:10:54 AM CET*
G01*
G70*
G90*
%MOIN*%
G04 Gerber Fmt 3.4, Leading zero omitted, Abs format*
%FSLAX34Y34*%
G04 APERTURE LIST*
%ADD10C,0.001000*%
%ADD11C,0.002000*%
%ADD12C,0.008000*%
G04 APERTURE END LIST*
G54D10*
G54D11*
X38816Y-36751D02*
X38816Y-21042D01*
X55253Y-36751D02*
X38816Y-36751D01*
X55253Y-21042D02*
X55253Y-36751D01*
X38816Y-21042D02*
X55253Y-21042D01*
G54D10*
X45622Y-26682D02*
X45778Y-26838D01*
X45778Y-26682D02*
X45622Y-26838D01*
X45622Y-27342D02*
X45778Y-27498D01*
X45778Y-27342D02*
X45622Y-27498D01*
X45622Y-28002D02*
X45778Y-28158D01*
X45778Y-28002D02*
X45622Y-28158D01*
X45622Y-28662D02*
X45778Y-28818D01*
X45778Y-28662D02*
X45622Y-28818D01*
X45622Y-29322D02*
X45778Y-29478D01*
X45778Y-29322D02*
X45622Y-29478D01*
X45622Y-29982D02*
X45778Y-30138D01*
X45778Y-29982D02*
X45622Y-30138D01*
X45622Y-30642D02*
X45778Y-30798D01*
X45778Y-30642D02*
X45622Y-30798D01*
X46282Y-26682D02*
X46438Y-26838D01*
X46438Y-26682D02*
X46282Y-26838D01*
X46282Y-27342D02*
X46438Y-27498D01*
X46438Y-27342D02*
X46282Y-27498D01*
X46282Y-28002D02*
X46438Y-28158D01*
X46438Y-28002D02*
X46282Y-28158D01*
X46282Y-28662D02*
X46438Y-28818D01*
X46438Y-28662D02*
X46282Y-28818D01*
X46282Y-29322D02*
X46438Y-29478D01*
X46438Y-29322D02*
X46282Y-29478D01*
X46282Y-29982D02*
X46438Y-30138D01*
X46438Y-29982D02*
X46282Y-30138D01*
X46282Y-30642D02*
X46438Y-30798D01*
X46438Y-30642D02*
X46282Y-30798D01*
X46942Y-26682D02*
X47098Y-26838D01*
X47098Y-26682D02*
X46942Y-26838D01*
X46942Y-27342D02*
X47098Y-27498D01*
X47098Y-27342D02*
X46942Y-27498D01*
X46942Y-28002D02*
X47098Y-28158D01*
X47098Y-28002D02*
X46942Y-28158D01*
X46942Y-28662D02*
X47098Y-28818D01*
X47098Y-28662D02*
X46942Y-28818D01*
X46942Y-29322D02*
X47098Y-29478D01*
X47098Y-29322D02*
X46942Y-29478D01*
X46942Y-29982D02*
X47098Y-30138D01*
X47098Y-29982D02*
X46942Y-30138D01*
X46942Y-30642D02*
X47098Y-30798D01*
X47098Y-30642D02*
X46942Y-30798D01*
X47602Y-26682D02*
X47758Y-26838D01*
X47758Y-26682D02*
X47602Y-26838D01*
X47602Y-27342D02*
X47758Y-27498D01*
X47758Y-27342D02*
X47602Y-27498D01*
X47602Y-28002D02*
X47758Y-28158D01*
X47758Y-28002D02*
X47602Y-28158D01*
X47602Y-28662D02*
X47758Y-28818D01*
X47758Y-28662D02*
X47602Y-28818D01*
X47602Y-29322D02*
X47758Y-29478D01*
X47758Y-29322D02*
X47602Y-29478D01*
X47602Y-29982D02*
X47758Y-30138D01*
X47758Y-29982D02*
X47602Y-30138D01*
X47602Y-30642D02*
X47758Y-30798D01*
X47758Y-30642D02*
X47602Y-30798D01*
X48262Y-26682D02*
X48418Y-26838D01*
X48418Y-26682D02*
X48262Y-26838D01*
X48262Y-27342D02*
X48418Y-27498D01*
X48418Y-27342D02*
X48262Y-27498D01*
X48262Y-28002D02*
X48418Y-28158D01*
X48418Y-28002D02*
X48262Y-28158D01*
X48262Y-28662D02*
X48418Y-28818D01*
X48418Y-28662D02*
X48262Y-28818D01*
X48262Y-29322D02*
X48418Y-29478D01*
X48418Y-29322D02*
X48262Y-29478D01*
X48262Y-29982D02*
X48418Y-30138D01*
X48418Y-29982D02*
X48262Y-30138D01*
X48262Y-30642D02*
X48418Y-30798D01*
X48418Y-30642D02*
X48262Y-30798D01*
X42349Y-28463D02*
X42340Y-28547D01*
X42316Y-28628D01*
X42276Y-28702D01*
X42223Y-28768D01*
X42158Y-28821D01*
X42083Y-28862D01*
X42003Y-28887D01*
X41919Y-28895D01*
X41835Y-28888D01*
X41754Y-28864D01*
X41679Y-28825D01*
X41614Y-28772D01*
X41559Y-28707D01*
X41519Y-28633D01*
X41493Y-28553D01*
X41484Y-28469D01*
X41491Y-28385D01*
X41514Y-28304D01*
X41553Y-28229D01*
X41605Y-28163D01*
X41669Y-28108D01*
X41743Y-28067D01*
X41824Y-28041D01*
X41907Y-28031D01*
X41991Y-28037D01*
X42072Y-28060D01*
X42148Y-28098D01*
X42214Y-28150D01*
X42269Y-28214D01*
X42311Y-28287D01*
X42338Y-28368D01*
X42348Y-28451D01*
X42349Y-28463D01*
X52586Y-28463D02*
X52577Y-28547D01*
X52553Y-28628D01*
X52513Y-28702D01*
X52460Y-28768D01*
X52395Y-28821D01*
X52320Y-28862D01*
X52240Y-28887D01*
X52156Y-28895D01*
X52072Y-28888D01*
X51991Y-28864D01*
X51916Y-28825D01*
X51851Y-28772D01*
X51796Y-28707D01*
X51756Y-28633D01*
X51730Y-28553D01*
X51721Y-28469D01*
X51728Y-28385D01*
X51751Y-28304D01*
X51790Y-28229D01*
X51842Y-28163D01*
X51906Y-28108D01*
X51980Y-28067D01*
X52061Y-28041D01*
X52144Y-28031D01*
X52228Y-28037D01*
X52309Y-28060D01*
X52385Y-28098D01*
X52451Y-28150D01*
X52506Y-28214D01*
X52548Y-28287D01*
X52575Y-28368D01*
X52585Y-28451D01*
X52586Y-28463D01*
G54D12*
X37843Y-43694D02*
X37843Y-42894D01*
X38034Y-42894D01*
X38148Y-42932D01*
X38224Y-43008D01*
X38263Y-43084D01*
X38301Y-43237D01*
X38301Y-43351D01*
X38263Y-43503D01*
X38224Y-43580D01*
X38148Y-43656D01*
X38034Y-43694D01*
X37843Y-43694D01*
X38643Y-43694D02*
X38643Y-43160D01*
X38643Y-43313D02*
X38682Y-43237D01*
X38720Y-43199D01*
X38796Y-43160D01*
X38872Y-43160D01*
X39138Y-43694D02*
X39138Y-43160D01*
X39138Y-42894D02*
X39100Y-42932D01*
X39138Y-42970D01*
X39177Y-42932D01*
X39138Y-42894D01*
X39138Y-42970D01*
X39634Y-43694D02*
X39558Y-43656D01*
X39519Y-43580D01*
X39519Y-42894D01*
X40053Y-43694D02*
X39977Y-43656D01*
X39938Y-43580D01*
X39938Y-42894D01*
X40967Y-43694D02*
X40967Y-42894D01*
X41234Y-43465D01*
X41501Y-42894D01*
X41501Y-43694D01*
X42224Y-43694D02*
X42224Y-43275D01*
X42186Y-43199D01*
X42110Y-43160D01*
X41958Y-43160D01*
X41881Y-43199D01*
X42224Y-43656D02*
X42148Y-43694D01*
X41958Y-43694D01*
X41881Y-43656D01*
X41843Y-43580D01*
X41843Y-43503D01*
X41881Y-43427D01*
X41958Y-43389D01*
X42148Y-43389D01*
X42224Y-43351D01*
X42605Y-43160D02*
X42605Y-43960D01*
X42605Y-43199D02*
X42682Y-43160D01*
X42834Y-43160D01*
X42910Y-43199D01*
X42948Y-43237D01*
X42986Y-43313D01*
X42986Y-43541D01*
X42948Y-43618D01*
X42910Y-43656D01*
X42834Y-43694D01*
X42682Y-43694D01*
X42605Y-43656D01*
X43329Y-43618D02*
X43368Y-43656D01*
X43329Y-43694D01*
X43291Y-43656D01*
X43329Y-43618D01*
X43329Y-43694D01*
X43329Y-43199D02*
X43368Y-43237D01*
X43329Y-43275D01*
X43291Y-43237D01*
X43329Y-43199D01*
X43329Y-43275D01*
X37296Y-44972D02*
X37452Y-45128D01*
X37452Y-44972D02*
X37296Y-45128D01*
X37996Y-44574D02*
X38072Y-44574D01*
X38148Y-44612D01*
X38186Y-44650D01*
X38224Y-44726D01*
X38263Y-44879D01*
X38263Y-45069D01*
X38224Y-45221D01*
X38186Y-45298D01*
X38148Y-45336D01*
X38072Y-45374D01*
X37996Y-45374D01*
X37920Y-45336D01*
X37882Y-45298D01*
X37843Y-45221D01*
X37805Y-45069D01*
X37805Y-44879D01*
X37843Y-44726D01*
X37882Y-44650D01*
X37920Y-44612D01*
X37996Y-44574D01*
X38605Y-45298D02*
X38644Y-45336D01*
X38605Y-45374D01*
X38567Y-45336D01*
X38605Y-45298D01*
X38605Y-45374D01*
X39329Y-44840D02*
X39329Y-45374D01*
X39139Y-44536D02*
X38948Y-45107D01*
X39444Y-45107D01*
X39901Y-44574D02*
X39977Y-44574D01*
X40053Y-44612D01*
X40091Y-44650D01*
X40129Y-44726D01*
X40168Y-44879D01*
X40168Y-45069D01*
X40129Y-45221D01*
X40091Y-45298D01*
X40053Y-45336D01*
X39977Y-45374D01*
X39901Y-45374D01*
X39825Y-45336D01*
X39787Y-45298D01*
X39748Y-45221D01*
X39710Y-45069D01*
X39710Y-44879D01*
X39748Y-44726D01*
X39787Y-44650D01*
X39825Y-44612D01*
X39901Y-44574D01*
X40510Y-45374D02*
X40510Y-44840D01*
X40510Y-44917D02*
X40549Y-44879D01*
X40625Y-44840D01*
X40739Y-44840D01*
X40815Y-44879D01*
X40853Y-44955D01*
X40853Y-45374D01*
X40853Y-44955D02*
X40891Y-44879D01*
X40968Y-44840D01*
X41082Y-44840D01*
X41158Y-44879D01*
X41196Y-44955D01*
X41196Y-45374D01*
X41577Y-45374D02*
X41577Y-44840D01*
X41577Y-44917D02*
X41616Y-44879D01*
X41692Y-44840D01*
X41806Y-44840D01*
X41882Y-44879D01*
X41920Y-44955D01*
X41920Y-45374D01*
X41920Y-44955D02*
X41958Y-44879D01*
X42035Y-44840D01*
X42149Y-44840D01*
X42225Y-44879D01*
X42263Y-44955D01*
X42263Y-45374D01*
X43826Y-44536D02*
X43140Y-45564D01*
X44855Y-44574D02*
X44931Y-44574D01*
X45007Y-44612D01*
X45045Y-44650D01*
X45083Y-44726D01*
X45122Y-44879D01*
X45122Y-45069D01*
X45083Y-45221D01*
X45045Y-45298D01*
X45007Y-45336D01*
X44931Y-45374D01*
X44855Y-45374D01*
X44779Y-45336D01*
X44741Y-45298D01*
X44702Y-45221D01*
X44664Y-45069D01*
X44664Y-44879D01*
X44702Y-44726D01*
X44741Y-44650D01*
X44779Y-44612D01*
X44855Y-44574D01*
X45464Y-45298D02*
X45503Y-45336D01*
X45464Y-45374D01*
X45426Y-45336D01*
X45464Y-45298D01*
X45464Y-45374D01*
X45998Y-44574D02*
X46074Y-44574D01*
X46150Y-44612D01*
X46188Y-44650D01*
X46226Y-44726D01*
X46265Y-44879D01*
X46265Y-45069D01*
X46226Y-45221D01*
X46188Y-45298D01*
X46150Y-45336D01*
X46074Y-45374D01*
X45998Y-45374D01*
X45922Y-45336D01*
X45884Y-45298D01*
X45845Y-45221D01*
X45807Y-45069D01*
X45807Y-44879D01*
X45845Y-44726D01*
X45884Y-44650D01*
X45922Y-44612D01*
X45998Y-44574D01*
X47027Y-45374D02*
X46569Y-45374D01*
X46798Y-45374D02*
X46798Y-44574D01*
X46722Y-44688D01*
X46646Y-44764D01*
X46569Y-44802D01*
X47712Y-44574D02*
X47560Y-44574D01*
X47484Y-44612D01*
X47446Y-44650D01*
X47369Y-44764D01*
X47331Y-44917D01*
X47331Y-45221D01*
X47369Y-45298D01*
X47408Y-45336D01*
X47484Y-45374D01*
X47636Y-45374D01*
X47712Y-45336D01*
X47750Y-45298D01*
X47789Y-45221D01*
X47789Y-45031D01*
X47750Y-44955D01*
X47712Y-44917D01*
X47636Y-44879D01*
X47484Y-44879D01*
X47408Y-44917D01*
X47369Y-44955D01*
X47331Y-45031D01*
X48093Y-44574D02*
X48093Y-44726D01*
X48398Y-44574D02*
X48398Y-44726D01*
X49580Y-45679D02*
X49542Y-45640D01*
X49466Y-45526D01*
X49428Y-45450D01*
X49390Y-45336D01*
X49351Y-45145D01*
X49351Y-44993D01*
X49390Y-44802D01*
X49428Y-44688D01*
X49466Y-44612D01*
X49542Y-44498D01*
X49580Y-44460D01*
X49808Y-44574D02*
X50304Y-44574D01*
X50037Y-44879D01*
X50151Y-44879D01*
X50227Y-44917D01*
X50265Y-44955D01*
X50304Y-45031D01*
X50304Y-45221D01*
X50265Y-45298D01*
X50227Y-45336D01*
X50151Y-45374D01*
X49923Y-45374D01*
X49846Y-45336D01*
X49808Y-45298D01*
X51027Y-44574D02*
X50646Y-44574D01*
X50608Y-44955D01*
X50646Y-44917D01*
X50723Y-44879D01*
X50913Y-44879D01*
X50989Y-44917D01*
X51027Y-44955D01*
X51066Y-45031D01*
X51066Y-45221D01*
X51027Y-45298D01*
X50989Y-45336D01*
X50913Y-45374D01*
X50723Y-45374D01*
X50646Y-45336D01*
X50608Y-45298D01*
X52018Y-45374D02*
X52018Y-44574D01*
X52361Y-45374D02*
X52361Y-44955D01*
X52323Y-44879D01*
X52247Y-44840D01*
X52133Y-44840D01*
X52057Y-44879D01*
X52018Y-44917D01*
X52857Y-45374D02*
X52781Y-45336D01*
X52742Y-45298D01*
X52704Y-45221D01*
X52704Y-44993D01*
X52742Y-44917D01*
X52781Y-44879D01*
X52857Y-44840D01*
X52971Y-44840D01*
X53047Y-44879D01*
X53085Y-44917D01*
X53123Y-44993D01*
X53123Y-45221D01*
X53085Y-45298D01*
X53047Y-45336D01*
X52971Y-45374D01*
X52857Y-45374D01*
X53581Y-45374D02*
X53505Y-45336D01*
X53466Y-45260D01*
X53466Y-44574D01*
X54190Y-45336D02*
X54114Y-45374D01*
X53962Y-45374D01*
X53885Y-45336D01*
X53847Y-45260D01*
X53847Y-44955D01*
X53885Y-44879D01*
X53962Y-44840D01*
X54114Y-44840D01*
X54190Y-44879D01*
X54228Y-44955D01*
X54228Y-45031D01*
X53847Y-45107D01*
X54533Y-45336D02*
X54610Y-45374D01*
X54762Y-45374D01*
X54838Y-45336D01*
X54876Y-45260D01*
X54876Y-45221D01*
X54838Y-45145D01*
X54762Y-45107D01*
X54648Y-45107D01*
X54571Y-45069D01*
X54533Y-44993D01*
X54533Y-44955D01*
X54571Y-44879D01*
X54648Y-44840D01*
X54762Y-44840D01*
X54838Y-44879D01*
X55143Y-45679D02*
X55181Y-45640D01*
X55258Y-45526D01*
X55296Y-45450D01*
X55334Y-45336D01*
X55372Y-45145D01*
X55372Y-44993D01*
X55334Y-44802D01*
X55296Y-44688D01*
X55258Y-44612D01*
X55181Y-44498D01*
X55143Y-44460D01*
G54D10*
X37453Y-46106D02*
X37444Y-46190D01*
X37420Y-46271D01*
X37380Y-46345D01*
X37327Y-46411D01*
X37262Y-46464D01*
X37187Y-46505D01*
X37107Y-46530D01*
X37023Y-46538D01*
X36939Y-46531D01*
X36858Y-46507D01*
X36783Y-46468D01*
X36718Y-46415D01*
X36663Y-46350D01*
X36623Y-46276D01*
X36597Y-46196D01*
X36588Y-46112D01*
X36595Y-46028D01*
X36618Y-45947D01*
X36657Y-45872D01*
X36709Y-45806D01*
X36773Y-45751D01*
X36847Y-45710D01*
X36928Y-45684D01*
X37011Y-45674D01*
X37095Y-45680D01*
X37176Y-45703D01*
X37252Y-45741D01*
X37318Y-45793D01*
X37373Y-45857D01*
X37415Y-45930D01*
X37442Y-46011D01*
X37452Y-46094D01*
X37453Y-46106D01*
G54D12*
X37805Y-45706D02*
X37843Y-45668D01*
X37920Y-45630D01*
X38110Y-45630D01*
X38186Y-45668D01*
X38224Y-45706D01*
X38263Y-45782D01*
X38263Y-45858D01*
X38224Y-45973D01*
X37767Y-46430D01*
X38263Y-46430D01*
X38605Y-46354D02*
X38644Y-46392D01*
X38605Y-46430D01*
X38567Y-46392D01*
X38605Y-46354D01*
X38605Y-46430D01*
X38948Y-45706D02*
X38986Y-45668D01*
X39063Y-45630D01*
X39253Y-45630D01*
X39329Y-45668D01*
X39367Y-45706D01*
X39406Y-45782D01*
X39406Y-45858D01*
X39367Y-45973D01*
X38910Y-46430D01*
X39406Y-46430D01*
X39901Y-45630D02*
X39977Y-45630D01*
X40053Y-45668D01*
X40091Y-45706D01*
X40129Y-45782D01*
X40168Y-45935D01*
X40168Y-46125D01*
X40129Y-46277D01*
X40091Y-46354D01*
X40053Y-46392D01*
X39977Y-46430D01*
X39901Y-46430D01*
X39825Y-46392D01*
X39787Y-46354D01*
X39748Y-46277D01*
X39710Y-46125D01*
X39710Y-45935D01*
X39748Y-45782D01*
X39787Y-45706D01*
X39825Y-45668D01*
X39901Y-45630D01*
X40510Y-46430D02*
X40510Y-45896D01*
X40510Y-45973D02*
X40549Y-45935D01*
X40625Y-45896D01*
X40739Y-45896D01*
X40815Y-45935D01*
X40853Y-46011D01*
X40853Y-46430D01*
X40853Y-46011D02*
X40891Y-45935D01*
X40968Y-45896D01*
X41082Y-45896D01*
X41158Y-45935D01*
X41196Y-46011D01*
X41196Y-46430D01*
X41577Y-46430D02*
X41577Y-45896D01*
X41577Y-45973D02*
X41616Y-45935D01*
X41692Y-45896D01*
X41806Y-45896D01*
X41882Y-45935D01*
X41920Y-46011D01*
X41920Y-46430D01*
X41920Y-46011D02*
X41958Y-45935D01*
X42035Y-45896D01*
X42149Y-45896D01*
X42225Y-45935D01*
X42263Y-46011D01*
X42263Y-46430D01*
X43826Y-45592D02*
X43140Y-46620D01*
X44855Y-45630D02*
X44931Y-45630D01*
X45007Y-45668D01*
X45045Y-45706D01*
X45083Y-45782D01*
X45122Y-45935D01*
X45122Y-46125D01*
X45083Y-46277D01*
X45045Y-46354D01*
X45007Y-46392D01*
X44931Y-46430D01*
X44855Y-46430D01*
X44779Y-46392D01*
X44741Y-46354D01*
X44702Y-46277D01*
X44664Y-46125D01*
X44664Y-45935D01*
X44702Y-45782D01*
X44741Y-45706D01*
X44779Y-45668D01*
X44855Y-45630D01*
X45464Y-46354D02*
X45503Y-46392D01*
X45464Y-46430D01*
X45426Y-46392D01*
X45464Y-46354D01*
X45464Y-46430D01*
X45998Y-45630D02*
X46074Y-45630D01*
X46150Y-45668D01*
X46188Y-45706D01*
X46226Y-45782D01*
X46265Y-45935D01*
X46265Y-46125D01*
X46226Y-46277D01*
X46188Y-46354D01*
X46150Y-46392D01*
X46074Y-46430D01*
X45998Y-46430D01*
X45922Y-46392D01*
X45884Y-46354D01*
X45845Y-46277D01*
X45807Y-46125D01*
X45807Y-45935D01*
X45845Y-45782D01*
X45884Y-45706D01*
X45922Y-45668D01*
X45998Y-45630D01*
X46722Y-45973D02*
X46646Y-45935D01*
X46607Y-45896D01*
X46569Y-45820D01*
X46569Y-45782D01*
X46607Y-45706D01*
X46646Y-45668D01*
X46722Y-45630D01*
X46874Y-45630D01*
X46950Y-45668D01*
X46988Y-45706D01*
X47027Y-45782D01*
X47027Y-45820D01*
X46988Y-45896D01*
X46950Y-45935D01*
X46874Y-45973D01*
X46722Y-45973D01*
X46646Y-46011D01*
X46607Y-46049D01*
X46569Y-46125D01*
X46569Y-46277D01*
X46607Y-46354D01*
X46646Y-46392D01*
X46722Y-46430D01*
X46874Y-46430D01*
X46950Y-46392D01*
X46988Y-46354D01*
X47027Y-46277D01*
X47027Y-46125D01*
X46988Y-46049D01*
X46950Y-46011D01*
X46874Y-45973D01*
X47293Y-45630D02*
X47827Y-45630D01*
X47484Y-46430D01*
X48093Y-45630D02*
X48093Y-45782D01*
X48398Y-45630D02*
X48398Y-45782D01*
X49580Y-46735D02*
X49542Y-46696D01*
X49466Y-46582D01*
X49428Y-46506D01*
X49390Y-46392D01*
X49351Y-46201D01*
X49351Y-46049D01*
X49390Y-45858D01*
X49428Y-45744D01*
X49466Y-45668D01*
X49542Y-45554D01*
X49580Y-45516D01*
X49846Y-45706D02*
X49884Y-45668D01*
X49961Y-45630D01*
X50151Y-45630D01*
X50227Y-45668D01*
X50265Y-45706D01*
X50304Y-45782D01*
X50304Y-45858D01*
X50265Y-45973D01*
X49808Y-46430D01*
X50304Y-46430D01*
X51256Y-46430D02*
X51256Y-45630D01*
X51599Y-46430D02*
X51599Y-46011D01*
X51561Y-45935D01*
X51485Y-45896D01*
X51371Y-45896D01*
X51295Y-45935D01*
X51256Y-45973D01*
X52095Y-46430D02*
X52019Y-46392D01*
X51980Y-46354D01*
X51942Y-46277D01*
X51942Y-46049D01*
X51980Y-45973D01*
X52019Y-45935D01*
X52095Y-45896D01*
X52209Y-45896D01*
X52285Y-45935D01*
X52323Y-45973D01*
X52361Y-46049D01*
X52361Y-46277D01*
X52323Y-46354D01*
X52285Y-46392D01*
X52209Y-46430D01*
X52095Y-46430D01*
X52819Y-46430D02*
X52743Y-46392D01*
X52704Y-46316D01*
X52704Y-45630D01*
X53428Y-46392D02*
X53352Y-46430D01*
X53200Y-46430D01*
X53123Y-46392D01*
X53085Y-46316D01*
X53085Y-46011D01*
X53123Y-45935D01*
X53200Y-45896D01*
X53352Y-45896D01*
X53428Y-45935D01*
X53466Y-46011D01*
X53466Y-46087D01*
X53085Y-46163D01*
X53771Y-46392D02*
X53848Y-46430D01*
X54000Y-46430D01*
X54076Y-46392D01*
X54114Y-46316D01*
X54114Y-46277D01*
X54076Y-46201D01*
X54000Y-46163D01*
X53886Y-46163D01*
X53809Y-46125D01*
X53771Y-46049D01*
X53771Y-46011D01*
X53809Y-45935D01*
X53886Y-45896D01*
X54000Y-45896D01*
X54076Y-45935D01*
X54381Y-46735D02*
X54419Y-46696D01*
X54496Y-46582D01*
X54534Y-46506D01*
X54572Y-46392D01*
X54610Y-46201D01*
X54610Y-46049D01*
X54572Y-45858D01*
X54534Y-45744D01*
X54496Y-45668D01*
X54419Y-45554D01*
X54381Y-45516D01*
M02*
