%FSLAX46Y46*%
G04 Gerber Fmt 4.6, Leading zero omitted, Abs format (unit mm)*
G04 Created by KiCad (PCBNEW (2014-10-13 BZR 5186)-product) date Do 16 Okt 2014 16:40:25 CEST*
%MOMM*%
G01*
G04 APERTURE LIST*
%ADD10C,0.150000*%
%ADD11C,0.250000*%
%ADD12C,1.300480*%
%ADD13C,1.500000*%
%ADD14R,2.029460X2.651760*%
%ADD15C,3.000000*%
%ADD16C,4.064000*%
%ADD17R,0.635000X1.143000*%
%ADD18R,1.143000X0.635000*%
%ADD19R,2.032000X2.032000*%
%ADD20O,2.032000X2.032000*%
%ADD21C,0.889000*%
%ADD22C,0.391000*%
%ADD23C,0.254000*%
G04 APERTURE END LIST*
D10*
D11*
X150823810Y-53954762D02*
X150823810Y-51954762D01*
X150347619Y-51954762D01*
X150061905Y-52050000D01*
X149871429Y-52240476D01*
X149776190Y-52430952D01*
X149680952Y-52811905D01*
X149680952Y-53097619D01*
X149776190Y-53478571D01*
X149871429Y-53669048D01*
X150061905Y-53859524D01*
X150347619Y-53954762D01*
X150823810Y-53954762D01*
X148823810Y-52907143D02*
X148157143Y-52907143D01*
X147871429Y-53954762D02*
X148823810Y-53954762D01*
X148823810Y-51954762D01*
X147871429Y-51954762D01*
X147109524Y-53859524D02*
X146823809Y-53954762D01*
X146347619Y-53954762D01*
X146157143Y-53859524D01*
X146061905Y-53764286D01*
X145966666Y-53573810D01*
X145966666Y-53383333D01*
X146061905Y-53192857D01*
X146157143Y-53097619D01*
X146347619Y-53002381D01*
X146728571Y-52907143D01*
X146919047Y-52811905D01*
X147014286Y-52716667D01*
X147109524Y-52526190D01*
X147109524Y-52335714D01*
X147014286Y-52145238D01*
X146919047Y-52050000D01*
X146728571Y-51954762D01*
X146252381Y-51954762D01*
X145966666Y-52050000D01*
X144728571Y-53002381D02*
X144728571Y-53954762D01*
X145395238Y-51954762D02*
X144728571Y-53002381D01*
X144061904Y-51954762D01*
X141204761Y-52907143D02*
X141871428Y-52907143D01*
X141871428Y-53954762D02*
X141871428Y-51954762D01*
X140919047Y-51954762D01*
X140157142Y-53954762D02*
X140157142Y-51954762D01*
X140157142Y-52907143D02*
X139014284Y-52907143D01*
X139014284Y-53954762D02*
X139014284Y-51954762D01*
X138061904Y-53192857D02*
X136538094Y-53192857D01*
X134442856Y-53764286D02*
X134538094Y-53859524D01*
X134823809Y-53954762D01*
X135014285Y-53954762D01*
X135299999Y-53859524D01*
X135490475Y-53669048D01*
X135585714Y-53478571D01*
X135680952Y-53097619D01*
X135680952Y-52811905D01*
X135585714Y-52430952D01*
X135490475Y-52240476D01*
X135299999Y-52050000D01*
X135014285Y-51954762D01*
X134823809Y-51954762D01*
X134538094Y-52050000D01*
X134442856Y-52145238D01*
X133585714Y-53954762D02*
X133585714Y-51954762D01*
X132919047Y-53383333D01*
X132252380Y-51954762D01*
X132252380Y-53954762D01*
X131395238Y-53859524D02*
X131109523Y-53954762D01*
X130633333Y-53954762D01*
X130442857Y-53859524D01*
X130347619Y-53764286D01*
X130252380Y-53573810D01*
X130252380Y-53383333D01*
X130347619Y-53192857D01*
X130442857Y-53097619D01*
X130633333Y-53002381D01*
X131014285Y-52907143D01*
X131204761Y-52811905D01*
X131300000Y-52716667D01*
X131395238Y-52526190D01*
X131395238Y-52335714D01*
X131300000Y-52145238D01*
X131204761Y-52050000D01*
X131014285Y-51954762D01*
X130538095Y-51954762D01*
X130252380Y-52050000D01*
X149776190Y-57004762D02*
X150919048Y-57004762D01*
X150347619Y-57004762D02*
X150347619Y-55004762D01*
X150538095Y-55290476D01*
X150728571Y-55480952D01*
X150919048Y-55576190D01*
X148538095Y-55004762D02*
X148347619Y-55004762D01*
X148157143Y-55100000D01*
X148061905Y-55195238D01*
X147966667Y-55385714D01*
X147871428Y-55766667D01*
X147871428Y-56242857D01*
X147966667Y-56623810D01*
X148061905Y-56814286D01*
X148157143Y-56909524D01*
X148347619Y-57004762D01*
X148538095Y-57004762D01*
X148728571Y-56909524D01*
X148823809Y-56814286D01*
X148919048Y-56623810D01*
X149014286Y-56242857D01*
X149014286Y-55766667D01*
X148919048Y-55385714D01*
X148823809Y-55195238D01*
X148728571Y-55100000D01*
X148538095Y-55004762D01*
X147204762Y-55004762D02*
X145871428Y-55004762D01*
X146728571Y-57004762D01*
X144252381Y-55004762D02*
X144633333Y-55004762D01*
X144823809Y-55100000D01*
X144919047Y-55195238D01*
X145109524Y-55480952D01*
X145204762Y-55861905D01*
X145204762Y-56623810D01*
X145109524Y-56814286D01*
X145014285Y-56909524D01*
X144823809Y-57004762D01*
X144442857Y-57004762D01*
X144252381Y-56909524D01*
X144157143Y-56814286D01*
X144061904Y-56623810D01*
X144061904Y-56147619D01*
X144157143Y-55957143D01*
X144252381Y-55861905D01*
X144442857Y-55766667D01*
X144823809Y-55766667D01*
X145014285Y-55861905D01*
X145109524Y-55957143D01*
X145204762Y-56147619D01*
X142347619Y-55004762D02*
X142728571Y-55004762D01*
X142919047Y-55100000D01*
X143014285Y-55195238D01*
X143204762Y-55480952D01*
X143300000Y-55861905D01*
X143300000Y-56623810D01*
X143204762Y-56814286D01*
X143109523Y-56909524D01*
X142919047Y-57004762D01*
X142538095Y-57004762D01*
X142347619Y-56909524D01*
X142252381Y-56814286D01*
X142157142Y-56623810D01*
X142157142Y-56147619D01*
X142252381Y-55957143D01*
X142347619Y-55861905D01*
X142538095Y-55766667D01*
X142919047Y-55766667D01*
X143109523Y-55861905D01*
X143204762Y-55957143D01*
X143300000Y-56147619D01*
X141300000Y-56242857D02*
X139776190Y-56242857D01*
X138442857Y-55004762D02*
X138252381Y-55004762D01*
X138061905Y-55100000D01*
X137966667Y-55195238D01*
X137871429Y-55385714D01*
X137776190Y-55766667D01*
X137776190Y-56242857D01*
X137871429Y-56623810D01*
X137966667Y-56814286D01*
X138061905Y-56909524D01*
X138252381Y-57004762D01*
X138442857Y-57004762D01*
X138633333Y-56909524D01*
X138728571Y-56814286D01*
X138823810Y-56623810D01*
X138919048Y-56242857D01*
X138919048Y-55766667D01*
X138823810Y-55385714D01*
X138728571Y-55195238D01*
X138633333Y-55100000D01*
X138442857Y-55004762D01*
X136538095Y-55004762D02*
X136347619Y-55004762D01*
X136157143Y-55100000D01*
X136061905Y-55195238D01*
X135966667Y-55385714D01*
X135871428Y-55766667D01*
X135871428Y-56242857D01*
X135966667Y-56623810D01*
X136061905Y-56814286D01*
X136157143Y-56909524D01*
X136347619Y-57004762D01*
X136538095Y-57004762D01*
X136728571Y-56909524D01*
X136823809Y-56814286D01*
X136919048Y-56623810D01*
X137014286Y-56242857D01*
X137014286Y-55766667D01*
X136919048Y-55385714D01*
X136823809Y-55195238D01*
X136728571Y-55100000D01*
X136538095Y-55004762D01*
X135014286Y-56242857D02*
X133490476Y-56242857D01*
X131585715Y-57004762D02*
X132538096Y-57004762D01*
X132538096Y-55004762D01*
X130538095Y-55004762D02*
X130347619Y-55004762D01*
X130157143Y-55100000D01*
X130061905Y-55195238D01*
X129966667Y-55385714D01*
X129871428Y-55766667D01*
X129871428Y-56242857D01*
X129966667Y-56623810D01*
X130061905Y-56814286D01*
X130157143Y-56909524D01*
X130347619Y-57004762D01*
X130538095Y-57004762D01*
X130728571Y-56909524D01*
X130823809Y-56814286D01*
X130919048Y-56623810D01*
X131014286Y-56242857D01*
X131014286Y-55766667D01*
X130919048Y-55385714D01*
X130823809Y-55195238D01*
X130728571Y-55100000D01*
X130538095Y-55004762D01*
X129109524Y-55195238D02*
X129014286Y-55100000D01*
X128823809Y-55004762D01*
X128347619Y-55004762D01*
X128157143Y-55100000D01*
X128061905Y-55195238D01*
X127966666Y-55385714D01*
X127966666Y-55576190D01*
X128061905Y-55861905D01*
X129204762Y-57004762D01*
X127966666Y-57004762D01*
X126442857Y-55957143D02*
X126157143Y-56052381D01*
X126061904Y-56147619D01*
X125966666Y-56338095D01*
X125966666Y-56623810D01*
X126061904Y-56814286D01*
X126157143Y-56909524D01*
X126347619Y-57004762D01*
X127109524Y-57004762D01*
X127109524Y-55004762D01*
X126442857Y-55004762D01*
X126252381Y-55100000D01*
X126157143Y-55195238D01*
X126061904Y-55385714D01*
X126061904Y-55576190D01*
X126157143Y-55766667D01*
X126252381Y-55861905D01*
X126442857Y-55957143D01*
X127109524Y-55957143D01*
X149680952Y-59864286D02*
X149776190Y-59959524D01*
X150061905Y-60054762D01*
X150252381Y-60054762D01*
X150538095Y-59959524D01*
X150728571Y-59769048D01*
X150823810Y-59578571D01*
X150919048Y-59197619D01*
X150919048Y-58911905D01*
X150823810Y-58530952D01*
X150728571Y-58340476D01*
X150538095Y-58150000D01*
X150252381Y-58054762D01*
X150061905Y-58054762D01*
X149776190Y-58150000D01*
X149680952Y-58245238D01*
X148538095Y-60054762D02*
X148728571Y-59959524D01*
X148823810Y-59864286D01*
X148919048Y-59673810D01*
X148919048Y-59102381D01*
X148823810Y-58911905D01*
X148728571Y-58816667D01*
X148538095Y-58721429D01*
X148252381Y-58721429D01*
X148061905Y-58816667D01*
X147966667Y-58911905D01*
X147871429Y-59102381D01*
X147871429Y-59673810D01*
X147966667Y-59864286D01*
X148061905Y-59959524D01*
X148252381Y-60054762D01*
X148538095Y-60054762D01*
X147014286Y-58721429D02*
X147014286Y-60721429D01*
X147014286Y-58816667D02*
X146823809Y-58721429D01*
X146442857Y-58721429D01*
X146252381Y-58816667D01*
X146157143Y-58911905D01*
X146061905Y-59102381D01*
X146061905Y-59673810D01*
X146157143Y-59864286D01*
X146252381Y-59959524D01*
X146442857Y-60054762D01*
X146823809Y-60054762D01*
X147014286Y-59959524D01*
X145204762Y-58721429D02*
X145204762Y-60721429D01*
X145204762Y-58816667D02*
X145014285Y-58721429D01*
X144633333Y-58721429D01*
X144442857Y-58816667D01*
X144347619Y-58911905D01*
X144252381Y-59102381D01*
X144252381Y-59673810D01*
X144347619Y-59864286D01*
X144442857Y-59959524D01*
X144633333Y-60054762D01*
X145014285Y-60054762D01*
X145204762Y-59959524D01*
X142633333Y-59959524D02*
X142823809Y-60054762D01*
X143204761Y-60054762D01*
X143395238Y-59959524D01*
X143490476Y-59769048D01*
X143490476Y-59007143D01*
X143395238Y-58816667D01*
X143204761Y-58721429D01*
X142823809Y-58721429D01*
X142633333Y-58816667D01*
X142538095Y-59007143D01*
X142538095Y-59197619D01*
X143490476Y-59388095D01*
X141680952Y-60054762D02*
X141680952Y-58721429D01*
X141680952Y-59102381D02*
X141585713Y-58911905D01*
X141490475Y-58816667D01*
X141299999Y-58721429D01*
X141109523Y-58721429D01*
X138252380Y-59007143D02*
X137966666Y-59102381D01*
X137871427Y-59197619D01*
X137776189Y-59388095D01*
X137776189Y-59673810D01*
X137871427Y-59864286D01*
X137966666Y-59959524D01*
X138157142Y-60054762D01*
X138919047Y-60054762D01*
X138919047Y-58054762D01*
X138252380Y-58054762D01*
X138061904Y-58150000D01*
X137966666Y-58245238D01*
X137871427Y-58435714D01*
X137871427Y-58626190D01*
X137966666Y-58816667D01*
X138061904Y-58911905D01*
X138252380Y-59007143D01*
X138919047Y-59007143D01*
X136633332Y-60054762D02*
X136823808Y-59959524D01*
X136919047Y-59864286D01*
X137014285Y-59673810D01*
X137014285Y-59102381D01*
X136919047Y-58911905D01*
X136823808Y-58816667D01*
X136633332Y-58721429D01*
X136347618Y-58721429D01*
X136157142Y-58816667D01*
X136061904Y-58911905D01*
X135966666Y-59102381D01*
X135966666Y-59673810D01*
X136061904Y-59864286D01*
X136157142Y-59959524D01*
X136347618Y-60054762D01*
X136633332Y-60054762D01*
X135395237Y-58721429D02*
X134633332Y-58721429D01*
X135109523Y-58054762D02*
X135109523Y-59769048D01*
X135014284Y-59959524D01*
X134823808Y-60054762D01*
X134633332Y-60054762D01*
X134252380Y-58721429D02*
X133490475Y-58721429D01*
X133966666Y-58054762D02*
X133966666Y-59769048D01*
X133871427Y-59959524D01*
X133680951Y-60054762D01*
X133490475Y-60054762D01*
X132538094Y-60054762D02*
X132728570Y-59959524D01*
X132823809Y-59864286D01*
X132919047Y-59673810D01*
X132919047Y-59102381D01*
X132823809Y-58911905D01*
X132728570Y-58816667D01*
X132538094Y-58721429D01*
X132252380Y-58721429D01*
X132061904Y-58816667D01*
X131966666Y-58911905D01*
X131871428Y-59102381D01*
X131871428Y-59673810D01*
X131966666Y-59864286D01*
X132061904Y-59959524D01*
X132252380Y-60054762D01*
X132538094Y-60054762D01*
X131014285Y-60054762D02*
X131014285Y-58721429D01*
X131014285Y-58911905D02*
X130919046Y-58816667D01*
X130728570Y-58721429D01*
X130442856Y-58721429D01*
X130252380Y-58816667D01*
X130157142Y-59007143D01*
X130157142Y-60054762D01*
X130157142Y-59007143D02*
X130061904Y-58816667D01*
X129871427Y-58721429D01*
X129585713Y-58721429D01*
X129395237Y-58816667D01*
X129299999Y-59007143D01*
X129299999Y-60054762D01*
D12*
X97498900Y-69999540D03*
X140498560Y-69999540D03*
D13*
X93500000Y-110500000D03*
X144500000Y-110450000D03*
X144500000Y-77650000D03*
D14*
X91100000Y-85714660D03*
X91100000Y-89885340D03*
D13*
X98180000Y-111500000D03*
X98180000Y-115310000D03*
X99450000Y-109595000D03*
X99450000Y-113405000D03*
X100720000Y-111500000D03*
X100720000Y-115310000D03*
X101990000Y-109595000D03*
X101990000Y-113405000D03*
X103260000Y-111500000D03*
X103260000Y-115310000D03*
X104530000Y-109595000D03*
X104530000Y-113405000D03*
X105800000Y-111500000D03*
X105800000Y-115310000D03*
X107070000Y-109595000D03*
X107070000Y-113405000D03*
X108340000Y-111500000D03*
X108340000Y-115310000D03*
X109610000Y-109595000D03*
X109610000Y-113405000D03*
X110880000Y-111500000D03*
X110880000Y-115310000D03*
X112150000Y-109595000D03*
X112150000Y-113405000D03*
X113420000Y-111500000D03*
X113420000Y-115310000D03*
X114690000Y-109595000D03*
X114690000Y-113405000D03*
X115960000Y-111500000D03*
X115960000Y-115310000D03*
X117230000Y-109595000D03*
X117230000Y-113405000D03*
X118500000Y-111500000D03*
X118500000Y-115310000D03*
X119770000Y-109595000D03*
X119770000Y-113405000D03*
X121040000Y-111500000D03*
X121040000Y-115310000D03*
X122310000Y-109595000D03*
X122310000Y-113405000D03*
X123580000Y-111500000D03*
X123580000Y-115310000D03*
X124850000Y-109595000D03*
X124850000Y-113405000D03*
X126120000Y-111500000D03*
X126120000Y-115310000D03*
X127390000Y-109595000D03*
X127390000Y-113405000D03*
X128660000Y-111500000D03*
X128660000Y-115310000D03*
X129930000Y-109595000D03*
X129930000Y-113405000D03*
X131200000Y-111500000D03*
X131200000Y-115310000D03*
X132470000Y-109595000D03*
X132470000Y-113405000D03*
X133740000Y-111500000D03*
X133740000Y-115310000D03*
X135010000Y-109595000D03*
X135010000Y-113405000D03*
X136280000Y-111500000D03*
X136280000Y-115310000D03*
X137550000Y-109595000D03*
X137550000Y-113405000D03*
X138820000Y-111500000D03*
X138820000Y-115310000D03*
X140090000Y-109595000D03*
X140090000Y-113405000D03*
D15*
X148090000Y-113405000D03*
X90180000Y-113405000D03*
D16*
X91000000Y-73500000D03*
X147000000Y-73500000D03*
X91000000Y-104000000D03*
X147000000Y-104000000D03*
D17*
X88538000Y-95400000D03*
X90062000Y-95400000D03*
X90062000Y-97200000D03*
X88538000Y-97200000D03*
D18*
X92700000Y-95262000D03*
X92700000Y-93738000D03*
X94500000Y-93738000D03*
X94500000Y-95262000D03*
D17*
X121562000Y-89800000D03*
X120038000Y-89800000D03*
X124312000Y-89800000D03*
X122788000Y-89800000D03*
X132862000Y-89800000D03*
X131338000Y-89800000D03*
D18*
X109300000Y-101138000D03*
X109300000Y-102662000D03*
X105500000Y-101138000D03*
X105500000Y-102662000D03*
X111300000Y-101138000D03*
X111300000Y-102662000D03*
X117950000Y-102738000D03*
X117950000Y-104262000D03*
X119750000Y-102738000D03*
X119750000Y-104262000D03*
D17*
X126962000Y-98200000D03*
X125438000Y-98200000D03*
X115862000Y-89800000D03*
X114338000Y-89800000D03*
X109762000Y-89800000D03*
X108238000Y-89800000D03*
X103938000Y-89800000D03*
X105462000Y-89800000D03*
X94362000Y-97200000D03*
X92838000Y-97200000D03*
X94362000Y-99000000D03*
X92838000Y-99000000D03*
D19*
X91100000Y-82070000D03*
D20*
X91100000Y-79530000D03*
D18*
X107400000Y-101138000D03*
X107400000Y-102662000D03*
D17*
X88538000Y-93600000D03*
X90062000Y-93600000D03*
D21*
X116500000Y-91700000D03*
X124800000Y-105150000D03*
X91400000Y-97100000D03*
X91250000Y-92800000D03*
X119750000Y-106400000D03*
X116277700Y-98881900D03*
X118300000Y-106400000D03*
X103500000Y-96200000D03*
X113384900Y-101146200D03*
X105500000Y-91400000D03*
X114500000Y-91200000D03*
X124499100Y-95463900D03*
X135050000Y-117200000D03*
X113200000Y-91050000D03*
X112400000Y-91850000D03*
X108619000Y-92546700D03*
X109773800Y-92548600D03*
X111499400Y-95505100D03*
X113501100Y-98724100D03*
X120400000Y-91300000D03*
X112800000Y-103350000D03*
X121550000Y-91300000D03*
X122750000Y-91300000D03*
X123900000Y-91350000D03*
X109600000Y-105500000D03*
X102000000Y-106450000D03*
X100900000Y-106950000D03*
X131338000Y-92515200D03*
X99900000Y-108000000D03*
X128603600Y-97699600D03*
X132850000Y-91900000D03*
D22*
X124800000Y-100000000D02*
X126400000Y-100000000D01*
X126962000Y-99438000D02*
X126962000Y-98200000D01*
X126400000Y-100000000D02*
X126962000Y-99438000D01*
X124800000Y-100850000D02*
X124800000Y-100000000D01*
X123400000Y-98600000D02*
X124800000Y-100000000D01*
X117050000Y-92250000D02*
X123400000Y-98600000D01*
X117050000Y-92250000D02*
X116500000Y-91700000D01*
X115862000Y-89800000D02*
X115862000Y-91062000D01*
X115862000Y-91062000D02*
X116500000Y-91700000D01*
X91250000Y-92800000D02*
X91250000Y-93450000D01*
X91538000Y-93738000D02*
X92700000Y-93738000D01*
X91250000Y-93450000D02*
X91538000Y-93738000D01*
X119750000Y-104262000D02*
X119750000Y-106400000D01*
X119770000Y-109595000D02*
X119770000Y-106420000D01*
X119770000Y-106420000D02*
X119750000Y-106400000D01*
X103938000Y-89800000D02*
X102500000Y-89800000D01*
X102500000Y-89800000D02*
X100100000Y-92200000D01*
X124800000Y-100850000D02*
X124800000Y-105150000D01*
X91400000Y-97100000D02*
X91400000Y-98450000D01*
X91950000Y-99000000D02*
X92838000Y-99000000D01*
X91400000Y-98450000D02*
X91950000Y-99000000D01*
X90062000Y-95400000D02*
X91050000Y-95400000D01*
X91400000Y-95750000D02*
X91400000Y-97100000D01*
X91050000Y-95400000D02*
X91400000Y-95750000D01*
X93300000Y-92200000D02*
X91850000Y-92200000D01*
X91500000Y-97200000D02*
X92838000Y-97200000D01*
X91400000Y-97100000D02*
X91500000Y-97200000D01*
X91850000Y-92200000D02*
X91250000Y-92800000D01*
X100100000Y-92200000D02*
X100100000Y-98674000D01*
X104088000Y-102662000D02*
X101150000Y-99724000D01*
X100100000Y-98674000D02*
X101150000Y-99724000D01*
X93300000Y-92200000D02*
X100100000Y-92200000D01*
X108340000Y-115310000D02*
X108360000Y-115310000D01*
X108360000Y-115310000D02*
X109750000Y-116700000D01*
X111250000Y-116700000D02*
X112150000Y-115800000D01*
X109750000Y-116700000D02*
X111250000Y-116700000D01*
X112150000Y-113405000D02*
X112150000Y-115800000D01*
X114570000Y-116700000D02*
X115960000Y-115310000D01*
X113050000Y-116700000D02*
X114570000Y-116700000D01*
X112150000Y-115800000D02*
X113050000Y-116700000D01*
X100720000Y-115310000D02*
X100720000Y-115320000D01*
X100720000Y-115320000D02*
X102100000Y-116700000D01*
X104110000Y-116700000D02*
X104530000Y-116280000D01*
X102100000Y-116700000D02*
X104110000Y-116700000D01*
X104530000Y-113405000D02*
X104530000Y-116280000D01*
X106950000Y-116700000D02*
X108340000Y-115310000D01*
X104950000Y-116700000D02*
X106950000Y-116700000D01*
X104530000Y-116280000D02*
X104950000Y-116700000D01*
X107400000Y-102662000D02*
X107400000Y-103750000D01*
X107070000Y-104080000D02*
X107070000Y-109595000D01*
X107400000Y-103750000D02*
X107070000Y-104080000D01*
X119750000Y-109575000D02*
X119770000Y-109595000D01*
X105500000Y-102662000D02*
X104088000Y-102662000D01*
X103260000Y-111500000D02*
X103260000Y-103490000D01*
X103260000Y-103490000D02*
X104088000Y-102662000D01*
X105500000Y-102662000D02*
X111300000Y-102662000D01*
X117600000Y-104262000D02*
X119600000Y-104262000D01*
X126120000Y-115310000D02*
X124738600Y-116691400D01*
X124738600Y-116691400D02*
X122421400Y-116691400D01*
X122421400Y-116691400D02*
X121040000Y-115310000D01*
X115960000Y-115310000D02*
X117341400Y-116691400D01*
X119658600Y-116691400D02*
X121040000Y-115310000D01*
X117341400Y-116691400D02*
X119658600Y-116691400D01*
D23*
X99450000Y-113405000D02*
X99450000Y-114040000D01*
D22*
X99450000Y-114040000D02*
X100720000Y-115310000D01*
X98180000Y-111500000D02*
X99450000Y-112770000D01*
D23*
X99450000Y-112770000D02*
X99450000Y-113405000D01*
D22*
X110880000Y-111500000D02*
X112150000Y-112770000D01*
D23*
X112150000Y-112770000D02*
X112150000Y-113405000D01*
D22*
X117950000Y-102700000D02*
X117950000Y-100554200D01*
X117950000Y-100554200D02*
X116277700Y-98881900D01*
X117600000Y-102694300D02*
X117950000Y-102700000D01*
X117600000Y-102738000D02*
X119600000Y-102738000D01*
X117600000Y-102716100D02*
X116650000Y-103650000D01*
X116650000Y-103650000D02*
X116650000Y-104750000D01*
X116650000Y-104750000D02*
X118300000Y-106400000D01*
D23*
X117600000Y-102716100D02*
X117600000Y-102694300D01*
D22*
X114690000Y-109595000D02*
X113420000Y-110865000D01*
D23*
X113420000Y-110865000D02*
X113420000Y-111500000D01*
D22*
X114690000Y-113405000D02*
X113420000Y-112135000D01*
D23*
X113420000Y-112135000D02*
X113420000Y-111500000D01*
X117600000Y-102738000D02*
X117600000Y-102716100D01*
X114690000Y-113405000D02*
X114690000Y-114040000D01*
D22*
X114690000Y-114040000D02*
X113420000Y-115310000D01*
X103500000Y-100500000D02*
X103500000Y-96200000D01*
X105500000Y-101138000D02*
X104138000Y-101138000D01*
X104138000Y-101138000D02*
X103500000Y-100500000D01*
X111300000Y-101138000D02*
X105500000Y-101138000D01*
X111300000Y-101138000D02*
X113376700Y-101138000D01*
X113376700Y-101138000D02*
X113384900Y-101146200D01*
X115960000Y-111500000D02*
X115960000Y-107433698D01*
X115960000Y-107433698D02*
X113900000Y-105376398D01*
X113900000Y-105376398D02*
X113900000Y-102945200D01*
X113900000Y-102945200D02*
X113384900Y-102427400D01*
X113384900Y-102427400D02*
X113384900Y-101146200D01*
D23*
X96600000Y-97900000D02*
X95900000Y-97200000D01*
X95900000Y-97200000D02*
X94362000Y-97200000D01*
X94500000Y-93738000D02*
X95588000Y-93738000D01*
X131800000Y-117250000D02*
X133740000Y-115310000D01*
X98413440Y-117250000D02*
X131800000Y-117250000D01*
X96600000Y-115436560D02*
X98413440Y-117250000D01*
X96600000Y-94750000D02*
X96600000Y-97900000D01*
X96600000Y-97900000D02*
X96600000Y-98200000D01*
X96600000Y-98200000D02*
X96600000Y-115436560D01*
X95588000Y-93738000D02*
X96600000Y-94750000D01*
X94286891Y-100025000D02*
X94286891Y-99075109D01*
X94286891Y-99075109D02*
X94362000Y-99000000D01*
X90062000Y-97200000D02*
X90062000Y-98703900D01*
X90062000Y-98703900D02*
X91311000Y-100027900D01*
X91311000Y-100027900D02*
X92377900Y-100027900D01*
X92377900Y-100027900D02*
X92700000Y-100025000D01*
X92700000Y-100025000D02*
X94286891Y-100025000D01*
X94286891Y-100025000D02*
X96100000Y-101855916D01*
X96100000Y-101855916D02*
X96100000Y-115606900D01*
X96100000Y-115606900D02*
X98491496Y-117998396D01*
X98491496Y-117998396D02*
X139299996Y-118000004D01*
X139299996Y-118000004D02*
X141475000Y-115825000D01*
X141475000Y-115825000D02*
X141475000Y-108825000D01*
X141475000Y-108825000D02*
X140643400Y-107987200D01*
X140643400Y-107987200D02*
X134502900Y-107987200D01*
X134502900Y-107987200D02*
X133725000Y-108775000D01*
X133725000Y-108775000D02*
X133740000Y-111500000D01*
X88538000Y-97200000D02*
X88538000Y-95400000D01*
X88188600Y-95400000D02*
X87739200Y-95400000D01*
X88538000Y-95400000D02*
X88188600Y-95400000D01*
X87739200Y-82890800D02*
X87739200Y-95400000D01*
X91100000Y-79530000D02*
X87739200Y-82890800D01*
X105462000Y-89800000D02*
X105462000Y-91362000D01*
X105462000Y-91362000D02*
X105500000Y-91400000D01*
X114338000Y-89800000D02*
X114338000Y-91038000D01*
X114338000Y-91038000D02*
X114500000Y-91200000D01*
X125438000Y-97247200D02*
X124499100Y-96308300D01*
X124499100Y-96308300D02*
X124499100Y-95463900D01*
X125438000Y-98200000D02*
X125438000Y-97247200D01*
X91100000Y-82070000D02*
X91100000Y-85714700D01*
X91100000Y-85714700D02*
X89704000Y-85714700D01*
X88538000Y-86880700D02*
X88538000Y-93600000D01*
X89704000Y-85714700D02*
X88538000Y-86880700D01*
X92496000Y-89885300D02*
X93981300Y-88400000D01*
X93981300Y-88400000D02*
X116300000Y-88400000D01*
X116300000Y-88400000D02*
X121386800Y-93486800D01*
X121386800Y-93486800D02*
X123720000Y-93486800D01*
X123720000Y-93486800D02*
X127660900Y-97427700D01*
X91100000Y-89885300D02*
X92496000Y-89885300D01*
X127660900Y-97427700D02*
X127660900Y-109324100D01*
X127660900Y-109324100D02*
X127390000Y-109595000D01*
D22*
X135050000Y-117200000D02*
X138900000Y-117200000D01*
X138900000Y-117200000D02*
X140300000Y-115825000D01*
X140300000Y-115825000D02*
X140290000Y-113205000D01*
D23*
X113200000Y-91050000D02*
X113200000Y-91750000D01*
X122310000Y-111190000D02*
X123550000Y-109950000D01*
X123550000Y-109950000D02*
X123550000Y-102100000D01*
X123550000Y-102100000D02*
X116700000Y-95250000D01*
X122310000Y-113405000D02*
X122310000Y-111190000D01*
X113200000Y-91750000D02*
X116700000Y-95250000D01*
X122310000Y-109595000D02*
X122300000Y-101700000D01*
X122300000Y-101700000D02*
X112400000Y-91850000D01*
X108238000Y-89800000D02*
X108238000Y-90600000D01*
X108238000Y-92165700D02*
X108619000Y-92546700D01*
X108238000Y-90600000D02*
X108238000Y-92165700D01*
X108619000Y-92546700D02*
X108619000Y-92666100D01*
X108619000Y-92666100D02*
X109929800Y-93976900D01*
X109929800Y-93976900D02*
X113804100Y-93976900D01*
X113804100Y-93976900D02*
X121040000Y-101212800D01*
X121040000Y-101212800D02*
X121040000Y-111500000D01*
X109762000Y-89800000D02*
X109762000Y-90600000D01*
X109762000Y-92536800D02*
X109773800Y-92548600D01*
X109762000Y-90600000D02*
X109762000Y-92536800D01*
X118500000Y-111500000D02*
X118498590Y-107798590D01*
X118498590Y-107798590D02*
X115171513Y-104471513D01*
X115171513Y-104471513D02*
X115172600Y-99178300D01*
X115172600Y-99178300D02*
X111499400Y-95505100D01*
X117230000Y-109595000D02*
X117240459Y-107290459D01*
X114561000Y-99784000D02*
X113501100Y-98724100D01*
X114568430Y-104618430D02*
X114561000Y-99784000D01*
X117240459Y-107290459D02*
X114568430Y-104618430D01*
X120038000Y-89800000D02*
X120038000Y-90888000D01*
X120038000Y-90888000D02*
X120400000Y-91300000D01*
X112150000Y-109595000D02*
X112150000Y-106225000D01*
X112150000Y-106225000D02*
X112807988Y-105647696D01*
X112807988Y-105647696D02*
X112800000Y-103350000D01*
X121562000Y-89800000D02*
X121562000Y-91288000D01*
X121562000Y-91288000D02*
X121550000Y-91300000D01*
X122788000Y-89800000D02*
X122788000Y-91262000D01*
X122788000Y-91262000D02*
X122750000Y-91300000D01*
X124312000Y-89800000D02*
X124312000Y-90938000D01*
X124312000Y-90938000D02*
X123900000Y-91350000D01*
X109600000Y-105500000D02*
X109610000Y-108552300D01*
X109610000Y-108552300D02*
X109610000Y-109595000D01*
X101990000Y-109595000D02*
X102000000Y-106450000D01*
X100720000Y-111500000D02*
X100700000Y-107100000D01*
X100650000Y-107050000D02*
X100850000Y-106900000D01*
X131338000Y-89800000D02*
X131338000Y-90600000D01*
X131338000Y-90600000D02*
X131338000Y-92515200D01*
X99900000Y-108000000D02*
X99150000Y-108000000D01*
X99150000Y-108000000D02*
X97074002Y-110075998D01*
X97074002Y-110075998D02*
X97074002Y-114204002D01*
X97074002Y-114204002D02*
X98180000Y-115310000D01*
X132862000Y-93441200D02*
X128603600Y-97699600D01*
X132850000Y-91900000D02*
X132862000Y-93441200D01*
X132862000Y-89800000D02*
X132862000Y-90600000D01*
X132862000Y-90600000D02*
X132850000Y-91900000D01*
X92700000Y-95262000D02*
X94500000Y-95262000D01*
X92700000Y-95262000D02*
X91712000Y-95262000D01*
X91400000Y-94938000D02*
X90062000Y-93600000D01*
X91400000Y-94950000D02*
X91400000Y-94938000D01*
X91712000Y-95262000D02*
X91400000Y-94950000D01*
X90062000Y-93600000D02*
X90062000Y-93624000D01*
M02*
