%FSLAX34Y34*%
G04 Gerber Fmt 3.4, Leading zero omitted, Abs format*
G04 (created by PCBNEW (2014-03-19 BZR 4756)-product) date Mo 06 Okt 2014 11:48:31 CEST*
%MOIN*%
G01*
G70*
G90*
G04 APERTURE LIST*
%ADD10C,0.005906*%
%ADD11R,0.023600X0.059100*%
G04 APERTURE END LIST*
G54D10*
X34251Y-27165D02*
X34251Y-26771D01*
X59448Y-27165D02*
X59448Y-26771D01*
X59448Y-27165D02*
X59448Y-47244D01*
X54330Y-26771D02*
X59448Y-26771D01*
X54330Y-34251D02*
X54330Y-26771D01*
X39370Y-34251D02*
X54330Y-34251D01*
X39370Y-26771D02*
X39370Y-34251D01*
X34251Y-26771D02*
X39370Y-26771D01*
X34251Y-47244D02*
X34251Y-27165D01*
X34251Y-47244D02*
X59448Y-47244D01*
G54D11*
X54527Y-37007D03*
X54133Y-37007D03*
X53740Y-37007D03*
X53346Y-37007D03*
X52952Y-37007D03*
X52559Y-37007D03*
X52165Y-37007D03*
X51771Y-37007D03*
X51378Y-37007D03*
X50984Y-37007D03*
X50590Y-37007D03*
X50196Y-37007D03*
X49803Y-37007D03*
X49409Y-37007D03*
X49015Y-37007D03*
X48622Y-37007D03*
X48228Y-37007D03*
X47834Y-37007D03*
X47441Y-37007D03*
X47047Y-37007D03*
X46653Y-37007D03*
X46259Y-37007D03*
X45866Y-37007D03*
X45472Y-37007D03*
X45078Y-37007D03*
X44685Y-37007D03*
X44291Y-37007D03*
X43897Y-37007D03*
X43504Y-37007D03*
X43110Y-37007D03*
X42716Y-37007D03*
X42322Y-37007D03*
X41929Y-37007D03*
X41535Y-37007D03*
X41141Y-37007D03*
X40748Y-37007D03*
X40354Y-37007D03*
X39960Y-37007D03*
X39567Y-37007D03*
X39173Y-37007D03*
M02*
