M48
;DRILL file {Pcbnew (2014-03-19 BZR 4756)-product} date Mo 06 Okt 2014 11:49:06 CEST
;FORMAT={-:-/ absolute / metric / decimal}
FMAT,2
METRIC,TZ
T1C0.635
T2C0.813
T3C0.860
T4C1.300
T5C2.770
T6C3.048
%
G90
G05
M71
T1
X102.98Y-106.968
X104.6Y-95.495
X104.762Y-92.534
X105.098Y-106.487
X108.619Y-92.547
X109.774Y-92.549
X111.139Y-91.843
X111.499Y-95.505
X112.719Y-105.444
X112.984Y-103.253
X113.385Y-101.146
X113.501Y-98.724
X114.338Y-92.544
X116.278Y-98.882
X117.291Y-106.846
X120.212Y-92.342
X121.378Y-92.44
X122.542Y-92.517
X124.203Y-92.432
X124.499Y-95.464
X128.604Y-97.7
X131.338Y-92.515
X132.862Y-92.525
X135.429Y-117.273
T2
X91.1Y-79.53
X91.1Y-82.07
T3
X98.18Y-111.5
X98.18Y-115.31
X99.45Y-109.595
X99.45Y-113.405
X100.72Y-111.5
X100.72Y-115.31
X101.99Y-109.595
X101.99Y-113.405
X103.26Y-111.5
X103.26Y-115.31
X104.53Y-109.595
X104.53Y-113.405
X105.8Y-111.5
X105.8Y-115.31
X107.07Y-109.595
X107.07Y-113.405
X108.34Y-111.5
X108.34Y-115.31
X109.61Y-109.595
X109.61Y-113.405
X110.88Y-111.5
X110.88Y-115.31
X112.15Y-109.595
X112.15Y-113.405
X113.42Y-111.5
X113.42Y-115.31
X114.69Y-109.595
X114.69Y-113.405
X115.96Y-111.5
X115.96Y-115.31
X117.23Y-109.595
X117.23Y-113.405
X118.5Y-111.5
X118.5Y-115.31
X119.77Y-109.595
X119.77Y-113.405
X121.04Y-111.5
X121.04Y-115.31
X122.31Y-109.595
X122.31Y-113.405
X123.58Y-111.5
X123.58Y-115.31
X124.85Y-109.595
X124.85Y-113.405
X126.12Y-111.5
X126.12Y-115.31
X127.39Y-109.595
X127.39Y-113.405
X128.66Y-111.5
X128.66Y-115.31
X129.93Y-109.595
X129.93Y-113.405
X131.2Y-111.5
X131.2Y-115.31
X132.47Y-109.595
X132.47Y-113.405
X133.74Y-111.5
X133.74Y-115.31
X135.01Y-109.595
X135.01Y-113.405
X136.28Y-111.5
X136.28Y-115.31
X137.55Y-109.595
X137.55Y-113.405
X138.82Y-111.5
X138.82Y-115.31
X140.09Y-109.595
X140.09Y-113.405
T0
M30
