%FSLAX34Y34*%
G04 Gerber Fmt 3.4, Leading zero omitted, Abs format*
G04 (created by PCBNEW (2014-03-19 BZR 4756)-product) date Mo 06 Okt 2014 11:48:31 CEST*
%MOIN*%
G01*
G70*
G90*
G04 APERTURE LIST*
%ADD10C,0.005906*%
%ADD11C,0.059055*%
%ADD12C,0.118110*%
%ADD13C,0.160000*%
%ADD14R,0.023600X0.059100*%
%ADD15C,0.051200*%
%ADD16R,0.055000X0.055000*%
%ADD17C,0.055000*%
%ADD18C,0.035000*%
%ADD19C,0.010000*%
G04 APERTURE END LIST*
G54D10*
X34251Y-27165D02*
X34251Y-26771D01*
X59448Y-27165D02*
X59448Y-26771D01*
X59448Y-27165D02*
X59448Y-47244D01*
X54330Y-26771D02*
X59448Y-26771D01*
X54330Y-34251D02*
X54330Y-26771D01*
X39370Y-34251D02*
X54330Y-34251D01*
X39370Y-26771D02*
X39370Y-34251D01*
X34251Y-26771D02*
X39370Y-26771D01*
X34251Y-47244D02*
X34251Y-27165D01*
X34251Y-47244D02*
X59448Y-47244D01*
G54D11*
X38653Y-43897D03*
X38653Y-45397D03*
X39153Y-43147D03*
X39153Y-44647D03*
X39653Y-43897D03*
X39653Y-45397D03*
X40153Y-43147D03*
X40153Y-44647D03*
X40653Y-43897D03*
X40653Y-45397D03*
X41153Y-43147D03*
X41153Y-44647D03*
X41653Y-43897D03*
X41653Y-45397D03*
X42153Y-43147D03*
X42153Y-44647D03*
X42653Y-43897D03*
X42653Y-45397D03*
X43153Y-43147D03*
X43153Y-44647D03*
X43653Y-43897D03*
X43653Y-45397D03*
X44153Y-43147D03*
X44153Y-44647D03*
X44653Y-43897D03*
X44653Y-45397D03*
X45153Y-43147D03*
X45153Y-44647D03*
X45653Y-43897D03*
X45653Y-45397D03*
X46153Y-43147D03*
X46153Y-44647D03*
X46653Y-43897D03*
X46653Y-45397D03*
X47153Y-43147D03*
X47153Y-44647D03*
X47653Y-43897D03*
X47653Y-45397D03*
X48153Y-43147D03*
X48153Y-44647D03*
X48653Y-43897D03*
X48653Y-45397D03*
X49153Y-43147D03*
X49153Y-44647D03*
X49653Y-43897D03*
X49653Y-45397D03*
X50153Y-43147D03*
X50153Y-44647D03*
X50653Y-43897D03*
X50653Y-45397D03*
X51153Y-43147D03*
X51153Y-44647D03*
X51653Y-43897D03*
X51653Y-45397D03*
X52153Y-43147D03*
X52153Y-44647D03*
X52653Y-43897D03*
X52653Y-45397D03*
X53153Y-43147D03*
X53153Y-44647D03*
X53653Y-43897D03*
X53653Y-45397D03*
X54153Y-43147D03*
X54153Y-44647D03*
X54653Y-43897D03*
X54653Y-45397D03*
X55153Y-43147D03*
X55153Y-44647D03*
G54D12*
X58303Y-44647D03*
X35503Y-44647D03*
G54D13*
X35826Y-28937D03*
X57874Y-28937D03*
X35826Y-40944D03*
X57874Y-40944D03*
G54D14*
X54527Y-37007D03*
G54D15*
X38385Y-27558D03*
X55314Y-27558D03*
G54D14*
X54133Y-37007D03*
X53740Y-37007D03*
X53346Y-37007D03*
X52952Y-37007D03*
X52559Y-37007D03*
X52165Y-37007D03*
X51771Y-37007D03*
X51378Y-37007D03*
X50984Y-37007D03*
X50590Y-37007D03*
X50196Y-37007D03*
X49803Y-37007D03*
X49409Y-37007D03*
X49015Y-37007D03*
X48622Y-37007D03*
X48228Y-37007D03*
X47834Y-37007D03*
X47441Y-37007D03*
X47047Y-37007D03*
X46653Y-37007D03*
X46259Y-37007D03*
X45866Y-37007D03*
X45472Y-37007D03*
X45078Y-37007D03*
X44685Y-37007D03*
X44291Y-37007D03*
X43897Y-37007D03*
X43504Y-37007D03*
X43110Y-37007D03*
X42716Y-37007D03*
X42322Y-37007D03*
X41929Y-37007D03*
X41535Y-37007D03*
X41141Y-37007D03*
X40748Y-37007D03*
X40354Y-37007D03*
X39960Y-37007D03*
X39567Y-37007D03*
X39173Y-37007D03*
G54D16*
X35866Y-32311D03*
G54D17*
X35866Y-31311D03*
G54D18*
X46177Y-42065D03*
X45778Y-38929D03*
X41181Y-37596D03*
X44639Y-39821D03*
X41244Y-36430D03*
X45014Y-36434D03*
X49015Y-37584D03*
X53318Y-46170D03*
X43755Y-36158D03*
X42763Y-36435D03*
X43218Y-36436D03*
X43897Y-37600D03*
X44685Y-38867D03*
X44481Y-40650D03*
X47327Y-36355D03*
X47786Y-36393D03*
X48245Y-36423D03*
X44377Y-41513D03*
X48898Y-36390D03*
X41377Y-41924D03*
X40543Y-42113D03*
X51707Y-36423D03*
X52307Y-36427D03*
X50631Y-38464D03*
G54D19*
X52952Y-37007D02*
X52952Y-36829D01*
X52952Y-36829D02*
X52952Y-36562D01*
X52737Y-36829D02*
X52559Y-37007D01*
X52952Y-36829D02*
X52737Y-36829D01*
X53153Y-45534D02*
X53153Y-44647D01*
X50101Y-45845D02*
X49653Y-45397D01*
X52843Y-45845D02*
X50101Y-45845D01*
X53153Y-45534D02*
X52843Y-45845D01*
X47599Y-42702D02*
X47153Y-43147D01*
X48346Y-42702D02*
X47599Y-42702D01*
X48653Y-43009D02*
X48346Y-42702D01*
X48653Y-43897D02*
X48653Y-43009D01*
X41153Y-44397D02*
X40653Y-43897D01*
X41153Y-44647D02*
X41153Y-44397D01*
X40354Y-37007D02*
X40354Y-36562D01*
X41084Y-35832D02*
X40354Y-36562D01*
X44884Y-35832D02*
X41084Y-35832D01*
X45472Y-36420D02*
X44884Y-35832D01*
X45472Y-36562D02*
X45472Y-36420D01*
X39567Y-37453D02*
X39960Y-37453D01*
X39567Y-37007D02*
X39567Y-37453D01*
X39960Y-37007D02*
X39960Y-37367D01*
X39960Y-37367D02*
X39960Y-37453D01*
X40046Y-37453D02*
X40354Y-37453D01*
X39960Y-37367D02*
X40046Y-37453D01*
X40354Y-37007D02*
X40354Y-37453D01*
X45472Y-37007D02*
X45472Y-36785D01*
X45472Y-36785D02*
X45472Y-36562D01*
X45866Y-37007D02*
X45866Y-36612D01*
X50196Y-37007D02*
X50196Y-36562D01*
X45645Y-36612D02*
X45866Y-36612D01*
X45472Y-36785D02*
X45645Y-36612D01*
X49661Y-36027D02*
X50196Y-36562D01*
X46451Y-36027D02*
X49661Y-36027D01*
X45866Y-36612D02*
X46451Y-36027D01*
X53674Y-46055D02*
X53153Y-45534D01*
X54922Y-46055D02*
X53674Y-46055D01*
X55807Y-45171D02*
X54922Y-46055D01*
X55807Y-37653D02*
X55807Y-45171D01*
X54716Y-36562D02*
X55807Y-37653D01*
X52952Y-36562D02*
X54716Y-36562D01*
X50672Y-36086D02*
X50196Y-36562D01*
X52476Y-36086D02*
X50672Y-36086D01*
X52952Y-36562D02*
X52476Y-36086D01*
X46653Y-37007D02*
X46653Y-37453D01*
X47047Y-37007D02*
X47047Y-37453D01*
X46653Y-37453D02*
X47047Y-37453D01*
X46177Y-42123D02*
X46177Y-42065D01*
X45153Y-43147D02*
X46177Y-42123D01*
X46653Y-38055D02*
X45778Y-38929D01*
X46653Y-37453D02*
X46653Y-38055D01*
X49153Y-44897D02*
X48653Y-45397D01*
X49153Y-44647D02*
X49153Y-44897D01*
X40748Y-37453D02*
X41141Y-37453D01*
X40748Y-37049D02*
X40748Y-37453D01*
X41141Y-37453D02*
X41141Y-37007D01*
X41141Y-37556D02*
X41141Y-37453D01*
X41181Y-37596D02*
X41141Y-37556D01*
X40748Y-37049D02*
X40748Y-37007D01*
X46259Y-37818D02*
X46259Y-37007D01*
X44639Y-39437D02*
X46259Y-37818D01*
X44639Y-39821D02*
X44639Y-39437D01*
X48507Y-42501D02*
X49153Y-43147D01*
X46165Y-42501D02*
X48507Y-42501D01*
X45653Y-43014D02*
X46165Y-42501D01*
X45653Y-43897D02*
X45653Y-43014D01*
X49653Y-44147D02*
X49653Y-43897D01*
X49153Y-44647D02*
X49653Y-44147D01*
X49653Y-43647D02*
X49153Y-43147D01*
X49653Y-43897D02*
X49653Y-43647D01*
X54133Y-42167D02*
X53153Y-43147D01*
X54133Y-37007D02*
X54133Y-42167D01*
X41535Y-37007D02*
X41535Y-36562D01*
X41376Y-36562D02*
X41244Y-36430D01*
X41535Y-36562D02*
X41376Y-36562D01*
X45078Y-37007D02*
X45078Y-36562D01*
X45078Y-36497D02*
X45014Y-36434D01*
X45078Y-36562D02*
X45078Y-36497D01*
X49015Y-37007D02*
X49015Y-37453D01*
X49015Y-37453D02*
X49015Y-37584D01*
X39173Y-37007D02*
X39173Y-36562D01*
X40103Y-35631D02*
X39173Y-36562D01*
X54096Y-35631D02*
X40103Y-35631D01*
X56007Y-37542D02*
X54096Y-35631D01*
X56007Y-45279D02*
X56007Y-37542D01*
X55014Y-46272D02*
X56007Y-45279D01*
X53420Y-46272D02*
X55014Y-46272D01*
X53318Y-46170D02*
X53420Y-46272D01*
X41929Y-37007D02*
X41929Y-37453D01*
X48153Y-45541D02*
X48153Y-44647D01*
X46619Y-47075D02*
X48153Y-45541D01*
X38003Y-47075D02*
X46619Y-47075D01*
X36788Y-45860D02*
X38003Y-47075D01*
X36788Y-42594D02*
X36788Y-45860D01*
X41929Y-37453D02*
X36788Y-42594D01*
X42322Y-37007D02*
X42322Y-36562D01*
X43685Y-36088D02*
X43755Y-36158D01*
X42650Y-36088D02*
X43685Y-36088D01*
X42322Y-36416D02*
X42650Y-36088D01*
X42322Y-36562D02*
X42322Y-36416D01*
X42716Y-36482D02*
X42763Y-36435D01*
X42716Y-37007D02*
X42716Y-36482D01*
X43110Y-37230D02*
X43110Y-37453D01*
X43110Y-37230D02*
X43110Y-37007D01*
X43110Y-37007D02*
X43110Y-36562D01*
X47153Y-45555D02*
X47153Y-44647D01*
X45833Y-46875D02*
X47153Y-45555D01*
X38086Y-46875D02*
X45833Y-46875D01*
X36988Y-45777D02*
X38086Y-46875D01*
X36988Y-42939D02*
X36988Y-45777D01*
X42475Y-37453D02*
X36988Y-42939D01*
X43110Y-37453D02*
X42475Y-37453D01*
X43110Y-36544D02*
X43218Y-36436D01*
X43110Y-36562D02*
X43110Y-36544D01*
X43504Y-37007D02*
X43504Y-37453D01*
X45375Y-46675D02*
X46653Y-45397D01*
X38169Y-46675D02*
X45375Y-46675D01*
X37188Y-45695D02*
X38169Y-46675D01*
X37188Y-43022D02*
X37188Y-45695D01*
X39931Y-40280D02*
X37188Y-43022D01*
X40677Y-40280D02*
X39931Y-40280D01*
X43504Y-37453D02*
X40677Y-40280D01*
X43897Y-37007D02*
X43897Y-37600D01*
X46153Y-45534D02*
X46153Y-44647D01*
X45212Y-46475D02*
X46153Y-45534D01*
X38252Y-46475D02*
X45212Y-46475D01*
X37389Y-45612D02*
X38252Y-46475D01*
X37389Y-43105D02*
X37389Y-45612D01*
X40002Y-40492D02*
X37389Y-43105D01*
X41465Y-40492D02*
X40002Y-40492D01*
X44291Y-37667D02*
X41465Y-40492D01*
X44291Y-37007D02*
X44291Y-37667D01*
X44685Y-37453D02*
X44685Y-38867D01*
X44685Y-37453D02*
X44685Y-37453D01*
X44685Y-37007D02*
X44685Y-37453D01*
X47441Y-37730D02*
X47441Y-37007D01*
X44521Y-40650D02*
X47441Y-37730D01*
X44481Y-40650D02*
X44521Y-40650D01*
X47441Y-36469D02*
X47327Y-36355D01*
X47441Y-37007D02*
X47441Y-36469D01*
X47834Y-36441D02*
X47834Y-37007D01*
X47786Y-36393D02*
X47834Y-36441D01*
X47834Y-37007D02*
X47834Y-37453D01*
X42776Y-46275D02*
X43653Y-45397D01*
X38334Y-46275D02*
X42776Y-46275D01*
X37589Y-45529D02*
X38334Y-46275D01*
X37589Y-43188D02*
X37589Y-45529D01*
X39801Y-40976D02*
X37589Y-43188D01*
X44635Y-40976D02*
X39801Y-40976D01*
X47834Y-37776D02*
X44635Y-40976D01*
X47834Y-37453D02*
X47834Y-37776D01*
X48228Y-36440D02*
X48228Y-37007D01*
X48245Y-36423D02*
X48228Y-36440D01*
X48228Y-37007D02*
X48228Y-37453D01*
X43153Y-45534D02*
X43153Y-44647D01*
X42629Y-46057D02*
X43153Y-45534D01*
X38400Y-46057D02*
X42629Y-46057D01*
X37789Y-45446D02*
X38400Y-46057D01*
X37789Y-43271D02*
X37789Y-45446D01*
X39884Y-41176D02*
X37789Y-43271D01*
X44747Y-41176D02*
X39884Y-41176D01*
X48228Y-37695D02*
X44747Y-41176D01*
X48228Y-37453D02*
X48228Y-37695D01*
X48622Y-37585D02*
X48622Y-37007D01*
X44694Y-41513D02*
X48622Y-37585D01*
X44377Y-41513D02*
X44694Y-41513D01*
X48727Y-36562D02*
X48898Y-36390D01*
X48622Y-36562D02*
X48727Y-36562D01*
X48622Y-37007D02*
X48622Y-36562D01*
X40153Y-45530D02*
X40153Y-44647D01*
X39826Y-45857D02*
X40153Y-45530D01*
X38483Y-45857D02*
X39826Y-45857D01*
X37989Y-45363D02*
X38483Y-45857D01*
X37989Y-43385D02*
X37989Y-45363D01*
X39797Y-41577D02*
X37989Y-43385D01*
X42648Y-41577D02*
X39797Y-41577D01*
X42921Y-41850D02*
X42648Y-41577D01*
X44732Y-41850D02*
X42921Y-41850D01*
X48290Y-38292D02*
X44732Y-41850D01*
X49568Y-38292D02*
X48290Y-38292D01*
X50590Y-37270D02*
X49568Y-38292D01*
X50590Y-37007D02*
X50590Y-37270D01*
X41503Y-42050D02*
X41377Y-41924D01*
X44815Y-42050D02*
X41503Y-42050D01*
X46119Y-40746D02*
X44815Y-42050D01*
X47485Y-40746D02*
X46119Y-40746D01*
X50984Y-37247D02*
X47485Y-40746D01*
X50984Y-37007D02*
X50984Y-37247D01*
X51378Y-37007D02*
X51378Y-37453D01*
X40680Y-42250D02*
X40543Y-42113D01*
X44898Y-42250D02*
X40680Y-42250D01*
X46202Y-40946D02*
X44898Y-42250D01*
X47582Y-40946D02*
X46202Y-40946D01*
X51076Y-37453D02*
X47582Y-40946D01*
X51378Y-37453D02*
X51076Y-37453D01*
X51707Y-36498D02*
X51707Y-36423D01*
X51771Y-36562D02*
X51707Y-36498D01*
X51771Y-36785D02*
X51771Y-36562D01*
X51771Y-36785D02*
X51771Y-37007D01*
X39650Y-42650D02*
X39153Y-43147D01*
X45131Y-42650D02*
X39650Y-42650D01*
X46209Y-41572D02*
X45131Y-42650D01*
X47988Y-41572D02*
X46209Y-41572D01*
X51771Y-37790D02*
X47988Y-41572D01*
X51771Y-37007D02*
X51771Y-37790D01*
X52172Y-36562D02*
X52307Y-36427D01*
X52165Y-36562D02*
X52172Y-36562D01*
X52165Y-37007D02*
X52165Y-36562D01*
X38207Y-44951D02*
X38653Y-45397D01*
X38207Y-43459D02*
X38207Y-44951D01*
X39216Y-42450D02*
X38207Y-43459D01*
X44981Y-42450D02*
X39216Y-42450D01*
X46109Y-41322D02*
X44981Y-42450D01*
X47772Y-41322D02*
X46109Y-41322D01*
X50631Y-38464D02*
X47772Y-41322D01*
X54527Y-37007D02*
X54527Y-37453D01*
X54153Y-45558D02*
X54153Y-44647D01*
X54445Y-45850D02*
X54153Y-45558D01*
X54837Y-45850D02*
X54445Y-45850D01*
X55602Y-45084D02*
X54837Y-45850D01*
X55602Y-38528D02*
X55602Y-45084D01*
X54527Y-37453D02*
X55602Y-38528D01*
M02*
