%FSLAX46Y46*%
G04 Gerber Fmt 4.6, Leading zero omitted, Abs format (unit mm)*
G04 Created by KiCad (PCBNEW (2014-10-13 BZR 5186)-product) date Do 16 Okt 2014 16:40:25 CEST*
%MOMM*%
G01*
G04 APERTURE LIST*
%ADD10C,0.150000*%
%ADD11C,0.250000*%
%ADD12C,1.500000*%
%ADD13R,2.029460X2.651760*%
%ADD14R,0.635000X1.143000*%
%ADD15R,1.143000X0.635000*%
G04 APERTURE END LIST*
D10*
D11*
X150823810Y-53954762D02*
X150823810Y-51954762D01*
X150347619Y-51954762D01*
X150061905Y-52050000D01*
X149871429Y-52240476D01*
X149776190Y-52430952D01*
X149680952Y-52811905D01*
X149680952Y-53097619D01*
X149776190Y-53478571D01*
X149871429Y-53669048D01*
X150061905Y-53859524D01*
X150347619Y-53954762D01*
X150823810Y-53954762D01*
X148823810Y-52907143D02*
X148157143Y-52907143D01*
X147871429Y-53954762D02*
X148823810Y-53954762D01*
X148823810Y-51954762D01*
X147871429Y-51954762D01*
X147109524Y-53859524D02*
X146823809Y-53954762D01*
X146347619Y-53954762D01*
X146157143Y-53859524D01*
X146061905Y-53764286D01*
X145966666Y-53573810D01*
X145966666Y-53383333D01*
X146061905Y-53192857D01*
X146157143Y-53097619D01*
X146347619Y-53002381D01*
X146728571Y-52907143D01*
X146919047Y-52811905D01*
X147014286Y-52716667D01*
X147109524Y-52526190D01*
X147109524Y-52335714D01*
X147014286Y-52145238D01*
X146919047Y-52050000D01*
X146728571Y-51954762D01*
X146252381Y-51954762D01*
X145966666Y-52050000D01*
X144728571Y-53002381D02*
X144728571Y-53954762D01*
X145395238Y-51954762D02*
X144728571Y-53002381D01*
X144061904Y-51954762D01*
X141204761Y-52907143D02*
X141871428Y-52907143D01*
X141871428Y-53954762D02*
X141871428Y-51954762D01*
X140919047Y-51954762D01*
X140157142Y-53954762D02*
X140157142Y-51954762D01*
X140157142Y-52907143D02*
X139014284Y-52907143D01*
X139014284Y-53954762D02*
X139014284Y-51954762D01*
X138061904Y-53192857D02*
X136538094Y-53192857D01*
X134442856Y-53764286D02*
X134538094Y-53859524D01*
X134823809Y-53954762D01*
X135014285Y-53954762D01*
X135299999Y-53859524D01*
X135490475Y-53669048D01*
X135585714Y-53478571D01*
X135680952Y-53097619D01*
X135680952Y-52811905D01*
X135585714Y-52430952D01*
X135490475Y-52240476D01*
X135299999Y-52050000D01*
X135014285Y-51954762D01*
X134823809Y-51954762D01*
X134538094Y-52050000D01*
X134442856Y-52145238D01*
X133585714Y-53954762D02*
X133585714Y-51954762D01*
X132919047Y-53383333D01*
X132252380Y-51954762D01*
X132252380Y-53954762D01*
X131395238Y-53859524D02*
X131109523Y-53954762D01*
X130633333Y-53954762D01*
X130442857Y-53859524D01*
X130347619Y-53764286D01*
X130252380Y-53573810D01*
X130252380Y-53383333D01*
X130347619Y-53192857D01*
X130442857Y-53097619D01*
X130633333Y-53002381D01*
X131014285Y-52907143D01*
X131204761Y-52811905D01*
X131300000Y-52716667D01*
X131395238Y-52526190D01*
X131395238Y-52335714D01*
X131300000Y-52145238D01*
X131204761Y-52050000D01*
X131014285Y-51954762D01*
X130538095Y-51954762D01*
X130252380Y-52050000D01*
X149776190Y-57004762D02*
X150919048Y-57004762D01*
X150347619Y-57004762D02*
X150347619Y-55004762D01*
X150538095Y-55290476D01*
X150728571Y-55480952D01*
X150919048Y-55576190D01*
X148538095Y-55004762D02*
X148347619Y-55004762D01*
X148157143Y-55100000D01*
X148061905Y-55195238D01*
X147966667Y-55385714D01*
X147871428Y-55766667D01*
X147871428Y-56242857D01*
X147966667Y-56623810D01*
X148061905Y-56814286D01*
X148157143Y-56909524D01*
X148347619Y-57004762D01*
X148538095Y-57004762D01*
X148728571Y-56909524D01*
X148823809Y-56814286D01*
X148919048Y-56623810D01*
X149014286Y-56242857D01*
X149014286Y-55766667D01*
X148919048Y-55385714D01*
X148823809Y-55195238D01*
X148728571Y-55100000D01*
X148538095Y-55004762D01*
X147204762Y-55004762D02*
X145871428Y-55004762D01*
X146728571Y-57004762D01*
X144252381Y-55004762D02*
X144633333Y-55004762D01*
X144823809Y-55100000D01*
X144919047Y-55195238D01*
X145109524Y-55480952D01*
X145204762Y-55861905D01*
X145204762Y-56623810D01*
X145109524Y-56814286D01*
X145014285Y-56909524D01*
X144823809Y-57004762D01*
X144442857Y-57004762D01*
X144252381Y-56909524D01*
X144157143Y-56814286D01*
X144061904Y-56623810D01*
X144061904Y-56147619D01*
X144157143Y-55957143D01*
X144252381Y-55861905D01*
X144442857Y-55766667D01*
X144823809Y-55766667D01*
X145014285Y-55861905D01*
X145109524Y-55957143D01*
X145204762Y-56147619D01*
X142347619Y-55004762D02*
X142728571Y-55004762D01*
X142919047Y-55100000D01*
X143014285Y-55195238D01*
X143204762Y-55480952D01*
X143300000Y-55861905D01*
X143300000Y-56623810D01*
X143204762Y-56814286D01*
X143109523Y-56909524D01*
X142919047Y-57004762D01*
X142538095Y-57004762D01*
X142347619Y-56909524D01*
X142252381Y-56814286D01*
X142157142Y-56623810D01*
X142157142Y-56147619D01*
X142252381Y-55957143D01*
X142347619Y-55861905D01*
X142538095Y-55766667D01*
X142919047Y-55766667D01*
X143109523Y-55861905D01*
X143204762Y-55957143D01*
X143300000Y-56147619D01*
X141300000Y-56242857D02*
X139776190Y-56242857D01*
X138442857Y-55004762D02*
X138252381Y-55004762D01*
X138061905Y-55100000D01*
X137966667Y-55195238D01*
X137871429Y-55385714D01*
X137776190Y-55766667D01*
X137776190Y-56242857D01*
X137871429Y-56623810D01*
X137966667Y-56814286D01*
X138061905Y-56909524D01*
X138252381Y-57004762D01*
X138442857Y-57004762D01*
X138633333Y-56909524D01*
X138728571Y-56814286D01*
X138823810Y-56623810D01*
X138919048Y-56242857D01*
X138919048Y-55766667D01*
X138823810Y-55385714D01*
X138728571Y-55195238D01*
X138633333Y-55100000D01*
X138442857Y-55004762D01*
X136538095Y-55004762D02*
X136347619Y-55004762D01*
X136157143Y-55100000D01*
X136061905Y-55195238D01*
X135966667Y-55385714D01*
X135871428Y-55766667D01*
X135871428Y-56242857D01*
X135966667Y-56623810D01*
X136061905Y-56814286D01*
X136157143Y-56909524D01*
X136347619Y-57004762D01*
X136538095Y-57004762D01*
X136728571Y-56909524D01*
X136823809Y-56814286D01*
X136919048Y-56623810D01*
X137014286Y-56242857D01*
X137014286Y-55766667D01*
X136919048Y-55385714D01*
X136823809Y-55195238D01*
X136728571Y-55100000D01*
X136538095Y-55004762D01*
X135014286Y-56242857D02*
X133490476Y-56242857D01*
X132633334Y-56909524D02*
X132347619Y-57004762D01*
X131871429Y-57004762D01*
X131680953Y-56909524D01*
X131585715Y-56814286D01*
X131490476Y-56623810D01*
X131490476Y-56433333D01*
X131585715Y-56242857D01*
X131680953Y-56147619D01*
X131871429Y-56052381D01*
X132252381Y-55957143D01*
X132442857Y-55861905D01*
X132538096Y-55766667D01*
X132633334Y-55576190D01*
X132633334Y-55385714D01*
X132538096Y-55195238D01*
X132442857Y-55100000D01*
X132252381Y-55004762D01*
X131776191Y-55004762D01*
X131490476Y-55100000D01*
X130633334Y-57004762D02*
X130633334Y-55004762D01*
X129966667Y-56433333D01*
X129300000Y-55004762D01*
X129300000Y-57004762D01*
X128347620Y-57004762D02*
X128347620Y-55004762D01*
X127871429Y-55004762D01*
X127585715Y-55100000D01*
X127395239Y-55290476D01*
X127300000Y-55480952D01*
X127204762Y-55861905D01*
X127204762Y-56147619D01*
X127300000Y-56528571D01*
X127395239Y-56719048D01*
X127585715Y-56909524D01*
X127871429Y-57004762D01*
X128347620Y-57004762D01*
X126442858Y-55195238D02*
X126347620Y-55100000D01*
X126157143Y-55004762D01*
X125680953Y-55004762D01*
X125490477Y-55100000D01*
X125395239Y-55195238D01*
X125300000Y-55385714D01*
X125300000Y-55576190D01*
X125395239Y-55861905D01*
X126538096Y-57004762D01*
X125300000Y-57004762D01*
X150919048Y-59959524D02*
X150633333Y-60054762D01*
X150157143Y-60054762D01*
X149966667Y-59959524D01*
X149871429Y-59864286D01*
X149776190Y-59673810D01*
X149776190Y-59483333D01*
X149871429Y-59292857D01*
X149966667Y-59197619D01*
X150157143Y-59102381D01*
X150538095Y-59007143D01*
X150728571Y-58911905D01*
X150823810Y-58816667D01*
X150919048Y-58626190D01*
X150919048Y-58435714D01*
X150823810Y-58245238D01*
X150728571Y-58150000D01*
X150538095Y-58054762D01*
X150061905Y-58054762D01*
X149776190Y-58150000D01*
X148633333Y-60054762D02*
X148823809Y-59959524D01*
X148919048Y-59864286D01*
X149014286Y-59673810D01*
X149014286Y-59102381D01*
X148919048Y-58911905D01*
X148823809Y-58816667D01*
X148633333Y-58721429D01*
X148347619Y-58721429D01*
X148157143Y-58816667D01*
X148061905Y-58911905D01*
X147966667Y-59102381D01*
X147966667Y-59673810D01*
X148061905Y-59864286D01*
X148157143Y-59959524D01*
X148347619Y-60054762D01*
X148633333Y-60054762D01*
X146823809Y-60054762D02*
X147014285Y-59959524D01*
X147109524Y-59769048D01*
X147109524Y-58054762D01*
X145204762Y-60054762D02*
X145204762Y-58054762D01*
X145204762Y-59959524D02*
X145395238Y-60054762D01*
X145776190Y-60054762D01*
X145966666Y-59959524D01*
X146061905Y-59864286D01*
X146157143Y-59673810D01*
X146157143Y-59102381D01*
X146061905Y-58911905D01*
X145966666Y-58816667D01*
X145776190Y-58721429D01*
X145395238Y-58721429D01*
X145204762Y-58816667D01*
X143490476Y-59959524D02*
X143680952Y-60054762D01*
X144061904Y-60054762D01*
X144252381Y-59959524D01*
X144347619Y-59769048D01*
X144347619Y-59007143D01*
X144252381Y-58816667D01*
X144061904Y-58721429D01*
X143680952Y-58721429D01*
X143490476Y-58816667D01*
X143395238Y-59007143D01*
X143395238Y-59197619D01*
X144347619Y-59388095D01*
X142538095Y-60054762D02*
X142538095Y-58721429D01*
X142538095Y-59102381D02*
X142442856Y-58911905D01*
X142347618Y-58816667D01*
X142157142Y-58721429D01*
X141966666Y-58721429D01*
X139776190Y-60054762D02*
X139776190Y-58054762D01*
X139014285Y-58054762D01*
X138823809Y-58150000D01*
X138728570Y-58245238D01*
X138633332Y-58435714D01*
X138633332Y-58721429D01*
X138728570Y-58911905D01*
X138823809Y-59007143D01*
X139014285Y-59102381D01*
X139776190Y-59102381D01*
X136919047Y-60054762D02*
X136919047Y-59007143D01*
X137014285Y-58816667D01*
X137204761Y-58721429D01*
X137585713Y-58721429D01*
X137776190Y-58816667D01*
X136919047Y-59959524D02*
X137109523Y-60054762D01*
X137585713Y-60054762D01*
X137776190Y-59959524D01*
X137871428Y-59769048D01*
X137871428Y-59578571D01*
X137776190Y-59388095D01*
X137585713Y-59292857D01*
X137109523Y-59292857D01*
X136919047Y-59197619D01*
X136061904Y-59959524D02*
X135871427Y-60054762D01*
X135490475Y-60054762D01*
X135299999Y-59959524D01*
X135204761Y-59769048D01*
X135204761Y-59673810D01*
X135299999Y-59483333D01*
X135490475Y-59388095D01*
X135776189Y-59388095D01*
X135966666Y-59292857D01*
X136061904Y-59102381D01*
X136061904Y-59007143D01*
X135966666Y-58816667D01*
X135776189Y-58721429D01*
X135490475Y-58721429D01*
X135299999Y-58816667D01*
X134633332Y-58721429D02*
X133871427Y-58721429D01*
X134347618Y-58054762D02*
X134347618Y-59769048D01*
X134252379Y-59959524D01*
X134061903Y-60054762D01*
X133871427Y-60054762D01*
X132442856Y-59959524D02*
X132633332Y-60054762D01*
X133014284Y-60054762D01*
X133204761Y-59959524D01*
X133299999Y-59769048D01*
X133299999Y-59007143D01*
X133204761Y-58816667D01*
X133014284Y-58721429D01*
X132633332Y-58721429D01*
X132442856Y-58816667D01*
X132347618Y-59007143D01*
X132347618Y-59197619D01*
X133299999Y-59388095D01*
X129299998Y-59007143D02*
X129014284Y-59102381D01*
X128919045Y-59197619D01*
X128823807Y-59388095D01*
X128823807Y-59673810D01*
X128919045Y-59864286D01*
X129014284Y-59959524D01*
X129204760Y-60054762D01*
X129966665Y-60054762D01*
X129966665Y-58054762D01*
X129299998Y-58054762D01*
X129109522Y-58150000D01*
X129014284Y-58245238D01*
X128919045Y-58435714D01*
X128919045Y-58626190D01*
X129014284Y-58816667D01*
X129109522Y-58911905D01*
X129299998Y-59007143D01*
X129966665Y-59007143D01*
X127680950Y-60054762D02*
X127871426Y-59959524D01*
X127966665Y-59864286D01*
X128061903Y-59673810D01*
X128061903Y-59102381D01*
X127966665Y-58911905D01*
X127871426Y-58816667D01*
X127680950Y-58721429D01*
X127395236Y-58721429D01*
X127204760Y-58816667D01*
X127109522Y-58911905D01*
X127014284Y-59102381D01*
X127014284Y-59673810D01*
X127109522Y-59864286D01*
X127204760Y-59959524D01*
X127395236Y-60054762D01*
X127680950Y-60054762D01*
X126442855Y-58721429D02*
X125680950Y-58721429D01*
X126157141Y-58054762D02*
X126157141Y-59769048D01*
X126061902Y-59959524D01*
X125871426Y-60054762D01*
X125680950Y-60054762D01*
X125299998Y-58721429D02*
X124538093Y-58721429D01*
X125014284Y-58054762D02*
X125014284Y-59769048D01*
X124919045Y-59959524D01*
X124728569Y-60054762D01*
X124538093Y-60054762D01*
X123585712Y-60054762D02*
X123776188Y-59959524D01*
X123871427Y-59864286D01*
X123966665Y-59673810D01*
X123966665Y-59102381D01*
X123871427Y-58911905D01*
X123776188Y-58816667D01*
X123585712Y-58721429D01*
X123299998Y-58721429D01*
X123109522Y-58816667D01*
X123014284Y-58911905D01*
X122919046Y-59102381D01*
X122919046Y-59673810D01*
X123014284Y-59864286D01*
X123109522Y-59959524D01*
X123299998Y-60054762D01*
X123585712Y-60054762D01*
X122061903Y-60054762D02*
X122061903Y-58721429D01*
X122061903Y-58911905D02*
X121966664Y-58816667D01*
X121776188Y-58721429D01*
X121490474Y-58721429D01*
X121299998Y-58816667D01*
X121204760Y-59007143D01*
X121204760Y-60054762D01*
X121204760Y-59007143D02*
X121109522Y-58816667D01*
X120919045Y-58721429D01*
X120633331Y-58721429D01*
X120442855Y-58816667D01*
X120347617Y-59007143D01*
X120347617Y-60054762D01*
D12*
X93500000Y-110500000D03*
X144500000Y-110450000D03*
X144500000Y-77650000D03*
D13*
X91100000Y-85714660D03*
X91100000Y-89885340D03*
D14*
X88538000Y-95400000D03*
X90062000Y-95400000D03*
X90062000Y-97200000D03*
X88538000Y-97200000D03*
D15*
X92700000Y-95262000D03*
X92700000Y-93738000D03*
X94500000Y-93738000D03*
X94500000Y-95262000D03*
D14*
X121562000Y-89800000D03*
X120038000Y-89800000D03*
X124312000Y-89800000D03*
X122788000Y-89800000D03*
X132862000Y-89800000D03*
X131338000Y-89800000D03*
D15*
X109300000Y-101138000D03*
X109300000Y-102662000D03*
X105500000Y-101138000D03*
X105500000Y-102662000D03*
X111300000Y-101138000D03*
X111300000Y-102662000D03*
X117950000Y-102738000D03*
X117950000Y-104262000D03*
X119750000Y-102738000D03*
X119750000Y-104262000D03*
D14*
X126962000Y-98200000D03*
X125438000Y-98200000D03*
X115862000Y-89800000D03*
X114338000Y-89800000D03*
X109762000Y-89800000D03*
X108238000Y-89800000D03*
X103938000Y-89800000D03*
X105462000Y-89800000D03*
X94362000Y-97200000D03*
X92838000Y-97200000D03*
X94362000Y-99000000D03*
X92838000Y-99000000D03*
D15*
X107400000Y-101138000D03*
X107400000Y-102662000D03*
D14*
X88538000Y-93600000D03*
X90062000Y-93600000D03*
M02*
