%FSLAX34Y34*%
G04 Gerber Fmt 3.4, Leading zero omitted, Abs format*
G04 (created by PCBNEW (2014-03-19 BZR 4756)-product) date Mo 06 Okt 2014 11:48:31 CEST*
%MOIN*%
G01*
G70*
G90*
G04 APERTURE LIST*
%ADD10C,0.005906*%
%ADD11R,0.025000X0.045000*%
%ADD12R,0.045000X0.025000*%
%ADD13R,0.079900X0.104400*%
G04 APERTURE END LIST*
G54D10*
X34251Y-27165D02*
X34251Y-26771D01*
X59448Y-27165D02*
X59448Y-26771D01*
X59448Y-27165D02*
X59448Y-47244D01*
X54330Y-26771D02*
X59448Y-26771D01*
X54330Y-34251D02*
X54330Y-26771D01*
X39370Y-34251D02*
X54330Y-34251D01*
X39370Y-26771D02*
X39370Y-34251D01*
X34251Y-26771D02*
X39370Y-26771D01*
X34251Y-47244D02*
X34251Y-27165D01*
X34251Y-47244D02*
X59448Y-47244D01*
G54D11*
X40644Y-35669D03*
X41244Y-35669D03*
X45614Y-35669D03*
X45014Y-35669D03*
X49985Y-38661D03*
X49385Y-38661D03*
G54D12*
X46299Y-40448D03*
X46299Y-41048D03*
X41456Y-40448D03*
X41456Y-41048D03*
X47086Y-40448D03*
X47086Y-41048D03*
X42244Y-40448D03*
X42244Y-41048D03*
X43031Y-40448D03*
X43031Y-41048D03*
X43818Y-40448D03*
X43818Y-41048D03*
G54D11*
X36756Y-38267D03*
X36156Y-38267D03*
X36756Y-38976D03*
X36156Y-38976D03*
G54D13*
X35866Y-33745D03*
X35866Y-35387D03*
G54D11*
X43213Y-35669D03*
X42613Y-35669D03*
X48961Y-35669D03*
X48361Y-35669D03*
X47859Y-35669D03*
X47259Y-35669D03*
X52307Y-35669D03*
X51707Y-35669D03*
X35457Y-38267D03*
X34857Y-38267D03*
G54D12*
X36811Y-36904D03*
X36811Y-37504D03*
G54D11*
X34857Y-36850D03*
X35457Y-36850D03*
X34857Y-37559D03*
X35457Y-37559D03*
G54D12*
X36102Y-37504D03*
X36102Y-36904D03*
M02*
