%FSLAX46Y46*%
G04 Gerber Fmt 4.6, Leading zero omitted, Abs format (unit mm)*
G04 Created by KiCad (PCBNEW (2014-10-13 BZR 5186)-product) date Do 16 Okt 2014 16:40:25 CEST*
%MOMM*%
G01*
G04 APERTURE LIST*
%ADD10C,0.150000*%
%ADD11C,0.250000*%
%ADD12C,0.200000*%
%ADD13C,0.381000*%
%ADD14C,0.254000*%
%ADD15C,0.203200*%
G04 APERTURE END LIST*
D10*
D11*
X87476190Y-53954762D02*
X87476190Y-51954762D01*
X87952381Y-51954762D01*
X88238095Y-52050000D01*
X88428571Y-52240476D01*
X88523810Y-52430952D01*
X88619048Y-52811905D01*
X88619048Y-53097619D01*
X88523810Y-53478571D01*
X88428571Y-53669048D01*
X88238095Y-53859524D01*
X87952381Y-53954762D01*
X87476190Y-53954762D01*
X89476190Y-52907143D02*
X90142857Y-52907143D01*
X90428571Y-53954762D02*
X89476190Y-53954762D01*
X89476190Y-51954762D01*
X90428571Y-51954762D01*
X91190476Y-53859524D02*
X91476191Y-53954762D01*
X91952381Y-53954762D01*
X92142857Y-53859524D01*
X92238095Y-53764286D01*
X92333334Y-53573810D01*
X92333334Y-53383333D01*
X92238095Y-53192857D01*
X92142857Y-53097619D01*
X91952381Y-53002381D01*
X91571429Y-52907143D01*
X91380953Y-52811905D01*
X91285714Y-52716667D01*
X91190476Y-52526190D01*
X91190476Y-52335714D01*
X91285714Y-52145238D01*
X91380953Y-52050000D01*
X91571429Y-51954762D01*
X92047619Y-51954762D01*
X92333334Y-52050000D01*
X93571429Y-53002381D02*
X93571429Y-53954762D01*
X92904762Y-51954762D02*
X93571429Y-53002381D01*
X94238096Y-51954762D01*
X97095239Y-52907143D02*
X96428572Y-52907143D01*
X96428572Y-53954762D02*
X96428572Y-51954762D01*
X97380953Y-51954762D01*
X98142858Y-53954762D02*
X98142858Y-51954762D01*
X98142858Y-52907143D02*
X99285716Y-52907143D01*
X99285716Y-53954762D02*
X99285716Y-51954762D01*
X100238096Y-53192857D02*
X101761906Y-53192857D01*
X103857144Y-53764286D02*
X103761906Y-53859524D01*
X103476191Y-53954762D01*
X103285715Y-53954762D01*
X103000001Y-53859524D01*
X102809525Y-53669048D01*
X102714286Y-53478571D01*
X102619048Y-53097619D01*
X102619048Y-52811905D01*
X102714286Y-52430952D01*
X102809525Y-52240476D01*
X103000001Y-52050000D01*
X103285715Y-51954762D01*
X103476191Y-51954762D01*
X103761906Y-52050000D01*
X103857144Y-52145238D01*
X104714286Y-53954762D02*
X104714286Y-51954762D01*
X105380953Y-53383333D01*
X106047620Y-51954762D01*
X106047620Y-53954762D01*
X106904762Y-53859524D02*
X107190477Y-53954762D01*
X107666667Y-53954762D01*
X107857143Y-53859524D01*
X107952381Y-53764286D01*
X108047620Y-53573810D01*
X108047620Y-53383333D01*
X107952381Y-53192857D01*
X107857143Y-53097619D01*
X107666667Y-53002381D01*
X107285715Y-52907143D01*
X107095239Y-52811905D01*
X107000000Y-52716667D01*
X106904762Y-52526190D01*
X106904762Y-52335714D01*
X107000000Y-52145238D01*
X107095239Y-52050000D01*
X107285715Y-51954762D01*
X107761905Y-51954762D01*
X108047620Y-52050000D01*
X88523810Y-57004762D02*
X87380952Y-57004762D01*
X87952381Y-57004762D02*
X87952381Y-55004762D01*
X87761905Y-55290476D01*
X87571429Y-55480952D01*
X87380952Y-55576190D01*
X89761905Y-55004762D02*
X89952381Y-55004762D01*
X90142857Y-55100000D01*
X90238095Y-55195238D01*
X90333333Y-55385714D01*
X90428572Y-55766667D01*
X90428572Y-56242857D01*
X90333333Y-56623810D01*
X90238095Y-56814286D01*
X90142857Y-56909524D01*
X89952381Y-57004762D01*
X89761905Y-57004762D01*
X89571429Y-56909524D01*
X89476191Y-56814286D01*
X89380952Y-56623810D01*
X89285714Y-56242857D01*
X89285714Y-55766667D01*
X89380952Y-55385714D01*
X89476191Y-55195238D01*
X89571429Y-55100000D01*
X89761905Y-55004762D01*
X91095238Y-55004762D02*
X92428572Y-55004762D01*
X91571429Y-57004762D01*
X94047619Y-55004762D02*
X93666667Y-55004762D01*
X93476191Y-55100000D01*
X93380953Y-55195238D01*
X93190476Y-55480952D01*
X93095238Y-55861905D01*
X93095238Y-56623810D01*
X93190476Y-56814286D01*
X93285715Y-56909524D01*
X93476191Y-57004762D01*
X93857143Y-57004762D01*
X94047619Y-56909524D01*
X94142857Y-56814286D01*
X94238096Y-56623810D01*
X94238096Y-56147619D01*
X94142857Y-55957143D01*
X94047619Y-55861905D01*
X93857143Y-55766667D01*
X93476191Y-55766667D01*
X93285715Y-55861905D01*
X93190476Y-55957143D01*
X93095238Y-56147619D01*
X95952381Y-55004762D02*
X95571429Y-55004762D01*
X95380953Y-55100000D01*
X95285715Y-55195238D01*
X95095238Y-55480952D01*
X95000000Y-55861905D01*
X95000000Y-56623810D01*
X95095238Y-56814286D01*
X95190477Y-56909524D01*
X95380953Y-57004762D01*
X95761905Y-57004762D01*
X95952381Y-56909524D01*
X96047619Y-56814286D01*
X96142858Y-56623810D01*
X96142858Y-56147619D01*
X96047619Y-55957143D01*
X95952381Y-55861905D01*
X95761905Y-55766667D01*
X95380953Y-55766667D01*
X95190477Y-55861905D01*
X95095238Y-55957143D01*
X95000000Y-56147619D01*
X97000000Y-56242857D02*
X98523810Y-56242857D01*
X99857143Y-55004762D02*
X100047619Y-55004762D01*
X100238095Y-55100000D01*
X100333333Y-55195238D01*
X100428571Y-55385714D01*
X100523810Y-55766667D01*
X100523810Y-56242857D01*
X100428571Y-56623810D01*
X100333333Y-56814286D01*
X100238095Y-56909524D01*
X100047619Y-57004762D01*
X99857143Y-57004762D01*
X99666667Y-56909524D01*
X99571429Y-56814286D01*
X99476190Y-56623810D01*
X99380952Y-56242857D01*
X99380952Y-55766667D01*
X99476190Y-55385714D01*
X99571429Y-55195238D01*
X99666667Y-55100000D01*
X99857143Y-55004762D01*
X101761905Y-55004762D02*
X101952381Y-55004762D01*
X102142857Y-55100000D01*
X102238095Y-55195238D01*
X102333333Y-55385714D01*
X102428572Y-55766667D01*
X102428572Y-56242857D01*
X102333333Y-56623810D01*
X102238095Y-56814286D01*
X102142857Y-56909524D01*
X101952381Y-57004762D01*
X101761905Y-57004762D01*
X101571429Y-56909524D01*
X101476191Y-56814286D01*
X101380952Y-56623810D01*
X101285714Y-56242857D01*
X101285714Y-55766667D01*
X101380952Y-55385714D01*
X101476191Y-55195238D01*
X101571429Y-55100000D01*
X101761905Y-55004762D01*
X103285714Y-56242857D02*
X104809524Y-56242857D01*
X105761904Y-57004762D02*
X105761904Y-55004762D01*
X106523809Y-55004762D01*
X106714285Y-55100000D01*
X106809524Y-55195238D01*
X106904762Y-55385714D01*
X106904762Y-55671429D01*
X106809524Y-55861905D01*
X106714285Y-55957143D01*
X106523809Y-56052381D01*
X105761904Y-56052381D01*
X108142857Y-55004762D02*
X108523809Y-55004762D01*
X108714285Y-55100000D01*
X108904762Y-55290476D01*
X109000000Y-55671429D01*
X109000000Y-56338095D01*
X108904762Y-56719048D01*
X108714285Y-56909524D01*
X108523809Y-57004762D01*
X108142857Y-57004762D01*
X107952381Y-56909524D01*
X107761904Y-56719048D01*
X107666666Y-56338095D01*
X107666666Y-55671429D01*
X107761904Y-55290476D01*
X107952381Y-55100000D01*
X108142857Y-55004762D01*
X109761904Y-56909524D02*
X110047619Y-57004762D01*
X110523809Y-57004762D01*
X110714285Y-56909524D01*
X110809523Y-56814286D01*
X110904762Y-56623810D01*
X110904762Y-56433333D01*
X110809523Y-56242857D01*
X110714285Y-56147619D01*
X110523809Y-56052381D01*
X110142857Y-55957143D01*
X109952381Y-55861905D01*
X109857142Y-55766667D01*
X109761904Y-55576190D01*
X109761904Y-55385714D01*
X109857142Y-55195238D01*
X109952381Y-55100000D01*
X110142857Y-55004762D01*
X110619047Y-55004762D01*
X110904762Y-55100000D01*
X112809524Y-57004762D02*
X111666666Y-57004762D01*
X112238095Y-57004762D02*
X112238095Y-55004762D01*
X112047619Y-55290476D01*
X111857143Y-55480952D01*
X111666666Y-55576190D01*
X87380952Y-59959524D02*
X87666667Y-60054762D01*
X88142857Y-60054762D01*
X88333333Y-59959524D01*
X88428571Y-59864286D01*
X88523810Y-59673810D01*
X88523810Y-59483333D01*
X88428571Y-59292857D01*
X88333333Y-59197619D01*
X88142857Y-59102381D01*
X87761905Y-59007143D01*
X87571429Y-58911905D01*
X87476190Y-58816667D01*
X87380952Y-58626190D01*
X87380952Y-58435714D01*
X87476190Y-58245238D01*
X87571429Y-58150000D01*
X87761905Y-58054762D01*
X88238095Y-58054762D01*
X88523810Y-58150000D01*
X89380952Y-60054762D02*
X89380952Y-58721429D01*
X89380952Y-58054762D02*
X89285714Y-58150000D01*
X89380952Y-58245238D01*
X89476191Y-58150000D01*
X89380952Y-58054762D01*
X89380952Y-58245238D01*
X90619048Y-60054762D02*
X90428572Y-59959524D01*
X90333333Y-59769048D01*
X90333333Y-58054762D01*
X91380952Y-60054762D02*
X91380952Y-58054762D01*
X91571429Y-59292857D02*
X92142857Y-60054762D01*
X92142857Y-58721429D02*
X91380952Y-59483333D01*
X94428572Y-59959524D02*
X94714287Y-60054762D01*
X95190477Y-60054762D01*
X95380953Y-59959524D01*
X95476191Y-59864286D01*
X95571430Y-59673810D01*
X95571430Y-59483333D01*
X95476191Y-59292857D01*
X95380953Y-59197619D01*
X95190477Y-59102381D01*
X94809525Y-59007143D01*
X94619049Y-58911905D01*
X94523810Y-58816667D01*
X94428572Y-58626190D01*
X94428572Y-58435714D01*
X94523810Y-58245238D01*
X94619049Y-58150000D01*
X94809525Y-58054762D01*
X95285715Y-58054762D01*
X95571430Y-58150000D01*
X97285715Y-59959524D02*
X97095239Y-60054762D01*
X96714287Y-60054762D01*
X96523811Y-59959524D01*
X96428572Y-59864286D01*
X96333334Y-59673810D01*
X96333334Y-59102381D01*
X96428572Y-58911905D01*
X96523811Y-58816667D01*
X96714287Y-58721429D01*
X97095239Y-58721429D01*
X97285715Y-58816667D01*
X98142858Y-60054762D02*
X98142858Y-58721429D01*
X98142858Y-59102381D02*
X98238097Y-58911905D01*
X98333335Y-58816667D01*
X98523811Y-58721429D01*
X98714287Y-58721429D01*
X100142858Y-59959524D02*
X99952382Y-60054762D01*
X99571430Y-60054762D01*
X99380953Y-59959524D01*
X99285715Y-59769048D01*
X99285715Y-59007143D01*
X99380953Y-58816667D01*
X99571430Y-58721429D01*
X99952382Y-58721429D01*
X100142858Y-58816667D01*
X100238096Y-59007143D01*
X100238096Y-59197619D01*
X99285715Y-59388095D01*
X101857144Y-59959524D02*
X101666668Y-60054762D01*
X101285716Y-60054762D01*
X101095239Y-59959524D01*
X101000001Y-59769048D01*
X101000001Y-59007143D01*
X101095239Y-58816667D01*
X101285716Y-58721429D01*
X101666668Y-58721429D01*
X101857144Y-58816667D01*
X101952382Y-59007143D01*
X101952382Y-59197619D01*
X101000001Y-59388095D01*
X102809525Y-58721429D02*
X102809525Y-60054762D01*
X102809525Y-58911905D02*
X102904764Y-58816667D01*
X103095240Y-58721429D01*
X103380954Y-58721429D01*
X103571430Y-58816667D01*
X103666668Y-59007143D01*
X103666668Y-60054762D01*
X105857145Y-58054762D02*
X107000002Y-58054762D01*
X106428574Y-60054762D02*
X106428574Y-58054762D01*
X107952384Y-60054762D02*
X107761908Y-59959524D01*
X107666669Y-59864286D01*
X107571431Y-59673810D01*
X107571431Y-59102381D01*
X107666669Y-58911905D01*
X107761908Y-58816667D01*
X107952384Y-58721429D01*
X108238098Y-58721429D01*
X108428574Y-58816667D01*
X108523812Y-58911905D01*
X108619050Y-59102381D01*
X108619050Y-59673810D01*
X108523812Y-59864286D01*
X108428574Y-59959524D01*
X108238098Y-60054762D01*
X107952384Y-60054762D01*
X109476193Y-58721429D02*
X109476193Y-60721429D01*
X109476193Y-58816667D02*
X109666670Y-58721429D01*
X110047622Y-58721429D01*
X110238098Y-58816667D01*
X110333336Y-58911905D01*
X110428574Y-59102381D01*
X110428574Y-59673810D01*
X110333336Y-59864286D01*
X110238098Y-59959524D01*
X110047622Y-60054762D01*
X109666670Y-60054762D01*
X109476193Y-59959524D01*
D12*
X147328571Y-100735715D02*
X145828571Y-100735715D01*
X145828571Y-100497620D01*
X145900000Y-100354762D01*
X146042857Y-100259524D01*
X146185714Y-100211905D01*
X146471429Y-100164286D01*
X146685714Y-100164286D01*
X146971429Y-100211905D01*
X147114286Y-100259524D01*
X147257143Y-100354762D01*
X147328571Y-100497620D01*
X147328571Y-100735715D01*
X146542857Y-99735715D02*
X146542857Y-99402381D01*
X147328571Y-99259524D02*
X147328571Y-99735715D01*
X145828571Y-99735715D01*
X145828571Y-99259524D01*
X147257143Y-98878572D02*
X147328571Y-98735715D01*
X147328571Y-98497619D01*
X147257143Y-98402381D01*
X147185714Y-98354762D01*
X147042857Y-98307143D01*
X146900000Y-98307143D01*
X146757143Y-98354762D01*
X146685714Y-98402381D01*
X146614286Y-98497619D01*
X146542857Y-98688096D01*
X146471429Y-98783334D01*
X146400000Y-98830953D01*
X146257143Y-98878572D01*
X146114286Y-98878572D01*
X145971429Y-98830953D01*
X145900000Y-98783334D01*
X145828571Y-98688096D01*
X145828571Y-98450000D01*
X145900000Y-98307143D01*
X146614286Y-97688096D02*
X147328571Y-97688096D01*
X145828571Y-98021429D02*
X146614286Y-97688096D01*
X145828571Y-97354762D01*
X147257143Y-96973810D02*
X147328571Y-96973810D01*
X147471429Y-97021429D01*
X147542857Y-97069048D01*
X147257143Y-95830953D02*
X147328571Y-95688096D01*
X147328571Y-95450000D01*
X147257143Y-95354762D01*
X147185714Y-95307143D01*
X147042857Y-95259524D01*
X146900000Y-95259524D01*
X146757143Y-95307143D01*
X146685714Y-95354762D01*
X146614286Y-95450000D01*
X146542857Y-95640477D01*
X146471429Y-95735715D01*
X146400000Y-95783334D01*
X146257143Y-95830953D01*
X146114286Y-95830953D01*
X145971429Y-95783334D01*
X145900000Y-95735715D01*
X145828571Y-95640477D01*
X145828571Y-95402381D01*
X145900000Y-95259524D01*
X147185714Y-94830953D02*
X147257143Y-94783334D01*
X147328571Y-94830953D01*
X147257143Y-94878572D01*
X147185714Y-94830953D01*
X147328571Y-94830953D01*
X147257143Y-93640477D02*
X147328571Y-93497620D01*
X147328571Y-93259524D01*
X147257143Y-93164286D01*
X147185714Y-93116667D01*
X147042857Y-93069048D01*
X146900000Y-93069048D01*
X146757143Y-93116667D01*
X146685714Y-93164286D01*
X146614286Y-93259524D01*
X146542857Y-93450001D01*
X146471429Y-93545239D01*
X146400000Y-93592858D01*
X146257143Y-93640477D01*
X146114286Y-93640477D01*
X145971429Y-93592858D01*
X145900000Y-93545239D01*
X145828571Y-93450001D01*
X145828571Y-93211905D01*
X145900000Y-93069048D01*
X146328571Y-92640477D02*
X147828571Y-92640477D01*
X146400000Y-92640477D02*
X146328571Y-92545239D01*
X146328571Y-92354762D01*
X146400000Y-92259524D01*
X146471429Y-92211905D01*
X146614286Y-92164286D01*
X147042857Y-92164286D01*
X147185714Y-92211905D01*
X147257143Y-92259524D01*
X147328571Y-92354762D01*
X147328571Y-92545239D01*
X147257143Y-92640477D01*
X147328571Y-91307143D02*
X146542857Y-91307143D01*
X146400000Y-91354762D01*
X146328571Y-91450000D01*
X146328571Y-91640477D01*
X146400000Y-91735715D01*
X147257143Y-91307143D02*
X147328571Y-91402381D01*
X147328571Y-91640477D01*
X147257143Y-91735715D01*
X147114286Y-91783334D01*
X146971429Y-91783334D01*
X146828571Y-91735715D01*
X146757143Y-91640477D01*
X146757143Y-91402381D01*
X146685714Y-91307143D01*
X146328571Y-90830953D02*
X147328571Y-90830953D01*
X146471429Y-90830953D02*
X146400000Y-90783334D01*
X146328571Y-90688096D01*
X146328571Y-90545238D01*
X146400000Y-90450000D01*
X146542857Y-90402381D01*
X147328571Y-90402381D01*
X146328571Y-89926191D02*
X147328571Y-89926191D01*
X146471429Y-89926191D02*
X146400000Y-89878572D01*
X146328571Y-89783334D01*
X146328571Y-89640476D01*
X146400000Y-89545238D01*
X146542857Y-89497619D01*
X147328571Y-89497619D01*
X147328571Y-88592857D02*
X146542857Y-88592857D01*
X146400000Y-88640476D01*
X146328571Y-88735714D01*
X146328571Y-88926191D01*
X146400000Y-89021429D01*
X147257143Y-88592857D02*
X147328571Y-88688095D01*
X147328571Y-88926191D01*
X147257143Y-89021429D01*
X147114286Y-89069048D01*
X146971429Y-89069048D01*
X146828571Y-89021429D01*
X146757143Y-88926191D01*
X146757143Y-88688095D01*
X146685714Y-88592857D01*
X146328571Y-87688095D02*
X147542857Y-87688095D01*
X147685714Y-87735714D01*
X147757143Y-87783333D01*
X147828571Y-87878572D01*
X147828571Y-88021429D01*
X147757143Y-88116667D01*
X147257143Y-87688095D02*
X147328571Y-87783333D01*
X147328571Y-87973810D01*
X147257143Y-88069048D01*
X147185714Y-88116667D01*
X147042857Y-88164286D01*
X146614286Y-88164286D01*
X146471429Y-88116667D01*
X146400000Y-88069048D01*
X146328571Y-87973810D01*
X146328571Y-87783333D01*
X146400000Y-87688095D01*
X147257143Y-86830952D02*
X147328571Y-86926190D01*
X147328571Y-87116667D01*
X147257143Y-87211905D01*
X147114286Y-87259524D01*
X146542857Y-87259524D01*
X146400000Y-87211905D01*
X146328571Y-87116667D01*
X146328571Y-86926190D01*
X146400000Y-86830952D01*
X146542857Y-86783333D01*
X146685714Y-86783333D01*
X146828571Y-87259524D01*
X147328571Y-86211905D02*
X147257143Y-86307143D01*
X147114286Y-86354762D01*
X145828571Y-86354762D01*
X147257143Y-85783333D02*
X147328571Y-85783333D01*
X147471429Y-85830952D01*
X147542857Y-85878571D01*
X147328571Y-84069047D02*
X147328571Y-84640476D01*
X147328571Y-84354762D02*
X145828571Y-84354762D01*
X146042857Y-84450000D01*
X146185714Y-84545238D01*
X146257143Y-84640476D01*
X145828571Y-83450000D02*
X145828571Y-83354761D01*
X145900000Y-83259523D01*
X145971429Y-83211904D01*
X146114286Y-83164285D01*
X146400000Y-83116666D01*
X146757143Y-83116666D01*
X147042857Y-83164285D01*
X147185714Y-83211904D01*
X147257143Y-83259523D01*
X147328571Y-83354761D01*
X147328571Y-83450000D01*
X147257143Y-83545238D01*
X147185714Y-83592857D01*
X147042857Y-83640476D01*
X146757143Y-83688095D01*
X146400000Y-83688095D01*
X146114286Y-83640476D01*
X145971429Y-83592857D01*
X145900000Y-83545238D01*
X145828571Y-83450000D01*
X145828571Y-82783333D02*
X145828571Y-82116666D01*
X147328571Y-82545238D01*
X145828571Y-81307142D02*
X145828571Y-81497619D01*
X145900000Y-81592857D01*
X145971429Y-81640476D01*
X146185714Y-81735714D01*
X146471429Y-81783333D01*
X147042857Y-81783333D01*
X147185714Y-81735714D01*
X147257143Y-81688095D01*
X147328571Y-81592857D01*
X147328571Y-81402380D01*
X147257143Y-81307142D01*
X147185714Y-81259523D01*
X147042857Y-81211904D01*
X146685714Y-81211904D01*
X146542857Y-81259523D01*
X146471429Y-81307142D01*
X146400000Y-81402380D01*
X146400000Y-81592857D01*
X146471429Y-81688095D01*
X146542857Y-81735714D01*
X146685714Y-81783333D01*
X145828571Y-80354761D02*
X145828571Y-80545238D01*
X145900000Y-80640476D01*
X145971429Y-80688095D01*
X146185714Y-80783333D01*
X146471429Y-80830952D01*
X147042857Y-80830952D01*
X147185714Y-80783333D01*
X147257143Y-80735714D01*
X147328571Y-80640476D01*
X147328571Y-80449999D01*
X147257143Y-80354761D01*
X147185714Y-80307142D01*
X147042857Y-80259523D01*
X146685714Y-80259523D01*
X146542857Y-80307142D01*
X146471429Y-80354761D01*
X146400000Y-80449999D01*
X146400000Y-80640476D01*
X146471429Y-80735714D01*
X146542857Y-80783333D01*
X146685714Y-80830952D01*
X146757143Y-79830952D02*
X146757143Y-79069047D01*
X145828571Y-78402381D02*
X145828571Y-78307142D01*
X145900000Y-78211904D01*
X145971429Y-78164285D01*
X146114286Y-78116666D01*
X146400000Y-78069047D01*
X146757143Y-78069047D01*
X147042857Y-78116666D01*
X147185714Y-78164285D01*
X147257143Y-78211904D01*
X147328571Y-78307142D01*
X147328571Y-78402381D01*
X147257143Y-78497619D01*
X147185714Y-78545238D01*
X147042857Y-78592857D01*
X146757143Y-78640476D01*
X146400000Y-78640476D01*
X146114286Y-78592857D01*
X145971429Y-78545238D01*
X145900000Y-78497619D01*
X145828571Y-78402381D01*
X145828571Y-77450000D02*
X145828571Y-77354761D01*
X145900000Y-77259523D01*
X145971429Y-77211904D01*
X146114286Y-77164285D01*
X146400000Y-77116666D01*
X146757143Y-77116666D01*
X147042857Y-77164285D01*
X147185714Y-77211904D01*
X147257143Y-77259523D01*
X147328571Y-77354761D01*
X147328571Y-77450000D01*
X147257143Y-77545238D01*
X147185714Y-77592857D01*
X147042857Y-77640476D01*
X146757143Y-77688095D01*
X146400000Y-77688095D01*
X146114286Y-77640476D01*
X145971429Y-77592857D01*
X145900000Y-77545238D01*
X145828571Y-77450000D01*
X149485714Y-99045239D02*
X149557143Y-99092858D01*
X149628571Y-99235715D01*
X149628571Y-99330953D01*
X149557143Y-99473811D01*
X149414286Y-99569049D01*
X149271429Y-99616668D01*
X148985714Y-99664287D01*
X148771429Y-99664287D01*
X148485714Y-99616668D01*
X148342857Y-99569049D01*
X148200000Y-99473811D01*
X148128571Y-99330953D01*
X148128571Y-99235715D01*
X148200000Y-99092858D01*
X148271429Y-99045239D01*
X149628571Y-98616668D02*
X148128571Y-98616668D01*
X149200000Y-98283334D01*
X148128571Y-97950001D01*
X149628571Y-97950001D01*
X149557143Y-97521430D02*
X149628571Y-97378573D01*
X149628571Y-97140477D01*
X149557143Y-97045239D01*
X149485714Y-96997620D01*
X149342857Y-96950001D01*
X149200000Y-96950001D01*
X149057143Y-96997620D01*
X148985714Y-97045239D01*
X148914286Y-97140477D01*
X148842857Y-97330954D01*
X148771429Y-97426192D01*
X148700000Y-97473811D01*
X148557143Y-97521430D01*
X148414286Y-97521430D01*
X148271429Y-97473811D01*
X148200000Y-97426192D01*
X148128571Y-97330954D01*
X148128571Y-97092858D01*
X148200000Y-96950001D01*
X149628571Y-95188096D02*
X148914286Y-95521430D01*
X149628571Y-95759525D02*
X148128571Y-95759525D01*
X148128571Y-95378572D01*
X148200000Y-95283334D01*
X148271429Y-95235715D01*
X148414286Y-95188096D01*
X148628571Y-95188096D01*
X148771429Y-95235715D01*
X148842857Y-95283334D01*
X148914286Y-95378572D01*
X148914286Y-95759525D01*
X148128571Y-94569049D02*
X148128571Y-94378572D01*
X148200000Y-94283334D01*
X148342857Y-94188096D01*
X148628571Y-94140477D01*
X149128571Y-94140477D01*
X149414286Y-94188096D01*
X149557143Y-94283334D01*
X149628571Y-94378572D01*
X149628571Y-94569049D01*
X149557143Y-94664287D01*
X149414286Y-94759525D01*
X149128571Y-94807144D01*
X148628571Y-94807144D01*
X148342857Y-94759525D01*
X148200000Y-94664287D01*
X148128571Y-94569049D01*
X149485714Y-93140477D02*
X149557143Y-93188096D01*
X149628571Y-93330953D01*
X149628571Y-93426191D01*
X149557143Y-93569049D01*
X149414286Y-93664287D01*
X149271429Y-93711906D01*
X148985714Y-93759525D01*
X148771429Y-93759525D01*
X148485714Y-93711906D01*
X148342857Y-93664287D01*
X148200000Y-93569049D01*
X148128571Y-93426191D01*
X148128571Y-93330953D01*
X148200000Y-93188096D01*
X148271429Y-93140477D01*
X148128571Y-92092858D02*
X148128571Y-91521429D01*
X149628571Y-91807144D02*
X148128571Y-91807144D01*
X149557143Y-90807143D02*
X149628571Y-90902381D01*
X149628571Y-91092858D01*
X149557143Y-91188096D01*
X149414286Y-91235715D01*
X148842857Y-91235715D01*
X148700000Y-91188096D01*
X148628571Y-91092858D01*
X148628571Y-90902381D01*
X148700000Y-90807143D01*
X148842857Y-90759524D01*
X148985714Y-90759524D01*
X149128571Y-91235715D01*
X149557143Y-90378572D02*
X149628571Y-90283334D01*
X149628571Y-90092858D01*
X149557143Y-89997619D01*
X149414286Y-89950000D01*
X149342857Y-89950000D01*
X149200000Y-89997619D01*
X149128571Y-90092858D01*
X149128571Y-90235715D01*
X149057143Y-90330953D01*
X148914286Y-90378572D01*
X148842857Y-90378572D01*
X148700000Y-90330953D01*
X148628571Y-90235715D01*
X148628571Y-90092858D01*
X148700000Y-89997619D01*
X148628571Y-89664286D02*
X148628571Y-89283334D01*
X148128571Y-89521429D02*
X149414286Y-89521429D01*
X149557143Y-89473810D01*
X149628571Y-89378572D01*
X149628571Y-89283334D01*
X149628571Y-88950000D02*
X148128571Y-88950000D01*
X148700000Y-88950000D02*
X148628571Y-88854762D01*
X148628571Y-88664285D01*
X148700000Y-88569047D01*
X148771429Y-88521428D01*
X148914286Y-88473809D01*
X149342857Y-88473809D01*
X149485714Y-88521428D01*
X149557143Y-88569047D01*
X149628571Y-88664285D01*
X149628571Y-88854762D01*
X149557143Y-88950000D01*
X149557143Y-87664285D02*
X149628571Y-87759523D01*
X149628571Y-87950000D01*
X149557143Y-88045238D01*
X149414286Y-88092857D01*
X148842857Y-88092857D01*
X148700000Y-88045238D01*
X148628571Y-87950000D01*
X148628571Y-87759523D01*
X148700000Y-87664285D01*
X148842857Y-87616666D01*
X148985714Y-87616666D01*
X149128571Y-88092857D01*
X149628571Y-86759523D02*
X148842857Y-86759523D01*
X148700000Y-86807142D01*
X148628571Y-86902380D01*
X148628571Y-87092857D01*
X148700000Y-87188095D01*
X149557143Y-86759523D02*
X149628571Y-86854761D01*
X149628571Y-87092857D01*
X149557143Y-87188095D01*
X149414286Y-87235714D01*
X149271429Y-87235714D01*
X149128571Y-87188095D01*
X149057143Y-87092857D01*
X149057143Y-86854761D01*
X148985714Y-86759523D01*
X149628571Y-86283333D02*
X148628571Y-86283333D01*
X148771429Y-86283333D02*
X148700000Y-86235714D01*
X148628571Y-86140476D01*
X148628571Y-85997618D01*
X148700000Y-85902380D01*
X148842857Y-85854761D01*
X149628571Y-85854761D01*
X148842857Y-85854761D02*
X148700000Y-85807142D01*
X148628571Y-85711904D01*
X148628571Y-85569047D01*
X148700000Y-85473809D01*
X148842857Y-85426190D01*
X149628571Y-85426190D01*
X149200000Y-84235714D02*
X149200000Y-83759523D01*
X149628571Y-84330952D02*
X148128571Y-83997619D01*
X149628571Y-83664285D01*
X149628571Y-82902380D02*
X148128571Y-82902380D01*
X149557143Y-82902380D02*
X149628571Y-82997618D01*
X149628571Y-83188095D01*
X149557143Y-83283333D01*
X149485714Y-83330952D01*
X149342857Y-83378571D01*
X148914286Y-83378571D01*
X148771429Y-83330952D01*
X148700000Y-83283333D01*
X148628571Y-83188095D01*
X148628571Y-82997618D01*
X148700000Y-82902380D01*
X149628571Y-81997618D02*
X148842857Y-81997618D01*
X148700000Y-82045237D01*
X148628571Y-82140475D01*
X148628571Y-82330952D01*
X148700000Y-82426190D01*
X149557143Y-81997618D02*
X149628571Y-82092856D01*
X149628571Y-82330952D01*
X149557143Y-82426190D01*
X149414286Y-82473809D01*
X149271429Y-82473809D01*
X149128571Y-82426190D01*
X149057143Y-82330952D01*
X149057143Y-82092856D01*
X148985714Y-81997618D01*
X148628571Y-81521428D02*
X150128571Y-81521428D01*
X148700000Y-81521428D02*
X148628571Y-81426190D01*
X148628571Y-81235713D01*
X148700000Y-81140475D01*
X148771429Y-81092856D01*
X148914286Y-81045237D01*
X149342857Y-81045237D01*
X149485714Y-81092856D01*
X149557143Y-81140475D01*
X149628571Y-81235713D01*
X149628571Y-81426190D01*
X149557143Y-81521428D01*
X148628571Y-80759523D02*
X148628571Y-80378571D01*
X148128571Y-80616666D02*
X149414286Y-80616666D01*
X149557143Y-80569047D01*
X149628571Y-80473809D01*
X149628571Y-80378571D01*
X149557143Y-79664284D02*
X149628571Y-79759522D01*
X149628571Y-79949999D01*
X149557143Y-80045237D01*
X149414286Y-80092856D01*
X148842857Y-80092856D01*
X148700000Y-80045237D01*
X148628571Y-79949999D01*
X148628571Y-79759522D01*
X148700000Y-79664284D01*
X148842857Y-79616665D01*
X148985714Y-79616665D01*
X149128571Y-80092856D01*
X149628571Y-79188094D02*
X148628571Y-79188094D01*
X148914286Y-79188094D02*
X148771429Y-79140475D01*
X148700000Y-79092856D01*
X148628571Y-78997618D01*
X148628571Y-78902379D01*
D13*
X137999200Y-68000560D02*
X142500080Y-68000560D01*
X100000800Y-68000560D02*
X95499920Y-68000560D01*
X100000800Y-86999760D02*
X137999200Y-86999760D01*
X142500080Y-95270760D02*
X142500080Y-68000560D01*
X137999200Y-68000560D02*
X137999200Y-86999760D01*
X99998260Y-86999760D02*
X99998260Y-68000560D01*
X95499920Y-68000560D02*
X95499920Y-95270760D01*
X95499920Y-95254760D02*
X142500080Y-95254760D01*
X93286000Y-73500000D02*
G75*
G03X93286000Y-73500000I-2286000J0D01*
G74*
G01*
X149286000Y-73500000D02*
G75*
G03X149286000Y-73500000I-2286000J0D01*
G74*
G01*
X93286000Y-104000000D02*
G75*
G03X93286000Y-104000000I-2286000J0D01*
G74*
G01*
X149286000Y-104000000D02*
G75*
G03X149286000Y-104000000I-2286000J0D01*
G74*
G01*
D10*
X87036000Y-80800000D02*
X89576000Y-83340000D01*
X87036000Y-83340000D02*
X89576000Y-80800000D01*
X86909000Y-82197000D02*
X81067000Y-82197000D01*
X81067000Y-82197000D02*
X81067000Y-81943000D01*
X81067000Y-81943000D02*
X86909000Y-81943000D01*
X86909000Y-81943000D02*
X86909000Y-82070000D01*
X86909000Y-82070000D02*
X81067000Y-82070000D01*
X89576000Y-82324000D02*
X89957000Y-82324000D01*
X89576000Y-81816000D02*
X89957000Y-81816000D01*
X89576000Y-79784000D02*
X89957000Y-79784000D01*
X89576000Y-79276000D02*
X89957000Y-79276000D01*
X89576000Y-83340000D02*
X87036000Y-83340000D01*
X89576000Y-80800000D02*
X87036000Y-80800000D01*
X89576000Y-80800000D02*
X89576000Y-78260000D01*
X89576000Y-78260000D02*
X87036000Y-78260000D01*
X87036000Y-79784000D02*
X80940000Y-79784000D01*
X80940000Y-79784000D02*
X80940000Y-79276000D01*
X80940000Y-79276000D02*
X87036000Y-79276000D01*
X87036000Y-78260000D02*
X87036000Y-80800000D01*
X87036000Y-80800000D02*
X87036000Y-83340000D01*
X80940000Y-81816000D02*
X87036000Y-81816000D01*
X80940000Y-82324000D02*
X80940000Y-81816000D01*
X87036000Y-82324000D02*
X80940000Y-82324000D01*
X89576000Y-80800000D02*
X87036000Y-80800000D01*
X89576000Y-83340000D02*
X89576000Y-80800000D01*
D11*
X106050000Y-95828571D02*
X106050000Y-96900000D01*
X105992858Y-97114286D01*
X105878572Y-97257143D01*
X105707143Y-97328571D01*
X105592858Y-97328571D01*
X107250001Y-97328571D02*
X106564286Y-97328571D01*
X106907144Y-97328571D02*
X106907144Y-95828571D01*
X106792858Y-96042857D01*
X106678572Y-96185714D01*
X106564286Y-96257143D01*
D14*
X143028572Y-113478571D02*
X142628572Y-112764286D01*
X142342857Y-113478571D02*
X142342857Y-111978571D01*
X142800000Y-111978571D01*
X142914286Y-112050000D01*
X142971429Y-112121429D01*
X143028572Y-112264286D01*
X143028572Y-112478571D01*
X142971429Y-112621429D01*
X142914286Y-112692857D01*
X142800000Y-112764286D01*
X142342857Y-112764286D01*
X143942857Y-112692857D02*
X143542857Y-112692857D01*
X143542857Y-113478571D02*
X143542857Y-111978571D01*
X144114286Y-111978571D01*
X144457143Y-111978571D02*
X145200000Y-111978571D01*
X144800000Y-112550000D01*
X144971428Y-112550000D01*
X145085714Y-112621429D01*
X145142857Y-112692857D01*
X145200000Y-112835714D01*
X145200000Y-113192857D01*
X145142857Y-113335714D01*
X145085714Y-113407143D01*
X144971428Y-113478571D01*
X144628571Y-113478571D01*
X144514285Y-113407143D01*
X144457143Y-113335714D01*
X145542857Y-111978571D02*
X146228571Y-111978571D01*
X145885714Y-113478571D02*
X145885714Y-111978571D01*
X142078571Y-78821428D02*
X141364286Y-79221428D01*
X142078571Y-79507143D02*
X140578571Y-79507143D01*
X140578571Y-79050000D01*
X140650000Y-78935714D01*
X140721429Y-78878571D01*
X140864286Y-78821428D01*
X141078571Y-78821428D01*
X141221429Y-78878571D01*
X141292857Y-78935714D01*
X141364286Y-79050000D01*
X141364286Y-79507143D01*
X141292857Y-77907143D02*
X141292857Y-78307143D01*
X142078571Y-78307143D02*
X140578571Y-78307143D01*
X140578571Y-77735714D01*
X140721429Y-77335715D02*
X140650000Y-77278572D01*
X140578571Y-77164286D01*
X140578571Y-76878572D01*
X140650000Y-76764286D01*
X140721429Y-76707143D01*
X140864286Y-76650000D01*
X141007143Y-76650000D01*
X141221429Y-76707143D01*
X142078571Y-77392857D01*
X142078571Y-76650000D01*
X140578571Y-76307143D02*
X140578571Y-75621429D01*
X142078571Y-75964286D02*
X140578571Y-75964286D01*
X97428571Y-78821428D02*
X96714286Y-79221428D01*
X97428571Y-79507143D02*
X95928571Y-79507143D01*
X95928571Y-79050000D01*
X96000000Y-78935714D01*
X96071429Y-78878571D01*
X96214286Y-78821428D01*
X96428571Y-78821428D01*
X96571429Y-78878571D01*
X96642857Y-78935714D01*
X96714286Y-79050000D01*
X96714286Y-79507143D01*
X96642857Y-77907143D02*
X96642857Y-78307143D01*
X97428571Y-78307143D02*
X95928571Y-78307143D01*
X95928571Y-77735714D01*
X97428571Y-76650000D02*
X97428571Y-77335715D01*
X97428571Y-76992857D02*
X95928571Y-76992857D01*
X96142857Y-77107143D01*
X96285714Y-77221429D01*
X96357143Y-77335715D01*
X95928571Y-76307143D02*
X95928571Y-75621429D01*
X97428571Y-75964286D02*
X95928571Y-75964286D01*
D15*
X93960524Y-81737381D02*
X92690524Y-81737381D01*
X92690524Y-81253572D01*
X92751000Y-81132619D01*
X92811476Y-81072143D01*
X92932429Y-81011667D01*
X93113857Y-81011667D01*
X93234810Y-81072143D01*
X93295286Y-81132619D01*
X93355762Y-81253572D01*
X93355762Y-81737381D01*
X93960524Y-79802143D02*
X93960524Y-80527857D01*
X93960524Y-80165000D02*
X92690524Y-80165000D01*
X92871952Y-80285952D01*
X92992905Y-80406905D01*
X93053381Y-80527857D01*
M02*
