%FSLAX34Y34*%
G04 Gerber Fmt 3.4, Leading zero omitted, Abs format*
G04 (created by PCBNEW (2014-03-19 BZR 4756)-product) date Mo 06 Okt 2014 11:48:31 CEST*
%MOIN*%
G01*
G70*
G90*
G04 APERTURE LIST*
%ADD10C,0.005906*%
%ADD11C,0.007874*%
%ADD12C,0.015000*%
%ADD13C,0.012000*%
%ADD14C,0.010000*%
%ADD15C,0.010700*%
%ADD16C,0.059055*%
%ADD17C,0.118110*%
%ADD18C,0.160000*%
%ADD19R,0.023600X0.059100*%
%ADD20C,0.051200*%
%ADD21R,0.055000X0.055000*%
%ADD22C,0.055000*%
G04 APERTURE END LIST*
G54D10*
G54D11*
X57727Y-37686D02*
X57137Y-37686D01*
X57137Y-37611D01*
X57165Y-37566D01*
X57221Y-37536D01*
X57277Y-37521D01*
X57390Y-37506D01*
X57474Y-37506D01*
X57587Y-37521D01*
X57643Y-37536D01*
X57699Y-37566D01*
X57727Y-37611D01*
X57727Y-37686D01*
X57418Y-37371D02*
X57418Y-37266D01*
X57727Y-37221D02*
X57727Y-37371D01*
X57137Y-37371D01*
X57137Y-37221D01*
X57699Y-37101D02*
X57727Y-37056D01*
X57727Y-36981D01*
X57699Y-36951D01*
X57671Y-36936D01*
X57615Y-36921D01*
X57559Y-36921D01*
X57502Y-36936D01*
X57474Y-36951D01*
X57446Y-36981D01*
X57418Y-37041D01*
X57390Y-37071D01*
X57362Y-37086D01*
X57305Y-37101D01*
X57249Y-37101D01*
X57193Y-37086D01*
X57165Y-37071D01*
X57137Y-37041D01*
X57137Y-36966D01*
X57165Y-36921D01*
X57446Y-36726D02*
X57727Y-36726D01*
X57137Y-36831D02*
X57446Y-36726D01*
X57137Y-36621D01*
X57671Y-36096D02*
X57699Y-36111D01*
X57727Y-36156D01*
X57727Y-36186D01*
X57699Y-36231D01*
X57643Y-36261D01*
X57587Y-36276D01*
X57474Y-36291D01*
X57390Y-36291D01*
X57277Y-36276D01*
X57221Y-36261D01*
X57165Y-36231D01*
X57137Y-36186D01*
X57137Y-36156D01*
X57165Y-36111D01*
X57193Y-36096D01*
X57727Y-35961D02*
X57137Y-35961D01*
X57559Y-35856D01*
X57137Y-35751D01*
X57727Y-35751D01*
X57699Y-35616D02*
X57727Y-35571D01*
X57727Y-35496D01*
X57699Y-35466D01*
X57671Y-35451D01*
X57615Y-35436D01*
X57559Y-35436D01*
X57502Y-35451D01*
X57474Y-35466D01*
X57446Y-35496D01*
X57418Y-35556D01*
X57390Y-35586D01*
X57362Y-35601D01*
X57305Y-35616D01*
X57249Y-35616D01*
X57193Y-35601D01*
X57165Y-35586D01*
X57137Y-35556D01*
X57137Y-35481D01*
X57165Y-35436D01*
X57502Y-35061D02*
X57502Y-34821D01*
X57699Y-34446D02*
X57727Y-34401D01*
X57727Y-34326D01*
X57699Y-34296D01*
X57671Y-34281D01*
X57615Y-34266D01*
X57559Y-34266D01*
X57502Y-34281D01*
X57474Y-34296D01*
X57446Y-34326D01*
X57418Y-34386D01*
X57390Y-34416D01*
X57362Y-34431D01*
X57305Y-34446D01*
X57249Y-34446D01*
X57193Y-34431D01*
X57165Y-34416D01*
X57137Y-34386D01*
X57137Y-34311D01*
X57165Y-34266D01*
X57671Y-34131D02*
X57699Y-34116D01*
X57727Y-34131D01*
X57699Y-34146D01*
X57671Y-34131D01*
X57727Y-34131D01*
X57699Y-33757D02*
X57727Y-33712D01*
X57727Y-33637D01*
X57699Y-33607D01*
X57671Y-33592D01*
X57615Y-33577D01*
X57559Y-33577D01*
X57502Y-33592D01*
X57474Y-33607D01*
X57446Y-33637D01*
X57418Y-33697D01*
X57390Y-33727D01*
X57362Y-33742D01*
X57305Y-33757D01*
X57249Y-33757D01*
X57193Y-33742D01*
X57165Y-33727D01*
X57137Y-33697D01*
X57137Y-33622D01*
X57165Y-33577D01*
X57334Y-33442D02*
X57924Y-33442D01*
X57362Y-33442D02*
X57334Y-33412D01*
X57334Y-33352D01*
X57362Y-33322D01*
X57390Y-33307D01*
X57446Y-33292D01*
X57615Y-33292D01*
X57671Y-33307D01*
X57699Y-33322D01*
X57727Y-33352D01*
X57727Y-33412D01*
X57699Y-33442D01*
X57727Y-33022D02*
X57418Y-33022D01*
X57362Y-33037D01*
X57334Y-33067D01*
X57334Y-33127D01*
X57362Y-33157D01*
X57699Y-33022D02*
X57727Y-33052D01*
X57727Y-33127D01*
X57699Y-33157D01*
X57643Y-33172D01*
X57587Y-33172D01*
X57530Y-33157D01*
X57502Y-33127D01*
X57502Y-33052D01*
X57474Y-33022D01*
X57334Y-32872D02*
X57727Y-32872D01*
X57390Y-32872D02*
X57362Y-32857D01*
X57334Y-32827D01*
X57334Y-32782D01*
X57362Y-32752D01*
X57418Y-32737D01*
X57727Y-32737D01*
X57334Y-32587D02*
X57727Y-32587D01*
X57390Y-32587D02*
X57362Y-32572D01*
X57334Y-32542D01*
X57334Y-32497D01*
X57362Y-32467D01*
X57418Y-32452D01*
X57727Y-32452D01*
X57727Y-32167D02*
X57418Y-32167D01*
X57362Y-32182D01*
X57334Y-32212D01*
X57334Y-32272D01*
X57362Y-32302D01*
X57699Y-32167D02*
X57727Y-32197D01*
X57727Y-32272D01*
X57699Y-32302D01*
X57643Y-32317D01*
X57587Y-32317D01*
X57530Y-32302D01*
X57502Y-32272D01*
X57502Y-32197D01*
X57474Y-32167D01*
X57334Y-31882D02*
X57812Y-31882D01*
X57868Y-31897D01*
X57896Y-31912D01*
X57924Y-31942D01*
X57924Y-31987D01*
X57896Y-32017D01*
X57699Y-31882D02*
X57727Y-31912D01*
X57727Y-31972D01*
X57699Y-32002D01*
X57671Y-32017D01*
X57615Y-32032D01*
X57446Y-32032D01*
X57390Y-32017D01*
X57362Y-32002D01*
X57334Y-31972D01*
X57334Y-31912D01*
X57362Y-31882D01*
X57699Y-31612D02*
X57727Y-31642D01*
X57727Y-31702D01*
X57699Y-31732D01*
X57643Y-31747D01*
X57418Y-31747D01*
X57362Y-31732D01*
X57334Y-31702D01*
X57334Y-31642D01*
X57362Y-31612D01*
X57418Y-31597D01*
X57474Y-31597D01*
X57530Y-31747D01*
X57727Y-31417D02*
X57699Y-31447D01*
X57643Y-31462D01*
X57137Y-31462D01*
X58633Y-38383D02*
X58352Y-38488D01*
X58633Y-38563D02*
X58042Y-38563D01*
X58042Y-38443D01*
X58070Y-38413D01*
X58098Y-38398D01*
X58155Y-38383D01*
X58239Y-38383D01*
X58295Y-38398D01*
X58323Y-38413D01*
X58352Y-38443D01*
X58352Y-38563D01*
X58042Y-38188D02*
X58042Y-38128D01*
X58070Y-38098D01*
X58127Y-38068D01*
X58239Y-38053D01*
X58436Y-38053D01*
X58548Y-38068D01*
X58605Y-38098D01*
X58633Y-38128D01*
X58633Y-38188D01*
X58605Y-38218D01*
X58548Y-38248D01*
X58436Y-38263D01*
X58239Y-38263D01*
X58127Y-38248D01*
X58070Y-38218D01*
X58042Y-38188D01*
X58577Y-37739D02*
X58605Y-37754D01*
X58633Y-37799D01*
X58633Y-37829D01*
X58605Y-37874D01*
X58548Y-37904D01*
X58492Y-37919D01*
X58380Y-37934D01*
X58295Y-37934D01*
X58183Y-37919D01*
X58127Y-37904D01*
X58070Y-37874D01*
X58042Y-37829D01*
X58042Y-37799D01*
X58070Y-37754D01*
X58098Y-37739D01*
X58042Y-37409D02*
X58042Y-37229D01*
X58633Y-37319D02*
X58042Y-37319D01*
X58605Y-37004D02*
X58633Y-37034D01*
X58633Y-37094D01*
X58605Y-37124D01*
X58548Y-37139D01*
X58323Y-37139D01*
X58267Y-37124D01*
X58239Y-37094D01*
X58239Y-37034D01*
X58267Y-37004D01*
X58323Y-36989D01*
X58380Y-36989D01*
X58436Y-37139D01*
X58605Y-36869D02*
X58633Y-36839D01*
X58633Y-36779D01*
X58605Y-36749D01*
X58548Y-36734D01*
X58520Y-36734D01*
X58464Y-36749D01*
X58436Y-36779D01*
X58436Y-36824D01*
X58408Y-36854D01*
X58352Y-36869D01*
X58323Y-36869D01*
X58267Y-36854D01*
X58239Y-36824D01*
X58239Y-36779D01*
X58267Y-36749D01*
X58239Y-36644D02*
X58239Y-36524D01*
X58042Y-36599D02*
X58548Y-36599D01*
X58605Y-36584D01*
X58633Y-36554D01*
X58633Y-36524D01*
X58633Y-36419D02*
X58042Y-36419D01*
X58267Y-36419D02*
X58239Y-36389D01*
X58239Y-36329D01*
X58267Y-36299D01*
X58295Y-36284D01*
X58352Y-36269D01*
X58520Y-36269D01*
X58577Y-36284D01*
X58605Y-36299D01*
X58633Y-36329D01*
X58633Y-36389D01*
X58605Y-36419D01*
X58605Y-36014D02*
X58633Y-36044D01*
X58633Y-36104D01*
X58605Y-36134D01*
X58548Y-36149D01*
X58323Y-36149D01*
X58267Y-36134D01*
X58239Y-36104D01*
X58239Y-36044D01*
X58267Y-36014D01*
X58323Y-35999D01*
X58380Y-35999D01*
X58436Y-36149D01*
X58633Y-35729D02*
X58323Y-35729D01*
X58267Y-35744D01*
X58239Y-35774D01*
X58239Y-35834D01*
X58267Y-35864D01*
X58605Y-35729D02*
X58633Y-35759D01*
X58633Y-35834D01*
X58605Y-35864D01*
X58548Y-35879D01*
X58492Y-35879D01*
X58436Y-35864D01*
X58408Y-35834D01*
X58408Y-35759D01*
X58380Y-35729D01*
X58633Y-35579D02*
X58239Y-35579D01*
X58295Y-35579D02*
X58267Y-35564D01*
X58239Y-35534D01*
X58239Y-35489D01*
X58267Y-35459D01*
X58323Y-35444D01*
X58633Y-35444D01*
X58323Y-35444D02*
X58267Y-35429D01*
X58239Y-35399D01*
X58239Y-35354D01*
X58267Y-35324D01*
X58323Y-35309D01*
X58633Y-35309D01*
X58464Y-34934D02*
X58464Y-34784D01*
X58633Y-34964D02*
X58042Y-34859D01*
X58633Y-34754D01*
X58633Y-34514D02*
X58042Y-34514D01*
X58605Y-34514D02*
X58633Y-34544D01*
X58633Y-34604D01*
X58605Y-34634D01*
X58577Y-34649D01*
X58520Y-34664D01*
X58352Y-34664D01*
X58295Y-34649D01*
X58267Y-34634D01*
X58239Y-34604D01*
X58239Y-34544D01*
X58267Y-34514D01*
X58633Y-34229D02*
X58323Y-34229D01*
X58267Y-34244D01*
X58239Y-34274D01*
X58239Y-34334D01*
X58267Y-34364D01*
X58605Y-34229D02*
X58633Y-34259D01*
X58633Y-34334D01*
X58605Y-34364D01*
X58548Y-34379D01*
X58492Y-34379D01*
X58436Y-34364D01*
X58408Y-34334D01*
X58408Y-34259D01*
X58380Y-34229D01*
X58239Y-34079D02*
X58830Y-34079D01*
X58267Y-34079D02*
X58239Y-34049D01*
X58239Y-33989D01*
X58267Y-33959D01*
X58295Y-33944D01*
X58352Y-33929D01*
X58520Y-33929D01*
X58577Y-33944D01*
X58605Y-33959D01*
X58633Y-33989D01*
X58633Y-34049D01*
X58605Y-34079D01*
X58239Y-33839D02*
X58239Y-33719D01*
X58042Y-33794D02*
X58548Y-33794D01*
X58605Y-33779D01*
X58633Y-33749D01*
X58633Y-33719D01*
X58605Y-33494D02*
X58633Y-33524D01*
X58633Y-33584D01*
X58605Y-33614D01*
X58548Y-33629D01*
X58323Y-33629D01*
X58267Y-33614D01*
X58239Y-33584D01*
X58239Y-33524D01*
X58267Y-33494D01*
X58323Y-33479D01*
X58380Y-33479D01*
X58436Y-33629D01*
X58633Y-33344D02*
X58239Y-33344D01*
X58352Y-33344D02*
X58295Y-33329D01*
X58267Y-33314D01*
X58239Y-33284D01*
X58239Y-33254D01*
X58633Y-32744D02*
X58633Y-32924D01*
X58633Y-32834D02*
X58042Y-32834D01*
X58127Y-32864D01*
X58183Y-32894D01*
X58211Y-32924D01*
X58042Y-32549D02*
X58042Y-32519D01*
X58070Y-32489D01*
X58098Y-32474D01*
X58155Y-32459D01*
X58267Y-32444D01*
X58408Y-32444D01*
X58520Y-32459D01*
X58577Y-32474D01*
X58605Y-32489D01*
X58633Y-32519D01*
X58633Y-32549D01*
X58605Y-32579D01*
X58577Y-32594D01*
X58520Y-32609D01*
X58408Y-32624D01*
X58267Y-32624D01*
X58155Y-32609D01*
X58098Y-32594D01*
X58070Y-32579D01*
X58042Y-32549D01*
X58042Y-32339D02*
X58042Y-32129D01*
X58633Y-32264D01*
X58042Y-31874D02*
X58042Y-31934D01*
X58070Y-31964D01*
X58098Y-31979D01*
X58183Y-32009D01*
X58295Y-32024D01*
X58520Y-32024D01*
X58577Y-32009D01*
X58605Y-31994D01*
X58633Y-31964D01*
X58633Y-31904D01*
X58605Y-31874D01*
X58577Y-31859D01*
X58520Y-31844D01*
X58380Y-31844D01*
X58323Y-31859D01*
X58295Y-31874D01*
X58267Y-31904D01*
X58267Y-31964D01*
X58295Y-31994D01*
X58323Y-32009D01*
X58380Y-32024D01*
X58042Y-31574D02*
X58042Y-31634D01*
X58070Y-31664D01*
X58098Y-31679D01*
X58183Y-31709D01*
X58295Y-31724D01*
X58520Y-31724D01*
X58577Y-31709D01*
X58605Y-31694D01*
X58633Y-31664D01*
X58633Y-31604D01*
X58605Y-31574D01*
X58577Y-31559D01*
X58520Y-31544D01*
X58380Y-31544D01*
X58323Y-31559D01*
X58295Y-31574D01*
X58267Y-31604D01*
X58267Y-31664D01*
X58295Y-31694D01*
X58323Y-31709D01*
X58380Y-31724D01*
X58408Y-31409D02*
X58408Y-31169D01*
X58042Y-30959D02*
X58042Y-30929D01*
X58070Y-30899D01*
X58098Y-30884D01*
X58155Y-30869D01*
X58267Y-30854D01*
X58408Y-30854D01*
X58520Y-30869D01*
X58577Y-30884D01*
X58605Y-30899D01*
X58633Y-30929D01*
X58633Y-30959D01*
X58605Y-30989D01*
X58577Y-31004D01*
X58520Y-31019D01*
X58408Y-31034D01*
X58267Y-31034D01*
X58155Y-31019D01*
X58098Y-31004D01*
X58070Y-30989D01*
X58042Y-30959D01*
X58042Y-30659D02*
X58042Y-30629D01*
X58070Y-30599D01*
X58098Y-30584D01*
X58155Y-30569D01*
X58267Y-30554D01*
X58408Y-30554D01*
X58520Y-30569D01*
X58577Y-30584D01*
X58605Y-30599D01*
X58633Y-30629D01*
X58633Y-30659D01*
X58605Y-30689D01*
X58577Y-30704D01*
X58520Y-30719D01*
X58408Y-30734D01*
X58267Y-30734D01*
X58155Y-30719D01*
X58098Y-30704D01*
X58070Y-30689D01*
X58042Y-30659D01*
G54D10*
X34251Y-27165D02*
X34251Y-26771D01*
X59448Y-27165D02*
X59448Y-26771D01*
X59448Y-27165D02*
X59448Y-47244D01*
X54330Y-26771D02*
X59448Y-26771D01*
X54330Y-34251D02*
X54330Y-26771D01*
X39370Y-34251D02*
X54330Y-34251D01*
X39370Y-26771D02*
X39370Y-34251D01*
X34251Y-26771D02*
X39370Y-26771D01*
X34251Y-47244D02*
X34251Y-27165D01*
X34251Y-47244D02*
X59448Y-47244D01*
G54D12*
X36726Y-28937D02*
G75*
G03X36726Y-28937I-900J0D01*
G74*
G01*
X58774Y-28937D02*
G75*
G03X58774Y-28937I-900J0D01*
G74*
G01*
X36726Y-40944D02*
G75*
G03X36726Y-40944I-900J0D01*
G74*
G01*
X58774Y-40944D02*
G75*
G03X58774Y-40944I-900J0D01*
G74*
G01*
X54330Y-26771D02*
X56102Y-26771D01*
X39370Y-26771D02*
X37598Y-26771D01*
X39370Y-34251D02*
X54330Y-34251D01*
X56102Y-37401D02*
X56102Y-26771D01*
X54330Y-26771D02*
X54330Y-34251D01*
X39369Y-34251D02*
X39369Y-26771D01*
X37598Y-26771D02*
X37598Y-37401D01*
X37598Y-37401D02*
X56102Y-37401D01*
G54D13*
X36366Y-32811D02*
X35366Y-32811D01*
X35366Y-32811D02*
X35366Y-30811D01*
X35366Y-30811D02*
X36366Y-30811D01*
X36366Y-30811D02*
X36366Y-32811D01*
G54D14*
X35436Y-27917D02*
X35207Y-27917D01*
X35322Y-27917D02*
X35322Y-27517D01*
X35283Y-27575D01*
X35245Y-27613D01*
X35207Y-27632D01*
X35607Y-27917D02*
X35607Y-27517D01*
X35760Y-27517D01*
X35798Y-27537D01*
X35817Y-27556D01*
X35836Y-27594D01*
X35836Y-27651D01*
X35817Y-27689D01*
X35798Y-27708D01*
X35760Y-27727D01*
X35607Y-27727D01*
X36007Y-27917D02*
X36007Y-27517D01*
X36198Y-27917D02*
X36198Y-27517D01*
X36426Y-27917D01*
X36426Y-27517D01*
X57254Y-27556D02*
X57274Y-27537D01*
X57312Y-27517D01*
X57407Y-27517D01*
X57445Y-27537D01*
X57464Y-27556D01*
X57483Y-27594D01*
X57483Y-27632D01*
X57464Y-27689D01*
X57235Y-27917D01*
X57483Y-27917D01*
X57654Y-27917D02*
X57654Y-27517D01*
X57807Y-27517D01*
X57845Y-27537D01*
X57864Y-27556D01*
X57883Y-27594D01*
X57883Y-27651D01*
X57864Y-27689D01*
X57845Y-27708D01*
X57807Y-27727D01*
X57654Y-27727D01*
X58054Y-27917D02*
X58054Y-27517D01*
X58245Y-27917D02*
X58245Y-27517D01*
X58474Y-27917D01*
X58474Y-27517D01*
X35398Y-39659D02*
X35398Y-39925D01*
X35302Y-39506D02*
X35207Y-39792D01*
X35455Y-39792D01*
X35607Y-39925D02*
X35607Y-39525D01*
X35760Y-39525D01*
X35798Y-39544D01*
X35817Y-39563D01*
X35836Y-39602D01*
X35836Y-39659D01*
X35817Y-39697D01*
X35798Y-39716D01*
X35760Y-39735D01*
X35607Y-39735D01*
X36007Y-39925D02*
X36007Y-39525D01*
X36198Y-39925D02*
X36198Y-39525D01*
X36426Y-39925D01*
X36426Y-39525D01*
X57235Y-39525D02*
X57483Y-39525D01*
X57350Y-39678D01*
X57407Y-39678D01*
X57445Y-39697D01*
X57464Y-39716D01*
X57483Y-39754D01*
X57483Y-39849D01*
X57464Y-39887D01*
X57445Y-39906D01*
X57407Y-39925D01*
X57293Y-39925D01*
X57254Y-39906D01*
X57235Y-39887D01*
X57654Y-39925D02*
X57654Y-39525D01*
X57807Y-39525D01*
X57845Y-39544D01*
X57864Y-39563D01*
X57883Y-39602D01*
X57883Y-39659D01*
X57864Y-39697D01*
X57845Y-39716D01*
X57807Y-39735D01*
X57654Y-39735D01*
X58054Y-39925D02*
X58054Y-39525D01*
X58245Y-39925D02*
X58245Y-39525D01*
X58474Y-39925D01*
X58474Y-39525D01*
G54D15*
X35174Y-32126D02*
X34493Y-32126D01*
X34493Y-31963D01*
X34525Y-31923D01*
X34558Y-31902D01*
X34622Y-31882D01*
X34720Y-31882D01*
X34785Y-31902D01*
X34817Y-31923D01*
X34849Y-31963D01*
X34849Y-32126D01*
X35174Y-31474D02*
X35174Y-31719D01*
X35174Y-31597D02*
X34493Y-31597D01*
X34590Y-31637D01*
X34655Y-31678D01*
X34687Y-31719D01*
G54D13*
%LPC*%
G54D16*
X38653Y-43897D03*
X38653Y-45397D03*
X39153Y-43147D03*
X39153Y-44647D03*
X39653Y-43897D03*
X39653Y-45397D03*
X40153Y-43147D03*
X40153Y-44647D03*
X40653Y-43897D03*
X40653Y-45397D03*
X41153Y-43147D03*
X41153Y-44647D03*
X41653Y-43897D03*
X41653Y-45397D03*
X42153Y-43147D03*
X42153Y-44647D03*
X42653Y-43897D03*
X42653Y-45397D03*
X43153Y-43147D03*
X43153Y-44647D03*
X43653Y-43897D03*
X43653Y-45397D03*
X44153Y-43147D03*
X44153Y-44647D03*
X44653Y-43897D03*
X44653Y-45397D03*
X45153Y-43147D03*
X45153Y-44647D03*
X45653Y-43897D03*
X45653Y-45397D03*
X46153Y-43147D03*
X46153Y-44647D03*
X46653Y-43897D03*
X46653Y-45397D03*
X47153Y-43147D03*
X47153Y-44647D03*
X47653Y-43897D03*
X47653Y-45397D03*
X48153Y-43147D03*
X48153Y-44647D03*
X48653Y-43897D03*
X48653Y-45397D03*
X49153Y-43147D03*
X49153Y-44647D03*
X49653Y-43897D03*
X49653Y-45397D03*
X50153Y-43147D03*
X50153Y-44647D03*
X50653Y-43897D03*
X50653Y-45397D03*
X51153Y-43147D03*
X51153Y-44647D03*
X51653Y-43897D03*
X51653Y-45397D03*
X52153Y-43147D03*
X52153Y-44647D03*
X52653Y-43897D03*
X52653Y-45397D03*
X53153Y-43147D03*
X53153Y-44647D03*
X53653Y-43897D03*
X53653Y-45397D03*
X54153Y-43147D03*
X54153Y-44647D03*
X54653Y-43897D03*
X54653Y-45397D03*
X55153Y-43147D03*
X55153Y-44647D03*
G54D17*
X58303Y-44647D03*
X35503Y-44647D03*
G54D18*
X35826Y-28937D03*
X57874Y-28937D03*
X35826Y-40944D03*
X57874Y-40944D03*
G54D19*
X54527Y-37007D03*
G54D20*
X38385Y-27558D03*
X55314Y-27558D03*
G54D19*
X54133Y-37007D03*
X53740Y-37007D03*
X53346Y-37007D03*
X52952Y-37007D03*
X52559Y-37007D03*
X52165Y-37007D03*
X51771Y-37007D03*
X51378Y-37007D03*
X50984Y-37007D03*
X50590Y-37007D03*
X50196Y-37007D03*
X49803Y-37007D03*
X49409Y-37007D03*
X49015Y-37007D03*
X48622Y-37007D03*
X48228Y-37007D03*
X47834Y-37007D03*
X47441Y-37007D03*
X47047Y-37007D03*
X46653Y-37007D03*
X46259Y-37007D03*
X45866Y-37007D03*
X45472Y-37007D03*
X45078Y-37007D03*
X44685Y-37007D03*
X44291Y-37007D03*
X43897Y-37007D03*
X43504Y-37007D03*
X43110Y-37007D03*
X42716Y-37007D03*
X42322Y-37007D03*
X41929Y-37007D03*
X41535Y-37007D03*
X41141Y-37007D03*
X40748Y-37007D03*
X40354Y-37007D03*
X39960Y-37007D03*
X39567Y-37007D03*
X39173Y-37007D03*
G54D21*
X35866Y-32311D03*
G54D22*
X35866Y-31311D03*
M02*
