%FSLAX46Y46*%
G04 Gerber Fmt 4.6, Leading zero omitted, Abs format (unit mm)*
G04 Created by KiCad (PCBNEW (2014-10-13 BZR 5186)-product) date Do 16 Okt 2014 16:40:25 CEST*
%MOMM*%
G01*
G04 APERTURE LIST*
%ADD10C,0.150000*%
%ADD11C,0.250000*%
%ADD12R,0.599440X1.501140*%
%ADD13C,1.300480*%
%ADD14C,1.500000*%
%ADD15C,3.000000*%
%ADD16C,4.064000*%
%ADD17R,2.032000X2.032000*%
%ADD18O,2.032000X2.032000*%
%ADD19C,0.889000*%
%ADD20C,0.391000*%
%ADD21C,0.254000*%
%ADD22C,0.220000*%
G04 APERTURE END LIST*
D10*
D11*
X87476190Y-53954762D02*
X87476190Y-51954762D01*
X87952381Y-51954762D01*
X88238095Y-52050000D01*
X88428571Y-52240476D01*
X88523810Y-52430952D01*
X88619048Y-52811905D01*
X88619048Y-53097619D01*
X88523810Y-53478571D01*
X88428571Y-53669048D01*
X88238095Y-53859524D01*
X87952381Y-53954762D01*
X87476190Y-53954762D01*
X89476190Y-52907143D02*
X90142857Y-52907143D01*
X90428571Y-53954762D02*
X89476190Y-53954762D01*
X89476190Y-51954762D01*
X90428571Y-51954762D01*
X91190476Y-53859524D02*
X91476191Y-53954762D01*
X91952381Y-53954762D01*
X92142857Y-53859524D01*
X92238095Y-53764286D01*
X92333334Y-53573810D01*
X92333334Y-53383333D01*
X92238095Y-53192857D01*
X92142857Y-53097619D01*
X91952381Y-53002381D01*
X91571429Y-52907143D01*
X91380953Y-52811905D01*
X91285714Y-52716667D01*
X91190476Y-52526190D01*
X91190476Y-52335714D01*
X91285714Y-52145238D01*
X91380953Y-52050000D01*
X91571429Y-51954762D01*
X92047619Y-51954762D01*
X92333334Y-52050000D01*
X93571429Y-53002381D02*
X93571429Y-53954762D01*
X92904762Y-51954762D02*
X93571429Y-53002381D01*
X94238096Y-51954762D01*
X97095239Y-52907143D02*
X96428572Y-52907143D01*
X96428572Y-53954762D02*
X96428572Y-51954762D01*
X97380953Y-51954762D01*
X98142858Y-53954762D02*
X98142858Y-51954762D01*
X98142858Y-52907143D02*
X99285716Y-52907143D01*
X99285716Y-53954762D02*
X99285716Y-51954762D01*
X100238096Y-53192857D02*
X101761906Y-53192857D01*
X103857144Y-53764286D02*
X103761906Y-53859524D01*
X103476191Y-53954762D01*
X103285715Y-53954762D01*
X103000001Y-53859524D01*
X102809525Y-53669048D01*
X102714286Y-53478571D01*
X102619048Y-53097619D01*
X102619048Y-52811905D01*
X102714286Y-52430952D01*
X102809525Y-52240476D01*
X103000001Y-52050000D01*
X103285715Y-51954762D01*
X103476191Y-51954762D01*
X103761906Y-52050000D01*
X103857144Y-52145238D01*
X104714286Y-53954762D02*
X104714286Y-51954762D01*
X105380953Y-53383333D01*
X106047620Y-51954762D01*
X106047620Y-53954762D01*
X106904762Y-53859524D02*
X107190477Y-53954762D01*
X107666667Y-53954762D01*
X107857143Y-53859524D01*
X107952381Y-53764286D01*
X108047620Y-53573810D01*
X108047620Y-53383333D01*
X107952381Y-53192857D01*
X107857143Y-53097619D01*
X107666667Y-53002381D01*
X107285715Y-52907143D01*
X107095239Y-52811905D01*
X107000000Y-52716667D01*
X106904762Y-52526190D01*
X106904762Y-52335714D01*
X107000000Y-52145238D01*
X107095239Y-52050000D01*
X107285715Y-51954762D01*
X107761905Y-51954762D01*
X108047620Y-52050000D01*
X88523810Y-57004762D02*
X87380952Y-57004762D01*
X87952381Y-57004762D02*
X87952381Y-55004762D01*
X87761905Y-55290476D01*
X87571429Y-55480952D01*
X87380952Y-55576190D01*
X89761905Y-55004762D02*
X89952381Y-55004762D01*
X90142857Y-55100000D01*
X90238095Y-55195238D01*
X90333333Y-55385714D01*
X90428572Y-55766667D01*
X90428572Y-56242857D01*
X90333333Y-56623810D01*
X90238095Y-56814286D01*
X90142857Y-56909524D01*
X89952381Y-57004762D01*
X89761905Y-57004762D01*
X89571429Y-56909524D01*
X89476191Y-56814286D01*
X89380952Y-56623810D01*
X89285714Y-56242857D01*
X89285714Y-55766667D01*
X89380952Y-55385714D01*
X89476191Y-55195238D01*
X89571429Y-55100000D01*
X89761905Y-55004762D01*
X91095238Y-55004762D02*
X92428572Y-55004762D01*
X91571429Y-57004762D01*
X94047619Y-55004762D02*
X93666667Y-55004762D01*
X93476191Y-55100000D01*
X93380953Y-55195238D01*
X93190476Y-55480952D01*
X93095238Y-55861905D01*
X93095238Y-56623810D01*
X93190476Y-56814286D01*
X93285715Y-56909524D01*
X93476191Y-57004762D01*
X93857143Y-57004762D01*
X94047619Y-56909524D01*
X94142857Y-56814286D01*
X94238096Y-56623810D01*
X94238096Y-56147619D01*
X94142857Y-55957143D01*
X94047619Y-55861905D01*
X93857143Y-55766667D01*
X93476191Y-55766667D01*
X93285715Y-55861905D01*
X93190476Y-55957143D01*
X93095238Y-56147619D01*
X95952381Y-55004762D02*
X95571429Y-55004762D01*
X95380953Y-55100000D01*
X95285715Y-55195238D01*
X95095238Y-55480952D01*
X95000000Y-55861905D01*
X95000000Y-56623810D01*
X95095238Y-56814286D01*
X95190477Y-56909524D01*
X95380953Y-57004762D01*
X95761905Y-57004762D01*
X95952381Y-56909524D01*
X96047619Y-56814286D01*
X96142858Y-56623810D01*
X96142858Y-56147619D01*
X96047619Y-55957143D01*
X95952381Y-55861905D01*
X95761905Y-55766667D01*
X95380953Y-55766667D01*
X95190477Y-55861905D01*
X95095238Y-55957143D01*
X95000000Y-56147619D01*
X97000000Y-56242857D02*
X98523810Y-56242857D01*
X99857143Y-55004762D02*
X100047619Y-55004762D01*
X100238095Y-55100000D01*
X100333333Y-55195238D01*
X100428571Y-55385714D01*
X100523810Y-55766667D01*
X100523810Y-56242857D01*
X100428571Y-56623810D01*
X100333333Y-56814286D01*
X100238095Y-56909524D01*
X100047619Y-57004762D01*
X99857143Y-57004762D01*
X99666667Y-56909524D01*
X99571429Y-56814286D01*
X99476190Y-56623810D01*
X99380952Y-56242857D01*
X99380952Y-55766667D01*
X99476190Y-55385714D01*
X99571429Y-55195238D01*
X99666667Y-55100000D01*
X99857143Y-55004762D01*
X101761905Y-55004762D02*
X101952381Y-55004762D01*
X102142857Y-55100000D01*
X102238095Y-55195238D01*
X102333333Y-55385714D01*
X102428572Y-55766667D01*
X102428572Y-56242857D01*
X102333333Y-56623810D01*
X102238095Y-56814286D01*
X102142857Y-56909524D01*
X101952381Y-57004762D01*
X101761905Y-57004762D01*
X101571429Y-56909524D01*
X101476191Y-56814286D01*
X101380952Y-56623810D01*
X101285714Y-56242857D01*
X101285714Y-55766667D01*
X101380952Y-55385714D01*
X101476191Y-55195238D01*
X101571429Y-55100000D01*
X101761905Y-55004762D01*
X103285714Y-56242857D02*
X104809524Y-56242857D01*
X106714285Y-57004762D02*
X105761904Y-57004762D01*
X105761904Y-55004762D01*
X107761905Y-55004762D02*
X107952381Y-55004762D01*
X108142857Y-55100000D01*
X108238095Y-55195238D01*
X108333333Y-55385714D01*
X108428572Y-55766667D01*
X108428572Y-56242857D01*
X108333333Y-56623810D01*
X108238095Y-56814286D01*
X108142857Y-56909524D01*
X107952381Y-57004762D01*
X107761905Y-57004762D01*
X107571429Y-56909524D01*
X107476191Y-56814286D01*
X107380952Y-56623810D01*
X107285714Y-56242857D01*
X107285714Y-55766667D01*
X107380952Y-55385714D01*
X107476191Y-55195238D01*
X107571429Y-55100000D01*
X107761905Y-55004762D01*
X110333334Y-57004762D02*
X109190476Y-57004762D01*
X109761905Y-57004762D02*
X109761905Y-55004762D01*
X109571429Y-55290476D01*
X109380953Y-55480952D01*
X109190476Y-55576190D01*
X110904762Y-55004762D02*
X112047619Y-55004762D01*
X111476191Y-57004762D02*
X111476191Y-55004762D01*
X88619048Y-59864286D02*
X88523810Y-59959524D01*
X88238095Y-60054762D01*
X88047619Y-60054762D01*
X87761905Y-59959524D01*
X87571429Y-59769048D01*
X87476190Y-59578571D01*
X87380952Y-59197619D01*
X87380952Y-58911905D01*
X87476190Y-58530952D01*
X87571429Y-58340476D01*
X87761905Y-58150000D01*
X88047619Y-58054762D01*
X88238095Y-58054762D01*
X88523810Y-58150000D01*
X88619048Y-58245238D01*
X89761905Y-60054762D02*
X89571429Y-59959524D01*
X89476190Y-59864286D01*
X89380952Y-59673810D01*
X89380952Y-59102381D01*
X89476190Y-58911905D01*
X89571429Y-58816667D01*
X89761905Y-58721429D01*
X90047619Y-58721429D01*
X90238095Y-58816667D01*
X90333333Y-58911905D01*
X90428571Y-59102381D01*
X90428571Y-59673810D01*
X90333333Y-59864286D01*
X90238095Y-59959524D01*
X90047619Y-60054762D01*
X89761905Y-60054762D01*
X91285714Y-58721429D02*
X91285714Y-60721429D01*
X91285714Y-58816667D02*
X91476191Y-58721429D01*
X91857143Y-58721429D01*
X92047619Y-58816667D01*
X92142857Y-58911905D01*
X92238095Y-59102381D01*
X92238095Y-59673810D01*
X92142857Y-59864286D01*
X92047619Y-59959524D01*
X91857143Y-60054762D01*
X91476191Y-60054762D01*
X91285714Y-59959524D01*
X93095238Y-58721429D02*
X93095238Y-60721429D01*
X93095238Y-58816667D02*
X93285715Y-58721429D01*
X93666667Y-58721429D01*
X93857143Y-58816667D01*
X93952381Y-58911905D01*
X94047619Y-59102381D01*
X94047619Y-59673810D01*
X93952381Y-59864286D01*
X93857143Y-59959524D01*
X93666667Y-60054762D01*
X93285715Y-60054762D01*
X93095238Y-59959524D01*
X95666667Y-59959524D02*
X95476191Y-60054762D01*
X95095239Y-60054762D01*
X94904762Y-59959524D01*
X94809524Y-59769048D01*
X94809524Y-59007143D01*
X94904762Y-58816667D01*
X95095239Y-58721429D01*
X95476191Y-58721429D01*
X95666667Y-58816667D01*
X95761905Y-59007143D01*
X95761905Y-59197619D01*
X94809524Y-59388095D01*
X96619048Y-60054762D02*
X96619048Y-58721429D01*
X96619048Y-59102381D02*
X96714287Y-58911905D01*
X96809525Y-58816667D01*
X97000001Y-58721429D01*
X97190477Y-58721429D01*
X99095239Y-58054762D02*
X100238096Y-58054762D01*
X99666668Y-60054762D02*
X99666668Y-58054762D01*
X101190478Y-60054762D02*
X101000002Y-59959524D01*
X100904763Y-59864286D01*
X100809525Y-59673810D01*
X100809525Y-59102381D01*
X100904763Y-58911905D01*
X101000002Y-58816667D01*
X101190478Y-58721429D01*
X101476192Y-58721429D01*
X101666668Y-58816667D01*
X101761906Y-58911905D01*
X101857144Y-59102381D01*
X101857144Y-59673810D01*
X101761906Y-59864286D01*
X101666668Y-59959524D01*
X101476192Y-60054762D01*
X101190478Y-60054762D01*
X102714287Y-58721429D02*
X102714287Y-60721429D01*
X102714287Y-58816667D02*
X102904764Y-58721429D01*
X103285716Y-58721429D01*
X103476192Y-58816667D01*
X103571430Y-58911905D01*
X103666668Y-59102381D01*
X103666668Y-59673810D01*
X103571430Y-59864286D01*
X103476192Y-59959524D01*
X103285716Y-60054762D01*
X102904764Y-60054762D01*
X102714287Y-59959524D01*
D12*
X138499580Y-94000000D03*
D13*
X97498900Y-69999540D03*
X140498560Y-69999540D03*
D12*
X137498820Y-94000000D03*
X136500600Y-94000000D03*
X135499840Y-94000000D03*
X134499080Y-94000000D03*
X133500860Y-94000000D03*
X132500100Y-94000000D03*
X131499340Y-94000000D03*
X130501120Y-94000000D03*
X129500360Y-94000000D03*
X128499600Y-94000000D03*
X127498840Y-94000000D03*
X126500620Y-94000000D03*
X125499860Y-94000000D03*
X124499100Y-94000000D03*
X123500880Y-94000000D03*
X122500120Y-94000000D03*
X121499360Y-94000000D03*
X120501140Y-94000000D03*
X119500380Y-94000000D03*
X118499620Y-94000000D03*
X117498860Y-94000000D03*
X116500640Y-94000000D03*
X115499880Y-94000000D03*
X114499120Y-94000000D03*
X113500900Y-94000000D03*
X112500140Y-94000000D03*
X111499380Y-94000000D03*
X110501160Y-94000000D03*
X109500400Y-94000000D03*
X108499640Y-94000000D03*
X107498880Y-94000000D03*
X106500660Y-94000000D03*
X105499900Y-94000000D03*
X104499140Y-94000000D03*
X103500920Y-94000000D03*
X102500160Y-94000000D03*
X101499400Y-94000000D03*
X100501180Y-94000000D03*
X99500420Y-94000000D03*
D14*
X144500000Y-110450000D03*
X144500000Y-77650000D03*
X93500000Y-77650000D03*
X98180000Y-111500000D03*
X98180000Y-115310000D03*
X99450000Y-109595000D03*
X99450000Y-113405000D03*
X100720000Y-111500000D03*
X100720000Y-115310000D03*
X101990000Y-109595000D03*
X101990000Y-113405000D03*
X103260000Y-111500000D03*
X103260000Y-115310000D03*
X104530000Y-109595000D03*
X104530000Y-113405000D03*
X105800000Y-111500000D03*
X105800000Y-115310000D03*
X107070000Y-109595000D03*
X107070000Y-113405000D03*
X108340000Y-111500000D03*
X108340000Y-115310000D03*
X109610000Y-109595000D03*
X109610000Y-113405000D03*
X110880000Y-111500000D03*
X110880000Y-115310000D03*
X112150000Y-109595000D03*
X112150000Y-113405000D03*
X113420000Y-111500000D03*
X113420000Y-115310000D03*
X114690000Y-109595000D03*
X114690000Y-113405000D03*
X115960000Y-111500000D03*
X115960000Y-115310000D03*
X117230000Y-109595000D03*
X117230000Y-113405000D03*
X118500000Y-111500000D03*
X118500000Y-115310000D03*
X119770000Y-109595000D03*
X119770000Y-113405000D03*
X121040000Y-111500000D03*
X121040000Y-115310000D03*
X122310000Y-109595000D03*
X122310000Y-113405000D03*
X123580000Y-111500000D03*
X123580000Y-115310000D03*
X124850000Y-109595000D03*
X124850000Y-113405000D03*
X126120000Y-111500000D03*
X126120000Y-115310000D03*
X127390000Y-109595000D03*
X127390000Y-113405000D03*
X128660000Y-111500000D03*
X128660000Y-115310000D03*
X129930000Y-109595000D03*
X129930000Y-113405000D03*
X131200000Y-111500000D03*
X131200000Y-115310000D03*
X132470000Y-109595000D03*
X132470000Y-113405000D03*
X133740000Y-111500000D03*
X133740000Y-115310000D03*
X135010000Y-109595000D03*
X135010000Y-113405000D03*
X136280000Y-111500000D03*
X136280000Y-115310000D03*
X137550000Y-109595000D03*
X137550000Y-113405000D03*
X138820000Y-111500000D03*
X138820000Y-115310000D03*
X140090000Y-109595000D03*
X140090000Y-113405000D03*
D15*
X148090000Y-113405000D03*
X90180000Y-113405000D03*
D16*
X91000000Y-73500000D03*
X147000000Y-73500000D03*
X91000000Y-104000000D03*
X147000000Y-104000000D03*
D17*
X91100000Y-82070000D03*
D18*
X91100000Y-79530000D03*
D19*
X116500000Y-91700000D03*
X124800000Y-105150000D03*
X91400000Y-97100000D03*
X91250000Y-92800000D03*
X119750000Y-106400000D03*
X116277700Y-98881900D03*
X118300000Y-106400000D03*
X103500000Y-96200000D03*
X113384900Y-101146200D03*
X105500000Y-91400000D03*
X114500000Y-91200000D03*
X124499100Y-95463900D03*
X135050000Y-117200000D03*
X113200000Y-91050000D03*
X112400000Y-91850000D03*
X108619000Y-92546700D03*
X109773800Y-92548600D03*
X111499400Y-95505100D03*
X113501100Y-98724100D03*
X120400000Y-91300000D03*
X112800000Y-103350000D03*
X121550000Y-91300000D03*
X122750000Y-91300000D03*
X123900000Y-91350000D03*
X109600000Y-105500000D03*
X102000000Y-106450000D03*
X100900000Y-106950000D03*
X131338000Y-92515200D03*
X99900000Y-108000000D03*
X128603600Y-97699600D03*
X132850000Y-91900000D03*
D20*
X116500000Y-91700000D02*
X116500640Y-91700000D01*
X116500640Y-94000000D02*
X116500640Y-91700000D01*
X116500640Y-91700000D02*
X116500640Y-90549360D01*
X116500640Y-90549360D02*
X117250000Y-89800000D01*
X127498840Y-94000000D02*
X127498840Y-90451160D01*
X127498840Y-90451160D02*
X128150000Y-89800000D01*
X134499080Y-91700920D02*
X134499080Y-90500920D01*
X134499080Y-94000000D02*
X134499080Y-91700920D01*
X134499080Y-90500920D02*
X135200000Y-89800000D01*
X103950000Y-89800000D02*
X117250000Y-89800000D01*
X136400000Y-89800000D02*
X136750000Y-90150000D01*
X117250000Y-89800000D02*
X128150000Y-89800000D01*
X128150000Y-89800000D02*
X135200000Y-89800000D01*
X135200000Y-89800000D02*
X136400000Y-89800000D01*
X136750000Y-90150000D02*
X138300000Y-91700000D01*
X135010000Y-115910000D02*
X136250000Y-117150000D01*
X136250000Y-117150000D02*
X139600000Y-117150000D01*
X139600000Y-117150000D02*
X141900000Y-114850000D01*
X141900000Y-114850000D02*
X141900000Y-95300000D01*
X141900000Y-95300000D02*
X138300000Y-91700000D01*
X135010000Y-115890000D02*
X135010000Y-115910000D01*
X134200000Y-116700000D02*
X135010000Y-115890000D01*
X127500000Y-116700000D02*
X134200000Y-116700000D01*
X126120000Y-115320000D02*
X127500000Y-116700000D01*
X126120000Y-115310000D02*
X126120000Y-115320000D01*
X135010000Y-113405000D02*
X135010000Y-115890000D01*
D21*
X119770000Y-109595000D02*
X120545000Y-109595000D01*
X122650000Y-111500000D02*
X123580000Y-111500000D01*
X121100000Y-109950000D02*
X122650000Y-111500000D01*
X120799316Y-109598582D02*
X121100000Y-109950000D01*
X120545000Y-109595000D02*
X120799316Y-109598582D01*
D20*
X91400000Y-92950000D02*
X91400000Y-97100000D01*
X91250000Y-92800000D02*
X91400000Y-92950000D01*
D21*
X115499900Y-94000000D02*
X115499900Y-93434000D01*
X104530000Y-113405000D02*
X104530000Y-112770000D01*
D20*
X104530000Y-112770000D02*
X103260000Y-111500000D01*
D21*
X134499100Y-93546400D02*
X134450000Y-94000000D01*
X134499100Y-94000000D02*
X134499100Y-93546400D01*
D20*
X123550000Y-106400000D02*
X119750000Y-106400000D01*
X124800000Y-105150000D02*
X123550000Y-106400000D01*
X102550000Y-90150000D02*
X102900000Y-89800000D01*
X101550000Y-91150000D02*
X102550000Y-90150000D01*
X101499400Y-91200600D02*
X101550000Y-91150000D01*
X100501180Y-92198820D02*
X101499400Y-91200600D01*
X102900000Y-89800000D02*
X103950000Y-89800000D01*
X100501180Y-94000000D02*
X100501180Y-92198820D01*
X102500160Y-90199840D02*
X102500320Y-90200000D01*
X102500320Y-90200000D02*
X102550000Y-90200000D01*
X102550000Y-90200000D02*
X102550000Y-90150000D01*
X102500160Y-94000000D02*
X102500160Y-90199840D01*
X101499400Y-94000000D02*
X101499400Y-91200600D01*
X115499880Y-92700120D02*
X116500000Y-91700000D01*
X115499880Y-94000000D02*
X115499880Y-92700120D01*
X133500860Y-92699140D02*
X134499080Y-91700920D01*
X133500860Y-94000000D02*
X133500860Y-92699140D01*
X118499600Y-95131900D02*
X118499600Y-96660000D01*
X118499600Y-94000000D02*
X118499600Y-95131900D01*
X118499600Y-96660000D02*
X116277700Y-98881900D01*
X114690000Y-109595000D02*
X114500000Y-109400000D01*
X117600000Y-106300000D02*
X118175000Y-106300000D01*
X114500000Y-109400000D02*
X117600000Y-106300000D01*
X118175000Y-106300000D02*
X118300000Y-106548900D01*
D21*
X118300000Y-106548900D02*
X118300000Y-106400000D01*
D20*
X119500380Y-95659220D02*
X118499600Y-96660000D01*
X119500380Y-94000000D02*
X119500380Y-95659220D01*
X103500920Y-96199080D02*
X103500920Y-94000000D01*
X103500000Y-96200000D02*
X103500920Y-96199080D01*
X123580000Y-115310000D02*
X123580000Y-114675000D01*
X123580000Y-114675000D02*
X126120000Y-112135000D01*
X126120000Y-112135000D02*
X126120000Y-111500000D01*
D21*
X126120000Y-111500000D02*
X126120000Y-110865000D01*
D20*
X126120000Y-110865000D02*
X124850000Y-109595000D01*
X124850000Y-113405000D02*
X126120000Y-112135000D01*
D21*
X126120000Y-112135000D02*
X126120000Y-111500000D01*
D20*
X115960000Y-111500000D02*
X115960000Y-108956300D01*
X122809700Y-107354700D02*
X125000000Y-109545000D01*
X117561600Y-107354700D02*
X122809700Y-107354700D01*
X115960000Y-108956300D02*
X117561600Y-107354700D01*
X113384900Y-101146200D02*
X113384900Y-100172000D01*
X113384900Y-100172000D02*
X117498900Y-96058000D01*
X117498900Y-96058000D02*
X117498900Y-94000000D01*
D21*
X103500900Y-94104500D02*
X103500900Y-94000000D01*
D20*
X104499140Y-95200860D02*
X103500000Y-96200000D01*
X104499140Y-94000000D02*
X104499140Y-95200860D01*
D21*
X137498800Y-94000000D02*
X137498800Y-107106200D01*
X137498800Y-107106200D02*
X135010000Y-109595000D01*
X105499900Y-91400100D02*
X105499900Y-94000000D01*
X105500000Y-91400000D02*
X105499900Y-91400100D01*
X114499120Y-91200880D02*
X114499120Y-94000000D01*
X114500000Y-91200000D02*
X114499120Y-91200880D01*
X124499100Y-95131900D02*
X124499100Y-95463900D01*
X124499100Y-94000000D02*
X124499100Y-95131900D01*
D20*
X135050000Y-117200000D02*
X135894880Y-117800000D01*
X135894880Y-117800000D02*
X140019100Y-117800000D01*
X140019100Y-117800000D02*
X142583200Y-115235900D01*
X142583200Y-115235900D02*
X142583200Y-95033900D01*
X142583200Y-95033900D02*
X135925201Y-88375112D01*
X135925201Y-88375112D02*
X102611642Y-88379801D01*
X102611642Y-88379801D02*
X99500000Y-91500000D01*
X99500400Y-94000000D02*
X99500000Y-91500000D01*
D21*
X106500660Y-92699340D02*
X108150000Y-91050000D01*
X108150000Y-91050000D02*
X113200000Y-91050000D01*
X106500660Y-92699340D02*
X106500660Y-94000000D01*
X107498900Y-92868100D02*
X107498900Y-92498900D01*
X107498900Y-92498900D02*
X108432332Y-91565468D01*
X108432332Y-91565468D02*
X112122399Y-91572399D01*
X112122399Y-91572399D02*
X112400000Y-91850000D01*
X107498900Y-94000000D02*
X107498900Y-92868100D01*
X108499600Y-94000000D02*
X108499600Y-92666100D01*
X108499600Y-92666100D02*
X108619000Y-92546700D01*
X109500400Y-92868100D02*
X109500400Y-94000000D01*
X109500400Y-92822000D02*
X109773800Y-92548600D01*
X109500400Y-92868100D02*
X109500400Y-92822000D01*
X104799995Y-101750000D02*
X101250000Y-101750000D01*
X109500400Y-97050008D02*
X104799995Y-101750000D01*
X101250000Y-101750000D02*
X95000000Y-108016271D01*
X95000000Y-108016271D02*
X95000000Y-116150000D01*
D22*
X95000000Y-116150000D02*
X96600000Y-117750000D01*
X96600000Y-117750000D02*
X117731500Y-117750000D01*
X117731500Y-117750000D02*
X119770000Y-115711500D01*
D21*
X119770000Y-115711500D02*
X119770000Y-113405000D01*
X109500400Y-94565900D02*
X109500400Y-94000000D01*
X109500400Y-94565900D02*
X109500400Y-97050008D01*
X110501200Y-96881900D02*
X105071400Y-102311700D01*
X105071400Y-102311700D02*
X101426100Y-102311700D01*
X101426100Y-102311700D02*
X95500000Y-108237800D01*
X95500000Y-108237800D02*
X95500000Y-115950000D01*
D22*
X95500000Y-115950000D02*
X96850000Y-117300000D01*
X96850000Y-117300000D02*
X116510000Y-117300000D01*
X116510000Y-117300000D02*
X118500000Y-115310000D01*
D21*
X110501200Y-94000000D02*
X110501200Y-96881900D01*
X111499400Y-94000000D02*
X111499400Y-95505100D01*
X112500100Y-94000000D02*
X112500100Y-95674300D01*
X112500100Y-95674300D02*
X105323600Y-102850800D01*
X105323600Y-102850800D02*
X101605800Y-102850800D01*
X101605800Y-102850800D02*
X96000000Y-108456600D01*
X96000000Y-108456600D02*
X96000000Y-115750000D01*
D22*
X96000000Y-115750000D02*
X97100000Y-116850000D01*
X97100000Y-116850000D02*
X116037000Y-116850000D01*
X116037000Y-116850000D02*
X117230000Y-115657000D01*
D21*
X117230000Y-115657000D02*
X117230000Y-113405000D01*
X113501100Y-95132100D02*
X113501100Y-98724100D01*
X113500900Y-95131900D02*
X113501100Y-95132100D01*
X113500900Y-94000000D02*
X113500900Y-95131900D01*
X120451140Y-91351140D02*
X120501140Y-94000000D01*
X120400000Y-91300000D02*
X120451140Y-91351140D01*
X112800000Y-103350000D02*
X112899500Y-103350000D01*
X112899500Y-103350000D02*
X120501100Y-95835800D01*
X120501100Y-95835800D02*
X120501100Y-94000000D01*
X121499360Y-91350640D02*
X121499360Y-94000000D01*
X121550000Y-91300000D02*
X121499360Y-91350640D01*
D22*
X121499400Y-95131900D02*
X121499400Y-95952900D01*
X121499400Y-94000000D02*
X121499400Y-95131900D01*
X109790000Y-116400000D02*
X110880000Y-115310000D01*
X97400000Y-116400000D02*
X109790000Y-116400000D01*
X96500000Y-115500000D02*
X97400000Y-116400000D01*
X96500000Y-108675400D02*
X96500000Y-115500000D01*
X100996200Y-104179200D02*
X96500000Y-108675400D01*
X113273100Y-104179200D02*
X100996200Y-104179200D01*
X121499400Y-95952900D02*
X113273100Y-104179200D01*
D21*
X98575000Y-114125000D02*
X97900000Y-113450000D01*
X97900000Y-113450000D02*
X97050000Y-112600000D01*
X97050000Y-112600000D02*
X97050000Y-111900000D01*
X109610000Y-113405000D02*
X108645000Y-113405000D01*
X108645000Y-113405000D02*
X107450000Y-114600000D01*
X107450000Y-114600000D02*
X106650000Y-114600000D01*
X106650000Y-114600000D02*
X106250000Y-114200000D01*
X106250000Y-114200000D02*
X105350000Y-114200000D01*
X105350000Y-114200000D02*
X105000000Y-114550000D01*
X105000000Y-114550000D02*
X104100000Y-114550000D01*
X104100000Y-114550000D02*
X103750000Y-114200000D01*
X103750000Y-114200000D02*
X102800000Y-114200000D01*
X102800000Y-114200000D02*
X102450000Y-114550000D01*
X102450000Y-114550000D02*
X101550000Y-114550000D01*
X101550000Y-114550000D02*
X101200000Y-114200000D01*
X101200000Y-114200000D02*
X100250000Y-114200000D01*
X100250000Y-114200000D02*
X99900000Y-114550000D01*
X99900000Y-114550000D02*
X99000000Y-114550000D01*
X99000000Y-114550000D02*
X98575000Y-114125000D01*
X98575000Y-114125000D02*
X98550000Y-114100000D01*
X122500120Y-91549880D02*
X122500120Y-94000000D01*
X122750000Y-91300000D02*
X122500120Y-91549880D01*
X122500100Y-95131900D02*
X122500100Y-95745400D01*
X122500100Y-95745400D02*
X113557900Y-104687600D01*
X113557900Y-104687600D02*
X101206600Y-104687600D01*
X101206600Y-104687600D02*
X97050000Y-108844200D01*
X97050000Y-108844200D02*
X97050000Y-111900000D01*
X122500100Y-94000000D02*
X122500100Y-95131900D01*
X123500880Y-91749120D02*
X123500880Y-94000000D01*
X123900000Y-91350000D02*
X123500880Y-91749120D01*
X109600000Y-105500000D02*
X113524600Y-105493700D01*
X113524600Y-105493700D02*
X123500900Y-95467400D01*
X123500900Y-95467400D02*
X123500900Y-94000000D01*
X101990000Y-113405000D02*
X101055000Y-113405000D01*
X101055000Y-113405000D02*
X99350000Y-111700000D01*
X99350000Y-111700000D02*
X99350000Y-111050000D01*
X99350000Y-111050000D02*
X98300000Y-110000000D01*
X98300000Y-110000000D02*
X98300000Y-108400000D01*
X128499600Y-94000000D02*
X128499600Y-94668200D01*
X128499600Y-94668200D02*
X125904300Y-97263500D01*
X125904300Y-97263500D02*
X122658000Y-97263500D01*
X122658000Y-97263500D02*
X113621700Y-106299800D01*
X113621700Y-106299800D02*
X103369500Y-106299800D01*
X103369500Y-106299800D02*
X102677100Y-105607400D01*
X102677100Y-105607400D02*
X101085300Y-105607400D01*
X101085300Y-105607400D02*
X98300000Y-108400000D01*
X129500400Y-94000000D02*
X129500400Y-94609200D01*
X129500400Y-94609200D02*
X120612700Y-103496900D01*
X120612700Y-103496900D02*
X117143400Y-103496900D01*
X117143400Y-103496900D02*
X113832200Y-106808100D01*
X113832200Y-106808100D02*
X102450000Y-106800000D01*
X102450000Y-106800000D02*
X102000000Y-106450000D01*
X130501100Y-95700000D02*
X129165600Y-95700000D01*
X129165600Y-95700000D02*
X120860400Y-104005200D01*
X120860400Y-104005200D02*
X117353900Y-104005200D01*
X117353900Y-104005200D02*
X114042700Y-107316400D01*
X114042700Y-107316400D02*
X101350000Y-107300000D01*
X101350000Y-107300000D02*
X100900000Y-106950000D01*
X130501100Y-94000000D02*
X130501100Y-95700000D01*
X131338000Y-92706800D02*
X131338000Y-92515200D01*
X131499300Y-92868100D02*
X131338000Y-92706800D01*
X131499300Y-92868100D02*
X131499300Y-93434000D01*
X131499300Y-94000000D02*
X131499300Y-95987800D01*
X131499300Y-95987800D02*
X121892000Y-105595100D01*
X121892000Y-105595100D02*
X117373200Y-105595100D01*
X117373200Y-105595100D02*
X114635200Y-108333100D01*
X114635200Y-108333100D02*
X100711900Y-108333100D01*
X100711900Y-108333100D02*
X99450000Y-109595000D01*
X131499300Y-93434000D02*
X131499300Y-94000000D01*
X101100094Y-107800000D02*
X100100000Y-107800000D01*
X100100000Y-107800000D02*
X99900000Y-108000000D01*
X128603600Y-97699600D02*
X121342900Y-104960300D01*
X114253100Y-107824700D02*
X101100094Y-107800000D01*
X101100094Y-107800000D02*
X101100000Y-107800000D01*
X117117500Y-104960300D02*
X114253100Y-107824700D01*
X121342900Y-104960300D02*
X117117500Y-104960300D01*
X132500100Y-94000000D02*
X132491318Y-92350520D01*
X132491318Y-92350520D02*
X132510318Y-92350520D01*
X132510318Y-92350520D02*
X132850000Y-91900000D01*
X138499600Y-95649600D02*
X141231100Y-98381100D01*
X141231100Y-98381100D02*
X141231100Y-114515400D01*
X141231100Y-114515400D02*
X139287300Y-116459200D01*
X139287300Y-116459200D02*
X138291700Y-116459200D01*
X138291700Y-116459200D02*
X137550000Y-115717500D01*
X137550000Y-115717500D02*
X137550000Y-113405000D01*
X138499600Y-94000000D02*
X138499600Y-95649600D01*
M02*
