%FSLAX46Y46*%
G04 Gerber Fmt 4.6, Leading zero omitted, Abs format (unit mm)*
G04 Created by KiCad (PCBNEW (2014-10-13 BZR 5177)-product) date Mi 15 Okt 2014 13:31:42 CEST*
%MOMM*%
G01*
G04 APERTURE LIST*
%ADD10C,0.150000*%
%ADD11C,0.300000*%
%ADD12C,0.400000*%
%ADD13C,0.250000*%
%ADD14C,0.200000*%
%ADD15C,0.381000*%
%ADD16C,0.200660*%
%ADD17C,0.254000*%
%ADD18C,0.203200*%
%ADD19R,0.739440X1.641140*%
%ADD20C,1.440480*%
%ADD21C,3.000000*%
%ADD22C,1.640000*%
%ADD23C,3.140000*%
%ADD24C,4.204000*%
%ADD25R,2.172000X2.172000*%
%ADD26O,2.172000X2.172000*%
G04 APERTURE END LIST*
D10*
X177002200Y-166007200D02*
X177002200Y-198007200D01*
X285002200Y-198007200D01*
X285002200Y-166007200D01*
X177002200Y-166007200D01*
X10000000Y-10000000D02*
X10000000Y-200007200D01*
X287002200Y-200007200D01*
X287002200Y-10000000D01*
X10000000Y-10000000D01*
X12000000Y-12000000D02*
X12000000Y-198007200D01*
X285002200Y-198007200D01*
X285002200Y-12000000D01*
X12000000Y-12000000D01*
X60000000Y-12000000D02*
X60000000Y-10000000D01*
X110000000Y-12000000D02*
X110000000Y-10000000D01*
X160000000Y-12000000D02*
X160000000Y-10000000D01*
X210000000Y-12000000D02*
X210000000Y-10000000D01*
X260000000Y-12000000D02*
X260000000Y-10000000D01*
X35990476Y-11588095D02*
X35247619Y-11588095D01*
X35619048Y-11588095D02*
X35619048Y-10288095D01*
X35495238Y-10473810D01*
X35371429Y-10597619D01*
X35247619Y-10659524D01*
X85247619Y-10411905D02*
X85309524Y-10350000D01*
X85433333Y-10288095D01*
X85742857Y-10288095D01*
X85866667Y-10350000D01*
X85928571Y-10411905D01*
X85990476Y-10535714D01*
X85990476Y-10659524D01*
X85928571Y-10845238D01*
X85185714Y-11588095D01*
X85990476Y-11588095D01*
X135185714Y-10288095D02*
X135990476Y-10288095D01*
X135557143Y-10783333D01*
X135742857Y-10783333D01*
X135866667Y-10845238D01*
X135928571Y-10907143D01*
X135990476Y-11030952D01*
X135990476Y-11340476D01*
X135928571Y-11464286D01*
X135866667Y-11526190D01*
X135742857Y-11588095D01*
X135371429Y-11588095D01*
X135247619Y-11526190D01*
X135185714Y-11464286D01*
X185866667Y-10721429D02*
X185866667Y-11588095D01*
X185557143Y-10226190D02*
X185247619Y-11154762D01*
X186052381Y-11154762D01*
X235928571Y-10288095D02*
X235309524Y-10288095D01*
X235247619Y-10907143D01*
X235309524Y-10845238D01*
X235433333Y-10783333D01*
X235742857Y-10783333D01*
X235866667Y-10845238D01*
X235928571Y-10907143D01*
X235990476Y-11030952D01*
X235990476Y-11340476D01*
X235928571Y-11464286D01*
X235866667Y-11526190D01*
X235742857Y-11588095D01*
X235433333Y-11588095D01*
X235309524Y-11526190D01*
X235247619Y-11464286D01*
X285866667Y-10288095D02*
X285619048Y-10288095D01*
X285495238Y-10350000D01*
X285433333Y-10411905D01*
X285309524Y-10597619D01*
X285247619Y-10845238D01*
X285247619Y-11340476D01*
X285309524Y-11464286D01*
X285371429Y-11526190D01*
X285495238Y-11588095D01*
X285742857Y-11588095D01*
X285866667Y-11526190D01*
X285928571Y-11464286D01*
X285990476Y-11340476D01*
X285990476Y-11030952D01*
X285928571Y-10907143D01*
X285866667Y-10845238D01*
X285742857Y-10783333D01*
X285495238Y-10783333D01*
X285371429Y-10845238D01*
X285309524Y-10907143D01*
X285247619Y-11030952D01*
X60000000Y-198007200D02*
X60000000Y-200007200D01*
X110000000Y-198007200D02*
X110000000Y-200007200D01*
X160000000Y-198007200D02*
X160000000Y-200007200D01*
X210000000Y-198007200D02*
X210000000Y-200007200D01*
X260000000Y-198007200D02*
X260000000Y-200007200D01*
X35990476Y-199595295D02*
X35247619Y-199595295D01*
X35619048Y-199595295D02*
X35619048Y-198295295D01*
X35495238Y-198481010D01*
X35371429Y-198604819D01*
X35247619Y-198666724D01*
X85247619Y-198419105D02*
X85309524Y-198357200D01*
X85433333Y-198295295D01*
X85742857Y-198295295D01*
X85866667Y-198357200D01*
X85928571Y-198419105D01*
X85990476Y-198542914D01*
X85990476Y-198666724D01*
X85928571Y-198852438D01*
X85185714Y-199595295D01*
X85990476Y-199595295D01*
X135185714Y-198295295D02*
X135990476Y-198295295D01*
X135557143Y-198790533D01*
X135742857Y-198790533D01*
X135866667Y-198852438D01*
X135928571Y-198914343D01*
X135990476Y-199038152D01*
X135990476Y-199347676D01*
X135928571Y-199471486D01*
X135866667Y-199533390D01*
X135742857Y-199595295D01*
X135371429Y-199595295D01*
X135247619Y-199533390D01*
X135185714Y-199471486D01*
X185866667Y-198728629D02*
X185866667Y-199595295D01*
X185557143Y-198233390D02*
X185247619Y-199161962D01*
X186052381Y-199161962D01*
X235928571Y-198295295D02*
X235309524Y-198295295D01*
X235247619Y-198914343D01*
X235309524Y-198852438D01*
X235433333Y-198790533D01*
X235742857Y-198790533D01*
X235866667Y-198852438D01*
X235928571Y-198914343D01*
X235990476Y-199038152D01*
X235990476Y-199347676D01*
X235928571Y-199471486D01*
X235866667Y-199533390D01*
X235742857Y-199595295D01*
X235433333Y-199595295D01*
X235309524Y-199533390D01*
X235247619Y-199471486D01*
X285866667Y-198295295D02*
X285619048Y-198295295D01*
X285495238Y-198357200D01*
X285433333Y-198419105D01*
X285309524Y-198604819D01*
X285247619Y-198852438D01*
X285247619Y-199347676D01*
X285309524Y-199471486D01*
X285371429Y-199533390D01*
X285495238Y-199595295D01*
X285742857Y-199595295D01*
X285866667Y-199533390D01*
X285928571Y-199471486D01*
X285990476Y-199347676D01*
X285990476Y-199038152D01*
X285928571Y-198914343D01*
X285866667Y-198852438D01*
X285742857Y-198790533D01*
X285495238Y-198790533D01*
X285371429Y-198852438D01*
X285309524Y-198914343D01*
X285247619Y-199038152D01*
X10000000Y-60000000D02*
X12000000Y-60000000D01*
X10000000Y-110000000D02*
X12000000Y-110000000D01*
X10000000Y-160000000D02*
X12000000Y-160000000D01*
X10690476Y-35216667D02*
X11309524Y-35216667D01*
X10566667Y-35588095D02*
X11000000Y-34288095D01*
X11433333Y-35588095D01*
X11092857Y-84907143D02*
X11278571Y-84969048D01*
X11340476Y-85030952D01*
X11402381Y-85154762D01*
X11402381Y-85340476D01*
X11340476Y-85464286D01*
X11278571Y-85526190D01*
X11154762Y-85588095D01*
X10659524Y-85588095D01*
X10659524Y-84288095D01*
X11092857Y-84288095D01*
X11216667Y-84350000D01*
X11278571Y-84411905D01*
X11340476Y-84535714D01*
X11340476Y-84659524D01*
X11278571Y-84783333D01*
X11216667Y-84845238D01*
X11092857Y-84907143D01*
X10659524Y-84907143D01*
X11402381Y-135464286D02*
X11340476Y-135526190D01*
X11154762Y-135588095D01*
X11030952Y-135588095D01*
X10845238Y-135526190D01*
X10721429Y-135402381D01*
X10659524Y-135278571D01*
X10597619Y-135030952D01*
X10597619Y-134845238D01*
X10659524Y-134597619D01*
X10721429Y-134473810D01*
X10845238Y-134350000D01*
X11030952Y-134288095D01*
X11154762Y-134288095D01*
X11340476Y-134350000D01*
X11402381Y-134411905D01*
X10659524Y-185588095D02*
X10659524Y-184288095D01*
X10969048Y-184288095D01*
X11154762Y-184350000D01*
X11278571Y-184473810D01*
X11340476Y-184597619D01*
X11402381Y-184845238D01*
X11402381Y-185030952D01*
X11340476Y-185278571D01*
X11278571Y-185402381D01*
X11154762Y-185526190D01*
X10969048Y-185588095D01*
X10659524Y-185588095D01*
X287002200Y-60000000D02*
X285002200Y-60000000D01*
X287002200Y-110000000D02*
X285002200Y-110000000D01*
X287002200Y-160000000D02*
X285002200Y-160000000D01*
X285692676Y-35216667D02*
X286311724Y-35216667D01*
X285568867Y-35588095D02*
X286002200Y-34288095D01*
X286435533Y-35588095D01*
X286095057Y-84907143D02*
X286280771Y-84969048D01*
X286342676Y-85030952D01*
X286404581Y-85154762D01*
X286404581Y-85340476D01*
X286342676Y-85464286D01*
X286280771Y-85526190D01*
X286156962Y-85588095D01*
X285661724Y-85588095D01*
X285661724Y-84288095D01*
X286095057Y-84288095D01*
X286218867Y-84350000D01*
X286280771Y-84411905D01*
X286342676Y-84535714D01*
X286342676Y-84659524D01*
X286280771Y-84783333D01*
X286218867Y-84845238D01*
X286095057Y-84907143D01*
X285661724Y-84907143D01*
X286404581Y-135464286D02*
X286342676Y-135526190D01*
X286156962Y-135588095D01*
X286033152Y-135588095D01*
X285847438Y-135526190D01*
X285723629Y-135402381D01*
X285661724Y-135278571D01*
X285599819Y-135030952D01*
X285599819Y-134845238D01*
X285661724Y-134597619D01*
X285723629Y-134473810D01*
X285847438Y-134350000D01*
X286033152Y-134288095D01*
X286156962Y-134288095D01*
X286342676Y-134350000D01*
X286404581Y-134411905D01*
X285661724Y-185588095D02*
X285661724Y-184288095D01*
X285971248Y-184288095D01*
X286156962Y-184350000D01*
X286280771Y-184473810D01*
X286342676Y-184597619D01*
X286404581Y-184845238D01*
X286404581Y-185030952D01*
X286342676Y-185278571D01*
X286280771Y-185402381D01*
X286156962Y-185526190D01*
X285971248Y-185588095D01*
X285661724Y-185588095D01*
X200359343Y-193785771D02*
X200359343Y-192285771D01*
X200716486Y-192285771D01*
X200930771Y-192357200D01*
X201073629Y-192500057D01*
X201145057Y-192642914D01*
X201216486Y-192928629D01*
X201216486Y-193142914D01*
X201145057Y-193428629D01*
X201073629Y-193571486D01*
X200930771Y-193714343D01*
X200716486Y-193785771D01*
X200359343Y-193785771D01*
X202502200Y-193785771D02*
X202502200Y-193000057D01*
X202430771Y-192857200D01*
X202287914Y-192785771D01*
X202002200Y-192785771D01*
X201859343Y-192857200D01*
X202502200Y-193714343D02*
X202359343Y-193785771D01*
X202002200Y-193785771D01*
X201859343Y-193714343D01*
X201787914Y-193571486D01*
X201787914Y-193428629D01*
X201859343Y-193285771D01*
X202002200Y-193214343D01*
X202359343Y-193214343D01*
X202502200Y-193142914D01*
X203002200Y-192785771D02*
X203573629Y-192785771D01*
X203216486Y-192285771D02*
X203216486Y-193571486D01*
X203287914Y-193714343D01*
X203430772Y-193785771D01*
X203573629Y-193785771D01*
X204645057Y-193714343D02*
X204502200Y-193785771D01*
X204216486Y-193785771D01*
X204073629Y-193714343D01*
X204002200Y-193571486D01*
X204002200Y-193000057D01*
X204073629Y-192857200D01*
X204216486Y-192785771D01*
X204502200Y-192785771D01*
X204645057Y-192857200D01*
X204716486Y-193000057D01*
X204716486Y-193142914D01*
X204002200Y-193285771D01*
X205359343Y-193642914D02*
X205430771Y-193714343D01*
X205359343Y-193785771D01*
X205287914Y-193714343D01*
X205359343Y-193642914D01*
X205359343Y-193785771D01*
X205359343Y-192857200D02*
X205430771Y-192928629D01*
X205359343Y-193000057D01*
X205287914Y-192928629D01*
X205359343Y-192857200D01*
X205359343Y-193000057D01*
X207216486Y-193785771D02*
X207216486Y-192285771D01*
X207716486Y-193357200D01*
X208216486Y-192285771D01*
X208216486Y-193785771D01*
X208930772Y-193785771D02*
X208930772Y-192785771D01*
X208930772Y-192285771D02*
X208859343Y-192357200D01*
X208930772Y-192428629D01*
X209002200Y-192357200D01*
X208930772Y-192285771D01*
X208930772Y-192428629D01*
X211073629Y-192285771D02*
X211216486Y-192285771D01*
X211359343Y-192357200D01*
X211430772Y-192428629D01*
X211502201Y-192571486D01*
X211573629Y-192857200D01*
X211573629Y-193214343D01*
X211502201Y-193500057D01*
X211430772Y-193642914D01*
X211359343Y-193714343D01*
X211216486Y-193785771D01*
X211073629Y-193785771D01*
X210930772Y-193714343D01*
X210859343Y-193642914D01*
X210787915Y-193500057D01*
X210716486Y-193214343D01*
X210716486Y-192857200D01*
X210787915Y-192571486D01*
X210859343Y-192428629D01*
X210930772Y-192357200D01*
X211073629Y-192285771D01*
X212430772Y-192928629D02*
X212287914Y-192857200D01*
X212216486Y-192785771D01*
X212145057Y-192642914D01*
X212145057Y-192571486D01*
X212216486Y-192428629D01*
X212287914Y-192357200D01*
X212430772Y-192285771D01*
X212716486Y-192285771D01*
X212859343Y-192357200D01*
X212930772Y-192428629D01*
X213002200Y-192571486D01*
X213002200Y-192642914D01*
X212930772Y-192785771D01*
X212859343Y-192857200D01*
X212716486Y-192928629D01*
X212430772Y-192928629D01*
X212287914Y-193000057D01*
X212216486Y-193071486D01*
X212145057Y-193214343D01*
X212145057Y-193500057D01*
X212216486Y-193642914D01*
X212287914Y-193714343D01*
X212430772Y-193785771D01*
X212716486Y-193785771D01*
X212859343Y-193714343D01*
X212930772Y-193642914D01*
X213002200Y-193500057D01*
X213002200Y-193214343D01*
X212930772Y-193071486D01*
X212859343Y-193000057D01*
X212716486Y-192928629D01*
X215073628Y-192285771D02*
X215359342Y-192285771D01*
X215502200Y-192357200D01*
X215645057Y-192500057D01*
X215716485Y-192785771D01*
X215716485Y-193285771D01*
X215645057Y-193571486D01*
X215502200Y-193714343D01*
X215359342Y-193785771D01*
X215073628Y-193785771D01*
X214930771Y-193714343D01*
X214787914Y-193571486D01*
X214716485Y-193285771D01*
X214716485Y-192785771D01*
X214787914Y-192500057D01*
X214930771Y-192357200D01*
X215073628Y-192285771D01*
X216359343Y-193785771D02*
X216359343Y-192285771D01*
X216502200Y-193214343D02*
X216930771Y-193785771D01*
X216930771Y-192785771D02*
X216359343Y-193357200D01*
X217359343Y-192785771D02*
X217930772Y-192785771D01*
X217573629Y-192285771D02*
X217573629Y-193571486D01*
X217645057Y-193714343D01*
X217787915Y-193785771D01*
X217930772Y-193785771D01*
X219502200Y-192428629D02*
X219573629Y-192357200D01*
X219716486Y-192285771D01*
X220073629Y-192285771D01*
X220216486Y-192357200D01*
X220287915Y-192428629D01*
X220359343Y-192571486D01*
X220359343Y-192714343D01*
X220287915Y-192928629D01*
X219430772Y-193785771D01*
X220359343Y-193785771D01*
X221287914Y-192285771D02*
X221430771Y-192285771D01*
X221573628Y-192357200D01*
X221645057Y-192428629D01*
X221716486Y-192571486D01*
X221787914Y-192857200D01*
X221787914Y-193214343D01*
X221716486Y-193500057D01*
X221645057Y-193642914D01*
X221573628Y-193714343D01*
X221430771Y-193785771D01*
X221287914Y-193785771D01*
X221145057Y-193714343D01*
X221073628Y-193642914D01*
X221002200Y-193500057D01*
X220930771Y-193214343D01*
X220930771Y-192857200D01*
X221002200Y-192571486D01*
X221073628Y-192428629D01*
X221145057Y-192357200D01*
X221287914Y-192285771D01*
X223216485Y-193785771D02*
X222359342Y-193785771D01*
X222787914Y-193785771D02*
X222787914Y-192285771D01*
X222645057Y-192500057D01*
X222502199Y-192642914D01*
X222359342Y-192714343D01*
X224502199Y-192785771D02*
X224502199Y-193785771D01*
X224145056Y-192214343D02*
X223787913Y-193285771D01*
X224716485Y-193285771D01*
X177002200Y-194507200D02*
X285002200Y-194507200D01*
X178359343Y-196585771D02*
X178359343Y-195085771D01*
X179216486Y-196585771D02*
X178573629Y-195728629D01*
X179216486Y-195085771D02*
X178359343Y-195942914D01*
X179859343Y-196585771D02*
X179859343Y-195585771D01*
X179859343Y-195085771D02*
X179787914Y-195157200D01*
X179859343Y-195228629D01*
X179930771Y-195157200D01*
X179859343Y-195085771D01*
X179859343Y-195228629D01*
X181430772Y-196442914D02*
X181359343Y-196514343D01*
X181145057Y-196585771D01*
X181002200Y-196585771D01*
X180787915Y-196514343D01*
X180645057Y-196371486D01*
X180573629Y-196228629D01*
X180502200Y-195942914D01*
X180502200Y-195728629D01*
X180573629Y-195442914D01*
X180645057Y-195300057D01*
X180787915Y-195157200D01*
X181002200Y-195085771D01*
X181145057Y-195085771D01*
X181359343Y-195157200D01*
X181430772Y-195228629D01*
X182716486Y-196585771D02*
X182716486Y-195800057D01*
X182645057Y-195657200D01*
X182502200Y-195585771D01*
X182216486Y-195585771D01*
X182073629Y-195657200D01*
X182716486Y-196514343D02*
X182573629Y-196585771D01*
X182216486Y-196585771D01*
X182073629Y-196514343D01*
X182002200Y-196371486D01*
X182002200Y-196228629D01*
X182073629Y-196085771D01*
X182216486Y-196014343D01*
X182573629Y-196014343D01*
X182716486Y-195942914D01*
X184073629Y-196585771D02*
X184073629Y-195085771D01*
X184073629Y-196514343D02*
X183930772Y-196585771D01*
X183645058Y-196585771D01*
X183502200Y-196514343D01*
X183430772Y-196442914D01*
X183359343Y-196300057D01*
X183359343Y-195871486D01*
X183430772Y-195728629D01*
X183502200Y-195657200D01*
X183645058Y-195585771D01*
X183930772Y-195585771D01*
X184073629Y-195657200D01*
X185930772Y-195800057D02*
X186430772Y-195800057D01*
X186645058Y-196585771D02*
X185930772Y-196585771D01*
X185930772Y-195085771D01*
X186645058Y-195085771D01*
X187287915Y-196442914D02*
X187359343Y-196514343D01*
X187287915Y-196585771D01*
X187216486Y-196514343D01*
X187287915Y-196442914D01*
X187287915Y-196585771D01*
X188002201Y-196585771D02*
X188002201Y-195085771D01*
X188359344Y-195085771D01*
X188573629Y-195157200D01*
X188716487Y-195300057D01*
X188787915Y-195442914D01*
X188859344Y-195728629D01*
X188859344Y-195942914D01*
X188787915Y-196228629D01*
X188716487Y-196371486D01*
X188573629Y-196514343D01*
X188359344Y-196585771D01*
X188002201Y-196585771D01*
X189502201Y-196442914D02*
X189573629Y-196514343D01*
X189502201Y-196585771D01*
X189430772Y-196514343D01*
X189502201Y-196442914D01*
X189502201Y-196585771D01*
X190145058Y-196157200D02*
X190859344Y-196157200D01*
X190002201Y-196585771D02*
X190502201Y-195085771D01*
X191002201Y-196585771D01*
X191502201Y-196442914D02*
X191573629Y-196514343D01*
X191502201Y-196585771D01*
X191430772Y-196514343D01*
X191502201Y-196442914D01*
X191502201Y-196585771D01*
X194502201Y-196585771D02*
X194502201Y-195085771D01*
X194645058Y-196014343D02*
X195073629Y-196585771D01*
X195073629Y-195585771D02*
X194502201Y-196157200D01*
X195716487Y-196585771D02*
X195716487Y-195585771D01*
X195716487Y-195085771D02*
X195645058Y-195157200D01*
X195716487Y-195228629D01*
X195787915Y-195157200D01*
X195716487Y-195085771D01*
X195716487Y-195228629D01*
X197073630Y-196514343D02*
X196930773Y-196585771D01*
X196645059Y-196585771D01*
X196502201Y-196514343D01*
X196430773Y-196442914D01*
X196359344Y-196300057D01*
X196359344Y-195871486D01*
X196430773Y-195728629D01*
X196502201Y-195657200D01*
X196645059Y-195585771D01*
X196930773Y-195585771D01*
X197073630Y-195657200D01*
X198359344Y-196585771D02*
X198359344Y-195800057D01*
X198287915Y-195657200D01*
X198145058Y-195585771D01*
X197859344Y-195585771D01*
X197716487Y-195657200D01*
X198359344Y-196514343D02*
X198216487Y-196585771D01*
X197859344Y-196585771D01*
X197716487Y-196514343D01*
X197645058Y-196371486D01*
X197645058Y-196228629D01*
X197716487Y-196085771D01*
X197859344Y-196014343D01*
X198216487Y-196014343D01*
X198359344Y-195942914D01*
X199716487Y-196585771D02*
X199716487Y-195085771D01*
X199716487Y-196514343D02*
X199573630Y-196585771D01*
X199287916Y-196585771D01*
X199145058Y-196514343D01*
X199073630Y-196442914D01*
X199002201Y-196300057D01*
X199002201Y-195871486D01*
X199073630Y-195728629D01*
X199145058Y-195657200D01*
X199287916Y-195585771D01*
X199573630Y-195585771D01*
X199716487Y-195657200D01*
X202002201Y-197157200D02*
X201930773Y-197085771D01*
X201787916Y-196871486D01*
X201716487Y-196728629D01*
X201645058Y-196514343D01*
X201573630Y-196157200D01*
X201573630Y-195871486D01*
X201645058Y-195514343D01*
X201716487Y-195300057D01*
X201787916Y-195157200D01*
X201930773Y-194942914D01*
X202002201Y-194871486D01*
X202502201Y-195228629D02*
X202573630Y-195157200D01*
X202716487Y-195085771D01*
X203073630Y-195085771D01*
X203216487Y-195157200D01*
X203287916Y-195228629D01*
X203359344Y-195371486D01*
X203359344Y-195514343D01*
X203287916Y-195728629D01*
X202430773Y-196585771D01*
X203359344Y-196585771D01*
X204287915Y-195085771D02*
X204430772Y-195085771D01*
X204573629Y-195157200D01*
X204645058Y-195228629D01*
X204716487Y-195371486D01*
X204787915Y-195657200D01*
X204787915Y-196014343D01*
X204716487Y-196300057D01*
X204645058Y-196442914D01*
X204573629Y-196514343D01*
X204430772Y-196585771D01*
X204287915Y-196585771D01*
X204145058Y-196514343D01*
X204073629Y-196442914D01*
X204002201Y-196300057D01*
X203930772Y-196014343D01*
X203930772Y-195657200D01*
X204002201Y-195371486D01*
X204073629Y-195228629D01*
X204145058Y-195157200D01*
X204287915Y-195085771D01*
X206216486Y-196585771D02*
X205359343Y-196585771D01*
X205787915Y-196585771D02*
X205787915Y-195085771D01*
X205645058Y-195300057D01*
X205502200Y-195442914D01*
X205359343Y-195514343D01*
X207502200Y-195585771D02*
X207502200Y-196585771D01*
X207145057Y-195014343D02*
X206787914Y-196085771D01*
X207716486Y-196085771D01*
X208287914Y-196014343D02*
X209430771Y-196014343D01*
X210930771Y-196585771D02*
X210073628Y-196585771D01*
X210502200Y-196585771D02*
X210502200Y-195085771D01*
X210359343Y-195300057D01*
X210216485Y-195442914D01*
X210073628Y-195514343D01*
X211859342Y-195085771D02*
X212002199Y-195085771D01*
X212145056Y-195157200D01*
X212216485Y-195228629D01*
X212287914Y-195371486D01*
X212359342Y-195657200D01*
X212359342Y-196014343D01*
X212287914Y-196300057D01*
X212216485Y-196442914D01*
X212145056Y-196514343D01*
X212002199Y-196585771D01*
X211859342Y-196585771D01*
X211716485Y-196514343D01*
X211645056Y-196442914D01*
X211573628Y-196300057D01*
X211502199Y-196014343D01*
X211502199Y-195657200D01*
X211573628Y-195371486D01*
X211645056Y-195228629D01*
X211716485Y-195157200D01*
X211859342Y-195085771D01*
X213002199Y-196014343D02*
X214145056Y-196014343D01*
X215645056Y-196585771D02*
X214787913Y-196585771D01*
X215216485Y-196585771D02*
X215216485Y-195085771D01*
X215073628Y-195300057D01*
X214930770Y-195442914D01*
X214787913Y-195514343D01*
X216145056Y-195085771D02*
X217073627Y-195085771D01*
X216573627Y-195657200D01*
X216787913Y-195657200D01*
X216930770Y-195728629D01*
X217002199Y-195800057D01*
X217073627Y-195942914D01*
X217073627Y-196300057D01*
X217002199Y-196442914D01*
X216930770Y-196514343D01*
X216787913Y-196585771D01*
X216359341Y-196585771D01*
X216216484Y-196514343D01*
X216145056Y-196442914D01*
X219359341Y-195800057D02*
X219573627Y-195871486D01*
X219645055Y-195942914D01*
X219716484Y-196085771D01*
X219716484Y-196300057D01*
X219645055Y-196442914D01*
X219573627Y-196514343D01*
X219430769Y-196585771D01*
X218859341Y-196585771D01*
X218859341Y-195085771D01*
X219359341Y-195085771D01*
X219502198Y-195157200D01*
X219573627Y-195228629D01*
X219645055Y-195371486D01*
X219645055Y-195514343D01*
X219573627Y-195657200D01*
X219502198Y-195728629D01*
X219359341Y-195800057D01*
X218859341Y-195800057D01*
X220216484Y-195085771D02*
X221216484Y-195085771D01*
X220216484Y-196585771D01*
X221216484Y-196585771D01*
X222645055Y-196585771D02*
X222145055Y-195871486D01*
X221787912Y-196585771D02*
X221787912Y-195085771D01*
X222359340Y-195085771D01*
X222502198Y-195157200D01*
X222573626Y-195228629D01*
X222645055Y-195371486D01*
X222645055Y-195585771D01*
X222573626Y-195728629D01*
X222502198Y-195800057D01*
X222359340Y-195871486D01*
X221787912Y-195871486D01*
X225145055Y-195085771D02*
X224430769Y-195085771D01*
X224359340Y-195800057D01*
X224430769Y-195728629D01*
X224573626Y-195657200D01*
X224930769Y-195657200D01*
X225073626Y-195728629D01*
X225145055Y-195800057D01*
X225216483Y-195942914D01*
X225216483Y-196300057D01*
X225145055Y-196442914D01*
X225073626Y-196514343D01*
X224930769Y-196585771D01*
X224573626Y-196585771D01*
X224430769Y-196514343D01*
X224359340Y-196442914D01*
X226645054Y-196585771D02*
X225787911Y-196585771D01*
X226216483Y-196585771D02*
X226216483Y-195085771D01*
X226073626Y-195300057D01*
X225930768Y-195442914D01*
X225787911Y-195514343D01*
X227145054Y-195085771D02*
X228145054Y-195085771D01*
X227502197Y-196585771D01*
X228573625Y-195085771D02*
X229573625Y-195085771D01*
X228930768Y-196585771D01*
X230002196Y-197157200D02*
X230073624Y-197085771D01*
X230216481Y-196871486D01*
X230287910Y-196728629D01*
X230359339Y-196514343D01*
X230430767Y-196157200D01*
X230430767Y-195871486D01*
X230359339Y-195514343D01*
X230287910Y-195300057D01*
X230216481Y-195157200D01*
X230073624Y-194942914D01*
X230002196Y-194871486D01*
X231145053Y-196014343D02*
X232287910Y-196014343D01*
X233002196Y-195585771D02*
X233002196Y-197085771D01*
X233002196Y-195657200D02*
X233145053Y-195585771D01*
X233430767Y-195585771D01*
X233573624Y-195657200D01*
X233645053Y-195728629D01*
X233716482Y-195871486D01*
X233716482Y-196300057D01*
X233645053Y-196442914D01*
X233573624Y-196514343D01*
X233430767Y-196585771D01*
X233145053Y-196585771D01*
X233002196Y-196514343D01*
X234359339Y-196585771D02*
X234359339Y-195585771D01*
X234359339Y-195871486D02*
X234430767Y-195728629D01*
X234502196Y-195657200D01*
X234645053Y-195585771D01*
X234787910Y-195585771D01*
X235502196Y-196585771D02*
X235359338Y-196514343D01*
X235287910Y-196442914D01*
X235216481Y-196300057D01*
X235216481Y-195871486D01*
X235287910Y-195728629D01*
X235359338Y-195657200D01*
X235502196Y-195585771D01*
X235716481Y-195585771D01*
X235859338Y-195657200D01*
X235930767Y-195728629D01*
X236002196Y-195871486D01*
X236002196Y-196300057D01*
X235930767Y-196442914D01*
X235859338Y-196514343D01*
X235716481Y-196585771D01*
X235502196Y-196585771D01*
X237287910Y-196585771D02*
X237287910Y-195085771D01*
X237287910Y-196514343D02*
X237145053Y-196585771D01*
X236859339Y-196585771D01*
X236716481Y-196514343D01*
X236645053Y-196442914D01*
X236573624Y-196300057D01*
X236573624Y-195871486D01*
X236645053Y-195728629D01*
X236716481Y-195657200D01*
X236859339Y-195585771D01*
X237145053Y-195585771D01*
X237287910Y-195657200D01*
X238645053Y-195585771D02*
X238645053Y-196585771D01*
X238002196Y-195585771D02*
X238002196Y-196371486D01*
X238073624Y-196514343D01*
X238216482Y-196585771D01*
X238430767Y-196585771D01*
X238573624Y-196514343D01*
X238645053Y-196442914D01*
X240002196Y-196514343D02*
X239859339Y-196585771D01*
X239573625Y-196585771D01*
X239430767Y-196514343D01*
X239359339Y-196442914D01*
X239287910Y-196300057D01*
X239287910Y-195871486D01*
X239359339Y-195728629D01*
X239430767Y-195657200D01*
X239573625Y-195585771D01*
X239859339Y-195585771D01*
X240002196Y-195657200D01*
X240430767Y-195585771D02*
X241002196Y-195585771D01*
X240645053Y-195085771D02*
X240645053Y-196371486D01*
X240716481Y-196514343D01*
X240859339Y-196585771D01*
X241002196Y-196585771D01*
X177002200Y-191507200D02*
X285002200Y-191507200D01*
D11*
X264216486Y-193785771D02*
X263716486Y-193071486D01*
X263359343Y-193785771D02*
X263359343Y-192285771D01*
X263930771Y-192285771D01*
X264073629Y-192357200D01*
X264145057Y-192428629D01*
X264216486Y-192571486D01*
X264216486Y-192785771D01*
X264145057Y-192928629D01*
X264073629Y-193000057D01*
X263930771Y-193071486D01*
X263359343Y-193071486D01*
X265430771Y-193714343D02*
X265287914Y-193785771D01*
X265002200Y-193785771D01*
X264859343Y-193714343D01*
X264787914Y-193571486D01*
X264787914Y-193000057D01*
X264859343Y-192857200D01*
X265002200Y-192785771D01*
X265287914Y-192785771D01*
X265430771Y-192857200D01*
X265502200Y-193000057D01*
X265502200Y-193142914D01*
X264787914Y-193285771D01*
X266002200Y-192785771D02*
X266359343Y-193785771D01*
X266716485Y-192785771D01*
X267287914Y-193642914D02*
X267359342Y-193714343D01*
X267287914Y-193785771D01*
X267216485Y-193714343D01*
X267287914Y-193642914D01*
X267287914Y-193785771D01*
X267287914Y-192857200D02*
X267359342Y-192928629D01*
X267287914Y-193000057D01*
X267216485Y-192928629D01*
X267287914Y-192857200D01*
X267287914Y-193000057D01*
X269430771Y-192285771D02*
X269573628Y-192285771D01*
X269716485Y-192357200D01*
X269787914Y-192428629D01*
X269859343Y-192571486D01*
X269930771Y-192857200D01*
X269930771Y-193214343D01*
X269859343Y-193500057D01*
X269787914Y-193642914D01*
X269716485Y-193714343D01*
X269573628Y-193785771D01*
X269430771Y-193785771D01*
X269287914Y-193714343D01*
X269216485Y-193642914D01*
X269145057Y-193500057D01*
X269073628Y-193214343D01*
X269073628Y-192857200D01*
X269145057Y-192571486D01*
X269216485Y-192428629D01*
X269287914Y-192357200D01*
X269430771Y-192285771D01*
X271359342Y-193785771D02*
X270502199Y-193785771D01*
X270930771Y-193785771D02*
X270930771Y-192285771D01*
X270787914Y-192500057D01*
X270645056Y-192642914D01*
X270502199Y-192714343D01*
D10*
X178287914Y-193714343D02*
X178502200Y-193785771D01*
X178859343Y-193785771D01*
X179002200Y-193714343D01*
X179073629Y-193642914D01*
X179145057Y-193500057D01*
X179145057Y-193357200D01*
X179073629Y-193214343D01*
X179002200Y-193142914D01*
X178859343Y-193071486D01*
X178573629Y-193000057D01*
X178430771Y-192928629D01*
X178359343Y-192857200D01*
X178287914Y-192714343D01*
X178287914Y-192571486D01*
X178359343Y-192428629D01*
X178430771Y-192357200D01*
X178573629Y-192285771D01*
X178930771Y-192285771D01*
X179145057Y-192357200D01*
X179787914Y-193785771D02*
X179787914Y-192785771D01*
X179787914Y-192285771D02*
X179716485Y-192357200D01*
X179787914Y-192428629D01*
X179859342Y-192357200D01*
X179787914Y-192285771D01*
X179787914Y-192428629D01*
X180359343Y-192785771D02*
X181145057Y-192785771D01*
X180359343Y-193785771D01*
X181145057Y-193785771D01*
X182287914Y-193714343D02*
X182145057Y-193785771D01*
X181859343Y-193785771D01*
X181716486Y-193714343D01*
X181645057Y-193571486D01*
X181645057Y-193000057D01*
X181716486Y-192857200D01*
X181859343Y-192785771D01*
X182145057Y-192785771D01*
X182287914Y-192857200D01*
X182359343Y-193000057D01*
X182359343Y-193142914D01*
X181645057Y-193285771D01*
X183002200Y-193642914D02*
X183073628Y-193714343D01*
X183002200Y-193785771D01*
X182930771Y-193714343D01*
X183002200Y-193642914D01*
X183002200Y-193785771D01*
X183002200Y-192857200D02*
X183073628Y-192928629D01*
X183002200Y-193000057D01*
X182930771Y-192928629D01*
X183002200Y-192857200D01*
X183002200Y-193000057D01*
X184787914Y-193357200D02*
X185502200Y-193357200D01*
X184645057Y-193785771D02*
X185145057Y-192285771D01*
X185645057Y-193785771D01*
X186787914Y-192785771D02*
X186787914Y-193785771D01*
X186430771Y-192214343D02*
X186073628Y-193285771D01*
X187002200Y-193285771D01*
X263359343Y-196585771D02*
X263359343Y-195085771D01*
X264716486Y-196585771D02*
X264716486Y-195085771D01*
X264716486Y-196514343D02*
X264573629Y-196585771D01*
X264287915Y-196585771D01*
X264145057Y-196514343D01*
X264073629Y-196442914D01*
X264002200Y-196300057D01*
X264002200Y-195871486D01*
X264073629Y-195728629D01*
X264145057Y-195657200D01*
X264287915Y-195585771D01*
X264573629Y-195585771D01*
X264716486Y-195657200D01*
X265430772Y-196442914D02*
X265502200Y-196514343D01*
X265430772Y-196585771D01*
X265359343Y-196514343D01*
X265430772Y-196442914D01*
X265430772Y-196585771D01*
X265430772Y-195657200D02*
X265502200Y-195728629D01*
X265430772Y-195800057D01*
X265359343Y-195728629D01*
X265430772Y-195657200D01*
X265430772Y-195800057D01*
X268073629Y-196585771D02*
X267216486Y-196585771D01*
X267645058Y-196585771D02*
X267645058Y-195085771D01*
X267502201Y-195300057D01*
X267359343Y-195442914D01*
X267216486Y-195514343D01*
X269787914Y-195014343D02*
X268502200Y-196942914D01*
X271073629Y-196585771D02*
X270216486Y-196585771D01*
X270645058Y-196585771D02*
X270645058Y-195085771D01*
X270502201Y-195300057D01*
X270359343Y-195442914D01*
X270216486Y-195514343D01*
X177002200Y-187507200D02*
X285002200Y-187507200D01*
D12*
X178454581Y-188211962D02*
X179597438Y-188211962D01*
X178776010Y-190211962D02*
X179026010Y-188211962D01*
X180014105Y-190211962D02*
X180180771Y-188878629D01*
X180264105Y-188211962D02*
X180156962Y-188307200D01*
X180240295Y-188402438D01*
X180347439Y-188307200D01*
X180264105Y-188211962D01*
X180240295Y-188402438D01*
X180847438Y-188878629D02*
X181609343Y-188878629D01*
X181216486Y-188211962D02*
X181002200Y-189926248D01*
X181073630Y-190116724D01*
X181252201Y-190211962D01*
X181442677Y-190211962D01*
X182395058Y-190211962D02*
X182216487Y-190116724D01*
X182145057Y-189926248D01*
X182359343Y-188211962D01*
X183930772Y-190116724D02*
X183728391Y-190211962D01*
X183347439Y-190211962D01*
X183168867Y-190116724D01*
X183097438Y-189926248D01*
X183192676Y-189164343D01*
X183311724Y-188973867D01*
X183514105Y-188878629D01*
X183895057Y-188878629D01*
X184073629Y-188973867D01*
X184145057Y-189164343D01*
X184121248Y-189354819D01*
X183145057Y-189545295D01*
X184895057Y-190021486D02*
X184978392Y-190116724D01*
X184871248Y-190211962D01*
X184787915Y-190116724D01*
X184895057Y-190021486D01*
X184871248Y-190211962D01*
X185026010Y-188973867D02*
X185109344Y-189069105D01*
X185002200Y-189164343D01*
X184918867Y-189069105D01*
X185026010Y-188973867D01*
X185002200Y-189164343D01*
X188514106Y-190021486D02*
X188406964Y-190116724D01*
X188109344Y-190211962D01*
X187918868Y-190211962D01*
X187645059Y-190116724D01*
X187478392Y-189926248D01*
X187406963Y-189735771D01*
X187359344Y-189354819D01*
X187395058Y-189069105D01*
X187537915Y-188688152D01*
X187656964Y-188497676D01*
X187871249Y-188307200D01*
X188168868Y-188211962D01*
X188359344Y-188211962D01*
X188633154Y-188307200D01*
X188716487Y-188402438D01*
X189347439Y-190211962D02*
X189597439Y-188211962D01*
X190085534Y-189640533D01*
X190930773Y-188211962D01*
X190680773Y-190211962D01*
X191549820Y-190116724D02*
X191823630Y-190211962D01*
X192299820Y-190211962D01*
X192502201Y-190116724D01*
X192609343Y-190021486D01*
X192728392Y-189831010D01*
X192752201Y-189640533D01*
X192680772Y-189450057D01*
X192597439Y-189354819D01*
X192418867Y-189259581D01*
X192049820Y-189164343D01*
X191871249Y-189069105D01*
X191787915Y-188973867D01*
X191716486Y-188783390D01*
X191740296Y-188592914D01*
X191859343Y-188402438D01*
X191966487Y-188307200D01*
X192168868Y-188211962D01*
X192645058Y-188211962D01*
X192918868Y-188307200D01*
X196204583Y-190211962D02*
X195656963Y-189259581D01*
X195061725Y-190211962D02*
X195311725Y-188211962D01*
X196073630Y-188211962D01*
X196252201Y-188307200D01*
X196335535Y-188402438D01*
X196406964Y-188592914D01*
X196371249Y-188878629D01*
X196252202Y-189069105D01*
X196145058Y-189164343D01*
X195942677Y-189259581D01*
X195180772Y-189259581D01*
X197692678Y-188211962D02*
X198073630Y-188211962D01*
X198252201Y-188307200D01*
X198418869Y-188497676D01*
X198466487Y-188878629D01*
X198383154Y-189545295D01*
X198240297Y-189926248D01*
X198026011Y-190116724D01*
X197823630Y-190211962D01*
X197442678Y-190211962D01*
X197264107Y-190116724D01*
X197097439Y-189926248D01*
X197049820Y-189545295D01*
X197133153Y-188878629D01*
X197276011Y-188497676D01*
X197490297Y-188307200D01*
X197692678Y-188211962D01*
X200323630Y-190021486D02*
X200216488Y-190116724D01*
X199918868Y-190211962D01*
X199728392Y-190211962D01*
X199454583Y-190116724D01*
X199287916Y-189926248D01*
X199216487Y-189735771D01*
X199168868Y-189354819D01*
X199204582Y-189069105D01*
X199347439Y-188688152D01*
X199466488Y-188497676D01*
X199680773Y-188307200D01*
X199978392Y-188211962D01*
X200168868Y-188211962D01*
X200442678Y-188307200D01*
X200526011Y-188402438D01*
X202645059Y-188211962D02*
X203787916Y-188211962D01*
X202966488Y-190211962D02*
X203216488Y-188211962D01*
X204978393Y-190116724D02*
X204776012Y-190211962D01*
X204395060Y-190211962D01*
X204216488Y-190116724D01*
X204145059Y-189926248D01*
X204240297Y-189164343D01*
X204359345Y-188973867D01*
X204561726Y-188878629D01*
X204942678Y-188878629D01*
X205121250Y-188973867D01*
X205192678Y-189164343D01*
X205168869Y-189354819D01*
X204192678Y-189545295D01*
X205835536Y-190116724D02*
X206014108Y-190211962D01*
X206395060Y-190211962D01*
X206597441Y-190116724D01*
X206716488Y-189926248D01*
X206728393Y-189831010D01*
X206656964Y-189640533D01*
X206478393Y-189545295D01*
X206192679Y-189545295D01*
X206014107Y-189450057D01*
X205942678Y-189259581D01*
X205954583Y-189164343D01*
X206073631Y-188973867D01*
X206276012Y-188878629D01*
X206561726Y-188878629D01*
X206740298Y-188973867D01*
X207418869Y-188878629D02*
X208180774Y-188878629D01*
X207787917Y-188211962D02*
X207573631Y-189926248D01*
X207645061Y-190116724D01*
X207823632Y-190211962D01*
X208014108Y-190211962D01*
X208680774Y-190211962D02*
X208930774Y-188211962D01*
X208835536Y-188973867D02*
X209037917Y-188878629D01*
X209418869Y-188878629D01*
X209597441Y-188973867D01*
X209680774Y-189069105D01*
X209752202Y-189259581D01*
X209680774Y-189831010D01*
X209561726Y-190021486D01*
X209454584Y-190116724D01*
X209252203Y-190211962D01*
X208871251Y-190211962D01*
X208692679Y-190116724D01*
X211264108Y-190116724D02*
X211061727Y-190211962D01*
X210680775Y-190211962D01*
X210502203Y-190116724D01*
X210430774Y-189926248D01*
X210526012Y-189164343D01*
X210645060Y-188973867D01*
X210847441Y-188878629D01*
X211228393Y-188878629D01*
X211406965Y-188973867D01*
X211478393Y-189164343D01*
X211454584Y-189354819D01*
X210478393Y-189545295D01*
X213061727Y-190211962D02*
X213192679Y-189164343D01*
X213121251Y-188973867D01*
X212942679Y-188878629D01*
X212561727Y-188878629D01*
X212359346Y-188973867D01*
X213073632Y-190116724D02*
X212871251Y-190211962D01*
X212395061Y-190211962D01*
X212216489Y-190116724D01*
X212145060Y-189926248D01*
X212168870Y-189735771D01*
X212287917Y-189545295D01*
X212490299Y-189450057D01*
X212966489Y-189450057D01*
X213168870Y-189354819D01*
X214014108Y-190211962D02*
X214180774Y-188878629D01*
X214156965Y-189069105D02*
X214264109Y-188973867D01*
X214466489Y-188878629D01*
X214752203Y-188878629D01*
X214930775Y-188973867D01*
X215002203Y-189164343D01*
X214871251Y-190211962D01*
X215002203Y-189164343D02*
X215121251Y-188973867D01*
X215323632Y-188878629D01*
X215609346Y-188878629D01*
X215787918Y-188973867D01*
X215859346Y-189164343D01*
X215728394Y-190211962D01*
X218180775Y-189640533D02*
X219133156Y-189640533D01*
X217918871Y-190211962D02*
X218835538Y-188211962D01*
X219252205Y-190211962D01*
X220776014Y-190211962D02*
X221026014Y-188211962D01*
X220787919Y-190116724D02*
X220585538Y-190211962D01*
X220204586Y-190211962D01*
X220026015Y-190116724D01*
X219942680Y-190021486D01*
X219871252Y-189831010D01*
X219942680Y-189259581D01*
X220061728Y-189069105D01*
X220168872Y-188973867D01*
X220371252Y-188878629D01*
X220752204Y-188878629D01*
X220930776Y-188973867D01*
X222585538Y-190211962D02*
X222716490Y-189164343D01*
X222645062Y-188973867D01*
X222466490Y-188878629D01*
X222085538Y-188878629D01*
X221883157Y-188973867D01*
X222597443Y-190116724D02*
X222395062Y-190211962D01*
X221918872Y-190211962D01*
X221740300Y-190116724D01*
X221668871Y-189926248D01*
X221692681Y-189735771D01*
X221811728Y-189545295D01*
X222014110Y-189450057D01*
X222490300Y-189450057D01*
X222692681Y-189354819D01*
X223704585Y-188878629D02*
X223454585Y-190878629D01*
X223692681Y-188973867D02*
X223895062Y-188878629D01*
X224276014Y-188878629D01*
X224454586Y-188973867D01*
X224537919Y-189069105D01*
X224609347Y-189259581D01*
X224537919Y-189831010D01*
X224418871Y-190021486D01*
X224311729Y-190116724D01*
X224109348Y-190211962D01*
X223728396Y-190211962D01*
X223549824Y-190116724D01*
X225228395Y-188878629D02*
X225990300Y-188878629D01*
X225597443Y-188211962D02*
X225383157Y-189926248D01*
X225454587Y-190116724D01*
X225633158Y-190211962D01*
X225823634Y-190211962D01*
X227264110Y-190116724D02*
X227061729Y-190211962D01*
X226680777Y-190211962D01*
X226502205Y-190116724D01*
X226430776Y-189926248D01*
X226526014Y-189164343D01*
X226645062Y-188973867D01*
X226847443Y-188878629D01*
X227228395Y-188878629D01*
X227406967Y-188973867D01*
X227478395Y-189164343D01*
X227454586Y-189354819D01*
X226478395Y-189545295D01*
X228204586Y-190211962D02*
X228371252Y-188878629D01*
X228323633Y-189259581D02*
X228442682Y-189069105D01*
X228549825Y-188973867D01*
X228752205Y-188878629D01*
X228942681Y-188878629D01*
D10*
X178859343Y-185600057D02*
X178359343Y-185600057D01*
X178359343Y-186385771D02*
X178359343Y-184885771D01*
X179073629Y-184885771D01*
X179645057Y-186385771D02*
X179645057Y-185385771D01*
X179645057Y-184885771D02*
X179573628Y-184957200D01*
X179645057Y-185028629D01*
X179716485Y-184957200D01*
X179645057Y-184885771D01*
X179645057Y-185028629D01*
X180573629Y-186385771D02*
X180430771Y-186314343D01*
X180359343Y-186171486D01*
X180359343Y-184885771D01*
X181716485Y-186314343D02*
X181573628Y-186385771D01*
X181287914Y-186385771D01*
X181145057Y-186314343D01*
X181073628Y-186171486D01*
X181073628Y-185600057D01*
X181145057Y-185457200D01*
X181287914Y-185385771D01*
X181573628Y-185385771D01*
X181716485Y-185457200D01*
X181787914Y-185600057D01*
X181787914Y-185742914D01*
X181073628Y-185885771D01*
X182430771Y-186242914D02*
X182502199Y-186314343D01*
X182430771Y-186385771D01*
X182359342Y-186314343D01*
X182430771Y-186242914D01*
X182430771Y-186385771D01*
X182430771Y-185457200D02*
X182502199Y-185528629D01*
X182430771Y-185600057D01*
X182359342Y-185528629D01*
X182430771Y-185457200D01*
X182430771Y-185600057D01*
X184216485Y-186314343D02*
X184359342Y-186385771D01*
X184645057Y-186385771D01*
X184787914Y-186314343D01*
X184859342Y-186171486D01*
X184859342Y-186100057D01*
X184787914Y-185957200D01*
X184645057Y-185885771D01*
X184430771Y-185885771D01*
X184287914Y-185814343D01*
X184216485Y-185671486D01*
X184216485Y-185600057D01*
X184287914Y-185457200D01*
X184430771Y-185385771D01*
X184645057Y-185385771D01*
X184787914Y-185457200D01*
X185502200Y-186385771D02*
X185502200Y-185385771D01*
X185502200Y-184885771D02*
X185430771Y-184957200D01*
X185502200Y-185028629D01*
X185573628Y-184957200D01*
X185502200Y-184885771D01*
X185502200Y-185028629D01*
X186216486Y-185385771D02*
X186216486Y-186385771D01*
X186216486Y-185528629D02*
X186287914Y-185457200D01*
X186430772Y-185385771D01*
X186645057Y-185385771D01*
X186787914Y-185457200D01*
X186859343Y-185600057D01*
X186859343Y-186385771D01*
X188216486Y-185385771D02*
X188216486Y-186600057D01*
X188145057Y-186742914D01*
X188073629Y-186814343D01*
X187930772Y-186885771D01*
X187716486Y-186885771D01*
X187573629Y-186814343D01*
X188216486Y-186314343D02*
X188073629Y-186385771D01*
X187787915Y-186385771D01*
X187645057Y-186314343D01*
X187573629Y-186242914D01*
X187502200Y-186100057D01*
X187502200Y-185671486D01*
X187573629Y-185528629D01*
X187645057Y-185457200D01*
X187787915Y-185385771D01*
X188073629Y-185385771D01*
X188216486Y-185457200D01*
X189145058Y-186385771D02*
X189002200Y-186314343D01*
X188930772Y-186171486D01*
X188930772Y-184885771D01*
X190287914Y-186314343D02*
X190145057Y-186385771D01*
X189859343Y-186385771D01*
X189716486Y-186314343D01*
X189645057Y-186171486D01*
X189645057Y-185600057D01*
X189716486Y-185457200D01*
X189859343Y-185385771D01*
X190145057Y-185385771D01*
X190287914Y-185457200D01*
X190359343Y-185600057D01*
X190359343Y-185742914D01*
X189645057Y-185885771D01*
X191002200Y-186385771D02*
X191002200Y-185385771D01*
X191002200Y-185671486D02*
X191073628Y-185528629D01*
X191145057Y-185457200D01*
X191287914Y-185385771D01*
X191430771Y-185385771D01*
X192145057Y-186385771D02*
X192002199Y-186314343D01*
X191930771Y-186242914D01*
X191859342Y-186100057D01*
X191859342Y-185671486D01*
X191930771Y-185528629D01*
X192002199Y-185457200D01*
X192145057Y-185385771D01*
X192359342Y-185385771D01*
X192502199Y-185457200D01*
X192573628Y-185528629D01*
X192645057Y-185671486D01*
X192645057Y-186100057D01*
X192573628Y-186242914D01*
X192502199Y-186314343D01*
X192359342Y-186385771D01*
X192145057Y-186385771D01*
X193930771Y-186314343D02*
X193787914Y-186385771D01*
X193502200Y-186385771D01*
X193359342Y-186314343D01*
X193287914Y-186242914D01*
X193216485Y-186100057D01*
X193216485Y-185671486D01*
X193287914Y-185528629D01*
X193359342Y-185457200D01*
X193502200Y-185385771D01*
X193787914Y-185385771D01*
X193930771Y-185457200D01*
X194573628Y-185814343D02*
X195716485Y-185814343D01*
X197073628Y-186385771D02*
X197073628Y-185600057D01*
X197002199Y-185457200D01*
X196859342Y-185385771D01*
X196573628Y-185385771D01*
X196430771Y-185457200D01*
X197073628Y-186314343D02*
X196930771Y-186385771D01*
X196573628Y-186385771D01*
X196430771Y-186314343D01*
X196359342Y-186171486D01*
X196359342Y-186028629D01*
X196430771Y-185885771D01*
X196573628Y-185814343D01*
X196930771Y-185814343D01*
X197073628Y-185742914D01*
X198430771Y-186385771D02*
X198430771Y-184885771D01*
X198430771Y-186314343D02*
X198287914Y-186385771D01*
X198002200Y-186385771D01*
X197859342Y-186314343D01*
X197787914Y-186242914D01*
X197716485Y-186100057D01*
X197716485Y-185671486D01*
X197787914Y-185528629D01*
X197859342Y-185457200D01*
X198002200Y-185385771D01*
X198287914Y-185385771D01*
X198430771Y-185457200D01*
X199787914Y-186385771D02*
X199787914Y-185600057D01*
X199716485Y-185457200D01*
X199573628Y-185385771D01*
X199287914Y-185385771D01*
X199145057Y-185457200D01*
X199787914Y-186314343D02*
X199645057Y-186385771D01*
X199287914Y-186385771D01*
X199145057Y-186314343D01*
X199073628Y-186171486D01*
X199073628Y-186028629D01*
X199145057Y-185885771D01*
X199287914Y-185814343D01*
X199645057Y-185814343D01*
X199787914Y-185742914D01*
X200502200Y-185385771D02*
X200502200Y-186885771D01*
X200502200Y-185457200D02*
X200645057Y-185385771D01*
X200930771Y-185385771D01*
X201073628Y-185457200D01*
X201145057Y-185528629D01*
X201216486Y-185671486D01*
X201216486Y-186100057D01*
X201145057Y-186242914D01*
X201073628Y-186314343D01*
X200930771Y-186385771D01*
X200645057Y-186385771D01*
X200502200Y-186314343D01*
X201645057Y-185385771D02*
X202216486Y-185385771D01*
X201859343Y-184885771D02*
X201859343Y-186171486D01*
X201930771Y-186314343D01*
X202073629Y-186385771D01*
X202216486Y-186385771D01*
X203287914Y-186314343D02*
X203145057Y-186385771D01*
X202859343Y-186385771D01*
X202716486Y-186314343D01*
X202645057Y-186171486D01*
X202645057Y-185600057D01*
X202716486Y-185457200D01*
X202859343Y-185385771D01*
X203145057Y-185385771D01*
X203287914Y-185457200D01*
X203359343Y-185600057D01*
X203359343Y-185742914D01*
X202645057Y-185885771D01*
X204002200Y-186385771D02*
X204002200Y-185385771D01*
X204002200Y-185671486D02*
X204073628Y-185528629D01*
X204145057Y-185457200D01*
X204287914Y-185385771D01*
X204430771Y-185385771D01*
X204930771Y-185814343D02*
X206073628Y-185814343D01*
X206573628Y-185385771D02*
X207145057Y-185385771D01*
X206787914Y-184885771D02*
X206787914Y-186171486D01*
X206859342Y-186314343D01*
X207002200Y-186385771D01*
X207145057Y-186385771D01*
X207645057Y-186385771D02*
X207645057Y-184885771D01*
X207645057Y-185457200D02*
X207787914Y-185385771D01*
X208073628Y-185385771D01*
X208216485Y-185457200D01*
X208287914Y-185528629D01*
X208359343Y-185671486D01*
X208359343Y-186100057D01*
X208287914Y-186242914D01*
X208216485Y-186314343D01*
X208073628Y-186385771D01*
X207787914Y-186385771D01*
X207645057Y-186314343D01*
X208930771Y-185028629D02*
X209002200Y-184957200D01*
X209145057Y-184885771D01*
X209502200Y-184885771D01*
X209645057Y-184957200D01*
X209716486Y-185028629D01*
X209787914Y-185171486D01*
X209787914Y-185314343D01*
X209716486Y-185528629D01*
X208859343Y-186385771D01*
X209787914Y-186385771D01*
X210430771Y-186242914D02*
X210502199Y-186314343D01*
X210430771Y-186385771D01*
X210359342Y-186314343D01*
X210430771Y-186242914D01*
X210430771Y-186385771D01*
X211145057Y-186385771D02*
X211145057Y-184885771D01*
X211287914Y-185814343D02*
X211716485Y-186385771D01*
X211716485Y-185385771D02*
X211145057Y-185957200D01*
X212359343Y-186385771D02*
X212359343Y-185385771D01*
X212359343Y-184885771D02*
X212287914Y-184957200D01*
X212359343Y-185028629D01*
X212430771Y-184957200D01*
X212359343Y-184885771D01*
X212359343Y-185028629D01*
X213716486Y-186314343D02*
X213573629Y-186385771D01*
X213287915Y-186385771D01*
X213145057Y-186314343D01*
X213073629Y-186242914D01*
X213002200Y-186100057D01*
X213002200Y-185671486D01*
X213073629Y-185528629D01*
X213145057Y-185457200D01*
X213287915Y-185385771D01*
X213573629Y-185385771D01*
X213716486Y-185457200D01*
X215002200Y-186385771D02*
X215002200Y-185600057D01*
X214930771Y-185457200D01*
X214787914Y-185385771D01*
X214502200Y-185385771D01*
X214359343Y-185457200D01*
X215002200Y-186314343D02*
X214859343Y-186385771D01*
X214502200Y-186385771D01*
X214359343Y-186314343D01*
X214287914Y-186171486D01*
X214287914Y-186028629D01*
X214359343Y-185885771D01*
X214502200Y-185814343D01*
X214859343Y-185814343D01*
X215002200Y-185742914D01*
X216359343Y-186385771D02*
X216359343Y-184885771D01*
X216359343Y-186314343D02*
X216216486Y-186385771D01*
X215930772Y-186385771D01*
X215787914Y-186314343D01*
X215716486Y-186242914D01*
X215645057Y-186100057D01*
X215645057Y-185671486D01*
X215716486Y-185528629D01*
X215787914Y-185457200D01*
X215930772Y-185385771D01*
X216216486Y-185385771D01*
X216359343Y-185457200D01*
X216716486Y-186528629D02*
X217859343Y-186528629D01*
X218216486Y-185385771D02*
X218216486Y-186885771D01*
X218216486Y-185457200D02*
X218359343Y-185385771D01*
X218645057Y-185385771D01*
X218787914Y-185457200D01*
X218859343Y-185528629D01*
X218930772Y-185671486D01*
X218930772Y-186100057D01*
X218859343Y-186242914D01*
X218787914Y-186314343D01*
X218645057Y-186385771D01*
X218359343Y-186385771D01*
X218216486Y-186314343D01*
X220216486Y-186314343D02*
X220073629Y-186385771D01*
X219787915Y-186385771D01*
X219645057Y-186314343D01*
X219573629Y-186242914D01*
X219502200Y-186100057D01*
X219502200Y-185671486D01*
X219573629Y-185528629D01*
X219645057Y-185457200D01*
X219787915Y-185385771D01*
X220073629Y-185385771D01*
X220216486Y-185457200D01*
X220859343Y-186385771D02*
X220859343Y-184885771D01*
X220859343Y-185457200D02*
X221002200Y-185385771D01*
X221287914Y-185385771D01*
X221430771Y-185457200D01*
X221502200Y-185528629D01*
X221573629Y-185671486D01*
X221573629Y-186100057D01*
X221502200Y-186242914D01*
X221430771Y-186314343D01*
X221287914Y-186385771D01*
X221002200Y-186385771D01*
X220859343Y-186314343D01*
X177002200Y-181507200D02*
X285002200Y-181507200D01*
X178287914Y-183614343D02*
X178502200Y-183685771D01*
X178859343Y-183685771D01*
X179002200Y-183614343D01*
X179073629Y-183542914D01*
X179145057Y-183400057D01*
X179145057Y-183257200D01*
X179073629Y-183114343D01*
X179002200Y-183042914D01*
X178859343Y-182971486D01*
X178573629Y-182900057D01*
X178430771Y-182828629D01*
X178359343Y-182757200D01*
X178287914Y-182614343D01*
X178287914Y-182471486D01*
X178359343Y-182328629D01*
X178430771Y-182257200D01*
X178573629Y-182185771D01*
X178930771Y-182185771D01*
X179145057Y-182257200D01*
X179787914Y-183685771D02*
X179787914Y-182185771D01*
X180430771Y-183685771D02*
X180430771Y-182900057D01*
X180359342Y-182757200D01*
X180216485Y-182685771D01*
X180002200Y-182685771D01*
X179859342Y-182757200D01*
X179787914Y-182828629D01*
X181716485Y-183614343D02*
X181573628Y-183685771D01*
X181287914Y-183685771D01*
X181145057Y-183614343D01*
X181073628Y-183471486D01*
X181073628Y-182900057D01*
X181145057Y-182757200D01*
X181287914Y-182685771D01*
X181573628Y-182685771D01*
X181716485Y-182757200D01*
X181787914Y-182900057D01*
X181787914Y-183042914D01*
X181073628Y-183185771D01*
X183002199Y-183614343D02*
X182859342Y-183685771D01*
X182573628Y-183685771D01*
X182430771Y-183614343D01*
X182359342Y-183471486D01*
X182359342Y-182900057D01*
X182430771Y-182757200D01*
X182573628Y-182685771D01*
X182859342Y-182685771D01*
X183002199Y-182757200D01*
X183073628Y-182900057D01*
X183073628Y-183042914D01*
X182359342Y-183185771D01*
X183502199Y-182685771D02*
X184073628Y-182685771D01*
X183716485Y-182185771D02*
X183716485Y-183471486D01*
X183787913Y-183614343D01*
X183930771Y-183685771D01*
X184073628Y-183685771D01*
X184573628Y-183542914D02*
X184645056Y-183614343D01*
X184573628Y-183685771D01*
X184502199Y-183614343D01*
X184573628Y-183542914D01*
X184573628Y-183685771D01*
X184573628Y-182757200D02*
X184645056Y-182828629D01*
X184573628Y-182900057D01*
X184502199Y-182828629D01*
X184573628Y-182757200D01*
X184573628Y-182900057D01*
D11*
X178359343Y-180685771D02*
X178359343Y-179185771D01*
X178716486Y-179185771D01*
X178930771Y-179257200D01*
X179073629Y-179400057D01*
X179145057Y-179542914D01*
X179216486Y-179828629D01*
X179216486Y-180042914D01*
X179145057Y-180328629D01*
X179073629Y-180471486D01*
X178930771Y-180614343D01*
X178716486Y-180685771D01*
X178359343Y-180685771D01*
X179859343Y-179900057D02*
X180359343Y-179900057D01*
X180573629Y-180685771D02*
X179859343Y-180685771D01*
X179859343Y-179185771D01*
X180573629Y-179185771D01*
X181145057Y-180614343D02*
X181359343Y-180685771D01*
X181716486Y-180685771D01*
X181859343Y-180614343D01*
X181930772Y-180542914D01*
X182002200Y-180400057D01*
X182002200Y-180257200D01*
X181930772Y-180114343D01*
X181859343Y-180042914D01*
X181716486Y-179971486D01*
X181430772Y-179900057D01*
X181287914Y-179828629D01*
X181216486Y-179757200D01*
X181145057Y-179614343D01*
X181145057Y-179471486D01*
X181216486Y-179328629D01*
X181287914Y-179257200D01*
X181430772Y-179185771D01*
X181787914Y-179185771D01*
X182002200Y-179257200D01*
X182930771Y-179971486D02*
X182930771Y-180685771D01*
X182430771Y-179185771D02*
X182930771Y-179971486D01*
X183430771Y-179185771D01*
D10*
X197002200Y-191507200D02*
X197002200Y-194507200D01*
X261002200Y-191507200D02*
X261002200Y-198007200D01*
D13*
X107276190Y-53154762D02*
X107276190Y-51154762D01*
X107752381Y-51154762D01*
X108038095Y-51250000D01*
X108228571Y-51440476D01*
X108323810Y-51630952D01*
X108419048Y-52011905D01*
X108419048Y-52297619D01*
X108323810Y-52678571D01*
X108228571Y-52869048D01*
X108038095Y-53059524D01*
X107752381Y-53154762D01*
X107276190Y-53154762D01*
X109276190Y-52107143D02*
X109942857Y-52107143D01*
X110228571Y-53154762D02*
X109276190Y-53154762D01*
X109276190Y-51154762D01*
X110228571Y-51154762D01*
X110990476Y-53059524D02*
X111276191Y-53154762D01*
X111752381Y-53154762D01*
X111942857Y-53059524D01*
X112038095Y-52964286D01*
X112133334Y-52773810D01*
X112133334Y-52583333D01*
X112038095Y-52392857D01*
X111942857Y-52297619D01*
X111752381Y-52202381D01*
X111371429Y-52107143D01*
X111180953Y-52011905D01*
X111085714Y-51916667D01*
X110990476Y-51726190D01*
X110990476Y-51535714D01*
X111085714Y-51345238D01*
X111180953Y-51250000D01*
X111371429Y-51154762D01*
X111847619Y-51154762D01*
X112133334Y-51250000D01*
X113371429Y-52202381D02*
X113371429Y-53154762D01*
X112704762Y-51154762D02*
X113371429Y-52202381D01*
X114038096Y-51154762D01*
X116895239Y-52107143D02*
X116228572Y-52107143D01*
X116228572Y-53154762D02*
X116228572Y-51154762D01*
X117180953Y-51154762D01*
X117942858Y-53154762D02*
X117942858Y-51154762D01*
X117942858Y-52107143D02*
X119085716Y-52107143D01*
X119085716Y-53154762D02*
X119085716Y-51154762D01*
X120038096Y-52392857D02*
X121561906Y-52392857D01*
X123657144Y-52964286D02*
X123561906Y-53059524D01*
X123276191Y-53154762D01*
X123085715Y-53154762D01*
X122800001Y-53059524D01*
X122609525Y-52869048D01*
X122514286Y-52678571D01*
X122419048Y-52297619D01*
X122419048Y-52011905D01*
X122514286Y-51630952D01*
X122609525Y-51440476D01*
X122800001Y-51250000D01*
X123085715Y-51154762D01*
X123276191Y-51154762D01*
X123561906Y-51250000D01*
X123657144Y-51345238D01*
X124514286Y-53154762D02*
X124514286Y-51154762D01*
X125180953Y-52583333D01*
X125847620Y-51154762D01*
X125847620Y-53154762D01*
X126704762Y-53059524D02*
X126990477Y-53154762D01*
X127466667Y-53154762D01*
X127657143Y-53059524D01*
X127752381Y-52964286D01*
X127847620Y-52773810D01*
X127847620Y-52583333D01*
X127752381Y-52392857D01*
X127657143Y-52297619D01*
X127466667Y-52202381D01*
X127085715Y-52107143D01*
X126895239Y-52011905D01*
X126800000Y-51916667D01*
X126704762Y-51726190D01*
X126704762Y-51535714D01*
X126800000Y-51345238D01*
X126895239Y-51250000D01*
X127085715Y-51154762D01*
X127561905Y-51154762D01*
X127847620Y-51250000D01*
X108323810Y-56204762D02*
X107180952Y-56204762D01*
X107752381Y-56204762D02*
X107752381Y-54204762D01*
X107561905Y-54490476D01*
X107371429Y-54680952D01*
X107180952Y-54776190D01*
X109561905Y-54204762D02*
X109752381Y-54204762D01*
X109942857Y-54300000D01*
X110038095Y-54395238D01*
X110133333Y-54585714D01*
X110228572Y-54966667D01*
X110228572Y-55442857D01*
X110133333Y-55823810D01*
X110038095Y-56014286D01*
X109942857Y-56109524D01*
X109752381Y-56204762D01*
X109561905Y-56204762D01*
X109371429Y-56109524D01*
X109276191Y-56014286D01*
X109180952Y-55823810D01*
X109085714Y-55442857D01*
X109085714Y-54966667D01*
X109180952Y-54585714D01*
X109276191Y-54395238D01*
X109371429Y-54300000D01*
X109561905Y-54204762D01*
X110895238Y-54204762D02*
X112228572Y-54204762D01*
X111371429Y-56204762D01*
X113847619Y-54204762D02*
X113466667Y-54204762D01*
X113276191Y-54300000D01*
X113180953Y-54395238D01*
X112990476Y-54680952D01*
X112895238Y-55061905D01*
X112895238Y-55823810D01*
X112990476Y-56014286D01*
X113085715Y-56109524D01*
X113276191Y-56204762D01*
X113657143Y-56204762D01*
X113847619Y-56109524D01*
X113942857Y-56014286D01*
X114038096Y-55823810D01*
X114038096Y-55347619D01*
X113942857Y-55157143D01*
X113847619Y-55061905D01*
X113657143Y-54966667D01*
X113276191Y-54966667D01*
X113085715Y-55061905D01*
X112990476Y-55157143D01*
X112895238Y-55347619D01*
X115752381Y-54204762D02*
X115371429Y-54204762D01*
X115180953Y-54300000D01*
X115085715Y-54395238D01*
X114895238Y-54680952D01*
X114800000Y-55061905D01*
X114800000Y-55823810D01*
X114895238Y-56014286D01*
X114990477Y-56109524D01*
X115180953Y-56204762D01*
X115561905Y-56204762D01*
X115752381Y-56109524D01*
X115847619Y-56014286D01*
X115942858Y-55823810D01*
X115942858Y-55347619D01*
X115847619Y-55157143D01*
X115752381Y-55061905D01*
X115561905Y-54966667D01*
X115180953Y-54966667D01*
X114990477Y-55061905D01*
X114895238Y-55157143D01*
X114800000Y-55347619D01*
X116800000Y-55442857D02*
X118323810Y-55442857D01*
X119657143Y-54204762D02*
X119847619Y-54204762D01*
X120038095Y-54300000D01*
X120133333Y-54395238D01*
X120228571Y-54585714D01*
X120323810Y-54966667D01*
X120323810Y-55442857D01*
X120228571Y-55823810D01*
X120133333Y-56014286D01*
X120038095Y-56109524D01*
X119847619Y-56204762D01*
X119657143Y-56204762D01*
X119466667Y-56109524D01*
X119371429Y-56014286D01*
X119276190Y-55823810D01*
X119180952Y-55442857D01*
X119180952Y-54966667D01*
X119276190Y-54585714D01*
X119371429Y-54395238D01*
X119466667Y-54300000D01*
X119657143Y-54204762D01*
X122228572Y-56204762D02*
X121085714Y-56204762D01*
X121657143Y-56204762D02*
X121657143Y-54204762D01*
X121466667Y-54490476D01*
X121276191Y-54680952D01*
X121085714Y-54776190D01*
X123085714Y-55442857D02*
X124609524Y-55442857D01*
X125561904Y-56204762D02*
X125561904Y-54204762D01*
X126323809Y-54204762D01*
X126514285Y-54300000D01*
X126609524Y-54395238D01*
X126704762Y-54585714D01*
X126704762Y-54871429D01*
X126609524Y-55061905D01*
X126514285Y-55157143D01*
X126323809Y-55252381D01*
X125561904Y-55252381D01*
X127942857Y-54204762D02*
X128323809Y-54204762D01*
X128514285Y-54300000D01*
X128704762Y-54490476D01*
X128800000Y-54871429D01*
X128800000Y-55538095D01*
X128704762Y-55919048D01*
X128514285Y-56109524D01*
X128323809Y-56204762D01*
X127942857Y-56204762D01*
X127752381Y-56109524D01*
X127561904Y-55919048D01*
X127466666Y-55538095D01*
X127466666Y-54871429D01*
X127561904Y-54490476D01*
X127752381Y-54300000D01*
X127942857Y-54204762D01*
X129561904Y-56109524D02*
X129847619Y-56204762D01*
X130323809Y-56204762D01*
X130514285Y-56109524D01*
X130609523Y-56014286D01*
X130704762Y-55823810D01*
X130704762Y-55633333D01*
X130609523Y-55442857D01*
X130514285Y-55347619D01*
X130323809Y-55252381D01*
X129942857Y-55157143D01*
X129752381Y-55061905D01*
X129657142Y-54966667D01*
X129561904Y-54776190D01*
X129561904Y-54585714D01*
X129657142Y-54395238D01*
X129752381Y-54300000D01*
X129942857Y-54204762D01*
X130419047Y-54204762D01*
X130704762Y-54300000D01*
X132609524Y-56204762D02*
X131466666Y-56204762D01*
X132038095Y-56204762D02*
X132038095Y-54204762D01*
X131847619Y-54490476D01*
X131657143Y-54680952D01*
X131466666Y-54776190D01*
X107180952Y-59159524D02*
X107466667Y-59254762D01*
X107942857Y-59254762D01*
X108133333Y-59159524D01*
X108228571Y-59064286D01*
X108323810Y-58873810D01*
X108323810Y-58683333D01*
X108228571Y-58492857D01*
X108133333Y-58397619D01*
X107942857Y-58302381D01*
X107561905Y-58207143D01*
X107371429Y-58111905D01*
X107276190Y-58016667D01*
X107180952Y-57826190D01*
X107180952Y-57635714D01*
X107276190Y-57445238D01*
X107371429Y-57350000D01*
X107561905Y-57254762D01*
X108038095Y-57254762D01*
X108323810Y-57350000D01*
X109180952Y-59254762D02*
X109180952Y-57921429D01*
X109180952Y-57254762D02*
X109085714Y-57350000D01*
X109180952Y-57445238D01*
X109276191Y-57350000D01*
X109180952Y-57254762D01*
X109180952Y-57445238D01*
X110419048Y-59254762D02*
X110228572Y-59159524D01*
X110133333Y-58969048D01*
X110133333Y-57254762D01*
X111180952Y-59254762D02*
X111180952Y-57254762D01*
X111371429Y-58492857D02*
X111942857Y-59254762D01*
X111942857Y-57921429D02*
X111180952Y-58683333D01*
X114228572Y-59159524D02*
X114514287Y-59254762D01*
X114990477Y-59254762D01*
X115180953Y-59159524D01*
X115276191Y-59064286D01*
X115371430Y-58873810D01*
X115371430Y-58683333D01*
X115276191Y-58492857D01*
X115180953Y-58397619D01*
X114990477Y-58302381D01*
X114609525Y-58207143D01*
X114419049Y-58111905D01*
X114323810Y-58016667D01*
X114228572Y-57826190D01*
X114228572Y-57635714D01*
X114323810Y-57445238D01*
X114419049Y-57350000D01*
X114609525Y-57254762D01*
X115085715Y-57254762D01*
X115371430Y-57350000D01*
X117085715Y-59159524D02*
X116895239Y-59254762D01*
X116514287Y-59254762D01*
X116323811Y-59159524D01*
X116228572Y-59064286D01*
X116133334Y-58873810D01*
X116133334Y-58302381D01*
X116228572Y-58111905D01*
X116323811Y-58016667D01*
X116514287Y-57921429D01*
X116895239Y-57921429D01*
X117085715Y-58016667D01*
X117942858Y-59254762D02*
X117942858Y-57921429D01*
X117942858Y-58302381D02*
X118038097Y-58111905D01*
X118133335Y-58016667D01*
X118323811Y-57921429D01*
X118514287Y-57921429D01*
X119942858Y-59159524D02*
X119752382Y-59254762D01*
X119371430Y-59254762D01*
X119180953Y-59159524D01*
X119085715Y-58969048D01*
X119085715Y-58207143D01*
X119180953Y-58016667D01*
X119371430Y-57921429D01*
X119752382Y-57921429D01*
X119942858Y-58016667D01*
X120038096Y-58207143D01*
X120038096Y-58397619D01*
X119085715Y-58588095D01*
X121657144Y-59159524D02*
X121466668Y-59254762D01*
X121085716Y-59254762D01*
X120895239Y-59159524D01*
X120800001Y-58969048D01*
X120800001Y-58207143D01*
X120895239Y-58016667D01*
X121085716Y-57921429D01*
X121466668Y-57921429D01*
X121657144Y-58016667D01*
X121752382Y-58207143D01*
X121752382Y-58397619D01*
X120800001Y-58588095D01*
X122609525Y-57921429D02*
X122609525Y-59254762D01*
X122609525Y-58111905D02*
X122704764Y-58016667D01*
X122895240Y-57921429D01*
X123180954Y-57921429D01*
X123371430Y-58016667D01*
X123466668Y-58207143D01*
X123466668Y-59254762D01*
X125657145Y-57254762D02*
X126800002Y-57254762D01*
X126228574Y-59254762D02*
X126228574Y-57254762D01*
X127752384Y-59254762D02*
X127561908Y-59159524D01*
X127466669Y-59064286D01*
X127371431Y-58873810D01*
X127371431Y-58302381D01*
X127466669Y-58111905D01*
X127561908Y-58016667D01*
X127752384Y-57921429D01*
X128038098Y-57921429D01*
X128228574Y-58016667D01*
X128323812Y-58111905D01*
X128419050Y-58302381D01*
X128419050Y-58873810D01*
X128323812Y-59064286D01*
X128228574Y-59159524D01*
X128038098Y-59254762D01*
X127752384Y-59254762D01*
X129276193Y-57921429D02*
X129276193Y-59921429D01*
X129276193Y-58016667D02*
X129466670Y-57921429D01*
X129847622Y-57921429D01*
X130038098Y-58016667D01*
X130133336Y-58111905D01*
X130228574Y-58302381D01*
X130228574Y-58873810D01*
X130133336Y-59064286D01*
X130038098Y-59159524D01*
X129847622Y-59254762D01*
X129466670Y-59254762D01*
X129276193Y-59159524D01*
D14*
X147328571Y-95223812D02*
X145828571Y-95223812D01*
X145828571Y-95033336D01*
X145900000Y-94919050D01*
X146042857Y-94842859D01*
X146185714Y-94804764D01*
X146471429Y-94766669D01*
X146685714Y-94766669D01*
X146971429Y-94804764D01*
X147114286Y-94842859D01*
X147257143Y-94919050D01*
X147328571Y-95033336D01*
X147328571Y-95223812D01*
X146542857Y-94423812D02*
X146542857Y-94157145D01*
X147328571Y-94042859D02*
X147328571Y-94423812D01*
X145828571Y-94423812D01*
X145828571Y-94042859D01*
X147257143Y-93738097D02*
X147328571Y-93623811D01*
X147328571Y-93433335D01*
X147257143Y-93357145D01*
X147185714Y-93319049D01*
X147042857Y-93280954D01*
X146900000Y-93280954D01*
X146757143Y-93319049D01*
X146685714Y-93357145D01*
X146614286Y-93433335D01*
X146542857Y-93585716D01*
X146471429Y-93661907D01*
X146400000Y-93700002D01*
X146257143Y-93738097D01*
X146114286Y-93738097D01*
X145971429Y-93700002D01*
X145900000Y-93661907D01*
X145828571Y-93585716D01*
X145828571Y-93395240D01*
X145900000Y-93280954D01*
X146614286Y-92785716D02*
X147328571Y-92785716D01*
X145828571Y-93052383D02*
X146614286Y-92785716D01*
X145828571Y-92519049D01*
X147185714Y-91185716D02*
X147257143Y-91223811D01*
X147328571Y-91338097D01*
X147328571Y-91414287D01*
X147257143Y-91528573D01*
X147114286Y-91604764D01*
X146971429Y-91642859D01*
X146685714Y-91680954D01*
X146471429Y-91680954D01*
X146185714Y-91642859D01*
X146042857Y-91604764D01*
X145900000Y-91528573D01*
X145828571Y-91414287D01*
X145828571Y-91338097D01*
X145900000Y-91223811D01*
X145971429Y-91185716D01*
X147328571Y-90842859D02*
X145828571Y-90842859D01*
X146900000Y-90576192D01*
X145828571Y-90309525D01*
X147328571Y-90309525D01*
X147257143Y-89966668D02*
X147328571Y-89852382D01*
X147328571Y-89661906D01*
X147257143Y-89585716D01*
X147185714Y-89547620D01*
X147042857Y-89509525D01*
X146900000Y-89509525D01*
X146757143Y-89547620D01*
X146685714Y-89585716D01*
X146614286Y-89661906D01*
X146542857Y-89814287D01*
X146471429Y-89890478D01*
X146400000Y-89928573D01*
X146257143Y-89966668D01*
X146114286Y-89966668D01*
X145971429Y-89928573D01*
X145900000Y-89890478D01*
X145828571Y-89814287D01*
X145828571Y-89623811D01*
X145900000Y-89509525D01*
X146757143Y-88557144D02*
X146757143Y-87947620D01*
X147257143Y-86995239D02*
X147328571Y-86880953D01*
X147328571Y-86690477D01*
X147257143Y-86614287D01*
X147185714Y-86576191D01*
X147042857Y-86538096D01*
X146900000Y-86538096D01*
X146757143Y-86576191D01*
X146685714Y-86614287D01*
X146614286Y-86690477D01*
X146542857Y-86842858D01*
X146471429Y-86919049D01*
X146400000Y-86957144D01*
X146257143Y-86995239D01*
X146114286Y-86995239D01*
X145971429Y-86957144D01*
X145900000Y-86919049D01*
X145828571Y-86842858D01*
X145828571Y-86652382D01*
X145900000Y-86538096D01*
X147185714Y-86195239D02*
X147257143Y-86157144D01*
X147328571Y-86195239D01*
X147257143Y-86233334D01*
X147185714Y-86195239D01*
X147328571Y-86195239D01*
X147257143Y-85242858D02*
X147328571Y-85128572D01*
X147328571Y-84938096D01*
X147257143Y-84861906D01*
X147185714Y-84823810D01*
X147042857Y-84785715D01*
X146900000Y-84785715D01*
X146757143Y-84823810D01*
X146685714Y-84861906D01*
X146614286Y-84938096D01*
X146542857Y-85090477D01*
X146471429Y-85166668D01*
X146400000Y-85204763D01*
X146257143Y-85242858D01*
X146114286Y-85242858D01*
X145971429Y-85204763D01*
X145900000Y-85166668D01*
X145828571Y-85090477D01*
X145828571Y-84900001D01*
X145900000Y-84785715D01*
X146328571Y-84442858D02*
X147828571Y-84442858D01*
X146400000Y-84442858D02*
X146328571Y-84366667D01*
X146328571Y-84214286D01*
X146400000Y-84138096D01*
X146471429Y-84100001D01*
X146614286Y-84061905D01*
X147042857Y-84061905D01*
X147185714Y-84100001D01*
X147257143Y-84138096D01*
X147328571Y-84214286D01*
X147328571Y-84366667D01*
X147257143Y-84442858D01*
X147328571Y-83376191D02*
X146542857Y-83376191D01*
X146400000Y-83414286D01*
X146328571Y-83490476D01*
X146328571Y-83642857D01*
X146400000Y-83719048D01*
X147257143Y-83376191D02*
X147328571Y-83452381D01*
X147328571Y-83642857D01*
X147257143Y-83719048D01*
X147114286Y-83757143D01*
X146971429Y-83757143D01*
X146828571Y-83719048D01*
X146757143Y-83642857D01*
X146757143Y-83452381D01*
X146685714Y-83376191D01*
X146328571Y-82995238D02*
X147328571Y-82995238D01*
X146471429Y-82995238D02*
X146400000Y-82957143D01*
X146328571Y-82880952D01*
X146328571Y-82766666D01*
X146400000Y-82690476D01*
X146542857Y-82652381D01*
X147328571Y-82652381D01*
X146328571Y-82271428D02*
X147328571Y-82271428D01*
X146471429Y-82271428D02*
X146400000Y-82233333D01*
X146328571Y-82157142D01*
X146328571Y-82042856D01*
X146400000Y-81966666D01*
X146542857Y-81928571D01*
X147328571Y-81928571D01*
X147328571Y-81204761D02*
X146542857Y-81204761D01*
X146400000Y-81242856D01*
X146328571Y-81319046D01*
X146328571Y-81471427D01*
X146400000Y-81547618D01*
X147257143Y-81204761D02*
X147328571Y-81280951D01*
X147328571Y-81471427D01*
X147257143Y-81547618D01*
X147114286Y-81585713D01*
X146971429Y-81585713D01*
X146828571Y-81547618D01*
X146757143Y-81471427D01*
X146757143Y-81280951D01*
X146685714Y-81204761D01*
X146328571Y-80480951D02*
X147542857Y-80480951D01*
X147685714Y-80519046D01*
X147757143Y-80557141D01*
X147828571Y-80633332D01*
X147828571Y-80747617D01*
X147757143Y-80823808D01*
X147257143Y-80480951D02*
X147328571Y-80557141D01*
X147328571Y-80709522D01*
X147257143Y-80785713D01*
X147185714Y-80823808D01*
X147042857Y-80861903D01*
X146614286Y-80861903D01*
X146471429Y-80823808D01*
X146400000Y-80785713D01*
X146328571Y-80709522D01*
X146328571Y-80557141D01*
X146400000Y-80480951D01*
X147257143Y-79795236D02*
X147328571Y-79871426D01*
X147328571Y-80023807D01*
X147257143Y-80099998D01*
X147114286Y-80138093D01*
X146542857Y-80138093D01*
X146400000Y-80099998D01*
X146328571Y-80023807D01*
X146328571Y-79871426D01*
X146400000Y-79795236D01*
X146542857Y-79757141D01*
X146685714Y-79757141D01*
X146828571Y-80138093D01*
X147328571Y-79299998D02*
X147257143Y-79376189D01*
X147114286Y-79414284D01*
X145828571Y-79414284D01*
X149628571Y-96995240D02*
X148914286Y-97261907D01*
X149628571Y-97452383D02*
X148128571Y-97452383D01*
X148128571Y-97147621D01*
X148200000Y-97071430D01*
X148271429Y-97033335D01*
X148414286Y-96995240D01*
X148628571Y-96995240D01*
X148771429Y-97033335D01*
X148842857Y-97071430D01*
X148914286Y-97147621D01*
X148914286Y-97452383D01*
X148128571Y-96500002D02*
X148128571Y-96347621D01*
X148200000Y-96271430D01*
X148342857Y-96195240D01*
X148628571Y-96157145D01*
X149128571Y-96157145D01*
X149414286Y-96195240D01*
X149557143Y-96271430D01*
X149628571Y-96347621D01*
X149628571Y-96500002D01*
X149557143Y-96576192D01*
X149414286Y-96652383D01*
X149128571Y-96690478D01*
X148628571Y-96690478D01*
X148342857Y-96652383D01*
X148200000Y-96576192D01*
X148128571Y-96500002D01*
X149485714Y-95357145D02*
X149557143Y-95395240D01*
X149628571Y-95509526D01*
X149628571Y-95585716D01*
X149557143Y-95700002D01*
X149414286Y-95776193D01*
X149271429Y-95814288D01*
X148985714Y-95852383D01*
X148771429Y-95852383D01*
X148485714Y-95814288D01*
X148342857Y-95776193D01*
X148200000Y-95700002D01*
X148128571Y-95585716D01*
X148128571Y-95509526D01*
X148200000Y-95395240D01*
X148271429Y-95357145D01*
X148128571Y-94519050D02*
X148128571Y-94061907D01*
X149628571Y-94290478D02*
X148128571Y-94290478D01*
X149557143Y-93490478D02*
X149628571Y-93566668D01*
X149628571Y-93719049D01*
X149557143Y-93795240D01*
X149414286Y-93833335D01*
X148842857Y-93833335D01*
X148700000Y-93795240D01*
X148628571Y-93719049D01*
X148628571Y-93566668D01*
X148700000Y-93490478D01*
X148842857Y-93452383D01*
X148985714Y-93452383D01*
X149128571Y-93833335D01*
X149557143Y-93147621D02*
X149628571Y-93071431D01*
X149628571Y-92919050D01*
X149557143Y-92842859D01*
X149414286Y-92804764D01*
X149342857Y-92804764D01*
X149200000Y-92842859D01*
X149128571Y-92919050D01*
X149128571Y-93033335D01*
X149057143Y-93109526D01*
X148914286Y-93147621D01*
X148842857Y-93147621D01*
X148700000Y-93109526D01*
X148628571Y-93033335D01*
X148628571Y-92919050D01*
X148700000Y-92842859D01*
X148628571Y-92576193D02*
X148628571Y-92271431D01*
X148128571Y-92461907D02*
X149414286Y-92461907D01*
X149557143Y-92423812D01*
X149628571Y-92347621D01*
X149628571Y-92271431D01*
X149628571Y-92004764D02*
X148128571Y-92004764D01*
X148700000Y-92004764D02*
X148628571Y-91928573D01*
X148628571Y-91776192D01*
X148700000Y-91700002D01*
X148771429Y-91661907D01*
X148914286Y-91623811D01*
X149342857Y-91623811D01*
X149485714Y-91661907D01*
X149557143Y-91700002D01*
X149628571Y-91776192D01*
X149628571Y-91928573D01*
X149557143Y-92004764D01*
X149557143Y-90976192D02*
X149628571Y-91052382D01*
X149628571Y-91204763D01*
X149557143Y-91280954D01*
X149414286Y-91319049D01*
X148842857Y-91319049D01*
X148700000Y-91280954D01*
X148628571Y-91204763D01*
X148628571Y-91052382D01*
X148700000Y-90976192D01*
X148842857Y-90938097D01*
X148985714Y-90938097D01*
X149128571Y-91319049D01*
X149628571Y-90252383D02*
X148842857Y-90252383D01*
X148700000Y-90290478D01*
X148628571Y-90366668D01*
X148628571Y-90519049D01*
X148700000Y-90595240D01*
X149557143Y-90252383D02*
X149628571Y-90328573D01*
X149628571Y-90519049D01*
X149557143Y-90595240D01*
X149414286Y-90633335D01*
X149271429Y-90633335D01*
X149128571Y-90595240D01*
X149057143Y-90519049D01*
X149057143Y-90328573D01*
X148985714Y-90252383D01*
X149628571Y-89871430D02*
X148628571Y-89871430D01*
X148771429Y-89871430D02*
X148700000Y-89833335D01*
X148628571Y-89757144D01*
X148628571Y-89642858D01*
X148700000Y-89566668D01*
X148842857Y-89528573D01*
X149628571Y-89528573D01*
X148842857Y-89528573D02*
X148700000Y-89490477D01*
X148628571Y-89414287D01*
X148628571Y-89300001D01*
X148700000Y-89223811D01*
X148842857Y-89185716D01*
X149628571Y-89185716D01*
X149200000Y-88233334D02*
X149200000Y-87852382D01*
X149628571Y-88309525D02*
X148128571Y-88042858D01*
X149628571Y-87776191D01*
X149628571Y-87166668D02*
X148128571Y-87166668D01*
X149557143Y-87166668D02*
X149628571Y-87242858D01*
X149628571Y-87395239D01*
X149557143Y-87471430D01*
X149485714Y-87509525D01*
X149342857Y-87547620D01*
X148914286Y-87547620D01*
X148771429Y-87509525D01*
X148700000Y-87471430D01*
X148628571Y-87395239D01*
X148628571Y-87242858D01*
X148700000Y-87166668D01*
X149628571Y-86442858D02*
X148842857Y-86442858D01*
X148700000Y-86480953D01*
X148628571Y-86557143D01*
X148628571Y-86709524D01*
X148700000Y-86785715D01*
X149557143Y-86442858D02*
X149628571Y-86519048D01*
X149628571Y-86709524D01*
X149557143Y-86785715D01*
X149414286Y-86823810D01*
X149271429Y-86823810D01*
X149128571Y-86785715D01*
X149057143Y-86709524D01*
X149057143Y-86519048D01*
X148985714Y-86442858D01*
X148628571Y-86061905D02*
X150128571Y-86061905D01*
X148700000Y-86061905D02*
X148628571Y-85985714D01*
X148628571Y-85833333D01*
X148700000Y-85757143D01*
X148771429Y-85719048D01*
X148914286Y-85680952D01*
X149342857Y-85680952D01*
X149485714Y-85719048D01*
X149557143Y-85757143D01*
X149628571Y-85833333D01*
X149628571Y-85985714D01*
X149557143Y-86061905D01*
X148628571Y-85452381D02*
X148628571Y-85147619D01*
X148128571Y-85338095D02*
X149414286Y-85338095D01*
X149557143Y-85300000D01*
X149628571Y-85223809D01*
X149628571Y-85147619D01*
X149557143Y-84576190D02*
X149628571Y-84652380D01*
X149628571Y-84804761D01*
X149557143Y-84880952D01*
X149414286Y-84919047D01*
X148842857Y-84919047D01*
X148700000Y-84880952D01*
X148628571Y-84804761D01*
X148628571Y-84652380D01*
X148700000Y-84576190D01*
X148842857Y-84538095D01*
X148985714Y-84538095D01*
X149128571Y-84919047D01*
X149628571Y-84195238D02*
X148628571Y-84195238D01*
X148914286Y-84195238D02*
X148771429Y-84157143D01*
X148700000Y-84119047D01*
X148628571Y-84042857D01*
X148628571Y-83966666D01*
X149628571Y-82671428D02*
X149628571Y-83128571D01*
X149628571Y-82900000D02*
X148128571Y-82900000D01*
X148342857Y-82976190D01*
X148485714Y-83052381D01*
X148557143Y-83128571D01*
X148128571Y-82176190D02*
X148128571Y-82099999D01*
X148200000Y-82023809D01*
X148271429Y-81985714D01*
X148414286Y-81947618D01*
X148700000Y-81909523D01*
X149057143Y-81909523D01*
X149342857Y-81947618D01*
X149485714Y-81985714D01*
X149557143Y-82023809D01*
X149628571Y-82099999D01*
X149628571Y-82176190D01*
X149557143Y-82252380D01*
X149485714Y-82290476D01*
X149342857Y-82328571D01*
X149057143Y-82366666D01*
X148700000Y-82366666D01*
X148414286Y-82328571D01*
X148271429Y-82290476D01*
X148200000Y-82252380D01*
X148128571Y-82176190D01*
X148128571Y-81642856D02*
X148128571Y-81109523D01*
X149628571Y-81452380D01*
X148128571Y-80461904D02*
X148128571Y-80614285D01*
X148200000Y-80690475D01*
X148271429Y-80728570D01*
X148485714Y-80804761D01*
X148771429Y-80842856D01*
X149342857Y-80842856D01*
X149485714Y-80804761D01*
X149557143Y-80766666D01*
X149628571Y-80690475D01*
X149628571Y-80538094D01*
X149557143Y-80461904D01*
X149485714Y-80423808D01*
X149342857Y-80385713D01*
X148985714Y-80385713D01*
X148842857Y-80423808D01*
X148771429Y-80461904D01*
X148700000Y-80538094D01*
X148700000Y-80690475D01*
X148771429Y-80766666D01*
X148842857Y-80804761D01*
X148985714Y-80842856D01*
X148128571Y-79699999D02*
X148128571Y-79852380D01*
X148200000Y-79928570D01*
X148271429Y-79966665D01*
X148485714Y-80042856D01*
X148771429Y-80080951D01*
X149342857Y-80080951D01*
X149485714Y-80042856D01*
X149557143Y-80004761D01*
X149628571Y-79928570D01*
X149628571Y-79776189D01*
X149557143Y-79699999D01*
X149485714Y-79661903D01*
X149342857Y-79623808D01*
X148985714Y-79623808D01*
X148842857Y-79661903D01*
X148771429Y-79699999D01*
X148700000Y-79776189D01*
X148700000Y-79928570D01*
X148771429Y-80004761D01*
X148842857Y-80042856D01*
X148985714Y-80080951D01*
X149057143Y-79280951D02*
X149057143Y-78671427D01*
X148128571Y-78138094D02*
X148128571Y-78061903D01*
X148200000Y-77985713D01*
X148271429Y-77947618D01*
X148414286Y-77909522D01*
X148700000Y-77871427D01*
X149057143Y-77871427D01*
X149342857Y-77909522D01*
X149485714Y-77947618D01*
X149557143Y-77985713D01*
X149628571Y-78061903D01*
X149628571Y-78138094D01*
X149557143Y-78214284D01*
X149485714Y-78252380D01*
X149342857Y-78290475D01*
X149057143Y-78328570D01*
X148700000Y-78328570D01*
X148414286Y-78290475D01*
X148271429Y-78252380D01*
X148200000Y-78214284D01*
X148128571Y-78138094D01*
X149628571Y-77109522D02*
X149628571Y-77566665D01*
X149628571Y-77338094D02*
X148128571Y-77338094D01*
X148342857Y-77414284D01*
X148485714Y-77490475D01*
X148557143Y-77566665D01*
D15*
X137999200Y-68000560D02*
X142500080Y-68000560D01*
X100000800Y-68000560D02*
X95499920Y-68000560D01*
X100000800Y-86999760D02*
X137999200Y-86999760D01*
X142500080Y-95270760D02*
X142500080Y-68000560D01*
X137999200Y-68000560D02*
X137999200Y-86999760D01*
X99998260Y-86999760D02*
X99998260Y-68000560D01*
X95499920Y-68000560D02*
X95499920Y-95270760D01*
X95499920Y-95254760D02*
X142500080Y-95254760D01*
X93286000Y-73500000D02*
G75*
G03X93286000Y-73500000I-2286000J0D01*
G74*
G01*
X149286000Y-73500000D02*
G75*
G03X149286000Y-73500000I-2286000J0D01*
G74*
G01*
X93286000Y-104000000D02*
G75*
G03X93286000Y-104000000I-2286000J0D01*
G74*
G01*
X149286000Y-104000000D02*
G75*
G03X149286000Y-104000000I-2286000J0D01*
G74*
G01*
D10*
X87036000Y-80800000D02*
X89576000Y-83340000D01*
X87036000Y-83340000D02*
X89576000Y-80800000D01*
X86909000Y-82197000D02*
X81067000Y-82197000D01*
X81067000Y-82197000D02*
X81067000Y-81943000D01*
X81067000Y-81943000D02*
X86909000Y-81943000D01*
X86909000Y-81943000D02*
X86909000Y-82070000D01*
X86909000Y-82070000D02*
X81067000Y-82070000D01*
X89576000Y-82324000D02*
X89957000Y-82324000D01*
X89576000Y-81816000D02*
X89957000Y-81816000D01*
X89576000Y-79784000D02*
X89957000Y-79784000D01*
X89576000Y-79276000D02*
X89957000Y-79276000D01*
X89576000Y-83340000D02*
X87036000Y-83340000D01*
X89576000Y-80800000D02*
X87036000Y-80800000D01*
X89576000Y-80800000D02*
X89576000Y-78260000D01*
X89576000Y-78260000D02*
X87036000Y-78260000D01*
X87036000Y-79784000D02*
X80940000Y-79784000D01*
X80940000Y-79784000D02*
X80940000Y-79276000D01*
X80940000Y-79276000D02*
X87036000Y-79276000D01*
X87036000Y-78260000D02*
X87036000Y-80800000D01*
X87036000Y-80800000D02*
X87036000Y-83340000D01*
X80940000Y-81816000D02*
X87036000Y-81816000D01*
X80940000Y-82324000D02*
X80940000Y-81816000D01*
X87036000Y-82324000D02*
X80940000Y-82324000D01*
X89576000Y-80800000D02*
X87036000Y-80800000D01*
X89576000Y-83340000D02*
X89576000Y-80800000D01*
D16*
X107200374Y-95843470D02*
X107200374Y-96699813D01*
X107143284Y-96871082D01*
X107029105Y-96985261D01*
X106857837Y-97042350D01*
X106743658Y-97042350D01*
X108399253Y-97042350D02*
X107714179Y-97042350D01*
X108056716Y-97042350D02*
X108056716Y-95843470D01*
X107942537Y-96014739D01*
X107828358Y-96128918D01*
X107714179Y-96186008D01*
D17*
X143508191Y-113459619D02*
X143169525Y-112975810D01*
X142927620Y-113459619D02*
X142927620Y-112443619D01*
X143314667Y-112443619D01*
X143411429Y-112492000D01*
X143459810Y-112540381D01*
X143508191Y-112637143D01*
X143508191Y-112782286D01*
X143459810Y-112879048D01*
X143411429Y-112927429D01*
X143314667Y-112975810D01*
X142927620Y-112975810D01*
X144282286Y-112927429D02*
X143943620Y-112927429D01*
X143943620Y-113459619D02*
X143943620Y-112443619D01*
X144427429Y-112443619D01*
X144717715Y-112443619D02*
X145346667Y-112443619D01*
X145008001Y-112830667D01*
X145153143Y-112830667D01*
X145249905Y-112879048D01*
X145298286Y-112927429D01*
X145346667Y-113024190D01*
X145346667Y-113266095D01*
X145298286Y-113362857D01*
X145249905Y-113411238D01*
X145153143Y-113459619D01*
X144862858Y-113459619D01*
X144766096Y-113411238D01*
X144717715Y-113362857D01*
X145636953Y-112443619D02*
X146217524Y-112443619D01*
X145927239Y-113459619D02*
X145927239Y-112443619D01*
X141909619Y-89241809D02*
X141425810Y-89580475D01*
X141909619Y-89822380D02*
X140893619Y-89822380D01*
X140893619Y-89435333D01*
X140942000Y-89338571D01*
X140990381Y-89290190D01*
X141087143Y-89241809D01*
X141232286Y-89241809D01*
X141329048Y-89290190D01*
X141377429Y-89338571D01*
X141425810Y-89435333D01*
X141425810Y-89822380D01*
X141377429Y-88467714D02*
X141377429Y-88806380D01*
X141909619Y-88806380D02*
X140893619Y-88806380D01*
X140893619Y-88322571D01*
X140990381Y-87983904D02*
X140942000Y-87935523D01*
X140893619Y-87838761D01*
X140893619Y-87596857D01*
X140942000Y-87500095D01*
X140990381Y-87451714D01*
X141087143Y-87403333D01*
X141183905Y-87403333D01*
X141329048Y-87451714D01*
X141909619Y-88032285D01*
X141909619Y-87403333D01*
X140893619Y-87113047D02*
X140893619Y-86532476D01*
X141909619Y-86822761D02*
X140893619Y-86822761D01*
X92008191Y-86309619D02*
X91669525Y-85825810D01*
X91427620Y-86309619D02*
X91427620Y-85293619D01*
X91814667Y-85293619D01*
X91911429Y-85342000D01*
X91959810Y-85390381D01*
X92008191Y-85487143D01*
X92008191Y-85632286D01*
X91959810Y-85729048D01*
X91911429Y-85777429D01*
X91814667Y-85825810D01*
X91427620Y-85825810D01*
X92782286Y-85777429D02*
X92443620Y-85777429D01*
X92443620Y-86309619D02*
X92443620Y-85293619D01*
X92927429Y-85293619D01*
X93846667Y-86309619D02*
X93266096Y-86309619D01*
X93556382Y-86309619D02*
X93556382Y-85293619D01*
X93459620Y-85438762D01*
X93362858Y-85535524D01*
X93266096Y-85583905D01*
X94136953Y-85293619D02*
X94717524Y-85293619D01*
X94427239Y-86309619D02*
X94427239Y-85293619D01*
D18*
X93960524Y-81737381D02*
X92690524Y-81737381D01*
X92690524Y-81253572D01*
X92751000Y-81132619D01*
X92811476Y-81072143D01*
X92932429Y-81011667D01*
X93113857Y-81011667D01*
X93234810Y-81072143D01*
X93295286Y-81132619D01*
X93355762Y-81253572D01*
X93355762Y-81737381D01*
X93960524Y-79802143D02*
X93960524Y-80527857D01*
X93960524Y-80165000D02*
X92690524Y-80165000D01*
X92871952Y-80285952D01*
X92992905Y-80406905D01*
X93053381Y-80527857D01*
%LPC*%
D13*
X107276190Y-53154762D02*
X107276190Y-51154762D01*
X107752381Y-51154762D01*
X108038095Y-51250000D01*
X108228571Y-51440476D01*
X108323810Y-51630952D01*
X108419048Y-52011905D01*
X108419048Y-52297619D01*
X108323810Y-52678571D01*
X108228571Y-52869048D01*
X108038095Y-53059524D01*
X107752381Y-53154762D01*
X107276190Y-53154762D01*
X109276190Y-52107143D02*
X109942857Y-52107143D01*
X110228571Y-53154762D02*
X109276190Y-53154762D01*
X109276190Y-51154762D01*
X110228571Y-51154762D01*
X110990476Y-53059524D02*
X111276191Y-53154762D01*
X111752381Y-53154762D01*
X111942857Y-53059524D01*
X112038095Y-52964286D01*
X112133334Y-52773810D01*
X112133334Y-52583333D01*
X112038095Y-52392857D01*
X111942857Y-52297619D01*
X111752381Y-52202381D01*
X111371429Y-52107143D01*
X111180953Y-52011905D01*
X111085714Y-51916667D01*
X110990476Y-51726190D01*
X110990476Y-51535714D01*
X111085714Y-51345238D01*
X111180953Y-51250000D01*
X111371429Y-51154762D01*
X111847619Y-51154762D01*
X112133334Y-51250000D01*
X113371429Y-52202381D02*
X113371429Y-53154762D01*
X112704762Y-51154762D02*
X113371429Y-52202381D01*
X114038096Y-51154762D01*
X116895239Y-52107143D02*
X116228572Y-52107143D01*
X116228572Y-53154762D02*
X116228572Y-51154762D01*
X117180953Y-51154762D01*
X117942858Y-53154762D02*
X117942858Y-51154762D01*
X117942858Y-52107143D02*
X119085716Y-52107143D01*
X119085716Y-53154762D02*
X119085716Y-51154762D01*
X120038096Y-52392857D02*
X121561906Y-52392857D01*
X123657144Y-52964286D02*
X123561906Y-53059524D01*
X123276191Y-53154762D01*
X123085715Y-53154762D01*
X122800001Y-53059524D01*
X122609525Y-52869048D01*
X122514286Y-52678571D01*
X122419048Y-52297619D01*
X122419048Y-52011905D01*
X122514286Y-51630952D01*
X122609525Y-51440476D01*
X122800001Y-51250000D01*
X123085715Y-51154762D01*
X123276191Y-51154762D01*
X123561906Y-51250000D01*
X123657144Y-51345238D01*
X124514286Y-53154762D02*
X124514286Y-51154762D01*
X125180953Y-52583333D01*
X125847620Y-51154762D01*
X125847620Y-53154762D01*
X126704762Y-53059524D02*
X126990477Y-53154762D01*
X127466667Y-53154762D01*
X127657143Y-53059524D01*
X127752381Y-52964286D01*
X127847620Y-52773810D01*
X127847620Y-52583333D01*
X127752381Y-52392857D01*
X127657143Y-52297619D01*
X127466667Y-52202381D01*
X127085715Y-52107143D01*
X126895239Y-52011905D01*
X126800000Y-51916667D01*
X126704762Y-51726190D01*
X126704762Y-51535714D01*
X126800000Y-51345238D01*
X126895239Y-51250000D01*
X127085715Y-51154762D01*
X127561905Y-51154762D01*
X127847620Y-51250000D01*
X108323810Y-56204762D02*
X107180952Y-56204762D01*
X107752381Y-56204762D02*
X107752381Y-54204762D01*
X107561905Y-54490476D01*
X107371429Y-54680952D01*
X107180952Y-54776190D01*
X109561905Y-54204762D02*
X109752381Y-54204762D01*
X109942857Y-54300000D01*
X110038095Y-54395238D01*
X110133333Y-54585714D01*
X110228572Y-54966667D01*
X110228572Y-55442857D01*
X110133333Y-55823810D01*
X110038095Y-56014286D01*
X109942857Y-56109524D01*
X109752381Y-56204762D01*
X109561905Y-56204762D01*
X109371429Y-56109524D01*
X109276191Y-56014286D01*
X109180952Y-55823810D01*
X109085714Y-55442857D01*
X109085714Y-54966667D01*
X109180952Y-54585714D01*
X109276191Y-54395238D01*
X109371429Y-54300000D01*
X109561905Y-54204762D01*
X110895238Y-54204762D02*
X112228572Y-54204762D01*
X111371429Y-56204762D01*
X113847619Y-54204762D02*
X113466667Y-54204762D01*
X113276191Y-54300000D01*
X113180953Y-54395238D01*
X112990476Y-54680952D01*
X112895238Y-55061905D01*
X112895238Y-55823810D01*
X112990476Y-56014286D01*
X113085715Y-56109524D01*
X113276191Y-56204762D01*
X113657143Y-56204762D01*
X113847619Y-56109524D01*
X113942857Y-56014286D01*
X114038096Y-55823810D01*
X114038096Y-55347619D01*
X113942857Y-55157143D01*
X113847619Y-55061905D01*
X113657143Y-54966667D01*
X113276191Y-54966667D01*
X113085715Y-55061905D01*
X112990476Y-55157143D01*
X112895238Y-55347619D01*
X115752381Y-54204762D02*
X115371429Y-54204762D01*
X115180953Y-54300000D01*
X115085715Y-54395238D01*
X114895238Y-54680952D01*
X114800000Y-55061905D01*
X114800000Y-55823810D01*
X114895238Y-56014286D01*
X114990477Y-56109524D01*
X115180953Y-56204762D01*
X115561905Y-56204762D01*
X115752381Y-56109524D01*
X115847619Y-56014286D01*
X115942858Y-55823810D01*
X115942858Y-55347619D01*
X115847619Y-55157143D01*
X115752381Y-55061905D01*
X115561905Y-54966667D01*
X115180953Y-54966667D01*
X114990477Y-55061905D01*
X114895238Y-55157143D01*
X114800000Y-55347619D01*
X116800000Y-55442857D02*
X118323810Y-55442857D01*
X119657143Y-54204762D02*
X119847619Y-54204762D01*
X120038095Y-54300000D01*
X120133333Y-54395238D01*
X120228571Y-54585714D01*
X120323810Y-54966667D01*
X120323810Y-55442857D01*
X120228571Y-55823810D01*
X120133333Y-56014286D01*
X120038095Y-56109524D01*
X119847619Y-56204762D01*
X119657143Y-56204762D01*
X119466667Y-56109524D01*
X119371429Y-56014286D01*
X119276190Y-55823810D01*
X119180952Y-55442857D01*
X119180952Y-54966667D01*
X119276190Y-54585714D01*
X119371429Y-54395238D01*
X119466667Y-54300000D01*
X119657143Y-54204762D01*
X122228572Y-56204762D02*
X121085714Y-56204762D01*
X121657143Y-56204762D02*
X121657143Y-54204762D01*
X121466667Y-54490476D01*
X121276191Y-54680952D01*
X121085714Y-54776190D01*
X123085714Y-55442857D02*
X124609524Y-55442857D01*
X126514285Y-56204762D02*
X125561904Y-56204762D01*
X125561904Y-54204762D01*
X127085714Y-56109524D02*
X127371429Y-56204762D01*
X127847619Y-56204762D01*
X128038095Y-56109524D01*
X128133333Y-56014286D01*
X128228572Y-55823810D01*
X128228572Y-55633333D01*
X128133333Y-55442857D01*
X128038095Y-55347619D01*
X127847619Y-55252381D01*
X127466667Y-55157143D01*
X127276191Y-55061905D01*
X127180952Y-54966667D01*
X127085714Y-54776190D01*
X127085714Y-54585714D01*
X127180952Y-54395238D01*
X127276191Y-54300000D01*
X127466667Y-54204762D01*
X127942857Y-54204762D01*
X128228572Y-54300000D01*
X129085714Y-56204762D02*
X129085714Y-54204762D01*
X129752381Y-55633333D01*
X130419048Y-54204762D01*
X130419048Y-56204762D01*
X132419048Y-56204762D02*
X131276190Y-56204762D01*
X131847619Y-56204762D02*
X131847619Y-54204762D01*
X131657143Y-54490476D01*
X131466667Y-54680952D01*
X131276190Y-54776190D01*
X107180952Y-59159524D02*
X107466667Y-59254762D01*
X107942857Y-59254762D01*
X108133333Y-59159524D01*
X108228571Y-59064286D01*
X108323810Y-58873810D01*
X108323810Y-58683333D01*
X108228571Y-58492857D01*
X108133333Y-58397619D01*
X107942857Y-58302381D01*
X107561905Y-58207143D01*
X107371429Y-58111905D01*
X107276190Y-58016667D01*
X107180952Y-57826190D01*
X107180952Y-57635714D01*
X107276190Y-57445238D01*
X107371429Y-57350000D01*
X107561905Y-57254762D01*
X108038095Y-57254762D01*
X108323810Y-57350000D01*
X109466667Y-59254762D02*
X109276191Y-59159524D01*
X109180952Y-59064286D01*
X109085714Y-58873810D01*
X109085714Y-58302381D01*
X109180952Y-58111905D01*
X109276191Y-58016667D01*
X109466667Y-57921429D01*
X109752381Y-57921429D01*
X109942857Y-58016667D01*
X110038095Y-58111905D01*
X110133333Y-58302381D01*
X110133333Y-58873810D01*
X110038095Y-59064286D01*
X109942857Y-59159524D01*
X109752381Y-59254762D01*
X109466667Y-59254762D01*
X111276191Y-59254762D02*
X111085715Y-59159524D01*
X110990476Y-58969048D01*
X110990476Y-57254762D01*
X112895238Y-59254762D02*
X112895238Y-57254762D01*
X112895238Y-59159524D02*
X112704762Y-59254762D01*
X112323810Y-59254762D01*
X112133334Y-59159524D01*
X112038095Y-59064286D01*
X111942857Y-58873810D01*
X111942857Y-58302381D01*
X112038095Y-58111905D01*
X112133334Y-58016667D01*
X112323810Y-57921429D01*
X112704762Y-57921429D01*
X112895238Y-58016667D01*
X114609524Y-59159524D02*
X114419048Y-59254762D01*
X114038096Y-59254762D01*
X113847619Y-59159524D01*
X113752381Y-58969048D01*
X113752381Y-58207143D01*
X113847619Y-58016667D01*
X114038096Y-57921429D01*
X114419048Y-57921429D01*
X114609524Y-58016667D01*
X114704762Y-58207143D01*
X114704762Y-58397619D01*
X113752381Y-58588095D01*
X115561905Y-59254762D02*
X115561905Y-57921429D01*
X115561905Y-58302381D02*
X115657144Y-58111905D01*
X115752382Y-58016667D01*
X115942858Y-57921429D01*
X116133334Y-57921429D01*
X119466668Y-59254762D02*
X118800001Y-58302381D01*
X118323810Y-59254762D02*
X118323810Y-57254762D01*
X119085715Y-57254762D01*
X119276191Y-57350000D01*
X119371430Y-57445238D01*
X119466668Y-57635714D01*
X119466668Y-57921429D01*
X119371430Y-58111905D01*
X119276191Y-58207143D01*
X119085715Y-58302381D01*
X118323810Y-58302381D01*
X121085715Y-59159524D02*
X120895239Y-59254762D01*
X120514287Y-59254762D01*
X120323810Y-59159524D01*
X120228572Y-58969048D01*
X120228572Y-58207143D01*
X120323810Y-58016667D01*
X120514287Y-57921429D01*
X120895239Y-57921429D01*
X121085715Y-58016667D01*
X121180953Y-58207143D01*
X121180953Y-58397619D01*
X120228572Y-58588095D01*
X121942858Y-59159524D02*
X122133335Y-59254762D01*
X122514287Y-59254762D01*
X122704763Y-59159524D01*
X122800001Y-58969048D01*
X122800001Y-58873810D01*
X122704763Y-58683333D01*
X122514287Y-58588095D01*
X122228573Y-58588095D01*
X122038096Y-58492857D01*
X121942858Y-58302381D01*
X121942858Y-58207143D01*
X122038096Y-58016667D01*
X122228573Y-57921429D01*
X122514287Y-57921429D01*
X122704763Y-58016667D01*
X123657144Y-59254762D02*
X123657144Y-57921429D01*
X123657144Y-57254762D02*
X123561906Y-57350000D01*
X123657144Y-57445238D01*
X123752383Y-57350000D01*
X123657144Y-57254762D01*
X123657144Y-57445238D01*
X124514287Y-59159524D02*
X124704764Y-59254762D01*
X125085716Y-59254762D01*
X125276192Y-59159524D01*
X125371430Y-58969048D01*
X125371430Y-58873810D01*
X125276192Y-58683333D01*
X125085716Y-58588095D01*
X124800002Y-58588095D01*
X124609525Y-58492857D01*
X124514287Y-58302381D01*
X124514287Y-58207143D01*
X124609525Y-58016667D01*
X124800002Y-57921429D01*
X125085716Y-57921429D01*
X125276192Y-58016667D01*
X125942859Y-57921429D02*
X126704764Y-57921429D01*
X126228573Y-57254762D02*
X126228573Y-58969048D01*
X126323812Y-59159524D01*
X126514288Y-59254762D01*
X126704764Y-59254762D01*
X128609526Y-57254762D02*
X129752383Y-57254762D01*
X129180955Y-59254762D02*
X129180955Y-57254762D01*
X130704765Y-59254762D02*
X130514289Y-59159524D01*
X130419050Y-59064286D01*
X130323812Y-58873810D01*
X130323812Y-58302381D01*
X130419050Y-58111905D01*
X130514289Y-58016667D01*
X130704765Y-57921429D01*
X130990479Y-57921429D01*
X131180955Y-58016667D01*
X131276193Y-58111905D01*
X131371431Y-58302381D01*
X131371431Y-58873810D01*
X131276193Y-59064286D01*
X131180955Y-59159524D01*
X130990479Y-59254762D01*
X130704765Y-59254762D01*
X132228574Y-57921429D02*
X132228574Y-59921429D01*
X132228574Y-58016667D02*
X132419051Y-57921429D01*
X132800003Y-57921429D01*
X132990479Y-58016667D01*
X133085717Y-58111905D01*
X133180955Y-58302381D01*
X133180955Y-58873810D01*
X133085717Y-59064286D01*
X132990479Y-59159524D01*
X132800003Y-59254762D01*
X132419051Y-59254762D01*
X132228574Y-59159524D01*
D19*
X138499580Y-94000000D03*
D20*
X97498900Y-69999540D03*
X140498560Y-69999540D03*
D19*
X137498820Y-94000000D03*
X136500600Y-94000000D03*
X135499840Y-94000000D03*
X134499080Y-94000000D03*
X133500860Y-94000000D03*
X132500100Y-94000000D03*
X131499340Y-94000000D03*
X130501120Y-94000000D03*
X129500360Y-94000000D03*
X128499600Y-94000000D03*
X127498840Y-94000000D03*
X126500620Y-94000000D03*
X125499860Y-94000000D03*
X124499100Y-94000000D03*
X123500880Y-94000000D03*
X122500120Y-94000000D03*
X121499360Y-94000000D03*
X120501140Y-94000000D03*
X119500380Y-94000000D03*
X118499620Y-94000000D03*
X117498860Y-94000000D03*
X116500640Y-94000000D03*
X115499880Y-94000000D03*
X114499120Y-94000000D03*
X113500900Y-94000000D03*
X112500140Y-94000000D03*
X111499380Y-94000000D03*
X110501160Y-94000000D03*
X109500400Y-94000000D03*
X108499640Y-94000000D03*
X107498880Y-94000000D03*
X106500660Y-94000000D03*
X105499900Y-94000000D03*
X104499140Y-94000000D03*
X103500920Y-94000000D03*
X102500160Y-94000000D03*
X101499400Y-94000000D03*
X100501180Y-94000000D03*
X99500420Y-94000000D03*
D21*
X144500000Y-110450000D03*
X144500000Y-88250000D03*
X93500000Y-88250000D03*
D22*
X98180000Y-111500000D03*
X98180000Y-115310000D03*
X99450000Y-109595000D03*
X99450000Y-113405000D03*
X100720000Y-111500000D03*
X100720000Y-115310000D03*
X101990000Y-109595000D03*
X101990000Y-113405000D03*
X103260000Y-111500000D03*
X103260000Y-115310000D03*
X104530000Y-109595000D03*
X104530000Y-113405000D03*
X105800000Y-111500000D03*
X105800000Y-115310000D03*
X107070000Y-109595000D03*
X107070000Y-113405000D03*
X108340000Y-111500000D03*
X108340000Y-115310000D03*
X109610000Y-109595000D03*
X109610000Y-113405000D03*
X110880000Y-111500000D03*
X110880000Y-115310000D03*
X112150000Y-109595000D03*
X112150000Y-113405000D03*
X113420000Y-111500000D03*
X113420000Y-115310000D03*
X114690000Y-109595000D03*
X114690000Y-113405000D03*
X115960000Y-111500000D03*
X115960000Y-115310000D03*
X117230000Y-109595000D03*
X117230000Y-113405000D03*
X118500000Y-111500000D03*
X118500000Y-115310000D03*
X119770000Y-109595000D03*
X119770000Y-113405000D03*
X121040000Y-111500000D03*
X121040000Y-115310000D03*
X122310000Y-109595000D03*
X122310000Y-113405000D03*
X123580000Y-111500000D03*
X123580000Y-115310000D03*
X124850000Y-109595000D03*
X124850000Y-113405000D03*
X126120000Y-111500000D03*
X126120000Y-115310000D03*
X127390000Y-109595000D03*
X127390000Y-113405000D03*
X128660000Y-111500000D03*
X128660000Y-115310000D03*
X129930000Y-109595000D03*
X129930000Y-113405000D03*
X131200000Y-111500000D03*
X131200000Y-115310000D03*
X132470000Y-109595000D03*
X132470000Y-113405000D03*
X133740000Y-111500000D03*
X133740000Y-115310000D03*
X135010000Y-109595000D03*
X135010000Y-113405000D03*
X136280000Y-111500000D03*
X136280000Y-115310000D03*
X137550000Y-109595000D03*
X137550000Y-113405000D03*
X138820000Y-111500000D03*
X138820000Y-115310000D03*
X140090000Y-109595000D03*
X140090000Y-113405000D03*
D23*
X148090000Y-113405000D03*
X90180000Y-113405000D03*
D24*
X91000000Y-73500000D03*
X147000000Y-73500000D03*
X91000000Y-104000000D03*
X147000000Y-104000000D03*
D25*
X91100000Y-82070000D03*
D26*
X91100000Y-79530000D03*
M02*
