%FSLAX46Y46*%
G04 Gerber Fmt 4.6, Leading zero omitted, Abs format (unit mm)*
G04 Created by KiCad (PCBNEW (2014-10-13 BZR 5177)-product) date Mi 15 Okt 2014 13:31:42 CEST*
%MOMM*%
G01*
G04 APERTURE LIST*
%ADD10C,0.150000*%
%ADD11C,0.300000*%
%ADD12C,0.400000*%
%ADD13C,0.250000*%
%ADD14C,0.127000*%
%ADD15C,0.119380*%
%ADD16C,0.254000*%
%ADD17C,0.304800*%
%ADD18C,0.200000*%
%ADD19C,0.114300*%
%ADD20C,0.124300*%
%ADD21C,1.440480*%
%ADD22C,3.000000*%
%ADD23R,2.169460X2.791760*%
%ADD24C,1.640000*%
%ADD25C,3.140000*%
%ADD26C,4.204000*%
%ADD27R,0.775000X1.283000*%
%ADD28R,1.283000X0.775000*%
%ADD29R,2.172000X2.172000*%
%ADD30O,2.172000X2.172000*%
G04 APERTURE END LIST*
D10*
X177002200Y-166007200D02*
X177002200Y-198007200D01*
X285002200Y-198007200D01*
X285002200Y-166007200D01*
X177002200Y-166007200D01*
X10000000Y-10000000D02*
X10000000Y-200007200D01*
X287002200Y-200007200D01*
X287002200Y-10000000D01*
X10000000Y-10000000D01*
X12000000Y-12000000D02*
X12000000Y-198007200D01*
X285002200Y-198007200D01*
X285002200Y-12000000D01*
X12000000Y-12000000D01*
X60000000Y-12000000D02*
X60000000Y-10000000D01*
X110000000Y-12000000D02*
X110000000Y-10000000D01*
X160000000Y-12000000D02*
X160000000Y-10000000D01*
X210000000Y-12000000D02*
X210000000Y-10000000D01*
X260000000Y-12000000D02*
X260000000Y-10000000D01*
X35990476Y-11588095D02*
X35247619Y-11588095D01*
X35619048Y-11588095D02*
X35619048Y-10288095D01*
X35495238Y-10473810D01*
X35371429Y-10597619D01*
X35247619Y-10659524D01*
X85247619Y-10411905D02*
X85309524Y-10350000D01*
X85433333Y-10288095D01*
X85742857Y-10288095D01*
X85866667Y-10350000D01*
X85928571Y-10411905D01*
X85990476Y-10535714D01*
X85990476Y-10659524D01*
X85928571Y-10845238D01*
X85185714Y-11588095D01*
X85990476Y-11588095D01*
X135185714Y-10288095D02*
X135990476Y-10288095D01*
X135557143Y-10783333D01*
X135742857Y-10783333D01*
X135866667Y-10845238D01*
X135928571Y-10907143D01*
X135990476Y-11030952D01*
X135990476Y-11340476D01*
X135928571Y-11464286D01*
X135866667Y-11526190D01*
X135742857Y-11588095D01*
X135371429Y-11588095D01*
X135247619Y-11526190D01*
X135185714Y-11464286D01*
X185866667Y-10721429D02*
X185866667Y-11588095D01*
X185557143Y-10226190D02*
X185247619Y-11154762D01*
X186052381Y-11154762D01*
X235928571Y-10288095D02*
X235309524Y-10288095D01*
X235247619Y-10907143D01*
X235309524Y-10845238D01*
X235433333Y-10783333D01*
X235742857Y-10783333D01*
X235866667Y-10845238D01*
X235928571Y-10907143D01*
X235990476Y-11030952D01*
X235990476Y-11340476D01*
X235928571Y-11464286D01*
X235866667Y-11526190D01*
X235742857Y-11588095D01*
X235433333Y-11588095D01*
X235309524Y-11526190D01*
X235247619Y-11464286D01*
X285866667Y-10288095D02*
X285619048Y-10288095D01*
X285495238Y-10350000D01*
X285433333Y-10411905D01*
X285309524Y-10597619D01*
X285247619Y-10845238D01*
X285247619Y-11340476D01*
X285309524Y-11464286D01*
X285371429Y-11526190D01*
X285495238Y-11588095D01*
X285742857Y-11588095D01*
X285866667Y-11526190D01*
X285928571Y-11464286D01*
X285990476Y-11340476D01*
X285990476Y-11030952D01*
X285928571Y-10907143D01*
X285866667Y-10845238D01*
X285742857Y-10783333D01*
X285495238Y-10783333D01*
X285371429Y-10845238D01*
X285309524Y-10907143D01*
X285247619Y-11030952D01*
X60000000Y-198007200D02*
X60000000Y-200007200D01*
X110000000Y-198007200D02*
X110000000Y-200007200D01*
X160000000Y-198007200D02*
X160000000Y-200007200D01*
X210000000Y-198007200D02*
X210000000Y-200007200D01*
X260000000Y-198007200D02*
X260000000Y-200007200D01*
X35990476Y-199595295D02*
X35247619Y-199595295D01*
X35619048Y-199595295D02*
X35619048Y-198295295D01*
X35495238Y-198481010D01*
X35371429Y-198604819D01*
X35247619Y-198666724D01*
X85247619Y-198419105D02*
X85309524Y-198357200D01*
X85433333Y-198295295D01*
X85742857Y-198295295D01*
X85866667Y-198357200D01*
X85928571Y-198419105D01*
X85990476Y-198542914D01*
X85990476Y-198666724D01*
X85928571Y-198852438D01*
X85185714Y-199595295D01*
X85990476Y-199595295D01*
X135185714Y-198295295D02*
X135990476Y-198295295D01*
X135557143Y-198790533D01*
X135742857Y-198790533D01*
X135866667Y-198852438D01*
X135928571Y-198914343D01*
X135990476Y-199038152D01*
X135990476Y-199347676D01*
X135928571Y-199471486D01*
X135866667Y-199533390D01*
X135742857Y-199595295D01*
X135371429Y-199595295D01*
X135247619Y-199533390D01*
X135185714Y-199471486D01*
X185866667Y-198728629D02*
X185866667Y-199595295D01*
X185557143Y-198233390D02*
X185247619Y-199161962D01*
X186052381Y-199161962D01*
X235928571Y-198295295D02*
X235309524Y-198295295D01*
X235247619Y-198914343D01*
X235309524Y-198852438D01*
X235433333Y-198790533D01*
X235742857Y-198790533D01*
X235866667Y-198852438D01*
X235928571Y-198914343D01*
X235990476Y-199038152D01*
X235990476Y-199347676D01*
X235928571Y-199471486D01*
X235866667Y-199533390D01*
X235742857Y-199595295D01*
X235433333Y-199595295D01*
X235309524Y-199533390D01*
X235247619Y-199471486D01*
X285866667Y-198295295D02*
X285619048Y-198295295D01*
X285495238Y-198357200D01*
X285433333Y-198419105D01*
X285309524Y-198604819D01*
X285247619Y-198852438D01*
X285247619Y-199347676D01*
X285309524Y-199471486D01*
X285371429Y-199533390D01*
X285495238Y-199595295D01*
X285742857Y-199595295D01*
X285866667Y-199533390D01*
X285928571Y-199471486D01*
X285990476Y-199347676D01*
X285990476Y-199038152D01*
X285928571Y-198914343D01*
X285866667Y-198852438D01*
X285742857Y-198790533D01*
X285495238Y-198790533D01*
X285371429Y-198852438D01*
X285309524Y-198914343D01*
X285247619Y-199038152D01*
X10000000Y-60000000D02*
X12000000Y-60000000D01*
X10000000Y-110000000D02*
X12000000Y-110000000D01*
X10000000Y-160000000D02*
X12000000Y-160000000D01*
X10690476Y-35216667D02*
X11309524Y-35216667D01*
X10566667Y-35588095D02*
X11000000Y-34288095D01*
X11433333Y-35588095D01*
X11092857Y-84907143D02*
X11278571Y-84969048D01*
X11340476Y-85030952D01*
X11402381Y-85154762D01*
X11402381Y-85340476D01*
X11340476Y-85464286D01*
X11278571Y-85526190D01*
X11154762Y-85588095D01*
X10659524Y-85588095D01*
X10659524Y-84288095D01*
X11092857Y-84288095D01*
X11216667Y-84350000D01*
X11278571Y-84411905D01*
X11340476Y-84535714D01*
X11340476Y-84659524D01*
X11278571Y-84783333D01*
X11216667Y-84845238D01*
X11092857Y-84907143D01*
X10659524Y-84907143D01*
X11402381Y-135464286D02*
X11340476Y-135526190D01*
X11154762Y-135588095D01*
X11030952Y-135588095D01*
X10845238Y-135526190D01*
X10721429Y-135402381D01*
X10659524Y-135278571D01*
X10597619Y-135030952D01*
X10597619Y-134845238D01*
X10659524Y-134597619D01*
X10721429Y-134473810D01*
X10845238Y-134350000D01*
X11030952Y-134288095D01*
X11154762Y-134288095D01*
X11340476Y-134350000D01*
X11402381Y-134411905D01*
X10659524Y-185588095D02*
X10659524Y-184288095D01*
X10969048Y-184288095D01*
X11154762Y-184350000D01*
X11278571Y-184473810D01*
X11340476Y-184597619D01*
X11402381Y-184845238D01*
X11402381Y-185030952D01*
X11340476Y-185278571D01*
X11278571Y-185402381D01*
X11154762Y-185526190D01*
X10969048Y-185588095D01*
X10659524Y-185588095D01*
X287002200Y-60000000D02*
X285002200Y-60000000D01*
X287002200Y-110000000D02*
X285002200Y-110000000D01*
X287002200Y-160000000D02*
X285002200Y-160000000D01*
X285692676Y-35216667D02*
X286311724Y-35216667D01*
X285568867Y-35588095D02*
X286002200Y-34288095D01*
X286435533Y-35588095D01*
X286095057Y-84907143D02*
X286280771Y-84969048D01*
X286342676Y-85030952D01*
X286404581Y-85154762D01*
X286404581Y-85340476D01*
X286342676Y-85464286D01*
X286280771Y-85526190D01*
X286156962Y-85588095D01*
X285661724Y-85588095D01*
X285661724Y-84288095D01*
X286095057Y-84288095D01*
X286218867Y-84350000D01*
X286280771Y-84411905D01*
X286342676Y-84535714D01*
X286342676Y-84659524D01*
X286280771Y-84783333D01*
X286218867Y-84845238D01*
X286095057Y-84907143D01*
X285661724Y-84907143D01*
X286404581Y-135464286D02*
X286342676Y-135526190D01*
X286156962Y-135588095D01*
X286033152Y-135588095D01*
X285847438Y-135526190D01*
X285723629Y-135402381D01*
X285661724Y-135278571D01*
X285599819Y-135030952D01*
X285599819Y-134845238D01*
X285661724Y-134597619D01*
X285723629Y-134473810D01*
X285847438Y-134350000D01*
X286033152Y-134288095D01*
X286156962Y-134288095D01*
X286342676Y-134350000D01*
X286404581Y-134411905D01*
X285661724Y-185588095D02*
X285661724Y-184288095D01*
X285971248Y-184288095D01*
X286156962Y-184350000D01*
X286280771Y-184473810D01*
X286342676Y-184597619D01*
X286404581Y-184845238D01*
X286404581Y-185030952D01*
X286342676Y-185278571D01*
X286280771Y-185402381D01*
X286156962Y-185526190D01*
X285971248Y-185588095D01*
X285661724Y-185588095D01*
X200359343Y-193785771D02*
X200359343Y-192285771D01*
X200716486Y-192285771D01*
X200930771Y-192357200D01*
X201073629Y-192500057D01*
X201145057Y-192642914D01*
X201216486Y-192928629D01*
X201216486Y-193142914D01*
X201145057Y-193428629D01*
X201073629Y-193571486D01*
X200930771Y-193714343D01*
X200716486Y-193785771D01*
X200359343Y-193785771D01*
X202502200Y-193785771D02*
X202502200Y-193000057D01*
X202430771Y-192857200D01*
X202287914Y-192785771D01*
X202002200Y-192785771D01*
X201859343Y-192857200D01*
X202502200Y-193714343D02*
X202359343Y-193785771D01*
X202002200Y-193785771D01*
X201859343Y-193714343D01*
X201787914Y-193571486D01*
X201787914Y-193428629D01*
X201859343Y-193285771D01*
X202002200Y-193214343D01*
X202359343Y-193214343D01*
X202502200Y-193142914D01*
X203002200Y-192785771D02*
X203573629Y-192785771D01*
X203216486Y-192285771D02*
X203216486Y-193571486D01*
X203287914Y-193714343D01*
X203430772Y-193785771D01*
X203573629Y-193785771D01*
X204645057Y-193714343D02*
X204502200Y-193785771D01*
X204216486Y-193785771D01*
X204073629Y-193714343D01*
X204002200Y-193571486D01*
X204002200Y-193000057D01*
X204073629Y-192857200D01*
X204216486Y-192785771D01*
X204502200Y-192785771D01*
X204645057Y-192857200D01*
X204716486Y-193000057D01*
X204716486Y-193142914D01*
X204002200Y-193285771D01*
X205359343Y-193642914D02*
X205430771Y-193714343D01*
X205359343Y-193785771D01*
X205287914Y-193714343D01*
X205359343Y-193642914D01*
X205359343Y-193785771D01*
X205359343Y-192857200D02*
X205430771Y-192928629D01*
X205359343Y-193000057D01*
X205287914Y-192928629D01*
X205359343Y-192857200D01*
X205359343Y-193000057D01*
X207216486Y-193785771D02*
X207216486Y-192285771D01*
X207716486Y-193357200D01*
X208216486Y-192285771D01*
X208216486Y-193785771D01*
X208930772Y-193785771D02*
X208930772Y-192785771D01*
X208930772Y-192285771D02*
X208859343Y-192357200D01*
X208930772Y-192428629D01*
X209002200Y-192357200D01*
X208930772Y-192285771D01*
X208930772Y-192428629D01*
X211073629Y-192285771D02*
X211216486Y-192285771D01*
X211359343Y-192357200D01*
X211430772Y-192428629D01*
X211502201Y-192571486D01*
X211573629Y-192857200D01*
X211573629Y-193214343D01*
X211502201Y-193500057D01*
X211430772Y-193642914D01*
X211359343Y-193714343D01*
X211216486Y-193785771D01*
X211073629Y-193785771D01*
X210930772Y-193714343D01*
X210859343Y-193642914D01*
X210787915Y-193500057D01*
X210716486Y-193214343D01*
X210716486Y-192857200D01*
X210787915Y-192571486D01*
X210859343Y-192428629D01*
X210930772Y-192357200D01*
X211073629Y-192285771D01*
X212430772Y-192928629D02*
X212287914Y-192857200D01*
X212216486Y-192785771D01*
X212145057Y-192642914D01*
X212145057Y-192571486D01*
X212216486Y-192428629D01*
X212287914Y-192357200D01*
X212430772Y-192285771D01*
X212716486Y-192285771D01*
X212859343Y-192357200D01*
X212930772Y-192428629D01*
X213002200Y-192571486D01*
X213002200Y-192642914D01*
X212930772Y-192785771D01*
X212859343Y-192857200D01*
X212716486Y-192928629D01*
X212430772Y-192928629D01*
X212287914Y-193000057D01*
X212216486Y-193071486D01*
X212145057Y-193214343D01*
X212145057Y-193500057D01*
X212216486Y-193642914D01*
X212287914Y-193714343D01*
X212430772Y-193785771D01*
X212716486Y-193785771D01*
X212859343Y-193714343D01*
X212930772Y-193642914D01*
X213002200Y-193500057D01*
X213002200Y-193214343D01*
X212930772Y-193071486D01*
X212859343Y-193000057D01*
X212716486Y-192928629D01*
X215073628Y-192285771D02*
X215359342Y-192285771D01*
X215502200Y-192357200D01*
X215645057Y-192500057D01*
X215716485Y-192785771D01*
X215716485Y-193285771D01*
X215645057Y-193571486D01*
X215502200Y-193714343D01*
X215359342Y-193785771D01*
X215073628Y-193785771D01*
X214930771Y-193714343D01*
X214787914Y-193571486D01*
X214716485Y-193285771D01*
X214716485Y-192785771D01*
X214787914Y-192500057D01*
X214930771Y-192357200D01*
X215073628Y-192285771D01*
X216359343Y-193785771D02*
X216359343Y-192285771D01*
X216502200Y-193214343D02*
X216930771Y-193785771D01*
X216930771Y-192785771D02*
X216359343Y-193357200D01*
X217359343Y-192785771D02*
X217930772Y-192785771D01*
X217573629Y-192285771D02*
X217573629Y-193571486D01*
X217645057Y-193714343D01*
X217787915Y-193785771D01*
X217930772Y-193785771D01*
X219502200Y-192428629D02*
X219573629Y-192357200D01*
X219716486Y-192285771D01*
X220073629Y-192285771D01*
X220216486Y-192357200D01*
X220287915Y-192428629D01*
X220359343Y-192571486D01*
X220359343Y-192714343D01*
X220287915Y-192928629D01*
X219430772Y-193785771D01*
X220359343Y-193785771D01*
X221287914Y-192285771D02*
X221430771Y-192285771D01*
X221573628Y-192357200D01*
X221645057Y-192428629D01*
X221716486Y-192571486D01*
X221787914Y-192857200D01*
X221787914Y-193214343D01*
X221716486Y-193500057D01*
X221645057Y-193642914D01*
X221573628Y-193714343D01*
X221430771Y-193785771D01*
X221287914Y-193785771D01*
X221145057Y-193714343D01*
X221073628Y-193642914D01*
X221002200Y-193500057D01*
X220930771Y-193214343D01*
X220930771Y-192857200D01*
X221002200Y-192571486D01*
X221073628Y-192428629D01*
X221145057Y-192357200D01*
X221287914Y-192285771D01*
X223216485Y-193785771D02*
X222359342Y-193785771D01*
X222787914Y-193785771D02*
X222787914Y-192285771D01*
X222645057Y-192500057D01*
X222502199Y-192642914D01*
X222359342Y-192714343D01*
X224502199Y-192785771D02*
X224502199Y-193785771D01*
X224145056Y-192214343D02*
X223787913Y-193285771D01*
X224716485Y-193285771D01*
X177002200Y-194507200D02*
X285002200Y-194507200D01*
X178359343Y-196585771D02*
X178359343Y-195085771D01*
X179216486Y-196585771D02*
X178573629Y-195728629D01*
X179216486Y-195085771D02*
X178359343Y-195942914D01*
X179859343Y-196585771D02*
X179859343Y-195585771D01*
X179859343Y-195085771D02*
X179787914Y-195157200D01*
X179859343Y-195228629D01*
X179930771Y-195157200D01*
X179859343Y-195085771D01*
X179859343Y-195228629D01*
X181430772Y-196442914D02*
X181359343Y-196514343D01*
X181145057Y-196585771D01*
X181002200Y-196585771D01*
X180787915Y-196514343D01*
X180645057Y-196371486D01*
X180573629Y-196228629D01*
X180502200Y-195942914D01*
X180502200Y-195728629D01*
X180573629Y-195442914D01*
X180645057Y-195300057D01*
X180787915Y-195157200D01*
X181002200Y-195085771D01*
X181145057Y-195085771D01*
X181359343Y-195157200D01*
X181430772Y-195228629D01*
X182716486Y-196585771D02*
X182716486Y-195800057D01*
X182645057Y-195657200D01*
X182502200Y-195585771D01*
X182216486Y-195585771D01*
X182073629Y-195657200D01*
X182716486Y-196514343D02*
X182573629Y-196585771D01*
X182216486Y-196585771D01*
X182073629Y-196514343D01*
X182002200Y-196371486D01*
X182002200Y-196228629D01*
X182073629Y-196085771D01*
X182216486Y-196014343D01*
X182573629Y-196014343D01*
X182716486Y-195942914D01*
X184073629Y-196585771D02*
X184073629Y-195085771D01*
X184073629Y-196514343D02*
X183930772Y-196585771D01*
X183645058Y-196585771D01*
X183502200Y-196514343D01*
X183430772Y-196442914D01*
X183359343Y-196300057D01*
X183359343Y-195871486D01*
X183430772Y-195728629D01*
X183502200Y-195657200D01*
X183645058Y-195585771D01*
X183930772Y-195585771D01*
X184073629Y-195657200D01*
X185930772Y-195800057D02*
X186430772Y-195800057D01*
X186645058Y-196585771D02*
X185930772Y-196585771D01*
X185930772Y-195085771D01*
X186645058Y-195085771D01*
X187287915Y-196442914D02*
X187359343Y-196514343D01*
X187287915Y-196585771D01*
X187216486Y-196514343D01*
X187287915Y-196442914D01*
X187287915Y-196585771D01*
X188002201Y-196585771D02*
X188002201Y-195085771D01*
X188359344Y-195085771D01*
X188573629Y-195157200D01*
X188716487Y-195300057D01*
X188787915Y-195442914D01*
X188859344Y-195728629D01*
X188859344Y-195942914D01*
X188787915Y-196228629D01*
X188716487Y-196371486D01*
X188573629Y-196514343D01*
X188359344Y-196585771D01*
X188002201Y-196585771D01*
X189502201Y-196442914D02*
X189573629Y-196514343D01*
X189502201Y-196585771D01*
X189430772Y-196514343D01*
X189502201Y-196442914D01*
X189502201Y-196585771D01*
X190145058Y-196157200D02*
X190859344Y-196157200D01*
X190002201Y-196585771D02*
X190502201Y-195085771D01*
X191002201Y-196585771D01*
X191502201Y-196442914D02*
X191573629Y-196514343D01*
X191502201Y-196585771D01*
X191430772Y-196514343D01*
X191502201Y-196442914D01*
X191502201Y-196585771D01*
X194502201Y-196585771D02*
X194502201Y-195085771D01*
X194645058Y-196014343D02*
X195073629Y-196585771D01*
X195073629Y-195585771D02*
X194502201Y-196157200D01*
X195716487Y-196585771D02*
X195716487Y-195585771D01*
X195716487Y-195085771D02*
X195645058Y-195157200D01*
X195716487Y-195228629D01*
X195787915Y-195157200D01*
X195716487Y-195085771D01*
X195716487Y-195228629D01*
X197073630Y-196514343D02*
X196930773Y-196585771D01*
X196645059Y-196585771D01*
X196502201Y-196514343D01*
X196430773Y-196442914D01*
X196359344Y-196300057D01*
X196359344Y-195871486D01*
X196430773Y-195728629D01*
X196502201Y-195657200D01*
X196645059Y-195585771D01*
X196930773Y-195585771D01*
X197073630Y-195657200D01*
X198359344Y-196585771D02*
X198359344Y-195800057D01*
X198287915Y-195657200D01*
X198145058Y-195585771D01*
X197859344Y-195585771D01*
X197716487Y-195657200D01*
X198359344Y-196514343D02*
X198216487Y-196585771D01*
X197859344Y-196585771D01*
X197716487Y-196514343D01*
X197645058Y-196371486D01*
X197645058Y-196228629D01*
X197716487Y-196085771D01*
X197859344Y-196014343D01*
X198216487Y-196014343D01*
X198359344Y-195942914D01*
X199716487Y-196585771D02*
X199716487Y-195085771D01*
X199716487Y-196514343D02*
X199573630Y-196585771D01*
X199287916Y-196585771D01*
X199145058Y-196514343D01*
X199073630Y-196442914D01*
X199002201Y-196300057D01*
X199002201Y-195871486D01*
X199073630Y-195728629D01*
X199145058Y-195657200D01*
X199287916Y-195585771D01*
X199573630Y-195585771D01*
X199716487Y-195657200D01*
X202002201Y-197157200D02*
X201930773Y-197085771D01*
X201787916Y-196871486D01*
X201716487Y-196728629D01*
X201645058Y-196514343D01*
X201573630Y-196157200D01*
X201573630Y-195871486D01*
X201645058Y-195514343D01*
X201716487Y-195300057D01*
X201787916Y-195157200D01*
X201930773Y-194942914D01*
X202002201Y-194871486D01*
X202502201Y-195228629D02*
X202573630Y-195157200D01*
X202716487Y-195085771D01*
X203073630Y-195085771D01*
X203216487Y-195157200D01*
X203287916Y-195228629D01*
X203359344Y-195371486D01*
X203359344Y-195514343D01*
X203287916Y-195728629D01*
X202430773Y-196585771D01*
X203359344Y-196585771D01*
X204287915Y-195085771D02*
X204430772Y-195085771D01*
X204573629Y-195157200D01*
X204645058Y-195228629D01*
X204716487Y-195371486D01*
X204787915Y-195657200D01*
X204787915Y-196014343D01*
X204716487Y-196300057D01*
X204645058Y-196442914D01*
X204573629Y-196514343D01*
X204430772Y-196585771D01*
X204287915Y-196585771D01*
X204145058Y-196514343D01*
X204073629Y-196442914D01*
X204002201Y-196300057D01*
X203930772Y-196014343D01*
X203930772Y-195657200D01*
X204002201Y-195371486D01*
X204073629Y-195228629D01*
X204145058Y-195157200D01*
X204287915Y-195085771D01*
X206216486Y-196585771D02*
X205359343Y-196585771D01*
X205787915Y-196585771D02*
X205787915Y-195085771D01*
X205645058Y-195300057D01*
X205502200Y-195442914D01*
X205359343Y-195514343D01*
X207502200Y-195585771D02*
X207502200Y-196585771D01*
X207145057Y-195014343D02*
X206787914Y-196085771D01*
X207716486Y-196085771D01*
X208287914Y-196014343D02*
X209430771Y-196014343D01*
X210930771Y-196585771D02*
X210073628Y-196585771D01*
X210502200Y-196585771D02*
X210502200Y-195085771D01*
X210359343Y-195300057D01*
X210216485Y-195442914D01*
X210073628Y-195514343D01*
X211859342Y-195085771D02*
X212002199Y-195085771D01*
X212145056Y-195157200D01*
X212216485Y-195228629D01*
X212287914Y-195371486D01*
X212359342Y-195657200D01*
X212359342Y-196014343D01*
X212287914Y-196300057D01*
X212216485Y-196442914D01*
X212145056Y-196514343D01*
X212002199Y-196585771D01*
X211859342Y-196585771D01*
X211716485Y-196514343D01*
X211645056Y-196442914D01*
X211573628Y-196300057D01*
X211502199Y-196014343D01*
X211502199Y-195657200D01*
X211573628Y-195371486D01*
X211645056Y-195228629D01*
X211716485Y-195157200D01*
X211859342Y-195085771D01*
X213002199Y-196014343D02*
X214145056Y-196014343D01*
X215645056Y-196585771D02*
X214787913Y-196585771D01*
X215216485Y-196585771D02*
X215216485Y-195085771D01*
X215073628Y-195300057D01*
X214930770Y-195442914D01*
X214787913Y-195514343D01*
X216145056Y-195085771D02*
X217073627Y-195085771D01*
X216573627Y-195657200D01*
X216787913Y-195657200D01*
X216930770Y-195728629D01*
X217002199Y-195800057D01*
X217073627Y-195942914D01*
X217073627Y-196300057D01*
X217002199Y-196442914D01*
X216930770Y-196514343D01*
X216787913Y-196585771D01*
X216359341Y-196585771D01*
X216216484Y-196514343D01*
X216145056Y-196442914D01*
X219359341Y-195800057D02*
X219573627Y-195871486D01*
X219645055Y-195942914D01*
X219716484Y-196085771D01*
X219716484Y-196300057D01*
X219645055Y-196442914D01*
X219573627Y-196514343D01*
X219430769Y-196585771D01*
X218859341Y-196585771D01*
X218859341Y-195085771D01*
X219359341Y-195085771D01*
X219502198Y-195157200D01*
X219573627Y-195228629D01*
X219645055Y-195371486D01*
X219645055Y-195514343D01*
X219573627Y-195657200D01*
X219502198Y-195728629D01*
X219359341Y-195800057D01*
X218859341Y-195800057D01*
X220216484Y-195085771D02*
X221216484Y-195085771D01*
X220216484Y-196585771D01*
X221216484Y-196585771D01*
X222645055Y-196585771D02*
X222145055Y-195871486D01*
X221787912Y-196585771D02*
X221787912Y-195085771D01*
X222359340Y-195085771D01*
X222502198Y-195157200D01*
X222573626Y-195228629D01*
X222645055Y-195371486D01*
X222645055Y-195585771D01*
X222573626Y-195728629D01*
X222502198Y-195800057D01*
X222359340Y-195871486D01*
X221787912Y-195871486D01*
X225145055Y-195085771D02*
X224430769Y-195085771D01*
X224359340Y-195800057D01*
X224430769Y-195728629D01*
X224573626Y-195657200D01*
X224930769Y-195657200D01*
X225073626Y-195728629D01*
X225145055Y-195800057D01*
X225216483Y-195942914D01*
X225216483Y-196300057D01*
X225145055Y-196442914D01*
X225073626Y-196514343D01*
X224930769Y-196585771D01*
X224573626Y-196585771D01*
X224430769Y-196514343D01*
X224359340Y-196442914D01*
X226645054Y-196585771D02*
X225787911Y-196585771D01*
X226216483Y-196585771D02*
X226216483Y-195085771D01*
X226073626Y-195300057D01*
X225930768Y-195442914D01*
X225787911Y-195514343D01*
X227145054Y-195085771D02*
X228145054Y-195085771D01*
X227502197Y-196585771D01*
X228573625Y-195085771D02*
X229573625Y-195085771D01*
X228930768Y-196585771D01*
X230002196Y-197157200D02*
X230073624Y-197085771D01*
X230216481Y-196871486D01*
X230287910Y-196728629D01*
X230359339Y-196514343D01*
X230430767Y-196157200D01*
X230430767Y-195871486D01*
X230359339Y-195514343D01*
X230287910Y-195300057D01*
X230216481Y-195157200D01*
X230073624Y-194942914D01*
X230002196Y-194871486D01*
X231145053Y-196014343D02*
X232287910Y-196014343D01*
X233002196Y-195585771D02*
X233002196Y-197085771D01*
X233002196Y-195657200D02*
X233145053Y-195585771D01*
X233430767Y-195585771D01*
X233573624Y-195657200D01*
X233645053Y-195728629D01*
X233716482Y-195871486D01*
X233716482Y-196300057D01*
X233645053Y-196442914D01*
X233573624Y-196514343D01*
X233430767Y-196585771D01*
X233145053Y-196585771D01*
X233002196Y-196514343D01*
X234359339Y-196585771D02*
X234359339Y-195585771D01*
X234359339Y-195871486D02*
X234430767Y-195728629D01*
X234502196Y-195657200D01*
X234645053Y-195585771D01*
X234787910Y-195585771D01*
X235502196Y-196585771D02*
X235359338Y-196514343D01*
X235287910Y-196442914D01*
X235216481Y-196300057D01*
X235216481Y-195871486D01*
X235287910Y-195728629D01*
X235359338Y-195657200D01*
X235502196Y-195585771D01*
X235716481Y-195585771D01*
X235859338Y-195657200D01*
X235930767Y-195728629D01*
X236002196Y-195871486D01*
X236002196Y-196300057D01*
X235930767Y-196442914D01*
X235859338Y-196514343D01*
X235716481Y-196585771D01*
X235502196Y-196585771D01*
X237287910Y-196585771D02*
X237287910Y-195085771D01*
X237287910Y-196514343D02*
X237145053Y-196585771D01*
X236859339Y-196585771D01*
X236716481Y-196514343D01*
X236645053Y-196442914D01*
X236573624Y-196300057D01*
X236573624Y-195871486D01*
X236645053Y-195728629D01*
X236716481Y-195657200D01*
X236859339Y-195585771D01*
X237145053Y-195585771D01*
X237287910Y-195657200D01*
X238645053Y-195585771D02*
X238645053Y-196585771D01*
X238002196Y-195585771D02*
X238002196Y-196371486D01*
X238073624Y-196514343D01*
X238216482Y-196585771D01*
X238430767Y-196585771D01*
X238573624Y-196514343D01*
X238645053Y-196442914D01*
X240002196Y-196514343D02*
X239859339Y-196585771D01*
X239573625Y-196585771D01*
X239430767Y-196514343D01*
X239359339Y-196442914D01*
X239287910Y-196300057D01*
X239287910Y-195871486D01*
X239359339Y-195728629D01*
X239430767Y-195657200D01*
X239573625Y-195585771D01*
X239859339Y-195585771D01*
X240002196Y-195657200D01*
X240430767Y-195585771D02*
X241002196Y-195585771D01*
X240645053Y-195085771D02*
X240645053Y-196371486D01*
X240716481Y-196514343D01*
X240859339Y-196585771D01*
X241002196Y-196585771D01*
X177002200Y-191507200D02*
X285002200Y-191507200D01*
D11*
X264216486Y-193785771D02*
X263716486Y-193071486D01*
X263359343Y-193785771D02*
X263359343Y-192285771D01*
X263930771Y-192285771D01*
X264073629Y-192357200D01*
X264145057Y-192428629D01*
X264216486Y-192571486D01*
X264216486Y-192785771D01*
X264145057Y-192928629D01*
X264073629Y-193000057D01*
X263930771Y-193071486D01*
X263359343Y-193071486D01*
X265430771Y-193714343D02*
X265287914Y-193785771D01*
X265002200Y-193785771D01*
X264859343Y-193714343D01*
X264787914Y-193571486D01*
X264787914Y-193000057D01*
X264859343Y-192857200D01*
X265002200Y-192785771D01*
X265287914Y-192785771D01*
X265430771Y-192857200D01*
X265502200Y-193000057D01*
X265502200Y-193142914D01*
X264787914Y-193285771D01*
X266002200Y-192785771D02*
X266359343Y-193785771D01*
X266716485Y-192785771D01*
X267287914Y-193642914D02*
X267359342Y-193714343D01*
X267287914Y-193785771D01*
X267216485Y-193714343D01*
X267287914Y-193642914D01*
X267287914Y-193785771D01*
X267287914Y-192857200D02*
X267359342Y-192928629D01*
X267287914Y-193000057D01*
X267216485Y-192928629D01*
X267287914Y-192857200D01*
X267287914Y-193000057D01*
X269430771Y-192285771D02*
X269573628Y-192285771D01*
X269716485Y-192357200D01*
X269787914Y-192428629D01*
X269859343Y-192571486D01*
X269930771Y-192857200D01*
X269930771Y-193214343D01*
X269859343Y-193500057D01*
X269787914Y-193642914D01*
X269716485Y-193714343D01*
X269573628Y-193785771D01*
X269430771Y-193785771D01*
X269287914Y-193714343D01*
X269216485Y-193642914D01*
X269145057Y-193500057D01*
X269073628Y-193214343D01*
X269073628Y-192857200D01*
X269145057Y-192571486D01*
X269216485Y-192428629D01*
X269287914Y-192357200D01*
X269430771Y-192285771D01*
X271359342Y-193785771D02*
X270502199Y-193785771D01*
X270930771Y-193785771D02*
X270930771Y-192285771D01*
X270787914Y-192500057D01*
X270645056Y-192642914D01*
X270502199Y-192714343D01*
D10*
X178287914Y-193714343D02*
X178502200Y-193785771D01*
X178859343Y-193785771D01*
X179002200Y-193714343D01*
X179073629Y-193642914D01*
X179145057Y-193500057D01*
X179145057Y-193357200D01*
X179073629Y-193214343D01*
X179002200Y-193142914D01*
X178859343Y-193071486D01*
X178573629Y-193000057D01*
X178430771Y-192928629D01*
X178359343Y-192857200D01*
X178287914Y-192714343D01*
X178287914Y-192571486D01*
X178359343Y-192428629D01*
X178430771Y-192357200D01*
X178573629Y-192285771D01*
X178930771Y-192285771D01*
X179145057Y-192357200D01*
X179787914Y-193785771D02*
X179787914Y-192785771D01*
X179787914Y-192285771D02*
X179716485Y-192357200D01*
X179787914Y-192428629D01*
X179859342Y-192357200D01*
X179787914Y-192285771D01*
X179787914Y-192428629D01*
X180359343Y-192785771D02*
X181145057Y-192785771D01*
X180359343Y-193785771D01*
X181145057Y-193785771D01*
X182287914Y-193714343D02*
X182145057Y-193785771D01*
X181859343Y-193785771D01*
X181716486Y-193714343D01*
X181645057Y-193571486D01*
X181645057Y-193000057D01*
X181716486Y-192857200D01*
X181859343Y-192785771D01*
X182145057Y-192785771D01*
X182287914Y-192857200D01*
X182359343Y-193000057D01*
X182359343Y-193142914D01*
X181645057Y-193285771D01*
X183002200Y-193642914D02*
X183073628Y-193714343D01*
X183002200Y-193785771D01*
X182930771Y-193714343D01*
X183002200Y-193642914D01*
X183002200Y-193785771D01*
X183002200Y-192857200D02*
X183073628Y-192928629D01*
X183002200Y-193000057D01*
X182930771Y-192928629D01*
X183002200Y-192857200D01*
X183002200Y-193000057D01*
X184787914Y-193357200D02*
X185502200Y-193357200D01*
X184645057Y-193785771D02*
X185145057Y-192285771D01*
X185645057Y-193785771D01*
X186787914Y-192785771D02*
X186787914Y-193785771D01*
X186430771Y-192214343D02*
X186073628Y-193285771D01*
X187002200Y-193285771D01*
X263359343Y-196585771D02*
X263359343Y-195085771D01*
X264716486Y-196585771D02*
X264716486Y-195085771D01*
X264716486Y-196514343D02*
X264573629Y-196585771D01*
X264287915Y-196585771D01*
X264145057Y-196514343D01*
X264073629Y-196442914D01*
X264002200Y-196300057D01*
X264002200Y-195871486D01*
X264073629Y-195728629D01*
X264145057Y-195657200D01*
X264287915Y-195585771D01*
X264573629Y-195585771D01*
X264716486Y-195657200D01*
X265430772Y-196442914D02*
X265502200Y-196514343D01*
X265430772Y-196585771D01*
X265359343Y-196514343D01*
X265430772Y-196442914D01*
X265430772Y-196585771D01*
X265430772Y-195657200D02*
X265502200Y-195728629D01*
X265430772Y-195800057D01*
X265359343Y-195728629D01*
X265430772Y-195657200D01*
X265430772Y-195800057D01*
X268073629Y-196585771D02*
X267216486Y-196585771D01*
X267645058Y-196585771D02*
X267645058Y-195085771D01*
X267502201Y-195300057D01*
X267359343Y-195442914D01*
X267216486Y-195514343D01*
X269787914Y-195014343D02*
X268502200Y-196942914D01*
X271073629Y-196585771D02*
X270216486Y-196585771D01*
X270645058Y-196585771D02*
X270645058Y-195085771D01*
X270502201Y-195300057D01*
X270359343Y-195442914D01*
X270216486Y-195514343D01*
X177002200Y-187507200D02*
X285002200Y-187507200D01*
D12*
X178454581Y-188211962D02*
X179597438Y-188211962D01*
X178776010Y-190211962D02*
X179026010Y-188211962D01*
X180014105Y-190211962D02*
X180180771Y-188878629D01*
X180264105Y-188211962D02*
X180156962Y-188307200D01*
X180240295Y-188402438D01*
X180347439Y-188307200D01*
X180264105Y-188211962D01*
X180240295Y-188402438D01*
X180847438Y-188878629D02*
X181609343Y-188878629D01*
X181216486Y-188211962D02*
X181002200Y-189926248D01*
X181073630Y-190116724D01*
X181252201Y-190211962D01*
X181442677Y-190211962D01*
X182395058Y-190211962D02*
X182216487Y-190116724D01*
X182145057Y-189926248D01*
X182359343Y-188211962D01*
X183930772Y-190116724D02*
X183728391Y-190211962D01*
X183347439Y-190211962D01*
X183168867Y-190116724D01*
X183097438Y-189926248D01*
X183192676Y-189164343D01*
X183311724Y-188973867D01*
X183514105Y-188878629D01*
X183895057Y-188878629D01*
X184073629Y-188973867D01*
X184145057Y-189164343D01*
X184121248Y-189354819D01*
X183145057Y-189545295D01*
X184895057Y-190021486D02*
X184978392Y-190116724D01*
X184871248Y-190211962D01*
X184787915Y-190116724D01*
X184895057Y-190021486D01*
X184871248Y-190211962D01*
X185026010Y-188973867D02*
X185109344Y-189069105D01*
X185002200Y-189164343D01*
X184918867Y-189069105D01*
X185026010Y-188973867D01*
X185002200Y-189164343D01*
X188514106Y-190021486D02*
X188406964Y-190116724D01*
X188109344Y-190211962D01*
X187918868Y-190211962D01*
X187645059Y-190116724D01*
X187478392Y-189926248D01*
X187406963Y-189735771D01*
X187359344Y-189354819D01*
X187395058Y-189069105D01*
X187537915Y-188688152D01*
X187656964Y-188497676D01*
X187871249Y-188307200D01*
X188168868Y-188211962D01*
X188359344Y-188211962D01*
X188633154Y-188307200D01*
X188716487Y-188402438D01*
X189347439Y-190211962D02*
X189597439Y-188211962D01*
X190085534Y-189640533D01*
X190930773Y-188211962D01*
X190680773Y-190211962D01*
X191549820Y-190116724D02*
X191823630Y-190211962D01*
X192299820Y-190211962D01*
X192502201Y-190116724D01*
X192609343Y-190021486D01*
X192728392Y-189831010D01*
X192752201Y-189640533D01*
X192680772Y-189450057D01*
X192597439Y-189354819D01*
X192418867Y-189259581D01*
X192049820Y-189164343D01*
X191871249Y-189069105D01*
X191787915Y-188973867D01*
X191716486Y-188783390D01*
X191740296Y-188592914D01*
X191859343Y-188402438D01*
X191966487Y-188307200D01*
X192168868Y-188211962D01*
X192645058Y-188211962D01*
X192918868Y-188307200D01*
X196204583Y-190211962D02*
X195656963Y-189259581D01*
X195061725Y-190211962D02*
X195311725Y-188211962D01*
X196073630Y-188211962D01*
X196252201Y-188307200D01*
X196335535Y-188402438D01*
X196406964Y-188592914D01*
X196371249Y-188878629D01*
X196252202Y-189069105D01*
X196145058Y-189164343D01*
X195942677Y-189259581D01*
X195180772Y-189259581D01*
X197692678Y-188211962D02*
X198073630Y-188211962D01*
X198252201Y-188307200D01*
X198418869Y-188497676D01*
X198466487Y-188878629D01*
X198383154Y-189545295D01*
X198240297Y-189926248D01*
X198026011Y-190116724D01*
X197823630Y-190211962D01*
X197442678Y-190211962D01*
X197264107Y-190116724D01*
X197097439Y-189926248D01*
X197049820Y-189545295D01*
X197133153Y-188878629D01*
X197276011Y-188497676D01*
X197490297Y-188307200D01*
X197692678Y-188211962D01*
X200323630Y-190021486D02*
X200216488Y-190116724D01*
X199918868Y-190211962D01*
X199728392Y-190211962D01*
X199454583Y-190116724D01*
X199287916Y-189926248D01*
X199216487Y-189735771D01*
X199168868Y-189354819D01*
X199204582Y-189069105D01*
X199347439Y-188688152D01*
X199466488Y-188497676D01*
X199680773Y-188307200D01*
X199978392Y-188211962D01*
X200168868Y-188211962D01*
X200442678Y-188307200D01*
X200526011Y-188402438D01*
X202645059Y-188211962D02*
X203787916Y-188211962D01*
X202966488Y-190211962D02*
X203216488Y-188211962D01*
X204978393Y-190116724D02*
X204776012Y-190211962D01*
X204395060Y-190211962D01*
X204216488Y-190116724D01*
X204145059Y-189926248D01*
X204240297Y-189164343D01*
X204359345Y-188973867D01*
X204561726Y-188878629D01*
X204942678Y-188878629D01*
X205121250Y-188973867D01*
X205192678Y-189164343D01*
X205168869Y-189354819D01*
X204192678Y-189545295D01*
X205835536Y-190116724D02*
X206014108Y-190211962D01*
X206395060Y-190211962D01*
X206597441Y-190116724D01*
X206716488Y-189926248D01*
X206728393Y-189831010D01*
X206656964Y-189640533D01*
X206478393Y-189545295D01*
X206192679Y-189545295D01*
X206014107Y-189450057D01*
X205942678Y-189259581D01*
X205954583Y-189164343D01*
X206073631Y-188973867D01*
X206276012Y-188878629D01*
X206561726Y-188878629D01*
X206740298Y-188973867D01*
X207418869Y-188878629D02*
X208180774Y-188878629D01*
X207787917Y-188211962D02*
X207573631Y-189926248D01*
X207645061Y-190116724D01*
X207823632Y-190211962D01*
X208014108Y-190211962D01*
X208680774Y-190211962D02*
X208930774Y-188211962D01*
X208835536Y-188973867D02*
X209037917Y-188878629D01*
X209418869Y-188878629D01*
X209597441Y-188973867D01*
X209680774Y-189069105D01*
X209752202Y-189259581D01*
X209680774Y-189831010D01*
X209561726Y-190021486D01*
X209454584Y-190116724D01*
X209252203Y-190211962D01*
X208871251Y-190211962D01*
X208692679Y-190116724D01*
X211264108Y-190116724D02*
X211061727Y-190211962D01*
X210680775Y-190211962D01*
X210502203Y-190116724D01*
X210430774Y-189926248D01*
X210526012Y-189164343D01*
X210645060Y-188973867D01*
X210847441Y-188878629D01*
X211228393Y-188878629D01*
X211406965Y-188973867D01*
X211478393Y-189164343D01*
X211454584Y-189354819D01*
X210478393Y-189545295D01*
X213061727Y-190211962D02*
X213192679Y-189164343D01*
X213121251Y-188973867D01*
X212942679Y-188878629D01*
X212561727Y-188878629D01*
X212359346Y-188973867D01*
X213073632Y-190116724D02*
X212871251Y-190211962D01*
X212395061Y-190211962D01*
X212216489Y-190116724D01*
X212145060Y-189926248D01*
X212168870Y-189735771D01*
X212287917Y-189545295D01*
X212490299Y-189450057D01*
X212966489Y-189450057D01*
X213168870Y-189354819D01*
X214014108Y-190211962D02*
X214180774Y-188878629D01*
X214156965Y-189069105D02*
X214264109Y-188973867D01*
X214466489Y-188878629D01*
X214752203Y-188878629D01*
X214930775Y-188973867D01*
X215002203Y-189164343D01*
X214871251Y-190211962D01*
X215002203Y-189164343D02*
X215121251Y-188973867D01*
X215323632Y-188878629D01*
X215609346Y-188878629D01*
X215787918Y-188973867D01*
X215859346Y-189164343D01*
X215728394Y-190211962D01*
X218180775Y-189640533D02*
X219133156Y-189640533D01*
X217918871Y-190211962D02*
X218835538Y-188211962D01*
X219252205Y-190211962D01*
X220776014Y-190211962D02*
X221026014Y-188211962D01*
X220787919Y-190116724D02*
X220585538Y-190211962D01*
X220204586Y-190211962D01*
X220026015Y-190116724D01*
X219942680Y-190021486D01*
X219871252Y-189831010D01*
X219942680Y-189259581D01*
X220061728Y-189069105D01*
X220168872Y-188973867D01*
X220371252Y-188878629D01*
X220752204Y-188878629D01*
X220930776Y-188973867D01*
X222585538Y-190211962D02*
X222716490Y-189164343D01*
X222645062Y-188973867D01*
X222466490Y-188878629D01*
X222085538Y-188878629D01*
X221883157Y-188973867D01*
X222597443Y-190116724D02*
X222395062Y-190211962D01*
X221918872Y-190211962D01*
X221740300Y-190116724D01*
X221668871Y-189926248D01*
X221692681Y-189735771D01*
X221811728Y-189545295D01*
X222014110Y-189450057D01*
X222490300Y-189450057D01*
X222692681Y-189354819D01*
X223704585Y-188878629D02*
X223454585Y-190878629D01*
X223692681Y-188973867D02*
X223895062Y-188878629D01*
X224276014Y-188878629D01*
X224454586Y-188973867D01*
X224537919Y-189069105D01*
X224609347Y-189259581D01*
X224537919Y-189831010D01*
X224418871Y-190021486D01*
X224311729Y-190116724D01*
X224109348Y-190211962D01*
X223728396Y-190211962D01*
X223549824Y-190116724D01*
X225228395Y-188878629D02*
X225990300Y-188878629D01*
X225597443Y-188211962D02*
X225383157Y-189926248D01*
X225454587Y-190116724D01*
X225633158Y-190211962D01*
X225823634Y-190211962D01*
X227264110Y-190116724D02*
X227061729Y-190211962D01*
X226680777Y-190211962D01*
X226502205Y-190116724D01*
X226430776Y-189926248D01*
X226526014Y-189164343D01*
X226645062Y-188973867D01*
X226847443Y-188878629D01*
X227228395Y-188878629D01*
X227406967Y-188973867D01*
X227478395Y-189164343D01*
X227454586Y-189354819D01*
X226478395Y-189545295D01*
X228204586Y-190211962D02*
X228371252Y-188878629D01*
X228323633Y-189259581D02*
X228442682Y-189069105D01*
X228549825Y-188973867D01*
X228752205Y-188878629D01*
X228942681Y-188878629D01*
D10*
X178859343Y-185600057D02*
X178359343Y-185600057D01*
X178359343Y-186385771D02*
X178359343Y-184885771D01*
X179073629Y-184885771D01*
X179645057Y-186385771D02*
X179645057Y-185385771D01*
X179645057Y-184885771D02*
X179573628Y-184957200D01*
X179645057Y-185028629D01*
X179716485Y-184957200D01*
X179645057Y-184885771D01*
X179645057Y-185028629D01*
X180573629Y-186385771D02*
X180430771Y-186314343D01*
X180359343Y-186171486D01*
X180359343Y-184885771D01*
X181716485Y-186314343D02*
X181573628Y-186385771D01*
X181287914Y-186385771D01*
X181145057Y-186314343D01*
X181073628Y-186171486D01*
X181073628Y-185600057D01*
X181145057Y-185457200D01*
X181287914Y-185385771D01*
X181573628Y-185385771D01*
X181716485Y-185457200D01*
X181787914Y-185600057D01*
X181787914Y-185742914D01*
X181073628Y-185885771D01*
X182430771Y-186242914D02*
X182502199Y-186314343D01*
X182430771Y-186385771D01*
X182359342Y-186314343D01*
X182430771Y-186242914D01*
X182430771Y-186385771D01*
X182430771Y-185457200D02*
X182502199Y-185528629D01*
X182430771Y-185600057D01*
X182359342Y-185528629D01*
X182430771Y-185457200D01*
X182430771Y-185600057D01*
X184216485Y-186314343D02*
X184359342Y-186385771D01*
X184645057Y-186385771D01*
X184787914Y-186314343D01*
X184859342Y-186171486D01*
X184859342Y-186100057D01*
X184787914Y-185957200D01*
X184645057Y-185885771D01*
X184430771Y-185885771D01*
X184287914Y-185814343D01*
X184216485Y-185671486D01*
X184216485Y-185600057D01*
X184287914Y-185457200D01*
X184430771Y-185385771D01*
X184645057Y-185385771D01*
X184787914Y-185457200D01*
X185502200Y-186385771D02*
X185502200Y-185385771D01*
X185502200Y-184885771D02*
X185430771Y-184957200D01*
X185502200Y-185028629D01*
X185573628Y-184957200D01*
X185502200Y-184885771D01*
X185502200Y-185028629D01*
X186216486Y-185385771D02*
X186216486Y-186385771D01*
X186216486Y-185528629D02*
X186287914Y-185457200D01*
X186430772Y-185385771D01*
X186645057Y-185385771D01*
X186787914Y-185457200D01*
X186859343Y-185600057D01*
X186859343Y-186385771D01*
X188216486Y-185385771D02*
X188216486Y-186600057D01*
X188145057Y-186742914D01*
X188073629Y-186814343D01*
X187930772Y-186885771D01*
X187716486Y-186885771D01*
X187573629Y-186814343D01*
X188216486Y-186314343D02*
X188073629Y-186385771D01*
X187787915Y-186385771D01*
X187645057Y-186314343D01*
X187573629Y-186242914D01*
X187502200Y-186100057D01*
X187502200Y-185671486D01*
X187573629Y-185528629D01*
X187645057Y-185457200D01*
X187787915Y-185385771D01*
X188073629Y-185385771D01*
X188216486Y-185457200D01*
X189145058Y-186385771D02*
X189002200Y-186314343D01*
X188930772Y-186171486D01*
X188930772Y-184885771D01*
X190287914Y-186314343D02*
X190145057Y-186385771D01*
X189859343Y-186385771D01*
X189716486Y-186314343D01*
X189645057Y-186171486D01*
X189645057Y-185600057D01*
X189716486Y-185457200D01*
X189859343Y-185385771D01*
X190145057Y-185385771D01*
X190287914Y-185457200D01*
X190359343Y-185600057D01*
X190359343Y-185742914D01*
X189645057Y-185885771D01*
X191002200Y-186385771D02*
X191002200Y-185385771D01*
X191002200Y-185671486D02*
X191073628Y-185528629D01*
X191145057Y-185457200D01*
X191287914Y-185385771D01*
X191430771Y-185385771D01*
X192145057Y-186385771D02*
X192002199Y-186314343D01*
X191930771Y-186242914D01*
X191859342Y-186100057D01*
X191859342Y-185671486D01*
X191930771Y-185528629D01*
X192002199Y-185457200D01*
X192145057Y-185385771D01*
X192359342Y-185385771D01*
X192502199Y-185457200D01*
X192573628Y-185528629D01*
X192645057Y-185671486D01*
X192645057Y-186100057D01*
X192573628Y-186242914D01*
X192502199Y-186314343D01*
X192359342Y-186385771D01*
X192145057Y-186385771D01*
X193930771Y-186314343D02*
X193787914Y-186385771D01*
X193502200Y-186385771D01*
X193359342Y-186314343D01*
X193287914Y-186242914D01*
X193216485Y-186100057D01*
X193216485Y-185671486D01*
X193287914Y-185528629D01*
X193359342Y-185457200D01*
X193502200Y-185385771D01*
X193787914Y-185385771D01*
X193930771Y-185457200D01*
X194573628Y-185814343D02*
X195716485Y-185814343D01*
X197073628Y-186385771D02*
X197073628Y-185600057D01*
X197002199Y-185457200D01*
X196859342Y-185385771D01*
X196573628Y-185385771D01*
X196430771Y-185457200D01*
X197073628Y-186314343D02*
X196930771Y-186385771D01*
X196573628Y-186385771D01*
X196430771Y-186314343D01*
X196359342Y-186171486D01*
X196359342Y-186028629D01*
X196430771Y-185885771D01*
X196573628Y-185814343D01*
X196930771Y-185814343D01*
X197073628Y-185742914D01*
X198430771Y-186385771D02*
X198430771Y-184885771D01*
X198430771Y-186314343D02*
X198287914Y-186385771D01*
X198002200Y-186385771D01*
X197859342Y-186314343D01*
X197787914Y-186242914D01*
X197716485Y-186100057D01*
X197716485Y-185671486D01*
X197787914Y-185528629D01*
X197859342Y-185457200D01*
X198002200Y-185385771D01*
X198287914Y-185385771D01*
X198430771Y-185457200D01*
X199787914Y-186385771D02*
X199787914Y-185600057D01*
X199716485Y-185457200D01*
X199573628Y-185385771D01*
X199287914Y-185385771D01*
X199145057Y-185457200D01*
X199787914Y-186314343D02*
X199645057Y-186385771D01*
X199287914Y-186385771D01*
X199145057Y-186314343D01*
X199073628Y-186171486D01*
X199073628Y-186028629D01*
X199145057Y-185885771D01*
X199287914Y-185814343D01*
X199645057Y-185814343D01*
X199787914Y-185742914D01*
X200502200Y-185385771D02*
X200502200Y-186885771D01*
X200502200Y-185457200D02*
X200645057Y-185385771D01*
X200930771Y-185385771D01*
X201073628Y-185457200D01*
X201145057Y-185528629D01*
X201216486Y-185671486D01*
X201216486Y-186100057D01*
X201145057Y-186242914D01*
X201073628Y-186314343D01*
X200930771Y-186385771D01*
X200645057Y-186385771D01*
X200502200Y-186314343D01*
X201645057Y-185385771D02*
X202216486Y-185385771D01*
X201859343Y-184885771D02*
X201859343Y-186171486D01*
X201930771Y-186314343D01*
X202073629Y-186385771D01*
X202216486Y-186385771D01*
X203287914Y-186314343D02*
X203145057Y-186385771D01*
X202859343Y-186385771D01*
X202716486Y-186314343D01*
X202645057Y-186171486D01*
X202645057Y-185600057D01*
X202716486Y-185457200D01*
X202859343Y-185385771D01*
X203145057Y-185385771D01*
X203287914Y-185457200D01*
X203359343Y-185600057D01*
X203359343Y-185742914D01*
X202645057Y-185885771D01*
X204002200Y-186385771D02*
X204002200Y-185385771D01*
X204002200Y-185671486D02*
X204073628Y-185528629D01*
X204145057Y-185457200D01*
X204287914Y-185385771D01*
X204430771Y-185385771D01*
X204930771Y-185814343D02*
X206073628Y-185814343D01*
X206573628Y-185385771D02*
X207145057Y-185385771D01*
X206787914Y-184885771D02*
X206787914Y-186171486D01*
X206859342Y-186314343D01*
X207002200Y-186385771D01*
X207145057Y-186385771D01*
X207645057Y-186385771D02*
X207645057Y-184885771D01*
X207645057Y-185457200D02*
X207787914Y-185385771D01*
X208073628Y-185385771D01*
X208216485Y-185457200D01*
X208287914Y-185528629D01*
X208359343Y-185671486D01*
X208359343Y-186100057D01*
X208287914Y-186242914D01*
X208216485Y-186314343D01*
X208073628Y-186385771D01*
X207787914Y-186385771D01*
X207645057Y-186314343D01*
X208930771Y-185028629D02*
X209002200Y-184957200D01*
X209145057Y-184885771D01*
X209502200Y-184885771D01*
X209645057Y-184957200D01*
X209716486Y-185028629D01*
X209787914Y-185171486D01*
X209787914Y-185314343D01*
X209716486Y-185528629D01*
X208859343Y-186385771D01*
X209787914Y-186385771D01*
X210430771Y-186242914D02*
X210502199Y-186314343D01*
X210430771Y-186385771D01*
X210359342Y-186314343D01*
X210430771Y-186242914D01*
X210430771Y-186385771D01*
X211145057Y-186385771D02*
X211145057Y-184885771D01*
X211287914Y-185814343D02*
X211716485Y-186385771D01*
X211716485Y-185385771D02*
X211145057Y-185957200D01*
X212359343Y-186385771D02*
X212359343Y-185385771D01*
X212359343Y-184885771D02*
X212287914Y-184957200D01*
X212359343Y-185028629D01*
X212430771Y-184957200D01*
X212359343Y-184885771D01*
X212359343Y-185028629D01*
X213716486Y-186314343D02*
X213573629Y-186385771D01*
X213287915Y-186385771D01*
X213145057Y-186314343D01*
X213073629Y-186242914D01*
X213002200Y-186100057D01*
X213002200Y-185671486D01*
X213073629Y-185528629D01*
X213145057Y-185457200D01*
X213287915Y-185385771D01*
X213573629Y-185385771D01*
X213716486Y-185457200D01*
X215002200Y-186385771D02*
X215002200Y-185600057D01*
X214930771Y-185457200D01*
X214787914Y-185385771D01*
X214502200Y-185385771D01*
X214359343Y-185457200D01*
X215002200Y-186314343D02*
X214859343Y-186385771D01*
X214502200Y-186385771D01*
X214359343Y-186314343D01*
X214287914Y-186171486D01*
X214287914Y-186028629D01*
X214359343Y-185885771D01*
X214502200Y-185814343D01*
X214859343Y-185814343D01*
X215002200Y-185742914D01*
X216359343Y-186385771D02*
X216359343Y-184885771D01*
X216359343Y-186314343D02*
X216216486Y-186385771D01*
X215930772Y-186385771D01*
X215787914Y-186314343D01*
X215716486Y-186242914D01*
X215645057Y-186100057D01*
X215645057Y-185671486D01*
X215716486Y-185528629D01*
X215787914Y-185457200D01*
X215930772Y-185385771D01*
X216216486Y-185385771D01*
X216359343Y-185457200D01*
X216716486Y-186528629D02*
X217859343Y-186528629D01*
X218216486Y-185385771D02*
X218216486Y-186885771D01*
X218216486Y-185457200D02*
X218359343Y-185385771D01*
X218645057Y-185385771D01*
X218787914Y-185457200D01*
X218859343Y-185528629D01*
X218930772Y-185671486D01*
X218930772Y-186100057D01*
X218859343Y-186242914D01*
X218787914Y-186314343D01*
X218645057Y-186385771D01*
X218359343Y-186385771D01*
X218216486Y-186314343D01*
X220216486Y-186314343D02*
X220073629Y-186385771D01*
X219787915Y-186385771D01*
X219645057Y-186314343D01*
X219573629Y-186242914D01*
X219502200Y-186100057D01*
X219502200Y-185671486D01*
X219573629Y-185528629D01*
X219645057Y-185457200D01*
X219787915Y-185385771D01*
X220073629Y-185385771D01*
X220216486Y-185457200D01*
X220859343Y-186385771D02*
X220859343Y-184885771D01*
X220859343Y-185457200D02*
X221002200Y-185385771D01*
X221287914Y-185385771D01*
X221430771Y-185457200D01*
X221502200Y-185528629D01*
X221573629Y-185671486D01*
X221573629Y-186100057D01*
X221502200Y-186242914D01*
X221430771Y-186314343D01*
X221287914Y-186385771D01*
X221002200Y-186385771D01*
X220859343Y-186314343D01*
X177002200Y-181507200D02*
X285002200Y-181507200D01*
X178287914Y-183614343D02*
X178502200Y-183685771D01*
X178859343Y-183685771D01*
X179002200Y-183614343D01*
X179073629Y-183542914D01*
X179145057Y-183400057D01*
X179145057Y-183257200D01*
X179073629Y-183114343D01*
X179002200Y-183042914D01*
X178859343Y-182971486D01*
X178573629Y-182900057D01*
X178430771Y-182828629D01*
X178359343Y-182757200D01*
X178287914Y-182614343D01*
X178287914Y-182471486D01*
X178359343Y-182328629D01*
X178430771Y-182257200D01*
X178573629Y-182185771D01*
X178930771Y-182185771D01*
X179145057Y-182257200D01*
X179787914Y-183685771D02*
X179787914Y-182185771D01*
X180430771Y-183685771D02*
X180430771Y-182900057D01*
X180359342Y-182757200D01*
X180216485Y-182685771D01*
X180002200Y-182685771D01*
X179859342Y-182757200D01*
X179787914Y-182828629D01*
X181716485Y-183614343D02*
X181573628Y-183685771D01*
X181287914Y-183685771D01*
X181145057Y-183614343D01*
X181073628Y-183471486D01*
X181073628Y-182900057D01*
X181145057Y-182757200D01*
X181287914Y-182685771D01*
X181573628Y-182685771D01*
X181716485Y-182757200D01*
X181787914Y-182900057D01*
X181787914Y-183042914D01*
X181073628Y-183185771D01*
X183002199Y-183614343D02*
X182859342Y-183685771D01*
X182573628Y-183685771D01*
X182430771Y-183614343D01*
X182359342Y-183471486D01*
X182359342Y-182900057D01*
X182430771Y-182757200D01*
X182573628Y-182685771D01*
X182859342Y-182685771D01*
X183002199Y-182757200D01*
X183073628Y-182900057D01*
X183073628Y-183042914D01*
X182359342Y-183185771D01*
X183502199Y-182685771D02*
X184073628Y-182685771D01*
X183716485Y-182185771D02*
X183716485Y-183471486D01*
X183787913Y-183614343D01*
X183930771Y-183685771D01*
X184073628Y-183685771D01*
X184573628Y-183542914D02*
X184645056Y-183614343D01*
X184573628Y-183685771D01*
X184502199Y-183614343D01*
X184573628Y-183542914D01*
X184573628Y-183685771D01*
X184573628Y-182757200D02*
X184645056Y-182828629D01*
X184573628Y-182900057D01*
X184502199Y-182828629D01*
X184573628Y-182757200D01*
X184573628Y-182900057D01*
D11*
X178359343Y-180685771D02*
X178359343Y-179185771D01*
X178716486Y-179185771D01*
X178930771Y-179257200D01*
X179073629Y-179400057D01*
X179145057Y-179542914D01*
X179216486Y-179828629D01*
X179216486Y-180042914D01*
X179145057Y-180328629D01*
X179073629Y-180471486D01*
X178930771Y-180614343D01*
X178716486Y-180685771D01*
X178359343Y-180685771D01*
X179859343Y-179900057D02*
X180359343Y-179900057D01*
X180573629Y-180685771D02*
X179859343Y-180685771D01*
X179859343Y-179185771D01*
X180573629Y-179185771D01*
X181145057Y-180614343D02*
X181359343Y-180685771D01*
X181716486Y-180685771D01*
X181859343Y-180614343D01*
X181930772Y-180542914D01*
X182002200Y-180400057D01*
X182002200Y-180257200D01*
X181930772Y-180114343D01*
X181859343Y-180042914D01*
X181716486Y-179971486D01*
X181430772Y-179900057D01*
X181287914Y-179828629D01*
X181216486Y-179757200D01*
X181145057Y-179614343D01*
X181145057Y-179471486D01*
X181216486Y-179328629D01*
X181287914Y-179257200D01*
X181430772Y-179185771D01*
X181787914Y-179185771D01*
X182002200Y-179257200D01*
X182930771Y-179971486D02*
X182930771Y-180685771D01*
X182430771Y-179185771D02*
X182930771Y-179971486D01*
X183430771Y-179185771D01*
D10*
X197002200Y-191507200D02*
X197002200Y-194507200D01*
X261002200Y-191507200D02*
X261002200Y-198007200D01*
D13*
X131723810Y-53104762D02*
X131723810Y-51104762D01*
X131247619Y-51104762D01*
X130961905Y-51200000D01*
X130771429Y-51390476D01*
X130676190Y-51580952D01*
X130580952Y-51961905D01*
X130580952Y-52247619D01*
X130676190Y-52628571D01*
X130771429Y-52819048D01*
X130961905Y-53009524D01*
X131247619Y-53104762D01*
X131723810Y-53104762D01*
X129723810Y-52057143D02*
X129057143Y-52057143D01*
X128771429Y-53104762D02*
X129723810Y-53104762D01*
X129723810Y-51104762D01*
X128771429Y-51104762D01*
X128009524Y-53009524D02*
X127723809Y-53104762D01*
X127247619Y-53104762D01*
X127057143Y-53009524D01*
X126961905Y-52914286D01*
X126866666Y-52723810D01*
X126866666Y-52533333D01*
X126961905Y-52342857D01*
X127057143Y-52247619D01*
X127247619Y-52152381D01*
X127628571Y-52057143D01*
X127819047Y-51961905D01*
X127914286Y-51866667D01*
X128009524Y-51676190D01*
X128009524Y-51485714D01*
X127914286Y-51295238D01*
X127819047Y-51200000D01*
X127628571Y-51104762D01*
X127152381Y-51104762D01*
X126866666Y-51200000D01*
X125628571Y-52152381D02*
X125628571Y-53104762D01*
X126295238Y-51104762D02*
X125628571Y-52152381D01*
X124961904Y-51104762D01*
X122104761Y-52057143D02*
X122771428Y-52057143D01*
X122771428Y-53104762D02*
X122771428Y-51104762D01*
X121819047Y-51104762D01*
X121057142Y-53104762D02*
X121057142Y-51104762D01*
X121057142Y-52057143D02*
X119914284Y-52057143D01*
X119914284Y-53104762D02*
X119914284Y-51104762D01*
X118961904Y-52342857D02*
X117438094Y-52342857D01*
X115342856Y-52914286D02*
X115438094Y-53009524D01*
X115723809Y-53104762D01*
X115914285Y-53104762D01*
X116199999Y-53009524D01*
X116390475Y-52819048D01*
X116485714Y-52628571D01*
X116580952Y-52247619D01*
X116580952Y-51961905D01*
X116485714Y-51580952D01*
X116390475Y-51390476D01*
X116199999Y-51200000D01*
X115914285Y-51104762D01*
X115723809Y-51104762D01*
X115438094Y-51200000D01*
X115342856Y-51295238D01*
X114485714Y-53104762D02*
X114485714Y-51104762D01*
X113819047Y-52533333D01*
X113152380Y-51104762D01*
X113152380Y-53104762D01*
X112295238Y-53009524D02*
X112009523Y-53104762D01*
X111533333Y-53104762D01*
X111342857Y-53009524D01*
X111247619Y-52914286D01*
X111152380Y-52723810D01*
X111152380Y-52533333D01*
X111247619Y-52342857D01*
X111342857Y-52247619D01*
X111533333Y-52152381D01*
X111914285Y-52057143D01*
X112104761Y-51961905D01*
X112200000Y-51866667D01*
X112295238Y-51676190D01*
X112295238Y-51485714D01*
X112200000Y-51295238D01*
X112104761Y-51200000D01*
X111914285Y-51104762D01*
X111438095Y-51104762D01*
X111152380Y-51200000D01*
X130676190Y-56154762D02*
X131819048Y-56154762D01*
X131247619Y-56154762D02*
X131247619Y-54154762D01*
X131438095Y-54440476D01*
X131628571Y-54630952D01*
X131819048Y-54726190D01*
X129438095Y-54154762D02*
X129247619Y-54154762D01*
X129057143Y-54250000D01*
X128961905Y-54345238D01*
X128866667Y-54535714D01*
X128771428Y-54916667D01*
X128771428Y-55392857D01*
X128866667Y-55773810D01*
X128961905Y-55964286D01*
X129057143Y-56059524D01*
X129247619Y-56154762D01*
X129438095Y-56154762D01*
X129628571Y-56059524D01*
X129723809Y-55964286D01*
X129819048Y-55773810D01*
X129914286Y-55392857D01*
X129914286Y-54916667D01*
X129819048Y-54535714D01*
X129723809Y-54345238D01*
X129628571Y-54250000D01*
X129438095Y-54154762D01*
X128104762Y-54154762D02*
X126771428Y-54154762D01*
X127628571Y-56154762D01*
X125152381Y-54154762D02*
X125533333Y-54154762D01*
X125723809Y-54250000D01*
X125819047Y-54345238D01*
X126009524Y-54630952D01*
X126104762Y-55011905D01*
X126104762Y-55773810D01*
X126009524Y-55964286D01*
X125914285Y-56059524D01*
X125723809Y-56154762D01*
X125342857Y-56154762D01*
X125152381Y-56059524D01*
X125057143Y-55964286D01*
X124961904Y-55773810D01*
X124961904Y-55297619D01*
X125057143Y-55107143D01*
X125152381Y-55011905D01*
X125342857Y-54916667D01*
X125723809Y-54916667D01*
X125914285Y-55011905D01*
X126009524Y-55107143D01*
X126104762Y-55297619D01*
X123247619Y-54154762D02*
X123628571Y-54154762D01*
X123819047Y-54250000D01*
X123914285Y-54345238D01*
X124104762Y-54630952D01*
X124200000Y-55011905D01*
X124200000Y-55773810D01*
X124104762Y-55964286D01*
X124009523Y-56059524D01*
X123819047Y-56154762D01*
X123438095Y-56154762D01*
X123247619Y-56059524D01*
X123152381Y-55964286D01*
X123057142Y-55773810D01*
X123057142Y-55297619D01*
X123152381Y-55107143D01*
X123247619Y-55011905D01*
X123438095Y-54916667D01*
X123819047Y-54916667D01*
X124009523Y-55011905D01*
X124104762Y-55107143D01*
X124200000Y-55297619D01*
X122200000Y-55392857D02*
X120676190Y-55392857D01*
X119342857Y-54154762D02*
X119152381Y-54154762D01*
X118961905Y-54250000D01*
X118866667Y-54345238D01*
X118771429Y-54535714D01*
X118676190Y-54916667D01*
X118676190Y-55392857D01*
X118771429Y-55773810D01*
X118866667Y-55964286D01*
X118961905Y-56059524D01*
X119152381Y-56154762D01*
X119342857Y-56154762D01*
X119533333Y-56059524D01*
X119628571Y-55964286D01*
X119723810Y-55773810D01*
X119819048Y-55392857D01*
X119819048Y-54916667D01*
X119723810Y-54535714D01*
X119628571Y-54345238D01*
X119533333Y-54250000D01*
X119342857Y-54154762D01*
X116771428Y-56154762D02*
X117914286Y-56154762D01*
X117342857Y-56154762D02*
X117342857Y-54154762D01*
X117533333Y-54440476D01*
X117723809Y-54630952D01*
X117914286Y-54726190D01*
X115914286Y-55392857D02*
X114390476Y-55392857D01*
X113438096Y-56154762D02*
X113438096Y-54154762D01*
X112676191Y-54154762D01*
X112485715Y-54250000D01*
X112390476Y-54345238D01*
X112295238Y-54535714D01*
X112295238Y-54821429D01*
X112390476Y-55011905D01*
X112485715Y-55107143D01*
X112676191Y-55202381D01*
X113438096Y-55202381D01*
X111057143Y-54154762D02*
X110676191Y-54154762D01*
X110485715Y-54250000D01*
X110295238Y-54440476D01*
X110200000Y-54821429D01*
X110200000Y-55488095D01*
X110295238Y-55869048D01*
X110485715Y-56059524D01*
X110676191Y-56154762D01*
X111057143Y-56154762D01*
X111247619Y-56059524D01*
X111438096Y-55869048D01*
X111533334Y-55488095D01*
X111533334Y-54821429D01*
X111438096Y-54440476D01*
X111247619Y-54250000D01*
X111057143Y-54154762D01*
X109438096Y-56059524D02*
X109152381Y-56154762D01*
X108676191Y-56154762D01*
X108485715Y-56059524D01*
X108390477Y-55964286D01*
X108295238Y-55773810D01*
X108295238Y-55583333D01*
X108390477Y-55392857D01*
X108485715Y-55297619D01*
X108676191Y-55202381D01*
X109057143Y-55107143D01*
X109247619Y-55011905D01*
X109342858Y-54916667D01*
X109438096Y-54726190D01*
X109438096Y-54535714D01*
X109342858Y-54345238D01*
X109247619Y-54250000D01*
X109057143Y-54154762D01*
X108580953Y-54154762D01*
X108295238Y-54250000D01*
X107533334Y-54345238D02*
X107438096Y-54250000D01*
X107247619Y-54154762D01*
X106771429Y-54154762D01*
X106580953Y-54250000D01*
X106485715Y-54345238D01*
X106390476Y-54535714D01*
X106390476Y-54726190D01*
X106485715Y-55011905D01*
X107628572Y-56154762D01*
X106390476Y-56154762D01*
X131819048Y-59109524D02*
X131533333Y-59204762D01*
X131057143Y-59204762D01*
X130866667Y-59109524D01*
X130771429Y-59014286D01*
X130676190Y-58823810D01*
X130676190Y-58633333D01*
X130771429Y-58442857D01*
X130866667Y-58347619D01*
X131057143Y-58252381D01*
X131438095Y-58157143D01*
X131628571Y-58061905D01*
X131723810Y-57966667D01*
X131819048Y-57776190D01*
X131819048Y-57585714D01*
X131723810Y-57395238D01*
X131628571Y-57300000D01*
X131438095Y-57204762D01*
X130961905Y-57204762D01*
X130676190Y-57300000D01*
X129819048Y-59204762D02*
X129819048Y-57871429D01*
X129819048Y-57204762D02*
X129914286Y-57300000D01*
X129819048Y-57395238D01*
X129723809Y-57300000D01*
X129819048Y-57204762D01*
X129819048Y-57395238D01*
X128580952Y-59204762D02*
X128771428Y-59109524D01*
X128866667Y-58919048D01*
X128866667Y-57204762D01*
X127819048Y-59204762D02*
X127819048Y-57204762D01*
X127628571Y-58442857D02*
X127057143Y-59204762D01*
X127057143Y-57871429D02*
X127819048Y-58633333D01*
X124771428Y-59109524D02*
X124485713Y-59204762D01*
X124009523Y-59204762D01*
X123819047Y-59109524D01*
X123723809Y-59014286D01*
X123628570Y-58823810D01*
X123628570Y-58633333D01*
X123723809Y-58442857D01*
X123819047Y-58347619D01*
X124009523Y-58252381D01*
X124390475Y-58157143D01*
X124580951Y-58061905D01*
X124676190Y-57966667D01*
X124771428Y-57776190D01*
X124771428Y-57585714D01*
X124676190Y-57395238D01*
X124580951Y-57300000D01*
X124390475Y-57204762D01*
X123914285Y-57204762D01*
X123628570Y-57300000D01*
X121914285Y-59109524D02*
X122104761Y-59204762D01*
X122485713Y-59204762D01*
X122676189Y-59109524D01*
X122771428Y-59014286D01*
X122866666Y-58823810D01*
X122866666Y-58252381D01*
X122771428Y-58061905D01*
X122676189Y-57966667D01*
X122485713Y-57871429D01*
X122104761Y-57871429D01*
X121914285Y-57966667D01*
X121057142Y-59204762D02*
X121057142Y-57871429D01*
X121057142Y-58252381D02*
X120961903Y-58061905D01*
X120866665Y-57966667D01*
X120676189Y-57871429D01*
X120485713Y-57871429D01*
X119057142Y-59109524D02*
X119247618Y-59204762D01*
X119628570Y-59204762D01*
X119819047Y-59109524D01*
X119914285Y-58919048D01*
X119914285Y-58157143D01*
X119819047Y-57966667D01*
X119628570Y-57871429D01*
X119247618Y-57871429D01*
X119057142Y-57966667D01*
X118961904Y-58157143D01*
X118961904Y-58347619D01*
X119914285Y-58538095D01*
X117342856Y-59109524D02*
X117533332Y-59204762D01*
X117914284Y-59204762D01*
X118104761Y-59109524D01*
X118199999Y-58919048D01*
X118199999Y-58157143D01*
X118104761Y-57966667D01*
X117914284Y-57871429D01*
X117533332Y-57871429D01*
X117342856Y-57966667D01*
X117247618Y-58157143D01*
X117247618Y-58347619D01*
X118199999Y-58538095D01*
X116390475Y-57871429D02*
X116390475Y-59204762D01*
X116390475Y-58061905D02*
X116295236Y-57966667D01*
X116104760Y-57871429D01*
X115819046Y-57871429D01*
X115628570Y-57966667D01*
X115533332Y-58157143D01*
X115533332Y-59204762D01*
X112390474Y-58157143D02*
X112104760Y-58252381D01*
X112009521Y-58347619D01*
X111914283Y-58538095D01*
X111914283Y-58823810D01*
X112009521Y-59014286D01*
X112104760Y-59109524D01*
X112295236Y-59204762D01*
X113057141Y-59204762D01*
X113057141Y-57204762D01*
X112390474Y-57204762D01*
X112199998Y-57300000D01*
X112104760Y-57395238D01*
X112009521Y-57585714D01*
X112009521Y-57776190D01*
X112104760Y-57966667D01*
X112199998Y-58061905D01*
X112390474Y-58157143D01*
X113057141Y-58157143D01*
X110771426Y-59204762D02*
X110961902Y-59109524D01*
X111057141Y-59014286D01*
X111152379Y-58823810D01*
X111152379Y-58252381D01*
X111057141Y-58061905D01*
X110961902Y-57966667D01*
X110771426Y-57871429D01*
X110485712Y-57871429D01*
X110295236Y-57966667D01*
X110199998Y-58061905D01*
X110104760Y-58252381D01*
X110104760Y-58823810D01*
X110199998Y-59014286D01*
X110295236Y-59109524D01*
X110485712Y-59204762D01*
X110771426Y-59204762D01*
X109533331Y-57871429D02*
X108771426Y-57871429D01*
X109247617Y-57204762D02*
X109247617Y-58919048D01*
X109152378Y-59109524D01*
X108961902Y-59204762D01*
X108771426Y-59204762D01*
X108390474Y-57871429D02*
X107628569Y-57871429D01*
X108104760Y-57204762D02*
X108104760Y-58919048D01*
X108009521Y-59109524D01*
X107819045Y-59204762D01*
X107628569Y-59204762D01*
X106676188Y-59204762D02*
X106866664Y-59109524D01*
X106961903Y-59014286D01*
X107057141Y-58823810D01*
X107057141Y-58252381D01*
X106961903Y-58061905D01*
X106866664Y-57966667D01*
X106676188Y-57871429D01*
X106390474Y-57871429D01*
X106199998Y-57966667D01*
X106104760Y-58061905D01*
X106009522Y-58252381D01*
X106009522Y-58823810D01*
X106104760Y-59014286D01*
X106199998Y-59109524D01*
X106390474Y-59204762D01*
X106676188Y-59204762D01*
X105152379Y-59204762D02*
X105152379Y-57871429D01*
X105152379Y-58061905D02*
X105057140Y-57966667D01*
X104866664Y-57871429D01*
X104580950Y-57871429D01*
X104390474Y-57966667D01*
X104295236Y-58157143D01*
X104295236Y-59204762D01*
X104295236Y-58157143D02*
X104199998Y-57966667D01*
X104009521Y-57871429D01*
X103723807Y-57871429D01*
X103533331Y-57966667D01*
X103438093Y-58157143D01*
X103438093Y-59204762D01*
D10*
X92300000Y-123600000D02*
X93420000Y-123600000D01*
X93510000Y-125230000D02*
X92300000Y-123600000D01*
X88720000Y-120100000D02*
X88720000Y-122590000D01*
X94720000Y-122590000D02*
X88720000Y-122590000D01*
X94720000Y-120100000D02*
X94720000Y-125160000D01*
X94720000Y-125240000D02*
X93520000Y-125240000D01*
X93420000Y-122590000D02*
X93420000Y-123590000D01*
X144460000Y-122590000D02*
X144460000Y-123590000D01*
X144460000Y-123590000D02*
X145480000Y-123590000D01*
X145480000Y-123590000D02*
X144490000Y-125220000D01*
X149270000Y-120080000D02*
X149270000Y-122590000D01*
X149270000Y-122590000D02*
X143260000Y-122590000D01*
X143260000Y-125240000D02*
X144480000Y-125240000D01*
X143250000Y-120100000D02*
X143250000Y-125240000D01*
X87045000Y-108300000D02*
X87045000Y-120080000D01*
X150925000Y-120060000D02*
X150925000Y-108320000D01*
X95920000Y-125190000D02*
X95920000Y-120120000D01*
X142050000Y-125170000D02*
X142050000Y-120080000D01*
X142050000Y-125190000D02*
X95920000Y-125190000D01*
X150925000Y-108320000D02*
X87045000Y-108320000D01*
X150925000Y-120080000D02*
X87045000Y-120080000D01*
X150935000Y-118810000D02*
X87055000Y-118810000D01*
X89610000Y-118810000D02*
X89110000Y-118810000D01*
D14*
X88007000Y-96185000D02*
X90593000Y-96185000D01*
X90593000Y-96185000D02*
X90593000Y-94615000D01*
X90593000Y-94615000D02*
X88007000Y-94615000D01*
X88007000Y-94615000D02*
X88007000Y-96185000D01*
X90593000Y-96415000D02*
X88007000Y-96415000D01*
X88007000Y-96415000D02*
X88007000Y-97985000D01*
X88007000Y-97985000D02*
X90593000Y-97985000D01*
X90593000Y-97985000D02*
X90593000Y-96415000D01*
X93485000Y-95793000D02*
X93485000Y-93207000D01*
X93485000Y-93207000D02*
X91915000Y-93207000D01*
X91915000Y-93207000D02*
X91915000Y-95793000D01*
X91915000Y-95793000D02*
X93485000Y-95793000D01*
X93715000Y-93207000D02*
X93715000Y-95793000D01*
X93715000Y-95793000D02*
X95285000Y-95793000D01*
X95285000Y-95793000D02*
X95285000Y-93207000D01*
X95285000Y-93207000D02*
X93715000Y-93207000D01*
X122093000Y-89015000D02*
X119507000Y-89015000D01*
X119507000Y-89015000D02*
X119507000Y-90585000D01*
X119507000Y-90585000D02*
X122093000Y-90585000D01*
X122093000Y-90585000D02*
X122093000Y-89015000D01*
X124843000Y-89015000D02*
X122257000Y-89015000D01*
X122257000Y-89015000D02*
X122257000Y-90585000D01*
X122257000Y-90585000D02*
X124843000Y-90585000D01*
X124843000Y-90585000D02*
X124843000Y-89015000D01*
X133393000Y-89015000D02*
X130807000Y-89015000D01*
X130807000Y-89015000D02*
X130807000Y-90585000D01*
X130807000Y-90585000D02*
X133393000Y-90585000D01*
X133393000Y-90585000D02*
X133393000Y-89015000D01*
D15*
X110100240Y-102250380D02*
X110100240Y-103218880D01*
X110100240Y-101549620D02*
X110100240Y-100581120D01*
X108499760Y-102250380D02*
X108499760Y-103218880D01*
X108499760Y-100581120D02*
X108499760Y-101549620D01*
X108515000Y-103223880D02*
X110085000Y-103223880D01*
X110085000Y-100576120D02*
X108515000Y-100576120D01*
X106300240Y-102250380D02*
X106300240Y-103218880D01*
X106300240Y-101549620D02*
X106300240Y-100581120D01*
X104699760Y-102250380D02*
X104699760Y-103218880D01*
X104699760Y-100581120D02*
X104699760Y-101549620D01*
X104715000Y-103223880D02*
X106285000Y-103223880D01*
X106285000Y-100576120D02*
X104715000Y-100576120D01*
X112100240Y-102250380D02*
X112100240Y-103218880D01*
X112100240Y-101549620D02*
X112100240Y-100581120D01*
X110499760Y-102250380D02*
X110499760Y-103218880D01*
X110499760Y-100581120D02*
X110499760Y-101549620D01*
X110515000Y-103223880D02*
X112085000Y-103223880D01*
X112085000Y-100576120D02*
X110515000Y-100576120D01*
X118750240Y-103850380D02*
X118750240Y-104818880D01*
X118750240Y-103149620D02*
X118750240Y-102181120D01*
X117149760Y-103850380D02*
X117149760Y-104818880D01*
X117149760Y-102181120D02*
X117149760Y-103149620D01*
X117165000Y-104823880D02*
X118735000Y-104823880D01*
X118735000Y-102176120D02*
X117165000Y-102176120D01*
X120550240Y-103850380D02*
X120550240Y-104818880D01*
X120550240Y-103149620D02*
X120550240Y-102181120D01*
X118949760Y-103850380D02*
X118949760Y-104818880D01*
X118949760Y-102181120D02*
X118949760Y-103149620D01*
X118965000Y-104823880D02*
X120535000Y-104823880D01*
X120535000Y-102176120D02*
X118965000Y-102176120D01*
X125849620Y-99000240D02*
X124881120Y-99000240D01*
X126550380Y-99000240D02*
X127518880Y-99000240D01*
X125849620Y-97399760D02*
X124881120Y-97399760D01*
X127518880Y-97399760D02*
X126550380Y-97399760D01*
X124876120Y-97415000D02*
X124876120Y-98985000D01*
X127523880Y-98985000D02*
X127523880Y-97415000D01*
X114749620Y-90600240D02*
X113781120Y-90600240D01*
X115450380Y-90600240D02*
X116418880Y-90600240D01*
X114749620Y-88999760D02*
X113781120Y-88999760D01*
X116418880Y-88999760D02*
X115450380Y-88999760D01*
X113776120Y-89015000D02*
X113776120Y-90585000D01*
X116423880Y-90585000D02*
X116423880Y-89015000D01*
D14*
X110293000Y-89015000D02*
X107707000Y-89015000D01*
X107707000Y-89015000D02*
X107707000Y-90585000D01*
X107707000Y-90585000D02*
X110293000Y-90585000D01*
X110293000Y-90585000D02*
X110293000Y-89015000D01*
D15*
X105050380Y-88999760D02*
X106018880Y-88999760D01*
X104349620Y-88999760D02*
X103381120Y-88999760D01*
X105050380Y-90600240D02*
X106018880Y-90600240D01*
X103381120Y-90600240D02*
X104349620Y-90600240D01*
X106023880Y-90585000D02*
X106023880Y-89015000D01*
X103376120Y-89015000D02*
X103376120Y-90585000D01*
X93249620Y-98000240D02*
X92281120Y-98000240D01*
X93950380Y-98000240D02*
X94918880Y-98000240D01*
X93249620Y-96399760D02*
X92281120Y-96399760D01*
X94918880Y-96399760D02*
X93950380Y-96399760D01*
X92276120Y-96415000D02*
X92276120Y-97985000D01*
X94923880Y-97985000D02*
X94923880Y-96415000D01*
X93249620Y-99800240D02*
X92281120Y-99800240D01*
X93950380Y-99800240D02*
X94918880Y-99800240D01*
X93249620Y-98199760D02*
X92281120Y-98199760D01*
X94918880Y-98199760D02*
X93950380Y-98199760D01*
X92276120Y-98215000D02*
X92276120Y-99785000D01*
X94923880Y-99785000D02*
X94923880Y-98215000D01*
X108200240Y-102250380D02*
X108200240Y-103218880D01*
X108200240Y-101549620D02*
X108200240Y-100581120D01*
X106599760Y-102250380D02*
X106599760Y-103218880D01*
X106599760Y-100581120D02*
X106599760Y-101549620D01*
X106615000Y-103223880D02*
X108185000Y-103223880D01*
X108185000Y-100576120D02*
X106615000Y-100576120D01*
D14*
X88007000Y-94385000D02*
X90593000Y-94385000D01*
X90593000Y-94385000D02*
X90593000Y-92815000D01*
X90593000Y-92815000D02*
X88007000Y-92815000D01*
X88007000Y-92815000D02*
X88007000Y-94385000D01*
D16*
X93312762Y-108509619D02*
X93651428Y-108025810D01*
X93893333Y-108509619D02*
X93893333Y-107493619D01*
X93506286Y-107493619D01*
X93409524Y-107542000D01*
X93361143Y-107590381D01*
X93312762Y-107687143D01*
X93312762Y-107832286D01*
X93361143Y-107929048D01*
X93409524Y-107977429D01*
X93506286Y-108025810D01*
X93893333Y-108025810D01*
X92538667Y-107977429D02*
X92877333Y-107977429D01*
X92877333Y-108509619D02*
X92877333Y-107493619D01*
X92393524Y-107493619D01*
X91474286Y-108509619D02*
X92054857Y-108509619D01*
X91764571Y-108509619D02*
X91764571Y-107493619D01*
X91861333Y-107638762D01*
X91958095Y-107735524D01*
X92054857Y-107783905D01*
X90700191Y-107977429D02*
X90555048Y-108025810D01*
X90506667Y-108074190D01*
X90458286Y-108170952D01*
X90458286Y-108316095D01*
X90506667Y-108412857D01*
X90555048Y-108461238D01*
X90651810Y-108509619D01*
X91038857Y-108509619D01*
X91038857Y-107493619D01*
X90700191Y-107493619D01*
X90603429Y-107542000D01*
X90555048Y-107590381D01*
X90506667Y-107687143D01*
X90506667Y-107783905D01*
X90555048Y-107880667D01*
X90603429Y-107929048D01*
X90700191Y-107977429D01*
X91038857Y-107977429D01*
X145612762Y-113459619D02*
X145951428Y-112975810D01*
X146193333Y-113459619D02*
X146193333Y-112443619D01*
X145806286Y-112443619D01*
X145709524Y-112492000D01*
X145661143Y-112540381D01*
X145612762Y-112637143D01*
X145612762Y-112782286D01*
X145661143Y-112879048D01*
X145709524Y-112927429D01*
X145806286Y-112975810D01*
X146193333Y-112975810D01*
X144838667Y-112927429D02*
X145177333Y-112927429D01*
X145177333Y-113459619D02*
X145177333Y-112443619D01*
X144693524Y-112443619D01*
X144403238Y-112443619D02*
X143774286Y-112443619D01*
X144112952Y-112830667D01*
X143967810Y-112830667D01*
X143871048Y-112879048D01*
X143822667Y-112927429D01*
X143774286Y-113024190D01*
X143774286Y-113266095D01*
X143822667Y-113362857D01*
X143871048Y-113411238D01*
X143967810Y-113459619D01*
X144258095Y-113459619D01*
X144354857Y-113411238D01*
X144403238Y-113362857D01*
X143000191Y-112927429D02*
X142855048Y-112975810D01*
X142806667Y-113024190D01*
X142758286Y-113120952D01*
X142758286Y-113266095D01*
X142806667Y-113362857D01*
X142855048Y-113411238D01*
X142951810Y-113459619D01*
X143338857Y-113459619D01*
X143338857Y-112443619D01*
X143000191Y-112443619D01*
X142903429Y-112492000D01*
X142855048Y-112540381D01*
X142806667Y-112637143D01*
X142806667Y-112733905D01*
X142855048Y-112830667D01*
X142903429Y-112879048D01*
X143000191Y-112927429D01*
X143338857Y-112927429D01*
X141909619Y-87137238D02*
X141425810Y-86798572D01*
X141909619Y-86556667D02*
X140893619Y-86556667D01*
X140893619Y-86943714D01*
X140942000Y-87040476D01*
X140990381Y-87088857D01*
X141087143Y-87137238D01*
X141232286Y-87137238D01*
X141329048Y-87088857D01*
X141377429Y-87040476D01*
X141425810Y-86943714D01*
X141425810Y-86556667D01*
X141377429Y-87911333D02*
X141377429Y-87572667D01*
X141909619Y-87572667D02*
X140893619Y-87572667D01*
X140893619Y-88056476D01*
X140990381Y-88395143D02*
X140942000Y-88443524D01*
X140893619Y-88540286D01*
X140893619Y-88782190D01*
X140942000Y-88878952D01*
X140990381Y-88927333D01*
X141087143Y-88975714D01*
X141183905Y-88975714D01*
X141329048Y-88927333D01*
X141909619Y-88346762D01*
X141909619Y-88975714D01*
X141377429Y-89749809D02*
X141425810Y-89894952D01*
X141474190Y-89943333D01*
X141570952Y-89991714D01*
X141716095Y-89991714D01*
X141812857Y-89943333D01*
X141861238Y-89894952D01*
X141909619Y-89798190D01*
X141909619Y-89411143D01*
X140893619Y-89411143D01*
X140893619Y-89749809D01*
X140942000Y-89846571D01*
X140990381Y-89894952D01*
X141087143Y-89943333D01*
X141183905Y-89943333D01*
X141280667Y-89894952D01*
X141329048Y-89846571D01*
X141377429Y-89749809D01*
X141377429Y-89411143D01*
D17*
X93591143Y-85292000D02*
X93591143Y-84784000D01*
X94389429Y-84784000D02*
X92865429Y-84784000D01*
X92865429Y-85509714D01*
X94389429Y-86888572D02*
X94389429Y-86017715D01*
X94389429Y-86453143D02*
X92865429Y-86453143D01*
X93083143Y-86308000D01*
X93228286Y-86162858D01*
X93300857Y-86017715D01*
D18*
X131683333Y-106552381D02*
X131683333Y-107266667D01*
X131730953Y-107409524D01*
X131826191Y-107504762D01*
X131969048Y-107552381D01*
X132064286Y-107552381D01*
X131254762Y-106647619D02*
X131207143Y-106600000D01*
X131111905Y-106552381D01*
X130873809Y-106552381D01*
X130778571Y-106600000D01*
X130730952Y-106647619D01*
X130683333Y-106742857D01*
X130683333Y-106838095D01*
X130730952Y-106980952D01*
X131302381Y-107552381D01*
X130683333Y-107552381D01*
D19*
X87779810Y-95973800D02*
X87537905Y-95821400D01*
X87779810Y-95712543D02*
X87271810Y-95712543D01*
X87271810Y-95886715D01*
X87296000Y-95930257D01*
X87320190Y-95952029D01*
X87368571Y-95973800D01*
X87441143Y-95973800D01*
X87489524Y-95952029D01*
X87513714Y-95930257D01*
X87537905Y-95886715D01*
X87537905Y-95712543D01*
X87489524Y-96235057D02*
X87465333Y-96191515D01*
X87441143Y-96169743D01*
X87392762Y-96147972D01*
X87368571Y-96147972D01*
X87320190Y-96169743D01*
X87296000Y-96191515D01*
X87271810Y-96235057D01*
X87271810Y-96322143D01*
X87296000Y-96365686D01*
X87320190Y-96387457D01*
X87368571Y-96409229D01*
X87392762Y-96409229D01*
X87441143Y-96387457D01*
X87465333Y-96365686D01*
X87489524Y-96322143D01*
X87489524Y-96235057D01*
X87513714Y-96191515D01*
X87537905Y-96169743D01*
X87586286Y-96147972D01*
X87683048Y-96147972D01*
X87731429Y-96169743D01*
X87755619Y-96191515D01*
X87779810Y-96235057D01*
X87779810Y-96322143D01*
X87755619Y-96365686D01*
X87731429Y-96387457D01*
X87683048Y-96409229D01*
X87586286Y-96409229D01*
X87537905Y-96387457D01*
X87513714Y-96365686D01*
X87489524Y-96322143D01*
X89376200Y-98729810D02*
X89528600Y-98487905D01*
X89637457Y-98729810D02*
X89637457Y-98221810D01*
X89463285Y-98221810D01*
X89419743Y-98246000D01*
X89397971Y-98270190D01*
X89376200Y-98318571D01*
X89376200Y-98391143D01*
X89397971Y-98439524D01*
X89419743Y-98463714D01*
X89463285Y-98487905D01*
X89637457Y-98487905D01*
X88962543Y-98221810D02*
X89180257Y-98221810D01*
X89202028Y-98463714D01*
X89180257Y-98439524D01*
X89136714Y-98415333D01*
X89027857Y-98415333D01*
X88984314Y-98439524D01*
X88962543Y-98463714D01*
X88940771Y-98512095D01*
X88940771Y-98633048D01*
X88962543Y-98681429D01*
X88984314Y-98705619D01*
X89027857Y-98729810D01*
X89136714Y-98729810D01*
X89180257Y-98705619D01*
X89202028Y-98681429D01*
X92776200Y-93029810D02*
X92928600Y-92787905D01*
X93037457Y-93029810D02*
X93037457Y-92521810D01*
X92863285Y-92521810D01*
X92819743Y-92546000D01*
X92797971Y-92570190D01*
X92776200Y-92618571D01*
X92776200Y-92691143D01*
X92797971Y-92739524D01*
X92819743Y-92763714D01*
X92863285Y-92787905D01*
X93037457Y-92787905D01*
X92558485Y-93029810D02*
X92471400Y-93029810D01*
X92427857Y-93005619D01*
X92406085Y-92981429D01*
X92362543Y-92908857D01*
X92340771Y-92812095D01*
X92340771Y-92618571D01*
X92362543Y-92570190D01*
X92384314Y-92546000D01*
X92427857Y-92521810D01*
X92514943Y-92521810D01*
X92558485Y-92546000D01*
X92580257Y-92570190D01*
X92602028Y-92618571D01*
X92602028Y-92739524D01*
X92580257Y-92787905D01*
X92558485Y-92812095D01*
X92514943Y-92836286D01*
X92427857Y-92836286D01*
X92384314Y-92812095D01*
X92362543Y-92787905D01*
X92340771Y-92739524D01*
X94576200Y-93029810D02*
X94728600Y-92787905D01*
X94837457Y-93029810D02*
X94837457Y-92521810D01*
X94663285Y-92521810D01*
X94619743Y-92546000D01*
X94597971Y-92570190D01*
X94576200Y-92618571D01*
X94576200Y-92691143D01*
X94597971Y-92739524D01*
X94619743Y-92763714D01*
X94663285Y-92787905D01*
X94837457Y-92787905D01*
X94184314Y-92521810D02*
X94271400Y-92521810D01*
X94314943Y-92546000D01*
X94336714Y-92570190D01*
X94380257Y-92642762D01*
X94402028Y-92739524D01*
X94402028Y-92933048D01*
X94380257Y-92981429D01*
X94358485Y-93005619D01*
X94314943Y-93029810D01*
X94227857Y-93029810D01*
X94184314Y-93005619D01*
X94162543Y-92981429D01*
X94140771Y-92933048D01*
X94140771Y-92812095D01*
X94162543Y-92763714D01*
X94184314Y-92739524D01*
X94227857Y-92715333D01*
X94314943Y-92715333D01*
X94358485Y-92739524D01*
X94380257Y-92763714D01*
X94402028Y-92812095D01*
X120876200Y-88729810D02*
X121028600Y-88487905D01*
X121137457Y-88729810D02*
X121137457Y-88221810D01*
X120963285Y-88221810D01*
X120919743Y-88246000D01*
X120897971Y-88270190D01*
X120876200Y-88318571D01*
X120876200Y-88391143D01*
X120897971Y-88439524D01*
X120919743Y-88463714D01*
X120963285Y-88487905D01*
X121137457Y-88487905D01*
X120723800Y-88221810D02*
X120440771Y-88221810D01*
X120593171Y-88415333D01*
X120527857Y-88415333D01*
X120484314Y-88439524D01*
X120462543Y-88463714D01*
X120440771Y-88512095D01*
X120440771Y-88633048D01*
X120462543Y-88681429D01*
X120484314Y-88705619D01*
X120527857Y-88729810D01*
X120658485Y-88729810D01*
X120702028Y-88705619D01*
X120723800Y-88681429D01*
X123626200Y-88729810D02*
X123778600Y-88487905D01*
X123887457Y-88729810D02*
X123887457Y-88221810D01*
X123713285Y-88221810D01*
X123669743Y-88246000D01*
X123647971Y-88270190D01*
X123626200Y-88318571D01*
X123626200Y-88391143D01*
X123647971Y-88439524D01*
X123669743Y-88463714D01*
X123713285Y-88487905D01*
X123887457Y-88487905D01*
X123452028Y-88270190D02*
X123430257Y-88246000D01*
X123386714Y-88221810D01*
X123277857Y-88221810D01*
X123234314Y-88246000D01*
X123212543Y-88270190D01*
X123190771Y-88318571D01*
X123190771Y-88366952D01*
X123212543Y-88439524D01*
X123473800Y-88729810D01*
X123190771Y-88729810D01*
X132176200Y-88729810D02*
X132328600Y-88487905D01*
X132437457Y-88729810D02*
X132437457Y-88221810D01*
X132263285Y-88221810D01*
X132219743Y-88246000D01*
X132197971Y-88270190D01*
X132176200Y-88318571D01*
X132176200Y-88391143D01*
X132197971Y-88439524D01*
X132219743Y-88463714D01*
X132263285Y-88487905D01*
X132437457Y-88487905D01*
X131784314Y-88391143D02*
X131784314Y-88729810D01*
X131893171Y-88197619D02*
X132002028Y-88560476D01*
X131719000Y-88560476D01*
D20*
X109383333Y-100253571D02*
X109407143Y-100277381D01*
X109478571Y-100301190D01*
X109526190Y-100301190D01*
X109597619Y-100277381D01*
X109645238Y-100229762D01*
X109669047Y-100182143D01*
X109692857Y-100086905D01*
X109692857Y-100015476D01*
X109669047Y-99920238D01*
X109645238Y-99872619D01*
X109597619Y-99825000D01*
X109526190Y-99801190D01*
X109478571Y-99801190D01*
X109407143Y-99825000D01*
X109383333Y-99848810D01*
X109097619Y-100015476D02*
X109145238Y-99991667D01*
X109169047Y-99967857D01*
X109192857Y-99920238D01*
X109192857Y-99896429D01*
X109169047Y-99848810D01*
X109145238Y-99825000D01*
X109097619Y-99801190D01*
X109002381Y-99801190D01*
X108954762Y-99825000D01*
X108930952Y-99848810D01*
X108907143Y-99896429D01*
X108907143Y-99920238D01*
X108930952Y-99967857D01*
X108954762Y-99991667D01*
X109002381Y-100015476D01*
X109097619Y-100015476D01*
X109145238Y-100039286D01*
X109169047Y-100063095D01*
X109192857Y-100110714D01*
X109192857Y-100205952D01*
X109169047Y-100253571D01*
X109145238Y-100277381D01*
X109097619Y-100301190D01*
X109002381Y-100301190D01*
X108954762Y-100277381D01*
X108930952Y-100253571D01*
X108907143Y-100205952D01*
X108907143Y-100110714D01*
X108930952Y-100063095D01*
X108954762Y-100039286D01*
X109002381Y-100015476D01*
X105583333Y-100253571D02*
X105607143Y-100277381D01*
X105678571Y-100301190D01*
X105726190Y-100301190D01*
X105797619Y-100277381D01*
X105845238Y-100229762D01*
X105869047Y-100182143D01*
X105892857Y-100086905D01*
X105892857Y-100015476D01*
X105869047Y-99920238D01*
X105845238Y-99872619D01*
X105797619Y-99825000D01*
X105726190Y-99801190D01*
X105678571Y-99801190D01*
X105607143Y-99825000D01*
X105583333Y-99848810D01*
X105130952Y-99801190D02*
X105369047Y-99801190D01*
X105392857Y-100039286D01*
X105369047Y-100015476D01*
X105321428Y-99991667D01*
X105202381Y-99991667D01*
X105154762Y-100015476D01*
X105130952Y-100039286D01*
X105107143Y-100086905D01*
X105107143Y-100205952D01*
X105130952Y-100253571D01*
X105154762Y-100277381D01*
X105202381Y-100301190D01*
X105321428Y-100301190D01*
X105369047Y-100277381D01*
X105392857Y-100253571D01*
X111383333Y-100253571D02*
X111407143Y-100277381D01*
X111478571Y-100301190D01*
X111526190Y-100301190D01*
X111597619Y-100277381D01*
X111645238Y-100229762D01*
X111669047Y-100182143D01*
X111692857Y-100086905D01*
X111692857Y-100015476D01*
X111669047Y-99920238D01*
X111645238Y-99872619D01*
X111597619Y-99825000D01*
X111526190Y-99801190D01*
X111478571Y-99801190D01*
X111407143Y-99825000D01*
X111383333Y-99848810D01*
X111145238Y-100301190D02*
X111050000Y-100301190D01*
X111002381Y-100277381D01*
X110978571Y-100253571D01*
X110930952Y-100182143D01*
X110907143Y-100086905D01*
X110907143Y-99896429D01*
X110930952Y-99848810D01*
X110954762Y-99825000D01*
X111002381Y-99801190D01*
X111097619Y-99801190D01*
X111145238Y-99825000D01*
X111169047Y-99848810D01*
X111192857Y-99896429D01*
X111192857Y-100015476D01*
X111169047Y-100063095D01*
X111145238Y-100086905D01*
X111097619Y-100110714D01*
X111002381Y-100110714D01*
X110954762Y-100086905D01*
X110930952Y-100063095D01*
X110907143Y-100015476D01*
X118033333Y-101853571D02*
X118057143Y-101877381D01*
X118128571Y-101901190D01*
X118176190Y-101901190D01*
X118247619Y-101877381D01*
X118295238Y-101829762D01*
X118319047Y-101782143D01*
X118342857Y-101686905D01*
X118342857Y-101615476D01*
X118319047Y-101520238D01*
X118295238Y-101472619D01*
X118247619Y-101425000D01*
X118176190Y-101401190D01*
X118128571Y-101401190D01*
X118057143Y-101425000D01*
X118033333Y-101448810D01*
X117604762Y-101567857D02*
X117604762Y-101901190D01*
X117723809Y-101377381D02*
X117842857Y-101734524D01*
X117533333Y-101734524D01*
X119833333Y-101853571D02*
X119857143Y-101877381D01*
X119928571Y-101901190D01*
X119976190Y-101901190D01*
X120047619Y-101877381D01*
X120095238Y-101829762D01*
X120119047Y-101782143D01*
X120142857Y-101686905D01*
X120142857Y-101615476D01*
X120119047Y-101520238D01*
X120095238Y-101472619D01*
X120047619Y-101425000D01*
X119976190Y-101401190D01*
X119928571Y-101401190D01*
X119857143Y-101425000D01*
X119833333Y-101448810D01*
X119404762Y-101401190D02*
X119500000Y-101401190D01*
X119547619Y-101425000D01*
X119571428Y-101448810D01*
X119619047Y-101520238D01*
X119642857Y-101615476D01*
X119642857Y-101805952D01*
X119619047Y-101853571D01*
X119595238Y-101877381D01*
X119547619Y-101901190D01*
X119452381Y-101901190D01*
X119404762Y-101877381D01*
X119380952Y-101853571D01*
X119357143Y-101805952D01*
X119357143Y-101686905D01*
X119380952Y-101639286D01*
X119404762Y-101615476D01*
X119452381Y-101591667D01*
X119547619Y-101591667D01*
X119595238Y-101615476D01*
X119619047Y-101639286D01*
X119642857Y-101686905D01*
X124578571Y-98116667D02*
X124602381Y-98092857D01*
X124626190Y-98021429D01*
X124626190Y-97973810D01*
X124602381Y-97902381D01*
X124554762Y-97854762D01*
X124507143Y-97830953D01*
X124411905Y-97807143D01*
X124340476Y-97807143D01*
X124245238Y-97830953D01*
X124197619Y-97854762D01*
X124150000Y-97902381D01*
X124126190Y-97973810D01*
X124126190Y-98021429D01*
X124150000Y-98092857D01*
X124173810Y-98116667D01*
X124126190Y-98283334D02*
X124126190Y-98592857D01*
X124316667Y-98426191D01*
X124316667Y-98497619D01*
X124340476Y-98545238D01*
X124364286Y-98569048D01*
X124411905Y-98592857D01*
X124530952Y-98592857D01*
X124578571Y-98569048D01*
X124602381Y-98545238D01*
X124626190Y-98497619D01*
X124626190Y-98354762D01*
X124602381Y-98307143D01*
X124578571Y-98283334D01*
X113478571Y-89716667D02*
X113502381Y-89692857D01*
X113526190Y-89621429D01*
X113526190Y-89573810D01*
X113502381Y-89502381D01*
X113454762Y-89454762D01*
X113407143Y-89430953D01*
X113311905Y-89407143D01*
X113240476Y-89407143D01*
X113145238Y-89430953D01*
X113097619Y-89454762D01*
X113050000Y-89502381D01*
X113026190Y-89573810D01*
X113026190Y-89621429D01*
X113050000Y-89692857D01*
X113073810Y-89716667D01*
X113073810Y-89907143D02*
X113050000Y-89930953D01*
X113026190Y-89978572D01*
X113026190Y-90097619D01*
X113050000Y-90145238D01*
X113073810Y-90169048D01*
X113121429Y-90192857D01*
X113169048Y-90192857D01*
X113240476Y-90169048D01*
X113526190Y-89883334D01*
X113526190Y-90192857D01*
D19*
X111079810Y-89723800D02*
X110837905Y-89571400D01*
X111079810Y-89462543D02*
X110571810Y-89462543D01*
X110571810Y-89636715D01*
X110596000Y-89680257D01*
X110620190Y-89702029D01*
X110668571Y-89723800D01*
X110741143Y-89723800D01*
X110789524Y-89702029D01*
X110813714Y-89680257D01*
X110837905Y-89636715D01*
X110837905Y-89462543D01*
X111079810Y-90159229D02*
X111079810Y-89897972D01*
X111079810Y-90028600D02*
X110571810Y-90028600D01*
X110644381Y-89985057D01*
X110692762Y-89941515D01*
X110716952Y-89897972D01*
D20*
X103053571Y-89716667D02*
X103077381Y-89692857D01*
X103101190Y-89621429D01*
X103101190Y-89573810D01*
X103077381Y-89502381D01*
X103029762Y-89454762D01*
X102982143Y-89430953D01*
X102886905Y-89407143D01*
X102815476Y-89407143D01*
X102720238Y-89430953D01*
X102672619Y-89454762D01*
X102625000Y-89502381D01*
X102601190Y-89573810D01*
X102601190Y-89621429D01*
X102625000Y-89692857D01*
X102648810Y-89716667D01*
X103101190Y-90192857D02*
X103101190Y-89907143D01*
X103101190Y-90050000D02*
X102601190Y-90050000D01*
X102672619Y-90002381D01*
X102720238Y-89954762D01*
X102744048Y-89907143D01*
X95603571Y-96878572D02*
X95627381Y-96854762D01*
X95651190Y-96783334D01*
X95651190Y-96735715D01*
X95627381Y-96664286D01*
X95579762Y-96616667D01*
X95532143Y-96592858D01*
X95436905Y-96569048D01*
X95365476Y-96569048D01*
X95270238Y-96592858D01*
X95222619Y-96616667D01*
X95175000Y-96664286D01*
X95151190Y-96735715D01*
X95151190Y-96783334D01*
X95175000Y-96854762D01*
X95198810Y-96878572D01*
X95651190Y-97354762D02*
X95651190Y-97069048D01*
X95651190Y-97211905D02*
X95151190Y-97211905D01*
X95222619Y-97164286D01*
X95270238Y-97116667D01*
X95294048Y-97069048D01*
X95151190Y-97664286D02*
X95151190Y-97711905D01*
X95175000Y-97759524D01*
X95198810Y-97783333D01*
X95246429Y-97807143D01*
X95341667Y-97830952D01*
X95460714Y-97830952D01*
X95555952Y-97807143D01*
X95603571Y-97783333D01*
X95627381Y-97759524D01*
X95651190Y-97711905D01*
X95651190Y-97664286D01*
X95627381Y-97616667D01*
X95603571Y-97592857D01*
X95555952Y-97569048D01*
X95460714Y-97545238D01*
X95341667Y-97545238D01*
X95246429Y-97569048D01*
X95198810Y-97592857D01*
X95175000Y-97616667D01*
X95151190Y-97664286D01*
X95603571Y-98678572D02*
X95627381Y-98654762D01*
X95651190Y-98583334D01*
X95651190Y-98535715D01*
X95627381Y-98464286D01*
X95579762Y-98416667D01*
X95532143Y-98392858D01*
X95436905Y-98369048D01*
X95365476Y-98369048D01*
X95270238Y-98392858D01*
X95222619Y-98416667D01*
X95175000Y-98464286D01*
X95151190Y-98535715D01*
X95151190Y-98583334D01*
X95175000Y-98654762D01*
X95198810Y-98678572D01*
X95651190Y-99154762D02*
X95651190Y-98869048D01*
X95651190Y-99011905D02*
X95151190Y-99011905D01*
X95222619Y-98964286D01*
X95270238Y-98916667D01*
X95294048Y-98869048D01*
X95651190Y-99630952D02*
X95651190Y-99345238D01*
X95651190Y-99488095D02*
X95151190Y-99488095D01*
X95222619Y-99440476D01*
X95270238Y-99392857D01*
X95294048Y-99345238D01*
X107483333Y-100253571D02*
X107507143Y-100277381D01*
X107578571Y-100301190D01*
X107626190Y-100301190D01*
X107697619Y-100277381D01*
X107745238Y-100229762D01*
X107769047Y-100182143D01*
X107792857Y-100086905D01*
X107792857Y-100015476D01*
X107769047Y-99920238D01*
X107745238Y-99872619D01*
X107697619Y-99825000D01*
X107626190Y-99801190D01*
X107578571Y-99801190D01*
X107507143Y-99825000D01*
X107483333Y-99848810D01*
X107316666Y-99801190D02*
X106983333Y-99801190D01*
X107197619Y-100301190D01*
D19*
X89376200Y-92629810D02*
X89528600Y-92387905D01*
X89637457Y-92629810D02*
X89637457Y-92121810D01*
X89463285Y-92121810D01*
X89419743Y-92146000D01*
X89397971Y-92170190D01*
X89376200Y-92218571D01*
X89376200Y-92291143D01*
X89397971Y-92339524D01*
X89419743Y-92363714D01*
X89463285Y-92387905D01*
X89637457Y-92387905D01*
X89223800Y-92121810D02*
X88919000Y-92121810D01*
X89114943Y-92629810D01*
%LPC*%
D13*
X131723810Y-53104762D02*
X131723810Y-51104762D01*
X131247619Y-51104762D01*
X130961905Y-51200000D01*
X130771429Y-51390476D01*
X130676190Y-51580952D01*
X130580952Y-51961905D01*
X130580952Y-52247619D01*
X130676190Y-52628571D01*
X130771429Y-52819048D01*
X130961905Y-53009524D01*
X131247619Y-53104762D01*
X131723810Y-53104762D01*
X129723810Y-52057143D02*
X129057143Y-52057143D01*
X128771429Y-53104762D02*
X129723810Y-53104762D01*
X129723810Y-51104762D01*
X128771429Y-51104762D01*
X128009524Y-53009524D02*
X127723809Y-53104762D01*
X127247619Y-53104762D01*
X127057143Y-53009524D01*
X126961905Y-52914286D01*
X126866666Y-52723810D01*
X126866666Y-52533333D01*
X126961905Y-52342857D01*
X127057143Y-52247619D01*
X127247619Y-52152381D01*
X127628571Y-52057143D01*
X127819047Y-51961905D01*
X127914286Y-51866667D01*
X128009524Y-51676190D01*
X128009524Y-51485714D01*
X127914286Y-51295238D01*
X127819047Y-51200000D01*
X127628571Y-51104762D01*
X127152381Y-51104762D01*
X126866666Y-51200000D01*
X125628571Y-52152381D02*
X125628571Y-53104762D01*
X126295238Y-51104762D02*
X125628571Y-52152381D01*
X124961904Y-51104762D01*
X122104761Y-52057143D02*
X122771428Y-52057143D01*
X122771428Y-53104762D02*
X122771428Y-51104762D01*
X121819047Y-51104762D01*
X121057142Y-53104762D02*
X121057142Y-51104762D01*
X121057142Y-52057143D02*
X119914284Y-52057143D01*
X119914284Y-53104762D02*
X119914284Y-51104762D01*
X118961904Y-52342857D02*
X117438094Y-52342857D01*
X115342856Y-52914286D02*
X115438094Y-53009524D01*
X115723809Y-53104762D01*
X115914285Y-53104762D01*
X116199999Y-53009524D01*
X116390475Y-52819048D01*
X116485714Y-52628571D01*
X116580952Y-52247619D01*
X116580952Y-51961905D01*
X116485714Y-51580952D01*
X116390475Y-51390476D01*
X116199999Y-51200000D01*
X115914285Y-51104762D01*
X115723809Y-51104762D01*
X115438094Y-51200000D01*
X115342856Y-51295238D01*
X114485714Y-53104762D02*
X114485714Y-51104762D01*
X113819047Y-52533333D01*
X113152380Y-51104762D01*
X113152380Y-53104762D01*
X112295238Y-53009524D02*
X112009523Y-53104762D01*
X111533333Y-53104762D01*
X111342857Y-53009524D01*
X111247619Y-52914286D01*
X111152380Y-52723810D01*
X111152380Y-52533333D01*
X111247619Y-52342857D01*
X111342857Y-52247619D01*
X111533333Y-52152381D01*
X111914285Y-52057143D01*
X112104761Y-51961905D01*
X112200000Y-51866667D01*
X112295238Y-51676190D01*
X112295238Y-51485714D01*
X112200000Y-51295238D01*
X112104761Y-51200000D01*
X111914285Y-51104762D01*
X111438095Y-51104762D01*
X111152380Y-51200000D01*
X130676190Y-56154762D02*
X131819048Y-56154762D01*
X131247619Y-56154762D02*
X131247619Y-54154762D01*
X131438095Y-54440476D01*
X131628571Y-54630952D01*
X131819048Y-54726190D01*
X129438095Y-54154762D02*
X129247619Y-54154762D01*
X129057143Y-54250000D01*
X128961905Y-54345238D01*
X128866667Y-54535714D01*
X128771428Y-54916667D01*
X128771428Y-55392857D01*
X128866667Y-55773810D01*
X128961905Y-55964286D01*
X129057143Y-56059524D01*
X129247619Y-56154762D01*
X129438095Y-56154762D01*
X129628571Y-56059524D01*
X129723809Y-55964286D01*
X129819048Y-55773810D01*
X129914286Y-55392857D01*
X129914286Y-54916667D01*
X129819048Y-54535714D01*
X129723809Y-54345238D01*
X129628571Y-54250000D01*
X129438095Y-54154762D01*
X128104762Y-54154762D02*
X126771428Y-54154762D01*
X127628571Y-56154762D01*
X125152381Y-54154762D02*
X125533333Y-54154762D01*
X125723809Y-54250000D01*
X125819047Y-54345238D01*
X126009524Y-54630952D01*
X126104762Y-55011905D01*
X126104762Y-55773810D01*
X126009524Y-55964286D01*
X125914285Y-56059524D01*
X125723809Y-56154762D01*
X125342857Y-56154762D01*
X125152381Y-56059524D01*
X125057143Y-55964286D01*
X124961904Y-55773810D01*
X124961904Y-55297619D01*
X125057143Y-55107143D01*
X125152381Y-55011905D01*
X125342857Y-54916667D01*
X125723809Y-54916667D01*
X125914285Y-55011905D01*
X126009524Y-55107143D01*
X126104762Y-55297619D01*
X123247619Y-54154762D02*
X123628571Y-54154762D01*
X123819047Y-54250000D01*
X123914285Y-54345238D01*
X124104762Y-54630952D01*
X124200000Y-55011905D01*
X124200000Y-55773810D01*
X124104762Y-55964286D01*
X124009523Y-56059524D01*
X123819047Y-56154762D01*
X123438095Y-56154762D01*
X123247619Y-56059524D01*
X123152381Y-55964286D01*
X123057142Y-55773810D01*
X123057142Y-55297619D01*
X123152381Y-55107143D01*
X123247619Y-55011905D01*
X123438095Y-54916667D01*
X123819047Y-54916667D01*
X124009523Y-55011905D01*
X124104762Y-55107143D01*
X124200000Y-55297619D01*
X122200000Y-55392857D02*
X120676190Y-55392857D01*
X119342857Y-54154762D02*
X119152381Y-54154762D01*
X118961905Y-54250000D01*
X118866667Y-54345238D01*
X118771429Y-54535714D01*
X118676190Y-54916667D01*
X118676190Y-55392857D01*
X118771429Y-55773810D01*
X118866667Y-55964286D01*
X118961905Y-56059524D01*
X119152381Y-56154762D01*
X119342857Y-56154762D01*
X119533333Y-56059524D01*
X119628571Y-55964286D01*
X119723810Y-55773810D01*
X119819048Y-55392857D01*
X119819048Y-54916667D01*
X119723810Y-54535714D01*
X119628571Y-54345238D01*
X119533333Y-54250000D01*
X119342857Y-54154762D01*
X116771428Y-56154762D02*
X117914286Y-56154762D01*
X117342857Y-56154762D02*
X117342857Y-54154762D01*
X117533333Y-54440476D01*
X117723809Y-54630952D01*
X117914286Y-54726190D01*
X115914286Y-55392857D02*
X114390476Y-55392857D01*
X112485715Y-56154762D02*
X113438096Y-56154762D01*
X113438096Y-54154762D01*
X111914286Y-56059524D02*
X111628571Y-56154762D01*
X111152381Y-56154762D01*
X110961905Y-56059524D01*
X110866667Y-55964286D01*
X110771428Y-55773810D01*
X110771428Y-55583333D01*
X110866667Y-55392857D01*
X110961905Y-55297619D01*
X111152381Y-55202381D01*
X111533333Y-55107143D01*
X111723809Y-55011905D01*
X111819048Y-54916667D01*
X111914286Y-54726190D01*
X111914286Y-54535714D01*
X111819048Y-54345238D01*
X111723809Y-54250000D01*
X111533333Y-54154762D01*
X111057143Y-54154762D01*
X110771428Y-54250000D01*
X109914286Y-56154762D02*
X109914286Y-54154762D01*
X109247619Y-55583333D01*
X108580952Y-54154762D01*
X108580952Y-56154762D01*
X107723810Y-54345238D02*
X107628572Y-54250000D01*
X107438095Y-54154762D01*
X106961905Y-54154762D01*
X106771429Y-54250000D01*
X106676191Y-54345238D01*
X106580952Y-54535714D01*
X106580952Y-54726190D01*
X106676191Y-55011905D01*
X107819048Y-56154762D01*
X106580952Y-56154762D01*
X131819048Y-59109524D02*
X131533333Y-59204762D01*
X131057143Y-59204762D01*
X130866667Y-59109524D01*
X130771429Y-59014286D01*
X130676190Y-58823810D01*
X130676190Y-58633333D01*
X130771429Y-58442857D01*
X130866667Y-58347619D01*
X131057143Y-58252381D01*
X131438095Y-58157143D01*
X131628571Y-58061905D01*
X131723810Y-57966667D01*
X131819048Y-57776190D01*
X131819048Y-57585714D01*
X131723810Y-57395238D01*
X131628571Y-57300000D01*
X131438095Y-57204762D01*
X130961905Y-57204762D01*
X130676190Y-57300000D01*
X129533333Y-59204762D02*
X129723809Y-59109524D01*
X129819048Y-59014286D01*
X129914286Y-58823810D01*
X129914286Y-58252381D01*
X129819048Y-58061905D01*
X129723809Y-57966667D01*
X129533333Y-57871429D01*
X129247619Y-57871429D01*
X129057143Y-57966667D01*
X128961905Y-58061905D01*
X128866667Y-58252381D01*
X128866667Y-58823810D01*
X128961905Y-59014286D01*
X129057143Y-59109524D01*
X129247619Y-59204762D01*
X129533333Y-59204762D01*
X127723809Y-59204762D02*
X127914285Y-59109524D01*
X128009524Y-58919048D01*
X128009524Y-57204762D01*
X126104762Y-59204762D02*
X126104762Y-57204762D01*
X126104762Y-59109524D02*
X126295238Y-59204762D01*
X126676190Y-59204762D01*
X126866666Y-59109524D01*
X126961905Y-59014286D01*
X127057143Y-58823810D01*
X127057143Y-58252381D01*
X126961905Y-58061905D01*
X126866666Y-57966667D01*
X126676190Y-57871429D01*
X126295238Y-57871429D01*
X126104762Y-57966667D01*
X124390476Y-59109524D02*
X124580952Y-59204762D01*
X124961904Y-59204762D01*
X125152381Y-59109524D01*
X125247619Y-58919048D01*
X125247619Y-58157143D01*
X125152381Y-57966667D01*
X124961904Y-57871429D01*
X124580952Y-57871429D01*
X124390476Y-57966667D01*
X124295238Y-58157143D01*
X124295238Y-58347619D01*
X125247619Y-58538095D01*
X123438095Y-59204762D02*
X123438095Y-57871429D01*
X123438095Y-58252381D02*
X123342856Y-58061905D01*
X123247618Y-57966667D01*
X123057142Y-57871429D01*
X122866666Y-57871429D01*
X119533332Y-59204762D02*
X120199999Y-58252381D01*
X120676190Y-59204762D02*
X120676190Y-57204762D01*
X119914285Y-57204762D01*
X119723809Y-57300000D01*
X119628570Y-57395238D01*
X119533332Y-57585714D01*
X119533332Y-57871429D01*
X119628570Y-58061905D01*
X119723809Y-58157143D01*
X119914285Y-58252381D01*
X120676190Y-58252381D01*
X117914285Y-59109524D02*
X118104761Y-59204762D01*
X118485713Y-59204762D01*
X118676190Y-59109524D01*
X118771428Y-58919048D01*
X118771428Y-58157143D01*
X118676190Y-57966667D01*
X118485713Y-57871429D01*
X118104761Y-57871429D01*
X117914285Y-57966667D01*
X117819047Y-58157143D01*
X117819047Y-58347619D01*
X118771428Y-58538095D01*
X117057142Y-59109524D02*
X116866665Y-59204762D01*
X116485713Y-59204762D01*
X116295237Y-59109524D01*
X116199999Y-58919048D01*
X116199999Y-58823810D01*
X116295237Y-58633333D01*
X116485713Y-58538095D01*
X116771427Y-58538095D01*
X116961904Y-58442857D01*
X117057142Y-58252381D01*
X117057142Y-58157143D01*
X116961904Y-57966667D01*
X116771427Y-57871429D01*
X116485713Y-57871429D01*
X116295237Y-57966667D01*
X115342856Y-59204762D02*
X115342856Y-57871429D01*
X115342856Y-57204762D02*
X115438094Y-57300000D01*
X115342856Y-57395238D01*
X115247617Y-57300000D01*
X115342856Y-57204762D01*
X115342856Y-57395238D01*
X114485713Y-59109524D02*
X114295236Y-59204762D01*
X113914284Y-59204762D01*
X113723808Y-59109524D01*
X113628570Y-58919048D01*
X113628570Y-58823810D01*
X113723808Y-58633333D01*
X113914284Y-58538095D01*
X114199998Y-58538095D01*
X114390475Y-58442857D01*
X114485713Y-58252381D01*
X114485713Y-58157143D01*
X114390475Y-57966667D01*
X114199998Y-57871429D01*
X113914284Y-57871429D01*
X113723808Y-57966667D01*
X113057141Y-57871429D02*
X112295236Y-57871429D01*
X112771427Y-57204762D02*
X112771427Y-58919048D01*
X112676188Y-59109524D01*
X112485712Y-59204762D01*
X112295236Y-59204762D01*
X109438093Y-58157143D02*
X109152379Y-58252381D01*
X109057140Y-58347619D01*
X108961902Y-58538095D01*
X108961902Y-58823810D01*
X109057140Y-59014286D01*
X109152379Y-59109524D01*
X109342855Y-59204762D01*
X110104760Y-59204762D01*
X110104760Y-57204762D01*
X109438093Y-57204762D01*
X109247617Y-57300000D01*
X109152379Y-57395238D01*
X109057140Y-57585714D01*
X109057140Y-57776190D01*
X109152379Y-57966667D01*
X109247617Y-58061905D01*
X109438093Y-58157143D01*
X110104760Y-58157143D01*
X107819045Y-59204762D02*
X108009521Y-59109524D01*
X108104760Y-59014286D01*
X108199998Y-58823810D01*
X108199998Y-58252381D01*
X108104760Y-58061905D01*
X108009521Y-57966667D01*
X107819045Y-57871429D01*
X107533331Y-57871429D01*
X107342855Y-57966667D01*
X107247617Y-58061905D01*
X107152379Y-58252381D01*
X107152379Y-58823810D01*
X107247617Y-59014286D01*
X107342855Y-59109524D01*
X107533331Y-59204762D01*
X107819045Y-59204762D01*
X106580950Y-57871429D02*
X105819045Y-57871429D01*
X106295236Y-57204762D02*
X106295236Y-58919048D01*
X106199997Y-59109524D01*
X106009521Y-59204762D01*
X105819045Y-59204762D01*
X105438093Y-57871429D02*
X104676188Y-57871429D01*
X105152379Y-57204762D02*
X105152379Y-58919048D01*
X105057140Y-59109524D01*
X104866664Y-59204762D01*
X104676188Y-59204762D01*
X103723807Y-59204762D02*
X103914283Y-59109524D01*
X104009522Y-59014286D01*
X104104760Y-58823810D01*
X104104760Y-58252381D01*
X104009522Y-58061905D01*
X103914283Y-57966667D01*
X103723807Y-57871429D01*
X103438093Y-57871429D01*
X103247617Y-57966667D01*
X103152379Y-58061905D01*
X103057141Y-58252381D01*
X103057141Y-58823810D01*
X103152379Y-59014286D01*
X103247617Y-59109524D01*
X103438093Y-59204762D01*
X103723807Y-59204762D01*
X102199998Y-59204762D02*
X102199998Y-57871429D01*
X102199998Y-58061905D02*
X102104759Y-57966667D01*
X101914283Y-57871429D01*
X101628569Y-57871429D01*
X101438093Y-57966667D01*
X101342855Y-58157143D01*
X101342855Y-59204762D01*
X101342855Y-58157143D02*
X101247617Y-57966667D01*
X101057140Y-57871429D01*
X100771426Y-57871429D01*
X100580950Y-57966667D01*
X100485712Y-58157143D01*
X100485712Y-59204762D01*
D21*
X97498900Y-69999540D03*
X140498560Y-69999540D03*
D22*
X92200000Y-110450000D03*
X144500000Y-110450000D03*
X144500000Y-88250000D03*
D23*
X91100000Y-85714660D03*
X91100000Y-89885340D03*
D24*
X98180000Y-111500000D03*
X98180000Y-115310000D03*
X99450000Y-109595000D03*
X99450000Y-113405000D03*
X100720000Y-111500000D03*
X100720000Y-115310000D03*
X101990000Y-109595000D03*
X101990000Y-113405000D03*
X103260000Y-111500000D03*
X103260000Y-115310000D03*
X104530000Y-109595000D03*
X104530000Y-113405000D03*
X105800000Y-111500000D03*
X105800000Y-115310000D03*
X107070000Y-109595000D03*
X107070000Y-113405000D03*
X108340000Y-111500000D03*
X108340000Y-115310000D03*
X109610000Y-109595000D03*
X109610000Y-113405000D03*
X110880000Y-111500000D03*
X110880000Y-115310000D03*
X112150000Y-109595000D03*
X112150000Y-113405000D03*
X113420000Y-111500000D03*
X113420000Y-115310000D03*
X114690000Y-109595000D03*
X114690000Y-113405000D03*
X115960000Y-111500000D03*
X115960000Y-115310000D03*
X117230000Y-109595000D03*
X117230000Y-113405000D03*
X118500000Y-111500000D03*
X118500000Y-115310000D03*
X119770000Y-109595000D03*
X119770000Y-113405000D03*
X121040000Y-111500000D03*
X121040000Y-115310000D03*
X122310000Y-109595000D03*
X122310000Y-113405000D03*
X123580000Y-111500000D03*
X123580000Y-115310000D03*
X124850000Y-109595000D03*
X124850000Y-113405000D03*
X126120000Y-111500000D03*
X126120000Y-115310000D03*
X127390000Y-109595000D03*
X127390000Y-113405000D03*
X128660000Y-111500000D03*
X128660000Y-115310000D03*
X129930000Y-109595000D03*
X129930000Y-113405000D03*
X131200000Y-111500000D03*
X131200000Y-115310000D03*
X132470000Y-109595000D03*
X132470000Y-113405000D03*
X133740000Y-111500000D03*
X133740000Y-115310000D03*
X135010000Y-109595000D03*
X135010000Y-113405000D03*
X136280000Y-111500000D03*
X136280000Y-115310000D03*
X137550000Y-109595000D03*
X137550000Y-113405000D03*
X138820000Y-111500000D03*
X138820000Y-115310000D03*
X140090000Y-109595000D03*
X140090000Y-113405000D03*
D25*
X148090000Y-113405000D03*
X90180000Y-113405000D03*
D26*
X91000000Y-73500000D03*
X147000000Y-73500000D03*
X91000000Y-104000000D03*
X147000000Y-104000000D03*
D27*
X88538000Y-95400000D03*
X90062000Y-95400000D03*
X90062000Y-97200000D03*
X88538000Y-97200000D03*
D28*
X92700000Y-95262000D03*
X92700000Y-93738000D03*
X94500000Y-93738000D03*
X94500000Y-95262000D03*
D27*
X121562000Y-89800000D03*
X120038000Y-89800000D03*
X124312000Y-89800000D03*
X122788000Y-89800000D03*
X132862000Y-89800000D03*
X131338000Y-89800000D03*
D28*
X109300000Y-101138000D03*
X109300000Y-102662000D03*
X105500000Y-101138000D03*
X105500000Y-102662000D03*
X111300000Y-101138000D03*
X111300000Y-102662000D03*
X117950000Y-102738000D03*
X117950000Y-104262000D03*
X119750000Y-102738000D03*
X119750000Y-104262000D03*
D27*
X126962000Y-98200000D03*
X125438000Y-98200000D03*
X115862000Y-89800000D03*
X114338000Y-89800000D03*
X109762000Y-89800000D03*
X108238000Y-89800000D03*
X103938000Y-89800000D03*
X105462000Y-89800000D03*
X94362000Y-97200000D03*
X92838000Y-97200000D03*
X94362000Y-99000000D03*
X92838000Y-99000000D03*
D29*
X91100000Y-82070000D03*
D30*
X91100000Y-79530000D03*
D28*
X107400000Y-101138000D03*
X107400000Y-102662000D03*
D27*
X88538000Y-93600000D03*
X90062000Y-93600000D03*
M02*
