%FSLAX46Y46*%
G04 Gerber Fmt 4.6, Leading zero omitted, Abs format (unit mm)*
G04 Created by KiCad (PCBNEW (2014-10-13 BZR 5177)-product) date Mi 15 Okt 2014 13:31:42 CEST*
%MOMM*%
G01*
G04 APERTURE LIST*
%ADD10C,0.150000*%
%ADD11C,0.300000*%
%ADD12C,0.400000*%
%ADD13C,0.250000*%
G04 APERTURE END LIST*
D10*
X177002200Y-166007200D02*
X177002200Y-198007200D01*
X285002200Y-198007200D01*
X285002200Y-166007200D01*
X177002200Y-166007200D01*
X10000000Y-10000000D02*
X10000000Y-200007200D01*
X287002200Y-200007200D01*
X287002200Y-10000000D01*
X10000000Y-10000000D01*
X12000000Y-12000000D02*
X12000000Y-198007200D01*
X285002200Y-198007200D01*
X285002200Y-12000000D01*
X12000000Y-12000000D01*
X60000000Y-12000000D02*
X60000000Y-10000000D01*
X110000000Y-12000000D02*
X110000000Y-10000000D01*
X160000000Y-12000000D02*
X160000000Y-10000000D01*
X210000000Y-12000000D02*
X210000000Y-10000000D01*
X260000000Y-12000000D02*
X260000000Y-10000000D01*
X35990476Y-11588095D02*
X35247619Y-11588095D01*
X35619048Y-11588095D02*
X35619048Y-10288095D01*
X35495238Y-10473810D01*
X35371429Y-10597619D01*
X35247619Y-10659524D01*
X85247619Y-10411905D02*
X85309524Y-10350000D01*
X85433333Y-10288095D01*
X85742857Y-10288095D01*
X85866667Y-10350000D01*
X85928571Y-10411905D01*
X85990476Y-10535714D01*
X85990476Y-10659524D01*
X85928571Y-10845238D01*
X85185714Y-11588095D01*
X85990476Y-11588095D01*
X135185714Y-10288095D02*
X135990476Y-10288095D01*
X135557143Y-10783333D01*
X135742857Y-10783333D01*
X135866667Y-10845238D01*
X135928571Y-10907143D01*
X135990476Y-11030952D01*
X135990476Y-11340476D01*
X135928571Y-11464286D01*
X135866667Y-11526190D01*
X135742857Y-11588095D01*
X135371429Y-11588095D01*
X135247619Y-11526190D01*
X135185714Y-11464286D01*
X185866667Y-10721429D02*
X185866667Y-11588095D01*
X185557143Y-10226190D02*
X185247619Y-11154762D01*
X186052381Y-11154762D01*
X235928571Y-10288095D02*
X235309524Y-10288095D01*
X235247619Y-10907143D01*
X235309524Y-10845238D01*
X235433333Y-10783333D01*
X235742857Y-10783333D01*
X235866667Y-10845238D01*
X235928571Y-10907143D01*
X235990476Y-11030952D01*
X235990476Y-11340476D01*
X235928571Y-11464286D01*
X235866667Y-11526190D01*
X235742857Y-11588095D01*
X235433333Y-11588095D01*
X235309524Y-11526190D01*
X235247619Y-11464286D01*
X285866667Y-10288095D02*
X285619048Y-10288095D01*
X285495238Y-10350000D01*
X285433333Y-10411905D01*
X285309524Y-10597619D01*
X285247619Y-10845238D01*
X285247619Y-11340476D01*
X285309524Y-11464286D01*
X285371429Y-11526190D01*
X285495238Y-11588095D01*
X285742857Y-11588095D01*
X285866667Y-11526190D01*
X285928571Y-11464286D01*
X285990476Y-11340476D01*
X285990476Y-11030952D01*
X285928571Y-10907143D01*
X285866667Y-10845238D01*
X285742857Y-10783333D01*
X285495238Y-10783333D01*
X285371429Y-10845238D01*
X285309524Y-10907143D01*
X285247619Y-11030952D01*
X60000000Y-198007200D02*
X60000000Y-200007200D01*
X110000000Y-198007200D02*
X110000000Y-200007200D01*
X160000000Y-198007200D02*
X160000000Y-200007200D01*
X210000000Y-198007200D02*
X210000000Y-200007200D01*
X260000000Y-198007200D02*
X260000000Y-200007200D01*
X35990476Y-199595295D02*
X35247619Y-199595295D01*
X35619048Y-199595295D02*
X35619048Y-198295295D01*
X35495238Y-198481010D01*
X35371429Y-198604819D01*
X35247619Y-198666724D01*
X85247619Y-198419105D02*
X85309524Y-198357200D01*
X85433333Y-198295295D01*
X85742857Y-198295295D01*
X85866667Y-198357200D01*
X85928571Y-198419105D01*
X85990476Y-198542914D01*
X85990476Y-198666724D01*
X85928571Y-198852438D01*
X85185714Y-199595295D01*
X85990476Y-199595295D01*
X135185714Y-198295295D02*
X135990476Y-198295295D01*
X135557143Y-198790533D01*
X135742857Y-198790533D01*
X135866667Y-198852438D01*
X135928571Y-198914343D01*
X135990476Y-199038152D01*
X135990476Y-199347676D01*
X135928571Y-199471486D01*
X135866667Y-199533390D01*
X135742857Y-199595295D01*
X135371429Y-199595295D01*
X135247619Y-199533390D01*
X135185714Y-199471486D01*
X185866667Y-198728629D02*
X185866667Y-199595295D01*
X185557143Y-198233390D02*
X185247619Y-199161962D01*
X186052381Y-199161962D01*
X235928571Y-198295295D02*
X235309524Y-198295295D01*
X235247619Y-198914343D01*
X235309524Y-198852438D01*
X235433333Y-198790533D01*
X235742857Y-198790533D01*
X235866667Y-198852438D01*
X235928571Y-198914343D01*
X235990476Y-199038152D01*
X235990476Y-199347676D01*
X235928571Y-199471486D01*
X235866667Y-199533390D01*
X235742857Y-199595295D01*
X235433333Y-199595295D01*
X235309524Y-199533390D01*
X235247619Y-199471486D01*
X285866667Y-198295295D02*
X285619048Y-198295295D01*
X285495238Y-198357200D01*
X285433333Y-198419105D01*
X285309524Y-198604819D01*
X285247619Y-198852438D01*
X285247619Y-199347676D01*
X285309524Y-199471486D01*
X285371429Y-199533390D01*
X285495238Y-199595295D01*
X285742857Y-199595295D01*
X285866667Y-199533390D01*
X285928571Y-199471486D01*
X285990476Y-199347676D01*
X285990476Y-199038152D01*
X285928571Y-198914343D01*
X285866667Y-198852438D01*
X285742857Y-198790533D01*
X285495238Y-198790533D01*
X285371429Y-198852438D01*
X285309524Y-198914343D01*
X285247619Y-199038152D01*
X10000000Y-60000000D02*
X12000000Y-60000000D01*
X10000000Y-110000000D02*
X12000000Y-110000000D01*
X10000000Y-160000000D02*
X12000000Y-160000000D01*
X10690476Y-35216667D02*
X11309524Y-35216667D01*
X10566667Y-35588095D02*
X11000000Y-34288095D01*
X11433333Y-35588095D01*
X11092857Y-84907143D02*
X11278571Y-84969048D01*
X11340476Y-85030952D01*
X11402381Y-85154762D01*
X11402381Y-85340476D01*
X11340476Y-85464286D01*
X11278571Y-85526190D01*
X11154762Y-85588095D01*
X10659524Y-85588095D01*
X10659524Y-84288095D01*
X11092857Y-84288095D01*
X11216667Y-84350000D01*
X11278571Y-84411905D01*
X11340476Y-84535714D01*
X11340476Y-84659524D01*
X11278571Y-84783333D01*
X11216667Y-84845238D01*
X11092857Y-84907143D01*
X10659524Y-84907143D01*
X11402381Y-135464286D02*
X11340476Y-135526190D01*
X11154762Y-135588095D01*
X11030952Y-135588095D01*
X10845238Y-135526190D01*
X10721429Y-135402381D01*
X10659524Y-135278571D01*
X10597619Y-135030952D01*
X10597619Y-134845238D01*
X10659524Y-134597619D01*
X10721429Y-134473810D01*
X10845238Y-134350000D01*
X11030952Y-134288095D01*
X11154762Y-134288095D01*
X11340476Y-134350000D01*
X11402381Y-134411905D01*
X10659524Y-185588095D02*
X10659524Y-184288095D01*
X10969048Y-184288095D01*
X11154762Y-184350000D01*
X11278571Y-184473810D01*
X11340476Y-184597619D01*
X11402381Y-184845238D01*
X11402381Y-185030952D01*
X11340476Y-185278571D01*
X11278571Y-185402381D01*
X11154762Y-185526190D01*
X10969048Y-185588095D01*
X10659524Y-185588095D01*
X287002200Y-60000000D02*
X285002200Y-60000000D01*
X287002200Y-110000000D02*
X285002200Y-110000000D01*
X287002200Y-160000000D02*
X285002200Y-160000000D01*
X285692676Y-35216667D02*
X286311724Y-35216667D01*
X285568867Y-35588095D02*
X286002200Y-34288095D01*
X286435533Y-35588095D01*
X286095057Y-84907143D02*
X286280771Y-84969048D01*
X286342676Y-85030952D01*
X286404581Y-85154762D01*
X286404581Y-85340476D01*
X286342676Y-85464286D01*
X286280771Y-85526190D01*
X286156962Y-85588095D01*
X285661724Y-85588095D01*
X285661724Y-84288095D01*
X286095057Y-84288095D01*
X286218867Y-84350000D01*
X286280771Y-84411905D01*
X286342676Y-84535714D01*
X286342676Y-84659524D01*
X286280771Y-84783333D01*
X286218867Y-84845238D01*
X286095057Y-84907143D01*
X285661724Y-84907143D01*
X286404581Y-135464286D02*
X286342676Y-135526190D01*
X286156962Y-135588095D01*
X286033152Y-135588095D01*
X285847438Y-135526190D01*
X285723629Y-135402381D01*
X285661724Y-135278571D01*
X285599819Y-135030952D01*
X285599819Y-134845238D01*
X285661724Y-134597619D01*
X285723629Y-134473810D01*
X285847438Y-134350000D01*
X286033152Y-134288095D01*
X286156962Y-134288095D01*
X286342676Y-134350000D01*
X286404581Y-134411905D01*
X285661724Y-185588095D02*
X285661724Y-184288095D01*
X285971248Y-184288095D01*
X286156962Y-184350000D01*
X286280771Y-184473810D01*
X286342676Y-184597619D01*
X286404581Y-184845238D01*
X286404581Y-185030952D01*
X286342676Y-185278571D01*
X286280771Y-185402381D01*
X286156962Y-185526190D01*
X285971248Y-185588095D01*
X285661724Y-185588095D01*
X200359343Y-193785771D02*
X200359343Y-192285771D01*
X200716486Y-192285771D01*
X200930771Y-192357200D01*
X201073629Y-192500057D01*
X201145057Y-192642914D01*
X201216486Y-192928629D01*
X201216486Y-193142914D01*
X201145057Y-193428629D01*
X201073629Y-193571486D01*
X200930771Y-193714343D01*
X200716486Y-193785771D01*
X200359343Y-193785771D01*
X202502200Y-193785771D02*
X202502200Y-193000057D01*
X202430771Y-192857200D01*
X202287914Y-192785771D01*
X202002200Y-192785771D01*
X201859343Y-192857200D01*
X202502200Y-193714343D02*
X202359343Y-193785771D01*
X202002200Y-193785771D01*
X201859343Y-193714343D01*
X201787914Y-193571486D01*
X201787914Y-193428629D01*
X201859343Y-193285771D01*
X202002200Y-193214343D01*
X202359343Y-193214343D01*
X202502200Y-193142914D01*
X203002200Y-192785771D02*
X203573629Y-192785771D01*
X203216486Y-192285771D02*
X203216486Y-193571486D01*
X203287914Y-193714343D01*
X203430772Y-193785771D01*
X203573629Y-193785771D01*
X204645057Y-193714343D02*
X204502200Y-193785771D01*
X204216486Y-193785771D01*
X204073629Y-193714343D01*
X204002200Y-193571486D01*
X204002200Y-193000057D01*
X204073629Y-192857200D01*
X204216486Y-192785771D01*
X204502200Y-192785771D01*
X204645057Y-192857200D01*
X204716486Y-193000057D01*
X204716486Y-193142914D01*
X204002200Y-193285771D01*
X205359343Y-193642914D02*
X205430771Y-193714343D01*
X205359343Y-193785771D01*
X205287914Y-193714343D01*
X205359343Y-193642914D01*
X205359343Y-193785771D01*
X205359343Y-192857200D02*
X205430771Y-192928629D01*
X205359343Y-193000057D01*
X205287914Y-192928629D01*
X205359343Y-192857200D01*
X205359343Y-193000057D01*
X207216486Y-193785771D02*
X207216486Y-192285771D01*
X207716486Y-193357200D01*
X208216486Y-192285771D01*
X208216486Y-193785771D01*
X208930772Y-193785771D02*
X208930772Y-192785771D01*
X208930772Y-192285771D02*
X208859343Y-192357200D01*
X208930772Y-192428629D01*
X209002200Y-192357200D01*
X208930772Y-192285771D01*
X208930772Y-192428629D01*
X211073629Y-192285771D02*
X211216486Y-192285771D01*
X211359343Y-192357200D01*
X211430772Y-192428629D01*
X211502201Y-192571486D01*
X211573629Y-192857200D01*
X211573629Y-193214343D01*
X211502201Y-193500057D01*
X211430772Y-193642914D01*
X211359343Y-193714343D01*
X211216486Y-193785771D01*
X211073629Y-193785771D01*
X210930772Y-193714343D01*
X210859343Y-193642914D01*
X210787915Y-193500057D01*
X210716486Y-193214343D01*
X210716486Y-192857200D01*
X210787915Y-192571486D01*
X210859343Y-192428629D01*
X210930772Y-192357200D01*
X211073629Y-192285771D01*
X212430772Y-192928629D02*
X212287914Y-192857200D01*
X212216486Y-192785771D01*
X212145057Y-192642914D01*
X212145057Y-192571486D01*
X212216486Y-192428629D01*
X212287914Y-192357200D01*
X212430772Y-192285771D01*
X212716486Y-192285771D01*
X212859343Y-192357200D01*
X212930772Y-192428629D01*
X213002200Y-192571486D01*
X213002200Y-192642914D01*
X212930772Y-192785771D01*
X212859343Y-192857200D01*
X212716486Y-192928629D01*
X212430772Y-192928629D01*
X212287914Y-193000057D01*
X212216486Y-193071486D01*
X212145057Y-193214343D01*
X212145057Y-193500057D01*
X212216486Y-193642914D01*
X212287914Y-193714343D01*
X212430772Y-193785771D01*
X212716486Y-193785771D01*
X212859343Y-193714343D01*
X212930772Y-193642914D01*
X213002200Y-193500057D01*
X213002200Y-193214343D01*
X212930772Y-193071486D01*
X212859343Y-193000057D01*
X212716486Y-192928629D01*
X215073628Y-192285771D02*
X215359342Y-192285771D01*
X215502200Y-192357200D01*
X215645057Y-192500057D01*
X215716485Y-192785771D01*
X215716485Y-193285771D01*
X215645057Y-193571486D01*
X215502200Y-193714343D01*
X215359342Y-193785771D01*
X215073628Y-193785771D01*
X214930771Y-193714343D01*
X214787914Y-193571486D01*
X214716485Y-193285771D01*
X214716485Y-192785771D01*
X214787914Y-192500057D01*
X214930771Y-192357200D01*
X215073628Y-192285771D01*
X216359343Y-193785771D02*
X216359343Y-192285771D01*
X216502200Y-193214343D02*
X216930771Y-193785771D01*
X216930771Y-192785771D02*
X216359343Y-193357200D01*
X217359343Y-192785771D02*
X217930772Y-192785771D01*
X217573629Y-192285771D02*
X217573629Y-193571486D01*
X217645057Y-193714343D01*
X217787915Y-193785771D01*
X217930772Y-193785771D01*
X219502200Y-192428629D02*
X219573629Y-192357200D01*
X219716486Y-192285771D01*
X220073629Y-192285771D01*
X220216486Y-192357200D01*
X220287915Y-192428629D01*
X220359343Y-192571486D01*
X220359343Y-192714343D01*
X220287915Y-192928629D01*
X219430772Y-193785771D01*
X220359343Y-193785771D01*
X221287914Y-192285771D02*
X221430771Y-192285771D01*
X221573628Y-192357200D01*
X221645057Y-192428629D01*
X221716486Y-192571486D01*
X221787914Y-192857200D01*
X221787914Y-193214343D01*
X221716486Y-193500057D01*
X221645057Y-193642914D01*
X221573628Y-193714343D01*
X221430771Y-193785771D01*
X221287914Y-193785771D01*
X221145057Y-193714343D01*
X221073628Y-193642914D01*
X221002200Y-193500057D01*
X220930771Y-193214343D01*
X220930771Y-192857200D01*
X221002200Y-192571486D01*
X221073628Y-192428629D01*
X221145057Y-192357200D01*
X221287914Y-192285771D01*
X223216485Y-193785771D02*
X222359342Y-193785771D01*
X222787914Y-193785771D02*
X222787914Y-192285771D01*
X222645057Y-192500057D01*
X222502199Y-192642914D01*
X222359342Y-192714343D01*
X224502199Y-192785771D02*
X224502199Y-193785771D01*
X224145056Y-192214343D02*
X223787913Y-193285771D01*
X224716485Y-193285771D01*
X177002200Y-194507200D02*
X285002200Y-194507200D01*
X178359343Y-196585771D02*
X178359343Y-195085771D01*
X179216486Y-196585771D02*
X178573629Y-195728629D01*
X179216486Y-195085771D02*
X178359343Y-195942914D01*
X179859343Y-196585771D02*
X179859343Y-195585771D01*
X179859343Y-195085771D02*
X179787914Y-195157200D01*
X179859343Y-195228629D01*
X179930771Y-195157200D01*
X179859343Y-195085771D01*
X179859343Y-195228629D01*
X181430772Y-196442914D02*
X181359343Y-196514343D01*
X181145057Y-196585771D01*
X181002200Y-196585771D01*
X180787915Y-196514343D01*
X180645057Y-196371486D01*
X180573629Y-196228629D01*
X180502200Y-195942914D01*
X180502200Y-195728629D01*
X180573629Y-195442914D01*
X180645057Y-195300057D01*
X180787915Y-195157200D01*
X181002200Y-195085771D01*
X181145057Y-195085771D01*
X181359343Y-195157200D01*
X181430772Y-195228629D01*
X182716486Y-196585771D02*
X182716486Y-195800057D01*
X182645057Y-195657200D01*
X182502200Y-195585771D01*
X182216486Y-195585771D01*
X182073629Y-195657200D01*
X182716486Y-196514343D02*
X182573629Y-196585771D01*
X182216486Y-196585771D01*
X182073629Y-196514343D01*
X182002200Y-196371486D01*
X182002200Y-196228629D01*
X182073629Y-196085771D01*
X182216486Y-196014343D01*
X182573629Y-196014343D01*
X182716486Y-195942914D01*
X184073629Y-196585771D02*
X184073629Y-195085771D01*
X184073629Y-196514343D02*
X183930772Y-196585771D01*
X183645058Y-196585771D01*
X183502200Y-196514343D01*
X183430772Y-196442914D01*
X183359343Y-196300057D01*
X183359343Y-195871486D01*
X183430772Y-195728629D01*
X183502200Y-195657200D01*
X183645058Y-195585771D01*
X183930772Y-195585771D01*
X184073629Y-195657200D01*
X185930772Y-195800057D02*
X186430772Y-195800057D01*
X186645058Y-196585771D02*
X185930772Y-196585771D01*
X185930772Y-195085771D01*
X186645058Y-195085771D01*
X187287915Y-196442914D02*
X187359343Y-196514343D01*
X187287915Y-196585771D01*
X187216486Y-196514343D01*
X187287915Y-196442914D01*
X187287915Y-196585771D01*
X188002201Y-196585771D02*
X188002201Y-195085771D01*
X188359344Y-195085771D01*
X188573629Y-195157200D01*
X188716487Y-195300057D01*
X188787915Y-195442914D01*
X188859344Y-195728629D01*
X188859344Y-195942914D01*
X188787915Y-196228629D01*
X188716487Y-196371486D01*
X188573629Y-196514343D01*
X188359344Y-196585771D01*
X188002201Y-196585771D01*
X189502201Y-196442914D02*
X189573629Y-196514343D01*
X189502201Y-196585771D01*
X189430772Y-196514343D01*
X189502201Y-196442914D01*
X189502201Y-196585771D01*
X190145058Y-196157200D02*
X190859344Y-196157200D01*
X190002201Y-196585771D02*
X190502201Y-195085771D01*
X191002201Y-196585771D01*
X191502201Y-196442914D02*
X191573629Y-196514343D01*
X191502201Y-196585771D01*
X191430772Y-196514343D01*
X191502201Y-196442914D01*
X191502201Y-196585771D01*
X194502201Y-196585771D02*
X194502201Y-195085771D01*
X194645058Y-196014343D02*
X195073629Y-196585771D01*
X195073629Y-195585771D02*
X194502201Y-196157200D01*
X195716487Y-196585771D02*
X195716487Y-195585771D01*
X195716487Y-195085771D02*
X195645058Y-195157200D01*
X195716487Y-195228629D01*
X195787915Y-195157200D01*
X195716487Y-195085771D01*
X195716487Y-195228629D01*
X197073630Y-196514343D02*
X196930773Y-196585771D01*
X196645059Y-196585771D01*
X196502201Y-196514343D01*
X196430773Y-196442914D01*
X196359344Y-196300057D01*
X196359344Y-195871486D01*
X196430773Y-195728629D01*
X196502201Y-195657200D01*
X196645059Y-195585771D01*
X196930773Y-195585771D01*
X197073630Y-195657200D01*
X198359344Y-196585771D02*
X198359344Y-195800057D01*
X198287915Y-195657200D01*
X198145058Y-195585771D01*
X197859344Y-195585771D01*
X197716487Y-195657200D01*
X198359344Y-196514343D02*
X198216487Y-196585771D01*
X197859344Y-196585771D01*
X197716487Y-196514343D01*
X197645058Y-196371486D01*
X197645058Y-196228629D01*
X197716487Y-196085771D01*
X197859344Y-196014343D01*
X198216487Y-196014343D01*
X198359344Y-195942914D01*
X199716487Y-196585771D02*
X199716487Y-195085771D01*
X199716487Y-196514343D02*
X199573630Y-196585771D01*
X199287916Y-196585771D01*
X199145058Y-196514343D01*
X199073630Y-196442914D01*
X199002201Y-196300057D01*
X199002201Y-195871486D01*
X199073630Y-195728629D01*
X199145058Y-195657200D01*
X199287916Y-195585771D01*
X199573630Y-195585771D01*
X199716487Y-195657200D01*
X202002201Y-197157200D02*
X201930773Y-197085771D01*
X201787916Y-196871486D01*
X201716487Y-196728629D01*
X201645058Y-196514343D01*
X201573630Y-196157200D01*
X201573630Y-195871486D01*
X201645058Y-195514343D01*
X201716487Y-195300057D01*
X201787916Y-195157200D01*
X201930773Y-194942914D01*
X202002201Y-194871486D01*
X202502201Y-195228629D02*
X202573630Y-195157200D01*
X202716487Y-195085771D01*
X203073630Y-195085771D01*
X203216487Y-195157200D01*
X203287916Y-195228629D01*
X203359344Y-195371486D01*
X203359344Y-195514343D01*
X203287916Y-195728629D01*
X202430773Y-196585771D01*
X203359344Y-196585771D01*
X204287915Y-195085771D02*
X204430772Y-195085771D01*
X204573629Y-195157200D01*
X204645058Y-195228629D01*
X204716487Y-195371486D01*
X204787915Y-195657200D01*
X204787915Y-196014343D01*
X204716487Y-196300057D01*
X204645058Y-196442914D01*
X204573629Y-196514343D01*
X204430772Y-196585771D01*
X204287915Y-196585771D01*
X204145058Y-196514343D01*
X204073629Y-196442914D01*
X204002201Y-196300057D01*
X203930772Y-196014343D01*
X203930772Y-195657200D01*
X204002201Y-195371486D01*
X204073629Y-195228629D01*
X204145058Y-195157200D01*
X204287915Y-195085771D01*
X206216486Y-196585771D02*
X205359343Y-196585771D01*
X205787915Y-196585771D02*
X205787915Y-195085771D01*
X205645058Y-195300057D01*
X205502200Y-195442914D01*
X205359343Y-195514343D01*
X207502200Y-195585771D02*
X207502200Y-196585771D01*
X207145057Y-195014343D02*
X206787914Y-196085771D01*
X207716486Y-196085771D01*
X208287914Y-196014343D02*
X209430771Y-196014343D01*
X210930771Y-196585771D02*
X210073628Y-196585771D01*
X210502200Y-196585771D02*
X210502200Y-195085771D01*
X210359343Y-195300057D01*
X210216485Y-195442914D01*
X210073628Y-195514343D01*
X211859342Y-195085771D02*
X212002199Y-195085771D01*
X212145056Y-195157200D01*
X212216485Y-195228629D01*
X212287914Y-195371486D01*
X212359342Y-195657200D01*
X212359342Y-196014343D01*
X212287914Y-196300057D01*
X212216485Y-196442914D01*
X212145056Y-196514343D01*
X212002199Y-196585771D01*
X211859342Y-196585771D01*
X211716485Y-196514343D01*
X211645056Y-196442914D01*
X211573628Y-196300057D01*
X211502199Y-196014343D01*
X211502199Y-195657200D01*
X211573628Y-195371486D01*
X211645056Y-195228629D01*
X211716485Y-195157200D01*
X211859342Y-195085771D01*
X213002199Y-196014343D02*
X214145056Y-196014343D01*
X215645056Y-196585771D02*
X214787913Y-196585771D01*
X215216485Y-196585771D02*
X215216485Y-195085771D01*
X215073628Y-195300057D01*
X214930770Y-195442914D01*
X214787913Y-195514343D01*
X216145056Y-195085771D02*
X217073627Y-195085771D01*
X216573627Y-195657200D01*
X216787913Y-195657200D01*
X216930770Y-195728629D01*
X217002199Y-195800057D01*
X217073627Y-195942914D01*
X217073627Y-196300057D01*
X217002199Y-196442914D01*
X216930770Y-196514343D01*
X216787913Y-196585771D01*
X216359341Y-196585771D01*
X216216484Y-196514343D01*
X216145056Y-196442914D01*
X219359341Y-195800057D02*
X219573627Y-195871486D01*
X219645055Y-195942914D01*
X219716484Y-196085771D01*
X219716484Y-196300057D01*
X219645055Y-196442914D01*
X219573627Y-196514343D01*
X219430769Y-196585771D01*
X218859341Y-196585771D01*
X218859341Y-195085771D01*
X219359341Y-195085771D01*
X219502198Y-195157200D01*
X219573627Y-195228629D01*
X219645055Y-195371486D01*
X219645055Y-195514343D01*
X219573627Y-195657200D01*
X219502198Y-195728629D01*
X219359341Y-195800057D01*
X218859341Y-195800057D01*
X220216484Y-195085771D02*
X221216484Y-195085771D01*
X220216484Y-196585771D01*
X221216484Y-196585771D01*
X222645055Y-196585771D02*
X222145055Y-195871486D01*
X221787912Y-196585771D02*
X221787912Y-195085771D01*
X222359340Y-195085771D01*
X222502198Y-195157200D01*
X222573626Y-195228629D01*
X222645055Y-195371486D01*
X222645055Y-195585771D01*
X222573626Y-195728629D01*
X222502198Y-195800057D01*
X222359340Y-195871486D01*
X221787912Y-195871486D01*
X225145055Y-195085771D02*
X224430769Y-195085771D01*
X224359340Y-195800057D01*
X224430769Y-195728629D01*
X224573626Y-195657200D01*
X224930769Y-195657200D01*
X225073626Y-195728629D01*
X225145055Y-195800057D01*
X225216483Y-195942914D01*
X225216483Y-196300057D01*
X225145055Y-196442914D01*
X225073626Y-196514343D01*
X224930769Y-196585771D01*
X224573626Y-196585771D01*
X224430769Y-196514343D01*
X224359340Y-196442914D01*
X226645054Y-196585771D02*
X225787911Y-196585771D01*
X226216483Y-196585771D02*
X226216483Y-195085771D01*
X226073626Y-195300057D01*
X225930768Y-195442914D01*
X225787911Y-195514343D01*
X227145054Y-195085771D02*
X228145054Y-195085771D01*
X227502197Y-196585771D01*
X228573625Y-195085771D02*
X229573625Y-195085771D01*
X228930768Y-196585771D01*
X230002196Y-197157200D02*
X230073624Y-197085771D01*
X230216481Y-196871486D01*
X230287910Y-196728629D01*
X230359339Y-196514343D01*
X230430767Y-196157200D01*
X230430767Y-195871486D01*
X230359339Y-195514343D01*
X230287910Y-195300057D01*
X230216481Y-195157200D01*
X230073624Y-194942914D01*
X230002196Y-194871486D01*
X231145053Y-196014343D02*
X232287910Y-196014343D01*
X233002196Y-195585771D02*
X233002196Y-197085771D01*
X233002196Y-195657200D02*
X233145053Y-195585771D01*
X233430767Y-195585771D01*
X233573624Y-195657200D01*
X233645053Y-195728629D01*
X233716482Y-195871486D01*
X233716482Y-196300057D01*
X233645053Y-196442914D01*
X233573624Y-196514343D01*
X233430767Y-196585771D01*
X233145053Y-196585771D01*
X233002196Y-196514343D01*
X234359339Y-196585771D02*
X234359339Y-195585771D01*
X234359339Y-195871486D02*
X234430767Y-195728629D01*
X234502196Y-195657200D01*
X234645053Y-195585771D01*
X234787910Y-195585771D01*
X235502196Y-196585771D02*
X235359338Y-196514343D01*
X235287910Y-196442914D01*
X235216481Y-196300057D01*
X235216481Y-195871486D01*
X235287910Y-195728629D01*
X235359338Y-195657200D01*
X235502196Y-195585771D01*
X235716481Y-195585771D01*
X235859338Y-195657200D01*
X235930767Y-195728629D01*
X236002196Y-195871486D01*
X236002196Y-196300057D01*
X235930767Y-196442914D01*
X235859338Y-196514343D01*
X235716481Y-196585771D01*
X235502196Y-196585771D01*
X237287910Y-196585771D02*
X237287910Y-195085771D01*
X237287910Y-196514343D02*
X237145053Y-196585771D01*
X236859339Y-196585771D01*
X236716481Y-196514343D01*
X236645053Y-196442914D01*
X236573624Y-196300057D01*
X236573624Y-195871486D01*
X236645053Y-195728629D01*
X236716481Y-195657200D01*
X236859339Y-195585771D01*
X237145053Y-195585771D01*
X237287910Y-195657200D01*
X238645053Y-195585771D02*
X238645053Y-196585771D01*
X238002196Y-195585771D02*
X238002196Y-196371486D01*
X238073624Y-196514343D01*
X238216482Y-196585771D01*
X238430767Y-196585771D01*
X238573624Y-196514343D01*
X238645053Y-196442914D01*
X240002196Y-196514343D02*
X239859339Y-196585771D01*
X239573625Y-196585771D01*
X239430767Y-196514343D01*
X239359339Y-196442914D01*
X239287910Y-196300057D01*
X239287910Y-195871486D01*
X239359339Y-195728629D01*
X239430767Y-195657200D01*
X239573625Y-195585771D01*
X239859339Y-195585771D01*
X240002196Y-195657200D01*
X240430767Y-195585771D02*
X241002196Y-195585771D01*
X240645053Y-195085771D02*
X240645053Y-196371486D01*
X240716481Y-196514343D01*
X240859339Y-196585771D01*
X241002196Y-196585771D01*
X177002200Y-191507200D02*
X285002200Y-191507200D01*
D11*
X264216486Y-193785771D02*
X263716486Y-193071486D01*
X263359343Y-193785771D02*
X263359343Y-192285771D01*
X263930771Y-192285771D01*
X264073629Y-192357200D01*
X264145057Y-192428629D01*
X264216486Y-192571486D01*
X264216486Y-192785771D01*
X264145057Y-192928629D01*
X264073629Y-193000057D01*
X263930771Y-193071486D01*
X263359343Y-193071486D01*
X265430771Y-193714343D02*
X265287914Y-193785771D01*
X265002200Y-193785771D01*
X264859343Y-193714343D01*
X264787914Y-193571486D01*
X264787914Y-193000057D01*
X264859343Y-192857200D01*
X265002200Y-192785771D01*
X265287914Y-192785771D01*
X265430771Y-192857200D01*
X265502200Y-193000057D01*
X265502200Y-193142914D01*
X264787914Y-193285771D01*
X266002200Y-192785771D02*
X266359343Y-193785771D01*
X266716485Y-192785771D01*
X267287914Y-193642914D02*
X267359342Y-193714343D01*
X267287914Y-193785771D01*
X267216485Y-193714343D01*
X267287914Y-193642914D01*
X267287914Y-193785771D01*
X267287914Y-192857200D02*
X267359342Y-192928629D01*
X267287914Y-193000057D01*
X267216485Y-192928629D01*
X267287914Y-192857200D01*
X267287914Y-193000057D01*
X269430771Y-192285771D02*
X269573628Y-192285771D01*
X269716485Y-192357200D01*
X269787914Y-192428629D01*
X269859343Y-192571486D01*
X269930771Y-192857200D01*
X269930771Y-193214343D01*
X269859343Y-193500057D01*
X269787914Y-193642914D01*
X269716485Y-193714343D01*
X269573628Y-193785771D01*
X269430771Y-193785771D01*
X269287914Y-193714343D01*
X269216485Y-193642914D01*
X269145057Y-193500057D01*
X269073628Y-193214343D01*
X269073628Y-192857200D01*
X269145057Y-192571486D01*
X269216485Y-192428629D01*
X269287914Y-192357200D01*
X269430771Y-192285771D01*
X271359342Y-193785771D02*
X270502199Y-193785771D01*
X270930771Y-193785771D02*
X270930771Y-192285771D01*
X270787914Y-192500057D01*
X270645056Y-192642914D01*
X270502199Y-192714343D01*
D10*
X178287914Y-193714343D02*
X178502200Y-193785771D01*
X178859343Y-193785771D01*
X179002200Y-193714343D01*
X179073629Y-193642914D01*
X179145057Y-193500057D01*
X179145057Y-193357200D01*
X179073629Y-193214343D01*
X179002200Y-193142914D01*
X178859343Y-193071486D01*
X178573629Y-193000057D01*
X178430771Y-192928629D01*
X178359343Y-192857200D01*
X178287914Y-192714343D01*
X178287914Y-192571486D01*
X178359343Y-192428629D01*
X178430771Y-192357200D01*
X178573629Y-192285771D01*
X178930771Y-192285771D01*
X179145057Y-192357200D01*
X179787914Y-193785771D02*
X179787914Y-192785771D01*
X179787914Y-192285771D02*
X179716485Y-192357200D01*
X179787914Y-192428629D01*
X179859342Y-192357200D01*
X179787914Y-192285771D01*
X179787914Y-192428629D01*
X180359343Y-192785771D02*
X181145057Y-192785771D01*
X180359343Y-193785771D01*
X181145057Y-193785771D01*
X182287914Y-193714343D02*
X182145057Y-193785771D01*
X181859343Y-193785771D01*
X181716486Y-193714343D01*
X181645057Y-193571486D01*
X181645057Y-193000057D01*
X181716486Y-192857200D01*
X181859343Y-192785771D01*
X182145057Y-192785771D01*
X182287914Y-192857200D01*
X182359343Y-193000057D01*
X182359343Y-193142914D01*
X181645057Y-193285771D01*
X183002200Y-193642914D02*
X183073628Y-193714343D01*
X183002200Y-193785771D01*
X182930771Y-193714343D01*
X183002200Y-193642914D01*
X183002200Y-193785771D01*
X183002200Y-192857200D02*
X183073628Y-192928629D01*
X183002200Y-193000057D01*
X182930771Y-192928629D01*
X183002200Y-192857200D01*
X183002200Y-193000057D01*
X184787914Y-193357200D02*
X185502200Y-193357200D01*
X184645057Y-193785771D02*
X185145057Y-192285771D01*
X185645057Y-193785771D01*
X186787914Y-192785771D02*
X186787914Y-193785771D01*
X186430771Y-192214343D02*
X186073628Y-193285771D01*
X187002200Y-193285771D01*
X263359343Y-196585771D02*
X263359343Y-195085771D01*
X264716486Y-196585771D02*
X264716486Y-195085771D01*
X264716486Y-196514343D02*
X264573629Y-196585771D01*
X264287915Y-196585771D01*
X264145057Y-196514343D01*
X264073629Y-196442914D01*
X264002200Y-196300057D01*
X264002200Y-195871486D01*
X264073629Y-195728629D01*
X264145057Y-195657200D01*
X264287915Y-195585771D01*
X264573629Y-195585771D01*
X264716486Y-195657200D01*
X265430772Y-196442914D02*
X265502200Y-196514343D01*
X265430772Y-196585771D01*
X265359343Y-196514343D01*
X265430772Y-196442914D01*
X265430772Y-196585771D01*
X265430772Y-195657200D02*
X265502200Y-195728629D01*
X265430772Y-195800057D01*
X265359343Y-195728629D01*
X265430772Y-195657200D01*
X265430772Y-195800057D01*
X268073629Y-196585771D02*
X267216486Y-196585771D01*
X267645058Y-196585771D02*
X267645058Y-195085771D01*
X267502201Y-195300057D01*
X267359343Y-195442914D01*
X267216486Y-195514343D01*
X269787914Y-195014343D02*
X268502200Y-196942914D01*
X271073629Y-196585771D02*
X270216486Y-196585771D01*
X270645058Y-196585771D02*
X270645058Y-195085771D01*
X270502201Y-195300057D01*
X270359343Y-195442914D01*
X270216486Y-195514343D01*
X177002200Y-187507200D02*
X285002200Y-187507200D01*
D12*
X178454581Y-188211962D02*
X179597438Y-188211962D01*
X178776010Y-190211962D02*
X179026010Y-188211962D01*
X180014105Y-190211962D02*
X180180771Y-188878629D01*
X180264105Y-188211962D02*
X180156962Y-188307200D01*
X180240295Y-188402438D01*
X180347439Y-188307200D01*
X180264105Y-188211962D01*
X180240295Y-188402438D01*
X180847438Y-188878629D02*
X181609343Y-188878629D01*
X181216486Y-188211962D02*
X181002200Y-189926248D01*
X181073630Y-190116724D01*
X181252201Y-190211962D01*
X181442677Y-190211962D01*
X182395058Y-190211962D02*
X182216487Y-190116724D01*
X182145057Y-189926248D01*
X182359343Y-188211962D01*
X183930772Y-190116724D02*
X183728391Y-190211962D01*
X183347439Y-190211962D01*
X183168867Y-190116724D01*
X183097438Y-189926248D01*
X183192676Y-189164343D01*
X183311724Y-188973867D01*
X183514105Y-188878629D01*
X183895057Y-188878629D01*
X184073629Y-188973867D01*
X184145057Y-189164343D01*
X184121248Y-189354819D01*
X183145057Y-189545295D01*
X184895057Y-190021486D02*
X184978392Y-190116724D01*
X184871248Y-190211962D01*
X184787915Y-190116724D01*
X184895057Y-190021486D01*
X184871248Y-190211962D01*
X185026010Y-188973867D02*
X185109344Y-189069105D01*
X185002200Y-189164343D01*
X184918867Y-189069105D01*
X185026010Y-188973867D01*
X185002200Y-189164343D01*
X188514106Y-190021486D02*
X188406964Y-190116724D01*
X188109344Y-190211962D01*
X187918868Y-190211962D01*
X187645059Y-190116724D01*
X187478392Y-189926248D01*
X187406963Y-189735771D01*
X187359344Y-189354819D01*
X187395058Y-189069105D01*
X187537915Y-188688152D01*
X187656964Y-188497676D01*
X187871249Y-188307200D01*
X188168868Y-188211962D01*
X188359344Y-188211962D01*
X188633154Y-188307200D01*
X188716487Y-188402438D01*
X189347439Y-190211962D02*
X189597439Y-188211962D01*
X190085534Y-189640533D01*
X190930773Y-188211962D01*
X190680773Y-190211962D01*
X191549820Y-190116724D02*
X191823630Y-190211962D01*
X192299820Y-190211962D01*
X192502201Y-190116724D01*
X192609343Y-190021486D01*
X192728392Y-189831010D01*
X192752201Y-189640533D01*
X192680772Y-189450057D01*
X192597439Y-189354819D01*
X192418867Y-189259581D01*
X192049820Y-189164343D01*
X191871249Y-189069105D01*
X191787915Y-188973867D01*
X191716486Y-188783390D01*
X191740296Y-188592914D01*
X191859343Y-188402438D01*
X191966487Y-188307200D01*
X192168868Y-188211962D01*
X192645058Y-188211962D01*
X192918868Y-188307200D01*
X196204583Y-190211962D02*
X195656963Y-189259581D01*
X195061725Y-190211962D02*
X195311725Y-188211962D01*
X196073630Y-188211962D01*
X196252201Y-188307200D01*
X196335535Y-188402438D01*
X196406964Y-188592914D01*
X196371249Y-188878629D01*
X196252202Y-189069105D01*
X196145058Y-189164343D01*
X195942677Y-189259581D01*
X195180772Y-189259581D01*
X197692678Y-188211962D02*
X198073630Y-188211962D01*
X198252201Y-188307200D01*
X198418869Y-188497676D01*
X198466487Y-188878629D01*
X198383154Y-189545295D01*
X198240297Y-189926248D01*
X198026011Y-190116724D01*
X197823630Y-190211962D01*
X197442678Y-190211962D01*
X197264107Y-190116724D01*
X197097439Y-189926248D01*
X197049820Y-189545295D01*
X197133153Y-188878629D01*
X197276011Y-188497676D01*
X197490297Y-188307200D01*
X197692678Y-188211962D01*
X200323630Y-190021486D02*
X200216488Y-190116724D01*
X199918868Y-190211962D01*
X199728392Y-190211962D01*
X199454583Y-190116724D01*
X199287916Y-189926248D01*
X199216487Y-189735771D01*
X199168868Y-189354819D01*
X199204582Y-189069105D01*
X199347439Y-188688152D01*
X199466488Y-188497676D01*
X199680773Y-188307200D01*
X199978392Y-188211962D01*
X200168868Y-188211962D01*
X200442678Y-188307200D01*
X200526011Y-188402438D01*
X202645059Y-188211962D02*
X203787916Y-188211962D01*
X202966488Y-190211962D02*
X203216488Y-188211962D01*
X204978393Y-190116724D02*
X204776012Y-190211962D01*
X204395060Y-190211962D01*
X204216488Y-190116724D01*
X204145059Y-189926248D01*
X204240297Y-189164343D01*
X204359345Y-188973867D01*
X204561726Y-188878629D01*
X204942678Y-188878629D01*
X205121250Y-188973867D01*
X205192678Y-189164343D01*
X205168869Y-189354819D01*
X204192678Y-189545295D01*
X205835536Y-190116724D02*
X206014108Y-190211962D01*
X206395060Y-190211962D01*
X206597441Y-190116724D01*
X206716488Y-189926248D01*
X206728393Y-189831010D01*
X206656964Y-189640533D01*
X206478393Y-189545295D01*
X206192679Y-189545295D01*
X206014107Y-189450057D01*
X205942678Y-189259581D01*
X205954583Y-189164343D01*
X206073631Y-188973867D01*
X206276012Y-188878629D01*
X206561726Y-188878629D01*
X206740298Y-188973867D01*
X207418869Y-188878629D02*
X208180774Y-188878629D01*
X207787917Y-188211962D02*
X207573631Y-189926248D01*
X207645061Y-190116724D01*
X207823632Y-190211962D01*
X208014108Y-190211962D01*
X208680774Y-190211962D02*
X208930774Y-188211962D01*
X208835536Y-188973867D02*
X209037917Y-188878629D01*
X209418869Y-188878629D01*
X209597441Y-188973867D01*
X209680774Y-189069105D01*
X209752202Y-189259581D01*
X209680774Y-189831010D01*
X209561726Y-190021486D01*
X209454584Y-190116724D01*
X209252203Y-190211962D01*
X208871251Y-190211962D01*
X208692679Y-190116724D01*
X211264108Y-190116724D02*
X211061727Y-190211962D01*
X210680775Y-190211962D01*
X210502203Y-190116724D01*
X210430774Y-189926248D01*
X210526012Y-189164343D01*
X210645060Y-188973867D01*
X210847441Y-188878629D01*
X211228393Y-188878629D01*
X211406965Y-188973867D01*
X211478393Y-189164343D01*
X211454584Y-189354819D01*
X210478393Y-189545295D01*
X213061727Y-190211962D02*
X213192679Y-189164343D01*
X213121251Y-188973867D01*
X212942679Y-188878629D01*
X212561727Y-188878629D01*
X212359346Y-188973867D01*
X213073632Y-190116724D02*
X212871251Y-190211962D01*
X212395061Y-190211962D01*
X212216489Y-190116724D01*
X212145060Y-189926248D01*
X212168870Y-189735771D01*
X212287917Y-189545295D01*
X212490299Y-189450057D01*
X212966489Y-189450057D01*
X213168870Y-189354819D01*
X214014108Y-190211962D02*
X214180774Y-188878629D01*
X214156965Y-189069105D02*
X214264109Y-188973867D01*
X214466489Y-188878629D01*
X214752203Y-188878629D01*
X214930775Y-188973867D01*
X215002203Y-189164343D01*
X214871251Y-190211962D01*
X215002203Y-189164343D02*
X215121251Y-188973867D01*
X215323632Y-188878629D01*
X215609346Y-188878629D01*
X215787918Y-188973867D01*
X215859346Y-189164343D01*
X215728394Y-190211962D01*
X218180775Y-189640533D02*
X219133156Y-189640533D01*
X217918871Y-190211962D02*
X218835538Y-188211962D01*
X219252205Y-190211962D01*
X220776014Y-190211962D02*
X221026014Y-188211962D01*
X220787919Y-190116724D02*
X220585538Y-190211962D01*
X220204586Y-190211962D01*
X220026015Y-190116724D01*
X219942680Y-190021486D01*
X219871252Y-189831010D01*
X219942680Y-189259581D01*
X220061728Y-189069105D01*
X220168872Y-188973867D01*
X220371252Y-188878629D01*
X220752204Y-188878629D01*
X220930776Y-188973867D01*
X222585538Y-190211962D02*
X222716490Y-189164343D01*
X222645062Y-188973867D01*
X222466490Y-188878629D01*
X222085538Y-188878629D01*
X221883157Y-188973867D01*
X222597443Y-190116724D02*
X222395062Y-190211962D01*
X221918872Y-190211962D01*
X221740300Y-190116724D01*
X221668871Y-189926248D01*
X221692681Y-189735771D01*
X221811728Y-189545295D01*
X222014110Y-189450057D01*
X222490300Y-189450057D01*
X222692681Y-189354819D01*
X223704585Y-188878629D02*
X223454585Y-190878629D01*
X223692681Y-188973867D02*
X223895062Y-188878629D01*
X224276014Y-188878629D01*
X224454586Y-188973867D01*
X224537919Y-189069105D01*
X224609347Y-189259581D01*
X224537919Y-189831010D01*
X224418871Y-190021486D01*
X224311729Y-190116724D01*
X224109348Y-190211962D01*
X223728396Y-190211962D01*
X223549824Y-190116724D01*
X225228395Y-188878629D02*
X225990300Y-188878629D01*
X225597443Y-188211962D02*
X225383157Y-189926248D01*
X225454587Y-190116724D01*
X225633158Y-190211962D01*
X225823634Y-190211962D01*
X227264110Y-190116724D02*
X227061729Y-190211962D01*
X226680777Y-190211962D01*
X226502205Y-190116724D01*
X226430776Y-189926248D01*
X226526014Y-189164343D01*
X226645062Y-188973867D01*
X226847443Y-188878629D01*
X227228395Y-188878629D01*
X227406967Y-188973867D01*
X227478395Y-189164343D01*
X227454586Y-189354819D01*
X226478395Y-189545295D01*
X228204586Y-190211962D02*
X228371252Y-188878629D01*
X228323633Y-189259581D02*
X228442682Y-189069105D01*
X228549825Y-188973867D01*
X228752205Y-188878629D01*
X228942681Y-188878629D01*
D10*
X178859343Y-185600057D02*
X178359343Y-185600057D01*
X178359343Y-186385771D02*
X178359343Y-184885771D01*
X179073629Y-184885771D01*
X179645057Y-186385771D02*
X179645057Y-185385771D01*
X179645057Y-184885771D02*
X179573628Y-184957200D01*
X179645057Y-185028629D01*
X179716485Y-184957200D01*
X179645057Y-184885771D01*
X179645057Y-185028629D01*
X180573629Y-186385771D02*
X180430771Y-186314343D01*
X180359343Y-186171486D01*
X180359343Y-184885771D01*
X181716485Y-186314343D02*
X181573628Y-186385771D01*
X181287914Y-186385771D01*
X181145057Y-186314343D01*
X181073628Y-186171486D01*
X181073628Y-185600057D01*
X181145057Y-185457200D01*
X181287914Y-185385771D01*
X181573628Y-185385771D01*
X181716485Y-185457200D01*
X181787914Y-185600057D01*
X181787914Y-185742914D01*
X181073628Y-185885771D01*
X182430771Y-186242914D02*
X182502199Y-186314343D01*
X182430771Y-186385771D01*
X182359342Y-186314343D01*
X182430771Y-186242914D01*
X182430771Y-186385771D01*
X182430771Y-185457200D02*
X182502199Y-185528629D01*
X182430771Y-185600057D01*
X182359342Y-185528629D01*
X182430771Y-185457200D01*
X182430771Y-185600057D01*
X184216485Y-186314343D02*
X184359342Y-186385771D01*
X184645057Y-186385771D01*
X184787914Y-186314343D01*
X184859342Y-186171486D01*
X184859342Y-186100057D01*
X184787914Y-185957200D01*
X184645057Y-185885771D01*
X184430771Y-185885771D01*
X184287914Y-185814343D01*
X184216485Y-185671486D01*
X184216485Y-185600057D01*
X184287914Y-185457200D01*
X184430771Y-185385771D01*
X184645057Y-185385771D01*
X184787914Y-185457200D01*
X185502200Y-186385771D02*
X185502200Y-185385771D01*
X185502200Y-184885771D02*
X185430771Y-184957200D01*
X185502200Y-185028629D01*
X185573628Y-184957200D01*
X185502200Y-184885771D01*
X185502200Y-185028629D01*
X186216486Y-185385771D02*
X186216486Y-186385771D01*
X186216486Y-185528629D02*
X186287914Y-185457200D01*
X186430772Y-185385771D01*
X186645057Y-185385771D01*
X186787914Y-185457200D01*
X186859343Y-185600057D01*
X186859343Y-186385771D01*
X188216486Y-185385771D02*
X188216486Y-186600057D01*
X188145057Y-186742914D01*
X188073629Y-186814343D01*
X187930772Y-186885771D01*
X187716486Y-186885771D01*
X187573629Y-186814343D01*
X188216486Y-186314343D02*
X188073629Y-186385771D01*
X187787915Y-186385771D01*
X187645057Y-186314343D01*
X187573629Y-186242914D01*
X187502200Y-186100057D01*
X187502200Y-185671486D01*
X187573629Y-185528629D01*
X187645057Y-185457200D01*
X187787915Y-185385771D01*
X188073629Y-185385771D01*
X188216486Y-185457200D01*
X189145058Y-186385771D02*
X189002200Y-186314343D01*
X188930772Y-186171486D01*
X188930772Y-184885771D01*
X190287914Y-186314343D02*
X190145057Y-186385771D01*
X189859343Y-186385771D01*
X189716486Y-186314343D01*
X189645057Y-186171486D01*
X189645057Y-185600057D01*
X189716486Y-185457200D01*
X189859343Y-185385771D01*
X190145057Y-185385771D01*
X190287914Y-185457200D01*
X190359343Y-185600057D01*
X190359343Y-185742914D01*
X189645057Y-185885771D01*
X191002200Y-186385771D02*
X191002200Y-185385771D01*
X191002200Y-185671486D02*
X191073628Y-185528629D01*
X191145057Y-185457200D01*
X191287914Y-185385771D01*
X191430771Y-185385771D01*
X192145057Y-186385771D02*
X192002199Y-186314343D01*
X191930771Y-186242914D01*
X191859342Y-186100057D01*
X191859342Y-185671486D01*
X191930771Y-185528629D01*
X192002199Y-185457200D01*
X192145057Y-185385771D01*
X192359342Y-185385771D01*
X192502199Y-185457200D01*
X192573628Y-185528629D01*
X192645057Y-185671486D01*
X192645057Y-186100057D01*
X192573628Y-186242914D01*
X192502199Y-186314343D01*
X192359342Y-186385771D01*
X192145057Y-186385771D01*
X193930771Y-186314343D02*
X193787914Y-186385771D01*
X193502200Y-186385771D01*
X193359342Y-186314343D01*
X193287914Y-186242914D01*
X193216485Y-186100057D01*
X193216485Y-185671486D01*
X193287914Y-185528629D01*
X193359342Y-185457200D01*
X193502200Y-185385771D01*
X193787914Y-185385771D01*
X193930771Y-185457200D01*
X194573628Y-185814343D02*
X195716485Y-185814343D01*
X197073628Y-186385771D02*
X197073628Y-185600057D01*
X197002199Y-185457200D01*
X196859342Y-185385771D01*
X196573628Y-185385771D01*
X196430771Y-185457200D01*
X197073628Y-186314343D02*
X196930771Y-186385771D01*
X196573628Y-186385771D01*
X196430771Y-186314343D01*
X196359342Y-186171486D01*
X196359342Y-186028629D01*
X196430771Y-185885771D01*
X196573628Y-185814343D01*
X196930771Y-185814343D01*
X197073628Y-185742914D01*
X198430771Y-186385771D02*
X198430771Y-184885771D01*
X198430771Y-186314343D02*
X198287914Y-186385771D01*
X198002200Y-186385771D01*
X197859342Y-186314343D01*
X197787914Y-186242914D01*
X197716485Y-186100057D01*
X197716485Y-185671486D01*
X197787914Y-185528629D01*
X197859342Y-185457200D01*
X198002200Y-185385771D01*
X198287914Y-185385771D01*
X198430771Y-185457200D01*
X199787914Y-186385771D02*
X199787914Y-185600057D01*
X199716485Y-185457200D01*
X199573628Y-185385771D01*
X199287914Y-185385771D01*
X199145057Y-185457200D01*
X199787914Y-186314343D02*
X199645057Y-186385771D01*
X199287914Y-186385771D01*
X199145057Y-186314343D01*
X199073628Y-186171486D01*
X199073628Y-186028629D01*
X199145057Y-185885771D01*
X199287914Y-185814343D01*
X199645057Y-185814343D01*
X199787914Y-185742914D01*
X200502200Y-185385771D02*
X200502200Y-186885771D01*
X200502200Y-185457200D02*
X200645057Y-185385771D01*
X200930771Y-185385771D01*
X201073628Y-185457200D01*
X201145057Y-185528629D01*
X201216486Y-185671486D01*
X201216486Y-186100057D01*
X201145057Y-186242914D01*
X201073628Y-186314343D01*
X200930771Y-186385771D01*
X200645057Y-186385771D01*
X200502200Y-186314343D01*
X201645057Y-185385771D02*
X202216486Y-185385771D01*
X201859343Y-184885771D02*
X201859343Y-186171486D01*
X201930771Y-186314343D01*
X202073629Y-186385771D01*
X202216486Y-186385771D01*
X203287914Y-186314343D02*
X203145057Y-186385771D01*
X202859343Y-186385771D01*
X202716486Y-186314343D01*
X202645057Y-186171486D01*
X202645057Y-185600057D01*
X202716486Y-185457200D01*
X202859343Y-185385771D01*
X203145057Y-185385771D01*
X203287914Y-185457200D01*
X203359343Y-185600057D01*
X203359343Y-185742914D01*
X202645057Y-185885771D01*
X204002200Y-186385771D02*
X204002200Y-185385771D01*
X204002200Y-185671486D02*
X204073628Y-185528629D01*
X204145057Y-185457200D01*
X204287914Y-185385771D01*
X204430771Y-185385771D01*
X204930771Y-185814343D02*
X206073628Y-185814343D01*
X206573628Y-185385771D02*
X207145057Y-185385771D01*
X206787914Y-184885771D02*
X206787914Y-186171486D01*
X206859342Y-186314343D01*
X207002200Y-186385771D01*
X207145057Y-186385771D01*
X207645057Y-186385771D02*
X207645057Y-184885771D01*
X207645057Y-185457200D02*
X207787914Y-185385771D01*
X208073628Y-185385771D01*
X208216485Y-185457200D01*
X208287914Y-185528629D01*
X208359343Y-185671486D01*
X208359343Y-186100057D01*
X208287914Y-186242914D01*
X208216485Y-186314343D01*
X208073628Y-186385771D01*
X207787914Y-186385771D01*
X207645057Y-186314343D01*
X208930771Y-185028629D02*
X209002200Y-184957200D01*
X209145057Y-184885771D01*
X209502200Y-184885771D01*
X209645057Y-184957200D01*
X209716486Y-185028629D01*
X209787914Y-185171486D01*
X209787914Y-185314343D01*
X209716486Y-185528629D01*
X208859343Y-186385771D01*
X209787914Y-186385771D01*
X210430771Y-186242914D02*
X210502199Y-186314343D01*
X210430771Y-186385771D01*
X210359342Y-186314343D01*
X210430771Y-186242914D01*
X210430771Y-186385771D01*
X211145057Y-186385771D02*
X211145057Y-184885771D01*
X211287914Y-185814343D02*
X211716485Y-186385771D01*
X211716485Y-185385771D02*
X211145057Y-185957200D01*
X212359343Y-186385771D02*
X212359343Y-185385771D01*
X212359343Y-184885771D02*
X212287914Y-184957200D01*
X212359343Y-185028629D01*
X212430771Y-184957200D01*
X212359343Y-184885771D01*
X212359343Y-185028629D01*
X213716486Y-186314343D02*
X213573629Y-186385771D01*
X213287915Y-186385771D01*
X213145057Y-186314343D01*
X213073629Y-186242914D01*
X213002200Y-186100057D01*
X213002200Y-185671486D01*
X213073629Y-185528629D01*
X213145057Y-185457200D01*
X213287915Y-185385771D01*
X213573629Y-185385771D01*
X213716486Y-185457200D01*
X215002200Y-186385771D02*
X215002200Y-185600057D01*
X214930771Y-185457200D01*
X214787914Y-185385771D01*
X214502200Y-185385771D01*
X214359343Y-185457200D01*
X215002200Y-186314343D02*
X214859343Y-186385771D01*
X214502200Y-186385771D01*
X214359343Y-186314343D01*
X214287914Y-186171486D01*
X214287914Y-186028629D01*
X214359343Y-185885771D01*
X214502200Y-185814343D01*
X214859343Y-185814343D01*
X215002200Y-185742914D01*
X216359343Y-186385771D02*
X216359343Y-184885771D01*
X216359343Y-186314343D02*
X216216486Y-186385771D01*
X215930772Y-186385771D01*
X215787914Y-186314343D01*
X215716486Y-186242914D01*
X215645057Y-186100057D01*
X215645057Y-185671486D01*
X215716486Y-185528629D01*
X215787914Y-185457200D01*
X215930772Y-185385771D01*
X216216486Y-185385771D01*
X216359343Y-185457200D01*
X216716486Y-186528629D02*
X217859343Y-186528629D01*
X218216486Y-185385771D02*
X218216486Y-186885771D01*
X218216486Y-185457200D02*
X218359343Y-185385771D01*
X218645057Y-185385771D01*
X218787914Y-185457200D01*
X218859343Y-185528629D01*
X218930772Y-185671486D01*
X218930772Y-186100057D01*
X218859343Y-186242914D01*
X218787914Y-186314343D01*
X218645057Y-186385771D01*
X218359343Y-186385771D01*
X218216486Y-186314343D01*
X220216486Y-186314343D02*
X220073629Y-186385771D01*
X219787915Y-186385771D01*
X219645057Y-186314343D01*
X219573629Y-186242914D01*
X219502200Y-186100057D01*
X219502200Y-185671486D01*
X219573629Y-185528629D01*
X219645057Y-185457200D01*
X219787915Y-185385771D01*
X220073629Y-185385771D01*
X220216486Y-185457200D01*
X220859343Y-186385771D02*
X220859343Y-184885771D01*
X220859343Y-185457200D02*
X221002200Y-185385771D01*
X221287914Y-185385771D01*
X221430771Y-185457200D01*
X221502200Y-185528629D01*
X221573629Y-185671486D01*
X221573629Y-186100057D01*
X221502200Y-186242914D01*
X221430771Y-186314343D01*
X221287914Y-186385771D01*
X221002200Y-186385771D01*
X220859343Y-186314343D01*
X177002200Y-181507200D02*
X285002200Y-181507200D01*
X178287914Y-183614343D02*
X178502200Y-183685771D01*
X178859343Y-183685771D01*
X179002200Y-183614343D01*
X179073629Y-183542914D01*
X179145057Y-183400057D01*
X179145057Y-183257200D01*
X179073629Y-183114343D01*
X179002200Y-183042914D01*
X178859343Y-182971486D01*
X178573629Y-182900057D01*
X178430771Y-182828629D01*
X178359343Y-182757200D01*
X178287914Y-182614343D01*
X178287914Y-182471486D01*
X178359343Y-182328629D01*
X178430771Y-182257200D01*
X178573629Y-182185771D01*
X178930771Y-182185771D01*
X179145057Y-182257200D01*
X179787914Y-183685771D02*
X179787914Y-182185771D01*
X180430771Y-183685771D02*
X180430771Y-182900057D01*
X180359342Y-182757200D01*
X180216485Y-182685771D01*
X180002200Y-182685771D01*
X179859342Y-182757200D01*
X179787914Y-182828629D01*
X181716485Y-183614343D02*
X181573628Y-183685771D01*
X181287914Y-183685771D01*
X181145057Y-183614343D01*
X181073628Y-183471486D01*
X181073628Y-182900057D01*
X181145057Y-182757200D01*
X181287914Y-182685771D01*
X181573628Y-182685771D01*
X181716485Y-182757200D01*
X181787914Y-182900057D01*
X181787914Y-183042914D01*
X181073628Y-183185771D01*
X183002199Y-183614343D02*
X182859342Y-183685771D01*
X182573628Y-183685771D01*
X182430771Y-183614343D01*
X182359342Y-183471486D01*
X182359342Y-182900057D01*
X182430771Y-182757200D01*
X182573628Y-182685771D01*
X182859342Y-182685771D01*
X183002199Y-182757200D01*
X183073628Y-182900057D01*
X183073628Y-183042914D01*
X182359342Y-183185771D01*
X183502199Y-182685771D02*
X184073628Y-182685771D01*
X183716485Y-182185771D02*
X183716485Y-183471486D01*
X183787913Y-183614343D01*
X183930771Y-183685771D01*
X184073628Y-183685771D01*
X184573628Y-183542914D02*
X184645056Y-183614343D01*
X184573628Y-183685771D01*
X184502199Y-183614343D01*
X184573628Y-183542914D01*
X184573628Y-183685771D01*
X184573628Y-182757200D02*
X184645056Y-182828629D01*
X184573628Y-182900057D01*
X184502199Y-182828629D01*
X184573628Y-182757200D01*
X184573628Y-182900057D01*
D11*
X178359343Y-180685771D02*
X178359343Y-179185771D01*
X178716486Y-179185771D01*
X178930771Y-179257200D01*
X179073629Y-179400057D01*
X179145057Y-179542914D01*
X179216486Y-179828629D01*
X179216486Y-180042914D01*
X179145057Y-180328629D01*
X179073629Y-180471486D01*
X178930771Y-180614343D01*
X178716486Y-180685771D01*
X178359343Y-180685771D01*
X179859343Y-179900057D02*
X180359343Y-179900057D01*
X180573629Y-180685771D02*
X179859343Y-180685771D01*
X179859343Y-179185771D01*
X180573629Y-179185771D01*
X181145057Y-180614343D02*
X181359343Y-180685771D01*
X181716486Y-180685771D01*
X181859343Y-180614343D01*
X181930772Y-180542914D01*
X182002200Y-180400057D01*
X182002200Y-180257200D01*
X181930772Y-180114343D01*
X181859343Y-180042914D01*
X181716486Y-179971486D01*
X181430772Y-179900057D01*
X181287914Y-179828629D01*
X181216486Y-179757200D01*
X181145057Y-179614343D01*
X181145057Y-179471486D01*
X181216486Y-179328629D01*
X181287914Y-179257200D01*
X181430772Y-179185771D01*
X181787914Y-179185771D01*
X182002200Y-179257200D01*
X182930771Y-179971486D02*
X182930771Y-180685771D01*
X182430771Y-179185771D02*
X182930771Y-179971486D01*
X183430771Y-179185771D01*
D10*
X197002200Y-191507200D02*
X197002200Y-194507200D01*
X261002200Y-191507200D02*
X261002200Y-198007200D01*
D13*
X131723810Y-53104762D02*
X131723810Y-51104762D01*
X131247619Y-51104762D01*
X130961905Y-51200000D01*
X130771429Y-51390476D01*
X130676190Y-51580952D01*
X130580952Y-51961905D01*
X130580952Y-52247619D01*
X130676190Y-52628571D01*
X130771429Y-52819048D01*
X130961905Y-53009524D01*
X131247619Y-53104762D01*
X131723810Y-53104762D01*
X129723810Y-52057143D02*
X129057143Y-52057143D01*
X128771429Y-53104762D02*
X129723810Y-53104762D01*
X129723810Y-51104762D01*
X128771429Y-51104762D01*
X128009524Y-53009524D02*
X127723809Y-53104762D01*
X127247619Y-53104762D01*
X127057143Y-53009524D01*
X126961905Y-52914286D01*
X126866666Y-52723810D01*
X126866666Y-52533333D01*
X126961905Y-52342857D01*
X127057143Y-52247619D01*
X127247619Y-52152381D01*
X127628571Y-52057143D01*
X127819047Y-51961905D01*
X127914286Y-51866667D01*
X128009524Y-51676190D01*
X128009524Y-51485714D01*
X127914286Y-51295238D01*
X127819047Y-51200000D01*
X127628571Y-51104762D01*
X127152381Y-51104762D01*
X126866666Y-51200000D01*
X125628571Y-52152381D02*
X125628571Y-53104762D01*
X126295238Y-51104762D02*
X125628571Y-52152381D01*
X124961904Y-51104762D01*
X122104761Y-52057143D02*
X122771428Y-52057143D01*
X122771428Y-53104762D02*
X122771428Y-51104762D01*
X121819047Y-51104762D01*
X121057142Y-53104762D02*
X121057142Y-51104762D01*
X121057142Y-52057143D02*
X119914284Y-52057143D01*
X119914284Y-53104762D02*
X119914284Y-51104762D01*
X118961904Y-52342857D02*
X117438094Y-52342857D01*
X115342856Y-52914286D02*
X115438094Y-53009524D01*
X115723809Y-53104762D01*
X115914285Y-53104762D01*
X116199999Y-53009524D01*
X116390475Y-52819048D01*
X116485714Y-52628571D01*
X116580952Y-52247619D01*
X116580952Y-51961905D01*
X116485714Y-51580952D01*
X116390475Y-51390476D01*
X116199999Y-51200000D01*
X115914285Y-51104762D01*
X115723809Y-51104762D01*
X115438094Y-51200000D01*
X115342856Y-51295238D01*
X114485714Y-53104762D02*
X114485714Y-51104762D01*
X113819047Y-52533333D01*
X113152380Y-51104762D01*
X113152380Y-53104762D01*
X112295238Y-53009524D02*
X112009523Y-53104762D01*
X111533333Y-53104762D01*
X111342857Y-53009524D01*
X111247619Y-52914286D01*
X111152380Y-52723810D01*
X111152380Y-52533333D01*
X111247619Y-52342857D01*
X111342857Y-52247619D01*
X111533333Y-52152381D01*
X111914285Y-52057143D01*
X112104761Y-51961905D01*
X112200000Y-51866667D01*
X112295238Y-51676190D01*
X112295238Y-51485714D01*
X112200000Y-51295238D01*
X112104761Y-51200000D01*
X111914285Y-51104762D01*
X111438095Y-51104762D01*
X111152380Y-51200000D01*
X130676190Y-56154762D02*
X131819048Y-56154762D01*
X131247619Y-56154762D02*
X131247619Y-54154762D01*
X131438095Y-54440476D01*
X131628571Y-54630952D01*
X131819048Y-54726190D01*
X129438095Y-54154762D02*
X129247619Y-54154762D01*
X129057143Y-54250000D01*
X128961905Y-54345238D01*
X128866667Y-54535714D01*
X128771428Y-54916667D01*
X128771428Y-55392857D01*
X128866667Y-55773810D01*
X128961905Y-55964286D01*
X129057143Y-56059524D01*
X129247619Y-56154762D01*
X129438095Y-56154762D01*
X129628571Y-56059524D01*
X129723809Y-55964286D01*
X129819048Y-55773810D01*
X129914286Y-55392857D01*
X129914286Y-54916667D01*
X129819048Y-54535714D01*
X129723809Y-54345238D01*
X129628571Y-54250000D01*
X129438095Y-54154762D01*
X128104762Y-54154762D02*
X126771428Y-54154762D01*
X127628571Y-56154762D01*
X125152381Y-54154762D02*
X125533333Y-54154762D01*
X125723809Y-54250000D01*
X125819047Y-54345238D01*
X126009524Y-54630952D01*
X126104762Y-55011905D01*
X126104762Y-55773810D01*
X126009524Y-55964286D01*
X125914285Y-56059524D01*
X125723809Y-56154762D01*
X125342857Y-56154762D01*
X125152381Y-56059524D01*
X125057143Y-55964286D01*
X124961904Y-55773810D01*
X124961904Y-55297619D01*
X125057143Y-55107143D01*
X125152381Y-55011905D01*
X125342857Y-54916667D01*
X125723809Y-54916667D01*
X125914285Y-55011905D01*
X126009524Y-55107143D01*
X126104762Y-55297619D01*
X123247619Y-54154762D02*
X123628571Y-54154762D01*
X123819047Y-54250000D01*
X123914285Y-54345238D01*
X124104762Y-54630952D01*
X124200000Y-55011905D01*
X124200000Y-55773810D01*
X124104762Y-55964286D01*
X124009523Y-56059524D01*
X123819047Y-56154762D01*
X123438095Y-56154762D01*
X123247619Y-56059524D01*
X123152381Y-55964286D01*
X123057142Y-55773810D01*
X123057142Y-55297619D01*
X123152381Y-55107143D01*
X123247619Y-55011905D01*
X123438095Y-54916667D01*
X123819047Y-54916667D01*
X124009523Y-55011905D01*
X124104762Y-55107143D01*
X124200000Y-55297619D01*
X122200000Y-55392857D02*
X120676190Y-55392857D01*
X119342857Y-54154762D02*
X119152381Y-54154762D01*
X118961905Y-54250000D01*
X118866667Y-54345238D01*
X118771429Y-54535714D01*
X118676190Y-54916667D01*
X118676190Y-55392857D01*
X118771429Y-55773810D01*
X118866667Y-55964286D01*
X118961905Y-56059524D01*
X119152381Y-56154762D01*
X119342857Y-56154762D01*
X119533333Y-56059524D01*
X119628571Y-55964286D01*
X119723810Y-55773810D01*
X119819048Y-55392857D01*
X119819048Y-54916667D01*
X119723810Y-54535714D01*
X119628571Y-54345238D01*
X119533333Y-54250000D01*
X119342857Y-54154762D01*
X116771428Y-56154762D02*
X117914286Y-56154762D01*
X117342857Y-56154762D02*
X117342857Y-54154762D01*
X117533333Y-54440476D01*
X117723809Y-54630952D01*
X117914286Y-54726190D01*
X115914286Y-55392857D02*
X114390476Y-55392857D01*
X112485715Y-56154762D02*
X113438096Y-56154762D01*
X113438096Y-54154762D01*
X111914286Y-56059524D02*
X111628571Y-56154762D01*
X111152381Y-56154762D01*
X110961905Y-56059524D01*
X110866667Y-55964286D01*
X110771428Y-55773810D01*
X110771428Y-55583333D01*
X110866667Y-55392857D01*
X110961905Y-55297619D01*
X111152381Y-55202381D01*
X111533333Y-55107143D01*
X111723809Y-55011905D01*
X111819048Y-54916667D01*
X111914286Y-54726190D01*
X111914286Y-54535714D01*
X111819048Y-54345238D01*
X111723809Y-54250000D01*
X111533333Y-54154762D01*
X111057143Y-54154762D01*
X110771428Y-54250000D01*
X109914286Y-56154762D02*
X109914286Y-54154762D01*
X109247619Y-55583333D01*
X108580952Y-54154762D01*
X108580952Y-56154762D01*
X107723810Y-54345238D02*
X107628572Y-54250000D01*
X107438095Y-54154762D01*
X106961905Y-54154762D01*
X106771429Y-54250000D01*
X106676191Y-54345238D01*
X106580952Y-54535714D01*
X106580952Y-54726190D01*
X106676191Y-55011905D01*
X107819048Y-56154762D01*
X106580952Y-56154762D01*
X131819048Y-59109524D02*
X131533333Y-59204762D01*
X131057143Y-59204762D01*
X130866667Y-59109524D01*
X130771429Y-59014286D01*
X130676190Y-58823810D01*
X130676190Y-58633333D01*
X130771429Y-58442857D01*
X130866667Y-58347619D01*
X131057143Y-58252381D01*
X131438095Y-58157143D01*
X131628571Y-58061905D01*
X131723810Y-57966667D01*
X131819048Y-57776190D01*
X131819048Y-57585714D01*
X131723810Y-57395238D01*
X131628571Y-57300000D01*
X131438095Y-57204762D01*
X130961905Y-57204762D01*
X130676190Y-57300000D01*
X129533333Y-59204762D02*
X129723809Y-59109524D01*
X129819048Y-59014286D01*
X129914286Y-58823810D01*
X129914286Y-58252381D01*
X129819048Y-58061905D01*
X129723809Y-57966667D01*
X129533333Y-57871429D01*
X129247619Y-57871429D01*
X129057143Y-57966667D01*
X128961905Y-58061905D01*
X128866667Y-58252381D01*
X128866667Y-58823810D01*
X128961905Y-59014286D01*
X129057143Y-59109524D01*
X129247619Y-59204762D01*
X129533333Y-59204762D01*
X127723809Y-59204762D02*
X127914285Y-59109524D01*
X128009524Y-58919048D01*
X128009524Y-57204762D01*
X126104762Y-59204762D02*
X126104762Y-57204762D01*
X126104762Y-59109524D02*
X126295238Y-59204762D01*
X126676190Y-59204762D01*
X126866666Y-59109524D01*
X126961905Y-59014286D01*
X127057143Y-58823810D01*
X127057143Y-58252381D01*
X126961905Y-58061905D01*
X126866666Y-57966667D01*
X126676190Y-57871429D01*
X126295238Y-57871429D01*
X126104762Y-57966667D01*
X124390476Y-59109524D02*
X124580952Y-59204762D01*
X124961904Y-59204762D01*
X125152381Y-59109524D01*
X125247619Y-58919048D01*
X125247619Y-58157143D01*
X125152381Y-57966667D01*
X124961904Y-57871429D01*
X124580952Y-57871429D01*
X124390476Y-57966667D01*
X124295238Y-58157143D01*
X124295238Y-58347619D01*
X125247619Y-58538095D01*
X123438095Y-59204762D02*
X123438095Y-57871429D01*
X123438095Y-58252381D02*
X123342856Y-58061905D01*
X123247618Y-57966667D01*
X123057142Y-57871429D01*
X122866666Y-57871429D01*
X119533332Y-59204762D02*
X120199999Y-58252381D01*
X120676190Y-59204762D02*
X120676190Y-57204762D01*
X119914285Y-57204762D01*
X119723809Y-57300000D01*
X119628570Y-57395238D01*
X119533332Y-57585714D01*
X119533332Y-57871429D01*
X119628570Y-58061905D01*
X119723809Y-58157143D01*
X119914285Y-58252381D01*
X120676190Y-58252381D01*
X117914285Y-59109524D02*
X118104761Y-59204762D01*
X118485713Y-59204762D01*
X118676190Y-59109524D01*
X118771428Y-58919048D01*
X118771428Y-58157143D01*
X118676190Y-57966667D01*
X118485713Y-57871429D01*
X118104761Y-57871429D01*
X117914285Y-57966667D01*
X117819047Y-58157143D01*
X117819047Y-58347619D01*
X118771428Y-58538095D01*
X117057142Y-59109524D02*
X116866665Y-59204762D01*
X116485713Y-59204762D01*
X116295237Y-59109524D01*
X116199999Y-58919048D01*
X116199999Y-58823810D01*
X116295237Y-58633333D01*
X116485713Y-58538095D01*
X116771427Y-58538095D01*
X116961904Y-58442857D01*
X117057142Y-58252381D01*
X117057142Y-58157143D01*
X116961904Y-57966667D01*
X116771427Y-57871429D01*
X116485713Y-57871429D01*
X116295237Y-57966667D01*
X115342856Y-59204762D02*
X115342856Y-57871429D01*
X115342856Y-57204762D02*
X115438094Y-57300000D01*
X115342856Y-57395238D01*
X115247617Y-57300000D01*
X115342856Y-57204762D01*
X115342856Y-57395238D01*
X114485713Y-59109524D02*
X114295236Y-59204762D01*
X113914284Y-59204762D01*
X113723808Y-59109524D01*
X113628570Y-58919048D01*
X113628570Y-58823810D01*
X113723808Y-58633333D01*
X113914284Y-58538095D01*
X114199998Y-58538095D01*
X114390475Y-58442857D01*
X114485713Y-58252381D01*
X114485713Y-58157143D01*
X114390475Y-57966667D01*
X114199998Y-57871429D01*
X113914284Y-57871429D01*
X113723808Y-57966667D01*
X113057141Y-57871429D02*
X112295236Y-57871429D01*
X112771427Y-57204762D02*
X112771427Y-58919048D01*
X112676188Y-59109524D01*
X112485712Y-59204762D01*
X112295236Y-59204762D01*
X109438093Y-58157143D02*
X109152379Y-58252381D01*
X109057140Y-58347619D01*
X108961902Y-58538095D01*
X108961902Y-58823810D01*
X109057140Y-59014286D01*
X109152379Y-59109524D01*
X109342855Y-59204762D01*
X110104760Y-59204762D01*
X110104760Y-57204762D01*
X109438093Y-57204762D01*
X109247617Y-57300000D01*
X109152379Y-57395238D01*
X109057140Y-57585714D01*
X109057140Y-57776190D01*
X109152379Y-57966667D01*
X109247617Y-58061905D01*
X109438093Y-58157143D01*
X110104760Y-58157143D01*
X107819045Y-59204762D02*
X108009521Y-59109524D01*
X108104760Y-59014286D01*
X108199998Y-58823810D01*
X108199998Y-58252381D01*
X108104760Y-58061905D01*
X108009521Y-57966667D01*
X107819045Y-57871429D01*
X107533331Y-57871429D01*
X107342855Y-57966667D01*
X107247617Y-58061905D01*
X107152379Y-58252381D01*
X107152379Y-58823810D01*
X107247617Y-59014286D01*
X107342855Y-59109524D01*
X107533331Y-59204762D01*
X107819045Y-59204762D01*
X106580950Y-57871429D02*
X105819045Y-57871429D01*
X106295236Y-57204762D02*
X106295236Y-58919048D01*
X106199997Y-59109524D01*
X106009521Y-59204762D01*
X105819045Y-59204762D01*
X105438093Y-57871429D02*
X104676188Y-57871429D01*
X105152379Y-57204762D02*
X105152379Y-58919048D01*
X105057140Y-59109524D01*
X104866664Y-59204762D01*
X104676188Y-59204762D01*
X103723807Y-59204762D02*
X103914283Y-59109524D01*
X104009522Y-59014286D01*
X104104760Y-58823810D01*
X104104760Y-58252381D01*
X104009522Y-58061905D01*
X103914283Y-57966667D01*
X103723807Y-57871429D01*
X103438093Y-57871429D01*
X103247617Y-57966667D01*
X103152379Y-58061905D01*
X103057141Y-58252381D01*
X103057141Y-58823810D01*
X103152379Y-59014286D01*
X103247617Y-59109524D01*
X103438093Y-59204762D01*
X103723807Y-59204762D01*
X102199998Y-59204762D02*
X102199998Y-57871429D01*
X102199998Y-58061905D02*
X102104759Y-57966667D01*
X101914283Y-57871429D01*
X101628569Y-57871429D01*
X101438093Y-57966667D01*
X101342855Y-58157143D01*
X101342855Y-59204762D01*
X101342855Y-58157143D02*
X101247617Y-57966667D01*
X101057140Y-57871429D01*
X100771426Y-57871429D01*
X100580950Y-57966667D01*
X100485712Y-58157143D01*
X100485712Y-59204762D01*
D10*
G36*
X88926031Y-94241500D02*
X88925500Y-94241500D01*
X88150500Y-94241500D01*
X88149968Y-94241500D01*
X88149968Y-92958500D01*
X88150500Y-92958500D01*
X88925500Y-92958500D01*
X88926031Y-92958500D01*
X88926031Y-94241500D01*
X88926031Y-94241500D01*
G37*
G36*
X88926031Y-96041500D02*
X88925500Y-96041500D01*
X88150500Y-96041500D01*
X88149968Y-96041500D01*
X88149968Y-94758500D01*
X88150500Y-94758500D01*
X88925500Y-94758500D01*
X88926031Y-94758500D01*
X88926031Y-96041500D01*
X88926031Y-96041500D01*
G37*
G36*
X88926031Y-97841500D02*
X88925500Y-97841500D01*
X88150500Y-97841500D01*
X88149968Y-97841500D01*
X88149968Y-96558500D01*
X88150500Y-96558500D01*
X88925500Y-96558500D01*
X88926031Y-96558500D01*
X88926031Y-97841500D01*
X88926031Y-97841500D01*
G37*
G36*
X90450031Y-94241500D02*
X90449500Y-94241500D01*
X89674500Y-94241500D01*
X89673968Y-94241500D01*
X89673968Y-92958500D01*
X89674500Y-92958500D01*
X90449500Y-92958500D01*
X90450031Y-92958500D01*
X90450031Y-94241500D01*
X90450031Y-94241500D01*
G37*
G36*
X90450031Y-96041500D02*
X90449500Y-96041500D01*
X89674500Y-96041500D01*
X89673968Y-96041500D01*
X89673968Y-94758500D01*
X89674500Y-94758500D01*
X90449500Y-94758500D01*
X90450031Y-94758500D01*
X90450031Y-96041500D01*
X90450031Y-96041500D01*
G37*
G36*
X90450031Y-97841500D02*
X90449500Y-97841500D01*
X89674500Y-97841500D01*
X89673968Y-97841500D01*
X89673968Y-96558500D01*
X89674500Y-96558500D01*
X90449500Y-96558500D01*
X90450031Y-96558500D01*
X90450031Y-97841500D01*
X90450031Y-97841500D01*
G37*
G36*
X91750441Y-113252898D02*
X91745580Y-113601055D01*
X91676812Y-113903734D01*
X91551981Y-114184112D01*
X91374565Y-114435614D01*
X91150420Y-114649065D01*
X90892746Y-114812589D01*
X90601734Y-114925466D01*
X90601732Y-114925466D01*
X90303725Y-114978012D01*
X89991665Y-114971475D01*
X89693598Y-114905942D01*
X89409964Y-114782025D01*
X89157231Y-114606371D01*
X88944031Y-114385596D01*
X88775890Y-114124691D01*
X88663862Y-113841743D01*
X88607515Y-113534734D01*
X88611753Y-113231304D01*
X88676468Y-112926838D01*
X88797032Y-112645543D01*
X88971408Y-112390874D01*
X89191932Y-112174921D01*
X89448020Y-112007341D01*
X89736619Y-111890740D01*
X90034702Y-111833878D01*
X90346833Y-111836056D01*
X90644937Y-111897249D01*
X90931076Y-112017530D01*
X91185518Y-112189153D01*
X91402392Y-112407547D01*
X91573677Y-112665351D01*
X91689971Y-112947503D01*
X91750441Y-113252898D01*
X91750441Y-113252898D01*
G37*
G36*
X92185261Y-87110540D02*
X92184730Y-87110540D01*
X90015270Y-87110540D01*
X90014738Y-87110540D01*
X90014738Y-84318780D01*
X90015270Y-84318780D01*
X92184730Y-84318780D01*
X92185261Y-84318780D01*
X92185261Y-87110540D01*
X92185261Y-87110540D01*
G37*
G36*
X92185261Y-91281220D02*
X92184730Y-91281220D01*
X90015270Y-91281220D01*
X90014738Y-91281220D01*
X90014738Y-88489460D01*
X90015270Y-88489460D01*
X92184730Y-88489460D01*
X92185261Y-88489460D01*
X92185261Y-91281220D01*
X92185261Y-91281220D01*
G37*
G36*
X92186522Y-79530566D02*
X92186422Y-79544998D01*
X92185899Y-79549657D01*
X92185894Y-79550418D01*
X92162268Y-79761047D01*
X92162143Y-79761439D01*
X92162034Y-79762415D01*
X92098776Y-79961830D01*
X92098303Y-79962688D01*
X92098181Y-79963076D01*
X91996073Y-80148809D01*
X91995813Y-80149118D01*
X91994641Y-80151251D01*
X91994640Y-80151251D01*
X91861824Y-80309536D01*
X91859926Y-80311061D01*
X91859834Y-80311172D01*
X91694654Y-80443981D01*
X91694522Y-80444049D01*
X91693363Y-80444982D01*
X91507963Y-80541907D01*
X91303103Y-80602200D01*
X91092173Y-80621397D01*
X90882395Y-80599348D01*
X90677565Y-80535943D01*
X90494294Y-80436848D01*
X90492879Y-80435677D01*
X90492717Y-80435590D01*
X90329406Y-80300488D01*
X90329289Y-80300344D01*
X90327741Y-80299064D01*
X90196605Y-80138275D01*
X90195660Y-80136498D01*
X90195448Y-80136238D01*
X90095943Y-79949097D01*
X90095846Y-79948775D01*
X90095534Y-79948189D01*
X90034817Y-79747083D01*
X90034752Y-79746423D01*
X90034683Y-79746194D01*
X90014000Y-79535255D01*
X90014000Y-79534776D01*
X90013476Y-79529432D01*
X90013577Y-79515001D01*
X90014100Y-79510331D01*
X90014106Y-79509582D01*
X90037732Y-79298953D01*
X90037854Y-79298565D01*
X90037965Y-79297584D01*
X90101223Y-79098166D01*
X90101700Y-79097297D01*
X90101819Y-79096924D01*
X90203927Y-78911191D01*
X90204177Y-78910892D01*
X90205356Y-78908749D01*
X90205358Y-78908747D01*
X90338174Y-78750463D01*
X90340079Y-78748930D01*
X90340166Y-78748828D01*
X90505346Y-78616019D01*
X90505464Y-78615956D01*
X90506635Y-78615016D01*
X90692036Y-78518092D01*
X90896890Y-78457799D01*
X91107826Y-78438603D01*
X91317608Y-78460652D01*
X91522434Y-78524056D01*
X91705704Y-78623150D01*
X91707121Y-78624322D01*
X91707283Y-78624410D01*
X91870594Y-78759512D01*
X91870710Y-78759655D01*
X91872259Y-78760936D01*
X92003394Y-78921723D01*
X92004339Y-78923501D01*
X92004552Y-78923762D01*
X92104057Y-79110903D01*
X92104155Y-79111227D01*
X92104463Y-79111807D01*
X92165182Y-79312916D01*
X92165246Y-79313571D01*
X92165317Y-79313806D01*
X92186000Y-79524745D01*
X92186000Y-79525242D01*
X92186522Y-79530566D01*
X92186522Y-79530566D01*
G37*
G36*
X92186531Y-83156000D02*
X92186000Y-83156000D01*
X90014000Y-83156000D01*
X90013468Y-83156000D01*
X90013468Y-80984000D01*
X90014000Y-80984000D01*
X92186000Y-80984000D01*
X92186531Y-80984000D01*
X92186531Y-83156000D01*
X92186531Y-83156000D01*
G37*
G36*
X93102464Y-73295732D02*
X93095939Y-73763055D01*
X93004056Y-74167472D01*
X92836790Y-74543160D01*
X92599235Y-74879915D01*
X92299537Y-75165315D01*
X91953773Y-75384742D01*
X91565491Y-75535348D01*
X91565489Y-75535348D01*
X91164737Y-75606010D01*
X90748369Y-75597289D01*
X90348405Y-75509352D01*
X89969166Y-75343666D01*
X89630763Y-75108470D01*
X89345089Y-74812645D01*
X89120431Y-74464044D01*
X88969996Y-74084091D01*
X88894816Y-73674466D01*
X88900510Y-73266715D01*
X88986918Y-72860199D01*
X89148582Y-72483010D01*
X89381900Y-72142256D01*
X89676966Y-71853307D01*
X90020354Y-71628600D01*
X90405687Y-71472916D01*
X90806252Y-71396504D01*
X91222711Y-71399410D01*
X91623015Y-71481582D01*
X92005332Y-71642292D01*
X92346268Y-71872257D01*
X92636657Y-72164681D01*
X92865678Y-72509384D01*
X93021729Y-72887994D01*
X93102464Y-73295732D01*
X93102464Y-73295732D01*
G37*
G36*
X93102464Y-103795732D02*
X93095939Y-104263055D01*
X93004056Y-104667472D01*
X92836790Y-105043160D01*
X92599235Y-105379915D01*
X92299537Y-105665315D01*
X91953773Y-105884742D01*
X91565491Y-106035348D01*
X91565489Y-106035348D01*
X91164737Y-106106010D01*
X90748369Y-106097289D01*
X90348405Y-106009352D01*
X89969166Y-105843666D01*
X89630763Y-105608470D01*
X89345089Y-105312645D01*
X89120431Y-104964044D01*
X88969996Y-104584091D01*
X88894816Y-104174466D01*
X88900510Y-103766715D01*
X88986918Y-103360199D01*
X89148582Y-102983010D01*
X89381900Y-102642256D01*
X89676966Y-102353307D01*
X90020354Y-102128600D01*
X90405687Y-101972916D01*
X90806252Y-101896504D01*
X91222711Y-101899410D01*
X91623015Y-101981582D01*
X92005332Y-102142292D01*
X92346268Y-102372257D01*
X92636657Y-102664681D01*
X92865678Y-103009384D01*
X93021729Y-103387994D01*
X93102464Y-103795732D01*
X93102464Y-103795732D01*
G37*
G36*
X93226031Y-97841500D02*
X93225500Y-97841500D01*
X92450500Y-97841500D01*
X92449968Y-97841500D01*
X92449968Y-96558500D01*
X92450500Y-96558500D01*
X93225500Y-96558500D01*
X93226031Y-96558500D01*
X93226031Y-97841500D01*
X93226031Y-97841500D01*
G37*
G36*
X93226031Y-99641500D02*
X93225500Y-99641500D01*
X92450500Y-99641500D01*
X92449968Y-99641500D01*
X92449968Y-98358500D01*
X92450500Y-98358500D01*
X93225500Y-98358500D01*
X93226031Y-98358500D01*
X93226031Y-99641500D01*
X93226031Y-99641500D01*
G37*
G36*
X93342031Y-94125500D02*
X93341500Y-94125500D01*
X92058500Y-94125500D01*
X92057968Y-94125500D01*
X92057968Y-93350500D01*
X92058500Y-93350500D01*
X93341500Y-93350500D01*
X93342031Y-93350500D01*
X93342031Y-94125500D01*
X93342031Y-94125500D01*
G37*
G36*
X93342031Y-95649500D02*
X93341500Y-95649500D01*
X92058500Y-95649500D01*
X92057968Y-95649500D01*
X92057968Y-94874500D01*
X92058500Y-94874500D01*
X93341500Y-94874500D01*
X93342031Y-94874500D01*
X93342031Y-95649500D01*
X93342031Y-95649500D01*
G37*
G36*
X93700438Y-110304762D02*
X93695796Y-110637239D01*
X93630069Y-110926532D01*
X93510821Y-111194368D01*
X93341319Y-111434653D01*
X93127115Y-111638637D01*
X92881032Y-111794805D01*
X92602818Y-111902718D01*
X92602816Y-111902718D01*
X92318329Y-111952880D01*
X92019994Y-111946631D01*
X91735334Y-111884045D01*
X91464279Y-111765625D01*
X91222819Y-111597805D01*
X91019155Y-111386905D01*
X90858450Y-111137539D01*
X90751476Y-110867355D01*
X90697608Y-110573848D01*
X90701654Y-110284144D01*
X90763515Y-109993107D01*
X90878671Y-109724429D01*
X91045290Y-109481087D01*
X91256006Y-109274739D01*
X91500608Y-109114676D01*
X91776479Y-109003217D01*
X92061077Y-108948927D01*
X92359481Y-108951010D01*
X92644137Y-109009442D01*
X92917621Y-109124403D01*
X93160682Y-109288351D01*
X93367883Y-109497004D01*
X93531571Y-109743373D01*
X93642634Y-110012834D01*
X93700438Y-110304762D01*
X93700438Y-110304762D01*
G37*
G36*
X94750031Y-97841500D02*
X94749500Y-97841500D01*
X93974500Y-97841500D01*
X93973968Y-97841500D01*
X93973968Y-96558500D01*
X93974500Y-96558500D01*
X94749500Y-96558500D01*
X94750031Y-96558500D01*
X94750031Y-97841500D01*
X94750031Y-97841500D01*
G37*
G36*
X94750031Y-99641500D02*
X94749500Y-99641500D01*
X93974500Y-99641500D01*
X93973968Y-99641500D01*
X93973968Y-98358500D01*
X93974500Y-98358500D01*
X94749500Y-98358500D01*
X94750031Y-98358500D01*
X94750031Y-99641500D01*
X94750031Y-99641500D01*
G37*
G36*
X95142031Y-94125500D02*
X95141500Y-94125500D01*
X93858500Y-94125500D01*
X93857968Y-94125500D01*
X93857968Y-93350500D01*
X93858500Y-93350500D01*
X95141500Y-93350500D01*
X95142031Y-93350500D01*
X95142031Y-94125500D01*
X95142031Y-94125500D01*
G37*
G36*
X95142031Y-95649500D02*
X95141500Y-95649500D01*
X93858500Y-95649500D01*
X93857968Y-95649500D01*
X93857968Y-94874500D01*
X93858500Y-94874500D01*
X95141500Y-94874500D01*
X95142031Y-94874500D01*
X95142031Y-95649500D01*
X95142031Y-95649500D01*
G37*
G36*
X98219544Y-69930761D02*
X98217341Y-70088577D01*
X98185493Y-70228750D01*
X98128443Y-70356889D01*
X98047088Y-70472216D01*
X97943624Y-70570745D01*
X97826654Y-70644975D01*
X97691011Y-70697588D01*
X97691009Y-70697588D01*
X97557117Y-70721196D01*
X97411667Y-70718150D01*
X97276359Y-70688401D01*
X97145433Y-70631201D01*
X97029543Y-70550655D01*
X96932105Y-70449755D01*
X96854237Y-70328928D01*
X96803556Y-70200924D01*
X96777293Y-70057824D01*
X96779203Y-69921024D01*
X96809271Y-69779563D01*
X96864186Y-69651439D01*
X96944411Y-69534272D01*
X97045871Y-69434916D01*
X97162515Y-69358585D01*
X97296603Y-69304411D01*
X97430990Y-69278775D01*
X97576479Y-69279790D01*
X97711340Y-69307474D01*
X97843853Y-69363177D01*
X97960139Y-69441613D01*
X98059589Y-69541760D01*
X98138653Y-69660760D01*
X98191443Y-69788840D01*
X98219544Y-69930761D01*
X98219544Y-69930761D01*
G37*
G36*
X99000409Y-111421439D02*
X98997893Y-111601600D01*
X98961711Y-111760852D01*
X98896704Y-111906863D01*
X98804071Y-112038177D01*
X98686440Y-112150197D01*
X98552952Y-112234911D01*
X98399068Y-112294599D01*
X98399066Y-112294599D01*
X98245907Y-112321604D01*
X98080898Y-112318147D01*
X97926482Y-112284198D01*
X97777629Y-112219166D01*
X97645673Y-112127454D01*
X97534645Y-112012481D01*
X97446179Y-111875209D01*
X97388297Y-111729015D01*
X97358501Y-111566672D01*
X97360685Y-111410310D01*
X97394821Y-111249713D01*
X97457443Y-111103607D01*
X97548721Y-110970297D01*
X97664158Y-110857253D01*
X97797173Y-110770210D01*
X97949400Y-110708707D01*
X98103005Y-110679405D01*
X98268057Y-110680556D01*
X98422083Y-110712174D01*
X98572631Y-110775458D01*
X98705137Y-110864835D01*
X98818371Y-110978863D01*
X98908262Y-111114159D01*
X98968508Y-111260326D01*
X99000409Y-111421439D01*
X99000409Y-111421439D01*
G37*
G36*
X99000409Y-115231439D02*
X98997893Y-115411600D01*
X98961711Y-115570852D01*
X98896704Y-115716863D01*
X98804071Y-115848177D01*
X98686440Y-115960197D01*
X98552952Y-116044911D01*
X98399068Y-116104599D01*
X98399066Y-116104599D01*
X98245907Y-116131604D01*
X98080898Y-116128147D01*
X97926482Y-116094198D01*
X97777629Y-116029166D01*
X97645673Y-115937454D01*
X97534645Y-115822481D01*
X97446179Y-115685209D01*
X97388297Y-115539015D01*
X97358501Y-115376672D01*
X97360685Y-115220310D01*
X97394821Y-115059713D01*
X97457443Y-114913607D01*
X97548721Y-114780297D01*
X97664158Y-114667253D01*
X97797173Y-114580210D01*
X97949400Y-114518707D01*
X98103005Y-114489405D01*
X98268057Y-114490556D01*
X98422083Y-114522174D01*
X98572631Y-114585458D01*
X98705137Y-114674835D01*
X98818371Y-114788863D01*
X98908262Y-114924159D01*
X98968508Y-115070326D01*
X99000409Y-115231439D01*
X99000409Y-115231439D01*
G37*
G36*
X100270409Y-109516439D02*
X100267893Y-109696600D01*
X100231711Y-109855852D01*
X100166704Y-110001863D01*
X100074071Y-110133177D01*
X99956440Y-110245197D01*
X99822952Y-110329911D01*
X99669068Y-110389599D01*
X99669066Y-110389599D01*
X99515907Y-110416604D01*
X99350898Y-110413147D01*
X99196482Y-110379198D01*
X99047629Y-110314166D01*
X98915673Y-110222454D01*
X98804645Y-110107481D01*
X98716179Y-109970209D01*
X98658297Y-109824015D01*
X98628501Y-109661672D01*
X98630685Y-109505310D01*
X98664821Y-109344713D01*
X98727443Y-109198607D01*
X98818721Y-109065297D01*
X98934158Y-108952253D01*
X99067173Y-108865210D01*
X99219400Y-108803707D01*
X99373005Y-108774405D01*
X99538057Y-108775556D01*
X99692083Y-108807174D01*
X99842631Y-108870458D01*
X99975137Y-108959835D01*
X100088371Y-109073863D01*
X100178262Y-109209159D01*
X100238508Y-109355326D01*
X100270409Y-109516439D01*
X100270409Y-109516439D01*
G37*
G36*
X100270409Y-113326439D02*
X100267893Y-113506600D01*
X100231711Y-113665852D01*
X100166704Y-113811863D01*
X100074071Y-113943177D01*
X99956440Y-114055197D01*
X99822952Y-114139911D01*
X99669068Y-114199599D01*
X99669066Y-114199599D01*
X99515907Y-114226604D01*
X99350898Y-114223147D01*
X99196482Y-114189198D01*
X99047629Y-114124166D01*
X98915673Y-114032454D01*
X98804645Y-113917481D01*
X98716179Y-113780209D01*
X98658297Y-113634015D01*
X98628501Y-113471672D01*
X98630685Y-113315310D01*
X98664821Y-113154713D01*
X98727443Y-113008607D01*
X98818721Y-112875297D01*
X98934158Y-112762253D01*
X99067173Y-112675210D01*
X99219400Y-112613707D01*
X99373005Y-112584405D01*
X99538057Y-112585556D01*
X99692083Y-112617174D01*
X99842631Y-112680458D01*
X99975137Y-112769835D01*
X100088371Y-112883863D01*
X100178262Y-113019159D01*
X100238508Y-113165326D01*
X100270409Y-113326439D01*
X100270409Y-113326439D01*
G37*
G36*
X101540409Y-111421439D02*
X101537893Y-111601600D01*
X101501711Y-111760852D01*
X101436704Y-111906863D01*
X101344071Y-112038177D01*
X101226440Y-112150197D01*
X101092952Y-112234911D01*
X100939068Y-112294599D01*
X100939066Y-112294599D01*
X100785907Y-112321604D01*
X100620898Y-112318147D01*
X100466482Y-112284198D01*
X100317629Y-112219166D01*
X100185673Y-112127454D01*
X100074645Y-112012481D01*
X99986179Y-111875209D01*
X99928297Y-111729015D01*
X99898501Y-111566672D01*
X99900685Y-111410310D01*
X99934821Y-111249713D01*
X99997443Y-111103607D01*
X100088721Y-110970297D01*
X100204158Y-110857253D01*
X100337173Y-110770210D01*
X100489400Y-110708707D01*
X100643005Y-110679405D01*
X100808057Y-110680556D01*
X100962083Y-110712174D01*
X101112631Y-110775458D01*
X101245137Y-110864835D01*
X101358371Y-110978863D01*
X101448262Y-111114159D01*
X101508508Y-111260326D01*
X101540409Y-111421439D01*
X101540409Y-111421439D01*
G37*
G36*
X101540409Y-115231439D02*
X101537893Y-115411600D01*
X101501711Y-115570852D01*
X101436704Y-115716863D01*
X101344071Y-115848177D01*
X101226440Y-115960197D01*
X101092952Y-116044911D01*
X100939068Y-116104599D01*
X100939066Y-116104599D01*
X100785907Y-116131604D01*
X100620898Y-116128147D01*
X100466482Y-116094198D01*
X100317629Y-116029166D01*
X100185673Y-115937454D01*
X100074645Y-115822481D01*
X99986179Y-115685209D01*
X99928297Y-115539015D01*
X99898501Y-115376672D01*
X99900685Y-115220310D01*
X99934821Y-115059713D01*
X99997443Y-114913607D01*
X100088721Y-114780297D01*
X100204158Y-114667253D01*
X100337173Y-114580210D01*
X100489400Y-114518707D01*
X100643005Y-114489405D01*
X100808057Y-114490556D01*
X100962083Y-114522174D01*
X101112631Y-114585458D01*
X101245137Y-114674835D01*
X101358371Y-114788863D01*
X101448262Y-114924159D01*
X101508508Y-115070326D01*
X101540409Y-115231439D01*
X101540409Y-115231439D01*
G37*
G36*
X102810409Y-109516439D02*
X102807893Y-109696600D01*
X102771711Y-109855852D01*
X102706704Y-110001863D01*
X102614071Y-110133177D01*
X102496440Y-110245197D01*
X102362952Y-110329911D01*
X102209068Y-110389599D01*
X102209066Y-110389599D01*
X102055907Y-110416604D01*
X101890898Y-110413147D01*
X101736482Y-110379198D01*
X101587629Y-110314166D01*
X101455673Y-110222454D01*
X101344645Y-110107481D01*
X101256179Y-109970209D01*
X101198297Y-109824015D01*
X101168501Y-109661672D01*
X101170685Y-109505310D01*
X101204821Y-109344713D01*
X101267443Y-109198607D01*
X101358721Y-109065297D01*
X101474158Y-108952253D01*
X101607173Y-108865210D01*
X101759400Y-108803707D01*
X101913005Y-108774405D01*
X102078057Y-108775556D01*
X102232083Y-108807174D01*
X102382631Y-108870458D01*
X102515137Y-108959835D01*
X102628371Y-109073863D01*
X102718262Y-109209159D01*
X102778508Y-109355326D01*
X102810409Y-109516439D01*
X102810409Y-109516439D01*
G37*
G36*
X102810409Y-113326439D02*
X102807893Y-113506600D01*
X102771711Y-113665852D01*
X102706704Y-113811863D01*
X102614071Y-113943177D01*
X102496440Y-114055197D01*
X102362952Y-114139911D01*
X102209068Y-114199599D01*
X102209066Y-114199599D01*
X102055907Y-114226604D01*
X101890898Y-114223147D01*
X101736482Y-114189198D01*
X101587629Y-114124166D01*
X101455673Y-114032454D01*
X101344645Y-113917481D01*
X101256179Y-113780209D01*
X101198297Y-113634015D01*
X101168501Y-113471672D01*
X101170685Y-113315310D01*
X101204821Y-113154713D01*
X101267443Y-113008607D01*
X101358721Y-112875297D01*
X101474158Y-112762253D01*
X101607173Y-112675210D01*
X101759400Y-112613707D01*
X101913005Y-112584405D01*
X102078057Y-112585556D01*
X102232083Y-112617174D01*
X102382631Y-112680458D01*
X102515137Y-112769835D01*
X102628371Y-112883863D01*
X102718262Y-113019159D01*
X102778508Y-113165326D01*
X102810409Y-113326439D01*
X102810409Y-113326439D01*
G37*
G36*
X104080409Y-111421439D02*
X104077893Y-111601600D01*
X104041711Y-111760852D01*
X103976704Y-111906863D01*
X103884071Y-112038177D01*
X103766440Y-112150197D01*
X103632952Y-112234911D01*
X103479068Y-112294599D01*
X103479066Y-112294599D01*
X103325907Y-112321604D01*
X103160898Y-112318147D01*
X103006482Y-112284198D01*
X102857629Y-112219166D01*
X102725673Y-112127454D01*
X102614645Y-112012481D01*
X102526179Y-111875209D01*
X102468297Y-111729015D01*
X102438501Y-111566672D01*
X102440685Y-111410310D01*
X102474821Y-111249713D01*
X102537443Y-111103607D01*
X102628721Y-110970297D01*
X102744158Y-110857253D01*
X102877173Y-110770210D01*
X103029400Y-110708707D01*
X103183005Y-110679405D01*
X103348057Y-110680556D01*
X103502083Y-110712174D01*
X103652631Y-110775458D01*
X103785137Y-110864835D01*
X103898371Y-110978863D01*
X103988262Y-111114159D01*
X104048508Y-111260326D01*
X104080409Y-111421439D01*
X104080409Y-111421439D01*
G37*
G36*
X104080409Y-115231439D02*
X104077893Y-115411600D01*
X104041711Y-115570852D01*
X103976704Y-115716863D01*
X103884071Y-115848177D01*
X103766440Y-115960197D01*
X103632952Y-116044911D01*
X103479068Y-116104599D01*
X103479066Y-116104599D01*
X103325907Y-116131604D01*
X103160898Y-116128147D01*
X103006482Y-116094198D01*
X102857629Y-116029166D01*
X102725673Y-115937454D01*
X102614645Y-115822481D01*
X102526179Y-115685209D01*
X102468297Y-115539015D01*
X102438501Y-115376672D01*
X102440685Y-115220310D01*
X102474821Y-115059713D01*
X102537443Y-114913607D01*
X102628721Y-114780297D01*
X102744158Y-114667253D01*
X102877173Y-114580210D01*
X103029400Y-114518707D01*
X103183005Y-114489405D01*
X103348057Y-114490556D01*
X103502083Y-114522174D01*
X103652631Y-114585458D01*
X103785137Y-114674835D01*
X103898371Y-114788863D01*
X103988262Y-114924159D01*
X104048508Y-115070326D01*
X104080409Y-115231439D01*
X104080409Y-115231439D01*
G37*
G36*
X104326031Y-90441500D02*
X104325500Y-90441500D01*
X103550500Y-90441500D01*
X103549968Y-90441500D01*
X103549968Y-89158500D01*
X103550500Y-89158500D01*
X104325500Y-89158500D01*
X104326031Y-89158500D01*
X104326031Y-90441500D01*
X104326031Y-90441500D01*
G37*
G36*
X105350409Y-109516439D02*
X105347893Y-109696600D01*
X105311711Y-109855852D01*
X105246704Y-110001863D01*
X105154071Y-110133177D01*
X105036440Y-110245197D01*
X104902952Y-110329911D01*
X104749068Y-110389599D01*
X104749066Y-110389599D01*
X104595907Y-110416604D01*
X104430898Y-110413147D01*
X104276482Y-110379198D01*
X104127629Y-110314166D01*
X103995673Y-110222454D01*
X103884645Y-110107481D01*
X103796179Y-109970209D01*
X103738297Y-109824015D01*
X103708501Y-109661672D01*
X103710685Y-109505310D01*
X103744821Y-109344713D01*
X103807443Y-109198607D01*
X103898721Y-109065297D01*
X104014158Y-108952253D01*
X104147173Y-108865210D01*
X104299400Y-108803707D01*
X104453005Y-108774405D01*
X104618057Y-108775556D01*
X104772083Y-108807174D01*
X104922631Y-108870458D01*
X105055137Y-108959835D01*
X105168371Y-109073863D01*
X105258262Y-109209159D01*
X105318508Y-109355326D01*
X105350409Y-109516439D01*
X105350409Y-109516439D01*
G37*
G36*
X105350409Y-113326439D02*
X105347893Y-113506600D01*
X105311711Y-113665852D01*
X105246704Y-113811863D01*
X105154071Y-113943177D01*
X105036440Y-114055197D01*
X104902952Y-114139911D01*
X104749068Y-114199599D01*
X104749066Y-114199599D01*
X104595907Y-114226604D01*
X104430898Y-114223147D01*
X104276482Y-114189198D01*
X104127629Y-114124166D01*
X103995673Y-114032454D01*
X103884645Y-113917481D01*
X103796179Y-113780209D01*
X103738297Y-113634015D01*
X103708501Y-113471672D01*
X103710685Y-113315310D01*
X103744821Y-113154713D01*
X103807443Y-113008607D01*
X103898721Y-112875297D01*
X104014158Y-112762253D01*
X104147173Y-112675210D01*
X104299400Y-112613707D01*
X104453005Y-112584405D01*
X104618057Y-112585556D01*
X104772083Y-112617174D01*
X104922631Y-112680458D01*
X105055137Y-112769835D01*
X105168371Y-112883863D01*
X105258262Y-113019159D01*
X105318508Y-113165326D01*
X105350409Y-113326439D01*
X105350409Y-113326439D01*
G37*
G36*
X105850031Y-90441500D02*
X105849500Y-90441500D01*
X105074500Y-90441500D01*
X105073968Y-90441500D01*
X105073968Y-89158500D01*
X105074500Y-89158500D01*
X105849500Y-89158500D01*
X105850031Y-89158500D01*
X105850031Y-90441500D01*
X105850031Y-90441500D01*
G37*
G36*
X106142031Y-101525500D02*
X106141500Y-101525500D01*
X104858500Y-101525500D01*
X104857968Y-101525500D01*
X104857968Y-100750500D01*
X104858500Y-100750500D01*
X106141500Y-100750500D01*
X106142031Y-100750500D01*
X106142031Y-101525500D01*
X106142031Y-101525500D01*
G37*
G36*
X106142031Y-103049500D02*
X106141500Y-103049500D01*
X104858500Y-103049500D01*
X104857968Y-103049500D01*
X104857968Y-102274500D01*
X104858500Y-102274500D01*
X106141500Y-102274500D01*
X106142031Y-102274500D01*
X106142031Y-103049500D01*
X106142031Y-103049500D01*
G37*
G36*
X106620409Y-111421439D02*
X106617893Y-111601600D01*
X106581711Y-111760852D01*
X106516704Y-111906863D01*
X106424071Y-112038177D01*
X106306440Y-112150197D01*
X106172952Y-112234911D01*
X106019068Y-112294599D01*
X106019066Y-112294599D01*
X105865907Y-112321604D01*
X105700898Y-112318147D01*
X105546482Y-112284198D01*
X105397629Y-112219166D01*
X105265673Y-112127454D01*
X105154645Y-112012481D01*
X105066179Y-111875209D01*
X105008297Y-111729015D01*
X104978501Y-111566672D01*
X104980685Y-111410310D01*
X105014821Y-111249713D01*
X105077443Y-111103607D01*
X105168721Y-110970297D01*
X105284158Y-110857253D01*
X105417173Y-110770210D01*
X105569400Y-110708707D01*
X105723005Y-110679405D01*
X105888057Y-110680556D01*
X106042083Y-110712174D01*
X106192631Y-110775458D01*
X106325137Y-110864835D01*
X106438371Y-110978863D01*
X106528262Y-111114159D01*
X106588508Y-111260326D01*
X106620409Y-111421439D01*
X106620409Y-111421439D01*
G37*
G36*
X106620409Y-115231439D02*
X106617893Y-115411600D01*
X106581711Y-115570852D01*
X106516704Y-115716863D01*
X106424071Y-115848177D01*
X106306440Y-115960197D01*
X106172952Y-116044911D01*
X106019068Y-116104599D01*
X106019066Y-116104599D01*
X105865907Y-116131604D01*
X105700898Y-116128147D01*
X105546482Y-116094198D01*
X105397629Y-116029166D01*
X105265673Y-115937454D01*
X105154645Y-115822481D01*
X105066179Y-115685209D01*
X105008297Y-115539015D01*
X104978501Y-115376672D01*
X104980685Y-115220310D01*
X105014821Y-115059713D01*
X105077443Y-114913607D01*
X105168721Y-114780297D01*
X105284158Y-114667253D01*
X105417173Y-114580210D01*
X105569400Y-114518707D01*
X105723005Y-114489405D01*
X105888057Y-114490556D01*
X106042083Y-114522174D01*
X106192631Y-114585458D01*
X106325137Y-114674835D01*
X106438371Y-114788863D01*
X106528262Y-114924159D01*
X106588508Y-115070326D01*
X106620409Y-115231439D01*
X106620409Y-115231439D01*
G37*
G36*
X107890409Y-109516439D02*
X107887893Y-109696600D01*
X107851711Y-109855852D01*
X107786704Y-110001863D01*
X107694071Y-110133177D01*
X107576440Y-110245197D01*
X107442952Y-110329911D01*
X107289068Y-110389599D01*
X107289066Y-110389599D01*
X107135907Y-110416604D01*
X106970898Y-110413147D01*
X106816482Y-110379198D01*
X106667629Y-110314166D01*
X106535673Y-110222454D01*
X106424645Y-110107481D01*
X106336179Y-109970209D01*
X106278297Y-109824015D01*
X106248501Y-109661672D01*
X106250685Y-109505310D01*
X106284821Y-109344713D01*
X106347443Y-109198607D01*
X106438721Y-109065297D01*
X106554158Y-108952253D01*
X106687173Y-108865210D01*
X106839400Y-108803707D01*
X106993005Y-108774405D01*
X107158057Y-108775556D01*
X107312083Y-108807174D01*
X107462631Y-108870458D01*
X107595137Y-108959835D01*
X107708371Y-109073863D01*
X107798262Y-109209159D01*
X107858508Y-109355326D01*
X107890409Y-109516439D01*
X107890409Y-109516439D01*
G37*
G36*
X107890409Y-113326439D02*
X107887893Y-113506600D01*
X107851711Y-113665852D01*
X107786704Y-113811863D01*
X107694071Y-113943177D01*
X107576440Y-114055197D01*
X107442952Y-114139911D01*
X107289068Y-114199599D01*
X107289066Y-114199599D01*
X107135907Y-114226604D01*
X106970898Y-114223147D01*
X106816482Y-114189198D01*
X106667629Y-114124166D01*
X106535673Y-114032454D01*
X106424645Y-113917481D01*
X106336179Y-113780209D01*
X106278297Y-113634015D01*
X106248501Y-113471672D01*
X106250685Y-113315310D01*
X106284821Y-113154713D01*
X106347443Y-113008607D01*
X106438721Y-112875297D01*
X106554158Y-112762253D01*
X106687173Y-112675210D01*
X106839400Y-112613707D01*
X106993005Y-112584405D01*
X107158057Y-112585556D01*
X107312083Y-112617174D01*
X107462631Y-112680458D01*
X107595137Y-112769835D01*
X107708371Y-112883863D01*
X107798262Y-113019159D01*
X107858508Y-113165326D01*
X107890409Y-113326439D01*
X107890409Y-113326439D01*
G37*
G36*
X108042031Y-101525500D02*
X108041500Y-101525500D01*
X106758500Y-101525500D01*
X106757968Y-101525500D01*
X106757968Y-100750500D01*
X106758500Y-100750500D01*
X108041500Y-100750500D01*
X108042031Y-100750500D01*
X108042031Y-101525500D01*
X108042031Y-101525500D01*
G37*
G36*
X108042031Y-103049500D02*
X108041500Y-103049500D01*
X106758500Y-103049500D01*
X106757968Y-103049500D01*
X106757968Y-102274500D01*
X106758500Y-102274500D01*
X108041500Y-102274500D01*
X108042031Y-102274500D01*
X108042031Y-103049500D01*
X108042031Y-103049500D01*
G37*
G36*
X108626031Y-90441500D02*
X108625500Y-90441500D01*
X107850500Y-90441500D01*
X107849968Y-90441500D01*
X107849968Y-89158500D01*
X107850500Y-89158500D01*
X108625500Y-89158500D01*
X108626031Y-89158500D01*
X108626031Y-90441500D01*
X108626031Y-90441500D01*
G37*
G36*
X109160409Y-111421439D02*
X109157893Y-111601600D01*
X109121711Y-111760852D01*
X109056704Y-111906863D01*
X108964071Y-112038177D01*
X108846440Y-112150197D01*
X108712952Y-112234911D01*
X108559068Y-112294599D01*
X108559066Y-112294599D01*
X108405907Y-112321604D01*
X108240898Y-112318147D01*
X108086482Y-112284198D01*
X107937629Y-112219166D01*
X107805673Y-112127454D01*
X107694645Y-112012481D01*
X107606179Y-111875209D01*
X107548297Y-111729015D01*
X107518501Y-111566672D01*
X107520685Y-111410310D01*
X107554821Y-111249713D01*
X107617443Y-111103607D01*
X107708721Y-110970297D01*
X107824158Y-110857253D01*
X107957173Y-110770210D01*
X108109400Y-110708707D01*
X108263005Y-110679405D01*
X108428057Y-110680556D01*
X108582083Y-110712174D01*
X108732631Y-110775458D01*
X108865137Y-110864835D01*
X108978371Y-110978863D01*
X109068262Y-111114159D01*
X109128508Y-111260326D01*
X109160409Y-111421439D01*
X109160409Y-111421439D01*
G37*
G36*
X109160409Y-115231439D02*
X109157893Y-115411600D01*
X109121711Y-115570852D01*
X109056704Y-115716863D01*
X108964071Y-115848177D01*
X108846440Y-115960197D01*
X108712952Y-116044911D01*
X108559068Y-116104599D01*
X108559066Y-116104599D01*
X108405907Y-116131604D01*
X108240898Y-116128147D01*
X108086482Y-116094198D01*
X107937629Y-116029166D01*
X107805673Y-115937454D01*
X107694645Y-115822481D01*
X107606179Y-115685209D01*
X107548297Y-115539015D01*
X107518501Y-115376672D01*
X107520685Y-115220310D01*
X107554821Y-115059713D01*
X107617443Y-114913607D01*
X107708721Y-114780297D01*
X107824158Y-114667253D01*
X107957173Y-114580210D01*
X108109400Y-114518707D01*
X108263005Y-114489405D01*
X108428057Y-114490556D01*
X108582083Y-114522174D01*
X108732631Y-114585458D01*
X108865137Y-114674835D01*
X108978371Y-114788863D01*
X109068262Y-114924159D01*
X109128508Y-115070326D01*
X109160409Y-115231439D01*
X109160409Y-115231439D01*
G37*
G36*
X109942031Y-101525500D02*
X109941500Y-101525500D01*
X108658500Y-101525500D01*
X108657968Y-101525500D01*
X108657968Y-100750500D01*
X108658500Y-100750500D01*
X109941500Y-100750500D01*
X109942031Y-100750500D01*
X109942031Y-101525500D01*
X109942031Y-101525500D01*
G37*
G36*
X109942031Y-103049500D02*
X109941500Y-103049500D01*
X108658500Y-103049500D01*
X108657968Y-103049500D01*
X108657968Y-102274500D01*
X108658500Y-102274500D01*
X109941500Y-102274500D01*
X109942031Y-102274500D01*
X109942031Y-103049500D01*
X109942031Y-103049500D01*
G37*
G36*
X110150031Y-90441500D02*
X110149500Y-90441500D01*
X109374500Y-90441500D01*
X109373968Y-90441500D01*
X109373968Y-89158500D01*
X109374500Y-89158500D01*
X110149500Y-89158500D01*
X110150031Y-89158500D01*
X110150031Y-90441500D01*
X110150031Y-90441500D01*
G37*
G36*
X110430409Y-109516439D02*
X110427893Y-109696600D01*
X110391711Y-109855852D01*
X110326704Y-110001863D01*
X110234071Y-110133177D01*
X110116440Y-110245197D01*
X109982952Y-110329911D01*
X109829068Y-110389599D01*
X109829066Y-110389599D01*
X109675907Y-110416604D01*
X109510898Y-110413147D01*
X109356482Y-110379198D01*
X109207629Y-110314166D01*
X109075673Y-110222454D01*
X108964645Y-110107481D01*
X108876179Y-109970209D01*
X108818297Y-109824015D01*
X108788501Y-109661672D01*
X108790685Y-109505310D01*
X108824821Y-109344713D01*
X108887443Y-109198607D01*
X108978721Y-109065297D01*
X109094158Y-108952253D01*
X109227173Y-108865210D01*
X109379400Y-108803707D01*
X109533005Y-108774405D01*
X109698057Y-108775556D01*
X109852083Y-108807174D01*
X110002631Y-108870458D01*
X110135137Y-108959835D01*
X110248371Y-109073863D01*
X110338262Y-109209159D01*
X110398508Y-109355326D01*
X110430409Y-109516439D01*
X110430409Y-109516439D01*
G37*
G36*
X110430409Y-113326439D02*
X110427893Y-113506600D01*
X110391711Y-113665852D01*
X110326704Y-113811863D01*
X110234071Y-113943177D01*
X110116440Y-114055197D01*
X109982952Y-114139911D01*
X109829068Y-114199599D01*
X109829066Y-114199599D01*
X109675907Y-114226604D01*
X109510898Y-114223147D01*
X109356482Y-114189198D01*
X109207629Y-114124166D01*
X109075673Y-114032454D01*
X108964645Y-113917481D01*
X108876179Y-113780209D01*
X108818297Y-113634015D01*
X108788501Y-113471672D01*
X108790685Y-113315310D01*
X108824821Y-113154713D01*
X108887443Y-113008607D01*
X108978721Y-112875297D01*
X109094158Y-112762253D01*
X109227173Y-112675210D01*
X109379400Y-112613707D01*
X109533005Y-112584405D01*
X109698057Y-112585556D01*
X109852083Y-112617174D01*
X110002631Y-112680458D01*
X110135137Y-112769835D01*
X110248371Y-112883863D01*
X110338262Y-113019159D01*
X110398508Y-113165326D01*
X110430409Y-113326439D01*
X110430409Y-113326439D01*
G37*
G36*
X111700409Y-111421439D02*
X111697893Y-111601600D01*
X111661711Y-111760852D01*
X111596704Y-111906863D01*
X111504071Y-112038177D01*
X111386440Y-112150197D01*
X111252952Y-112234911D01*
X111099068Y-112294599D01*
X111099066Y-112294599D01*
X110945907Y-112321604D01*
X110780898Y-112318147D01*
X110626482Y-112284198D01*
X110477629Y-112219166D01*
X110345673Y-112127454D01*
X110234645Y-112012481D01*
X110146179Y-111875209D01*
X110088297Y-111729015D01*
X110058501Y-111566672D01*
X110060685Y-111410310D01*
X110094821Y-111249713D01*
X110157443Y-111103607D01*
X110248721Y-110970297D01*
X110364158Y-110857253D01*
X110497173Y-110770210D01*
X110649400Y-110708707D01*
X110803005Y-110679405D01*
X110968057Y-110680556D01*
X111122083Y-110712174D01*
X111272631Y-110775458D01*
X111405137Y-110864835D01*
X111518371Y-110978863D01*
X111608262Y-111114159D01*
X111668508Y-111260326D01*
X111700409Y-111421439D01*
X111700409Y-111421439D01*
G37*
G36*
X111700409Y-115231439D02*
X111697893Y-115411600D01*
X111661711Y-115570852D01*
X111596704Y-115716863D01*
X111504071Y-115848177D01*
X111386440Y-115960197D01*
X111252952Y-116044911D01*
X111099068Y-116104599D01*
X111099066Y-116104599D01*
X110945907Y-116131604D01*
X110780898Y-116128147D01*
X110626482Y-116094198D01*
X110477629Y-116029166D01*
X110345673Y-115937454D01*
X110234645Y-115822481D01*
X110146179Y-115685209D01*
X110088297Y-115539015D01*
X110058501Y-115376672D01*
X110060685Y-115220310D01*
X110094821Y-115059713D01*
X110157443Y-114913607D01*
X110248721Y-114780297D01*
X110364158Y-114667253D01*
X110497173Y-114580210D01*
X110649400Y-114518707D01*
X110803005Y-114489405D01*
X110968057Y-114490556D01*
X111122083Y-114522174D01*
X111272631Y-114585458D01*
X111405137Y-114674835D01*
X111518371Y-114788863D01*
X111608262Y-114924159D01*
X111668508Y-115070326D01*
X111700409Y-115231439D01*
X111700409Y-115231439D01*
G37*
G36*
X111942031Y-101525500D02*
X111941500Y-101525500D01*
X110658500Y-101525500D01*
X110657968Y-101525500D01*
X110657968Y-100750500D01*
X110658500Y-100750500D01*
X111941500Y-100750500D01*
X111942031Y-100750500D01*
X111942031Y-101525500D01*
X111942031Y-101525500D01*
G37*
G36*
X111942031Y-103049500D02*
X111941500Y-103049500D01*
X110658500Y-103049500D01*
X110657968Y-103049500D01*
X110657968Y-102274500D01*
X110658500Y-102274500D01*
X111941500Y-102274500D01*
X111942031Y-102274500D01*
X111942031Y-103049500D01*
X111942031Y-103049500D01*
G37*
G36*
X112970409Y-109516439D02*
X112967893Y-109696600D01*
X112931711Y-109855852D01*
X112866704Y-110001863D01*
X112774071Y-110133177D01*
X112656440Y-110245197D01*
X112522952Y-110329911D01*
X112369068Y-110389599D01*
X112369066Y-110389599D01*
X112215907Y-110416604D01*
X112050898Y-110413147D01*
X111896482Y-110379198D01*
X111747629Y-110314166D01*
X111615673Y-110222454D01*
X111504645Y-110107481D01*
X111416179Y-109970209D01*
X111358297Y-109824015D01*
X111328501Y-109661672D01*
X111330685Y-109505310D01*
X111364821Y-109344713D01*
X111427443Y-109198607D01*
X111518721Y-109065297D01*
X111634158Y-108952253D01*
X111767173Y-108865210D01*
X111919400Y-108803707D01*
X112073005Y-108774405D01*
X112238057Y-108775556D01*
X112392083Y-108807174D01*
X112542631Y-108870458D01*
X112675137Y-108959835D01*
X112788371Y-109073863D01*
X112878262Y-109209159D01*
X112938508Y-109355326D01*
X112970409Y-109516439D01*
X112970409Y-109516439D01*
G37*
G36*
X112970409Y-113326439D02*
X112967893Y-113506600D01*
X112931711Y-113665852D01*
X112866704Y-113811863D01*
X112774071Y-113943177D01*
X112656440Y-114055197D01*
X112522952Y-114139911D01*
X112369068Y-114199599D01*
X112369066Y-114199599D01*
X112215907Y-114226604D01*
X112050898Y-114223147D01*
X111896482Y-114189198D01*
X111747629Y-114124166D01*
X111615673Y-114032454D01*
X111504645Y-113917481D01*
X111416179Y-113780209D01*
X111358297Y-113634015D01*
X111328501Y-113471672D01*
X111330685Y-113315310D01*
X111364821Y-113154713D01*
X111427443Y-113008607D01*
X111518721Y-112875297D01*
X111634158Y-112762253D01*
X111767173Y-112675210D01*
X111919400Y-112613707D01*
X112073005Y-112584405D01*
X112238057Y-112585556D01*
X112392083Y-112617174D01*
X112542631Y-112680458D01*
X112675137Y-112769835D01*
X112788371Y-112883863D01*
X112878262Y-113019159D01*
X112938508Y-113165326D01*
X112970409Y-113326439D01*
X112970409Y-113326439D01*
G37*
G36*
X114240409Y-111421439D02*
X114237893Y-111601600D01*
X114201711Y-111760852D01*
X114136704Y-111906863D01*
X114044071Y-112038177D01*
X113926440Y-112150197D01*
X113792952Y-112234911D01*
X113639068Y-112294599D01*
X113639066Y-112294599D01*
X113485907Y-112321604D01*
X113320898Y-112318147D01*
X113166482Y-112284198D01*
X113017629Y-112219166D01*
X112885673Y-112127454D01*
X112774645Y-112012481D01*
X112686179Y-111875209D01*
X112628297Y-111729015D01*
X112598501Y-111566672D01*
X112600685Y-111410310D01*
X112634821Y-111249713D01*
X112697443Y-111103607D01*
X112788721Y-110970297D01*
X112904158Y-110857253D01*
X113037173Y-110770210D01*
X113189400Y-110708707D01*
X113343005Y-110679405D01*
X113508057Y-110680556D01*
X113662083Y-110712174D01*
X113812631Y-110775458D01*
X113945137Y-110864835D01*
X114058371Y-110978863D01*
X114148262Y-111114159D01*
X114208508Y-111260326D01*
X114240409Y-111421439D01*
X114240409Y-111421439D01*
G37*
G36*
X114240409Y-115231439D02*
X114237893Y-115411600D01*
X114201711Y-115570852D01*
X114136704Y-115716863D01*
X114044071Y-115848177D01*
X113926440Y-115960197D01*
X113792952Y-116044911D01*
X113639068Y-116104599D01*
X113639066Y-116104599D01*
X113485907Y-116131604D01*
X113320898Y-116128147D01*
X113166482Y-116094198D01*
X113017629Y-116029166D01*
X112885673Y-115937454D01*
X112774645Y-115822481D01*
X112686179Y-115685209D01*
X112628297Y-115539015D01*
X112598501Y-115376672D01*
X112600685Y-115220310D01*
X112634821Y-115059713D01*
X112697443Y-114913607D01*
X112788721Y-114780297D01*
X112904158Y-114667253D01*
X113037173Y-114580210D01*
X113189400Y-114518707D01*
X113343005Y-114489405D01*
X113508057Y-114490556D01*
X113662083Y-114522174D01*
X113812631Y-114585458D01*
X113945137Y-114674835D01*
X114058371Y-114788863D01*
X114148262Y-114924159D01*
X114208508Y-115070326D01*
X114240409Y-115231439D01*
X114240409Y-115231439D01*
G37*
G36*
X114726031Y-90441500D02*
X114725500Y-90441500D01*
X113950500Y-90441500D01*
X113949968Y-90441500D01*
X113949968Y-89158500D01*
X113950500Y-89158500D01*
X114725500Y-89158500D01*
X114726031Y-89158500D01*
X114726031Y-90441500D01*
X114726031Y-90441500D01*
G37*
G36*
X115510409Y-109516439D02*
X115507893Y-109696600D01*
X115471711Y-109855852D01*
X115406704Y-110001863D01*
X115314071Y-110133177D01*
X115196440Y-110245197D01*
X115062952Y-110329911D01*
X114909068Y-110389599D01*
X114909066Y-110389599D01*
X114755907Y-110416604D01*
X114590898Y-110413147D01*
X114436482Y-110379198D01*
X114287629Y-110314166D01*
X114155673Y-110222454D01*
X114044645Y-110107481D01*
X113956179Y-109970209D01*
X113898297Y-109824015D01*
X113868501Y-109661672D01*
X113870685Y-109505310D01*
X113904821Y-109344713D01*
X113967443Y-109198607D01*
X114058721Y-109065297D01*
X114174158Y-108952253D01*
X114307173Y-108865210D01*
X114459400Y-108803707D01*
X114613005Y-108774405D01*
X114778057Y-108775556D01*
X114932083Y-108807174D01*
X115082631Y-108870458D01*
X115215137Y-108959835D01*
X115328371Y-109073863D01*
X115418262Y-109209159D01*
X115478508Y-109355326D01*
X115510409Y-109516439D01*
X115510409Y-109516439D01*
G37*
G36*
X115510409Y-113326439D02*
X115507893Y-113506600D01*
X115471711Y-113665852D01*
X115406704Y-113811863D01*
X115314071Y-113943177D01*
X115196440Y-114055197D01*
X115062952Y-114139911D01*
X114909068Y-114199599D01*
X114909066Y-114199599D01*
X114755907Y-114226604D01*
X114590898Y-114223147D01*
X114436482Y-114189198D01*
X114287629Y-114124166D01*
X114155673Y-114032454D01*
X114044645Y-113917481D01*
X113956179Y-113780209D01*
X113898297Y-113634015D01*
X113868501Y-113471672D01*
X113870685Y-113315310D01*
X113904821Y-113154713D01*
X113967443Y-113008607D01*
X114058721Y-112875297D01*
X114174158Y-112762253D01*
X114307173Y-112675210D01*
X114459400Y-112613707D01*
X114613005Y-112584405D01*
X114778057Y-112585556D01*
X114932083Y-112617174D01*
X115082631Y-112680458D01*
X115215137Y-112769835D01*
X115328371Y-112883863D01*
X115418262Y-113019159D01*
X115478508Y-113165326D01*
X115510409Y-113326439D01*
X115510409Y-113326439D01*
G37*
G36*
X116250031Y-90441500D02*
X116249500Y-90441500D01*
X115474500Y-90441500D01*
X115473968Y-90441500D01*
X115473968Y-89158500D01*
X115474500Y-89158500D01*
X116249500Y-89158500D01*
X116250031Y-89158500D01*
X116250031Y-90441500D01*
X116250031Y-90441500D01*
G37*
G36*
X116780409Y-111421439D02*
X116777893Y-111601600D01*
X116741711Y-111760852D01*
X116676704Y-111906863D01*
X116584071Y-112038177D01*
X116466440Y-112150197D01*
X116332952Y-112234911D01*
X116179068Y-112294599D01*
X116179066Y-112294599D01*
X116025907Y-112321604D01*
X115860898Y-112318147D01*
X115706482Y-112284198D01*
X115557629Y-112219166D01*
X115425673Y-112127454D01*
X115314645Y-112012481D01*
X115226179Y-111875209D01*
X115168297Y-111729015D01*
X115138501Y-111566672D01*
X115140685Y-111410310D01*
X115174821Y-111249713D01*
X115237443Y-111103607D01*
X115328721Y-110970297D01*
X115444158Y-110857253D01*
X115577173Y-110770210D01*
X115729400Y-110708707D01*
X115883005Y-110679405D01*
X116048057Y-110680556D01*
X116202083Y-110712174D01*
X116352631Y-110775458D01*
X116485137Y-110864835D01*
X116598371Y-110978863D01*
X116688262Y-111114159D01*
X116748508Y-111260326D01*
X116780409Y-111421439D01*
X116780409Y-111421439D01*
G37*
G36*
X116780409Y-115231439D02*
X116777893Y-115411600D01*
X116741711Y-115570852D01*
X116676704Y-115716863D01*
X116584071Y-115848177D01*
X116466440Y-115960197D01*
X116332952Y-116044911D01*
X116179068Y-116104599D01*
X116179066Y-116104599D01*
X116025907Y-116131604D01*
X115860898Y-116128147D01*
X115706482Y-116094198D01*
X115557629Y-116029166D01*
X115425673Y-115937454D01*
X115314645Y-115822481D01*
X115226179Y-115685209D01*
X115168297Y-115539015D01*
X115138501Y-115376672D01*
X115140685Y-115220310D01*
X115174821Y-115059713D01*
X115237443Y-114913607D01*
X115328721Y-114780297D01*
X115444158Y-114667253D01*
X115577173Y-114580210D01*
X115729400Y-114518707D01*
X115883005Y-114489405D01*
X116048057Y-114490556D01*
X116202083Y-114522174D01*
X116352631Y-114585458D01*
X116485137Y-114674835D01*
X116598371Y-114788863D01*
X116688262Y-114924159D01*
X116748508Y-115070326D01*
X116780409Y-115231439D01*
X116780409Y-115231439D01*
G37*
G36*
X118050409Y-109516439D02*
X118047893Y-109696600D01*
X118011711Y-109855852D01*
X117946704Y-110001863D01*
X117854071Y-110133177D01*
X117736440Y-110245197D01*
X117602952Y-110329911D01*
X117449068Y-110389599D01*
X117449066Y-110389599D01*
X117295907Y-110416604D01*
X117130898Y-110413147D01*
X116976482Y-110379198D01*
X116827629Y-110314166D01*
X116695673Y-110222454D01*
X116584645Y-110107481D01*
X116496179Y-109970209D01*
X116438297Y-109824015D01*
X116408501Y-109661672D01*
X116410685Y-109505310D01*
X116444821Y-109344713D01*
X116507443Y-109198607D01*
X116598721Y-109065297D01*
X116714158Y-108952253D01*
X116847173Y-108865210D01*
X116999400Y-108803707D01*
X117153005Y-108774405D01*
X117318057Y-108775556D01*
X117472083Y-108807174D01*
X117622631Y-108870458D01*
X117755137Y-108959835D01*
X117868371Y-109073863D01*
X117958262Y-109209159D01*
X118018508Y-109355326D01*
X118050409Y-109516439D01*
X118050409Y-109516439D01*
G37*
G36*
X118050409Y-113326439D02*
X118047893Y-113506600D01*
X118011711Y-113665852D01*
X117946704Y-113811863D01*
X117854071Y-113943177D01*
X117736440Y-114055197D01*
X117602952Y-114139911D01*
X117449068Y-114199599D01*
X117449066Y-114199599D01*
X117295907Y-114226604D01*
X117130898Y-114223147D01*
X116976482Y-114189198D01*
X116827629Y-114124166D01*
X116695673Y-114032454D01*
X116584645Y-113917481D01*
X116496179Y-113780209D01*
X116438297Y-113634015D01*
X116408501Y-113471672D01*
X116410685Y-113315310D01*
X116444821Y-113154713D01*
X116507443Y-113008607D01*
X116598721Y-112875297D01*
X116714158Y-112762253D01*
X116847173Y-112675210D01*
X116999400Y-112613707D01*
X117153005Y-112584405D01*
X117318057Y-112585556D01*
X117472083Y-112617174D01*
X117622631Y-112680458D01*
X117755137Y-112769835D01*
X117868371Y-112883863D01*
X117958262Y-113019159D01*
X118018508Y-113165326D01*
X118050409Y-113326439D01*
X118050409Y-113326439D01*
G37*
G36*
X118592031Y-103125500D02*
X118591500Y-103125500D01*
X117308500Y-103125500D01*
X117307968Y-103125500D01*
X117307968Y-102350500D01*
X117308500Y-102350500D01*
X118591500Y-102350500D01*
X118592031Y-102350500D01*
X118592031Y-103125500D01*
X118592031Y-103125500D01*
G37*
G36*
X118592031Y-104649500D02*
X118591500Y-104649500D01*
X117308500Y-104649500D01*
X117307968Y-104649500D01*
X117307968Y-103874500D01*
X117308500Y-103874500D01*
X118591500Y-103874500D01*
X118592031Y-103874500D01*
X118592031Y-104649500D01*
X118592031Y-104649500D01*
G37*
G36*
X119320409Y-111421439D02*
X119317893Y-111601600D01*
X119281711Y-111760852D01*
X119216704Y-111906863D01*
X119124071Y-112038177D01*
X119006440Y-112150197D01*
X118872952Y-112234911D01*
X118719068Y-112294599D01*
X118719066Y-112294599D01*
X118565907Y-112321604D01*
X118400898Y-112318147D01*
X118246482Y-112284198D01*
X118097629Y-112219166D01*
X117965673Y-112127454D01*
X117854645Y-112012481D01*
X117766179Y-111875209D01*
X117708297Y-111729015D01*
X117678501Y-111566672D01*
X117680685Y-111410310D01*
X117714821Y-111249713D01*
X117777443Y-111103607D01*
X117868721Y-110970297D01*
X117984158Y-110857253D01*
X118117173Y-110770210D01*
X118269400Y-110708707D01*
X118423005Y-110679405D01*
X118588057Y-110680556D01*
X118742083Y-110712174D01*
X118892631Y-110775458D01*
X119025137Y-110864835D01*
X119138371Y-110978863D01*
X119228262Y-111114159D01*
X119288508Y-111260326D01*
X119320409Y-111421439D01*
X119320409Y-111421439D01*
G37*
G36*
X119320409Y-115231439D02*
X119317893Y-115411600D01*
X119281711Y-115570852D01*
X119216704Y-115716863D01*
X119124071Y-115848177D01*
X119006440Y-115960197D01*
X118872952Y-116044911D01*
X118719068Y-116104599D01*
X118719066Y-116104599D01*
X118565907Y-116131604D01*
X118400898Y-116128147D01*
X118246482Y-116094198D01*
X118097629Y-116029166D01*
X117965673Y-115937454D01*
X117854645Y-115822481D01*
X117766179Y-115685209D01*
X117708297Y-115539015D01*
X117678501Y-115376672D01*
X117680685Y-115220310D01*
X117714821Y-115059713D01*
X117777443Y-114913607D01*
X117868721Y-114780297D01*
X117984158Y-114667253D01*
X118117173Y-114580210D01*
X118269400Y-114518707D01*
X118423005Y-114489405D01*
X118588057Y-114490556D01*
X118742083Y-114522174D01*
X118892631Y-114585458D01*
X119025137Y-114674835D01*
X119138371Y-114788863D01*
X119228262Y-114924159D01*
X119288508Y-115070326D01*
X119320409Y-115231439D01*
X119320409Y-115231439D01*
G37*
G36*
X120392031Y-103125500D02*
X120391500Y-103125500D01*
X119108500Y-103125500D01*
X119107968Y-103125500D01*
X119107968Y-102350500D01*
X119108500Y-102350500D01*
X120391500Y-102350500D01*
X120392031Y-102350500D01*
X120392031Y-103125500D01*
X120392031Y-103125500D01*
G37*
G36*
X120392031Y-104649500D02*
X120391500Y-104649500D01*
X119108500Y-104649500D01*
X119107968Y-104649500D01*
X119107968Y-103874500D01*
X119108500Y-103874500D01*
X120391500Y-103874500D01*
X120392031Y-103874500D01*
X120392031Y-104649500D01*
X120392031Y-104649500D01*
G37*
G36*
X120426031Y-90441500D02*
X120425500Y-90441500D01*
X119650500Y-90441500D01*
X119649968Y-90441500D01*
X119649968Y-89158500D01*
X119650500Y-89158500D01*
X120425500Y-89158500D01*
X120426031Y-89158500D01*
X120426031Y-90441500D01*
X120426031Y-90441500D01*
G37*
G36*
X120590409Y-109516439D02*
X120587893Y-109696600D01*
X120551711Y-109855852D01*
X120486704Y-110001863D01*
X120394071Y-110133177D01*
X120276440Y-110245197D01*
X120142952Y-110329911D01*
X119989068Y-110389599D01*
X119989066Y-110389599D01*
X119835907Y-110416604D01*
X119670898Y-110413147D01*
X119516482Y-110379198D01*
X119367629Y-110314166D01*
X119235673Y-110222454D01*
X119124645Y-110107481D01*
X119036179Y-109970209D01*
X118978297Y-109824015D01*
X118948501Y-109661672D01*
X118950685Y-109505310D01*
X118984821Y-109344713D01*
X119047443Y-109198607D01*
X119138721Y-109065297D01*
X119254158Y-108952253D01*
X119387173Y-108865210D01*
X119539400Y-108803707D01*
X119693005Y-108774405D01*
X119858057Y-108775556D01*
X120012083Y-108807174D01*
X120162631Y-108870458D01*
X120295137Y-108959835D01*
X120408371Y-109073863D01*
X120498262Y-109209159D01*
X120558508Y-109355326D01*
X120590409Y-109516439D01*
X120590409Y-109516439D01*
G37*
G36*
X120590409Y-113326439D02*
X120587893Y-113506600D01*
X120551711Y-113665852D01*
X120486704Y-113811863D01*
X120394071Y-113943177D01*
X120276440Y-114055197D01*
X120142952Y-114139911D01*
X119989068Y-114199599D01*
X119989066Y-114199599D01*
X119835907Y-114226604D01*
X119670898Y-114223147D01*
X119516482Y-114189198D01*
X119367629Y-114124166D01*
X119235673Y-114032454D01*
X119124645Y-113917481D01*
X119036179Y-113780209D01*
X118978297Y-113634015D01*
X118948501Y-113471672D01*
X118950685Y-113315310D01*
X118984821Y-113154713D01*
X119047443Y-113008607D01*
X119138721Y-112875297D01*
X119254158Y-112762253D01*
X119387173Y-112675210D01*
X119539400Y-112613707D01*
X119693005Y-112584405D01*
X119858057Y-112585556D01*
X120012083Y-112617174D01*
X120162631Y-112680458D01*
X120295137Y-112769835D01*
X120408371Y-112883863D01*
X120498262Y-113019159D01*
X120558508Y-113165326D01*
X120590409Y-113326439D01*
X120590409Y-113326439D01*
G37*
G36*
X121860409Y-111421439D02*
X121857893Y-111601600D01*
X121821711Y-111760852D01*
X121756704Y-111906863D01*
X121664071Y-112038177D01*
X121546440Y-112150197D01*
X121412952Y-112234911D01*
X121259068Y-112294599D01*
X121259066Y-112294599D01*
X121105907Y-112321604D01*
X120940898Y-112318147D01*
X120786482Y-112284198D01*
X120637629Y-112219166D01*
X120505673Y-112127454D01*
X120394645Y-112012481D01*
X120306179Y-111875209D01*
X120248297Y-111729015D01*
X120218501Y-111566672D01*
X120220685Y-111410310D01*
X120254821Y-111249713D01*
X120317443Y-111103607D01*
X120408721Y-110970297D01*
X120524158Y-110857253D01*
X120657173Y-110770210D01*
X120809400Y-110708707D01*
X120963005Y-110679405D01*
X121128057Y-110680556D01*
X121282083Y-110712174D01*
X121432631Y-110775458D01*
X121565137Y-110864835D01*
X121678371Y-110978863D01*
X121768262Y-111114159D01*
X121828508Y-111260326D01*
X121860409Y-111421439D01*
X121860409Y-111421439D01*
G37*
G36*
X121860409Y-115231439D02*
X121857893Y-115411600D01*
X121821711Y-115570852D01*
X121756704Y-115716863D01*
X121664071Y-115848177D01*
X121546440Y-115960197D01*
X121412952Y-116044911D01*
X121259068Y-116104599D01*
X121259066Y-116104599D01*
X121105907Y-116131604D01*
X120940898Y-116128147D01*
X120786482Y-116094198D01*
X120637629Y-116029166D01*
X120505673Y-115937454D01*
X120394645Y-115822481D01*
X120306179Y-115685209D01*
X120248297Y-115539015D01*
X120218501Y-115376672D01*
X120220685Y-115220310D01*
X120254821Y-115059713D01*
X120317443Y-114913607D01*
X120408721Y-114780297D01*
X120524158Y-114667253D01*
X120657173Y-114580210D01*
X120809400Y-114518707D01*
X120963005Y-114489405D01*
X121128057Y-114490556D01*
X121282083Y-114522174D01*
X121432631Y-114585458D01*
X121565137Y-114674835D01*
X121678371Y-114788863D01*
X121768262Y-114924159D01*
X121828508Y-115070326D01*
X121860409Y-115231439D01*
X121860409Y-115231439D01*
G37*
G36*
X121950031Y-90441500D02*
X121949500Y-90441500D01*
X121174500Y-90441500D01*
X121173968Y-90441500D01*
X121173968Y-89158500D01*
X121174500Y-89158500D01*
X121949500Y-89158500D01*
X121950031Y-89158500D01*
X121950031Y-90441500D01*
X121950031Y-90441500D01*
G37*
G36*
X123130409Y-109516439D02*
X123127893Y-109696600D01*
X123091711Y-109855852D01*
X123026704Y-110001863D01*
X122934071Y-110133177D01*
X122816440Y-110245197D01*
X122682952Y-110329911D01*
X122529068Y-110389599D01*
X122529066Y-110389599D01*
X122375907Y-110416604D01*
X122210898Y-110413147D01*
X122056482Y-110379198D01*
X121907629Y-110314166D01*
X121775673Y-110222454D01*
X121664645Y-110107481D01*
X121576179Y-109970209D01*
X121518297Y-109824015D01*
X121488501Y-109661672D01*
X121490685Y-109505310D01*
X121524821Y-109344713D01*
X121587443Y-109198607D01*
X121678721Y-109065297D01*
X121794158Y-108952253D01*
X121927173Y-108865210D01*
X122079400Y-108803707D01*
X122233005Y-108774405D01*
X122398057Y-108775556D01*
X122552083Y-108807174D01*
X122702631Y-108870458D01*
X122835137Y-108959835D01*
X122948371Y-109073863D01*
X123038262Y-109209159D01*
X123098508Y-109355326D01*
X123130409Y-109516439D01*
X123130409Y-109516439D01*
G37*
G36*
X123130409Y-113326439D02*
X123127893Y-113506600D01*
X123091711Y-113665852D01*
X123026704Y-113811863D01*
X122934071Y-113943177D01*
X122816440Y-114055197D01*
X122682952Y-114139911D01*
X122529068Y-114199599D01*
X122529066Y-114199599D01*
X122375907Y-114226604D01*
X122210898Y-114223147D01*
X122056482Y-114189198D01*
X121907629Y-114124166D01*
X121775673Y-114032454D01*
X121664645Y-113917481D01*
X121576179Y-113780209D01*
X121518297Y-113634015D01*
X121488501Y-113471672D01*
X121490685Y-113315310D01*
X121524821Y-113154713D01*
X121587443Y-113008607D01*
X121678721Y-112875297D01*
X121794158Y-112762253D01*
X121927173Y-112675210D01*
X122079400Y-112613707D01*
X122233005Y-112584405D01*
X122398057Y-112585556D01*
X122552083Y-112617174D01*
X122702631Y-112680458D01*
X122835137Y-112769835D01*
X122948371Y-112883863D01*
X123038262Y-113019159D01*
X123098508Y-113165326D01*
X123130409Y-113326439D01*
X123130409Y-113326439D01*
G37*
G36*
X123176031Y-90441500D02*
X123175500Y-90441500D01*
X122400500Y-90441500D01*
X122399968Y-90441500D01*
X122399968Y-89158500D01*
X122400500Y-89158500D01*
X123175500Y-89158500D01*
X123176031Y-89158500D01*
X123176031Y-90441500D01*
X123176031Y-90441500D01*
G37*
G36*
X124400409Y-111421439D02*
X124397893Y-111601600D01*
X124361711Y-111760852D01*
X124296704Y-111906863D01*
X124204071Y-112038177D01*
X124086440Y-112150197D01*
X123952952Y-112234911D01*
X123799068Y-112294599D01*
X123799066Y-112294599D01*
X123645907Y-112321604D01*
X123480898Y-112318147D01*
X123326482Y-112284198D01*
X123177629Y-112219166D01*
X123045673Y-112127454D01*
X122934645Y-112012481D01*
X122846179Y-111875209D01*
X122788297Y-111729015D01*
X122758501Y-111566672D01*
X122760685Y-111410310D01*
X122794821Y-111249713D01*
X122857443Y-111103607D01*
X122948721Y-110970297D01*
X123064158Y-110857253D01*
X123197173Y-110770210D01*
X123349400Y-110708707D01*
X123503005Y-110679405D01*
X123668057Y-110680556D01*
X123822083Y-110712174D01*
X123972631Y-110775458D01*
X124105137Y-110864835D01*
X124218371Y-110978863D01*
X124308262Y-111114159D01*
X124368508Y-111260326D01*
X124400409Y-111421439D01*
X124400409Y-111421439D01*
G37*
G36*
X124400409Y-115231439D02*
X124397893Y-115411600D01*
X124361711Y-115570852D01*
X124296704Y-115716863D01*
X124204071Y-115848177D01*
X124086440Y-115960197D01*
X123952952Y-116044911D01*
X123799068Y-116104599D01*
X123799066Y-116104599D01*
X123645907Y-116131604D01*
X123480898Y-116128147D01*
X123326482Y-116094198D01*
X123177629Y-116029166D01*
X123045673Y-115937454D01*
X122934645Y-115822481D01*
X122846179Y-115685209D01*
X122788297Y-115539015D01*
X122758501Y-115376672D01*
X122760685Y-115220310D01*
X122794821Y-115059713D01*
X122857443Y-114913607D01*
X122948721Y-114780297D01*
X123064158Y-114667253D01*
X123197173Y-114580210D01*
X123349400Y-114518707D01*
X123503005Y-114489405D01*
X123668057Y-114490556D01*
X123822083Y-114522174D01*
X123972631Y-114585458D01*
X124105137Y-114674835D01*
X124218371Y-114788863D01*
X124308262Y-114924159D01*
X124368508Y-115070326D01*
X124400409Y-115231439D01*
X124400409Y-115231439D01*
G37*
G36*
X124700031Y-90441500D02*
X124699500Y-90441500D01*
X123924500Y-90441500D01*
X123923968Y-90441500D01*
X123923968Y-89158500D01*
X123924500Y-89158500D01*
X124699500Y-89158500D01*
X124700031Y-89158500D01*
X124700031Y-90441500D01*
X124700031Y-90441500D01*
G37*
G36*
X125670409Y-109516439D02*
X125667893Y-109696600D01*
X125631711Y-109855852D01*
X125566704Y-110001863D01*
X125474071Y-110133177D01*
X125356440Y-110245197D01*
X125222952Y-110329911D01*
X125069068Y-110389599D01*
X125069066Y-110389599D01*
X124915907Y-110416604D01*
X124750898Y-110413147D01*
X124596482Y-110379198D01*
X124447629Y-110314166D01*
X124315673Y-110222454D01*
X124204645Y-110107481D01*
X124116179Y-109970209D01*
X124058297Y-109824015D01*
X124028501Y-109661672D01*
X124030685Y-109505310D01*
X124064821Y-109344713D01*
X124127443Y-109198607D01*
X124218721Y-109065297D01*
X124334158Y-108952253D01*
X124467173Y-108865210D01*
X124619400Y-108803707D01*
X124773005Y-108774405D01*
X124938057Y-108775556D01*
X125092083Y-108807174D01*
X125242631Y-108870458D01*
X125375137Y-108959835D01*
X125488371Y-109073863D01*
X125578262Y-109209159D01*
X125638508Y-109355326D01*
X125670409Y-109516439D01*
X125670409Y-109516439D01*
G37*
G36*
X125670409Y-113326439D02*
X125667893Y-113506600D01*
X125631711Y-113665852D01*
X125566704Y-113811863D01*
X125474071Y-113943177D01*
X125356440Y-114055197D01*
X125222952Y-114139911D01*
X125069068Y-114199599D01*
X125069066Y-114199599D01*
X124915907Y-114226604D01*
X124750898Y-114223147D01*
X124596482Y-114189198D01*
X124447629Y-114124166D01*
X124315673Y-114032454D01*
X124204645Y-113917481D01*
X124116179Y-113780209D01*
X124058297Y-113634015D01*
X124028501Y-113471672D01*
X124030685Y-113315310D01*
X124064821Y-113154713D01*
X124127443Y-113008607D01*
X124218721Y-112875297D01*
X124334158Y-112762253D01*
X124467173Y-112675210D01*
X124619400Y-112613707D01*
X124773005Y-112584405D01*
X124938057Y-112585556D01*
X125092083Y-112617174D01*
X125242631Y-112680458D01*
X125375137Y-112769835D01*
X125488371Y-112883863D01*
X125578262Y-113019159D01*
X125638508Y-113165326D01*
X125670409Y-113326439D01*
X125670409Y-113326439D01*
G37*
G36*
X125826031Y-98841500D02*
X125825500Y-98841500D01*
X125050500Y-98841500D01*
X125049968Y-98841500D01*
X125049968Y-97558500D01*
X125050500Y-97558500D01*
X125825500Y-97558500D01*
X125826031Y-97558500D01*
X125826031Y-98841500D01*
X125826031Y-98841500D01*
G37*
G36*
X126940409Y-111421439D02*
X126937893Y-111601600D01*
X126901711Y-111760852D01*
X126836704Y-111906863D01*
X126744071Y-112038177D01*
X126626440Y-112150197D01*
X126492952Y-112234911D01*
X126339068Y-112294599D01*
X126339066Y-112294599D01*
X126185907Y-112321604D01*
X126020898Y-112318147D01*
X125866482Y-112284198D01*
X125717629Y-112219166D01*
X125585673Y-112127454D01*
X125474645Y-112012481D01*
X125386179Y-111875209D01*
X125328297Y-111729015D01*
X125298501Y-111566672D01*
X125300685Y-111410310D01*
X125334821Y-111249713D01*
X125397443Y-111103607D01*
X125488721Y-110970297D01*
X125604158Y-110857253D01*
X125737173Y-110770210D01*
X125889400Y-110708707D01*
X126043005Y-110679405D01*
X126208057Y-110680556D01*
X126362083Y-110712174D01*
X126512631Y-110775458D01*
X126645137Y-110864835D01*
X126758371Y-110978863D01*
X126848262Y-111114159D01*
X126908508Y-111260326D01*
X126940409Y-111421439D01*
X126940409Y-111421439D01*
G37*
G36*
X126940409Y-115231439D02*
X126937893Y-115411600D01*
X126901711Y-115570852D01*
X126836704Y-115716863D01*
X126744071Y-115848177D01*
X126626440Y-115960197D01*
X126492952Y-116044911D01*
X126339068Y-116104599D01*
X126339066Y-116104599D01*
X126185907Y-116131604D01*
X126020898Y-116128147D01*
X125866482Y-116094198D01*
X125717629Y-116029166D01*
X125585673Y-115937454D01*
X125474645Y-115822481D01*
X125386179Y-115685209D01*
X125328297Y-115539015D01*
X125298501Y-115376672D01*
X125300685Y-115220310D01*
X125334821Y-115059713D01*
X125397443Y-114913607D01*
X125488721Y-114780297D01*
X125604158Y-114667253D01*
X125737173Y-114580210D01*
X125889400Y-114518707D01*
X126043005Y-114489405D01*
X126208057Y-114490556D01*
X126362083Y-114522174D01*
X126512631Y-114585458D01*
X126645137Y-114674835D01*
X126758371Y-114788863D01*
X126848262Y-114924159D01*
X126908508Y-115070326D01*
X126940409Y-115231439D01*
X126940409Y-115231439D01*
G37*
G36*
X127350031Y-98841500D02*
X127349500Y-98841500D01*
X126574500Y-98841500D01*
X126573968Y-98841500D01*
X126573968Y-97558500D01*
X126574500Y-97558500D01*
X127349500Y-97558500D01*
X127350031Y-97558500D01*
X127350031Y-98841500D01*
X127350031Y-98841500D01*
G37*
G36*
X128210409Y-109516439D02*
X128207893Y-109696600D01*
X128171711Y-109855852D01*
X128106704Y-110001863D01*
X128014071Y-110133177D01*
X127896440Y-110245197D01*
X127762952Y-110329911D01*
X127609068Y-110389599D01*
X127609066Y-110389599D01*
X127455907Y-110416604D01*
X127290898Y-110413147D01*
X127136482Y-110379198D01*
X126987629Y-110314166D01*
X126855673Y-110222454D01*
X126744645Y-110107481D01*
X126656179Y-109970209D01*
X126598297Y-109824015D01*
X126568501Y-109661672D01*
X126570685Y-109505310D01*
X126604821Y-109344713D01*
X126667443Y-109198607D01*
X126758721Y-109065297D01*
X126874158Y-108952253D01*
X127007173Y-108865210D01*
X127159400Y-108803707D01*
X127313005Y-108774405D01*
X127478057Y-108775556D01*
X127632083Y-108807174D01*
X127782631Y-108870458D01*
X127915137Y-108959835D01*
X128028371Y-109073863D01*
X128118262Y-109209159D01*
X128178508Y-109355326D01*
X128210409Y-109516439D01*
X128210409Y-109516439D01*
G37*
G36*
X128210409Y-113326439D02*
X128207893Y-113506600D01*
X128171711Y-113665852D01*
X128106704Y-113811863D01*
X128014071Y-113943177D01*
X127896440Y-114055197D01*
X127762952Y-114139911D01*
X127609068Y-114199599D01*
X127609066Y-114199599D01*
X127455907Y-114226604D01*
X127290898Y-114223147D01*
X127136482Y-114189198D01*
X126987629Y-114124166D01*
X126855673Y-114032454D01*
X126744645Y-113917481D01*
X126656179Y-113780209D01*
X126598297Y-113634015D01*
X126568501Y-113471672D01*
X126570685Y-113315310D01*
X126604821Y-113154713D01*
X126667443Y-113008607D01*
X126758721Y-112875297D01*
X126874158Y-112762253D01*
X127007173Y-112675210D01*
X127159400Y-112613707D01*
X127313005Y-112584405D01*
X127478057Y-112585556D01*
X127632083Y-112617174D01*
X127782631Y-112680458D01*
X127915137Y-112769835D01*
X128028371Y-112883863D01*
X128118262Y-113019159D01*
X128178508Y-113165326D01*
X128210409Y-113326439D01*
X128210409Y-113326439D01*
G37*
G36*
X129480409Y-111421439D02*
X129477893Y-111601600D01*
X129441711Y-111760852D01*
X129376704Y-111906863D01*
X129284071Y-112038177D01*
X129166440Y-112150197D01*
X129032952Y-112234911D01*
X128879068Y-112294599D01*
X128879066Y-112294599D01*
X128725907Y-112321604D01*
X128560898Y-112318147D01*
X128406482Y-112284198D01*
X128257629Y-112219166D01*
X128125673Y-112127454D01*
X128014645Y-112012481D01*
X127926179Y-111875209D01*
X127868297Y-111729015D01*
X127838501Y-111566672D01*
X127840685Y-111410310D01*
X127874821Y-111249713D01*
X127937443Y-111103607D01*
X128028721Y-110970297D01*
X128144158Y-110857253D01*
X128277173Y-110770210D01*
X128429400Y-110708707D01*
X128583005Y-110679405D01*
X128748057Y-110680556D01*
X128902083Y-110712174D01*
X129052631Y-110775458D01*
X129185137Y-110864835D01*
X129298371Y-110978863D01*
X129388262Y-111114159D01*
X129448508Y-111260326D01*
X129480409Y-111421439D01*
X129480409Y-111421439D01*
G37*
G36*
X129480409Y-115231439D02*
X129477893Y-115411600D01*
X129441711Y-115570852D01*
X129376704Y-115716863D01*
X129284071Y-115848177D01*
X129166440Y-115960197D01*
X129032952Y-116044911D01*
X128879068Y-116104599D01*
X128879066Y-116104599D01*
X128725907Y-116131604D01*
X128560898Y-116128147D01*
X128406482Y-116094198D01*
X128257629Y-116029166D01*
X128125673Y-115937454D01*
X128014645Y-115822481D01*
X127926179Y-115685209D01*
X127868297Y-115539015D01*
X127838501Y-115376672D01*
X127840685Y-115220310D01*
X127874821Y-115059713D01*
X127937443Y-114913607D01*
X128028721Y-114780297D01*
X128144158Y-114667253D01*
X128277173Y-114580210D01*
X128429400Y-114518707D01*
X128583005Y-114489405D01*
X128748057Y-114490556D01*
X128902083Y-114522174D01*
X129052631Y-114585458D01*
X129185137Y-114674835D01*
X129298371Y-114788863D01*
X129388262Y-114924159D01*
X129448508Y-115070326D01*
X129480409Y-115231439D01*
X129480409Y-115231439D01*
G37*
G36*
X130750409Y-109516439D02*
X130747893Y-109696600D01*
X130711711Y-109855852D01*
X130646704Y-110001863D01*
X130554071Y-110133177D01*
X130436440Y-110245197D01*
X130302952Y-110329911D01*
X130149068Y-110389599D01*
X130149066Y-110389599D01*
X129995907Y-110416604D01*
X129830898Y-110413147D01*
X129676482Y-110379198D01*
X129527629Y-110314166D01*
X129395673Y-110222454D01*
X129284645Y-110107481D01*
X129196179Y-109970209D01*
X129138297Y-109824015D01*
X129108501Y-109661672D01*
X129110685Y-109505310D01*
X129144821Y-109344713D01*
X129207443Y-109198607D01*
X129298721Y-109065297D01*
X129414158Y-108952253D01*
X129547173Y-108865210D01*
X129699400Y-108803707D01*
X129853005Y-108774405D01*
X130018057Y-108775556D01*
X130172083Y-108807174D01*
X130322631Y-108870458D01*
X130455137Y-108959835D01*
X130568371Y-109073863D01*
X130658262Y-109209159D01*
X130718508Y-109355326D01*
X130750409Y-109516439D01*
X130750409Y-109516439D01*
G37*
G36*
X130750409Y-113326439D02*
X130747893Y-113506600D01*
X130711711Y-113665852D01*
X130646704Y-113811863D01*
X130554071Y-113943177D01*
X130436440Y-114055197D01*
X130302952Y-114139911D01*
X130149068Y-114199599D01*
X130149066Y-114199599D01*
X129995907Y-114226604D01*
X129830898Y-114223147D01*
X129676482Y-114189198D01*
X129527629Y-114124166D01*
X129395673Y-114032454D01*
X129284645Y-113917481D01*
X129196179Y-113780209D01*
X129138297Y-113634015D01*
X129108501Y-113471672D01*
X129110685Y-113315310D01*
X129144821Y-113154713D01*
X129207443Y-113008607D01*
X129298721Y-112875297D01*
X129414158Y-112762253D01*
X129547173Y-112675210D01*
X129699400Y-112613707D01*
X129853005Y-112584405D01*
X130018057Y-112585556D01*
X130172083Y-112617174D01*
X130322631Y-112680458D01*
X130455137Y-112769835D01*
X130568371Y-112883863D01*
X130658262Y-113019159D01*
X130718508Y-113165326D01*
X130750409Y-113326439D01*
X130750409Y-113326439D01*
G37*
G36*
X131726031Y-90441500D02*
X131725500Y-90441500D01*
X130950500Y-90441500D01*
X130949968Y-90441500D01*
X130949968Y-89158500D01*
X130950500Y-89158500D01*
X131725500Y-89158500D01*
X131726031Y-89158500D01*
X131726031Y-90441500D01*
X131726031Y-90441500D01*
G37*
G36*
X132020409Y-111421439D02*
X132017893Y-111601600D01*
X131981711Y-111760852D01*
X131916704Y-111906863D01*
X131824071Y-112038177D01*
X131706440Y-112150197D01*
X131572952Y-112234911D01*
X131419068Y-112294599D01*
X131419066Y-112294599D01*
X131265907Y-112321604D01*
X131100898Y-112318147D01*
X130946482Y-112284198D01*
X130797629Y-112219166D01*
X130665673Y-112127454D01*
X130554645Y-112012481D01*
X130466179Y-111875209D01*
X130408297Y-111729015D01*
X130378501Y-111566672D01*
X130380685Y-111410310D01*
X130414821Y-111249713D01*
X130477443Y-111103607D01*
X130568721Y-110970297D01*
X130684158Y-110857253D01*
X130817173Y-110770210D01*
X130969400Y-110708707D01*
X131123005Y-110679405D01*
X131288057Y-110680556D01*
X131442083Y-110712174D01*
X131592631Y-110775458D01*
X131725137Y-110864835D01*
X131838371Y-110978863D01*
X131928262Y-111114159D01*
X131988508Y-111260326D01*
X132020409Y-111421439D01*
X132020409Y-111421439D01*
G37*
G36*
X132020409Y-115231439D02*
X132017893Y-115411600D01*
X131981711Y-115570852D01*
X131916704Y-115716863D01*
X131824071Y-115848177D01*
X131706440Y-115960197D01*
X131572952Y-116044911D01*
X131419068Y-116104599D01*
X131419066Y-116104599D01*
X131265907Y-116131604D01*
X131100898Y-116128147D01*
X130946482Y-116094198D01*
X130797629Y-116029166D01*
X130665673Y-115937454D01*
X130554645Y-115822481D01*
X130466179Y-115685209D01*
X130408297Y-115539015D01*
X130378501Y-115376672D01*
X130380685Y-115220310D01*
X130414821Y-115059713D01*
X130477443Y-114913607D01*
X130568721Y-114780297D01*
X130684158Y-114667253D01*
X130817173Y-114580210D01*
X130969400Y-114518707D01*
X131123005Y-114489405D01*
X131288057Y-114490556D01*
X131442083Y-114522174D01*
X131592631Y-114585458D01*
X131725137Y-114674835D01*
X131838371Y-114788863D01*
X131928262Y-114924159D01*
X131988508Y-115070326D01*
X132020409Y-115231439D01*
X132020409Y-115231439D01*
G37*
G36*
X133250031Y-90441500D02*
X133249500Y-90441500D01*
X132474500Y-90441500D01*
X132473968Y-90441500D01*
X132473968Y-89158500D01*
X132474500Y-89158500D01*
X133249500Y-89158500D01*
X133250031Y-89158500D01*
X133250031Y-90441500D01*
X133250031Y-90441500D01*
G37*
G36*
X133290409Y-109516439D02*
X133287893Y-109696600D01*
X133251711Y-109855852D01*
X133186704Y-110001863D01*
X133094071Y-110133177D01*
X132976440Y-110245197D01*
X132842952Y-110329911D01*
X132689068Y-110389599D01*
X132689066Y-110389599D01*
X132535907Y-110416604D01*
X132370898Y-110413147D01*
X132216482Y-110379198D01*
X132067629Y-110314166D01*
X131935673Y-110222454D01*
X131824645Y-110107481D01*
X131736179Y-109970209D01*
X131678297Y-109824015D01*
X131648501Y-109661672D01*
X131650685Y-109505310D01*
X131684821Y-109344713D01*
X131747443Y-109198607D01*
X131838721Y-109065297D01*
X131954158Y-108952253D01*
X132087173Y-108865210D01*
X132239400Y-108803707D01*
X132393005Y-108774405D01*
X132558057Y-108775556D01*
X132712083Y-108807174D01*
X132862631Y-108870458D01*
X132995137Y-108959835D01*
X133108371Y-109073863D01*
X133198262Y-109209159D01*
X133258508Y-109355326D01*
X133290409Y-109516439D01*
X133290409Y-109516439D01*
G37*
G36*
X133290409Y-113326439D02*
X133287893Y-113506600D01*
X133251711Y-113665852D01*
X133186704Y-113811863D01*
X133094071Y-113943177D01*
X132976440Y-114055197D01*
X132842952Y-114139911D01*
X132689068Y-114199599D01*
X132689066Y-114199599D01*
X132535907Y-114226604D01*
X132370898Y-114223147D01*
X132216482Y-114189198D01*
X132067629Y-114124166D01*
X131935673Y-114032454D01*
X131824645Y-113917481D01*
X131736179Y-113780209D01*
X131678297Y-113634015D01*
X131648501Y-113471672D01*
X131650685Y-113315310D01*
X131684821Y-113154713D01*
X131747443Y-113008607D01*
X131838721Y-112875297D01*
X131954158Y-112762253D01*
X132087173Y-112675210D01*
X132239400Y-112613707D01*
X132393005Y-112584405D01*
X132558057Y-112585556D01*
X132712083Y-112617174D01*
X132862631Y-112680458D01*
X132995137Y-112769835D01*
X133108371Y-112883863D01*
X133198262Y-113019159D01*
X133258508Y-113165326D01*
X133290409Y-113326439D01*
X133290409Y-113326439D01*
G37*
G36*
X134560409Y-111421439D02*
X134557893Y-111601600D01*
X134521711Y-111760852D01*
X134456704Y-111906863D01*
X134364071Y-112038177D01*
X134246440Y-112150197D01*
X134112952Y-112234911D01*
X133959068Y-112294599D01*
X133959066Y-112294599D01*
X133805907Y-112321604D01*
X133640898Y-112318147D01*
X133486482Y-112284198D01*
X133337629Y-112219166D01*
X133205673Y-112127454D01*
X133094645Y-112012481D01*
X133006179Y-111875209D01*
X132948297Y-111729015D01*
X132918501Y-111566672D01*
X132920685Y-111410310D01*
X132954821Y-111249713D01*
X133017443Y-111103607D01*
X133108721Y-110970297D01*
X133224158Y-110857253D01*
X133357173Y-110770210D01*
X133509400Y-110708707D01*
X133663005Y-110679405D01*
X133828057Y-110680556D01*
X133982083Y-110712174D01*
X134132631Y-110775458D01*
X134265137Y-110864835D01*
X134378371Y-110978863D01*
X134468262Y-111114159D01*
X134528508Y-111260326D01*
X134560409Y-111421439D01*
X134560409Y-111421439D01*
G37*
G36*
X134560409Y-115231439D02*
X134557893Y-115411600D01*
X134521711Y-115570852D01*
X134456704Y-115716863D01*
X134364071Y-115848177D01*
X134246440Y-115960197D01*
X134112952Y-116044911D01*
X133959068Y-116104599D01*
X133959066Y-116104599D01*
X133805907Y-116131604D01*
X133640898Y-116128147D01*
X133486482Y-116094198D01*
X133337629Y-116029166D01*
X133205673Y-115937454D01*
X133094645Y-115822481D01*
X133006179Y-115685209D01*
X132948297Y-115539015D01*
X132918501Y-115376672D01*
X132920685Y-115220310D01*
X132954821Y-115059713D01*
X133017443Y-114913607D01*
X133108721Y-114780297D01*
X133224158Y-114667253D01*
X133357173Y-114580210D01*
X133509400Y-114518707D01*
X133663005Y-114489405D01*
X133828057Y-114490556D01*
X133982083Y-114522174D01*
X134132631Y-114585458D01*
X134265137Y-114674835D01*
X134378371Y-114788863D01*
X134468262Y-114924159D01*
X134528508Y-115070326D01*
X134560409Y-115231439D01*
X134560409Y-115231439D01*
G37*
G36*
X135830409Y-109516439D02*
X135827893Y-109696600D01*
X135791711Y-109855852D01*
X135726704Y-110001863D01*
X135634071Y-110133177D01*
X135516440Y-110245197D01*
X135382952Y-110329911D01*
X135229068Y-110389599D01*
X135229066Y-110389599D01*
X135075907Y-110416604D01*
X134910898Y-110413147D01*
X134756482Y-110379198D01*
X134607629Y-110314166D01*
X134475673Y-110222454D01*
X134364645Y-110107481D01*
X134276179Y-109970209D01*
X134218297Y-109824015D01*
X134188501Y-109661672D01*
X134190685Y-109505310D01*
X134224821Y-109344713D01*
X134287443Y-109198607D01*
X134378721Y-109065297D01*
X134494158Y-108952253D01*
X134627173Y-108865210D01*
X134779400Y-108803707D01*
X134933005Y-108774405D01*
X135098057Y-108775556D01*
X135252083Y-108807174D01*
X135402631Y-108870458D01*
X135535137Y-108959835D01*
X135648371Y-109073863D01*
X135738262Y-109209159D01*
X135798508Y-109355326D01*
X135830409Y-109516439D01*
X135830409Y-109516439D01*
G37*
G36*
X135830409Y-113326439D02*
X135827893Y-113506600D01*
X135791711Y-113665852D01*
X135726704Y-113811863D01*
X135634071Y-113943177D01*
X135516440Y-114055197D01*
X135382952Y-114139911D01*
X135229068Y-114199599D01*
X135229066Y-114199599D01*
X135075907Y-114226604D01*
X134910898Y-114223147D01*
X134756482Y-114189198D01*
X134607629Y-114124166D01*
X134475673Y-114032454D01*
X134364645Y-113917481D01*
X134276179Y-113780209D01*
X134218297Y-113634015D01*
X134188501Y-113471672D01*
X134190685Y-113315310D01*
X134224821Y-113154713D01*
X134287443Y-113008607D01*
X134378721Y-112875297D01*
X134494158Y-112762253D01*
X134627173Y-112675210D01*
X134779400Y-112613707D01*
X134933005Y-112584405D01*
X135098057Y-112585556D01*
X135252083Y-112617174D01*
X135402631Y-112680458D01*
X135535137Y-112769835D01*
X135648371Y-112883863D01*
X135738262Y-113019159D01*
X135798508Y-113165326D01*
X135830409Y-113326439D01*
X135830409Y-113326439D01*
G37*
G36*
X137100409Y-111421439D02*
X137097893Y-111601600D01*
X137061711Y-111760852D01*
X136996704Y-111906863D01*
X136904071Y-112038177D01*
X136786440Y-112150197D01*
X136652952Y-112234911D01*
X136499068Y-112294599D01*
X136499066Y-112294599D01*
X136345907Y-112321604D01*
X136180898Y-112318147D01*
X136026482Y-112284198D01*
X135877629Y-112219166D01*
X135745673Y-112127454D01*
X135634645Y-112012481D01*
X135546179Y-111875209D01*
X135488297Y-111729015D01*
X135458501Y-111566672D01*
X135460685Y-111410310D01*
X135494821Y-111249713D01*
X135557443Y-111103607D01*
X135648721Y-110970297D01*
X135764158Y-110857253D01*
X135897173Y-110770210D01*
X136049400Y-110708707D01*
X136203005Y-110679405D01*
X136368057Y-110680556D01*
X136522083Y-110712174D01*
X136672631Y-110775458D01*
X136805137Y-110864835D01*
X136918371Y-110978863D01*
X137008262Y-111114159D01*
X137068508Y-111260326D01*
X137100409Y-111421439D01*
X137100409Y-111421439D01*
G37*
G36*
X137100409Y-115231439D02*
X137097893Y-115411600D01*
X137061711Y-115570852D01*
X136996704Y-115716863D01*
X136904071Y-115848177D01*
X136786440Y-115960197D01*
X136652952Y-116044911D01*
X136499068Y-116104599D01*
X136499066Y-116104599D01*
X136345907Y-116131604D01*
X136180898Y-116128147D01*
X136026482Y-116094198D01*
X135877629Y-116029166D01*
X135745673Y-115937454D01*
X135634645Y-115822481D01*
X135546179Y-115685209D01*
X135488297Y-115539015D01*
X135458501Y-115376672D01*
X135460685Y-115220310D01*
X135494821Y-115059713D01*
X135557443Y-114913607D01*
X135648721Y-114780297D01*
X135764158Y-114667253D01*
X135897173Y-114580210D01*
X136049400Y-114518707D01*
X136203005Y-114489405D01*
X136368057Y-114490556D01*
X136522083Y-114522174D01*
X136672631Y-114585458D01*
X136805137Y-114674835D01*
X136918371Y-114788863D01*
X137008262Y-114924159D01*
X137068508Y-115070326D01*
X137100409Y-115231439D01*
X137100409Y-115231439D01*
G37*
G36*
X138370409Y-109516439D02*
X138367893Y-109696600D01*
X138331711Y-109855852D01*
X138266704Y-110001863D01*
X138174071Y-110133177D01*
X138056440Y-110245197D01*
X137922952Y-110329911D01*
X137769068Y-110389599D01*
X137769066Y-110389599D01*
X137615907Y-110416604D01*
X137450898Y-110413147D01*
X137296482Y-110379198D01*
X137147629Y-110314166D01*
X137015673Y-110222454D01*
X136904645Y-110107481D01*
X136816179Y-109970209D01*
X136758297Y-109824015D01*
X136728501Y-109661672D01*
X136730685Y-109505310D01*
X136764821Y-109344713D01*
X136827443Y-109198607D01*
X136918721Y-109065297D01*
X137034158Y-108952253D01*
X137167173Y-108865210D01*
X137319400Y-108803707D01*
X137473005Y-108774405D01*
X137638057Y-108775556D01*
X137792083Y-108807174D01*
X137942631Y-108870458D01*
X138075137Y-108959835D01*
X138188371Y-109073863D01*
X138278262Y-109209159D01*
X138338508Y-109355326D01*
X138370409Y-109516439D01*
X138370409Y-109516439D01*
G37*
G36*
X138370409Y-113326439D02*
X138367893Y-113506600D01*
X138331711Y-113665852D01*
X138266704Y-113811863D01*
X138174071Y-113943177D01*
X138056440Y-114055197D01*
X137922952Y-114139911D01*
X137769068Y-114199599D01*
X137769066Y-114199599D01*
X137615907Y-114226604D01*
X137450898Y-114223147D01*
X137296482Y-114189198D01*
X137147629Y-114124166D01*
X137015673Y-114032454D01*
X136904645Y-113917481D01*
X136816179Y-113780209D01*
X136758297Y-113634015D01*
X136728501Y-113471672D01*
X136730685Y-113315310D01*
X136764821Y-113154713D01*
X136827443Y-113008607D01*
X136918721Y-112875297D01*
X137034158Y-112762253D01*
X137167173Y-112675210D01*
X137319400Y-112613707D01*
X137473005Y-112584405D01*
X137638057Y-112585556D01*
X137792083Y-112617174D01*
X137942631Y-112680458D01*
X138075137Y-112769835D01*
X138188371Y-112883863D01*
X138278262Y-113019159D01*
X138338508Y-113165326D01*
X138370409Y-113326439D01*
X138370409Y-113326439D01*
G37*
G36*
X139640409Y-111421439D02*
X139637893Y-111601600D01*
X139601711Y-111760852D01*
X139536704Y-111906863D01*
X139444071Y-112038177D01*
X139326440Y-112150197D01*
X139192952Y-112234911D01*
X139039068Y-112294599D01*
X139039066Y-112294599D01*
X138885907Y-112321604D01*
X138720898Y-112318147D01*
X138566482Y-112284198D01*
X138417629Y-112219166D01*
X138285673Y-112127454D01*
X138174645Y-112012481D01*
X138086179Y-111875209D01*
X138028297Y-111729015D01*
X137998501Y-111566672D01*
X138000685Y-111410310D01*
X138034821Y-111249713D01*
X138097443Y-111103607D01*
X138188721Y-110970297D01*
X138304158Y-110857253D01*
X138437173Y-110770210D01*
X138589400Y-110708707D01*
X138743005Y-110679405D01*
X138908057Y-110680556D01*
X139062083Y-110712174D01*
X139212631Y-110775458D01*
X139345137Y-110864835D01*
X139458371Y-110978863D01*
X139548262Y-111114159D01*
X139608508Y-111260326D01*
X139640409Y-111421439D01*
X139640409Y-111421439D01*
G37*
G36*
X139640409Y-115231439D02*
X139637893Y-115411600D01*
X139601711Y-115570852D01*
X139536704Y-115716863D01*
X139444071Y-115848177D01*
X139326440Y-115960197D01*
X139192952Y-116044911D01*
X139039068Y-116104599D01*
X139039066Y-116104599D01*
X138885907Y-116131604D01*
X138720898Y-116128147D01*
X138566482Y-116094198D01*
X138417629Y-116029166D01*
X138285673Y-115937454D01*
X138174645Y-115822481D01*
X138086179Y-115685209D01*
X138028297Y-115539015D01*
X137998501Y-115376672D01*
X138000685Y-115220310D01*
X138034821Y-115059713D01*
X138097443Y-114913607D01*
X138188721Y-114780297D01*
X138304158Y-114667253D01*
X138437173Y-114580210D01*
X138589400Y-114518707D01*
X138743005Y-114489405D01*
X138908057Y-114490556D01*
X139062083Y-114522174D01*
X139212631Y-114585458D01*
X139345137Y-114674835D01*
X139458371Y-114788863D01*
X139548262Y-114924159D01*
X139608508Y-115070326D01*
X139640409Y-115231439D01*
X139640409Y-115231439D01*
G37*
G36*
X140910409Y-109516439D02*
X140907893Y-109696600D01*
X140871711Y-109855852D01*
X140806704Y-110001863D01*
X140714071Y-110133177D01*
X140596440Y-110245197D01*
X140462952Y-110329911D01*
X140309068Y-110389599D01*
X140309066Y-110389599D01*
X140155907Y-110416604D01*
X139990898Y-110413147D01*
X139836482Y-110379198D01*
X139687629Y-110314166D01*
X139555673Y-110222454D01*
X139444645Y-110107481D01*
X139356179Y-109970209D01*
X139298297Y-109824015D01*
X139268501Y-109661672D01*
X139270685Y-109505310D01*
X139304821Y-109344713D01*
X139367443Y-109198607D01*
X139458721Y-109065297D01*
X139574158Y-108952253D01*
X139707173Y-108865210D01*
X139859400Y-108803707D01*
X140013005Y-108774405D01*
X140178057Y-108775556D01*
X140332083Y-108807174D01*
X140482631Y-108870458D01*
X140615137Y-108959835D01*
X140728371Y-109073863D01*
X140818262Y-109209159D01*
X140878508Y-109355326D01*
X140910409Y-109516439D01*
X140910409Y-109516439D01*
G37*
G36*
X140910409Y-113326439D02*
X140907893Y-113506600D01*
X140871711Y-113665852D01*
X140806704Y-113811863D01*
X140714071Y-113943177D01*
X140596440Y-114055197D01*
X140462952Y-114139911D01*
X140309068Y-114199599D01*
X140309066Y-114199599D01*
X140155907Y-114226604D01*
X139990898Y-114223147D01*
X139836482Y-114189198D01*
X139687629Y-114124166D01*
X139555673Y-114032454D01*
X139444645Y-113917481D01*
X139356179Y-113780209D01*
X139298297Y-113634015D01*
X139268501Y-113471672D01*
X139270685Y-113315310D01*
X139304821Y-113154713D01*
X139367443Y-113008607D01*
X139458721Y-112875297D01*
X139574158Y-112762253D01*
X139707173Y-112675210D01*
X139859400Y-112613707D01*
X140013005Y-112584405D01*
X140178057Y-112585556D01*
X140332083Y-112617174D01*
X140482631Y-112680458D01*
X140615137Y-112769835D01*
X140728371Y-112883863D01*
X140818262Y-113019159D01*
X140878508Y-113165326D01*
X140910409Y-113326439D01*
X140910409Y-113326439D01*
G37*
G36*
X141219204Y-69930761D02*
X141217001Y-70088577D01*
X141185153Y-70228750D01*
X141128103Y-70356889D01*
X141046748Y-70472216D01*
X140943284Y-70570745D01*
X140826314Y-70644975D01*
X140690671Y-70697588D01*
X140690669Y-70697588D01*
X140556777Y-70721196D01*
X140411327Y-70718150D01*
X140276019Y-70688401D01*
X140145093Y-70631201D01*
X140029203Y-70550655D01*
X139931765Y-70449755D01*
X139853897Y-70328928D01*
X139803216Y-70200924D01*
X139776953Y-70057824D01*
X139778863Y-69921024D01*
X139808931Y-69779563D01*
X139863846Y-69651439D01*
X139944071Y-69534272D01*
X140045531Y-69434916D01*
X140162175Y-69358585D01*
X140296263Y-69304411D01*
X140430650Y-69278775D01*
X140576139Y-69279790D01*
X140711000Y-69307474D01*
X140843513Y-69363177D01*
X140959799Y-69441613D01*
X141059249Y-69541760D01*
X141138313Y-69660760D01*
X141191103Y-69788840D01*
X141219204Y-69930761D01*
X141219204Y-69930761D01*
G37*
G36*
X146000438Y-88104762D02*
X145995796Y-88437239D01*
X145930069Y-88726532D01*
X145810821Y-88994368D01*
X145641319Y-89234653D01*
X145427115Y-89438637D01*
X145181032Y-89594805D01*
X144902818Y-89702718D01*
X144902816Y-89702718D01*
X144618329Y-89752880D01*
X144319994Y-89746631D01*
X144035334Y-89684045D01*
X143764279Y-89565625D01*
X143522819Y-89397805D01*
X143319155Y-89186905D01*
X143158450Y-88937539D01*
X143051476Y-88667355D01*
X142997608Y-88373848D01*
X143001654Y-88084144D01*
X143063515Y-87793107D01*
X143178671Y-87524429D01*
X143345290Y-87281087D01*
X143556006Y-87074739D01*
X143800608Y-86914676D01*
X144076479Y-86803217D01*
X144361077Y-86748927D01*
X144659481Y-86751010D01*
X144944137Y-86809442D01*
X145217621Y-86924403D01*
X145460682Y-87088351D01*
X145667883Y-87297004D01*
X145831571Y-87543373D01*
X145942634Y-87812834D01*
X146000438Y-88104762D01*
X146000438Y-88104762D01*
G37*
G36*
X146000438Y-110304762D02*
X145995796Y-110637239D01*
X145930069Y-110926532D01*
X145810821Y-111194368D01*
X145641319Y-111434653D01*
X145427115Y-111638637D01*
X145181032Y-111794805D01*
X144902818Y-111902718D01*
X144902816Y-111902718D01*
X144618329Y-111952880D01*
X144319994Y-111946631D01*
X144035334Y-111884045D01*
X143764279Y-111765625D01*
X143522819Y-111597805D01*
X143319155Y-111386905D01*
X143158450Y-111137539D01*
X143051476Y-110867355D01*
X142997608Y-110573848D01*
X143001654Y-110284144D01*
X143063515Y-109993107D01*
X143178671Y-109724429D01*
X143345290Y-109481087D01*
X143556006Y-109274739D01*
X143800608Y-109114676D01*
X144076479Y-109003217D01*
X144361077Y-108948927D01*
X144659481Y-108951010D01*
X144944137Y-109009442D01*
X145217621Y-109124403D01*
X145460682Y-109288351D01*
X145667883Y-109497004D01*
X145831571Y-109743373D01*
X145942634Y-110012834D01*
X146000438Y-110304762D01*
X146000438Y-110304762D01*
G37*
G36*
X149102464Y-73295732D02*
X149095939Y-73763055D01*
X149004056Y-74167472D01*
X148836790Y-74543160D01*
X148599235Y-74879915D01*
X148299537Y-75165315D01*
X147953773Y-75384742D01*
X147565491Y-75535348D01*
X147565489Y-75535348D01*
X147164737Y-75606010D01*
X146748369Y-75597289D01*
X146348405Y-75509352D01*
X145969166Y-75343666D01*
X145630763Y-75108470D01*
X145345089Y-74812645D01*
X145120431Y-74464044D01*
X144969996Y-74084091D01*
X144894816Y-73674466D01*
X144900510Y-73266715D01*
X144986918Y-72860199D01*
X145148582Y-72483010D01*
X145381900Y-72142256D01*
X145676966Y-71853307D01*
X146020354Y-71628600D01*
X146405687Y-71472916D01*
X146806252Y-71396504D01*
X147222711Y-71399410D01*
X147623015Y-71481582D01*
X148005332Y-71642292D01*
X148346268Y-71872257D01*
X148636657Y-72164681D01*
X148865678Y-72509384D01*
X149021729Y-72887994D01*
X149102464Y-73295732D01*
X149102464Y-73295732D01*
G37*
G36*
X149102464Y-103795732D02*
X149095939Y-104263055D01*
X149004056Y-104667472D01*
X148836790Y-105043160D01*
X148599235Y-105379915D01*
X148299537Y-105665315D01*
X147953773Y-105884742D01*
X147565491Y-106035348D01*
X147565489Y-106035348D01*
X147164737Y-106106010D01*
X146748369Y-106097289D01*
X146348405Y-106009352D01*
X145969166Y-105843666D01*
X145630763Y-105608470D01*
X145345089Y-105312645D01*
X145120431Y-104964044D01*
X144969996Y-104584091D01*
X144894816Y-104174466D01*
X144900510Y-103766715D01*
X144986918Y-103360199D01*
X145148582Y-102983010D01*
X145381900Y-102642256D01*
X145676966Y-102353307D01*
X146020354Y-102128600D01*
X146405687Y-101972916D01*
X146806252Y-101896504D01*
X147222711Y-101899410D01*
X147623015Y-101981582D01*
X148005332Y-102142292D01*
X148346268Y-102372257D01*
X148636657Y-102664681D01*
X148865678Y-103009384D01*
X149021729Y-103387994D01*
X149102464Y-103795732D01*
X149102464Y-103795732D01*
G37*
G36*
X149660441Y-113252898D02*
X149655580Y-113601055D01*
X149586812Y-113903734D01*
X149461981Y-114184112D01*
X149284565Y-114435614D01*
X149060420Y-114649065D01*
X148802746Y-114812589D01*
X148511734Y-114925466D01*
X148511732Y-114925466D01*
X148213725Y-114978012D01*
X147901665Y-114971475D01*
X147603598Y-114905942D01*
X147319964Y-114782025D01*
X147067231Y-114606371D01*
X146854031Y-114385596D01*
X146685890Y-114124691D01*
X146573862Y-113841743D01*
X146517515Y-113534734D01*
X146521753Y-113231304D01*
X146586468Y-112926838D01*
X146707032Y-112645543D01*
X146881408Y-112390874D01*
X147101932Y-112174921D01*
X147358020Y-112007341D01*
X147646619Y-111890740D01*
X147944702Y-111833878D01*
X148256833Y-111836056D01*
X148554937Y-111897249D01*
X148841076Y-112017530D01*
X149095518Y-112189153D01*
X149312392Y-112407547D01*
X149483677Y-112665351D01*
X149599971Y-112947503D01*
X149660441Y-113252898D01*
X149660441Y-113252898D01*
G37*
M02*
